<?xml version="1.0" standalone="no"?><!DOCTYPE svg PUBLIC "-//W3C//DTD SVG 1.1//EN" "http://www.w3.org/Graphics/SVG/1.1/DTD/svg11.dtd"><svg t="1709631350812" class="icon" viewBox="0 0 1024 1024" version="1.1" xmlns="http://www.w3.org/2000/svg" p-id="3620" xmlns:xlink="http://www.w3.org/1999/xlink" width="64" height="64"><path d="M777.481481 663.703704h-89.258666l-0.530963 2.275555A94.814815 94.814815 0 0 1 606.814815 738.910815V739.555556h-8.798815a95.762963 95.762963 0 0 1-2.730667 0.037925H322.806519l-0.170667 75.927704v0.18963c0 41.718519 33.829926 75.548444 75.567407 75.548444H644.740741a132.740741 132.740741 0 0 0 132.74074-132.74074v-94.814815z m-530.526814 75.851852H170.666667a113.777778 113.777778 0 0 1-113.777778-113.777778V170.666667a113.777778 113.777778 0 0 1 113.777778-113.777778h682.666666a113.777778 113.777778 0 0 1 113.777778 113.777778v455.111111a113.777778 113.777778 0 0 1-113.777778 113.777778v18.962963c0 115.2-93.392593 208.592593-208.592592 208.592592H398.203259a151.419259 151.419259 0 0 1-151.419259-151.419259v-0.360296l0.18963-75.776zM853.333333 663.703704a37.925926 37.925926 0 0 0 37.925926-37.925926V170.666667a37.925926 37.925926 0 0 0-37.925926-37.925926H170.666667a37.925926 37.925926 0 0 0-37.925926 37.925926v455.111111a37.925926 37.925926 0 0 0 37.925926 37.925926h425.851259a18.962963 18.962963 0 0 0 17.256296-14.677334c15.68237-68.342519 32.237037-115.086222 51.730963-142.373926 13.918815-19.456 34.076444-33.867852 59.486815-43.482074A94.814815 94.814815 0 0 1 853.333333 551.860148V663.703704z m-75.851852 0v-111.843556a18.962963 18.962963 0 0 0-25.675851-17.73037c-12.136296 4.589037-19.986963 10.202074-24.576 16.630518-11.927704 16.687407-25.6 55.030519-39.006815 112.943408H777.481481z" fill="#54535B" p-id="3621"></path><path d="M533.333333 387.280593h69.328593c12.762074 0 23.115852 10.012444 23.115852 22.357333s-10.353778 22.376296-23.115852 22.376296h-69.328593v44.714667c0 16.478815-13.805037 29.828741-30.814814 29.828741s-30.814815-13.349926-30.814815-29.828741v-44.73363h-69.328593c-12.762074 0-23.115852-10.012444-23.115852-22.357333s10.353778-22.376296 23.115852-22.376296h69.328593V357.451852h-69.328593c-12.762074 0-23.115852-10.012444-23.115852-22.376296 0-12.325926 10.353778-22.357333 23.115852-22.357334h41.187556l-36.769186-49.796741a21.902222 21.902222 0 0 1 5.385482-31.194074 23.608889 23.608889 0 0 1 32.237037 5.195852l55.940741 75.794963h4.551111l55.959704-75.794963a23.608889 23.608889 0 0 1 32.237037-5.195852c10.391704 7.168 12.8 21.143704 5.385481 31.194074l-36.769185 49.796741h40.96c12.743111 0 23.096889 10.012444 23.096889 22.376297 0 12.344889-10.353778 22.376296-23.115852 22.376296h-69.328593v29.809778z" fill="#4270E2" p-id="3622"></path></svg>