<?xml version="1.0" standalone="no"?><!DOCTYPE svg PUBLIC "-//W3C//DTD SVG 1.1//EN" "http://www.w3.org/Graphics/SVG/1.1/DTD/svg11.dtd"><svg t="1709631214035" class="icon" viewBox="0 0 1024 1024" version="1.1" xmlns="http://www.w3.org/2000/svg" p-id="20791" xmlns:xlink="http://www.w3.org/1999/xlink" width="64" height="64"><path d="M704 70.144h-384c-67.072 0-130.048 26.112-176.64 72.704S70.656 252.928 70.656 320v384c0 67.072 26.112 130.048 72.704 176.64 47.104 47.104 109.568 72.704 176.64 72.704h384c67.072 0 130.048-26.112 176.64-72.704 47.104-47.104 72.704-109.568 72.704-176.64v-136.704c0-15.36-11.776-29.184-27.136-30.208-19.968-1.536-33.792 11.264-33.792 30.208v137.216c0 104.448-84.48 188.928-188.928 188.928h-384c-104.448 0-188.928-84.48-188.928-188.928v-384c0-104.448 84.48-188.928 188.928-188.928h384c104.448 0 188.928 84.48 188.928 188.928v54.784c0 15.36 11.776 29.184 27.136 30.208 19.968 1.536 33.792-11.264 33.792-30.208V320c0-67.072-26.112-130.048-72.704-176.64-46.592-47.616-109.568-73.216-176.64-73.216z" fill="#2E77ED" p-id="20792"></path><path d="M265.216 432.128c0-16.896 13.824-30.72 30.72-30.72h433.664c15.872 0 28.16 12.8 28.16 28.16v1.024c0 16.896-13.824 30.72-30.72 30.72H294.4c-15.872 0.512-29.184-12.8-29.184-29.184z" fill="#FFBB12" p-id="20793"></path><path d="M608.768 311.808c11.776-11.776 30.72-11.776 42.496 0l98.304 98.304c11.776 11.776 11.776 30.72 0 42.496-11.776 11.776-30.72 11.776-42.496 0l-98.304-98.304c-11.776-11.776-11.776-30.72 0-42.496z" fill="#FFBB12" p-id="20794"></path><path d="M759.296 591.872c0 16.896-13.824 30.72-30.72 30.72H294.4c-15.872 0-28.16-12.8-28.16-28.16v-1.024c0-16.896 13.824-30.72 30.72-30.72h433.152c16.384 0 29.184 13.312 29.184 29.184z" fill="#2E77ED" p-id="20795"></path><path d="M416.256 712.704c-11.776 11.776-30.72 11.776-42.496 0L274.944 614.4c-11.776-11.776-11.776-30.72 0-42.496 11.776-11.776 30.72-11.776 42.496 0l98.304 98.304c12.288 11.776 12.288 30.72 0.512 42.496z" fill="#2E77ED" p-id="20796"></path></svg>