<?xml version="1.0" standalone="no"?><!DOCTYPE svg PUBLIC "-//W3C//DTD SVG 1.1//EN" "http://www.w3.org/Graphics/SVG/1.1/DTD/svg11.dtd"><svg t="1709631279238" class="icon" viewBox="0 0 1024 1024" version="1.1" xmlns="http://www.w3.org/2000/svg" p-id="1502" xmlns:xlink="http://www.w3.org/1999/xlink" width="64" height="64"><path d="M902.738 185.45c0-41.256-33.972-75.009-75.48-75.009H140.885c-41.456 0-75.388 33.753-75.388 75.008v83.8h837.24v-83.8zM736.274 441.734c63.799 0 122.051 23.704 166.464 62.771V381.756H65.498v315.44c0 41.252 33.935 75.025 75.387 75.025h355.656c-8.052-24.658-12.423-50.982-12.423-78.33 0-139.263 112.894-252.157 252.156-252.157z" fill="#1296DB" p-id="1503"></path><path d="M941.4 608.7c-11.685-26.615-27.807-50.127-47.905-70.112-20.268-19.968-43.78-35.933-70.844-47.609-26.924-11.69-55.462-17.45-85.789-17.45-31.054 0-60.044 5.758-86.964 17.45-26.908 11.682-50.575 27.641-70.685 47.61-20.262 19.984-36.238 43.496-48.07 70.111-11.84 26.759-17.746 55.16-17.746 85.19 0 30.754 5.911 59.457 17.747 86.074 11.832 26.763 27.807 50.128 48.07 70.25 20.11 19.959 43.77 35.629 70.684 47.02 26.92 11.416 55.91 17.019 86.964 17.019 30.327 0 58.865-5.603 85.789-17.018 27.064-11.392 50.576-27.062 70.844-47.02 20.098-20.122 36.22-43.488 47.905-70.25 11.843-26.618 17.753-55.32 17.753-86.075 0-30.03-5.91-58.431-17.753-85.19z m-79.8 188.643c-13.037-35.786-47.364-61.348-87.665-61.348v93.524c0 12.928-10.484 23.405-23.412 23.405-8.082 0-15.21-4.098-19.413-10.334L600.143 711.63c-5.203-4.298-8.523-10.794-8.523-18.067 0-6.51 2.666-12.395 6.948-16.64l-0.029-0.027 136.24-136.238 0.155 0.15a23.304 23.304 0 0 1 15.59-5.958c12.927 0 23.411 10.487 23.411 23.411v70.74c59.091 0 106.998 47.9 106.998 106.992-0.007 22.827-7.158 43.982-19.333 61.35z" fill="#1296DB" p-id="1504"></path></svg>