<?xml version="1.0" standalone="no"?><!DOCTYPE svg PUBLIC "-//W3C//DTD SVG 1.1//EN" "http://www.w3.org/Graphics/SVG/1.1/DTD/svg11.dtd"><svg t="1709796160250" class="icon" viewBox="0 0 1024 1024" version="1.1" xmlns="http://www.w3.org/2000/svg" p-id="89977" xmlns:xlink="http://www.w3.org/1999/xlink" width="64" height="64"><path d="M930.816 462.08l-393.6256-366.8992c-22.3744-20.8384-57.1904-20.48-79.104 0.8704L81.92 462.6432c-24.32 23.7056-7.9872 65.6896 25.5488 65.6896H122.88c20.48 0 37.12 17.0496 37.12 38.0928v306.0736c0 21.0432 16.5888 38.0928 37.12 38.0928h622.2336c20.48 0 37.12-17.0496 37.12-38.0928v-306.0736c0-21.0432 16.5888-38.0928 37.12-38.0928h12.288c33.8944 0 50.0224-42.8544 24.9344-66.2528z" fill="#F85F69" p-id="89978"></path><path d="M907.9296 777.7792l-145.408-145.408c2.9696-13.7728 4.5568-28.0576 4.5568-42.7008 0-111.9744-90.7776-202.8032-202.8032-202.8032-19.712 0-38.7584 2.8672-56.7296 8.0896-7.936 2.304-10.5984 12.2368-4.7104 18.0736l89.856 89.856c17.664 17.664 17.664 46.336 0 64l-48.9984 48.9984c-17.664 17.664-46.336 17.664-64 0L388.608 524.9024c-5.7856-5.7856-15.5648-3.2768-17.9712 4.5056a202.38336 202.38336 0 0 0-9.1648 60.3136c0 111.9744 90.7776 202.8032 202.8032 202.8032 14.4896 0 28.672-1.536 42.2912-4.4544l145.5616 145.5616c43.008 43.008 112.7936 43.008 155.8016 0 43.008-43.0592 43.008-112.7936 0-155.8528z" fill="#F85F69" p-id="89979"></path><path d="M762.5216 632.3712c2.9696-13.7728 4.5568-28.0576 4.5568-42.7008 0-111.9744-90.7776-202.8032-202.8032-202.8032-19.712 0-38.7584 2.8672-56.7296 8.0896-7.936 2.304-10.5984 12.2368-4.7104 18.0736l89.856 89.856c17.664 17.664 17.664 46.336 0 64l-48.9984 48.9984c-17.664 17.664-46.336 17.664-64 0L388.608 524.9024c-5.7856-5.7856-15.5648-3.2768-17.9712 4.5056a202.38336 202.38336 0 0 0-9.1648 60.3136c0 111.9744 90.7776 202.8032 202.8032 202.8032 14.4896 0 28.672-1.536 42.2912-4.4544l122.4704 122.4704h90.3168c20.48 0 37.12-17.0496 37.12-38.0928v-146.1248l-93.952-93.952z" fill="#F33B3D" p-id="89980"></path><path d="M832 893.1328c-10.5984 0-21.1456-4.0448-29.1328-12.1856l-112.3328-113.8176c-15.872-16.0768-15.7184-42.0352 0.4096-57.9072 16.128-15.872 42.0352-15.7184 57.9072 0.4096l112.3328 113.8176c15.872 16.0768 15.7184 42.0352-0.4096 57.9072a41.00096 41.00096 0 0 1-28.7744 11.776z" fill="#FFFFFF" p-id="89981"></path></svg>