<?xml version="1.0" standalone="no"?><!DOCTYPE svg PUBLIC "-//W3C//DTD SVG 1.1//EN" "http://www.w3.org/Graphics/SVG/1.1/DTD/svg11.dtd"><svg height="1024" node-id="1" sillyvg="true" template-height="1024" template-width="1024" version="1.1" viewBox="0 0 1024 1024" width="1024" xmlns="http://www.w3.org/2000/svg" xmlns:xlink="http://www.w3.org/1999/xlink"><defs node-id="90"></defs><path d="M 470.10 317.90 C 469.90 320.80 468.70 323.60 467.20 325.80 C 466.50 326.50 465.60 327.20 464.70 327.60 C 463.60 328.10 462.90 329.20 462.70 330.10 C 457.70 329.00 452.50 330.10 448.60 333.30 C 442.00 337.60 435.90 342.60 429.80 347.60 C 429.30 348.10 428.40 348.30 427.80 348.10 C 423.00 347.20 415.10 343.30 410.10 345.60 C 409.90 346.10 409.40 346.10 409.00 345.40 C 408.50 344.90 408.50 344.30 409.20 343.80 L 409.20 343.80 C 410.30 342.70 411.20 341.50 411.70 340.20 C 411.90 339.50 412.60 339.10 413.10 338.60 C 415.80 337.00 417.90 334.50 419.20 331.80 C 419.40 331.30 419.40 330.40 419.00 330.00 C 418.50 329.50 417.90 329.30 417.20 329.80 L 413.30 331.60 C 413.80 330.90 414.00 330.50 413.50 330.50 L 428.00 321.00 C 438.90 315.30 446.40 326.90 455.20 321.50 C 461.90 317.50 466.90 316.30 470.10 317.90 Z" fill="#cbda66" fill-rule="nonzero" node-id="94" stroke="none" target-height="33" target-width="61.600006" target-x="408.5" target-y="315.3"></path><path d="M 618.20 335.80 L 628.40 335.60 C 629.10 335.60 629.50 336.10 629.80 336.70 L 630.00 337.60 C 630.00 338.10 629.80 338.50 629.30 338.50 C 629.30 338.50 629.30 338.50 629.10 338.50 L 617.50 338.70 C 616.80 338.70 616.10 339.40 616.10 340.10 L 616.10 340.10 C 616.60 348.50 616.30 357.10 615.40 365.50 C 615.40 366.20 614.70 366.60 614.00 366.60 L 613.30 366.60 C 612.80 366.60 612.60 366.40 612.60 365.90 L 612.40 342.10 C 612.40 340.50 611.00 339.40 609.50 339.40 L 597.70 339.40 C 597.00 339.40 596.60 338.90 596.60 338.30 L 596.60 338.10 C 596.80 337.40 597.10 337.00 597.70 337.00 C 602.00 336.80 606.30 336.30 610.60 336.10 C 611.70 336.10 612.40 335.20 612.60 334.10 L 613.10 318.90 C 613.10 318.70 613.30 318.40 613.60 318.40 L 614.30 318.40 C 614.80 318.40 615.00 318.90 615.00 319.10 L 615.90 333.80 C 615.90 334.70 616.60 335.60 617.50 335.60 C 618.00 335.80 618.00 335.80 618.20 335.80 Z" fill="#f46e66" fill-rule="nonzero" node-id="96" stroke="none" target-height="48.200012" target-width="33.400024" target-x="596.6" target-y="318.4"></path><path d="M 428.20 320.90 L 413.70 330.40 C 417.10 320.90 421.80 317.70 428.20 320.90 Z" fill="#e0e9a6" fill-rule="nonzero" node-id="98" stroke="none" target-height="12.699982" target-width="14.5" target-x="413.7" target-y="317.7"></path><path d="M 470.10 317.90 C 470.80 324.90 474.00 331.50 478.90 336.70 L 486.40 344.00 C 491.60 350.10 496.40 355.80 500.70 361.20 C 501.80 362.30 503.20 363.20 504.80 363.90 C 522.70 373.70 538.40 387.00 550.60 403.60 C 555.40 409.70 558.30 417.00 559.20 424.50 C 555.10 419.70 551.30 414.70 547.90 409.80 C 544.00 404.10 536.60 396.40 525.20 386.70 C 520.20 382.40 512.30 375.80 501.20 367.00 C 496.20 363.10 488.00 357.70 482.20 351.60 L 462.70 330.50 C 462.90 329.40 463.60 328.50 464.70 328.00 C 465.60 327.50 466.50 326.90 467.20 326.20 C 469.00 323.60 469.90 320.90 470.10 317.90 Z" fill="#e0e9a6" fill-rule="nonzero" node-id="100" stroke="none" target-height="106.600006" target-width="96.5" target-x="462.7" target-y="317.9"></path><path d="M 410.30 346.00 C 409.80 348.70 410.50 351.40 412.30 353.50 C 413.90 355.30 415.90 356.70 418.20 357.60 C 423.40 360.10 428.60 363.00 433.60 366.00 C 437.50 368.50 438.40 367.60 436.30 363.50 C 434.70 360.30 433.60 356.70 432.70 353.30 C 432.50 352.60 432.70 351.90 433.20 351.50 C 438.00 347.20 443.40 343.60 449.30 341.10 C 461.80 335.70 469.00 344.30 478.10 352.70 C 478.30 352.90 478.80 353.20 479.20 353.40 L 480.30 353.90 C 481.00 354.10 481.40 353.90 481.40 353.20 L 481.40 351.80 C 487.30 357.90 495.50 363.40 500.40 367.20 C 511.50 375.80 519.40 382.40 524.40 386.90 C 535.70 396.90 543.40 404.60 547.10 410.00 C 550.50 415.20 554.40 420.20 558.40 424.70 C 563.40 434.00 567.20 444.00 569.30 454.40 C 569.50 456.20 570.40 456.90 571.80 456.70 C 570.90 457.80 569.80 458.70 568.40 459.40 C 567.00 461.40 566.40 463.70 566.60 466.20 C 567.10 469.60 567.70 473.00 568.60 476.40 C 568.80 476.90 568.60 477.50 568.10 477.80 L 567.40 478.00 C 567.20 478.20 566.70 478.20 566.50 478.00 L 566.30 477.80 L 563.10 467.80 C 562.60 466.90 561.70 466.40 560.60 466.90 C 560.10 467.10 559.90 467.40 559.70 467.80 L 559.00 469.40 C 556.50 467.60 553.30 466.90 550.40 467.10 C 549.30 461.90 547.50 456.90 545.00 452.40 C 543.60 449.70 541.80 447.60 539.30 446.10 C 538.60 445.60 537.90 445.60 537.30 445.60 C 534.10 445.80 531.40 448.30 530.70 451.50 C 529.30 460.30 529.60 469.60 531.60 478.50 C 531.40 484.80 534.30 490.70 539.50 494.60 C 533.80 503.90 534.50 512.50 541.80 520.20 C 542.30 520.70 542.70 521.30 542.90 522.00 C 543.80 525.60 547.20 528.10 551.10 527.70 C 552.90 527.90 554.50 527.70 556.10 526.60 C 554.70 528.40 554.70 530.70 556.10 532.30 C 556.60 532.80 556.80 533.40 556.60 534.10 C 556.40 534.60 556.40 535.20 556.40 535.90 C 556.40 536.60 557.10 537.00 557.80 537.00 C 558.00 537.00 558.00 537.00 558.30 536.80 C 560.30 535.90 561.90 534.10 562.40 531.80 C 562.60 530.70 564.00 530.00 565.10 530.20 C 565.60 530.20 565.80 530.40 566.00 530.70 C 569.60 534.80 572.80 539.50 575.50 544.50 C 576.00 545.40 576.40 545.20 576.60 544.50 C 577.10 543.40 577.10 542.20 576.80 541.10 L 577.70 553.30 C 577.50 554.20 576.10 554.00 574.10 553.10 C 573.00 552.40 572.10 551.70 571.40 550.80 C 568.70 547.90 564.40 546.50 560.30 547.40 C 558.70 547.60 557.40 549.20 557.60 551.00 L 558.30 566.00 C 552.20 557.40 545.60 549.20 536.80 547.20 C 524.60 544.50 512.30 545.80 500.10 546.50 C 501.20 546.30 502.10 545.40 502.40 544.50 C 502.60 543.80 503.10 543.10 503.50 542.90 C 510.10 538.60 514.20 528.40 515.70 521.40 C 517.10 516.00 515.70 512.80 511.60 512.10 C 509.80 511.00 507.30 511.20 505.90 512.80 C 505.40 513.30 504.80 513.70 504.10 513.90 C 502.70 514.40 501.40 515.00 500.50 516.20 C 496.40 515.30 492.30 514.40 488.30 513.90 C 483.10 512.80 477.90 511.20 472.70 509.10 C 471.80 508.90 471.30 508.90 470.90 509.10 C 470.40 509.80 470.20 510.50 470.20 511.10 C 470.40 510.00 470.20 509.50 469.50 509.30 C 468.10 509.10 466.60 509.80 465.60 510.90 C 464.00 512.90 463.10 512.90 462.40 511.40 L 452.40 518.90 C 447.40 518.70 442.40 519.80 437.90 522.30 C 438.10 521.40 437.90 520.90 437.40 520.50 C 436.90 520.30 436.50 520.50 436.00 520.70 C 433.70 521.60 431.50 522.30 429.00 522.50 C 427.60 522.30 426.30 523.40 426.10 524.80 C 426.10 525.00 426.10 525.50 426.10 525.70 C 426.30 530.20 427.70 534.80 430.20 538.40 C 435.60 545.70 442.70 551.10 451.10 554.50 C 448.60 555.20 442.90 556.30 433.90 557.90 C 423.20 560.40 412.80 563.60 402.80 567.70 C 387.60 573.10 375.10 583.80 364.90 599.70 C 365.80 596.50 365.60 593.40 364.40 590.40 C 365.80 588.80 365.30 587.90 363.00 587.90 C 362.30 587.90 361.40 588.40 361.20 589.00 L 356.40 601.50 C 356.20 602.00 355.90 602.20 355.70 602.40 C 354.10 603.80 352.80 605.60 352.10 607.40 C 351.60 608.30 350.70 608.50 350.10 608.30 C 349.90 608.10 349.60 608.10 349.40 607.80 C 348.30 606.40 347.10 604.60 346.00 603.00 C 345.10 602.10 344.90 600.70 344.90 599.60 C 345.10 598.20 346.30 596.90 347.60 596.70 C 348.30 596.50 349.20 596.70 349.60 596.90 C 350.50 597.40 351.60 597.80 352.80 598.00 C 353.70 598.20 353.90 598.00 353.30 597.30 C 351.70 595.00 349.00 594.80 345.40 596.40 C 343.80 597.10 342.70 598.70 343.10 600.50 C 343.60 603.70 344.90 606.60 347.20 608.90 C 348.30 610.00 348.30 611.60 347.20 612.80 L 347.00 613.00 C 342.20 616.60 336.60 618.90 330.40 619.60 C 329.00 618.00 328.10 616.00 327.70 613.90 C 327.50 613.20 327.20 612.50 326.80 611.90 C 325.00 609.60 323.90 606.70 323.40 603.70 C 322.50 596.70 318.00 591.00 310.20 586.70 C 309.50 586.20 309.10 585.80 308.40 585.30 C 305.00 581.40 301.80 580.80 298.60 583.00 C 296.10 584.80 292.50 584.40 290.70 581.60 C 290.20 581.10 290.00 580.50 289.80 579.80 C 289.60 578.70 290.00 576.60 291.60 573.90 C 292.10 573.20 291.80 572.30 291.40 571.90 L 290.50 571.00 C 290.00 570.50 289.40 570.50 288.90 571.00 L 288.70 571.20 L 286.70 575.70 L 276.30 563.90 C 275.60 563.00 274.50 562.80 273.60 563.00 C 273.40 563.00 273.10 563.00 272.90 563.00 C 272.00 563.00 271.30 562.30 271.10 561.40 C 270.90 560.50 270.60 559.80 270.00 559.10 C 268.00 557.50 267.50 554.30 269.10 552.30 C 270.00 550.70 270.20 548.90 269.80 547.10 C 274.10 536.90 278.60 526.70 283.20 516.30 C 286.80 507.20 289.10 497.70 289.80 488.00 C 290.70 479.60 292.30 471.40 294.10 463.30 C 299.10 444.70 305.20 426.60 315.20 412.50 C 317.20 409.60 318.80 407.10 320.20 405.00 C 325.60 396.60 332.70 389.60 341.10 384.40 C 341.60 384.20 341.60 383.70 341.30 383.30 L 341.10 383.10 C 340.60 383.10 340.40 383.10 340.00 383.10 C 342.90 381.10 345.70 378.80 348.60 376.80 C 350.00 375.70 351.10 374.50 352.00 373.20 C 352.90 371.60 354.30 370.50 355.90 369.60 C 356.10 371.60 357.30 372.30 359.30 371.60 C 364.70 369.60 366.80 366.60 369.10 360.70 C 371.80 353.40 375.00 345.70 378.40 337.60 L 406.70 339.60 L 413.00 330.50 L 416.90 328.70 C 417.60 328.50 418.30 328.50 418.70 328.90 C 419.20 329.40 419.40 330.00 418.90 330.70 C 417.50 333.40 415.50 335.90 412.80 337.50 C 412.10 338.00 411.70 338.40 411.40 339.10 C 410.70 340.50 409.80 341.60 408.90 342.70 C 408.40 343.20 408.20 343.80 408.70 344.30 L 408.70 344.30 C 409.60 346.00 410.00 346.50 410.30 346.00 Z M 381.20 509.10 C 380.70 508.60 380.10 508.40 379.40 508.40 C 378.70 508.40 378.00 507.90 377.60 507.50 C 369.90 499.80 360.60 498.00 349.50 502.10 C 350.20 496.40 350.60 490.50 350.60 484.90 C 350.60 480.60 349.50 480.40 347.40 484.00 C 343.10 490.80 342.00 499.20 343.80 506.90 C 343.30 507.60 342.90 507.40 342.40 506.70 C 342.20 506.20 341.70 506.20 341.30 506.50 C 341.10 506.50 341.10 506.70 341.10 507.00 C 339.30 511.80 337.50 516.80 335.20 522.00 C 333.60 525.20 333.20 528.60 333.60 532.20 C 334.10 536.30 336.80 539.90 340.60 541.70 C 346.50 544.20 353.10 546.00 359.40 546.50 C 362.10 547.00 365.10 546.30 367.60 544.70 C 372.40 541.80 375.50 537.40 379.60 534.00 C 381.60 532.60 383.50 531.10 384.80 529.00 C 388.20 523.60 387.70 518.80 383.00 514.70 L 383.00 511.80 C 383.70 511.60 384.40 511.60 385.00 512.30 C 390.90 513.20 404.30 512.30 406.80 505.00 C 407.90 501.40 408.40 497.30 407.70 493.40 C 407.70 482.10 407.20 468.20 397.50 461.20 C 396.80 460.70 396.10 460.50 395.50 460.50 C 392.60 460.50 389.80 461.60 387.60 463.20 C 385.30 465.00 383.50 467.50 382.60 470.20 C 377.60 482.80 377.40 496.40 381.20 509.10 L 381.20 509.10 Z M 307.30 529.20 C 310.50 529.70 313.60 527.40 314.10 524.20 C 314.30 523.10 314.10 521.70 313.60 520.60 L 310.90 514.90 C 310.00 512.90 307.70 511.50 305.50 511.50 L 296.90 511.50 C 293.70 511.50 291.00 514.20 291.00 517.40 C 291.00 518.50 291.20 519.40 291.90 520.30 L 294.40 524.40 C 295.30 526.00 296.90 526.90 298.50 527.30 L 307.30 529.20 Z M 301.20 550.60 L 311.90 549.70 C 313.70 549.50 315.10 547.90 315.10 546.10 L 315.10 546.10 L 314.90 543.40 C 314.40 538.40 311.00 534.60 307.40 534.80 L 303.30 535.30 C 299.70 535.50 297.00 540.10 297.40 545.10 L 297.60 547.80 C 297.60 549.20 299.10 550.60 301.20 550.60 L 301.20 550.60 Z M 364.20 570.50 C 367.10 573.20 366.90 577.10 364.00 581.80 C 363.80 582.30 363.50 582.90 363.80 583.60 C 364.00 584.10 364.30 584.70 364.90 585.00 C 365.40 585.50 366.00 585.50 366.50 585.00 C 366.50 585.00 366.50 584.80 366.70 584.80 C 368.70 582.50 369.40 579.40 368.50 576.60 C 368.30 575.90 368.30 575.00 368.50 574.30 C 370.10 566.10 357.40 560.20 351.30 558.20 C 350.60 558.00 349.90 558.20 349.70 558.90 C 349.50 559.60 349.50 560.50 349.90 561.20 C 341.10 557.60 330.40 553.70 320.60 556.70 C 318.60 557.40 317.00 559.20 316.50 561.20 L 316.30 562.30 C 315.80 564.80 317.00 565.70 319.50 564.80 C 324.70 563.00 330.40 561.90 336.10 561.40 C 339.50 561.20 343.10 562.10 346.30 563.40 C 351.70 566.20 357.90 568.50 364.20 570.50 L 364.20 570.50 Z M 381.90 566.00 L 388.00 561.90 C 388.20 561.70 388.20 561.40 388.20 561.20 L 388.20 561.20 L 388.00 561.00 C 386.90 559.20 384.40 558.50 382.30 559.60 L 381.80 559.80 C 380.00 560.90 379.50 563.40 380.70 565.50 L 380.70 565.50 L 380.90 565.70 C 381.20 566.20 381.50 566.20 381.90 566.00 L 381.90 566.00 Z" fill="#a9b77c" fill-rule="nonzero" node-id="102" stroke="none" target-height="291.09998" target-width="310.2" target-x="267.5" target-y="328.5"></path><path d="M 462.90 330.40 L 482.20 351.50 L 482.20 352.90 C 482.20 353.60 481.70 353.80 481.10 353.60 L 480.00 353.10 C 479.50 352.90 479.10 352.60 478.90 352.40 C 469.80 344.00 462.60 335.40 450.10 340.80 C 444.20 343.30 438.80 346.70 434.00 351.20 C 433.50 351.70 433.30 352.30 433.50 353.00 C 434.40 356.60 435.50 360.00 436.90 363.20 C 438.70 367.30 437.80 368.00 434.20 365.70 C 429.20 362.50 424.00 359.80 418.80 357.30 C 416.50 356.40 414.50 355.00 412.90 353.20 C 411.10 351.20 410.20 348.40 410.90 345.70 C 415.90 343.40 423.80 347.30 428.60 348.20 C 429.30 348.40 430.00 348.20 430.60 347.70 C 436.50 342.50 442.80 337.70 449.40 333.40 C 452.70 330.40 457.90 329.30 462.90 330.40 Z" fill="#819765" fill-rule="nonzero" node-id="104" stroke="none" target-height="38.700012" target-width="72" target-x="410.2" target-y="329.3"></path><path d="M 407.10 340.80 L 378.80 338.80 C 379.90 334.70 382.90 332.70 388.30 332.50 C 395.30 332.40 402.10 335.40 407.10 340.80 Z" fill="#f1efbe" fill-rule="nonzero" node-id="106" stroke="none" target-height="8.399994" target-width="28.300018" target-x="378.8" target-y="332.4"></path><g node-id="267"><path d="M 549.55 332.97 L 550.40 333.74 L 550.92 335.14 L 551.04 336.84 L 550.77 339.04 L 550.15 341.33 L 549.13 343.85 L 547.81 346.23 L 546.42 348.15 L 544.88 349.75 L 543.49 350.73 L 542.07 351.20 L 540.94 351.02 L 540.09 350.26 L 539.57 348.86 L 539.45 347.16 L 539.72 344.96 L 540.34 342.67 L 541.36 340.15 L 542.68 337.76 L 544.07 335.84 L 545.61 334.25 L 547.00 333.27 L 548.42 332.80 L 549.55 332.97 Z" fill="#cbda66" fill-rule="nonzero" group-id="1" node-id="110" stroke="none" target-height="18.403015" target-width="11.583191" target-x="539.45245" target-y="332.79657"></path></g><path d="M 356.10 370.80 C 354.50 371.70 353.20 372.80 352.20 374.40 C 351.30 375.80 350.20 377.10 348.80 378.00 C 345.90 380.00 343.10 382.30 340.20 384.30 C 320.90 397.00 304.40 413.60 291.40 432.80 C 281.90 428.70 275.10 424.20 270.50 419.00 C 264.20 411.70 257.80 403.60 251.50 394.70 C 250.60 393.80 250.60 392.40 251.50 391.80 C 251.70 391.60 252.00 391.30 252.40 391.30 C 253.80 390.60 255.30 390.40 256.90 390.60 C 263.70 391.10 270.30 392.00 276.90 392.90 C 278.30 393.10 278.90 392.40 278.90 391.10 C 278.90 386.10 280.30 381.30 283.00 377.00 C 283.50 376.30 283.90 375.90 284.60 375.60 C 287.10 374.70 288.70 372.20 288.00 369.50 C 286.40 359.30 289.80 352.00 298.40 347.30 C 302.70 344.80 309.70 348.90 314.00 350.90 C 321.30 354.30 328.10 352.00 336.70 351.10 C 342.10 350.40 347.60 352.70 350.80 357.00 C 354.20 361.00 355.80 365.80 356.10 370.80 Z" fill="#cbda66" fill-rule="nonzero" node-id="113" stroke="none" target-height="88" target-width="105.5" target-x="250.6" target-y="344.8"></path><path d="M 571.95 356.85 L 572.27 358.00 L 571.99 359.46 L 571.23 360.94 L 569.89 362.59 L 568.22 364.11 L 566.09 365.58 L 563.79 366.75 L 561.66 367.50 L 559.57 367.89 L 557.90 367.86 L 556.49 367.41 L 555.62 366.57 L 555.30 365.42 L 555.58 363.96 L 556.34 362.48 L 557.68 360.83 L 559.35 359.31 L 561.48 357.84 L 563.78 356.67 L 565.91 355.92 L 568.00 355.53 L 569.67 355.56 L 571.08 356.01 L 571.95 356.85 Z" fill="#cbda66" fill-rule="nonzero" group-id="2" node-id="117" stroke="none" target-height="12.359375" target-width="16.960571" target-x="555.30457" target-y="355.53058"></path><path d="M 340.40 384.40 C 340.90 384.40 341.10 384.40 341.50 384.40 C 342.00 384.60 342.00 385.10 341.70 385.50 L 341.50 385.70 C 333.10 390.90 326.10 398.20 320.60 406.30 C 319.20 408.30 317.70 410.80 315.60 413.80 C 305.60 427.90 299.50 446.00 294.50 464.60 C 292.50 472.80 291.10 480.90 290.20 489.30 C 289.30 499.10 287.00 508.60 283.60 517.60 C 279.10 527.80 274.50 538.00 270.20 548.40 L 263.20 562.20 C 261.20 557.00 260.90 551.30 262.50 546.10 L 262.50 529.10 C 262.50 528.40 262.70 527.70 263.20 527.10 C 264.80 525.10 264.60 522.10 262.50 520.50 L 264.30 521.20 C 265.20 521.40 265.70 521.20 265.90 520.30 C 267.70 512.10 269.10 503.70 269.50 495.60 C 270.00 490.20 270.90 484.50 272.20 479.30 C 273.10 475.20 274.70 471.40 276.30 467.50 C 279.50 460.50 281.70 453.20 283.60 445.70 L 292.00 432.50 C 304.60 413.60 321.10 397.10 340.40 384.40 Z" fill="#4e8e66" fill-rule="nonzero" node-id="120" stroke="none" target-height="177.80002" target-width="81.100006" target-x="260.9" target-y="384.4"></path><path d="M 680.30 417.20 C 661.50 421.10 643.60 429.00 628.10 440.80 C 619.50 447.60 612.00 455.30 605.20 463.70 C 595.70 475.30 586.80 487.50 578.90 500.20 C 576.60 486.40 573.50 472.50 569.10 459.20 C 570.50 458.50 571.60 457.60 572.50 456.50 C 574.50 450.40 579.80 445.80 586.10 444.50 C 587.70 444.00 588.80 442.70 588.80 441.10 C 588.80 437.00 589.00 432.90 589.30 428.60 C 590.40 404.30 610.20 387.60 633.70 386.70 C 652.10 386.00 666.60 392.80 676.80 407.10 C 679.20 410.20 680.30 413.60 680.30 417.20 Z" fill="#a7d23d" fill-rule="nonzero" node-id="122" stroke="none" target-height="114.20001" target-width="111.20001" target-x="569.1" target-y="386"></path><path d="M 680.30 417.20 C 680.50 418.80 679.60 419.70 677.60 420.40 C 640.90 428.80 609.80 453.50 593.70 487.50 C 589.40 496.60 586.90 502.90 586.20 506.30 C 585.30 512.00 584.20 517.60 583.30 523.30 C 581.70 531.90 582.80 525.80 581.70 530.60 C 580.60 535.60 580.30 540.60 580.80 545.60 C 581.50 550.10 581.70 554.70 581.50 559.20 C 580.40 569.90 576.70 580.30 570.80 589.40 C 570.10 590.10 569.20 590.80 568.30 591.20 C 567.20 589.20 567.40 586.70 568.80 584.60 C 570.40 582.10 571.30 581.00 571.30 580.70 C 575.40 572.30 577.60 563.00 577.60 553.50 L 576.70 541.30 L 565.80 514.50 C 565.60 513.80 564.90 513.60 564.00 513.60 C 562.90 513.80 562.20 515.00 562.40 516.10 C 562.40 516.10 562.40 516.10 562.40 516.30 C 562.40 517.00 562.20 517.70 561.90 518.30 L 556.00 526.70 C 554.60 527.60 552.80 528.10 551.00 527.80 L 551.90 522.80 C 552.10 522.10 552.40 521.40 553.00 520.80 C 561.20 512.40 563.90 502.90 560.90 492.20 C 562.90 494.00 563.80 491.50 563.60 484.50 C 563.60 488.60 564.30 492.70 565.90 496.30 C 566.10 497.00 566.40 497.90 566.10 498.60 C 565.40 503.60 564.70 507.00 566.60 512.20 C 568.60 518.10 570.90 523.80 573.60 529.20 C 575.00 531.90 575.90 531.90 576.50 528.70 C 576.50 528.70 576.50 528.20 576.70 527.30 C 576.70 526.80 576.70 526.40 576.70 525.90 C 575.80 522.50 575.30 519.10 575.30 515.70 C 576.20 516.80 576.90 518.20 576.90 519.80 C 576.90 520.00 577.10 520.30 577.40 520.30 L 577.40 520.30 C 577.60 520.30 577.90 520.10 577.90 520.10 C 578.10 519.90 578.10 519.60 578.10 519.20 C 578.30 511.90 578.30 505.60 578.60 499.70 C 586.50 487.00 595.40 475.00 604.90 463.40 C 611.70 454.80 619.20 447.10 627.80 440.50 C 643.60 429.30 661.50 421.10 680.30 417.20 Z" fill="#b15726" fill-rule="nonzero" node-id="124" stroke="none" target-height="174" target-width="129.5" target-x="551" target-y="417.2"></path><path d="M 680.30 417.20 C 688.20 417.70 696.20 418.80 704.10 420.10 C 710.20 421.70 716.10 424.00 721.60 427.10 L 720.50 427.30 C 719.80 427.50 719.10 428.00 719.10 428.90 C 719.10 429.80 719.30 430.90 719.80 431.80 C 723.00 435.40 726.80 437.90 728.90 442.20 C 733.40 452.00 731.80 457.20 723.90 457.60 L 717.60 457.10 C 718.50 455.50 717.80 454.20 715.30 453.20 C 710.50 451.20 705.30 451.40 700.60 453.40 C 696.30 455.40 695.80 458.40 699.50 462.50 C 691.60 461.60 685.20 462.70 680.50 465.70 L 653.10 460.30 C 652.60 460.30 652.40 460.50 652.20 460.80 C 652.00 461.30 652.20 461.70 652.40 461.70 L 662.40 467.60 C 664.70 469.00 664.40 470.10 662.40 471.20 L 657.20 474.10 C 654.00 470.00 648.10 468.70 640.00 469.80 C 639.50 469.10 638.60 468.70 637.70 468.70 C 637.00 468.70 636.30 469.20 636.10 469.80 C 635.40 471.60 635.20 473.70 635.60 475.70 C 633.30 486.60 632.40 494.10 633.10 498.40 C 634.00 503.20 637.20 507.20 641.50 509.30 C 646.50 512.00 650.80 511.10 655.80 511.80 C 656.70 511.80 657.60 511.80 658.30 511.30 C 659.20 510.80 659.90 510.20 660.30 509.50 C 660.80 509.00 661.40 509.00 661.90 509.00 L 662.40 509.20 C 662.90 509.40 663.30 509.90 663.10 510.30 L 663.10 510.50 C 660.80 514.80 660.20 519.80 661.30 524.30 C 663.80 530.60 668.30 535.90 674.20 539.00 C 676.90 541.30 680.80 541.30 683.70 539.20 C 684.40 538.70 684.60 538.10 684.80 537.40 C 685.50 533.80 687.10 530.60 689.60 527.90 C 690.50 536.70 690.50 545.80 689.60 554.70 C 688.50 563.30 686.00 569.90 681.70 574.70 C 678.80 577.90 675.60 581.00 672.40 584.00 C 671.90 584.20 671.90 584.90 672.40 585.10 C 672.40 585.10 672.60 585.30 672.90 585.30 C 673.40 585.50 674.00 585.50 674.50 585.10 C 683.30 580.10 689.70 571.70 692.40 562.00 C 694.40 554.50 695.10 546.60 694.40 538.90 L 694.90 522.10 C 694.90 519.40 696.70 516.90 699.40 516.20 C 703.50 515.10 708.90 516.40 712.60 516.40 C 716.90 516.40 721.00 516.40 725.30 516.60 C 727.80 516.60 730.30 517.50 732.30 519.10 C 734.30 520.90 735.70 523.00 736.80 525.40 C 737.00 525.90 737.00 526.30 736.80 526.80 C 736.60 527.00 736.60 527.50 736.80 527.70 C 738.60 530.90 740.40 534.30 742.00 537.70 C 742.70 539.10 742.20 541.80 740.60 545.90 L 729.50 560.40 C 729.30 560.60 729.30 560.60 729.50 560.90 L 729.50 560.90 L 730.00 561.40 C 730.20 561.60 730.90 561.90 731.10 561.40 L 731.10 561.40 L 756.50 532.40 C 758.80 529.90 759.70 530.40 759.40 533.50 C 758.90 534.40 758.70 535.30 758.30 536.00 C 757.80 536.70 757.80 537.40 758.30 538.00 L 758.80 538.90 C 759.30 539.60 759.50 540.30 759.50 541.20 L 760.20 558.40 C 760.20 559.80 761.30 560.90 762.90 561.10 C 765.20 561.30 767.40 560.20 768.80 558.60 C 769.70 557.50 771.50 557.20 772.70 558.10 C 773.20 558.30 773.40 558.80 773.60 559.50 C 775.90 566.50 776.30 574.00 775.00 581.30 C 775.00 581.80 774.50 582.20 774.10 582.40 C 769.60 585.10 765.50 588.30 761.90 591.70 C 757.80 595.60 752.80 598.50 747.40 600.30 C 746.70 600.50 745.80 600.50 745.10 600.30 L 743.70 600.10 C 742.10 599.60 741.70 600.30 742.10 601.70 C 744.60 610.50 747.50 618.90 751.40 627.30 C 751.90 628.40 752.30 628.40 752.50 627.10 L 752.70 625.70 L 753.80 630.70 C 752.70 631.60 751.10 630.70 749.00 628.00 C 748.50 627.30 747.90 627.10 747.20 627.10 C 737.70 627.10 730.90 630.30 726.60 636.90 C 727.50 634.40 728.60 632.10 730.00 629.90 C 731.10 627.90 731.40 624.70 730.90 619.90 C 730.00 617.20 728.60 614.90 727.00 612.60 C 725.00 610.30 721.60 609.40 718.60 610.10 C 713.80 610.80 709.50 613.00 706.60 616.70 C 706.10 617.40 705.50 617.80 704.80 618.10 C 700.90 619.20 697.10 620.60 693.20 621.70 C 691.60 622.40 689.80 622.60 688.00 622.80 C 686.20 622.80 684.60 623.00 682.80 623.50 C 673.30 627.10 673.50 628.50 683.70 627.60 C 686.40 627.40 690.70 627.10 696.90 627.10 C 696.00 628.90 694.40 630.00 692.40 630.70 C 691.90 630.70 691.70 631.20 691.50 631.40 C 691.50 631.60 691.30 631.90 691.00 632.10 C 690.80 632.30 690.30 632.80 690.10 632.80 C 681.50 636.70 679.90 642.60 685.10 650.70 C 689.20 657.30 697.60 658.60 710.30 655.00 L 701.90 669.50 C 701.40 670.20 701.00 670.60 700.30 671.10 C 693.50 675.60 686.20 679.30 678.80 682.20 C 675.20 683.80 671.30 684.50 667.50 684.00 C 663.60 683.50 659.80 682.60 656.20 681.30 C 655.70 681.10 655.50 681.10 655.30 680.80 C 654.80 680.30 654.40 680.10 653.70 679.90 C 644.20 676.70 634.20 676.00 624.20 677.40 C 621.00 673.50 619.20 668.60 619.20 663.60 C 619.20 660.90 617.20 658.60 614.40 658.40 C 609.00 658.20 603.10 657.90 596.70 658.20 C 590.10 658.70 583.80 655.90 579.70 650.50 C 579.70 650.30 579.50 650.30 579.20 650.30 C 578.90 650.30 578.70 650.30 578.50 650.30 C 578.30 650.30 578.00 650.10 577.80 649.80 C 576.70 645.00 576.20 640.30 576.20 635.50 C 576.20 634.80 576.00 634.10 575.50 633.70 C 574.60 632.30 574.10 631.00 574.10 629.40 C 574.30 624.60 574.10 619.60 573.20 614.90 C 573.20 614.40 572.70 614.00 572.50 614.00 C 572.30 613.80 572.00 613.50 572.00 613.30 C 571.50 609.70 571.30 606.30 570.90 602.60 C 570.90 602.40 570.40 600.60 569.30 596.90 C 568.60 594.20 569.30 591.20 571.10 589.00 C 577.00 579.90 580.60 569.70 581.80 558.80 C 581.80 554.30 581.60 549.70 581.10 545.20 C 580.60 540.20 580.90 535.20 582.00 530.20 C 583.10 525.40 583.60 523.20 583.60 522.90 C 584.50 517.20 585.60 511.60 586.50 505.90 C 587.20 502.50 589.70 496.10 594.00 487.10 C 610.10 453.10 641.20 428.10 677.90 420.00 C 679.60 420.00 680.80 418.80 680.30 417.20 Z" fill="#e2917e" fill-rule="nonzero" node-id="126" stroke="none" target-height="267.3" target-width="207.70001" target-x="568.6" target-y="417.2"></path><path d="M 759.00 489.30 C 758.10 489.10 757.40 488.60 757.20 487.90 C 757.00 487.40 756.50 487.20 756.10 487.00 L 755.60 486.80 C 754.90 486.60 754.20 486.10 754.00 485.40 C 752.20 482.00 749.90 478.80 747.40 475.90 C 744.90 473.20 742.90 469.80 741.30 466.40 C 738.40 459.40 735.00 451.20 731.30 441.90 C 730.40 439.40 727.20 435.80 721.80 430.60 C 721.30 430.10 720.90 430.10 720.40 430.80 C 720.20 431.00 720.20 431.50 720.20 431.70 C 719.50 430.80 719.30 429.90 719.50 428.80 C 719.50 428.10 720.20 427.40 720.90 427.20 L 722.00 427.00 C 738.10 422.70 750.80 426.50 760.10 439.00 C 766.40 447.20 769.20 457.60 767.60 468.00 C 766.70 472.30 764.00 479.40 759.00 489.30 Z" fill="#a7d23d" fill-rule="nonzero" node-id="128" stroke="none" target-height="66.599976" target-width="49.900024" target-x="719.3" target-y="422.7"></path><path d="M 759.00 489.30 C 761.30 492.90 762.90 497.00 763.80 501.10 C 764.00 502.50 765.40 503.60 766.70 503.80 C 765.60 504.00 765.60 504.50 766.70 505.20 C 767.20 505.40 767.60 505.90 767.60 506.60 C 767.60 510.00 768.70 513.20 770.80 515.90 L 768.80 516.60 C 769.00 516.40 768.80 515.90 768.60 515.50 C 768.10 514.80 767.50 514.80 766.80 515.30 C 766.60 515.50 766.30 515.80 766.30 516.00 C 764.70 519.40 762.40 522.30 760.00 525.10 C 753.00 532.10 746.80 539.40 740.50 547.10 C 742.10 543.00 742.50 540.30 741.90 538.90 C 740.30 535.50 738.50 532.10 736.70 528.90 C 736.50 528.70 736.50 528.20 736.70 528.00 C 736.90 527.50 736.90 527.10 736.70 526.60 C 735.60 524.10 734.20 522.10 732.20 520.30 C 730.20 518.70 727.70 517.80 725.20 517.80 C 720.90 517.60 716.80 517.60 712.50 517.60 C 708.90 517.60 703.40 516.20 699.30 517.40 C 696.60 518.10 694.80 520.60 694.80 523.30 L 694.30 540.10 L 690.70 514.00 C 690.70 513.80 690.50 513.50 690.20 513.30 C 690.00 513.30 689.70 513.10 689.50 513.10 C 689.00 513.10 688.60 513.10 688.80 513.80 C 688.80 515.20 688.60 515.80 688.10 516.30 L 685.60 502.70 C 685.40 502.00 684.90 501.30 684.50 501.10 C 683.10 500.40 681.80 499.30 680.90 498.20 C 680.40 497.70 679.80 497.30 679.10 497.50 C 676.60 497.70 674.10 498.90 672.30 500.40 C 670.90 502.70 669.80 504.90 669.10 507.20 C 668.90 508.10 667.70 510.40 666.20 514.00 C 664.60 517.40 664.20 521.00 664.80 524.70 C 664.80 525.40 664.60 525.60 663.90 525.60 C 663.20 525.40 662.50 525.40 661.90 525.60 C 660.80 520.80 661.40 515.80 663.70 511.80 C 663.90 511.30 663.70 510.70 663.20 510.40 C 663.20 510.40 663.20 510.40 663.00 510.40 L 662.50 510.40 C 661.80 510.20 661.10 510.40 660.90 510.90 C 660.20 511.60 659.50 512.30 658.90 512.70 C 658.30 513.10 657.30 513.40 656.40 513.20 C 651.20 512.50 646.90 513.40 642.10 510.70 C 637.60 508.70 634.60 504.80 633.70 499.80 C 633.00 495.50 633.90 488.00 636.20 477.10 C 635.70 478.20 636.00 479.80 637.10 480.50 C 638.00 481.20 639.60 481.00 640.30 480.00 C 640.50 479.80 640.80 479.30 640.80 479.10 C 641.50 476.60 641.50 473.90 640.80 471.40 C 649.00 470.00 654.60 471.40 658.00 475.70 L 656.00 478.00 C 655.50 478.70 655.50 479.60 656.20 480.00 C 656.70 480.20 657.10 480.50 657.60 480.20 C 666.20 477.00 674.20 472.50 681.60 467.30 C 686.10 464.40 692.50 463.20 700.60 464.10 C 703.80 466.80 707.90 468.00 711.90 467.30 L 728.50 471.40 C 731.90 472.30 733.50 470.90 733.50 467.50 C 733.50 462.50 730.80 459.80 725.60 459.30 C 733.50 458.80 735.10 453.60 730.60 443.90 C 728.60 439.60 724.70 437.10 721.50 433.50 C 721.50 433.00 721.50 432.80 721.70 432.60 C 721.90 431.90 722.40 431.70 723.10 432.40 C 728.50 437.60 731.70 441.20 732.90 443.70 C 736.80 453.00 739.90 461.20 742.90 468.20 C 744.50 471.60 746.50 474.80 749.00 477.70 C 751.50 480.60 753.80 483.80 755.60 487.20 C 756.10 487.90 756.50 488.30 757.20 488.60 L 757.70 488.80 C 758.20 489.00 758.60 489.30 758.80 489.70 C 757.60 488.90 758.30 489.10 759.00 489.30 Z M 742.20 500.90 C 746.30 500.20 748.50 495.00 747.40 489.30 C 746.30 483.60 742.20 479.80 738.10 480.50 C 734.00 481.20 731.80 486.40 732.90 492.10 C 734.10 497.70 738.10 501.60 742.20 500.90 Z M 664.90 502.90 L 668.80 494.10 C 669.70 491.80 668.80 489.30 666.50 488.40 L 666.50 488.40 L 659.50 485.20 C 653.40 482.50 647.30 483.20 645.90 486.80 L 644.10 490.90 C 642.50 494.50 646.10 499.50 652.30 502.00 L 659.30 505.20 C 661.30 506.10 663.80 505.20 664.90 502.90 L 664.90 502.90 Z M 711.60 506.30 C 705.90 505.60 701.40 507.40 695.50 504.50 C 694.80 504.30 694.10 504.50 693.70 505.20 C 693.50 505.40 693.50 505.90 693.70 506.30 C 695.70 511.70 701.60 509.20 705.70 510.40 C 709.80 511.30 713.90 511.80 718.20 511.30 C 719.30 511.50 720.20 510.60 720.50 509.70 C 720.50 509.50 720.50 509.20 720.50 509.00 L 720.50 508.30 C 720.50 506.70 719.80 506.00 718.20 506.30 C 716.10 506.80 713.90 506.80 711.60 506.30 Z" fill="#fe8964" fill-rule="nonzero" node-id="130" stroke="none" target-height="115.39996" target-width="137.79999" target-x="633" target-y="431.7"></path><path d="M 283.30 446.00 C 281.50 453.50 279.00 460.70 276.00 467.80 C 274.20 471.70 272.80 475.50 271.90 479.60 C 270.50 485.00 269.60 490.50 269.20 495.90 C 268.70 504.30 267.60 512.50 265.60 520.60 C 265.40 521.50 264.90 521.70 264.00 521.50 L 262.20 520.80 C 253.80 517.90 248.60 515.40 246.30 513.50 C 240.60 508.70 236.10 501.70 232.70 491.70 C 232.20 490.10 231.10 488.50 230.00 487.20 C 228.60 485.80 227.30 484.70 225.90 483.60 L 210.90 444.40 C 210.00 441.90 210.70 440.30 213.40 439.90 C 222.70 438.10 232.20 436.50 242.20 435.40 C 248.10 434.90 254.00 435.90 259.70 437.40 C 267.90 439.50 275.80 442.40 283.30 446.00 Z" fill="#469da7" fill-rule="nonzero" node-id="132" stroke="none" target-height="86.80002" target-width="73.29999" target-x="210" target-y="434.9"></path><path d="M 278.70 439.50 C 277.60 439.30 276.70 438.40 276.20 437.20 C 276.00 436.30 276.20 436.10 277.10 436.10 C 279.80 436.10 282.30 437.70 283.70 440.00 C 283.90 440.50 283.90 441.40 283.20 441.60 C 283.00 441.80 282.70 441.80 282.50 441.80 C 281.40 441.80 280.50 441.10 279.80 440.40 C 279.40 439.90 279.20 439.70 278.70 439.50 Z" fill="#dbcaab" fill-rule="nonzero" node-id="134" stroke="none" target-height="5.6999817" target-width="7.899994" target-x="276" target-y="436.1"></path><path d="M 550.80 467.30 C 551.70 470.90 552.20 474.60 551.70 478.40 C 546.70 475.70 540.10 475.90 532.00 478.60 C 530.00 469.80 529.50 460.70 531.10 451.60 C 531.80 448.40 534.30 445.90 537.70 445.70 C 538.40 445.50 539.30 445.70 539.70 446.20 C 542.20 447.80 544.20 449.80 545.40 452.50 C 547.90 457.10 549.70 462.10 550.80 467.30 Z" fill="#0c0809" fill-rule="nonzero" node-id="136" stroke="none" target-height="33.100006" target-width="22.700012" target-x="529.5" target-y="445.5"></path><path d="M 717.70 457.40 C 713.80 458.50 711.10 461.90 710.70 466.00 C 706.60 466.90 702.50 465.50 699.40 462.80 C 696.00 458.70 696.20 455.80 700.50 453.70 C 705.30 451.70 710.50 451.40 715.20 453.50 C 718.00 454.40 718.60 455.80 717.70 457.40 Z" fill="#ffa490" fill-rule="nonzero" node-id="138" stroke="none" target-height="15.5" target-width="22.599976" target-x="696" target-y="451.4"></path><path d="M 717.70 457.40 L 724.00 457.90 C 729.20 458.10 731.90 460.80 731.90 466.10 C 731.90 469.50 730.30 470.90 726.90 470.00 L 710.30 465.90 C 711.10 461.90 713.90 458.50 717.70 457.40 Z" fill="#7a2433" fill-rule="nonzero" node-id="140" stroke="none" target-height="13.5" target-width="21.600037" target-x="710.3" target-y="457.4"></path><path d="M 407.50 493.20 L 385.10 495.90 C 383.30 496.10 381.70 497.70 381.70 499.50 C 381.70 503.60 383.10 507.40 385.60 510.60 C 385.80 510.80 385.80 511.10 385.80 511.30 C 385.60 511.50 385.30 511.80 385.10 512.00 C 384.60 511.50 383.70 511.30 383.10 511.50 L 381.30 509.00 C 377.40 496.30 377.70 482.70 382.40 470.20 C 383.30 467.50 385.10 465.00 387.40 463.20 C 389.70 461.40 392.60 460.50 395.30 460.50 C 396.00 460.50 396.70 460.70 397.30 461.20 C 407.10 468.00 407.80 481.90 407.50 493.20 Z" fill="#0c0809" fill-rule="nonzero" node-id="142" stroke="none" target-height="51.5" target-width="30.399994" target-x="377.4" target-y="460.5"></path><path d="M 569.40 459.20 C 573.70 472.60 576.90 486.40 579.20 500.20 C 579.20 505.90 579.00 512.40 578.70 519.70 C 578.70 519.90 578.70 520.40 578.50 520.60 C 578.30 520.80 578.00 520.80 578.00 520.80 C 577.80 520.80 577.50 520.80 577.50 520.60 L 577.50 520.60 C 577.30 519.00 576.80 517.70 575.90 516.50 C 571.40 507.70 568.40 497.90 567.70 487.70 C 567.70 486.80 567.50 486.10 567.00 485.40 C 566.50 484.50 565.40 484.30 564.50 484.70 L 564.50 484.70 C 564.70 491.70 563.80 494.20 561.80 492.40 L 560.00 469.50 L 560.70 467.90 C 561.20 467.00 562.10 466.50 563.20 467.00 C 563.70 467.20 563.90 467.50 564.10 467.90 L 568.20 477.70 C 568.20 477.90 568.70 478.20 568.90 478.20 C 569.10 478.20 569.10 478.20 569.10 478.00 L 569.60 477.50 C 570.10 477.30 570.30 476.60 570.10 476.10 C 569.20 472.70 568.70 469.30 568.10 465.90 C 567.40 463.70 567.80 461.20 569.40 459.20 Z" fill="#515744" fill-rule="nonzero" node-id="144" stroke="none" target-height="61.599976" target-width="19.200012" target-x="560" target-y="459.2"></path><path d="M 680.50 466.20 C 673.00 471.60 665.10 476.00 656.50 479.10 C 655.80 479.30 654.90 478.90 654.70 478.20 C 654.50 477.70 654.70 477.30 654.90 476.80 L 656.90 474.50 L 662.10 471.60 C 664.40 470.50 664.40 469.10 662.10 468.00 L 652.10 462.10 C 651.60 461.90 651.60 461.40 651.90 461.20 C 652.10 460.70 652.40 460.50 652.80 460.70 L 680.50 466.20 Z" fill="#4d1610" fill-rule="nonzero" node-id="146" stroke="none" target-height="18.799988" target-width="28.900024" target-x="651.6" target-y="460.5"></path><path d="M 559.50 469.60 L 561.30 492.50 C 564.20 503.20 561.50 512.70 553.40 521.10 C 552.90 521.60 552.50 522.20 552.30 523.10 L 551.40 528.10 C 547.50 528.60 544.10 526.10 543.20 522.40 C 543.00 521.70 542.70 521.00 542.10 520.60 C 535.10 512.90 534.20 504.30 539.80 495.00 C 548.00 492.10 553.60 489.60 551.60 478.70 C 552.10 475.10 551.60 471.20 550.70 467.60 C 554.00 467.10 557.00 467.80 559.50 469.60 Z" fill="#fda567" fill-rule="nonzero" node-id="148" stroke="none" target-height="61.49997" target-width="30" target-x="534.2" target-y="467.1"></path><path d="M 639.90 470.50 C 640.60 473.00 640.60 475.70 639.90 478.20 C 639.70 479.30 638.50 480.20 637.20 480.00 C 636.70 480.00 636.50 479.80 636.30 479.50 C 635.20 478.60 634.90 477.20 635.40 476.10 C 634.90 474.10 635.20 472.00 635.90 470.20 C 636.10 469.50 636.80 469.10 637.50 469.10 C 638.60 469.20 639.50 469.60 639.90 470.50 Z" fill="#b15726" fill-rule="nonzero" node-id="150" stroke="none" target-height="11.100006" target-width="5.699951" target-x="634.9" target-y="469.1"></path><path d="M 551.70 478.50 C 553.70 489.40 548.10 491.90 539.90 494.80 C 534.70 491.20 531.70 485.00 532.00 478.70 C 540.20 475.70 546.80 475.70 551.70 478.50 Z" fill="#278888" fill-rule="nonzero" node-id="152" stroke="none" target-height="19.099976" target-width="22" target-x="531.7" target-y="475.7"></path><path d="M 747.40 489.34 L 747.67 492.15 L 747.41 494.68 L 746.67 497.01 L 745.55 498.84 L 744.56 499.83 L 743.45 500.52 L 742.20 500.93 L 740.88 501.01 L 739.60 500.78 L 738.31 500.23 L 736.59 498.95 L 735.03 497.07 L 733.86 494.81 L 733.06 492.10 L 732.80 489.29 L 733.05 486.76 L 733.79 484.43 L 734.92 482.60 L 735.90 481.61 L 737.01 480.92 L 738.26 480.51 L 739.58 480.43 L 740.87 480.65 L 742.15 481.20 L 743.88 482.49 L 745.43 484.37 L 746.60 486.63 L 747.40 489.34 Z" fill="#ffc156" fill-rule="nonzero" group-id="3" node-id="156" stroke="none" target-height="20.585266" target-width="14.870789" target-x="732.79596" target-y="480.42712"></path><path d="M 349.30 502.00 L 348.80 514.90 C 347.90 515.40 347.40 515.40 347.20 514.90 C 345.80 512.40 344.50 509.70 343.60 507.00 C 341.60 499.30 342.90 490.90 347.20 484.10 C 349.20 480.50 350.40 480.70 350.40 485.00 C 350.40 490.50 349.90 496.40 349.30 502.00 Z" fill="#4d1610" fill-rule="nonzero" node-id="159" stroke="none" target-height="34.900024" target-width="8.799988" target-x="341.6" target-y="480.5"></path><path d="M 262.20 520.90 C 264.20 522.50 264.50 525.40 262.90 527.50 C 262.40 528.00 262.20 528.60 262.20 529.50 L 262.20 546.50 C 263.30 541.10 262.70 535.20 260.20 530.20 C 260.00 529.50 259.10 529.30 258.40 529.50 C 258.20 529.70 257.90 530.00 257.70 530.20 C 255.20 535.90 253.80 542.20 254.30 548.30 C 254.30 551.20 253.20 554.20 250.90 556.20 L 251.10 552.80 C 251.30 550.30 249.30 548.00 246.80 548.00 C 246.30 548.00 245.90 548.00 245.40 548.20 C 240.90 548.90 237.00 552.10 235.40 556.40 C 235.20 557.10 235.20 557.80 235.40 558.40 C 237.20 562.90 239.90 567.20 243.30 570.90 L 235.60 582.20 C 233.30 585.40 230.60 588.80 227.20 593.10 C 219.50 602.20 213.80 612.10 205.00 620.80 C 204.50 621.30 203.90 621.50 203.20 621.30 C 201.60 620.60 200.00 620.20 198.20 619.90 C 197.50 619.70 197.10 620.10 197.10 620.80 C 197.10 625.30 197.30 629.90 194.60 633.50 C 189.60 640.10 183.30 645.30 176.00 648.70 C 175.50 648.90 175.30 649.40 175.50 649.80 L 175.50 649.80 C 175.70 650.00 176.00 650.30 176.20 650.30 C 175.30 650.80 174.20 650.80 173.00 650.30 C 165.50 644.90 160.30 636.90 158.30 627.90 C 158.10 626.50 158.80 625.20 160.10 625.00 L 169.90 622.30 L 185.80 619.60 C 186.50 618.50 186.70 617.30 186.90 616.20 C 185.30 604.00 184.40 591.90 184.40 579.70 C 184.40 579.00 184.90 578.30 185.50 578.10 L 185.70 578.10 C 188.60 577.90 190.90 575.60 191.10 572.70 C 191.60 571.10 192.90 570.20 194.50 570.40 L 218.50 574.30 C 219.20 574.30 219.60 574.80 220.10 575.20 C 220.60 575.90 221.50 576.10 222.10 576.30 C 223.90 576.50 224.40 575.80 223.50 574.00 L 203.00 537.20 C 201.90 535.80 202.30 533.80 203.70 532.90 C 203.90 532.70 204.20 532.70 204.40 532.40 C 209.60 529.00 215.30 526.50 221.20 524.50 C 222.80 524.00 224.40 523.40 225.70 522.50 C 226.80 521.80 228.00 521.60 229.30 521.40 C 230.20 521.40 230.90 520.90 231.30 520.00 C 232.90 517.10 235.80 515.50 239.20 515.70 C 240.10 515.70 241.00 515.00 241.00 514.10 C 241.00 513.60 241.00 513.40 240.80 513.00 C 234.70 504.20 229.50 494.40 225.80 484.00 C 227.20 485.10 228.50 486.30 229.90 487.60 C 231.00 489.00 232.20 490.50 232.60 492.10 C 236.00 501.90 240.50 509.10 246.20 513.90 C 248.60 515.40 253.80 517.90 262.20 520.90 Z M 243.40 538.10 C 245.00 540.80 247.50 543.10 250.40 544.40 C 250.90 544.90 251.50 544.60 251.80 544.20 C 252.00 544.00 252.00 544.00 252.00 543.70 L 256.80 530.50 C 257.70 528.20 256.80 525.70 254.80 524.40 C 253.00 523.30 250.90 522.80 248.90 522.80 C 246.90 522.80 244.80 523.90 243.50 525.50 C 240.90 529.20 240.90 533.30 243.40 538.10 Z" fill="#42819e" fill-rule="nonzero" node-id="161" stroke="none" target-height="166.79999" target-width="106.399994" target-x="158.1" target-y="484"></path><path d="M 664.90 502.90 C 664.00 505.20 661.50 506.10 659.20 505.20 L 652.20 502.00 C 646.10 499.30 642.40 494.30 644.00 490.90 L 645.80 486.80 C 647.40 483.40 653.50 482.70 659.40 485.20 L 666.40 488.40 C 668.70 489.30 669.60 491.80 668.70 494.10 L 668.70 494.10 L 664.90 502.90 Z" fill="#ffc156" fill-rule="nonzero" node-id="163" stroke="none" target-height="23.399994" target-width="27.199951" target-x="642.4" target-y="482.7"></path><path d="M 575.80 516.30 C 575.80 519.70 576.30 523.10 577.20 526.50 C 577.20 527.00 577.20 527.40 577.20 527.90 C 577.00 528.80 577.00 529.30 577.00 529.30 C 576.30 532.50 575.40 532.50 574.10 529.80 C 571.40 524.40 569.10 518.50 567.10 512.80 C 565.30 507.60 566.20 504.20 566.60 499.20 C 566.60 498.50 566.60 497.60 566.40 496.90 C 564.80 493.00 564.10 489.00 564.10 485.10 C 565.00 484.40 566.10 484.60 566.60 485.60 L 566.60 485.60 C 567.10 486.30 567.30 487.00 567.30 487.90 C 568.30 497.70 571.00 507.50 575.80 516.30 Z" fill="#ffc156" fill-rule="nonzero" node-id="165" stroke="none" target-height="48.100006" target-width="13.100037" target-x="564.1" target-y="484.4"></path><path d="M 407.50 493.20 C 408.20 497.10 408.00 500.90 406.60 504.80 C 404.30 512.10 391.00 513.00 384.80 512.10 C 385.00 511.90 385.30 511.60 385.50 511.40 C 385.70 511.20 385.50 510.90 385.30 510.70 C 382.80 507.50 381.40 503.70 381.40 499.60 C 381.40 497.80 383.00 496.20 384.80 496.00 L 407.50 493.20 Z" fill="#278888" fill-rule="nonzero" node-id="167" stroke="none" target-height="19.799988" target-width="26.800018" target-x="381.4" target-y="493.2"></path><path d="M 687.80 516.10 C 687.60 516.10 687.60 516.60 687.80 517.20 C 683.50 514.30 681.00 509.30 681.20 504.00 C 681.20 503.30 680.70 502.60 680.10 502.40 C 677.80 501.50 675.60 501.50 673.30 502.40 C 672.60 502.60 672.20 502.40 671.90 501.50 L 671.70 499.50 C 673.70 497.90 676.00 497.00 678.50 496.60 C 679.20 496.60 679.90 496.80 680.30 497.30 C 681.20 498.40 682.60 499.60 683.90 500.20 C 684.60 500.40 685.00 501.10 685.00 501.80 L 687.80 516.10 Z" fill="#ffa490" fill-rule="nonzero" node-id="169" stroke="none" target-height="20.600006" target-width="16.099976" target-x="671.7" target-y="496.6"></path><path d="M 752.20 626.50 L 752.00 627.90 C 751.80 629.30 751.50 629.30 750.90 628.10 C 747.00 619.90 744.10 611.30 741.60 602.50 C 741.10 600.90 741.80 600.50 743.20 600.90 L 744.60 601.10 C 745.30 601.30 746.20 601.30 746.90 601.10 C 752.30 599.50 757.30 596.60 761.40 592.50 C 765.30 588.90 769.30 585.70 773.60 583.20 C 774.10 583.00 774.30 582.50 774.50 582.10 C 776.10 574.80 775.60 567.40 773.10 560.30 C 772.60 558.90 771.10 558.00 769.70 558.70 C 769.20 558.90 768.80 559.20 768.30 559.60 C 766.90 561.40 764.70 562.30 762.40 562.10 C 761.00 562.10 759.90 561.00 759.70 559.40 L 759.00 542.20 C 759.00 541.30 758.80 540.60 758.30 539.90 L 757.80 539.00 C 757.30 538.30 757.30 537.60 757.80 537.00 C 758.30 536.10 758.70 535.40 758.90 534.50 C 759.10 531.10 758.20 530.60 756.00 533.40 L 730.60 562.40 C 730.40 562.60 729.70 562.90 729.50 562.40 L 729.50 562.40 L 729.00 561.90 C 728.80 561.70 728.80 561.70 729.00 561.40 L 729.00 561.40 L 740.10 546.90 C 746.40 539.20 752.60 531.90 759.60 524.90 C 762.30 522.20 764.40 519.20 765.90 515.80 C 766.10 515.10 766.80 514.90 767.50 515.10 C 767.70 515.10 768.00 515.30 768.20 515.60 C 768.40 515.80 768.40 516.30 768.40 516.70 C 767.00 519.20 766.40 521.70 766.10 524.40 C 766.10 526.90 767.70 528.90 768.10 531.70 C 769.00 535.10 770.80 538.30 773.50 540.50 C 774.00 540.70 774.40 540.70 774.60 540.50 C 774.80 540.30 774.80 540.00 774.80 539.80 C 775.30 531.60 773.40 523.20 769.80 515.80 C 767.80 513.10 766.60 509.70 766.60 506.50 C 766.60 506.00 766.40 505.40 765.70 505.10 C 764.60 504.60 764.60 504.20 765.70 503.70 C 767.50 503.00 768.90 501.90 770.20 500.30 C 771.80 498.70 773.80 497.60 775.90 497.10 C 777.90 496.60 780.00 497.80 780.70 500.00 L 780.70 500.00 L 782.10 506.30 C 782.30 507.20 782.80 507.90 783.70 508.10 C 785.70 508.80 787.30 510.10 788.20 512.20 C 793.00 526.70 785.30 532.60 779.80 543.90 C 778.20 547.30 777.50 550.70 777.80 554.30 C 778.00 561.30 778.50 568.40 778.70 575.40 C 779.60 595.80 771.20 610.30 753.50 618.70 C 751.90 619.60 751.00 620.50 750.80 621.40 C 751.30 623.60 751.50 625.20 752.20 626.50 Z" fill="#df615d" fill-rule="nonzero" node-id="171" stroke="none" target-height="132.69998" target-width="64.20001" target-x="728.8" target-y="496.6"></path><path d="M 381.20 509.10 L 383.00 511.60 L 383.00 514.50 L 376.90 510.60 C 376.20 510.10 375.80 510.40 375.80 511.10 L 374.70 521.30 C 374.70 522.00 374.20 522.90 373.80 523.30 C 371.50 525.60 369.70 528.10 368.40 531.00 C 367.50 533.30 365.70 535.30 363.60 536.40 C 359.10 539.60 352.90 539.80 348.40 536.90 C 339.60 531.70 340.50 523.50 345.70 516.30 C 346.20 515.60 346.80 515.40 347.50 515.20 C 348.20 515.20 348.90 515.00 349.30 514.50 L 349.80 501.60 C 360.90 497.50 370.20 499.30 377.90 507.00 C 378.40 507.50 379.00 507.90 379.70 507.90 C 380.10 508.40 380.50 508.60 381.20 509.10 Z" fill="#ffa246" fill-rule="nonzero" node-id="173" stroke="none" target-height="42.299988" target-width="43.399994" target-x="339.6" target-y="497.5"></path><path d="M 671.70 500.00 L 671.90 502.00 C 671.90 502.90 672.40 503.10 673.30 502.90 C 675.60 502.00 677.80 502.00 680.10 502.90 C 680.80 503.10 681.20 503.80 681.20 504.50 C 681.00 509.70 683.50 514.50 687.80 517.70 L 689.60 529.30 C 687.10 532.00 685.50 535.20 684.80 538.80 C 684.60 539.50 684.30 540.20 683.70 540.60 C 680.80 542.60 676.90 542.40 674.20 540.40 C 668.30 537.00 663.80 531.80 661.30 525.70 C 662.00 525.70 662.70 525.70 663.30 525.70 C 664.00 525.90 664.20 525.70 664.20 524.80 C 663.50 521.20 664.00 517.50 665.60 514.10 C 667.20 510.50 668.30 508.20 668.50 507.30 C 669.40 504.30 670.60 502.00 671.70 500.00 Z" fill="#ff8044" fill-rule="nonzero" node-id="175" stroke="none" target-height="42.599976" target-width="28.299988" target-x="661.3" target-y="500"></path><path d="M 711.60 506.30 C 713.90 506.50 715.90 506.50 718.20 506.30 C 719.80 506.10 720.50 506.80 720.50 508.30 L 720.50 509.00 C 720.70 510.10 719.80 511.00 718.90 511.30 C 718.70 511.30 718.40 511.30 718.20 511.30 C 714.10 511.80 709.80 511.30 705.70 510.40 C 701.60 509.30 695.50 511.80 693.70 506.30 C 693.50 505.60 693.70 504.90 694.60 504.50 C 695.10 504.30 695.30 504.50 695.70 504.50 C 701.40 507.50 705.90 505.90 711.60 506.30 Z" fill="#c33935" fill-rule="nonzero" node-id="177" stroke="none" target-height="7.5" target-width="27.200012" target-x="693.5" target-y="504.3"></path><path d="M 343.60 506.80 C 344.50 509.50 345.90 512.20 347.20 514.70 C 347.40 515.20 347.90 515.20 348.80 514.70 C 348.30 515.20 347.70 515.40 347.00 515.40 C 346.30 515.40 345.60 515.90 345.20 516.50 C 340.00 523.80 339.10 531.90 347.90 537.10 C 352.70 540.00 358.60 539.80 363.10 536.60 C 365.40 535.20 367.00 533.40 367.90 531.20 C 369.30 528.30 371.10 525.50 373.30 523.50 C 373.80 523.00 374.20 522.10 374.20 521.50 L 375.30 511.30 C 375.30 510.40 375.80 510.40 376.40 510.80 L 382.50 514.70 C 387.30 518.80 387.70 523.50 384.30 529.00 C 382.70 530.80 381.10 532.60 379.10 534.00 C 374.80 537.20 371.80 541.50 367.10 544.70 C 364.60 546.30 361.90 547.00 358.90 546.50 C 352.30 545.80 346.00 544.20 340.10 541.70 C 336.20 539.90 333.80 536.50 333.10 532.20 C 332.60 528.80 333.10 525.20 334.70 522.00 C 337.00 516.80 339.00 511.80 340.60 507.00 C 340.80 506.50 341.30 506.30 341.70 506.50 C 341.90 506.50 341.90 506.70 342.20 506.70 C 342.90 507.30 343.10 507.50 343.60 506.80 Z" fill="#ff8044" fill-rule="nonzero" node-id="179" stroke="none" target-height="40.700012" target-width="55.100006" target-x="332.6" target-y="506.3"></path><path d="M 499.80 516.30 L 501.80 521.70 C 502.00 522.40 502.70 522.60 503.40 522.40 L 503.40 522.40 C 507.50 520.60 510.40 516.70 511.10 512.20 C 515.20 512.90 516.50 516.10 515.20 521.50 C 513.40 528.80 509.30 538.70 503.00 543.00 C 502.30 543.50 502.10 543.90 501.90 544.60 C 501.70 545.70 500.80 546.40 499.60 546.60 C 491.40 549.50 483.30 551.40 474.70 552.30 C 463.10 553.40 455.20 554.10 451.10 554.80 C 442.70 551.40 435.70 545.70 430.20 538.70 C 427.70 534.80 426.30 530.50 426.10 526.00 C 425.60 524.60 426.60 523.10 428.10 522.80 C 428.30 522.80 428.80 522.80 429.00 522.80 C 431.50 522.60 433.80 521.90 436.00 521.00 C 436.50 520.80 436.90 520.80 437.40 520.80 C 437.90 521.00 438.10 521.70 437.90 522.60 C 438.40 525.30 439.90 527.80 442.40 529.40 C 443.10 529.90 443.80 529.60 444.40 529.20 C 448.00 526.90 451.00 523.30 452.30 519.20 L 462.30 511.70 C 461.60 513.10 460.90 514.60 460.70 516.20 C 461.40 518.20 463.60 519.10 465.70 518.50 C 466.60 518.30 467.30 517.60 467.70 516.70 C 468.60 515.10 469.30 513.30 469.70 511.50 C 469.70 510.80 469.90 509.90 470.40 509.50 C 470.90 509.00 471.30 509.00 472.20 509.50 C 477.20 511.50 482.40 513.10 487.80 514.30 C 491.90 514.50 496.00 515.40 499.80 516.30 Z M 440.20 544.40 L 442.20 546.40 C 442.70 546.90 443.30 547.10 444.00 547.10 C 446.30 547.10 446.90 548.70 448.30 549.40 C 451.20 551.00 454.40 551.40 457.80 551.00 C 463.50 550.10 469.40 549.60 475.00 549.20 C 478.60 549.20 482.30 548.50 485.70 547.80 C 488.90 546.90 492.50 546.00 496.10 544.90 C 497.50 544.40 498.10 543.10 497.90 541.70 C 497.70 541.20 497.40 540.80 497.00 540.30 C 493.40 537.80 489.70 535.30 485.90 533.30 C 482.00 531.30 478.00 529.70 473.70 529.00 C 468.30 528.10 462.60 527.40 456.90 527.20 C 456.20 527.20 455.50 527.40 454.90 527.70 L 444.00 535.00 C 443.10 535.70 441.70 535.50 441.10 534.50 C 439.10 532.00 437.20 529.50 435.40 526.80 C 434.90 526.10 434.50 525.70 433.80 525.20 C 433.10 525.00 432.20 525.00 431.30 525.20 C 430.20 525.70 429.50 527.00 429.90 528.10 C 429.90 528.10 429.90 528.10 429.90 528.30 C 431.90 533.50 434.90 538.30 438.30 542.40 C 438.50 542.90 439.00 543.10 439.40 543.30 C 439.50 544.00 440.00 544.20 440.20 544.40 Z" fill="#7a2433" fill-rule="nonzero" node-id="181" stroke="none" target-height="45.799988" target-width="90.899994" target-x="425.6" target-y="509"></path><path d="M 469.90 511.30 C 469.40 513.10 468.80 514.90 467.90 516.50 C 466.80 518.30 464.50 519.00 462.70 518.10 C 461.80 517.60 461.30 517.00 460.90 516.10 C 461.10 514.50 461.80 512.90 462.50 511.60 C 463.00 513.20 464.10 513.00 465.70 511.10 C 466.60 510.00 468.00 509.30 469.60 509.50 C 469.90 509.70 470.10 510.20 469.90 511.30 Z" fill="#f0d1cd" fill-rule="nonzero" node-id="183" stroke="none" target-height="9.700012" target-width="9.200012" target-x="460.9" target-y="509.3"></path><path d="M 511.20 512.20 C 510.50 516.70 507.60 520.60 503.50 522.40 C 502.80 522.60 502.10 522.40 501.90 521.70 L 501.90 521.70 L 499.90 516.30 C 500.80 515.20 502.20 514.50 503.50 514.00 C 504.20 513.80 504.90 513.30 505.30 512.90 C 507.10 511.30 509.30 511.10 511.20 512.20 Z" fill="#fef2e1" fill-rule="nonzero" node-id="185" stroke="none" target-height="11.4999695" target-width="11.300018" target-x="499.9" target-y="511.1"></path><path d="M 307.30 529.20 L 298.50 527.60 C 296.70 527.40 295.30 526.20 294.40 524.70 L 291.90 520.60 C 290.30 517.90 291.20 514.00 293.90 512.40 C 294.80 511.90 295.90 511.50 296.80 511.50 L 305.40 511.50 C 307.70 511.50 309.70 512.90 310.80 514.90 L 313.50 520.60 C 315.10 523.50 313.70 527.20 310.80 528.50 C 309.80 529.20 308.40 529.50 307.30 529.20 Z" fill="#89a479" fill-rule="nonzero" node-id="187" stroke="none" target-height="18" target-width="24.800018" target-x="290.3" target-y="511.5"></path><path d="M 694.10 539.90 C 694.80 547.60 694.10 555.50 692.10 563.00 C 689.40 572.80 683.00 581.10 674.20 586.10 C 673.70 586.30 673.30 586.60 672.60 586.30 C 672.10 586.10 671.90 585.60 672.10 585.20 C 672.10 585.00 672.30 585.00 672.30 584.70 C 675.50 581.80 678.60 578.60 681.60 575.40 C 685.70 570.90 688.40 564.30 689.50 555.40 C 690.40 546.60 690.40 537.50 689.50 528.60 L 687.70 517.00 C 687.70 516.10 687.70 515.90 687.70 515.90 C 688.40 515.40 688.60 514.80 688.40 513.40 C 688.40 512.90 688.60 512.50 689.10 512.70 C 689.30 512.70 689.60 512.90 689.80 512.90 C 690.00 513.10 690.30 513.40 690.30 513.60 L 694.10 539.90 Z" fill="#da504a" fill-rule="nonzero" node-id="189" stroke="none" target-height="74.099976" target-width="22.899963" target-x="671.9" target-y="512.5"></path><path d="M 576.90 541.50 C 577.10 542.60 577.10 543.80 576.70 544.90 C 576.20 545.80 576.00 545.80 575.60 544.90 C 573.10 539.90 569.90 535.40 566.10 531.10 C 565.20 530.20 563.80 530.20 562.90 531.10 C 562.70 531.30 562.40 531.80 562.20 532.00 C 561.70 534.30 560.20 536.10 558.10 537.00 C 557.60 537.20 556.70 537.20 556.50 536.50 C 556.50 536.30 556.30 536.30 556.30 536.00 C 556.30 535.30 556.30 534.90 556.50 534.20 C 556.70 533.50 556.50 532.80 556.00 532.40 C 554.60 530.60 554.60 528.30 556.00 526.70 L 561.90 518.30 C 562.40 517.60 562.60 516.90 562.40 516.30 C 562.20 515.20 562.60 514.00 563.80 513.80 C 563.80 513.80 563.80 513.80 564.00 513.80 C 564.70 513.60 565.40 514.00 565.80 514.70 L 576.90 541.50 Z" fill="#f1efbe" fill-rule="nonzero" node-id="191" stroke="none" target-height="32.200012" target-width="22.5" target-x="554.6" target-y="513.6"></path><path d="M 770.60 515.90 C 774.20 523.40 775.80 531.50 775.60 539.90 C 775.60 540.40 775.10 540.80 774.70 540.80 C 774.50 540.80 774.20 540.80 774.00 540.60 C 771.30 538.30 769.50 535.20 768.60 531.80 C 768.10 529.10 766.30 527.00 766.60 524.50 C 766.80 521.80 767.50 519.10 768.90 516.80 L 770.60 515.90 Z" fill="#ffb15c" fill-rule="nonzero" node-id="193" stroke="none" target-height="24.899963" target-width="9.5" target-x="766.3" target-y="515.9"></path><path d="M 452.20 519.00 C 450.80 523.10 447.90 526.70 444.30 529.00 C 443.60 529.50 442.90 529.50 442.30 529.20 C 439.80 527.60 438.20 525.10 437.80 522.40 C 442.20 520.00 447.20 518.80 452.20 519.00 Z" fill="#fef2e1" fill-rule="nonzero" node-id="195" stroke="none" target-height="10.700012" target-width="14.400024" target-x="437.8" target-y="518.8"></path><path d="M 243.40 538.10 C 240.70 533.30 240.70 529.30 243.40 525.90 C 244.80 524.10 246.80 523.20 248.80 523.20 C 250.80 523.20 252.90 523.70 254.70 524.80 C 256.70 526.20 257.60 528.70 256.70 530.90 L 252.00 544.00 C 252.00 544.70 251.30 544.90 250.90 544.90 C 250.70 544.90 250.40 544.90 250.40 544.70 C 247.70 543.10 245.20 540.80 243.40 538.10 Z" fill="#469da7" fill-rule="nonzero" node-id="197" stroke="none" target-height="21.700012" target-width="16.90001" target-x="240.7" target-y="523.2"></path><path d="M 439.00 543.80 C 438.50 543.60 438.30 543.30 437.90 542.90 C 434.30 538.60 431.60 533.80 429.50 528.80 C 429.00 527.70 429.50 526.30 430.60 525.90 C 430.60 525.90 430.60 525.90 430.80 525.90 C 431.50 525.70 432.40 525.70 433.30 525.90 C 434.00 526.10 434.70 526.80 434.90 527.50 C 436.50 530.20 438.50 532.70 440.60 535.20 C 441.30 536.10 442.60 536.30 443.50 535.70 L 454.40 528.40 C 455.10 527.90 455.80 527.70 456.40 527.90 C 462.10 528.40 467.70 528.80 473.20 529.70 C 477.50 530.40 481.60 531.70 485.40 534.00 C 489.30 536.00 492.90 538.50 496.50 541.00 C 497.60 541.90 497.90 543.50 497.00 544.40 C 496.80 544.90 496.30 545.10 495.60 545.30 C 492.00 546.40 488.60 547.30 485.20 548.20 C 481.80 549.10 478.20 549.60 474.50 549.60 C 468.80 549.80 462.90 550.50 457.30 551.40 C 454.10 551.90 450.70 551.40 447.80 549.80 C 446.40 549.10 445.50 547.50 443.50 547.50 C 442.80 547.50 442.10 547.30 441.70 546.80 L 439.70 544.80 C 440.00 544.20 439.50 544.00 439.00 543.80 Z" fill="#fe6048" fill-rule="nonzero" node-id="199" stroke="none" target-height="26.200012" target-width="68.899994" target-x="429" target-y="525.7"></path><path d="M 262.00 546.50 C 260.40 551.70 260.60 557.40 262.70 562.60 C 260.70 569.40 257.50 576.00 253.40 581.90 C 251.60 584.60 249.80 587.30 248.20 590.30 C 246.60 593.20 244.60 595.70 242.30 598.00 C 234.10 605.30 226.90 613.60 220.50 622.50 C 219.10 624.80 217.60 626.80 216.20 628.60 C 214.60 630.60 213.50 632.90 212.80 635.20 C 212.10 637.90 211.70 640.90 211.40 643.60 C 209.80 642.00 208.50 641.80 207.10 642.70 C 202.30 645.90 198.00 649.70 194.20 653.80 L 191.00 648.60 C 190.10 647.20 188.50 646.80 187.10 647.70 L 186.90 647.90 C 184.00 650.20 180.30 651.10 176.70 650.40 C 176.50 650.20 176.20 649.90 176.00 649.90 C 175.80 649.40 176.00 649.00 176.20 648.80 L 176.20 648.80 C 183.50 645.40 190.00 640.00 194.80 633.60 C 197.50 630.00 197.30 625.20 197.30 620.90 C 197.30 620.20 197.80 619.80 198.40 620.00 C 200.00 620.20 201.80 620.70 203.40 621.40 C 204.10 621.60 204.80 621.60 205.20 620.90 C 213.80 612.30 219.70 602.30 227.40 593.20 C 230.80 589.10 233.70 585.50 235.80 582.30 L 243.70 571.00 C 247.10 566.70 249.60 561.70 251.00 556.50 C 253.30 554.50 254.40 551.50 254.40 548.60 C 253.90 542.50 255.10 536.10 257.80 530.50 C 258.00 529.80 258.90 529.60 259.60 529.80 C 259.80 530.00 260.10 530.30 260.30 530.50 C 262.40 535.10 263.10 541.00 262.00 546.50 Z" fill="#366d82" fill-rule="nonzero" node-id="201" stroke="none" target-height="124.20001" target-width="87.3" target-x="175.8" target-y="529.6"></path><path d="M 301.00 550.60 C 299.20 550.80 297.40 549.50 297.40 547.40 L 297.40 547.40 L 297.20 544.70 C 296.70 539.70 299.50 535.20 303.10 534.90 L 307.20 534.40 C 310.80 534.20 314.20 538.00 314.70 543.00 L 314.90 545.70 C 315.10 547.50 313.80 549.30 311.70 549.30 L 311.70 549.30 L 301.00 550.60 Z" fill="#89a479" fill-rule="nonzero" node-id="203" stroke="none" target-height="16.599976" target-width="18.399994" target-x="296.7" target-y="534.2"></path><path d="M 557.90 566.40 L 565.80 587.30 C 568.70 601.60 569.70 612.20 568.30 619.50 C 567.20 625.60 566.00 631.50 565.10 637.60 C 564.00 644.20 561.20 650.30 557.40 655.70 C 546.10 662.00 533.80 666.80 521.10 670.00 C 519.70 670.20 518.60 670.90 517.70 671.80 C 517.20 672.30 516.60 672.50 515.90 672.70 C 511.60 672.90 508.20 675.00 504.10 674.70 C 499.60 674.70 495.00 674.70 490.70 675.20 C 487.30 675.40 483.20 675.20 479.60 675.70 C 476.90 676.20 474.20 676.40 471.40 676.60 C 453.30 677.10 437.20 676.80 422.90 675.90 C 409.10 675.00 395.20 672.70 381.90 669.30 C 376.20 654.60 369.70 640.00 361.70 626.20 C 359.40 623.00 359.00 618.90 360.30 615.30 C 361.40 610.10 363.00 605.10 365.10 600.30 C 375.30 584.70 387.80 574.00 403.00 568.30 C 413.20 564.20 423.40 561.00 434.10 558.50 C 443.20 556.90 448.80 555.80 451.30 555.10 C 455.40 554.60 463.30 553.70 474.90 552.60 C 483.50 551.70 491.70 549.90 499.80 546.90 C 512.30 546.20 524.50 544.90 536.50 547.60 C 545.40 549.70 551.70 558.00 557.90 566.40 Z" fill="#feebe5" fill-rule="nonzero" node-id="205" stroke="none" target-height="132.19995" target-width="210.70001" target-x="359" target-y="544.9"></path><path d="M 577.80 553.70 C 577.80 563.20 575.80 572.50 571.50 580.90 C 571.50 580.90 570.60 582.30 569.00 584.80 C 567.60 586.60 567.40 589.10 568.50 591.40 C 567.40 592.10 566.50 590.90 566.00 587.80 L 558.10 566.90 L 557.40 551.90 C 557.40 550.10 558.50 548.70 560.10 548.30 C 564.20 547.40 568.30 548.80 571.20 551.70 C 572.10 552.60 573.00 553.30 573.90 554.00 C 576.20 554.40 577.40 554.40 577.80 553.70 Z" fill="#6c906a" fill-rule="nonzero" node-id="207" stroke="none" target-height="44.69995" target-width="20.399963" target-x="557.4" target-y="547.4"></path><path d="M 250.80 556.20 C 249.40 561.40 246.90 566.40 243.50 570.70 C 240.10 567.10 237.40 562.80 235.60 558.20 C 235.40 557.50 235.40 556.80 235.60 556.20 C 237.20 551.90 240.80 548.70 245.60 548.00 C 248.10 547.30 250.60 548.90 251.00 551.40 C 251.00 551.90 251.20 552.30 251.20 552.80 L 250.80 556.20 Z" fill="#469da7" fill-rule="nonzero" node-id="209" stroke="none" target-height="23.400024" target-width="15.800003" target-x="235.4" target-y="547.3"></path><path d="M 269.90 548.70 C 270.60 550.50 270.40 552.30 269.20 553.90 C 267.60 555.90 268.10 559.10 270.10 560.70 C 270.60 561.40 271.00 562.10 271.20 563.00 C 271.40 563.90 272.10 564.40 273.00 564.60 C 273.20 564.60 273.50 564.60 273.70 564.60 C 274.60 564.40 275.70 564.60 276.40 565.50 L 286.80 577.30 L 287.30 583.00 C 287.30 583.70 287.30 584.40 286.80 585.00 C 286.10 586.10 286.30 586.80 287.30 587.00 C 287.10 587.20 286.80 587.20 286.40 587.50 C 285.90 587.50 285.70 588.00 285.70 588.40 C 285.50 601.10 294.10 608.80 301.30 617.90 C 293.40 618.10 288.40 621.50 286.30 627.90 C 284.00 634.50 285.80 648.10 292.60 652.60 C 298.90 656.90 303.70 652.60 308.00 647.40 C 313.70 640.80 318.70 637.20 315.30 626.80 C 328.50 627.00 341.60 623.60 350.90 614.10 C 355.40 609.30 358.20 605.90 358.80 603.90 C 360.40 599.60 362.20 595.30 364.50 591.40 C 365.60 594.30 365.60 597.70 365.00 600.70 C 363.00 605.70 361.40 610.70 360.20 615.70 C 358.80 619.30 359.50 623.40 361.60 626.60 C 369.30 640.40 376.10 654.90 381.80 669.70 L 384.70 685.60 C 377.00 685.40 369.30 684.70 361.60 683.30 C 360.00 683.10 358.70 682.60 357.30 681.90 C 355.90 681.20 354.60 680.80 353.20 680.50 C 348.70 679.80 343.90 678.70 339.60 677.10 C 337.80 676.20 336.00 675.50 333.90 675.10 C 330.70 674.40 327.60 673.50 324.40 672.40 C 322.80 671.90 321.00 671.50 319.20 671.30 C 312.90 670.60 307.00 668.60 301.50 665.20 C 300.80 664.70 300.40 664.30 300.10 663.60 C 299.90 663.10 299.60 662.70 299.20 662.50 C 298.50 662.00 297.80 662.00 297.20 662.50 L 292.90 665.20 C 287.00 663.20 282.00 659.80 277.90 655.00 C 275.00 651.60 272.00 650.70 268.10 648.90 C 267.20 648.40 266.70 647.80 266.10 647.10 C 264.50 644.60 262.70 642.30 260.40 640.50 C 259.90 640.00 259.30 639.80 258.60 640.00 C 254.70 640.50 250.90 639.80 247.50 638.00 C 247.00 637.80 246.80 637.10 247.00 636.40 C 247.00 636.40 247.00 636.40 247.00 636.20 C 248.40 634.20 249.70 631.70 250.40 629.20 C 253.10 620.80 245.60 619.40 240.00 618.30 C 239.30 618.10 238.60 617.60 238.40 616.90 C 236.60 613.30 236.40 609.20 237.30 605.10 C 237.80 603.30 239.60 602.20 241.40 602.60 C 241.90 602.80 242.30 602.80 242.50 603.30 C 244.10 604.40 245.90 605.30 247.70 605.80 C 248.40 606.00 249.30 606.00 250.00 605.80 C 251.60 605.30 253.20 605.30 254.80 605.80 C 255.50 606.00 255.90 606.50 256.40 606.90 C 259.60 611.70 263.70 612.80 269.10 610.10 C 270.20 609.40 270.70 608.10 270.20 606.70 C 270.00 606.50 269.70 606.20 269.50 606.00 C 261.30 599.70 253.20 593.80 252.90 582.20 C 257.00 576.30 260.20 569.70 262.20 562.90 L 269.90 548.70 Z" fill="#879e86" fill-rule="nonzero" node-id="211" stroke="none" target-height="136.89996" target-width="148.30002" target-x="236.4" target-y="548.7"></path><path d="M 349.50 561.20 C 355.20 562.80 360.40 566.00 364.20 570.50 C 358.10 568.50 352.00 566.20 345.80 563.70 C 342.60 562.10 339.20 561.40 335.60 561.70 C 329.90 562.20 324.50 563.10 319.00 565.10 C 316.50 566.00 315.60 565.10 315.80 562.60 L 316.00 561.50 C 316.20 559.20 317.80 557.40 320.10 557.00 C 329.80 553.70 340.60 557.60 349.50 561.20 Z" fill="#f1efbe" fill-rule="nonzero" node-id="213" stroke="none" target-height="16.799988" target-width="48.600006" target-x="315.6" target-y="553.7"></path><path d="M 364.00 570.50 C 360.10 566.00 355.20 562.80 349.30 561.20 C 349.10 560.50 348.80 559.60 349.10 558.90 C 349.30 558.20 350.00 558.00 350.70 558.20 C 356.80 560.20 369.50 566.40 367.90 574.30 C 367.70 575.00 367.90 575.90 367.90 576.60 C 368.80 579.50 368.10 582.70 366.10 584.80 C 365.90 585.30 365.00 585.50 364.50 585.30 C 364.50 585.30 364.30 585.30 364.30 585.10 C 363.80 584.90 363.40 584.20 363.20 583.70 C 363.00 583.00 363.00 582.60 363.40 581.90 C 366.70 577.10 366.90 573.20 364.00 570.50 Z" fill="#819765" fill-rule="nonzero" node-id="215" stroke="none" target-height="27.5" target-width="20.700012" target-x="348.8" target-y="558"></path><path d="M 381.70 566.20 C 381.50 566.40 381.00 566.20 381.00 566.00 L 380.80 565.80 C 379.40 564.00 379.90 561.50 381.70 560.10 L 381.70 560.10 L 382.20 559.90 C 384.00 558.80 386.50 559.20 387.90 561.30 L 388.10 561.50 C 388.30 561.70 388.10 562.00 387.90 562.20 L 387.90 562.20 L 381.70 566.20 Z" fill="#819765" fill-rule="nonzero" node-id="217" stroke="none" target-height="7.6000366" target-width="8.899994" target-x="379.4" target-y="558.8"></path><path d="M 330.20 620.20 C 319.10 624.70 309.60 622.70 301.90 613.90 C 296.50 607.80 291.90 601.00 288.10 593.70 C 287.40 591.40 287.00 589.20 287.20 586.70 C 286.30 586.50 286.10 585.80 286.70 584.70 C 287.20 584.00 287.40 583.30 287.20 582.70 L 286.70 577.00 L 288.70 572.50 C 288.90 572.00 289.60 571.80 290.10 572.00 L 290.30 572.20 L 291.20 573.10 C 291.90 573.60 291.90 574.50 291.40 575.10 C 289.80 577.80 289.10 579.90 289.60 581.00 C 290.50 583.90 293.70 585.80 296.60 584.90 C 297.30 584.70 297.70 584.40 298.40 584.00 C 301.60 581.70 304.70 582.40 308.20 586.30 C 308.70 586.80 309.30 587.40 310.00 587.70 C 317.90 592.00 322.20 597.70 323.20 604.70 C 323.70 607.60 324.80 610.40 326.60 612.90 C 327.10 613.40 327.30 614.00 327.50 614.90 C 327.90 616.80 329.10 618.60 330.20 620.20 Z" fill="#819765" fill-rule="nonzero" node-id="219" stroke="none" target-height="52.900024" target-width="44.100006" target-x="286.1" target-y="571.8"></path><path d="M 253.30 581.90 C 253.50 593.50 261.70 599.10 269.90 605.70 C 271.00 606.60 271.00 608.20 270.40 609.10 C 270.20 609.30 269.90 609.60 269.70 609.80 C 264.30 612.50 260.20 611.60 257.00 606.60 C 256.50 606.10 256.10 605.70 255.40 605.50 C 253.80 605.00 252.20 605.00 250.60 605.50 C 249.90 605.70 249.00 605.70 248.30 605.50 C 246.30 605.00 244.40 604.10 243.10 603.00 C 241.50 601.90 239.50 602.10 238.30 603.70 C 238.10 604.20 237.80 604.40 237.60 604.80 C 236.70 608.70 236.90 613.00 238.70 616.60 C 238.90 617.30 239.60 617.70 240.30 618.00 C 246.00 619.40 253.70 620.70 250.70 628.90 C 249.80 631.40 248.70 633.70 247.30 635.90 C 247.10 636.40 247.10 637.00 247.50 637.50 C 247.50 637.50 247.50 637.50 247.70 637.50 C 251.10 639.30 255.00 640.00 258.80 639.50 C 259.50 639.50 260.20 639.70 260.60 640.00 C 262.90 641.80 264.90 644.10 266.30 646.60 C 266.80 647.30 267.40 648.00 268.30 648.40 C 271.90 650.20 275.10 651.10 278.10 654.50 C 282.00 659.30 287.20 662.70 293.10 664.70 C 292.90 664.90 292.40 665.20 292.20 665.20 C 291.50 665.40 291.10 665.20 290.40 665.20 C 289.50 665.00 288.60 664.70 287.90 665.00 C 287.00 665.00 286.50 665.70 286.50 666.60 C 286.50 669.80 287.20 672.90 288.80 675.90 C 291.70 681.10 295.10 686.30 298.60 691.80 C 299.10 692.50 298.80 692.90 298.10 693.20 C 294.50 693.90 290.60 694.10 286.80 694.10 C 279.50 693.60 272.30 693.40 265.30 693.40 C 264.60 693.40 263.90 692.90 263.90 692.30 C 259.60 681.20 255.70 673.50 252.30 668.90 C 250.90 667.10 249.40 665.50 247.80 664.10 C 245.10 661.80 244.40 661.60 245.50 663.20 C 242.80 661.60 239.80 660.90 236.70 661.20 C 230.60 662.80 224.50 663.50 218.30 663.50 C 217.60 663.50 217.40 663.30 218.10 662.60 C 218.80 661.90 218.80 661.70 218.80 661.20 C 219.00 660.30 219.00 659.40 218.60 658.50 C 215.70 654.00 213.40 649.20 212.00 644.00 C 212.20 641.10 212.70 638.30 213.40 635.60 C 214.10 633.10 215.20 630.80 216.80 629.00 C 218.20 627.00 219.70 624.90 221.10 622.90 C 227.40 613.80 234.70 605.70 242.90 598.40 C 245.20 596.10 247.20 593.60 248.80 590.70 C 249.70 587.30 251.50 584.60 253.30 581.90 Z M 230.70 626.80 C 230.50 625.20 229.10 624.10 227.50 624.10 C 226.80 624.10 226.10 624.60 225.70 625.00 L 215.00 636.30 C 214.30 637.20 214.10 638.30 214.50 639.50 L 220.60 654.70 C 220.80 655.40 221.50 656.10 222.40 656.30 L 229.00 658.60 C 230.60 659.10 232.20 658.40 232.60 656.80 C 232.80 656.30 232.80 656.10 232.80 655.70 L 230.70 626.80 Z" fill="#6d8489" fill-rule="nonzero" node-id="221" stroke="none" target-height="112.19995" target-width="87.100006" target-x="212" target-y="581.9"></path><path d="M 287.10 586.60 C 287.10 588.90 287.30 591.40 288.00 593.60 C 291.90 600.90 296.40 607.70 301.80 613.80 C 309.50 622.60 318.80 624.70 330.10 620.10 C 336.20 619.40 341.90 617.20 346.70 613.50 C 347.80 612.60 348.10 611.00 347.20 609.90 L 347.00 609.70 C 344.70 607.40 343.40 604.50 342.90 601.30 C 342.40 599.50 343.60 597.70 345.20 597.20 C 348.80 595.60 351.50 596.10 353.10 598.10 C 353.60 598.80 353.60 599.00 352.60 598.80 C 351.50 598.60 350.60 598.10 349.40 597.70 C 348.70 597.20 348.00 597.20 347.40 597.50 C 346.00 597.70 344.90 598.90 344.70 600.40 C 344.70 601.50 344.90 602.90 345.80 603.80 C 346.90 605.40 348.10 607.00 349.20 608.60 C 349.70 609.30 350.80 609.50 351.50 609.10 C 351.70 608.90 352.00 608.60 352.00 608.40 C 352.90 606.40 354.00 604.80 355.60 603.40 C 355.80 603.20 356.10 602.90 356.30 602.50 L 361.00 590.00 C 361.20 589.30 361.90 588.90 362.80 588.90 C 365.10 588.90 365.50 589.60 364.20 591.40 C 361.90 595.50 360.10 599.60 358.50 603.90 C 357.80 605.90 355.10 609.30 350.60 614.10 C 341.30 623.60 328.20 627.00 315.00 626.80 L 301.20 618.00 C 293.90 608.90 285.30 601.20 285.60 588.50 C 285.60 588.00 285.80 587.60 286.30 587.60 C 286.40 587.10 286.90 586.80 287.10 586.60 Z" fill="#515744" fill-rule="nonzero" node-id="223" stroke="none" target-height="40.400024" target-width="80.20001" target-x="285.3" target-y="586.6"></path><path d="M 566.00 587.50 C 566.70 590.70 567.40 591.80 568.50 591.10 C 569.40 590.60 570.30 590.00 571.00 589.30 C 569.20 591.60 568.70 594.50 569.20 597.20 C 570.30 600.80 570.80 602.60 570.80 602.90 C 571.30 606.50 571.50 609.90 571.90 613.60 C 571.90 613.80 572.10 614.30 572.40 614.30 C 572.90 614.50 573.10 615.00 573.10 615.20 C 573.80 620.00 574.20 625.00 574.00 629.70 C 574.00 631.30 574.50 632.90 575.40 634.00 C 575.90 634.50 576.10 635.10 576.10 635.80 C 576.10 640.60 576.60 645.30 577.70 650.10 C 577.70 650.30 577.90 650.60 578.40 650.60 C 578.60 650.60 578.90 650.60 579.10 650.60 C 579.30 650.60 579.30 650.80 579.60 650.80 C 583.50 656.00 590.00 659.00 596.60 658.50 C 602.90 658.30 608.80 658.50 614.30 658.70 C 617.00 658.90 619.30 661.20 619.10 663.90 C 619.10 668.90 620.90 673.90 624.10 677.70 C 610.90 682.90 608.00 690.40 615.30 700.10 C 615.80 700.80 615.50 701.20 614.80 701.20 L 611.40 701.40 L 596.90 691.20 C 596.20 690.70 595.50 690.50 594.90 690.50 C 592.00 690.30 589.00 691.00 586.50 692.30 C 581.70 695.20 577.70 698.60 574.00 702.70 L 560.20 701.60 L 568.10 700.70 C 568.80 700.70 569.20 700.20 569.50 699.60 C 572.40 689.80 574.50 679.90 575.40 669.70 C 575.90 665.80 575.60 662.00 574.70 658.10 C 573.80 654.20 573.30 650.40 572.90 646.50 C 572.90 645.60 572.40 644.90 571.80 644.20 L 571.10 643.50 C 569.70 642.10 567.50 642.10 565.90 643.50 C 565.70 643.70 565.40 644.00 565.40 644.20 L 557.00 658.30 L 557.90 655.40 C 561.80 650.00 564.50 643.80 565.60 637.30 C 566.70 631.40 567.90 625.30 568.80 619.20 C 569.70 612.50 569.00 601.80 566.00 587.50 Z" fill="#ce6e83" fill-rule="nonzero" node-id="225" stroke="none" target-height="115.20001" target-width="67.099976" target-x="557" target-y="587.5"></path><path d="M 186.00 619.30 L 170.10 622.00 L 160.60 622.00 C 159.90 622.00 159.20 621.80 158.60 621.30 C 157.00 620.20 155.20 619.90 153.60 620.40 C 152.90 620.60 152.20 621.10 152.00 621.80 C 151.10 623.60 149.70 625.40 148.10 627.00 C 147.60 627.70 146.70 627.90 146.10 627.70 C 145.40 627.50 145.00 627.50 144.30 627.90 L 142.90 629.00 C 140.60 620.20 138.40 599.70 145.80 592.50 C 147.40 591.10 149.70 590.90 151.20 592.30 C 158.00 598.40 164.60 604.10 170.70 609.80 C 173.60 612.30 177.30 613.00 180.00 615.00 C 181.90 616.50 184.00 617.90 186.00 619.30 Z" fill="#fbb2b1" fill-rule="nonzero" node-id="227" stroke="none" target-height="38.099976" target-width="47.600006" target-x="138.4" target-y="590.9"></path><path d="M 730.40 620.60 C 729.00 631.30 723.40 639.90 713.60 646.70 C 712.90 647.20 712.20 646.90 711.80 646.50 C 711.60 646.30 711.60 646.00 711.60 645.80 C 711.40 639.70 708.20 636.30 702.10 635.10 C 701.40 635.10 700.70 634.60 700.30 634.20 L 697.80 631.50 C 697.30 631.00 697.10 630.40 697.30 629.70 C 697.50 628.30 697.30 627.70 696.40 627.90 C 690.30 627.90 686.00 628.10 683.20 628.40 C 673.00 629.30 672.50 627.90 682.30 624.30 C 684.10 623.80 685.70 623.60 687.50 623.60 C 689.30 623.40 691.10 623.10 692.70 622.50 C 696.60 621.10 700.40 620.00 704.30 618.90 C 705.00 618.70 705.70 618.20 706.10 617.50 C 709.30 613.90 713.60 611.60 718.10 610.90 C 721.30 610.20 724.40 611.10 726.50 613.40 C 728.20 615.40 729.50 617.90 730.40 620.60 Z" fill="#a7b9ac" fill-rule="nonzero" node-id="229" stroke="none" target-height="37" target-width="57.900024" target-x="672.5" target-y="610.2"></path><path d="M 301.40 617.50 L 315.20 626.30 C 318.60 636.70 313.60 640.40 307.90 646.90 C 303.60 652.10 298.80 656.40 292.50 652.10 C 285.90 647.60 284.10 634.00 286.20 627.40 C 288.30 620.90 293.20 617.70 301.40 617.50 Z" fill="#ffa490" fill-rule="nonzero" node-id="231" stroke="none" target-height="38.900024" target-width="34.5" target-x="284.1" target-y="617.5"></path><path d="M 170.10 622.00 L 160.30 624.70 C 158.90 625.20 158.30 626.30 158.50 627.60 C 160.50 636.70 165.80 644.60 173.20 650.00 C 174.10 650.50 175.20 650.70 176.40 650.00 C 180.00 650.70 183.90 649.80 186.60 647.50 C 188.00 646.60 189.80 646.80 190.70 648.00 L 190.90 648.20 L 194.10 653.40 C 193.60 659.10 194.80 662.90 198.00 665.40 C 199.40 666.80 201.60 666.80 203.00 665.40 L 203.20 665.20 C 203.70 664.70 204.30 664.30 205.00 664.10 L 217.90 660.70 C 217.90 660.90 217.70 661.40 217.20 662.10 C 216.70 662.60 216.70 662.80 217.40 663.00 C 223.50 663.00 229.90 662.30 235.80 660.70 C 239.00 660.20 241.90 660.90 244.60 662.70 C 253.40 672.70 259.60 684.70 262.50 697.60 C 262.50 697.80 262.70 698.10 262.70 698.30 C 262.90 698.50 263.20 698.50 263.60 698.50 C 263.80 699.40 263.80 700.30 263.80 701.20 C 263.80 701.90 263.30 702.60 262.70 702.80 C 260.90 703.70 258.80 704.40 256.80 704.40 C 235.00 704.90 216.70 705.10 201.90 704.90 C 195.80 704.90 189.40 704.40 182.90 703.80 C 176.60 703.10 170.40 702.90 164.10 702.90 L 141.90 703.10 C 138.30 703.10 137.80 702.00 140.30 699.50 C 141.90 697.70 142.80 695.60 142.80 693.20 C 144.60 690.30 146.40 687.10 148.00 684.10 C 149.10 682.50 150.50 681.40 152.10 680.50 C 152.80 680.00 153.50 679.80 154.10 679.80 C 157.70 679.80 161.10 679.10 164.30 681.20 C 168.60 683.90 172.70 687.30 175.90 691.20 C 176.40 691.70 177.00 691.70 177.30 691.20 C 177.50 691.00 177.50 690.70 177.80 690.50 C 178.30 687.80 177.80 685.10 176.70 682.60 C 173.30 675.80 169.00 671.30 163.80 669.00 C 153.80 657.70 146.60 643.80 142.90 629.10 L 144.30 628.00 C 144.80 627.50 145.40 627.50 146.10 627.80 C 146.80 628.00 147.70 627.80 148.10 627.10 C 149.70 625.50 150.80 623.70 152.00 621.90 C 152.20 621.20 152.90 620.80 153.60 620.50 C 155.40 620.00 157.20 620.30 158.60 621.40 C 159.30 621.90 160.00 622.10 160.60 622.10 L 170.10 622.00 Z M 202.50 673.50 C 205.00 671.90 207.30 670.60 208.60 669.60 C 212.70 666.90 212.20 666.00 207.50 666.70 C 199.60 667.60 192.10 671.20 186.40 676.70 C 182.30 680.60 180.50 686.70 182.10 692.10 C 182.10 692.30 182.30 692.60 182.60 692.60 C 182.80 692.60 183.10 692.60 183.30 692.60 C 183.50 692.40 183.80 692.10 183.80 691.90 C 183.80 686.70 187.00 681.70 191.70 679.70 C 195.30 677.80 198.90 675.70 202.50 673.50 Z" fill="#958a9c" fill-rule="nonzero" node-id="233" stroke="none" target-height="85.099976" target-width="125.999985" target-x="137.8" target-y="620"></path><path d="M 730.40 620.60 C 731.10 625.10 730.90 628.30 729.50 630.60 C 728.10 632.90 727.00 635.10 726.10 637.60 L 709.80 655.70 C 697.10 659.30 688.70 658.00 684.60 651.40 C 679.40 643.20 681.20 637.30 689.60 633.50 C 690.10 633.30 690.30 633.00 690.50 632.80 C 690.70 632.60 690.70 632.30 691.00 632.10 C 691.20 631.60 691.50 631.40 691.90 631.40 C 693.90 630.70 695.50 629.60 696.40 627.80 C 697.30 627.60 697.50 628.30 697.30 629.60 C 697.10 630.30 697.30 631.00 697.80 631.40 L 700.30 634.10 C 700.80 634.60 701.40 635.00 702.10 635.00 C 708.20 636.10 711.40 639.50 711.60 645.70 C 711.60 646.40 712.30 647.10 713.00 647.10 C 713.20 647.10 713.50 647.10 713.70 646.90 C 723.40 639.90 729.10 631.30 730.40 620.60 Z" fill="#958a9c" fill-rule="nonzero" node-id="235" stroke="none" target-height="38.700012" target-width="51.69995" target-x="679.4" target-y="620.6"></path><path d="M 230.70 626.80 L 232.70 655.60 C 232.70 657.20 231.60 658.50 230.00 658.80 C 229.50 658.80 229.30 658.80 228.90 658.60 L 222.30 656.30 C 221.60 656.10 220.90 655.40 220.50 654.70 L 214.40 639.50 C 213.90 638.40 214.20 637.20 214.90 636.30 L 225.60 625.00 C 226.70 623.90 228.50 623.90 229.70 624.80 C 230.40 625.40 230.70 626.10 230.70 626.80 Z" fill="#baa4ab" fill-rule="nonzero" node-id="237" stroke="none" target-height="34.899963" target-width="18.800003" target-x="213.9" target-y="623.9"></path><path d="M 817.70 628.60 C 806.10 630.90 801.40 635.90 793.40 642.70 C 792.50 643.40 791.60 643.80 790.50 643.80 C 788.70 643.80 787.10 644.30 785.70 645.40 C 785.00 645.90 784.60 646.80 784.30 647.70 C 783.80 652.00 782.70 656.30 780.70 660.20 C 780.90 655.00 782.10 649.80 784.10 644.80 C 785.50 641.60 787.50 638.90 790.20 636.60 C 792.50 634.80 795.00 632.50 798.10 629.80 C 803.70 624.90 810.20 624.70 817.70 628.60 Z" fill="#f0d1cd" fill-rule="nonzero" node-id="239" stroke="none" target-height="35.5" target-width="37" target-x="780.7" target-y="624.7"></path><path d="M 753.30 631.50 C 755.30 642.20 756.20 653.00 755.80 663.90 C 755.80 664.60 755.60 664.80 755.10 664.80 C 755.10 664.80 754.90 664.80 754.60 664.80 C 754.40 664.80 754.10 665.00 754.10 665.30 C 750.20 680.70 743.90 693.20 729.20 700.20 C 728.50 700.40 728.30 700.90 728.50 701.60 C 728.50 701.60 728.50 701.80 728.70 701.80 C 729.20 702.90 730.70 703.40 733.20 703.20 L 694.70 703.70 C 706.70 700.10 709.00 691.00 701.70 676.70 C 701.50 676.20 701.50 676.20 701.20 676.70 C 701.20 676.90 701.20 677.40 701.40 677.60 C 704.10 683.70 703.70 690.80 700.50 696.60 C 700.00 697.50 699.10 698.20 698.20 698.40 C 690.90 700.00 683.70 700.90 676.40 700.90 C 675.50 700.90 674.80 701.60 674.80 702.50 C 674.80 703.00 675.00 703.60 675.70 703.90 L 676.60 704.40 L 613.30 703.70 L 610.60 702.30 L 614.00 702.10 C 614.90 702.10 615.10 701.60 614.50 701.00 C 607.20 691.20 610.20 683.80 623.30 678.60 C 633.30 677.00 643.30 677.90 652.80 681.10 C 653.30 681.30 653.90 681.60 654.40 682.00 C 654.60 682.20 655.10 682.50 655.30 682.50 C 658.90 683.90 662.80 684.80 666.60 685.20 C 670.50 685.40 674.30 685.00 677.90 683.40 C 685.40 680.50 692.60 676.80 699.40 672.30 C 700.10 671.80 700.50 671.40 701.00 670.70 L 709.40 656.20 L 725.70 638.10 C 730.00 631.50 736.80 628.30 746.30 628.30 C 747.00 628.30 747.70 628.50 748.10 629.20 C 750.60 631.30 752.20 632.40 753.30 631.50 Z" fill="#dfa5ac" fill-rule="nonzero" node-id="241" stroke="none" target-height="76.10004" target-width="149" target-x="607.2" target-y="628.3"></path><path d="M 817.70 628.60 C 831.80 636.80 844.50 647.00 855.80 658.50 C 867.60 670.70 877.30 685.00 884.60 700.40 C 885.50 702.20 885.10 703.10 882.80 703.10 C 876.00 702.90 868.70 704.20 862.80 704.20 C 850.10 704.70 837.40 704.90 824.70 705.10 C 801.80 705.30 778.90 704.40 756.20 702.20 C 755.70 701.30 755.50 700.20 755.30 699.00 C 755.30 696.70 756.00 694.50 757.30 692.70 C 762.10 686.60 766.80 680.70 772.00 675.00 C 775.90 670.70 778.80 665.50 780.40 659.80 C 782.40 655.90 783.60 651.60 784.00 647.30 C 784.20 646.40 784.70 645.50 785.40 645.00 C 786.80 643.90 788.30 643.40 790.20 643.40 C 791.30 643.40 792.50 643.20 793.10 642.30 C 801.40 635.80 806.20 630.80 817.70 628.60 Z" fill="#958a9c" fill-rule="nonzero" node-id="243" stroke="none" target-height="76.70001" target-width="130.20001" target-x="755.3" target-y="628.6"></path><path d="M 211.40 643.80 C 212.80 649.00 215.00 653.80 218.00 658.30 C 218.50 659.20 218.50 660.10 218.20 661.00 L 205.30 664.40 C 204.60 664.60 203.90 665.10 203.50 665.50 C 202.10 667.10 199.90 667.30 198.50 666.00 C 198.50 666.00 198.30 666.00 198.30 665.80 C 195.10 663.30 193.80 659.50 194.40 653.80 C 198.30 649.70 202.80 646.10 207.30 642.70 C 208.40 641.90 209.80 642.20 211.40 643.80 Z" fill="#baa4ab" fill-rule="nonzero" node-id="245" stroke="none" target-height="25.399963" target-width="24.699997" target-x="193.8" target-y="641.9"></path><path d="M 559.70 702.30 C 550.20 703.70 541.60 705.70 531.80 705.00 C 526.60 704.80 521.60 704.80 516.40 704.80 C 511.40 705.00 507.80 703.70 505.70 700.70 C 505.20 700.00 504.60 699.60 503.90 699.60 C 500.30 699.10 496.60 699.60 493.20 700.70 C 500.50 697.10 507.70 693.90 515.60 691.60 C 532.80 686.40 547.60 674.80 556.60 659.20 L 565.00 645.10 C 566.10 643.30 568.20 642.80 570.00 644.00 C 570.20 644.20 570.50 644.20 570.70 644.50 L 571.40 645.20 C 572.10 645.90 572.30 646.60 572.50 647.50 C 572.70 651.40 573.40 655.20 574.30 659.10 C 575.00 663.00 575.20 666.80 575.00 670.70 C 574.10 680.90 572.30 690.90 569.30 700.60 C 569.10 701.30 568.60 701.70 567.90 701.70 L 559.70 702.30 Z" fill="#42819e" fill-rule="nonzero" node-id="247" stroke="none" target-height="62.900024" target-width="82" target-x="493.2" target-y="642.8"></path><path d="M 557.40 656.00 L 556.50 658.90 C 547.40 674.50 532.70 686.10 515.50 691.60 C 507.80 693.90 500.30 697.00 493.10 700.70 C 481.10 702.10 468.80 702.70 456.60 703.00 L 439.40 703.70 C 429.40 703.90 418.50 701.40 408.80 703.50 C 405.40 704.20 402.00 704.60 398.60 704.90 C 390.90 705.10 383.20 705.10 375.50 705.10 C 378.70 703.70 381.40 701.50 383.70 699.00 C 384.20 698.50 384.40 697.90 384.40 697.00 L 384.40 685.70 L 381.50 669.80 C 394.90 673.40 408.70 675.50 422.50 676.40 C 436.80 677.30 452.90 677.50 471.00 677.10 C 473.70 676.90 476.40 676.60 479.20 676.20 C 482.80 675.70 486.90 676.00 490.30 675.70 C 494.80 675.20 499.40 675.20 503.70 675.20 C 507.80 675.20 511.20 673.40 515.50 673.20 C 516.20 673.20 516.90 673.00 517.30 672.30 C 518.20 671.40 519.30 670.70 520.70 670.50 C 533.80 667.10 545.80 662.40 557.40 656.00 Z" fill="#d5bcce" fill-rule="nonzero" node-id="249" stroke="none" target-height="49.099976" target-width="181.90002" target-x="375.5" target-y="656"></path><path d="M 292.80 664.60 L 297.10 661.90 C 297.80 661.40 298.50 661.40 299.10 661.90 C 299.60 662.10 299.80 662.60 300.00 663.00 C 300.20 663.70 300.70 664.10 301.40 664.60 C 306.80 667.80 312.70 670.00 319.10 670.70 C 320.90 670.90 322.50 671.40 324.30 671.80 C 327.50 672.90 330.60 673.80 333.80 674.50 C 335.80 675.00 337.70 675.60 339.50 676.50 C 343.80 678.10 348.60 679.20 353.10 679.90 C 354.50 680.10 355.80 680.80 357.20 681.30 C 358.60 682.00 359.90 682.40 361.50 682.70 C 369.20 684.10 376.90 684.70 384.60 685.00 L 384.60 696.30 C 384.60 697.00 384.40 697.70 383.90 698.30 C 381.60 701.00 378.90 703.10 375.70 704.40 C 372.50 704.90 369.10 704.60 365.90 703.90 C 360.00 699.40 353.00 696.00 345.70 694.40 C 338.70 693.00 333.70 696.00 331.20 703.20 C 319.00 704.80 312.20 707.10 302.90 696.90 C 302.20 696.00 301.10 695.50 300.00 695.50 C 288.90 694.80 277.80 694.60 266.90 694.80 C 266.20 694.80 265.30 695.00 264.90 695.50 C 264.40 696.20 264.20 697.10 264.20 697.80 C 264.00 697.80 263.70 697.80 263.30 697.60 C 263.30 697.40 263.10 697.10 263.10 696.90 C 260.20 684.00 254.00 672.00 245.20 662.20 C 244.10 660.60 244.70 660.80 247.50 663.10 C 249.30 664.50 250.90 666.30 252.30 667.90 C 255.70 672.40 259.80 680.10 263.90 691.30 C 264.10 692.00 264.80 692.40 265.30 692.40 C 272.30 692.40 279.60 692.60 286.80 693.10 C 290.70 693.10 294.50 692.90 298.10 692.20 C 299.00 692.00 299.20 691.70 298.60 690.80 C 295.20 685.60 291.80 680.40 288.80 674.90 C 287.20 672.20 286.30 669.00 286.50 665.60 C 286.50 664.70 287.00 664.00 287.90 664.00 C 288.80 663.80 289.70 664.00 290.40 664.20 C 290.90 664.40 291.50 664.40 292.20 664.20 C 292.30 665.10 292.60 664.80 292.80 664.60 Z" fill="#4c6daa" fill-rule="nonzero" node-id="251" stroke="none" target-height="46.5" target-width="140.5" target-x="244.1" target-y="660.6"></path><path d="M 754.90 664.80 C 756.00 680.40 750.10 688.20 741.10 699.30 C 741.10 700.40 740.00 701.60 737.90 702.20 L 732.90 702.90 C 730.40 703.10 729.00 702.90 728.40 701.50 C 728.20 701.00 728.20 700.40 728.60 699.90 C 728.60 699.90 728.80 699.90 728.80 699.70 C 743.50 692.70 749.70 680.20 753.70 664.80 C 753.70 664.60 753.90 664.30 754.20 664.30 C 754.90 664.80 754.90 664.80 754.90 664.80 Z" fill="#b14f59" fill-rule="nonzero" node-id="253" stroke="none" target-height="38.799988" target-width="27.799988" target-x="728.2" target-y="664.3"></path><path d="M 202.50 673.50 C 198.90 675.50 195.20 677.60 191.60 679.60 C 186.80 681.90 183.70 686.60 183.70 691.80 C 183.70 692.00 183.50 692.50 183.20 692.50 C 183.00 692.50 182.70 692.50 182.50 692.50 C 182.30 692.50 182.00 692.30 182.00 692.00 C 180.40 686.60 182.20 680.40 186.30 676.60 C 192.00 671.20 199.50 667.50 207.40 666.60 C 212.20 665.90 212.60 666.80 208.50 669.50 C 207.10 670.70 205.00 671.90 202.50 673.50 Z" fill="#f0d1cd" fill-rule="nonzero" node-id="255" stroke="none" target-height="26.599976" target-width="32.200012" target-x="180.4" target-y="665.9"></path><path d="M 163.80 669.20 C 169.20 671.50 173.60 676.00 176.70 682.80 C 177.80 685.30 178.30 688.00 177.80 690.70 C 177.80 691.40 177.10 691.60 176.70 691.60 C 176.50 691.60 176.20 691.40 176.00 691.10 C 172.60 687.20 168.70 683.80 164.40 681.10 C 161.20 679.10 157.80 680.00 154.20 679.70 C 153.50 679.70 152.80 679.90 152.20 680.40 C 150.60 681.30 149.30 682.40 148.10 684.00 C 146.50 687.20 144.90 690.10 142.90 693.10 C 143.10 689.90 143.80 686.80 144.70 683.60 C 145.40 680.40 147.20 677.70 149.70 675.90 C 153.80 673.00 158.80 670.50 163.80 669.20 Z" fill="#f0d1cd" fill-rule="nonzero" node-id="257" stroke="none" target-height="23.899963" target-width="35.40001" target-x="142.9" target-y="669.2"></path><path d="M 694.80 703.60 L 676.90 704.10 L 676.00 703.60 C 675.30 703.10 675.10 702.20 675.30 701.60 C 675.50 701.10 676.00 700.90 676.70 700.70 C 684.00 700.70 691.40 699.80 698.50 698.20 C 699.40 698.00 700.30 697.30 700.80 696.40 C 704.00 690.50 704.40 683.50 701.70 677.40 C 701.50 677.20 701.50 676.70 701.50 676.50 C 701.50 676.00 701.70 676.00 702.00 676.50 C 709.30 690.90 706.80 699.80 694.80 703.60 Z" fill="#b56967" fill-rule="nonzero" node-id="259" stroke="none" target-height="28.099976" target-width="34.200012" target-x="675.1" target-y="676"></path><path d="M 610.90 702.00 L 613.60 703.40 C 600.20 704.80 586.80 704.80 573.50 703.60 C 577.10 699.50 581.20 695.90 586.00 693.20 C 588.50 691.60 591.40 690.90 594.40 691.40 C 595.10 691.40 595.80 691.60 596.40 692.10 L 610.90 702.00 Z" fill="#feebe5" fill-rule="nonzero" node-id="261" stroke="none" target-height="13.899963" target-width="40.099976" target-x="573.5" target-y="690.9"></path><path d="M 365.80 704.30 C 359.50 704.30 353.30 705.00 347.20 706.30 C 344.50 707.00 341.80 706.80 339.00 706.10 C 336.30 705.40 333.60 704.50 331.10 703.60 C 333.60 696.30 338.60 693.40 345.60 694.80 C 353.10 696.40 359.90 699.80 365.80 704.30 Z" fill="#879e86" fill-rule="nonzero" node-id="263" stroke="none" target-height="13.599976" target-width="34.69998" target-x="331.1" target-y="693.4"></path><path d="M 755.60 699.30 C 755.60 700.40 756.10 701.30 756.50 702.50 L 738.10 702.50 C 740.10 701.60 741.30 700.70 741.30 699.60 C 741.30 699.80 741.50 700.10 741.50 700.30 C 741.50 700.50 742.00 700.80 742.20 700.80 L 755.60 699.30 Z" fill="#d5bcce" fill-rule="nonzero" node-id="265" stroke="none" target-height="3.2000122" target-width="18.400024" target-x="738.1" target-y="699.3"></path></svg>