<?xml version="1.0" standalone="no"?><!DOCTYPE svg PUBLIC "-//W3C//DTD SVG 1.1//EN" "http://www.w3.org/Graphics/SVG/1.1/DTD/svg11.dtd"><svg height="1024" node-id="1" sillyvg="true" template-height="1024" template-width="1024" version="1.1" viewBox="0 0 1024 1024" width="1024" xmlns="http://www.w3.org/2000/svg" xmlns:xlink="http://www.w3.org/1999/xlink"><defs node-id="67"></defs><path d="M 417.90 314.90 C 417.10 317.60 415.50 320.00 413.90 322.20 C 411.20 324.60 408.00 326.80 404.50 328.40 C 401.50 328.90 399.10 331.10 397.80 333.80 C 396.70 335.70 394.30 336.20 392.70 335.10 C 391.90 334.60 391.40 334.00 391.10 333.20 C 389.00 327.80 389.00 314.40 380.10 315.50 C 366.10 317.40 352.20 319.30 338.50 320.90 C 336.40 321.20 334.20 322.00 332.30 323.00 C 331.80 323.30 331.50 323.50 331.80 324.10 C 331.80 324.60 331.50 324.90 331.30 324.90 L 331.00 324.90 L 320.50 325.20 L 297.70 329.80 C 299.80 328.70 302.30 327.70 304.40 326.30 C 306.50 325.00 308.20 323.10 309.50 320.90 C 315.70 311.00 323.20 301.80 331.80 294.00 C 337.20 289.40 343.90 287.00 351.10 287.00 C 360.80 286.50 370.20 283.20 378.20 277.60 C 384.40 273.60 390.60 269.80 397.00 266.30 C 398.90 265.20 401.00 266.00 401.80 267.90 L 401.80 267.90 C 408.80 283.00 414.40 298.50 417.90 314.90 Z" fill="#c46b7e" fill-rule="nonzero" node-id="71" stroke="none" target-height="71" target-width="120.19998" target-x="297.7" target-y="265.2"></path><path d="M 514.60 285.90 C 512.70 294.00 501.40 296.10 494.50 297.40 C 492.10 297.40 490.20 299.50 490.20 302.00 C 490.20 302.50 490.50 303.10 490.50 303.60 C 491.00 305.20 490.80 307.10 489.70 308.40 C 487.60 311.40 484.90 314.00 481.90 316.20 C 481.10 316.70 480.30 317.00 479.50 317.00 C 465.80 317.30 452.40 313.20 441.10 305.50 C 447.30 302.50 453.70 300.10 460.20 298.50 C 468.00 296.60 474.40 294.70 479.80 293.10 C 485.70 291.20 493.00 289.30 501.60 287.20 C 505.70 285.90 510.00 285.40 514.60 285.90 Z" fill="#f5b7a5" fill-rule="nonzero" node-id="73" stroke="none" target-height="31.899994" target-width="73.49997" target-x="441.1" target-y="285.4"></path><path d="M 520.50 344.50 C 521.00 344.80 520.80 345.00 520.50 345.80 C 519.70 345.80 519.40 345.00 519.40 343.90 C 519.40 343.40 519.40 343.10 518.90 342.80 C 518.40 342.50 517.60 342.50 517.30 343.10 C 517.00 343.40 516.80 343.60 516.80 344.20 C 516.80 345.00 516.50 346.10 516.00 346.90 C 515.70 347.70 514.90 348.20 514.10 348.00 L 514.10 348.00 C 511.70 347.50 509.30 346.70 507.10 345.90 C 501.70 344.00 494.70 344.80 489.10 344.30 C 488.30 344.00 487.20 344.30 486.40 344.80 C 484.30 346.10 481.60 346.70 479.10 346.70 C 478.00 346.70 477.20 347.00 476.40 347.50 C 466.20 354.80 456.50 356.40 447.70 352.90 C 444.20 351.60 440.40 350.50 436.70 350.20 C 432.70 349.90 428.90 349.10 425.20 348.60 C 419.00 347.80 412.60 348.90 407.20 352.10 C 406.10 352.60 404.80 352.90 403.70 352.60 C 399.40 351.50 395.60 348.80 393.50 344.80 C 392.40 343.20 392.70 341.30 394.00 339.70 L 404.50 328.70 C 408.00 327.40 411.20 325.20 413.90 322.80 C 415.80 320.70 417.10 318.00 417.90 315.30 L 441.00 305.90 C 452.30 313.70 465.70 317.70 479.70 317.40 C 480.50 317.40 481.30 317.10 482.10 316.60 C 485.10 314.50 487.70 311.80 489.90 308.80 C 491.00 307.50 491.20 305.60 490.70 304.00 C 489.60 301.90 490.70 299.20 493.10 298.10 C 493.60 297.80 494.20 297.80 494.70 297.80 C 501.70 296.50 513.00 294.30 514.80 286.30 C 518.30 285.00 520.20 286.30 520.40 290.30 C 520.80 298.80 520.80 316.80 520.50 344.50 Z" fill="#d87777" fill-rule="nonzero" node-id="75" stroke="none" target-height="71.399994" target-width="128.6" target-x="392.4" target-y="285"></path><path d="M 404.50 328.40 L 394.00 339.60 C 392.70 340.90 392.70 343.10 393.50 344.70 C 395.60 348.50 399.40 351.10 403.70 352.20 C 404.80 352.50 406.10 352.20 407.20 351.70 C 412.60 348.50 419.00 347.10 425.20 348.20 C 429.00 349.00 433.00 349.50 436.70 349.80 C 440.50 350.10 444.20 351.10 447.70 352.50 C 456.60 356.00 466.20 354.40 476.40 347.10 C 477.20 346.60 478.00 346.30 479.10 346.30 C 481.80 346.30 484.20 345.80 486.40 344.40 C 487.20 343.90 488.30 343.60 489.10 343.90 C 494.70 344.40 502.00 343.60 507.10 345.50 C 509.50 346.30 511.70 347.10 514.10 347.60 C 514.90 347.90 515.70 347.30 516.00 346.50 L 516.00 346.50 C 516.30 345.70 516.50 344.60 516.80 343.80 C 516.80 343.30 517.10 343.00 517.30 342.70 C 517.80 342.20 518.40 342.20 518.90 342.40 C 519.20 342.70 519.40 342.90 519.40 343.50 C 519.40 344.60 519.70 345.40 520.50 345.40 L 520.80 359.40 C 526.40 376.10 533.70 392.20 542.60 407.50 C 545.30 412.10 546.10 415.00 543.40 419.60 C 539.10 426.30 534.00 432.80 528.10 438.10 C 525.40 440.80 525.70 442.10 529.40 442.40 C 537.70 443.20 546.90 444.30 557.10 445.90 C 557.90 445.90 558.20 446.20 558.40 446.70 C 558.40 447.20 558.10 448.00 557.90 448.60 L 549.30 452.10 C 545.00 453.40 544.70 455.90 548.20 459.40 C 549.80 461.00 552.00 462.10 554.10 462.60 C 554.90 462.90 555.70 463.10 556.20 463.90 C 557.50 465.50 558.90 466.90 560.20 468.50 C 560.70 469.00 561.30 469.60 561.80 470.10 C 562.60 470.90 563.10 472.00 562.90 473.10 C 562.90 473.90 563.20 474.70 563.40 475.50 C 567.20 481.70 570.70 488.40 573.30 495.10 C 576.50 502.40 580.80 506.60 584.60 513.10 C 588.40 519.50 588.60 525.20 585.40 530.30 C 583.80 532.40 581.90 534.30 579.50 535.90 C 577.40 537.20 575.20 538.90 573.10 540.50 C 571.50 542.10 571.80 542.90 573.90 543.20 C 575.80 543.50 577.40 544.30 578.70 545.30 C 579.50 545.80 579.50 546.90 579.00 547.70 C 578.50 548.50 577.90 549.30 577.90 550.40 C 577.90 551.20 578.20 552.30 578.70 552.80 C 582.50 556.80 586.80 560.10 591.60 562.50 C 593.20 563.30 595.40 563.30 596.70 562.00 C 599.70 559.60 602.10 556.60 603.70 553.40 C 604.00 553.10 604.00 552.60 604.00 552.30 C 604.00 551.80 603.70 551.20 602.90 551.00 C 601.80 550.70 601.60 550.20 602.10 549.40 C 602.40 548.90 602.90 548.60 603.40 548.30 C 608.50 547.50 613.60 547.80 618.40 548.60 C 626.50 551.00 629.40 560.40 626.70 576.80 C 626.20 581.10 621.30 584.90 612.70 588.90 C 612.20 589.20 611.60 590.00 612.20 590.50 C 612.20 590.50 612.20 590.80 612.50 590.80 L 613.00 591.60 C 613.80 592.70 615.40 592.90 616.50 592.10 C 622.70 588.30 628.60 584.30 636.10 587.50 C 638.20 588.30 639.60 590.20 639.30 592.60 C 639.30 596.60 639.80 600.70 640.90 604.70 C 640.90 605.20 641.40 605.80 642.20 605.80 L 642.50 605.80 C 653.80 603.10 662.60 607.10 673.40 608.80 C 674.20 608.80 674.70 609.60 674.70 610.40 C 675.00 620.90 666.90 632.70 659.10 638.60 C 658.30 639.10 658.00 639.90 658.30 640.70 C 658.60 641.00 658.60 641.20 658.80 641.20 L 663.90 646.00 C 664.70 647.10 666.30 647.10 667.40 646.30 C 680.60 638.20 683.50 641.50 686.70 655.40 C 688.00 661.30 684.30 666.90 681.30 671.80 C 680.50 673.40 680.80 675.60 682.10 676.90 C 685.10 679.60 688.30 682.80 691.50 686.00 C 695.00 689.00 699.00 690.80 703.00 692.20 L 703.30 692.20 L 703.60 691.40 C 703.90 691.10 703.60 690.90 703.30 690.60 C 703.30 690.60 703.30 690.60 703.00 690.60 C 697.10 687.90 692.00 683.90 688.00 679.10 C 686.90 678.00 686.90 676.40 688.00 675.30 L 688.00 675.30 C 694.20 667.80 703.60 664.00 713.20 665.10 C 715.90 665.40 717.80 667.50 717.80 669.90 C 717.80 677.70 715.40 685.20 710.80 691.40 C 710.30 692.20 710.30 692.50 711.30 692.20 L 722.00 690.10 C 722.30 694.90 719.90 697.90 714.20 698.70 C 696.70 700.80 685.70 692.30 671.20 683.90 C 670.10 683.40 669.60 682.00 670.10 680.90 C 672.20 675.80 670.10 670.20 665.50 667.50 C 664.70 667.00 664.20 666.40 663.90 665.60 C 660.40 659.20 653.40 653.80 650.20 649.80 C 646.20 644.70 641.90 639.90 637.80 634.80 C 634.30 630.50 630.30 626.50 626.00 622.70 C 621.70 619.20 617.40 615.20 613.40 611.40 C 612.30 609.80 611.50 607.90 611.30 606.00 C 611.00 605.20 610.80 604.40 610.00 603.90 C 606.80 601.20 604.10 598.30 601.90 594.80 C 601.40 594.00 600.00 593.50 599.20 594.30 C 598.70 594.60 598.40 594.80 598.40 595.40 C 596.00 603.70 582.60 612.60 574.00 612.60 C 566.50 612.60 559.50 607.80 553.90 602.70 C 533.20 583.10 556.60 566.40 576.50 570.20 C 582.10 571.30 582.90 569.90 578.40 566.20 C 576.50 564.60 574.60 563.20 572.50 561.90 C 560.40 553.60 548.30 545.80 536.00 538.00 C 532.20 535.90 530.40 531.30 526.60 528.90 C 519.10 523.80 511.30 519.00 503.00 514.90 C 492.50 509.80 482.60 503.60 473.20 497.20 C 472.40 496.70 471.60 496.40 470.80 496.70 L 449.30 501.80 C 439.60 504.50 430.80 509.10 423.20 515.50 C 407.40 519.30 392.30 525.20 378.10 533.00 C 375.70 534.10 373.30 534.90 370.80 534.90 C 367.60 535.20 365.70 534.60 365.20 533.30 C 364.70 532.00 365.20 531.70 366.30 531.70 C 370.90 532.00 375.40 530.90 379.20 528.50 C 381.30 527.20 383.80 525.80 386.50 525.30 C 389.20 524.50 391.60 523.40 394.00 522.10 C 397.50 520.20 401.00 518.60 404.70 517.30 C 410.10 515.70 415.20 513.50 420.00 510.90 C 420.80 510.40 421.60 509.60 421.90 508.80 C 423.80 504.20 425.10 499.40 425.40 494.60 C 425.10 490.60 424.10 486.80 422.20 483.30 C 421.40 481.70 421.70 480.30 423.00 479.50 C 423.80 479.00 424.60 479.00 425.40 479.50 C 427.00 480.80 429.20 481.10 431.00 480.00 C 433.70 478.40 434.50 475.20 432.90 472.50 C 432.60 472.20 432.60 472.00 432.40 471.70 C 428.10 466.60 426.20 460.20 427.30 453.40 C 428.40 447.50 428.10 441.60 426.80 435.70 C 424.70 426.00 422.50 416.40 420.10 406.70 C 418.20 397.80 414.70 389.50 409.90 382.00 C 406.10 376.60 402.60 370.70 399.70 364.80 C 398.10 361.80 395.90 359.40 393.30 357.50 C 392.80 357.00 392.20 356.20 392.20 355.40 C 391.70 351.10 390.30 347.30 386.30 345.20 C 382.80 343.30 378.80 342.50 374.80 342.80 C 374.00 342.80 373.20 342.50 372.70 341.70 C 371.10 339.80 370.00 337.70 369.20 335.50 C 368.90 334.70 368.40 333.90 367.60 333.60 C 361.70 329.80 354.70 327.40 347.70 326.90 L 318.40 326.10 L 328.90 325.80 C 329.40 325.80 329.70 325.50 329.70 325.00 L 329.70 324.70 C 329.70 324.20 330.00 323.90 330.20 323.60 C 332.10 322.50 334.20 321.70 336.40 321.50 C 350.10 319.90 364.10 318.00 378.00 316.10 C 386.90 314.80 386.90 328.20 389.00 333.80 C 389.80 335.70 392.00 336.80 394.10 335.90 C 394.90 335.60 395.40 335.10 396.00 334.30 C 398.80 330.80 401.50 328.90 404.50 328.40 Z M 430.50 352.50 C 429.70 352.00 428.60 351.70 427.50 351.70 L 414.30 353.30 C 412.20 353.60 410.50 355.70 410.80 357.90 C 410.80 358.70 411.30 359.50 411.90 360.30 L 427.20 376.40 C 428.50 378.00 431.00 378.00 432.80 376.70 L 443.50 368.10 C 445.40 366.80 445.60 364.10 444.00 362.50 C 443.70 362.20 443.50 362.00 443.20 361.70 L 430.50 352.50 Z M 462.50 374.80 C 455.50 369.20 445.80 373.20 439.70 378.00 C 430.60 385.30 434.30 393.80 440.00 401.40 C 444.60 407.60 449.90 408.90 456.90 410.80 C 461.20 412.10 465.50 410.00 467.40 406.00 C 472.80 396.90 472.80 388.00 467.70 379.70 C 465.70 378.00 464.10 376.20 462.50 374.80 L 462.50 374.80 Z M 477.30 426.90 C 480.80 427.20 484.30 426.60 487.50 425.60 C 488.30 425.30 488.80 424.80 489.10 424.00 L 491.50 416.70 C 491.80 415.90 492.60 415.10 493.40 414.80 L 499.00 412.70 C 500.60 412.40 501.70 410.80 501.40 408.90 C 501.40 408.60 501.10 408.10 500.90 407.80 C 499.80 405.40 498.20 403.20 496.30 401.60 C 494.70 400.00 492.00 399.50 490.10 400.50 C 484.70 402.90 475.30 406.70 471.60 411.50 C 470.30 413.10 468.90 415.00 467.60 416.60 C 466.80 417.70 465.50 418.20 463.80 418.50 C 461.40 418.50 458.70 418.00 456.50 416.90 C 454.90 416.10 453.00 416.90 452.50 418.50 L 452.50 418.50 C 449.30 426.60 453.00 434.30 458.90 441.30 C 463.20 446.40 469.10 444.00 472.60 440.00 C 474.50 437.00 475.00 433.30 474.20 430.10 C 473.80 427.70 474.90 426.70 477.30 426.90 L 477.30 426.90 Z M 508.40 462.60 C 508.40 461.50 507.30 461.00 506.50 461.00 C 506.50 461.00 506.50 461.00 506.20 461.00 C 504.30 461.30 502.70 462.30 501.90 464.00 C 501.40 464.80 501.40 465.60 501.60 466.40 C 502.90 470.20 505.10 473.70 507.50 476.90 C 508.00 477.70 508.60 477.70 508.80 476.60 C 509.50 472.00 509.50 467.20 508.40 462.60 Z M 514.60 479.80 C 514.10 480.90 513.00 481.70 511.90 481.90 C 511.10 482.20 510.60 483.00 510.80 483.80 C 510.80 484.10 511.10 484.30 511.10 484.30 C 515.70 491.30 519.40 498.30 522.90 505.80 C 524.20 508.80 526.70 510.90 529.90 511.70 C 532.60 512.20 535.30 511.40 536.90 509.60 C 542.30 504.50 545.00 497.20 544.20 489.70 C 543.90 487.00 542.90 484.30 541.00 482.20 C 534.20 473.40 522.90 467.50 514.60 479.80 L 514.60 479.80 Z" fill="#e73d22" fill-rule="nonzero" node-id="77" stroke="none" target-height="386" target-width="403.9" target-x="318.4" target-y="314.8"></path><path d="M 319.90 325.40 L 349.20 326.20 C 349.20 328.60 348.10 330.00 346.20 330.20 C 342.70 329.70 338.90 329.90 335.50 330.70 C 332.00 331.50 328.50 332.30 325.00 332.80 C 309.70 334.10 291.40 334.40 280.10 346.50 C 276.90 349.70 272.80 352.10 268.80 353.50 C 264.50 354.80 260.20 355.40 255.90 355.10 C 248.10 354.80 240.10 354.60 232.30 354.30 C 231.20 352.40 231.20 350.00 232.30 348.10 C 232.60 347.60 232.00 347.00 230.20 347.00 C 231.50 346.50 233.20 346.50 234.80 346.50 C 247.70 348.90 261.10 348.90 274.00 346.50 C 275.60 346.00 277.00 344.90 278.00 343.80 C 279.10 342.70 280.10 341.40 281.00 340.00 C 284.50 334.40 290.40 330.90 296.80 330.10 L 319.90 325.40 Z" fill="#f9d3c4" fill-rule="nonzero" node-id="79" stroke="none" target-height="30" target-width="119.000015" target-x="230.2" target-y="325.4"></path><path d="M 349.20 326.20 C 356.20 326.70 363.20 328.90 369.10 332.90 C 369.90 333.40 370.40 334.00 370.70 334.80 C 371.50 336.90 372.80 339.10 374.20 341.00 C 374.70 341.50 375.50 342.10 376.30 342.10 C 380.30 342.10 384.40 342.90 387.80 344.50 C 391.80 346.40 393.20 350.40 393.70 354.70 C 393.70 355.50 394.20 356.30 394.80 356.80 C 397.50 358.70 399.60 361.10 401.20 364.10 C 404.20 370.00 407.60 375.90 411.40 381.30 C 416.20 388.80 419.70 397.40 421.60 406.00 C 423.70 415.70 425.90 425.30 428.30 435.00 C 429.60 440.90 429.90 446.80 428.80 452.70 C 427.70 459.10 429.60 465.90 433.90 471.00 C 435.80 473.40 435.50 476.90 433.10 478.80 C 432.80 479.10 432.60 479.10 432.30 479.30 C 430.40 480.10 428.30 480.10 426.70 478.80 C 425.90 478.30 425.10 478.30 424.30 478.80 C 423.00 479.60 422.70 480.70 423.50 482.60 C 425.40 486.10 426.50 490.10 426.70 493.90 C 426.20 498.70 425.10 503.60 423.20 508.10 C 422.90 508.90 422.10 509.70 421.30 510.20 C 416.50 512.90 411.40 515.00 406.00 516.60 C 402.20 517.70 398.70 519.30 395.30 521.40 C 392.90 522.70 390.50 523.80 387.80 524.60 C 385.40 525.40 383.00 526.50 380.50 527.80 C 376.70 530.20 372.20 531.30 367.60 531.00 C 366.50 531.00 366.00 531.50 366.50 532.60 C 367.00 533.70 368.90 534.50 372.10 534.20 C 370.50 534.70 368.90 535.00 367.30 534.50 C 366.50 534.20 365.70 533.70 365.40 532.60 L 363.80 527.80 C 363.30 525.90 361.40 524.60 359.50 524.60 L 346.30 524.60 C 354.10 524.90 360.00 523.00 363.50 519.80 C 368.10 515.50 372.10 510.70 375.60 505.60 C 376.10 504.80 376.10 503.50 375.30 502.90 C 373.70 501.60 374.00 499.90 375.80 498.10 C 381.20 494.60 379.60 479.60 378.20 474.20 C 378.20 473.90 377.90 473.70 377.70 473.40 C 376.40 472.30 375.60 472.90 375.00 474.50 C 372.60 481.20 369.40 488.50 372.30 496.00 C 372.60 498.40 372.30 500.60 371.20 503.00 L 369.60 492.00 C 369.30 491.20 369.30 490.10 369.60 489.30 L 370.40 485.80 C 370.70 485.00 370.10 484.20 369.30 484.20 C 369.00 484.20 368.80 484.20 368.50 484.20 C 356.70 490.40 345.90 493.30 336.30 503.30 C 337.60 501.40 339.30 499.50 341.10 497.90 C 343.00 496.60 345.10 495.20 347.00 494.10 C 349.10 493.00 351.00 491.10 352.60 489.30 C 353.10 488.50 353.40 487.40 353.10 486.60 C 352.60 483.60 351.50 481.00 350.10 478.50 C 352.00 471.50 352.50 464.00 352.20 456.70 C 354.30 448.90 353.30 442.70 348.70 438.40 C 348.40 438.10 347.40 436.80 345.50 434.90 C 344.40 433.60 342.50 432.80 340.90 432.50 C 339.80 432.20 339.80 432.00 340.60 431.40 C 343.80 429.30 345.40 425.20 344.40 421.20 C 343.90 419.30 342.80 417.70 341.70 416.10 C 340.60 414.50 339.30 413.10 337.70 412.30 C 334.50 410.40 331.00 408.80 327.50 406.90 C 326.20 406.40 326.20 406.10 327.50 406.60 C 327.80 406.60 328.30 406.60 328.60 406.30 C 329.40 405.80 329.40 405.20 328.60 405.00 C 327.00 404.20 325.40 403.70 323.50 403.10 C 323.20 403.10 323.20 402.80 323.20 402.60 L 323.20 402.60 L 323.50 402.30 L 323.50 402.30 C 327.50 403.10 331.30 404.40 335.00 406.30 C 335.30 406.60 335.50 406.30 335.50 406.30 L 335.50 406.30 L 335.50 406.30 C 335.50 406.00 335.50 406.00 335.50 405.80 L 335.50 405.80 C 333.60 405.00 332.00 403.70 330.70 402.30 C 330.20 401.80 329.40 401.20 328.30 401.20 L 315.40 400.70 C 311.10 400.40 306.80 399.60 302.80 398.60 C 296.10 396.50 288.80 395.60 281.90 395.90 C 280.60 395.90 279.50 395.60 278.40 394.80 C 274.10 391.80 269.30 390.00 264.20 388.90 C 263.40 388.60 262.60 388.40 261.80 387.80 C 259.40 385.70 255.90 384.80 252.90 385.40 L 252.90 385.40 C 253.20 385.10 253.20 385.10 253.20 384.90 C 253.50 384.10 253.20 383.60 252.40 383.30 C 252.10 383.30 252.10 383.30 251.90 383.30 C 249.20 383.60 246.80 383.00 244.40 381.70 C 243.10 380.90 242.30 379.00 242.50 377.40 C 243.00 372.80 243.30 368.00 243.30 363.40 C 243.30 362.30 243.00 361.30 242.50 360.40 C 242.20 359.30 242.00 358.30 242.20 357.20 C 242.50 356.40 241.90 355.90 241.10 355.60 L 241.10 355.60 C 239.80 355.30 238.70 355.30 237.30 355.60 C 236.50 355.90 235.70 355.60 234.90 355.30 L 232.20 353.70 C 240.00 354.20 247.80 354.50 255.80 354.80 C 260.10 355.10 264.70 354.50 268.70 353.20 C 273.00 351.60 276.80 349.20 280.00 346.20 C 280.30 349.40 282.70 351.30 287.30 351.30 C 288.10 351.30 288.90 351.00 289.40 350.20 C 295.00 342.70 302.80 339.20 313.30 340.00 C 313.80 340.00 314.10 340.30 314.10 341.10 C 313.30 344.90 312.50 348.90 312.00 352.90 C 312.00 356.10 309.30 358.50 306.40 358.50 L 306.40 358.50 C 303.70 358.80 301.30 359.30 298.90 360.40 C 298.40 360.70 298.10 360.90 298.40 361.50 L 298.40 362.30 C 298.40 362.80 298.90 363.10 299.20 363.10 L 299.20 363.10 C 303.00 362.60 307.00 362.00 311.00 361.80 C 314.80 361.50 318.50 360.70 322.00 359.70 C 329.30 357.60 336.80 357.00 344.00 358.10 C 345.30 358.40 346.70 358.10 347.80 357.00 C 353.20 353.20 359.10 351.10 365.50 350.30 C 366.30 350.30 366.80 349.50 366.80 348.70 L 366.80 348.00 C 366.80 347.70 366.50 347.50 366.30 347.50 L 355.00 348.00 C 354.20 348.30 353.40 347.50 353.10 346.70 L 353.10 346.70 C 351.50 340.00 352.80 335.20 345.80 330.30 C 348.10 330.20 349.20 328.60 349.20 326.20 Z M 278.50 378.90 C 280.10 380.00 283.10 378.90 284.90 376.50 C 286.70 374.10 287.00 370.90 285.40 369.50 C 283.80 368.20 280.80 369.50 279.00 371.90 C 277.20 374.60 276.90 377.50 278.50 378.90 Z M 333.00 382.10 C 333.00 379.40 327.40 377.50 320.90 377.80 C 314.20 378.10 309.10 380.50 309.10 383.20 C 309.10 385.90 314.70 387.80 321.20 387.50 C 327.90 387.20 333.30 384.80 333.00 382.10 L 333.00 382.10 Z M 360.40 391.20 L 380.00 390.70 C 380.80 390.70 381.30 389.90 381.30 389.40 L 381.30 388.90 C 381.00 383.30 376.20 379.20 370.60 379.50 L 370.60 379.50 L 369.00 379.50 C 363.40 379.50 358.80 383.80 358.80 389.40 L 358.80 389.90 C 359.10 390.40 359.60 391.20 360.40 391.20 L 360.40 391.20 L 360.40 391.20 Z" fill="#ec7759" fill-rule="nonzero" node-id="81" stroke="none" target-height="208.79999" target-width="203.59999" target-x="232.2" target-y="326.2"></path><path d="M 346.50 330.20 C 353.50 335.00 352.10 339.90 353.80 346.60 C 353.80 347.40 354.60 347.90 355.40 347.90 L 355.40 347.90 L 366.70 347.40 C 367.00 347.40 367.20 347.40 367.20 347.90 L 367.20 348.70 C 367.20 349.50 366.70 350.30 365.90 350.30 C 359.50 351.10 353.50 353.30 348.20 357.00 C 347.10 357.80 345.80 358.10 344.40 358.10 C 336.90 357.00 329.40 357.60 322.40 359.70 C 318.90 360.80 315.10 361.60 311.40 361.80 C 307.40 362.10 303.60 362.60 299.60 363.10 C 299.10 363.10 298.80 362.80 298.80 362.60 L 298.80 362.60 L 298.80 361.80 C 298.80 361.30 299.10 360.70 299.30 360.70 C 301.70 359.60 304.40 359.10 306.80 358.80 C 310.00 358.80 312.40 356.40 312.70 353.20 L 312.70 353.20 C 313.20 349.20 313.80 345.40 314.80 341.40 C 315.10 340.90 314.80 340.30 314.00 340.30 C 303.50 339.50 295.70 343.00 290.10 350.50 C 289.60 351.30 288.80 351.60 288.00 351.60 C 283.40 351.30 281.00 349.70 280.70 346.50 C 292.00 334.40 310.00 334.10 325.60 332.80 C 329.10 332.30 332.60 331.70 336.10 330.70 C 339.20 330.00 342.70 329.70 346.50 330.20 Z M 322.60 336.40 C 321.50 336.70 320.50 337.50 320.50 338.50 L 319.70 351.40 C 319.40 352.70 320.50 354.10 321.80 354.10 C 322.10 354.10 322.30 354.10 322.60 354.10 L 343.50 350.60 C 344.80 350.30 345.60 349.00 345.60 347.60 L 345.60 347.60 L 343.50 335.50 C 343.20 334.20 342.20 333.40 340.80 333.60 L 322.60 336.40 Z" fill="#e73d22" fill-rule="nonzero" node-id="83" stroke="none" target-height="33.399994" target-width="86.5" target-x="280.7" target-y="329.7"></path><path d="M 322.60 336.40 L 340.60 333.70 C 341.90 333.40 343.00 334.50 343.30 335.60 L 345.40 347.70 C 345.70 349.00 344.90 350.40 343.50 350.70 L 343.50 350.70 L 322.60 354.20 C 321.30 354.50 319.90 353.70 319.60 352.30 C 319.60 352.00 319.60 351.80 319.60 351.50 L 320.40 338.60 C 320.40 337.50 321.50 336.40 322.60 336.40 Z" fill="#f29f8c" fill-rule="nonzero" node-id="85" stroke="none" target-height="21.100006" target-width="26.100006" target-x="319.6" target-y="333.4"></path><path d="M 520.50 344.50 L 520.80 353.40 C 520.80 355.00 522.10 356.40 524.00 356.40 C 524.50 356.40 525.10 356.10 525.30 355.90 C 527.70 354.30 530.40 353.50 533.40 353.50 C 540.90 353.00 548.40 352.20 556.00 350.50 C 566.20 348.90 576.70 349.40 586.60 352.10 C 583.10 351.80 579.60 352.90 576.40 354.80 C 575.60 355.30 574.80 355.90 573.70 356.10 C 568.10 357.40 562.70 359.10 557.60 361.20 C 549.80 364.40 542.60 363.30 535.00 360.40 C 529.40 358.30 526.10 358.80 520.50 360.10 L 520.20 346.10 C 521.00 345.00 521.00 344.70 520.50 344.50 Z" fill="#f5b7a5" fill-rule="nonzero" node-id="87" stroke="none" target-height="19.899994" target-width="66.39996" target-x="520.2" target-y="344.5"></path><path d="M 230.40 346.90 C 232.30 346.90 232.80 347.40 232.50 348.00 C 231.40 349.90 231.40 352.30 232.50 354.20 L 235.20 355.80 C 236.00 356.30 236.80 356.30 237.60 356.10 C 238.90 355.80 240.00 355.80 241.40 356.10 C 242.20 356.10 242.70 356.90 242.50 357.70 L 242.50 357.70 C 242.50 358.80 242.50 359.80 243.00 360.90 C 243.30 362.00 243.50 362.80 243.80 363.90 C 243.80 368.70 243.50 373.30 243.00 377.90 C 242.70 379.50 243.50 381.10 244.90 382.20 C 247.00 383.50 249.70 384.10 252.40 383.80 C 253.20 383.80 253.70 384.30 253.70 384.90 C 253.70 385.20 253.70 385.20 253.70 385.40 C 253.70 385.70 253.40 385.70 253.20 385.90 L 253.20 385.90 C 256.40 385.40 259.60 386.20 262.30 388.30 C 262.80 388.80 263.60 389.40 264.70 389.40 C 269.80 390.50 274.60 392.40 278.90 395.30 C 280.00 396.10 281.30 396.40 282.40 396.40 C 289.40 396.10 296.60 396.90 303.30 399.10 C 307.30 400.40 311.60 401.00 315.90 401.20 L 328.80 401.70 C 329.60 401.70 330.40 402.00 331.20 402.80 C 332.50 404.10 334.40 405.20 336.00 406.30 C 336.30 406.30 336.30 406.60 336.30 406.80 L 336.30 406.80 L 336.30 406.80 C 336.30 407.10 336.00 407.10 335.80 407.10 L 335.80 407.10 C 332.00 405.20 328.30 403.90 324.30 403.10 C 324.30 403.10 324.00 403.10 324.00 403.40 L 324.00 403.40 L 324.00 403.40 C 324.00 403.70 324.00 403.70 324.30 403.90 C 325.90 404.20 327.80 405.00 329.40 405.80 C 330.20 406.30 330.20 406.60 329.40 407.10 C 329.10 407.40 328.60 407.40 328.30 407.40 C 327.00 406.90 327.00 406.90 328.30 407.70 C 331.80 409.30 335.30 411.20 338.50 413.10 C 340.10 413.90 341.50 415.20 342.50 416.90 C 343.60 418.50 344.60 420.10 345.20 422.00 C 346.30 425.80 344.70 430.10 341.40 432.20 C 340.60 432.70 340.60 433.00 341.70 433.30 C 343.60 433.60 345.20 434.40 346.30 435.70 C 348.20 437.60 349.30 438.70 349.50 439.20 C 354.10 443.50 355.10 449.40 353.00 457.50 C 351.10 450.00 349.80 447.80 348.70 451.10 C 348.40 441.20 344.40 436.10 337.20 435.80 C 339.60 426.90 330.20 424.30 323.50 427.20 C 312.20 432.30 303.40 441.70 299.10 453.50 C 299.10 454.00 298.80 454.30 298.60 454.80 C 298.10 455.30 297.80 456.10 297.80 456.90 L 297.80 467.60 C 297.80 468.40 297.30 469.50 296.20 469.50 C 292.40 470.60 288.10 470.00 284.90 467.60 C 284.10 467.10 282.80 466.50 281.70 466.80 C 276.30 467.10 270.70 467.60 265.00 468.10 C 256.70 468.90 248.10 463.80 240.30 460.30 C 235.70 458.20 231.20 456.50 226.30 455.70 C 209.60 452.20 196.00 447.90 189.50 430.70 C 188.40 426.70 188.40 422.60 189.50 418.60 C 190.30 415.40 189.50 413.20 187.40 412.20 C 187.90 408.40 188.70 404.70 190.40 400.90 C 199.00 383.70 209.70 367.60 222.40 353.10 C 224.50 350.10 227.20 348.20 230.40 346.90 Z" fill="#e66b63" fill-rule="nonzero" node-id="89" stroke="none" target-height="123.70001" target-width="167.70001" target-x="187.4" target-y="346.9"></path><path d="M 586.60 352.00 C 588.70 351.50 590.90 352.80 591.40 355.20 C 591.70 357.90 591.70 360.30 591.10 363.00 C 589.00 381.30 585.70 399.30 581.70 417.00 C 579.00 428.80 572.00 449.20 557.30 449.20 C 557.80 448.70 558.10 448.10 557.80 447.30 C 557.80 447.00 557.30 446.80 556.50 446.50 C 546.60 444.90 537.20 443.80 528.80 443.00 C 525.00 442.70 524.50 441.10 527.50 438.70 C 533.40 433.30 538.50 426.90 542.80 420.20 C 545.50 415.90 544.70 412.70 542.00 408.10 C 533.10 392.80 525.90 376.70 520.20 360.00 C 525.60 358.70 529.10 358.10 534.70 360.30 C 542.20 363.30 549.50 364.30 557.30 361.10 C 562.70 359.00 568.00 357.30 573.70 356.00 C 574.80 355.70 575.60 355.50 576.40 354.70 C 579.60 353.10 583.10 352.00 586.60 352.00 Z" fill="#d25f5b" fill-rule="nonzero" node-id="91" stroke="none" target-height="97.70001" target-width="71.5" target-x="520.2" target-y="351.5"></path><path d="M 430.50 352.50 L 443.40 361.60 C 445.30 362.90 445.80 365.40 444.50 367.20 C 444.20 367.50 444.00 367.70 443.70 368.00 L 433.00 376.60 C 431.40 377.90 429.00 377.70 427.40 376.30 L 412.00 360.30 C 410.40 358.70 410.40 356.00 412.30 354.40 C 412.80 353.90 413.60 353.30 414.70 353.30 L 427.90 351.70 C 428.70 351.70 429.50 352.00 430.50 352.50 Z" fill="#f29c49" fill-rule="nonzero" node-id="93" stroke="none" target-height="26.199982" target-width="35.399994" target-x="410.4" target-y="351.7"></path><g node-id="198"><path d="M 285.66 369.46 L 286.32 370.22 L 286.69 371.20 L 286.76 372.46 L 286.30 374.39 L 285.13 376.46 L 283.46 378.15 L 281.73 379.11 L 280.49 379.39 L 279.46 379.30 L 278.54 378.87 L 277.88 378.11 L 277.51 377.13 L 277.44 375.87 L 277.90 373.95 L 279.07 371.87 L 280.74 370.18 L 282.47 369.22 L 283.70 368.94 L 284.74 369.03 L 285.66 369.46 Z" fill="#d74a3e" fill-rule="nonzero" group-id="1" node-id="97" stroke="none" target-height="10.45636" target-width="9.319336" target-x="277.44025" target-y="368.93768"></path></g><path d="M 462.50 374.80 C 464.40 376.10 466.00 378.00 467.10 379.90 C 472.20 388.20 472.20 397.10 466.80 406.20 C 464.90 410.20 460.60 412.40 456.30 411.00 C 449.30 409.10 443.90 407.80 439.40 401.60 C 433.80 394.10 430.00 385.20 439.10 378.20 C 445.60 373.50 455.50 369.50 462.50 374.80 Z" fill="#f29c49" fill-rule="nonzero" node-id="100" stroke="none" target-height="42.899994" target-width="42.200012" target-x="430" target-y="369.5"></path><path d="M 332.99 382.32 L 332.85 383.15 L 332.38 383.97 L 331.49 384.82 L 329.80 385.84 L 327.35 386.75 L 324.63 387.36 L 321.43 387.69 L 318.22 387.67 L 315.45 387.33 L 312.93 386.66 L 311.14 385.82 L 310.17 385.06 L 309.63 384.28 L 309.41 383.48 L 309.55 382.65 L 310.02 381.83 L 310.90 380.98 L 312.60 379.96 L 315.05 379.05 L 317.77 378.44 L 320.96 378.10 L 324.18 378.13 L 326.95 378.47 L 329.47 379.14 L 331.26 379.98 L 332.23 380.74 L 332.77 381.51 L 332.99 382.32 Z" fill="#e73d22" fill-rule="nonzero" group-id="2" node-id="104" stroke="none" target-height="9.588501" target-width="23.571655" target-x="309.4135" target-y="378.1046"></path><path d="M 360.40 391.20 C 359.60 391.20 359.10 390.70 359.10 389.90 L 359.10 389.90 L 359.10 389.40 C 359.10 383.80 363.70 379.50 369.30 379.50 L 370.90 379.50 C 376.50 379.20 381.40 383.30 381.60 388.90 L 381.60 388.90 L 381.60 389.40 C 381.60 390.20 381.10 390.70 380.30 390.70 L 360.40 391.20 Z" fill="#e73d22" fill-rule="nonzero" node-id="107" stroke="none" target-height="12" target-width="22.5" target-x="359.1" target-y="379.2"></path><path d="M 737.50 478.80 C 741.00 480.40 741.80 479.60 739.90 476.10 C 731.60 460.50 731.60 449.20 735.10 431.20 C 737.50 419.40 739.90 407.60 742.90 395.70 C 743.20 394.90 743.40 394.40 744.00 393.80 C 745.90 391.90 747.20 392.20 748.00 394.30 C 749.60 400.20 752.30 405.80 755.80 410.70 C 766.80 426.80 779.40 439.20 780.00 460.10 C 780.30 466.00 781.30 466.00 783.20 460.60 C 789.90 442.60 802.50 427.60 821.30 415.20 C 824.00 413.60 824.80 414.10 824.00 417.10 C 821.30 427.60 819.20 438.30 817.60 449.10 C 813.80 474.60 800.70 492.90 778.10 503.40 C 776.50 504.20 775.70 505.50 775.40 507.20 C 774.60 525.20 769.20 542.40 760.40 558.00 C 757.70 562.80 747.50 576.50 741.30 576.80 C 740.80 576.80 740.20 576.30 740.00 575.70 C 740.00 575.40 740.00 575.20 740.30 574.90 C 754.80 556.10 766.10 531.90 766.10 508.00 C 766.10 506.70 765.00 505.30 763.70 505.30 L 763.40 505.30 C 747.00 504.20 729.30 500.70 718.50 486.80 C 712.90 479.50 707.80 471.80 702.90 464.00 C 702.10 462.70 701.80 461.30 701.80 459.70 C 701.80 459.20 702.10 458.90 702.60 458.90 C 702.90 458.90 702.90 458.90 703.10 459.20 C 714.20 466.70 725.70 473.10 737.50 478.80 Z" fill="#f5ab5c" fill-rule="nonzero" node-id="109" stroke="none" target-height="184.9" target-width="123" target-x="701.8" target-y="391.9"></path><path d="M 477.30 426.90 C 474.90 426.60 474.10 427.70 474.30 430.10 C 475.40 433.60 474.80 437.10 472.70 440.00 C 469.50 444.00 463.60 446.40 459.00 441.30 C 453.10 434.30 449.10 426.50 452.60 418.50 C 453.10 416.90 455.00 416.10 456.60 416.90 L 456.60 416.90 C 459.00 418.00 461.40 418.50 463.90 418.50 C 465.20 418.50 466.60 417.70 467.70 416.60 C 469.00 415.00 470.40 413.40 471.70 411.50 C 475.50 406.70 484.90 402.90 490.20 400.50 C 492.30 399.40 494.80 400.00 496.40 401.60 C 498.30 403.20 499.90 405.40 501.00 407.80 C 501.80 409.10 501.50 411.30 499.90 412.10 C 499.60 412.40 499.10 412.40 498.80 412.60 L 493.20 414.70 C 492.40 415.00 491.60 415.80 491.30 416.60 L 488.90 423.90 C 488.60 424.70 488.10 425.20 487.30 425.50 C 484.30 426.70 480.80 427.20 477.30 426.90 Z" fill="#f29c49" fill-rule="nonzero" node-id="111" stroke="none" target-height="47" target-width="52.69998" target-x="449.1" target-y="399.4"></path><path d="M 298.70 453.20 L 299.00 455.10 C 297.10 462.60 299.00 470.40 303.60 476.60 C 301.70 476.30 300.60 478.20 300.60 482.00 C 300.60 482.80 300.30 483.60 300.10 484.40 C 298.50 487.90 298.50 491.90 300.40 495.10 C 300.90 495.90 300.70 496.70 300.10 497.50 C 299.30 498.60 297.70 499.40 296.30 499.40 C 290.90 501.00 285.30 500.70 280.20 498.90 C 271.60 494.30 264.60 487.10 260.60 478.50 C 260.10 477.40 259.80 476.40 259.80 475.30 L 259.80 474.00 C 259.80 473.20 259.30 472.40 258.50 472.10 C 252.30 469.70 246.40 467.00 240.50 463.80 C 235.90 461.70 231.10 460.00 226.00 459.00 C 206.40 455.00 190.80 448.30 184.10 427.80 L 187.30 412.20 C 189.40 413.30 190.30 415.40 189.40 418.60 C 188.30 422.60 188.30 426.70 189.40 430.70 C 196.10 447.90 209.50 451.90 226.20 455.70 C 231.00 456.80 235.90 458.40 240.40 460.30 C 247.90 463.80 256.50 468.90 265.10 468.10 C 270.70 467.60 276.40 467.00 281.80 466.80 C 282.90 466.80 283.90 467.10 285.00 467.60 C 288.20 470.00 292.30 470.80 296.30 469.50 C 297.10 469.20 297.90 468.40 297.90 467.60 L 297.90 456.90 C 297.90 456.10 298.20 455.30 298.70 454.80 C 298.40 454.10 298.70 453.50 298.70 453.20 Z M 277.70 487.90 C 282.50 484.90 286.00 480.10 286.80 474.50 C 287.30 472.40 286.00 470.50 283.80 469.90 C 283.50 469.90 283.00 469.90 282.70 469.90 L 265.50 471.20 C 264.20 471.20 263.10 472.50 263.10 473.90 C 263.10 474.20 263.10 474.40 263.10 474.40 C 264.40 478.70 266.60 482.70 269.30 486.50 C 271.50 488.70 275.00 489.50 277.70 487.90 L 277.70 487.90 Z" fill="#db382c" fill-rule="nonzero" node-id="113" stroke="none" target-height="88.79999" target-width="119.5" target-x="184.1" target-y="412.2"></path><path d="M 336.80 435.50 C 331.70 440.30 325.80 450.50 330.40 457.30 C 332.50 460.80 336.00 461.90 340.90 460.80 C 345.50 459.70 348.20 456.50 348.40 450.90 C 349.20 447.70 350.80 449.80 352.70 457.30 C 353.20 464.60 352.40 472.10 350.60 479.10 C 349.30 480.40 347.60 481.00 345.80 481.00 C 344.20 480.70 342.80 479.90 341.50 478.90 C 340.20 477.80 338.50 476.80 336.90 475.70 L 332.30 472.50 C 331.50 472.00 330.70 471.20 330.20 470.10 C 329.90 469.30 330.20 468.80 331.00 468.50 C 331.50 468.50 332.30 468.00 332.60 467.70 C 333.10 467.40 333.40 466.60 332.90 466.10 C 332.90 465.80 332.60 465.80 332.60 465.80 C 331.30 464.70 329.60 463.70 328.00 463.10 C 327.20 462.80 326.40 462.30 325.90 461.50 C 324.00 458.00 320.00 456.40 316.20 456.90 C 311.90 457.40 307.60 458.50 303.60 459.90 C 301.50 460.40 300.10 459.10 299.00 455.60 L 298.70 453.70 C 303.00 442.20 311.60 432.50 323.10 427.40 C 329.60 423.70 339.20 426.40 336.80 435.50 Z" fill="#2b0707" fill-rule="nonzero" node-id="115" stroke="none" target-height="57.299988" target-width="54.5" target-x="298.7" target-y="423.7"></path><path d="M 184.00 427.20 C 190.70 447.60 206.30 454.30 225.90 458.40 C 231.00 459.50 235.80 461.10 240.40 463.20 C 246.30 466.20 252.20 469.10 258.40 471.50 C 259.20 471.80 259.70 472.60 259.70 473.40 L 259.70 474.70 C 259.70 475.80 260.00 477.10 260.50 477.90 C 264.50 486.80 271.50 494.00 280.10 498.30 C 285.20 500.40 290.80 500.70 296.20 498.80 L 302.10 499.30 C 302.90 499.30 303.70 499.80 304.00 500.60 C 307.80 508.10 311.00 515.90 313.90 524.00 C 315.20 527.80 316.60 531.30 318.20 534.50 C 319.80 538.00 321.40 541.50 323.00 544.70 C 325.10 549.30 329.20 551.70 331.30 554.90 C 331.80 555.70 331.80 556.50 331.00 557.00 C 330.70 557.30 330.70 557.50 331.30 557.80 C 331.80 557.80 332.40 558.30 332.40 558.90 C 332.40 559.50 332.70 560.00 333.50 559.70 C 337.00 558.60 340.80 560.50 341.80 564.00 C 341.80 564.30 341.80 564.50 342.10 564.50 C 313.10 552.10 281.40 547.80 250.20 551.90 C 246.40 552.40 243.20 555.70 240.00 561.30 L 239.70 559.20 C 239.70 558.40 238.90 557.90 238.40 558.10 L 238.40 558.10 L 237.60 558.10 C 236.80 558.10 236.00 558.40 235.20 559.20 L 221.20 572.60 C 220.70 573.10 219.60 573.40 218.80 573.70 L 189.30 573.70 C 186.60 569.90 185.50 565.10 186.10 560.50 C 186.40 559.70 186.60 558.90 187.40 558.40 C 195.20 552.00 198.10 543.40 201.90 532.60 C 202.20 531.80 202.70 531.00 203.50 530.50 L 209.40 525.10 C 210.50 524.00 212.40 524.00 213.40 525.10 C 217.70 529.10 222.50 532.60 227.40 535.60 C 229.50 537.50 231.70 539.40 233.60 541.50 C 234.40 542.00 234.90 542.00 235.20 541.00 C 235.70 539.70 235.20 538.00 233.90 537.20 C 221.50 527.80 210.00 517.60 199.00 506.90 C 190.40 498.60 184.00 488.40 179.90 477.40 C 174.00 462.90 178.30 441.40 184.00 427.20 Z" fill="#f5ab5c" fill-rule="nonzero" node-id="117" stroke="none" target-height="146.5" target-width="168.1" target-x="174" target-y="427.2"></path><path d="M 336.80 435.50 C 344.10 435.50 348.10 440.60 348.30 450.80 C 347.80 456.40 345.30 459.70 340.80 460.70 C 336.20 461.80 332.50 460.70 330.30 457.20 C 325.80 450.30 331.70 440.40 336.80 435.50 Z" fill="#f5f6f8" fill-rule="nonzero" node-id="119" stroke="none" target-height="26.299988" target-width="22.5" target-x="325.8" target-y="435.5"></path><path d="M 632.00 451.90 L 582.00 453.50 C 581.20 453.50 580.40 453.20 579.60 452.70 C 576.40 450.60 572.60 449.20 568.90 448.70 C 582.30 446.30 596.00 445.70 609.70 446.80 C 617.50 447.30 625.00 449.00 632.00 451.90 Z" fill="#f3adac" fill-rule="nonzero" node-id="121" stroke="none" target-height="7.799988" target-width="63.099976" target-x="568.9" target-y="445.7"></path><path d="M 569.10 448.70 C 572.90 449.20 576.60 450.60 579.80 452.70 C 580.60 453.20 581.40 453.50 582.20 453.50 L 632.20 451.90 C 635.40 453.00 636.80 455.70 636.00 459.70 C 633.00 474.50 630.10 489.20 626.60 504.00 C 625.80 505.90 625.00 507.80 623.60 509.40 C 613.10 525.00 598.90 538.10 582.20 547.30 C 581.40 547.80 581.10 548.90 581.70 549.70 C 582.00 550.00 582.20 550.20 582.80 550.50 L 591.10 553.20 C 591.90 553.50 592.70 553.20 593.50 552.70 C 599.70 546.50 608.50 545.20 620.40 548.90 C 615.30 548.10 610.20 548.10 605.40 548.60 C 604.90 548.60 604.30 549.10 604.10 549.70 C 603.60 550.50 603.80 551.30 604.90 551.30 C 605.40 551.30 606.00 551.80 606.00 552.60 C 606.00 553.10 606.00 553.40 605.70 553.70 C 603.80 556.90 601.40 559.90 598.70 562.30 C 597.40 563.60 595.20 563.60 593.60 562.80 C 588.80 560.40 584.50 557.20 580.70 553.10 C 580.20 552.30 579.60 551.50 579.90 550.70 C 579.90 549.60 580.40 548.80 581.00 548.00 C 581.50 547.20 581.50 546.10 580.70 545.60 C 579.40 544.50 577.70 543.70 575.90 543.50 C 573.50 543.20 573.20 542.40 575.10 540.80 C 577.00 539.20 579.10 537.60 581.30 536.00 C 583.70 534.70 585.60 532.80 587.20 530.40 C 590.40 525.60 590.20 519.90 586.40 513.20 C 582.60 506.80 578.30 502.50 575.10 495.20 C 572.10 488.50 568.90 482.00 565.20 475.60 C 564.70 474.80 564.40 474.00 564.70 473.20 C 564.70 472.10 564.40 471.10 563.60 470.20 C 563.10 469.70 562.50 469.10 562.00 468.60 C 560.70 467.00 559.30 465.60 558.00 464.00 C 557.50 463.50 556.70 462.90 555.90 462.70 C 553.80 462.20 551.60 461.10 550.00 459.50 C 546.50 456.00 546.80 453.60 551.10 452.20 C 550.80 453.00 550.60 454.10 550.60 454.90 C 550.90 457.60 553.60 459.50 556.20 458.90 C 557.00 458.90 557.50 458.60 558.10 458.10 C 559.50 456.20 564.00 453.00 569.10 448.70 Z" fill="#e66b63" fill-rule="nonzero" node-id="123" stroke="none" target-height="114.89996" target-width="90.29999" target-x="546.5" target-y="448.7"></path><path d="M 299.20 455.10 C 300.30 458.60 301.90 459.90 303.80 459.40 C 307.80 458.10 312.10 457.00 316.40 456.40 C 320.20 455.90 324.20 457.50 326.10 461.00 C 326.60 461.80 327.20 462.30 328.20 462.60 C 329.80 463.10 331.40 464.20 332.80 465.30 C 333.30 465.60 333.60 466.40 333.10 466.90 C 333.10 467.20 332.80 467.20 332.80 467.20 C 332.30 467.70 331.70 468.00 331.20 468.00 C 330.40 468.30 330.10 468.80 330.40 469.60 C 330.90 470.70 331.70 471.50 332.50 472.00 C 326.10 471.70 321.50 474.10 319.60 479.50 C 319.30 483.50 316.10 484.90 309.40 483.50 C 306.70 481.90 304.80 479.50 303.80 476.50 C 298.90 470.40 297.30 462.60 299.20 455.10 Z" fill="#b83934" fill-rule="nonzero" node-id="125" stroke="none" target-height="29.799988" target-width="36.30002" target-x="297.3" target-y="455.1"></path><path d="M 508.40 462.60 C 509.50 467.20 509.50 472.00 508.90 476.60 C 508.60 477.70 508.40 477.90 507.60 476.90 C 505.20 473.70 503.00 470.20 501.70 466.40 C 501.40 465.60 501.40 464.50 502.00 464.00 C 502.80 462.40 504.40 461.00 506.30 461.00 C 507.10 460.80 508.20 461.60 508.40 462.60 C 508.40 462.40 508.40 462.60 508.40 462.60 Z" fill="#f29f66" fill-rule="nonzero" node-id="127" stroke="none" target-height="17.100006" target-width="8.100006" target-x="501.4" target-y="460.8"></path><path d="M 286.80 474.50 C 286.00 480.10 282.50 485.00 277.70 487.90 C 275.00 489.50 271.50 488.70 269.60 486.30 C 266.90 482.80 264.80 478.50 263.40 474.20 C 262.90 472.90 263.70 471.50 265.00 471.00 C 265.30 471.00 265.30 471.00 265.50 471.00 L 282.70 469.70 C 284.80 469.40 286.50 471.00 286.70 473.20 C 286.80 473.70 286.80 473.90 286.80 474.50 Z" fill="#f9d5bc" fill-rule="nonzero" node-id="129" stroke="none" target-height="20.100006" target-width="23.899994" target-x="262.9" target-y="469.4"></path><path d="M 332.20 472.00 L 336.80 475.20 C 337.90 479.80 336.30 482.70 332.50 484.10 C 327.70 486.20 321.80 484.40 319.30 479.50 C 321.50 474.20 325.80 471.80 332.20 472.00 Z" fill="#eec0a5" fill-rule="nonzero" node-id="131" stroke="none" target-height="14.400024" target-width="18.600006" target-x="319.3" target-y="471.8"></path><path d="M 376.30 498.40 C 375.20 498.40 374.20 497.60 373.10 496.30 C 369.90 489.00 373.40 481.80 375.80 474.80 C 376.30 473.20 377.40 472.90 378.50 473.70 C 378.80 474.00 379.00 474.20 379.00 474.50 C 379.80 479.80 381.40 494.90 376.30 498.40 Z" fill="#71151a" fill-rule="nonzero" node-id="133" stroke="none" target-height="25.5" target-width="11.5" target-x="369.9" target-y="472.9"></path><path d="M 514.60 479.80 C 522.90 467.40 534.20 473.40 541.20 482.50 C 543.10 484.60 544.20 487.30 544.40 490.00 C 545.20 497.30 542.50 504.50 537.10 509.90 C 535.50 512.00 532.80 512.90 530.10 512.00 C 527.10 511.20 524.50 509.00 523.10 506.10 C 519.60 498.60 515.60 491.60 511.30 484.60 C 510.80 484.10 510.80 483.00 511.30 482.50 C 511.60 482.20 511.60 482.20 511.80 482.20 C 513.00 481.70 514.10 480.90 514.60 479.80 Z" fill="#f29c49" fill-rule="nonzero" node-id="135" stroke="none" target-height="45.50003" target-width="34.400024" target-x="510.8" target-y="467.4"></path><path d="M 337.10 475.30 C 338.70 476.10 340.30 477.20 341.70 478.50 C 342.80 479.60 344.40 480.40 346.00 480.60 C 347.90 480.90 349.50 480.10 350.80 478.70 C 352.10 481.10 353.20 483.80 353.80 486.80 C 354.10 487.60 353.80 488.70 353.30 489.20 C 352.00 491.30 350.10 493.00 347.70 494.00 C 345.60 495.10 343.70 496.40 341.80 497.80 C 339.90 499.40 338.60 501.30 337.00 503.20 C 335.90 504.30 335.40 504.80 335.10 505.10 C 333.50 506.70 333.20 509.40 334.80 511.30 C 339.40 517.20 346.90 519.90 354.40 518.60 C 362.20 517.50 368.60 509.50 372.40 502.80 C 373.20 500.70 373.50 498.20 373.50 495.80 C 374.60 497.40 375.90 497.90 376.70 497.90 C 374.80 499.80 374.60 501.40 376.20 502.70 C 377.00 503.20 377.30 504.60 376.50 505.40 C 373.00 510.50 369.00 515.30 364.40 519.60 C 360.90 522.80 355.30 524.40 347.20 524.40 C 335.40 523.10 328.70 516.90 326.80 506.10 C 326.30 495.90 319.50 486.80 309.90 483.00 C 316.30 484.30 319.80 483.00 320.10 479.00 C 322.50 483.80 328.40 485.70 333.30 483.60 C 336.50 482.80 337.90 479.80 337.10 475.30 Z" fill="#ea5f3a" fill-rule="nonzero" node-id="137" stroke="none" target-height="49.100037" target-width="67.399994" target-x="309.9" target-y="475.3"></path><path d="M 303.80 476.60 C 304.90 479.60 306.80 482.00 309.40 483.60 C 319.10 487.40 325.80 496.20 326.30 506.70 C 328.20 517.40 334.90 523.60 346.70 525.00 L 359.90 525.00 C 362.00 525.00 363.70 526.30 364.20 528.20 L 365.80 533.00 C 366.10 533.80 366.60 534.60 367.70 534.90 C 369.30 535.40 370.90 535.20 372.50 534.60 C 375.20 534.60 377.60 533.80 379.80 532.70 C 394.00 524.90 409.10 519.00 424.90 515.20 C 424.10 516.50 424.40 518.20 425.40 519.20 C 415.70 522.20 405.00 527.00 399.30 535.90 C 398.50 537.20 398.80 539.10 400.10 540.20 C 400.40 540.50 400.60 540.50 400.90 540.50 C 404.90 541.80 408.40 540.80 412.40 538.10 C 415.60 536.00 419.10 534.60 422.90 533.80 C 424.00 533.50 425.00 534.30 425.30 535.40 C 425.30 535.70 425.30 535.90 425.30 536.50 L 424.20 540.80 C 423.90 541.60 424.20 542.70 424.70 543.50 C 425.00 544.30 425.50 544.80 426.30 545.40 C 427.90 546.50 427.90 547.50 426.60 548.60 C 415.30 559.60 436.00 570.10 444.10 571.40 C 449.70 572.50 450.00 574.10 444.60 576.50 C 434.40 581.10 424.70 586.40 415.30 592.30 C 410.70 595.30 405.60 596.10 401.60 599.30 C 400.30 600.40 400.50 600.90 402.10 600.60 C 407.20 600.30 412.30 599.00 416.90 596.80 C 427.10 591.40 439.20 582.80 450.50 581.00 C 455.30 580.20 458.30 581.30 459.40 584.50 C 459.70 585.80 459.40 586.90 458.60 588.00 L 450.00 596.90 C 448.40 598.50 447.90 600.70 447.90 602.50 C 447.90 603.80 449.00 604.60 450.00 604.90 C 454.60 605.70 456.70 608.10 456.20 611.90 C 456.20 612.70 455.70 613.50 454.90 613.80 C 451.40 615.40 447.40 614.60 444.40 612.20 C 444.70 610.60 443.90 609.00 442.50 608.20 C 440.90 607.10 439.00 607.70 437.90 609.00 C 437.90 609.00 437.90 609.00 437.90 609.30 L 432.30 619.00 C 431.50 620.30 431.80 622.00 433.10 622.80 C 433.60 623.10 433.90 623.10 434.40 623.30 C 438.40 623.30 442.20 622.00 445.10 619.80 C 447.20 620.30 449.40 621.40 451.00 623.30 C 451.50 624.10 451.80 624.90 451.50 625.70 C 451.20 627.60 450.40 629.50 449.10 630.80 C 448.60 631.30 448.30 631.90 448.30 632.70 L 448.30 633.80 C 448.30 634.60 448.00 635.40 447.20 635.90 C 446.10 637.00 445.30 638.30 444.50 639.70 C 443.40 642.70 440.50 644.50 437.20 644.30 L 411.70 642.20 C 410.40 642.20 409.00 642.50 407.90 643.50 C 404.10 647.30 399.00 649.10 393.90 649.10 C 392.60 649.10 391.50 649.60 390.90 650.70 C 387.10 657.70 380.40 662.80 372.90 664.90 C 371.60 665.40 370.20 665.20 369.10 664.60 C 368.60 664.30 368.00 664.30 368.00 665.10 C 367.70 666.40 367.50 667.00 366.70 666.70 C 366.40 665.60 366.40 664.60 366.70 663.50 C 369.70 652.00 372.90 640.10 376.40 628.60 C 379.10 619.50 378.80 611.40 375.30 604.70 C 371.50 597.20 364.00 587.20 352.70 574.90 C 349.50 571.40 346.00 568.20 342.00 565.50 C 341.20 562.00 337.70 559.60 334.20 560.40 C 333.90 560.40 333.70 560.40 333.70 560.70 C 333.20 561.00 332.60 560.40 332.60 559.90 C 332.60 559.40 332.30 558.80 331.50 558.80 C 331.00 558.80 331.00 558.50 331.20 558.00 C 331.70 557.50 332.00 556.40 331.50 555.90 C 329.40 552.70 325.30 550.30 323.20 545.70 C 321.60 542.50 320.00 539.00 318.40 535.50 C 316.80 532.00 315.40 528.80 314.10 525.00 C 311.10 516.90 307.90 509.40 304.20 501.60 C 303.90 500.80 303.10 500.30 302.30 500.30 L 296.40 499.80 C 298.00 499.80 299.40 499.30 300.20 497.90 C 300.70 497.40 300.70 496.30 300.50 495.50 C 298.60 492.30 298.40 488.20 300.20 484.80 C 300.50 484.00 300.70 483.20 300.70 482.40 C 300.80 478.20 301.90 476.30 303.80 476.60 Z M 413.10 577.90 C 414.40 574.40 413.90 570.40 411.50 567.70 C 409.90 565.30 406.90 563.90 404.00 563.90 C 399.40 563.90 394.90 564.20 390.30 564.70 C 389.00 565.00 387.90 566.00 387.90 567.10 C 386.60 574.40 390.00 581.60 396.80 585.10 C 399.20 586.40 402.20 586.40 404.60 585.40 C 409.10 583.20 412.00 580.80 413.10 577.90 Z" fill="#f29c49" fill-rule="nonzero" node-id="139" stroke="none" target-height="190.70001" target-width="163.30002" target-x="296.4" target-y="476.3"></path><path d="M 371.70 502.90 C 367.90 509.60 361.50 517.40 353.70 518.70 C 346.40 520.00 338.90 517.40 334.10 511.40 C 332.50 509.50 332.80 506.80 334.40 505.20 C 334.70 504.90 335.20 504.40 336.30 503.30 C 346.00 493.40 356.70 490.10 368.50 484.20 C 369.30 483.90 370.10 484.20 370.40 484.70 C 370.70 485.00 370.70 485.20 370.40 485.50 L 369.60 489.00 C 369.30 489.80 369.30 490.90 369.60 491.70 L 371.70 502.90 Z" fill="#ee8363" fill-rule="nonzero" node-id="141" stroke="none" target-height="36.100006" target-width="39.200012" target-x="332.5" target-y="483.9"></path><path d="M 724.10 690.70 L 735.60 687.20 C 737.20 686.70 738.80 687.50 739.40 689.10 C 739.70 689.60 739.70 689.90 739.40 690.40 C 738.10 697.70 736.20 702.80 734.00 705.70 C 730.00 706.20 726.20 708.70 723.00 713.50 C 722.70 713.80 722.50 714.00 722.20 714.00 L 721.40 714.00 C 721.10 714.00 720.60 714.00 720.30 714.30 L 713.00 719.40 C 712.20 719.90 711.40 720.20 710.60 719.90 C 709.00 719.60 707.40 720.20 706.30 721.20 C 705.00 722.30 703.60 723.10 702.30 723.60 C 698.50 724.90 694.80 726.00 691.00 726.00 C 688.30 726.00 685.60 725.50 683.20 724.40 C 680.80 723.30 678.40 722.80 675.70 722.30 C 675.20 722.30 674.60 722.00 674.40 721.50 C 674.10 721.20 674.10 721.00 673.90 721.00 C 673.40 720.50 672.60 720.20 671.80 720.20 C 669.40 720.70 666.70 719.90 664.80 718.30 C 659.40 713.70 652.20 711.30 644.90 712.10 C 642.50 712.10 640.60 710.50 640.60 708.10 C 640.60 707.00 640.90 706.00 641.70 705.10 L 647.10 699.50 C 647.90 698.70 647.90 697.10 647.10 696.30 C 646.80 696.00 646.30 695.80 645.80 695.80 C 638.80 695.00 634.50 697.40 632.40 702.50 C 631.60 704.40 629.70 705.50 627.60 704.60 C 624.60 703.50 622.00 701.90 619.50 700.00 C 618.70 699.50 617.90 698.90 617.10 698.90 L 603.10 696.80 C 602.30 696.50 601.50 696.00 601.00 695.50 C 599.40 692.50 596.40 690.70 593.20 690.40 C 589.40 689.90 585.70 688.50 582.70 686.10 C 576.80 681.80 571.40 680.20 565.50 677.00 C 564.70 676.50 563.90 676.20 563.10 676.20 C 557.70 675.70 557.50 669.80 557.50 664.90 C 557.50 663.30 558.60 661.90 561.00 661.10 C 561.30 661.10 561.50 660.80 561.50 660.60 C 561.50 660.60 561.50 660.60 561.50 660.30 L 561.20 659.50 C 561.20 659.20 560.90 659.20 560.70 659.20 L 560.70 659.20 L 555.30 661.10 C 554.50 661.40 554.00 661.60 553.40 662.40 C 550.70 665.60 547.20 668.00 543.20 669.10 L 535.10 651.60 C 534.00 649.50 532.70 647.30 531.30 645.40 C 527.80 641.90 524.00 638.70 520.00 635.70 C 511.70 630.10 509.80 618.50 510.30 609.40 C 510.30 608.60 510.00 607.80 509.50 607.00 L 505.70 601.90 C 507.80 584.20 485.00 572.60 470.80 571.30 C 469.70 571.30 468.90 570.20 468.90 569.20 C 468.90 568.90 468.90 568.90 468.90 568.70 C 470.50 564.40 471.60 559.80 472.40 555.30 C 472.70 552.30 473.70 552.10 475.60 554.50 C 479.60 559.90 488.80 557.50 487.10 549.10 C 486.60 546.10 486.00 543.70 485.50 541.30 C 485.20 540.50 484.40 540.00 483.60 540.20 C 483.30 540.20 483.10 540.50 482.80 540.70 L 476.40 547.70 C 475.30 548.80 473.70 549.00 472.60 548.00 C 472.10 547.50 471.80 546.90 471.80 546.10 C 471.30 533.70 468.80 521.70 464.80 509.80 C 464.00 507.10 461.30 505.50 458.60 506.30 C 458.30 506.30 458.10 506.60 457.50 506.60 L 457.20 504.50 C 457.20 503.40 456.40 502.90 455.60 502.60 L 450.50 502.10 L 472.00 497.00 C 472.80 496.70 473.90 497.00 474.40 497.50 C 483.80 504.20 494.00 510.10 504.20 515.20 C 512.30 519.20 520.30 524.10 527.80 529.20 C 531.60 531.90 533.70 536.20 537.20 538.30 C 549.60 546.10 561.60 553.90 573.70 562.20 C 575.80 563.50 577.70 565.20 579.60 566.50 C 584.20 570.30 583.40 571.60 577.70 570.50 C 557.80 566.70 534.70 583.40 555.10 603.00 C 560.70 608.40 567.70 612.90 575.20 612.90 C 583.80 612.90 597.20 604.30 599.60 595.70 C 599.90 594.60 600.90 594.10 602.00 594.40 C 602.50 594.70 602.80 594.90 603.10 595.20 C 605.20 598.70 607.90 601.90 611.20 604.30 C 611.70 604.80 612.30 605.60 612.50 606.40 C 612.80 608.30 613.60 610.20 614.60 611.80 C 618.60 615.80 622.90 619.60 627.20 623.10 C 631.50 626.90 635.50 630.90 639.00 635.20 C 643.00 640.30 647.10 645.40 651.40 650.20 C 654.60 654.20 661.60 659.60 665.10 666.00 C 665.60 666.80 666.20 667.30 666.70 667.90 C 671.30 670.60 673.40 676.20 671.30 681.30 C 671.00 682.40 671.30 683.70 672.40 684.30 C 686.90 692.60 697.90 701.50 715.40 699.10 C 721.90 698.50 724.40 695.50 724.10 690.70 Z M 535.00 547.00 C 533.10 539.70 531.80 533.00 523.50 530.90 C 513.80 527.70 503.60 528.20 494.20 532.20 C 492.90 532.70 492.30 534.10 493.10 535.40 L 493.10 535.40 L 503.60 556.10 C 504.40 557.70 506.00 558.80 507.60 558.80 L 520.00 559.30 C 522.40 559.60 525.10 559.00 527.50 558.00 C 531.30 555.80 536.40 551.50 535.00 547.00 L 535.00 547.00 Z M 536.40 567.10 C 528.90 566.80 521.40 567.40 513.80 568.70 C 513.00 568.70 512.50 569.20 512.50 570.00 L 512.50 570.30 C 513.30 576.70 521.40 582.10 525.90 585.90 C 527.20 587.00 528.90 587.20 530.70 587.00 C 535.80 585.90 540.10 582.20 541.70 577.30 C 543.30 573.50 541.40 569.00 537.40 567.60 C 537.20 567.10 536.90 567.10 536.40 567.10 L 536.40 567.10 Z M 531.30 627.60 C 534.30 630.60 538.80 630.80 542.60 628.90 L 551.20 624.10 C 555.80 621.40 557.40 615.50 554.70 610.90 C 553.90 609.30 552.30 607.90 550.70 607.10 L 539.40 601.50 C 534.60 599.10 528.90 601.00 526.50 605.80 C 526.20 606.10 526.20 606.30 526.20 606.60 L 524.10 612.50 C 522.80 616.30 523.60 620.30 526.50 623.00 L 531.30 627.60 Z M 623.60 627.30 C 624.40 621.40 618.20 615.50 609.60 614.10 C 601.00 612.80 593.20 616.80 592.40 622.70 C 591.60 628.60 597.80 634.50 606.40 635.90 C 615.10 637.20 622.60 633.20 623.60 627.30 L 623.60 627.30 Z M 637.60 650.40 C 636.30 649.60 634.60 649.30 633.30 649.60 C 630.90 649.90 629.00 652.00 629.00 654.70 C 629.00 655.00 629.00 655.50 629.30 655.80 C 632.30 664.70 640.60 670.80 649.70 666.00 C 650.50 665.50 651.00 664.70 651.00 663.90 C 651.60 655.50 643.50 653.30 637.60 650.40 L 637.60 650.40 Z" fill="#ed7c46" fill-rule="nonzero" node-id="143" stroke="none" target-height="229.29999" target-width="289.2" target-x="450.5" target-y="496.7"></path><path d="M 450.70 501.30 L 455.80 501.80 C 456.90 501.80 457.40 502.60 457.40 503.70 L 457.70 505.80 C 451.00 510.40 445.60 516.50 441.90 523.50 C 440.80 525.60 438.10 526.20 436.30 525.10 L 436.30 525.10 L 425.60 518.90 C 424.50 517.80 424.30 516.20 425.10 514.90 C 432.10 508.60 441.00 503.70 450.70 501.30 Z" fill="#eec0a5" fill-rule="nonzero" node-id="145" stroke="none" target-height="24.900024" target-width="33.400024" target-x="424.3" target-y="501.3"></path><path d="M 457.70 505.90 C 460.10 504.80 463.10 505.60 464.40 508.30 C 464.70 508.60 464.70 508.80 464.70 509.40 C 468.70 520.90 471.10 533.30 471.70 545.70 C 471.70 547.30 473.00 548.40 474.40 548.40 C 475.20 548.40 475.70 548.10 476.30 547.60 L 482.70 540.60 C 483.20 540.10 484.00 540.10 484.80 540.60 C 485.10 540.90 485.10 541.10 485.30 541.40 C 485.80 543.80 486.40 546.50 486.90 549.20 C 488.50 557.30 479.60 559.90 475.40 554.60 C 473.50 552.20 472.40 552.50 472.20 555.40 C 471.70 560.00 470.30 564.50 468.70 568.80 C 468.40 569.90 468.70 570.90 469.80 571.50 C 470.10 571.50 470.10 571.50 470.30 571.50 C 484.80 573.10 507.40 584.40 505.20 602.10 C 500.40 613.40 490.70 622.00 478.60 625.20 L 471.60 622.50 C 462.70 623.80 458.20 620.10 457.90 611.50 C 457.90 609.10 456.30 606.90 453.90 606.10 C 449.90 605.00 448.50 602.10 449.60 597.50 L 458.20 588.40 C 459.00 587.60 459.30 586.30 459.00 584.90 C 458.20 581.70 455.20 580.30 450.10 581.40 C 438.80 583.50 426.70 591.90 416.50 597.20 C 411.90 599.30 406.80 600.40 401.70 601.00 C 400.10 601.30 399.80 600.70 401.20 599.70 C 405.20 596.50 410.30 595.70 414.90 592.70 C 424.30 586.80 434.20 581.40 444.40 576.90 C 449.50 574.50 449.50 572.90 443.90 571.80 C 435.60 570.20 415.20 559.70 426.20 549.00 C 427.50 547.70 427.30 546.60 425.90 545.80 C 425.40 545.30 424.80 544.70 424.30 543.90 C 423.80 543.10 423.50 542.00 423.80 541.20 L 424.90 536.90 C 425.20 535.80 424.40 534.80 423.30 534.50 C 423.00 534.50 422.80 534.50 422.20 534.50 C 418.40 535.30 414.90 536.60 411.70 538.80 C 407.70 541.50 404.20 542.60 400.20 541.20 C 398.60 540.70 397.80 538.80 398.30 537.20 C 398.30 536.90 398.60 536.70 398.60 536.40 C 404.20 527.50 415.00 522.70 424.70 519.70 L 435.40 525.90 C 437.50 527.00 440.00 526.40 441.30 524.30 L 441.30 524.30 C 445.60 516.40 451.20 510.50 457.70 505.90 Z" fill="#e73d22" fill-rule="nonzero" node-id="147" stroke="none" target-height="120.400024" target-width="109.600006" target-x="397.8" target-y="504.8"></path><path d="M 189.10 574.10 C 194.70 583.00 203.60 592.60 216.20 602.60 C 219.70 605.30 222.90 605.80 225.60 603.90 L 223.70 613.30 C 211.90 603.10 204.10 596.40 200.60 592.90 C 181.00 574.40 175.10 551.50 182.90 524.70 C 184.00 520.10 186.40 515.80 189.30 512.30 C 189.60 511.80 190.10 511.50 190.90 511.80 C 192.00 512.10 192.20 512.60 191.70 513.40 L 187.70 523.90 C 187.40 525.00 187.70 526.00 188.80 526.60 C 189.10 526.60 189.10 526.60 189.30 526.60 C 195.50 527.10 205.10 527.90 206.20 519.90 C 206.50 519.10 205.90 518.00 205.40 517.50 C 202.40 514.50 200.30 511.10 199.00 507.00 C 210.00 517.70 221.60 527.90 233.90 537.30 C 235.20 538.10 235.80 539.40 235.20 541.10 C 234.90 542.20 234.40 542.20 233.60 541.60 C 231.70 539.50 229.60 537.60 227.40 535.70 C 222.60 532.50 217.70 529.00 213.40 525.20 C 212.30 524.10 210.40 524.10 209.40 525.20 L 203.50 530.60 C 202.70 531.10 202.40 531.90 201.90 532.70 C 198.10 543.40 195.20 552.00 187.40 558.50 C 186.60 559.00 186.30 559.80 186.10 560.60 C 185.30 565.80 186.40 570.30 189.10 574.10 Z" fill="#d74a3e" fill-rule="nonzero" node-id="149" stroke="none" target-height="106.29999" target-width="60.699997" target-x="175.1" target-y="507"></path><path d="M 535.00 547.00 C 536.30 551.80 531.20 555.90 527.50 557.70 C 525.10 558.80 522.70 559.30 520.00 559.00 L 507.60 558.50 C 505.70 558.50 504.40 557.40 503.60 555.80 L 493.10 535.10 C 492.60 534.00 492.80 532.40 494.20 531.90 L 494.20 531.90 C 503.60 527.90 513.80 527.60 523.50 530.60 C 531.50 533.00 532.90 539.70 535.00 547.00 Z" fill="#e73d22" fill-rule="nonzero" node-id="151" stroke="none" target-height="31.700012" target-width="43.69998" target-x="492.6" target-y="527.6"></path><path d="M 341.90 565.20 C 345.90 567.90 349.40 571.10 352.60 574.60 C 363.90 587.00 371.40 596.90 375.20 604.40 C 378.70 611.10 379.00 619.20 376.30 628.30 C 372.80 639.80 369.60 651.40 366.60 663.20 C 365.00 665.60 363.60 666.70 362.30 667.00 C 352.40 668.90 342.40 671.00 332.80 673.40 C 323.10 675.80 313.20 677.70 303.00 679.00 C 284.50 681.10 265.40 682.50 246.10 683.00 C 239.70 676.80 235.10 669.30 232.40 661.00 C 231.30 658.00 230.30 658.00 229.20 661.00 C 229.20 661.80 229.50 662.60 229.50 663.10 C 223.90 647.30 221.70 630.10 223.60 613.10 L 225.50 603.70 C 229.50 588.90 231.70 575.00 240.00 561.80 C 243.00 555.90 246.40 552.70 250.20 552.40 C 281.20 548.60 312.90 553.20 341.90 565.20 Z" fill="#f9d5bc" fill-rule="nonzero" node-id="153" stroke="none" target-height="134.40002" target-width="157.3" target-x="221.7" target-y="548.6"></path><path d="M 239.80 562.00 C 231.70 575.20 229.30 589.10 225.30 603.90 C 222.60 605.80 219.40 605.20 215.90 602.60 C 203.30 592.70 194.40 583.00 188.80 574.10 L 218.60 574.10 C 219.40 574.10 220.20 573.80 221.00 573.00 L 235.00 559.60 C 235.50 559.10 236.30 558.50 237.40 558.50 L 238.20 558.50 C 239.00 558.50 239.50 559.00 239.50 559.60 L 239.50 559.60 L 239.80 562.00 Z" fill="#ee8363" fill-rule="nonzero" node-id="155" stroke="none" target-height="47.299988" target-width="51" target-x="188.8" target-y="558.5"></path><path d="M 413.10 577.90 C 412.00 580.60 409.10 583.30 404.20 585.40 C 401.80 586.70 398.80 586.70 396.40 585.10 C 390.00 581.60 386.20 574.40 387.50 567.10 C 387.80 565.80 388.60 564.70 389.90 564.70 C 394.50 564.20 399.00 563.90 403.60 563.90 C 406.60 563.90 409.20 565.20 411.10 567.70 C 413.90 570.60 414.70 574.40 413.10 577.90 Z" fill="#ea5f3a" fill-rule="nonzero" node-id="157" stroke="none" target-height="22.799988" target-width="28.5" target-x="386.2" target-y="563.9"></path><path d="M 536.40 567.10 C 540.40 567.90 543.10 571.70 542.30 576.00 C 542.30 576.50 542.00 577.10 541.80 577.30 C 540.20 582.10 535.90 585.90 530.80 587.00 C 529.20 587.50 527.30 587.00 526.00 585.90 C 521.40 582.10 513.10 576.80 512.60 570.30 C 512.30 569.50 512.90 569.00 513.70 568.70 L 514.00 568.70 C 521.30 567.40 528.80 566.90 536.40 567.10 Z" fill="#e73d22" fill-rule="nonzero" node-id="159" stroke="none" target-height="20.599976" target-width="30.799988" target-x="512.3" target-y="566.9"></path><path d="M 450.10 596.90 C 448.80 601.50 450.40 604.40 454.40 605.50 C 456.80 606.30 458.40 608.50 458.40 610.90 C 458.40 619.50 463.00 623.30 472.10 621.90 C 464.60 622.40 458.10 626.70 454.60 633.40 C 451.10 639.80 452.20 644.70 457.80 647.90 C 463.40 650.90 470.20 651.10 476.10 648.40 C 480.40 646.80 483.90 643.30 485.80 639.00 C 486.10 638.20 486.30 637.10 486.10 636.30 C 485.00 631.70 482.90 627.70 479.70 624.20 C 491.50 621.00 501.50 612.40 506.30 601.10 L 510.10 606.20 C 510.60 607.00 510.90 607.80 510.90 608.60 C 510.40 618.00 512.20 629.30 520.60 634.90 C 524.60 637.90 528.40 641.10 531.90 644.60 C 533.50 646.50 534.60 648.60 535.70 650.80 C 534.90 650.30 534.10 649.70 533.60 648.90 C 533.10 648.10 532.50 648.10 532.30 649.20 C 531.80 650.50 531.80 652.20 532.30 653.50 C 530.70 648.40 527.20 644.40 522.60 641.70 C 514.50 636.90 506.80 640.90 505.10 649.20 C 504.80 650.50 505.10 651.60 505.90 652.70 C 509.40 656.70 511.00 661.80 511.00 667.20 C 511.00 668.30 511.50 669.10 512.30 669.60 C 513.60 670.40 515.30 670.90 517.10 670.90 L 498.30 673.30 C 497.20 673.00 496.20 673.80 495.90 674.90 C 495.90 675.70 496.20 676.50 496.70 676.80 C 505.00 685.70 515.20 692.40 526.50 696.90 C 537.00 700.90 544.80 693.90 547.70 684.50 C 548.50 681.80 548.20 678.60 547.20 676.20 C 546.10 673.20 545.10 670.60 543.70 668.10 C 547.70 667.00 551.20 664.60 553.90 661.40 C 554.40 660.90 555.00 660.30 555.80 660.10 L 561.20 658.20 C 561.50 658.20 561.70 658.20 561.70 658.50 L 561.70 658.50 L 562.00 659.30 C 562.30 659.60 562.00 659.80 561.70 660.10 C 561.70 660.10 561.70 660.10 561.40 660.10 C 559.00 660.90 557.90 662.20 557.90 663.90 C 557.90 668.70 558.20 674.60 563.50 675.20 C 564.30 675.20 565.10 675.50 565.90 676.00 C 571.80 679.20 577.20 680.80 583.10 685.10 C 586.30 687.20 589.80 688.90 593.60 689.40 C 596.80 689.40 599.80 691.50 601.40 694.50 C 601.90 695.30 602.70 695.80 603.50 695.80 L 617.50 698.20 C 618.30 698.50 619.40 698.70 619.90 699.30 C 622.30 701.40 625.00 702.80 628.00 703.90 C 629.90 704.40 632.00 703.60 632.80 701.80 C 634.70 696.70 639.20 694.30 646.20 695.10 C 647.50 695.10 648.30 696.40 648.30 697.50 C 648.30 698.00 648.00 698.60 647.80 698.80 L 642.40 704.40 C 640.80 706.00 640.80 708.70 642.70 710.30 C 643.50 711.10 644.60 711.40 645.70 711.40 C 653.00 710.60 659.90 713.00 665.60 717.60 C 667.50 719.20 669.90 720.00 672.60 719.50 C 673.40 719.50 674.20 719.80 674.70 720.30 C 675.00 720.60 675.00 720.60 675.20 720.80 C 675.50 721.30 676.00 721.60 676.50 721.60 C 678.90 722.10 681.60 722.90 684.00 723.70 C 686.40 724.80 689.10 725.30 691.80 725.30 C 695.80 725.00 699.60 724.20 703.10 722.90 C 704.70 722.40 706.10 721.60 707.10 720.50 C 708.40 719.40 709.80 719.20 711.40 719.20 C 712.20 719.20 713.00 718.90 713.80 718.70 L 721.10 713.60 C 721.40 713.30 721.60 713.30 722.20 713.30 L 723.00 713.30 C 723.30 713.30 723.50 713.00 723.80 712.80 C 727.30 708.00 730.80 705.30 734.80 705.00 C 730.50 711.70 724.30 717.10 717.30 720.80 C 694.50 732.30 669.50 738.50 644.20 739.10 C 642.60 739.60 640.40 738.30 638.00 735.60 C 635.90 733.20 634.20 730.80 632.60 728.10 C 631.00 725.70 629.10 723.50 627.00 721.70 C 624.60 719.80 622.70 717.90 620.60 715.80 C 615.80 710.40 609.90 705.90 603.40 702.40 C 587.30 693.50 570.40 702.10 560.20 715.30 C 557.50 718.50 551.10 730.60 544.40 730.90 C 530.20 731.20 516.50 731.20 503.30 730.90 C 500.30 730.90 497.40 732.00 495.20 734.10 C 488.50 740.00 481.80 745.60 474.30 751.00 C 471.10 753.40 467.30 754.80 463.30 755.00 C 458.20 755.30 453.10 755.30 447.70 754.70 C 442.60 754.40 437.50 754.20 432.40 753.90 C 417.60 753.40 402.90 753.40 388.10 753.40 C 387.00 753.40 386.20 752.90 385.70 752.10 C 381.90 746.70 377.10 741.90 371.50 738.40 C 368.50 735.70 366.70 732.00 366.70 728.20 C 366.70 727.90 366.70 727.90 366.40 727.90 L 366.10 728.20 C 364.50 725.00 363.40 721.50 363.10 718.00 C 362.30 700.50 363.60 683.10 367.40 666.20 C 367.90 666.50 368.50 665.90 368.70 664.60 C 368.70 663.80 369.20 663.80 369.80 664.10 C 370.90 664.90 372.50 664.90 373.60 664.40 C 381.40 662.30 387.80 657.10 391.90 650.20 C 392.40 649.10 393.80 648.30 394.90 648.60 C 400.30 648.60 405.40 646.70 408.90 643.00 C 410.00 642.20 411.30 641.70 412.70 641.70 L 438.20 643.80 C 441.40 644.10 444.40 642.20 445.50 639.20 C 446.00 637.90 446.80 636.50 447.90 635.40 C 448.40 634.90 449.00 634.10 449.00 633.30 L 449.00 632.20 C 449.00 631.40 449.30 630.90 449.80 630.30 C 451.10 629.00 451.90 627.10 452.20 625.20 C 452.50 624.40 452.20 623.60 451.70 622.80 C 450.10 620.90 448.20 619.80 445.80 619.30 L 447.40 618.00 C 447.90 617.50 448.20 616.70 447.70 616.10 C 447.70 616.10 447.70 616.10 447.70 615.80 L 445.00 612.00 C 448.00 614.70 452.00 615.20 455.50 613.60 C 456.30 613.30 456.80 612.50 456.80 611.70 C 457.10 607.70 455.20 605.30 450.60 604.70 C 449.30 604.40 448.50 603.60 448.50 602.30 C 447.70 600.70 448.50 598.50 450.10 596.90 Z" fill="#ea5f3a" fill-rule="nonzero" node-id="161" stroke="none" target-height="158.39996" target-width="372.5" target-x="362.3" target-y="596.9"></path><path d="M 716.80 599.60 C 712.80 606.90 707.10 613.00 700.70 618.10 C 700.20 618.60 699.40 618.60 698.60 618.60 C 695.90 618.30 695.10 616.50 695.60 613.80 C 695.60 613.30 696.10 612.70 696.40 612.20 C 700.20 608.20 709.80 599.00 716.00 598.50 C 717.10 598.30 717.40 598.50 716.80 599.60 Z" fill="#ef8954" fill-rule="nonzero" node-id="163" stroke="none" target-height="20.299988" target-width="22.300049" target-x="695.1" target-y="598.3"></path><path d="M 531.30 627.60 L 526.50 623.00 C 523.50 620.30 522.70 616.30 524.10 612.50 L 526.20 606.60 C 528.10 601.80 533.70 599.10 538.60 601.00 C 538.90 601.00 539.10 601.30 539.40 601.30 L 550.70 606.90 C 555.50 609.30 557.40 615.00 555.00 619.80 C 554.20 621.40 552.90 622.80 551.20 623.80 L 542.60 628.60 C 538.80 631.00 534.20 630.50 531.30 627.60 Z" fill="#e73d22" fill-rule="nonzero" node-id="165" stroke="none" target-height="31.900024" target-width="34.700012" target-x="522.7" target-y="599.1"></path><path d="M 444.50 612.50 L 446.90 616.30 C 447.40 616.80 447.40 617.90 446.90 618.20 C 446.90 618.20 446.90 618.20 446.60 618.20 L 445.00 619.50 C 441.80 621.90 438.00 623.00 434.30 623.00 C 432.70 623.00 431.60 621.70 431.60 620.30 C 431.60 619.80 431.90 619.20 432.10 619.00 L 437.70 609.30 C 438.80 607.70 440.70 607.20 442.30 608.20 C 442.30 608.20 442.30 608.20 442.60 608.20 C 444.00 609.60 444.80 610.90 444.50 612.50 Z" fill="#ed7c46" fill-rule="nonzero" node-id="167" stroke="none" target-height="15.799988" target-width="15.799988" target-x="431.6" target-y="607.2"></path><path d="M 609.41 613.96 L 612.27 614.56 L 614.82 615.43 L 617.09 616.57 L 619.19 618.00 L 620.86 619.57 L 622.15 621.27 L 623.08 623.17 L 623.52 625.08 L 623.50 627.07 L 622.97 628.99 L 622.01 630.71 L 620.59 632.26 L 618.87 633.54 L 616.83 634.58 L 614.42 635.37 L 611.91 635.83 L 609.22 635.96 L 606.31 635.74 L 603.45 635.14 L 600.90 634.26 L 598.63 633.13 L 596.53 631.69 L 594.87 630.12 L 593.57 628.42 L 592.64 626.53 L 592.20 624.61 L 592.22 622.62 L 592.75 620.70 L 593.71 618.99 L 595.14 617.43 L 596.85 616.15 L 598.89 615.11 L 601.30 614.32 L 603.81 613.86 L 606.50 613.73 L 609.41 613.96 Z" fill="#e73d22" fill-rule="nonzero" group-id="3" node-id="171" stroke="none" target-height="22.22345" target-width="31.32605" target-x="592.1985" target-y="613.7343"></path><path d="M 471.90 622.20 L 478.90 624.90 C 482.10 628.10 484.30 632.40 485.30 637.00 C 485.60 637.80 485.60 638.90 485.00 639.70 C 483.40 644.00 479.90 647.50 475.30 649.10 C 469.40 651.80 462.70 651.50 457.00 648.60 C 451.40 645.40 450.30 640.50 453.80 634.10 C 457.90 627.00 464.40 622.70 471.90 622.20 Z" fill="#f3a93e" fill-rule="nonzero" node-id="174" stroke="none" target-height="29.599976" target-width="35.30002" target-x="450.3" target-y="622.2"></path><path d="M 531.30 653.90 C 529.20 658.70 527.30 663.60 525.40 667.90 C 523.50 672.70 520.60 673.00 516.00 671.70 C 514.40 671.70 512.80 671.40 511.20 670.40 C 510.40 669.90 509.90 668.80 509.90 668.00 C 509.90 662.60 508.00 657.50 504.80 653.50 C 504.00 652.40 503.70 651.40 504.00 650.00 C 505.60 641.70 513.40 637.60 521.50 642.50 C 526.20 644.70 529.60 648.80 531.30 653.90 Z" fill="#f29c49" fill-rule="nonzero" node-id="176" stroke="none" target-height="35.400024" target-width="27.599976" target-x="503.7" target-y="637.6"></path><path d="M 534.70 651.20 L 542.80 668.40 C 543.90 671.10 545.20 673.80 546.30 676.50 C 547.40 679.20 547.60 682.10 546.80 684.80 C 544.10 694.20 536.10 701.50 525.60 697.20 C 514.30 692.60 504.10 685.90 495.80 677.10 C 495.00 676.30 495.00 675.00 495.80 674.10 C 496.10 673.80 496.60 673.60 496.90 673.60 L 515.70 671.20 C 520.30 672.50 523.20 672.00 525.10 667.40 C 527.00 663.10 528.90 658.50 531.00 653.40 C 530.50 652.10 530.50 650.40 531.00 649.10 C 531.30 648.30 531.80 648.30 532.30 648.80 C 533.10 650.10 533.90 650.70 534.70 651.20 Z" fill="#e73d22" fill-rule="nonzero" node-id="178" stroke="none" target-height="53.200012" target-width="52.599976" target-x="495" target-y="648.3"></path><path d="M 637.60 650.40 C 643.50 653.40 651.60 655.80 651.00 663.60 C 651.00 664.70 650.50 665.50 649.70 665.70 C 640.80 670.50 632.50 664.40 629.30 655.50 C 628.50 653.10 629.80 650.40 632.30 649.60 C 632.60 649.60 633.10 649.30 633.40 649.30 C 634.70 649.30 636.30 649.60 637.60 650.40 Z" fill="#e73d22" fill-rule="nonzero" node-id="180" stroke="none" target-height="21.200012" target-width="23.099976" target-x="628.5" target-y="649.3"></path><path d="M 246.30 683.20 C 265.10 704.10 290.60 718.10 318.50 723.00 C 329.00 724.90 339.40 726.50 349.90 728.10 C 354.20 728.60 359.30 730.80 364.10 731.30 C 364.60 731.30 365.20 731.00 365.40 730.50 L 365.40 730.20 L 365.40 729.10 L 365.70 728.80 C 366.00 728.50 366.00 728.80 366.00 729.10 C 366.00 733.10 367.90 736.90 370.80 739.30 L 361.70 751.10 C 361.40 751.40 361.40 751.60 361.40 751.90 L 361.40 753.00 C 361.40 754.10 360.60 754.90 359.50 754.90 L 348.20 755.40 L 335.30 755.70 C 334.20 755.70 333.40 754.90 333.40 754.10 C 333.40 753.80 333.40 753.60 333.70 753.00 C 334.80 750.90 333.70 749.00 330.70 747.60 C 326.10 746.30 321.30 746.00 316.70 746.50 C 314.00 746.20 311.60 748.10 311.10 750.80 C 311.10 751.60 310.60 752.40 309.80 752.90 L 307.40 754.80 C 303.90 755.90 300.10 756.40 296.70 755.90 C 291.30 755.60 286.20 754.00 281.40 751.60 C 270.90 740.90 261.30 729.80 252.10 718.60 C 244.00 708.70 238.40 697.10 235.40 684.50 C 233.50 676.40 231.90 670.80 229.80 664.10 C 229.50 663.30 229.50 662.50 229.30 662.00 C 230.40 659.00 231.40 659.00 232.50 662.00 C 235.00 669.50 239.80 677.00 246.30 683.20 Z" fill="#e66b63" fill-rule="nonzero" node-id="182" stroke="none" target-height="97.400024" target-width="141.49998" target-x="229.3" target-y="659"></path><path d="M 366.90 663.30 C 366.60 664.40 366.60 665.40 366.90 666.50 C 363.10 683.40 361.80 700.90 362.60 718.30 C 363.10 721.80 363.90 725.30 365.60 728.50 L 365.60 729.60 C 365.60 730.10 365.30 730.70 364.80 730.70 L 364.50 730.70 C 359.70 730.20 354.60 728.30 350.30 727.50 C 339.80 725.90 329.40 724.30 318.90 722.40 C 291.00 717.80 265.50 703.90 246.70 682.60 C 266.00 682.10 285.10 681.00 303.60 678.60 C 313.50 677.30 323.50 675.40 333.40 673.00 C 343.30 670.60 353.00 668.40 362.90 666.60 C 363.70 666.80 365.30 665.70 366.90 663.30 Z" fill="#f29f8c" fill-rule="nonzero" node-id="184" stroke="none" target-height="67.400024" target-width="120.2" target-x="246.7" target-y="663.3"></path><path d="M 619.60 716.70 C 621.50 718.80 623.60 720.70 626.00 722.60 C 628.10 724.50 630.00 726.60 631.60 729.00 C 633.20 731.70 635.10 734.10 637.00 736.50 C 639.40 739.50 641.60 740.50 643.20 740.00 C 646.40 747.30 649.40 751.80 652.10 753.70 C 652.60 754.50 652.60 755.30 652.60 756.10 C 652.10 756.40 651.30 756.60 650.70 756.60 C 632.20 757.10 613.60 757.70 595.60 757.90 C 587.30 757.90 578.10 757.60 568.70 757.10 C 559.60 756.60 550.70 756.30 541.80 756.60 L 538.80 756.60 C 517.60 756.60 496.60 756.60 475.10 756.60 C 474.30 756.60 474.00 756.30 474.30 755.50 L 474.60 754.20 C 474.60 753.70 475.10 753.10 475.90 753.10 C 491.20 753.40 506.50 753.90 521.60 754.40 C 524.80 754.40 528.00 754.10 531.30 753.30 C 532.10 753.30 532.90 752.80 533.40 752.00 C 538.20 745.60 541.20 739.40 548.40 734.50 C 560.80 726.20 565.10 709.00 581.20 705.80 C 585.80 705.30 590.60 706.10 594.90 707.90 C 602.70 711.10 610.80 714.00 619.60 716.70 Z" fill="#928799" fill-rule="nonzero" node-id="186" stroke="none" target-height="52.600037" target-width="178.59998" target-x="474" target-y="705.3"></path><path d="M 745.00 755.10 L 743.70 754.60 C 743.40 754.60 743.20 754.10 743.20 753.80 L 743.20 753.80 C 743.70 752.70 743.70 752.50 743.20 753.00 C 753.40 739.30 768.40 730.20 785.10 726.90 C 799.90 723.90 806.00 732.50 815.70 740.90 C 817.00 742.00 818.90 742.00 820.00 740.60 C 833.70 726.90 844.40 742.20 849.50 754.00 C 849.80 754.50 849.50 755.10 849.00 755.10 L 848.70 755.10 L 745.00 755.10 Z" fill="#a5989f" fill-rule="nonzero" node-id="188" stroke="none" target-height="31.199951" target-width="106.599976" target-x="743.2" target-y="723.9"></path><path d="M 244.90 752.70 C 246.00 754.30 245.40 755.70 243.30 757.00 L 175.90 756.70 C 175.10 756.70 174.30 755.90 174.30 755.10 C 174.30 754.80 174.30 754.60 174.60 754.30 C 181.00 743.80 192.10 732.00 204.10 728.50 C 212.20 726.40 219.40 730.90 225.60 735.50 C 232.60 740.60 239.00 746.50 244.90 752.70 Z" fill="#928799" fill-rule="nonzero" node-id="190" stroke="none" target-height="30.599976" target-width="71.7" target-x="174.3" target-y="726.4"></path><path d="M 348.10 754.90 C 334.40 756.20 320.70 756.20 307.30 754.40 L 309.70 752.50 C 310.50 752.00 310.80 751.20 311.00 750.40 C 311.30 747.70 313.70 745.60 316.60 746.10 C 321.40 745.60 326.00 746.10 330.60 747.20 C 333.60 748.50 334.60 750.20 333.60 752.60 C 333.10 753.40 333.30 754.50 334.40 755.00 C 334.70 755.30 334.90 755.30 335.50 755.30 L 348.10 754.90 Z" fill="#f2a69a" fill-rule="nonzero" node-id="192" stroke="none" target-height="10.600037" target-width="40.80002" target-x="307.3" target-y="745.6"></path><path d="M 280.90 750.80 C 285.70 753.20 290.80 754.80 296.20 755.10 C 290.30 756.70 284.10 757.50 277.90 757.80 C 266.40 757.30 254.80 756.70 243.00 756.70 C 245.40 755.60 246.00 754.00 244.60 752.70 C 256.80 754.30 269.10 753.80 280.90 750.80 Z" fill="#edceca" fill-rule="nonzero" node-id="194" stroke="none" target-height="7" target-width="53.200012" target-x="243" target-y="750.8"></path><path d="M 743.40 752.70 C 743.90 752.20 743.70 752.40 743.40 753.50 C 743.10 753.80 743.40 754.30 743.70 754.60 L 743.70 754.60 L 745.00 755.10 C 737.70 756.40 730.50 756.70 723.20 756.40 L 707.10 755.90 L 652.60 755.90 C 652.60 755.10 652.30 754.30 652.10 753.50 L 743.40 752.70 Z" fill="#edceca" fill-rule="nonzero" node-id="196" stroke="none" target-height="4.5" target-width="92.900024" target-x="652.1" target-y="752.2"></path></svg>