<svg xml:space="preserve" style="enable-background:new 0 0 1024 1024;" viewBox="0 0 1024 1024" y="0px" x="0px" xmlns:xlink="http://www.w3.org/1999/xlink" xmlns="http://www.w3.org/2000/svg" id="图层_1" version="1.1">
<style type="text/css">
	.st0{fill:#FEE09C;}
	.st1{fill:#E0E9A6;}
	.st2{fill:#819765;}
	.st3{fill:#A9B77C;}
	.st4{fill:#4E8E66;}
	.st5{fill:#FFD9BF;}
	.st6{fill:#FEEBE5;}
	.st7{fill:#F6F7F9;}
	.st8{fill:#FDA567;}
	.st9{fill:#A7B9AC;}
	.st10{fill:#469DA7;}
	.st11{fill:#0C0809;}
	.st12{fill:#FEAF3A;}
	.st13{fill:#1D0E13;}
	.st14{fill:#0B0E1E;}
	.st15{fill:#4D3A6A;}
	.st16{fill:#4D1610;}
	.st17{fill:#FFC156;}
	.st18{fill:#278888;}
	.st19{fill:#2C0707;}
	.st20{fill:#185B84;}
	.st21{fill:#FFA246;}
	.st22{fill:#89A479;}
	.st23{fill:#FF8F53;}
	.st24{fill:#FFB15C;}
	.st25{fill:#FFBCA9;}
	.st26{fill:#FBB2B1;}
	.st27{fill:#F0D1CD;}
	.st28{fill:#F4C5A9;}
	.st29{fill:#FFA490;}
	.st30{fill:#FEF2E1;}
	.st31{fill:#706E6D;}
	.st32{fill:#FE6048;}
	.st33{fill:#EA372A;}
	.st34{fill:#515744;}
	.st35{fill:#6C906A;}
	.st36{fill:#CE9B79;}
	.st37{fill:#EAD3BE;}
	.st38{fill:#56795C;}
	.st39{fill:#B56967;}
	.st40{fill:#958A9C;}
	.st41{fill:#BAA4AB;}
	.st42{fill:#CE6E83;}
	.st43{fill:#7D434D;}
	.st44{fill:#C33935;}
</style>
<title>12</title>
<g>
	<path d="M630.2,344.6c-0.5-0.7-0.5-1.7-0.2-2.7c0.2-0.7-0.2-1.5-0.7-2c-0.2-0.2-0.7-0.5-1.2-0.2c-0.2,0.2-0.7,0-1-0.5
		v-0.2c0-0.7-0.2-1-0.7-1c-3-2-5.7-4.2-7.9-6.9c-0.5-0.5-1.2-0.7-1.7-0.2l0,0l-29.2,16.9c-5.9-6.9-12.6-13.4-19.8-19.1
		c-10.2-8.4-21.3-15.4-33.2-21.1l-21.3-7.4c-1.5-1.7-2.5-3.5-3-5.7c-0.2-0.5,0-1,0.5-1.5c2.2-1.5,2.7-4.5,1.5-6.7
		c0-0.2-0.2-0.2-0.2-0.5c-5.5-7.7-11.6-20.6,0.2-25.3c0.7-0.2,1.5-0.7,2-1.5c1.5-2,2.2-4.2,2.2-6.4c0-1,0.7-1.7,1.5-1.7
		c0.2,0,0.5,0,0.7,0c7.2,3,13.9,6.4,20.3,10.4c1.2,0.7,2.7,0.5,3.5-0.7c0.2-0.5,0.5-1,0.2-1.7c-0.5-2.5-0.2-5.2,0-7.9
		c0.2-1.2,1.7-2.2,3-1.7c0.2,0,0.2,0,0.5,0.2c13.1,7.4,23,23,29.5,36.7c0.5,1.2,2,2,3.2,1.5c0.2-0.2,0.7-0.2,1-0.5
		c2.2-2,3.7-4.7,6.2-6.4c7.4-6.2,14.6-12.4,21.8-18.8c1.5-1.5,3.2-2.5,5.2-3.5c2.2-1,4.7,0,5.7,2.2c0.2,0.2,0.2,0.7,0.2,1
		c0.7,4.2-0.2,8.7-2.5,12.1c-0.5,1-0.2,1.2,0.7,0.7l19.6-9.7c2.7-1.5,6.2-0.2,7.4,2.5c0.2,0.2,0.2,0.7,0.5,1c0.7,3,0,6.2-1.7,8.7
		c-0.5,1-0.2,2,0.7,2.7c0.2,0.2,0.5,0.2,1,0.2c2.7,0,5.5,1,7.7,2.7c0.7,0.5,1,1.2,1.2,2.2c0.2,3-0.2,6.2-1.5,8.9
		c-7.2,13.1-17.3,24.3-30,32.5c-0.7,0.5-1,1.5-0.5,2.2c0.2,0.2,0.2,0.5,0.5,0.5C627.4,331.5,630.9,337.9,630.2,344.6z" class="st0"></path>
	<path d="M425.7,254.9c-11.6,13.1-23,25.8-34.4,37.9c-2,2.7-3.5,5.7-4.5,8.9c-6.4-6.7-14.6-11.6-23.3-14.6
		c1-1.7,2.7-3.2,4.7-3.7c1-0.5,2-0.2,2.7,0.5c1,0.7,1.5,1.7,1.7,3c0.2,1,1.2,2,2.2,1.7c0.2,0,0.7-0.2,1-0.5
		c7.4-5.7,14.4-11.9,21.1-18.6c2-2,4.7-3.7,7.4-4.5c0.7-0.2,1.5-0.7,2-1.2c3-3.7,6.4-7.2,10.4-9.9
		C419.5,251.2,422.7,251.7,425.7,254.9z" class="st1"></path>
	<path d="M425.7,254.9c6.4,6.4,12.1,13.9,16.4,22.1c1.2,6.2,3,12.4,5.2,18.3c0.7,1.7,1.2,3.7,1.2,5.7
		c-0.7,4.2-2.2,4.5-4.2,0.7c-2.5-4.5-5.7-8.7-9.4-12.1c-2.5-2.2-4.2-5-5.5-7.9c-1-2.2-3.5-3-5.7-2c-0.2,0.2-0.5,0.2-0.7,0.5
		c-1,0.5-2,0.7-3,0.5c-0.7,0-1.5,0.2-2.2,0.7c-6.7,5.7-13.9,10.9-20.8,16.1c-3.2,2.2-5.9,5-8.4,7.9c-2,2.5-3,2.2-3.2-1
		c0-0.5,0.5-1.2,1.5-2c1-3.2,2.2-6.2,4.5-8.9C402.7,280.7,414.1,268,425.7,254.9z" class="st2"></path>
	<path d="M512.5,299.7l21.3,7.4c-0.7,0-1.5,0-2.2,0.2c-1.7,0.5-1.7,1,0,2c4,2,7.7,4.5,10.9,7.4c4,3.7,8.9,8.7,14.6,15.1
		c4.7,5.2,8.7,11.2,12.1,17.1c6.2,10.7,11.4,21.6,15.6,33.2c5,14.9,8.9,30.2,12.1,45.6c0,0.5,0.5,0.7,1,1c0.2,0,0.7,0.2,0.7,0.7
		l3.7,17.1c-0.2,4.5-0.7,8.9-0.7,13.4c0,0.2,0,0.2-0.2,0.2l0,0c-0.2,0-0.2,0-0.2-0.2c0-2.5,0-4.7,0-7.2c0-0.5-0.5-1.2-1-1.2l0,0
		c-0.5,0-1-0.5-0.7-1c0,0,0,0,0-0.2c0.2-0.5,0-1-0.5-1.2l0,0c0.2,9.4,0.5,18.6,1,27.8c2.2,7.7,3.2,15.6,3.5,23.8
		c0.2,2.7,1.5,5.2,3.5,7.2c0.5,0.5,0.7,1.2,0.7,2c-0.2,1.5,0,3,0.5,4.2s0.7,2.7,0.7,4.2c-0.5,1.5-1,3-2,4.2c-1.5,1.5-3,2.5-4.7,3.5
		c-1.2,0.5-2,1.5-2,2.7c0,0.7,0.2,1.5,1,1.7c0.5,0.2,0.7,0.5,1,1c0.5,1,0.2,1.5-0.7,1.7l-2,0.5c-0.7,0.2-1.2,0.5-1.5,1.2
		c-3.5,6.4-3.5,14.1-0.2,20.8c-2.2,2.2-4.2,5-5.5,7.9c-3.5,7.2-0.5,15.1,4.2,20.8c1,1,1,2.2,0.5,3.5c-1.5,3.2-4.5,5.7-7.9,6.7
		c-11.4,3.2-22.3,5.9-33,7.9c-4.7,0.5-9.2,0.7-13.9,0.7c-0.7,0-1.2,0.5-1.5,1.2l-0.5,2.2c-3-20.3-8.2-39.2-21.1-53
		c-9.7-10.7-20.1-11.9-36.2-13.9c-47.3-6.4-96.9-5.5-144.7-1.2c-11.6,1-23.3,2.7-34.7,5.5c-17.3,4.2-25.8,15.1-33.2,30.2
		c-0.5-2.7-0.5-5.5,0.2-7.9c0.5-2.7-1.2-5.2-4-5.7c0,0,0,0-0.2,0c-12.6-1.7-25.3-1.5-37.9,0.5c-1.7,0.2-3.5,0.2-5.2,0
		c-1.7-0.2-3.5-0.7-5-1c-0.5-0.2-1-0.5-1.2-1.2l-0.7-2.5c-0.2-0.7-0.7-1.2-1.5-1c-0.2,0-0.7,0.2-1,0.5c0.2-10.4,2-21.1,5.5-31
		c3.2-8.4,10.7-7.2,17.3-3.7c9.2,4.5,18.1,8.7,27,12.9c0.5,0.2,1.2,0,1.5-0.5s0.2-1.2-0.2-1.5c-12.6-8.4-29.5-25.3-33.7-39.7
		c-1.2-4.2-1.5-8.9-0.2-13.4c8.7-8.4,15.9-18.3,21.1-29.2l-0.7,7.7c0,0.5,0.2,1,0.7,0.7c0.2,0,0.5-0.2,0.7-0.5c-0.2,1-1,1.7-1.7,2.2
		c-0.2,0-0.5,0-0.7,0c-0.2,0-0.5-0.2-0.7-0.5c-0.2-0.5-0.2-0.5-0.2,0c-0.2,7.4-3.5,13.1-3.2,21.8c0,3,1.7,5.2,2,8.4
		c0,0.7,0.2,1.5,1,2.2c4.7,5.9,12.1,9.4,19.8,8.9c3.2,0,8.9-1.7,17.3-5.2c2.5-1,5-2.2,7.2-3.7c4.2-2.7,5.9-7.4,8.4-11.9
		c1-2,1.7-4,2-5.9c0.5-2.2,1-4.2,1.7-6.4c0.2-0.7,0.2-1.5,0-2.2l-2.2-4.7c3-1,5.9-1.5,8.9-1.7c3.2-0.5,6.2-2,8.2-4.5
		c3.5-3,5.7-6.9,6.7-11.4c2.7-5.9,4-12.6,3.5-19.3c7.7-3.5,8.2-9.7,1.2-18.8c1-5-1-10.2-5.2-12.9c-6.4-4.7-16.1-3.2-22.3,1.2
		c-14.4,10.2-22.3,32.7-22.6,50.1c-0.7,3.5-0.7,7.2,0,10.9c-4-2.7-8.9-3.7-13.4-2.7c-0.7,0.2-1.5,0.7-2,1.2c-1,1.5-2.7,2.5-4.7,2
		l0.7-15.4c0.2-6.2-1-6.4-4-1l-5.7,10.7c-0.5-8.4,1-16.9,4.2-24.8c3.7-8.9,5.5-13.4,5.5-13.4c3.2-9.9,6.9-19.6,11.2-29.2
		c10.7-22.6,26.3-42.6,45.8-58.2c5.9-4.5,11.2-9.4,16.1-14.9c3-1.5,5.9-3,8.9-4.7c7.2-4.2,12.9-10.4,19.8-15.9
		c8.9,3,16.9,7.9,23.3,14.6c-1,1-1.5,1.5-1.5,2c0,3.2,1.2,3.7,3.2,1c2.5-3,5.5-5.7,8.4-7.9c7.2-5.2,14.1-10.7,20.8-16.1
		c0.5-0.5,1.5-0.7,2.2-0.7c1,0.2,2,0,3-0.5c2-1.5,4.7-1,5.9,1c0.2,0.2,0.2,0.5,0.5,0.7c1.2,3,3.2,5.7,5.5,7.9
		c3.7,3.5,6.9,7.7,9.4,12.1c2,3.7,3.5,3.5,4.2-0.7c0-2-0.5-4-1.2-5.7c-2.2-5.9-4-12.1-5.2-18.3c8.9-0.2,17.6-2.2,25.8-5.9
		c2.2-1,4.7-0.5,6.2,1.2c5.7,6.4,10.9,13.6,15.4,21.1c1.2,2.2,3,3.7,5.2,4.7C500.8,299.2,506.5,300,512.5,299.7z M499.1,401.8
		c-6.4,5-8.4,11.2-5.9,18.3c-2.5,8.9-2.2,18.6,0.5,27.5c2.2,5.9,6.4,10.9,12.1,13.6c-2,3-2.7,6.7-2,10.4c0.5,2.2,0.7,4.7,1,7.2
		c0.2,2.2,0.7,4.7,1.5,6.7c1,2.5,2,4.7,3,6.9c0.2,1,1.2,1.7,2.2,2c0.7,0,1.5,0.5,2,1c1,1,2,2,3,2.7c1.2,1,2.2,2,3,3.2
		c2,2.2,4.5,4,7.2,5.2c5.5,2.5,11.4,4,17.3,4.5c5.5,0.5,10.9-0.7,15.9-3.7c5.5-3.5,10.7-7.9,14.9-12.9c2.2-2.7,3.2-6.2,3-9.7
		c0-7.9-1.7-15.9-5.2-23c-1-5.9-2.2-12.9-3.7-21.1c-0.5-2-2.2-3.5-4.5-3c-0.5,0-1,1.5-1.2,4.5c-1.7,3-5.2,4.2-10.9,3.5
		c-0.7,0-1.5,0.2-2.2,0.7c-2,1.7-4.5,3-6.9,3.7c1-7.9,1-16.1,0-24c-2-13.6-11.2-29.2-24.5-33.5C511,390.4,504.3,393.4,499.1,401.8z
		 M447.8,483.9c-3,0-5.9,1.2-8.4,3c-0.7,0.5-1.5,0.7-2.5,0.7c-9.9-0.5-19.3-0.5-29.7-1.7c-16.9-2-28,0.2-47.3,4
		c-9.7,2-14.4-4-22.6-6.4c-0.5-0.2-1.2,0-1.2,0.7c0,0.2,0,0.5,0,0.7l0.2,0.7c0.2,1,1,1.7,2,2.2c4.7,2,9.4,3.5,14.1,4.7
		c3.7,0.7,7.4,0.7,11.2-0.5c13.6-4,27.8-5.2,41.9-3.7c7.7,1,15.4,1.2,23,1c8.2-0.5,16.1-1.5,24.3-3c1.7-0.2,3-1.7,3-3.5
		c0.2-0.5-0.2-1.2-1-1.2c-0.2,0-0.2,0-0.5,0c-1.5,0-2.7,0.5-3.7,1.5C449.5,483.6,448.8,483.9,447.8,483.9z M224.7,543.1
		c-0.2,2.7,2,5.2,4.7,5.2c0.5,0,1.2,0,1.7-0.2l3.5-1.2c1.2-0.5,2.2-1.2,2.7-2.5l1.2-2.5c1.2-2.2,0.2-5.2-2-6.4l-4.2-2.2
		c-2.5-1.2-5.5-0.2-6.7,2.2c-0.2,0.5-0.5,1-0.5,1.7L224.7,543.1z" class="st3"></path>
	<path d="M533.8,307.2c11.9,5.7,23,12.9,33.2,21.1c7.2,5.7,13.9,11.9,19.8,19.1l21.6,27.5c0.2,1.5,1,3,2,4.2
		c2,5.5,4.2,10.9,6.7,16.1c1,2,3.2,6.7,6.7,14.6c2.2,5,5.2,9.7,8.9,13.6c1.7,2,2.7,1.5,3-1c1-17.8-0.7-35.7-5.2-52.8l-3-27
		c0-0.2,0-0.2,0.2-0.2l0,0l0.7,0.2c0.2,0,0.5,0.2,0.5,0.5l0.7,4.7c0.2,1,0.2,1,0.5,0c0.2-0.5,0.2-1.2,0.2-1.7l3.2,19.1
		c0.5,2.7,1.7,7.9,3.7,15.6c2.7,10.7,3.5,21.6,2.7,32.5l-1.7,25c0.2,11.6-2,23-6.7,33.7l-10.2,6.7c-2,1.2-3,3.7-2,5.7
		c3.5,10.2,7.7,20.3,12.1,30.2c4.2,8.9,7.2,18.3,8.9,28.3c0.2,1.7,1.5,3.2,3,4l8.4,4c9.4,4,15.9,8.9,18.8,19.1
		c2.5,7.9,3.5,11.9,10.9,18.6c3.5,3.5,5.2,8.4,5.5,13.1l-4,11.4c-12.9-8.7-24.3-19.1-34-31.2c-2.2-2.7-3.5-2.5-3.7,1.2
		c-1,12.6-6.4,27.5-16.1,35.7c-9.7,8.2-22.8,13.6-34.4,9.7c-5.9-2.2-7.4-4.7-4.5-7.7c2.2,2.5,4,4.5,7.7,3.5c2.7-0.7,5.5-2,7.7-3.5
		l7.9,1.5c1,0.2,1.7,0,2.5-0.7c4.2-3.7,9.9-5.7,13.9-9.7c8.7-8.7,11.6-20.3,8.9-34.7c2-6.2-0.5-13.4-7.2-21.3
		c0.2-0.2,0.5-0.7,0.7-1.2c0.2-0.5,0.5-1.2,1-1.5c1.5-1.7,1.7-4.2,0.5-6.2c-1-3-1.7-6.2-2-9.4c-0.7-5-3-9.4-6.4-12.9
		c-5-5.2-11.4-6.2-19.1-2.5c1-1.2,1.5-2.7,2-4.2c0-1.5-0.2-3-0.7-4.2c-0.5-1.2-0.5-2.7-0.5-4.2c0-0.7-0.2-1.5-0.7-2
		c-2-2-3.2-4.5-3.5-7.2c0-7.9-1.2-15.9-3.5-23.8c0.2-2.5,0.5-5,0.7-7.2c0.2-2.5,0.7-4.7,1.7-7.2c1.7-5.2,1.7-10.7,0.5-15.9
		l-3.7-17.1c0-0.2-0.2-0.7-0.7-0.7c-0.5,0-0.7-0.5-1-1c-3.2-15.4-7.2-30.7-12.1-45.6c-4.2-11.4-9.7-22.6-15.9-33
		c-3.5-6.2-7.4-11.9-12.1-17.1c-5.7-6.2-10.4-11.4-14.6-15.1c-3.2-3-6.9-5.5-10.9-7.4c-1.7-0.7-1.7-1.5,0-2
		C532.3,307.4,533,307.2,533.8,307.2z M622,473.2c5-4.5,7.7-5.7,8.7-13.1c1.2-8.2,2.7-17.1,4.2-26.5c0.5-2.2-0.2-4.7-2-6.4
		L621.2,415c-0.5-0.5-1.5-0.5-2,0c-0.2,0.2-0.2,0.5-0.5,0.7c-1.2,6.2-1.7,12.6-1.5,18.8c0.5,11.2,1.2,22.6,2.2,34.4
		c0,1.2,0.2,2.7,1,4C620.7,473.5,621.2,473.7,622,473.2z" class="st4"></path>
	<path d="M334.8,307.7c-5,5.5-10.4,10.4-16.1,14.9c-19.6,15.6-35.2,35.7-45.8,58.2c-4.2,9.4-7.9,19.3-11.2,29.2
		c0,0-1.7,4.5-5.5,13.4c-3.2,7.9-4.7,16.4-4.2,24.8c-0.5,1.7-0.7,2-0.7,0.7c-5.2,10.9-12.4,20.8-21.1,29.2
		c3-14.4,8.7-28.3,16.4-40.6c1.5-2.2,1.5-5.5,3.5-6.9c1-0.7,1.5-1.7,1.5-3c0.2-1.7,0.7-3.7,1.5-5.5c0.7-1.5,1.2-3.2,1.5-5
		c0.7-6.2,2-12.1,4-17.8c2.7-7.2,5.9-14.1,8.9-20.6c1.5-3.2,2.7-6.4,3.7-9.9c1.2-2.5,2.7-5,4.7-6.9c0.5-0.5,0.7-1.2,0.7-2
		c0-0.7,0.5-1.5,0.7-2c4-5.9,8.2-11.6,12.4-17.3C301.8,325.8,317.2,314.4,334.8,307.7z" class="st1"></path>
	<path d="M181.6,379.5c0-1.7-1.5-3.2-3.2-3.2c1.7,0.2,3.5-0.7,4-2.5c5.2-10.2,9.2-21.1,11.6-32.2c1.2-8.4,0.5-16.9-2-25
		c-1.2-4,0.2-6.2,4-6.9c0.7-0.2,1.5,0,2.2,0.5c5.9,3.7,9.2,10.7,7.4,17.6c-1.7,11.9-5.5,23.8-10.7,34.7c-1.5,3.2-3.5,6.2-5.9,8.9
		C186.6,374.3,184.1,377.1,181.6,379.5z" class="st5"></path>
	<path d="M167.7,346.6c-14.1-0.5-25-29.2-3.7-29.7c9.2-0.2,15.1,4.7,17.8,14.6c1.2,4.5-3.7,9.4-7.7,12.6
		C172.4,345.6,170.2,346.6,167.7,346.6z" class="st0"></path>
	<path d="M788.3,473.7c-3.7-3-10.4-3.7-11.6,2.7c0,0.7-0.7,1.5-1.5,1.5l-3.2,0.2c-0.7-2-2-3.7-3.2-5.5
		c-1-2-3.5-2.7-5.5-2c-1.2,0.5-2.2,1.2-3,2.2c-2.2,3.7-5.7,4.2-10.7,1.7c-6.4-3.5-2-11.4,0-16.1c0.7-1.7,0.2-3.5-1.2-4.5
		c-1.7-1-3.5-1.5-5.5-1.5c-0.7,0-1.5,0.2-2.2,0.7c-1.5,1.2-3.2,2-5.2,2.5c-1.5,0.2-2.2-0.2-2.2-1.7c-0.2-3.5-2-4.5-5.5-3
		c-5,2.7-10.9,3-16.1,0.7c-1-0.2-1.5-1.2-1.2-2.2l3.5-18.8c0-0.2,0-0.5-0.2-0.5h-0.2c-4.7,3.5-10.2,5.7-16.1,6.2
		c-1.5,0.2-2.7-0.7-3-2c-1.5-5-4-9.4-6.7-13.6c-0.5-0.7-1-1-1.7-1.2l-8.9-2c-0.7,0-1.2-0.7-1.2-1.5l0,0c0.2-3-0.2-6.2-1.5-8.9
		c-0.2-0.7-1-1-1.5-0.7c0,0,0,0-0.2,0c-4,1.2-7.9,2-11.9,2.2c-2.5,0.2-4.7,1.5-6.4,3c-0.7,0.5-2,0.5-2.7,0c-2.7-1.7-5.2-0.7-7.7,3
		c-0.2,0.5-1,0.7-1.5,0.7c-1.2-0.2-2-1-2.2-2.2c0.7-10.9,0-21.8-2.7-32.5c-2-7.7-3.2-12.6-3.7-15.6c2.2,1.5,4,1.7,5.2,1
		c2-1,4-1.7,6.2-2c3-0.5,5.2-3.2,5.2-6.2c-0.2-3.5,2-6.4,5.2-7.2c4-1,7.4-3.7,9.7-7.2c3.2-4.7,7.4-8.7,12.1-11.9
		c6.7-4.7,14.1-8.4,22.1-10.9c1.2-0.5,2.7,0.2,3.2,1.5c0,0.2,0.2,0.5,0.2,0.7c0.7,9.9-1,22.1,1.7,31.5c0.2,1,1,1.7,1.7,2l5,2.2
		c0.5,0.2,1.2,0.7,1.5,1.2c0.7,1,1.7,1.5,2.7,1.7c2.7,0.2,4.7,2.2,5,5c0,1.5-0.2,3-1.2,4c-5.9,8.9-13.1,16.9-21.6,23.3
		c-0.5,0.5-1,1-1.2,1.7c-0.7,2-0.2,4.5,1,6.2c0.5,0.5,1.2,1,2,1c2,0.2,4,1.2,5.2,2.7c0.5,0.7,1.5,1.2,2.2,1.2l8.7,1.2
		c1,0.2,1.7,0,2.5-0.5c1.7-1.2,3-3,3.5-5c0.2-0.7,0.7-1.5,1.2-2c2.2-1.7,5.2-2.5,7.9-1.7c1.2,0.5,2.5,1,3.7,2c1.2,1,2.2,1.7,3.7,2.2
		c2.2,1.2,5.2,1.2,7.2-0.5c0.7-0.5,1.5-0.7,2.2-1c2.7-0.5,5.2-0.5,7.9-0.5c2.7,0,5.5-0.2,7.9-0.7c3-0.7,5.9-1,9.2-1.5
		c4.5-0.5,7.9,1.2,11.9,2.2c1.2,0.2,2,1.5,1.5,2.5c0,0.2-0.2,0.5-0.5,0.7c-2.7,3.5-5.7,6.9-8.7,10.2c-1,1-1.7,2.2-2,3.7
		c-0.7,2,0.2,4,2,5c0.5,0.5,1.2,1,1.5,1.5c1,2,2.5,3.5,4.2,4.7c0.7,0.5,1.2,1,1.5,2l1.7,4c0.2,0.7,1,1.2,1.7,1h0.2
		c3.5-1.5,7.4-0.2,9.4,2.7c2.2,2.7,1.7,6.7-1,8.7c-0.2,0.2-0.2,0.2-0.5,0.2c-3.2,2-7.2,2.2-11.9,0.2c-0.7-0.2-1.7-0.2-2.5,0
		c-3.2,1.2-5.5,4.2-5.7,7.7c-0.2,1,0.2,2,1,2.5l3,2.2c0.5,0.5,1.2,1,1.5,1.7L788.3,473.7z M797.2,444.2l-2.2-5.5
		c-0.5-1-1.7-1.5-2.7-1.2H792c-5.2,2.2-8.4,5.7-7.4,8.2l0.2,0.5c1,2.5,5.9,2.7,11.2,0.5l0.2-0.2
		C797.2,446.4,797.7,445.2,797.2,444.2L797.2,444.2z" class="st6"></path>
	<path d="M626,337.9c-0.7,1.5-2,3-3.5,4c-0.7,0.5-1,1.2-1.2,2c-0.5,2.2-1.5,4.5-2.5,6.7c-1,2-1.7,4.2-2.2,6.4
		c-0.2,2.2-0.7,4.5-1.2,6.7c-0.2,0.7-0.7,1.5-1.2,2c-3,2.5-5,5.7-5.5,9.4L587,347.6l29.2-16.9c0.5-0.5,1.5-0.2,1.7,0.2l0,0
		C620.3,333.7,623,335.9,626,337.9z" class="st7"></path>
	<path d="M178.4,376.6c1.7,0,3.2,1.5,3.2,3.2c4.5,7.7,8.4,15.1,12.1,22.3c1.5,2.2,2.2,4.7,2.7,7.4
		c0,5.2-1.5,5.7-4.2,1.2c-5.5-8.4-10.2-17.3-14.4-26.5c-0.2-0.7-1.2-1.2-2-1c-10.2,3.7-21.6,2.2-30.2-4.2
		c-7.2-5-18.3-13.9-19.1-23.3c-0.7-9.7,3.2-17.6,11.9-23.5c1.7-1.2,4.2-0.7,5.5,1c0,0,0,0,0,0.2c6.9,11.6,13.6,23.3,20.1,35.2
		C166.7,373.8,171.5,376.6,178.4,376.6z" class="st8"></path>
	<path d="M626,337.9c0.2,0,0.5,0.2,0.7,1c0,0.2,0.2,0.7,0.7,0.7h0.2c0.5-0.2,1,0,1.2,0.2c0.7,0.5,1,1.2,0.7,2
		c-0.2,1,0,2,0.2,2.7c0.2,0.5,0.5,1,0.2,1.5c0,0.5,0,1.2-0.2,1.7c-0.2,1-0.5,1-0.5,0l-0.7-4.7c0-0.2-0.2-0.5-0.5-0.5l-0.7-0.2
		c-0.2,0-0.2,0-0.2,0.2l0,0l3,27c-0.2,0.5-1,0.7-1.5,1c-0.5,0-1-0.2-1.5-0.2c-1.2-0.2-2.7-0.2-3.7,0.2c-5,2-9.4,5-13.1,8.7
		c-1-1.2-1.7-2.7-2-4.2c0.7-3.7,2.7-7.2,5.5-9.4c0.7-0.5,1-1.2,1.2-2c0.5-2.2,1-4.5,1.2-6.7c0.2-2.2,1-4.5,2.2-6.4
		c1-2,2-4.2,2.5-6.7c0.2-0.7,0.5-1.5,1.2-2C624,340.6,625.2,339.4,626,337.9z" class="st9"></path>
	<path d="M630.7,369.4c4.5,17.3,6.2,35.2,5.2,52.8c0,2.7-1,3-3,1c-3.7-4-6.7-8.7-8.9-13.6c-3.5-7.7-5.7-12.6-6.7-14.6
		c-2.7-5.2-5-10.7-6.7-16.1c3.7-3.7,8.2-6.7,13.1-8.7c1.2-0.5,2.5-0.7,3.7-0.2c0.5,0.2,1,0.2,1.5,0.2
		C629.7,370.4,630.2,370.1,630.7,369.4z" class="st10"></path>
	<path d="M331.3,404.3c-9.7-10.4-19.6-9.9-29.7,1c-1.7,2-1.5,4.7,0.2,6.4c0.2,0.2,0.5,0.5,0.7,0.5c3,1.7,4.7,5,4.7,8.4
		l-0.2,2.5c-3.7,2-7.7,3-11.6,3.5c-4,0.2-7.7,2.7-8.9,6.7c-1,1.5-1.5,3.2-1.5,5c-0.5,2-1.2,3.7-2.2,5.5c-0.5,0.7-1,0.2-1.7-1.2
		c0.2-17.1,8.2-39.7,22.6-50.1c6.2-4.5,15.9-5.9,22.3-1.2C330.3,394.2,332.5,399.4,331.3,404.3z" class="st11"></path>
	<path d="M543.4,450.4c-0.7,2.7-2.2,5.2-4.5,7.2c-1-0.2-1.5-1-1.2-2c1.2-1.5,2-3.2,2.2-5.2l-0.2-11.9
		c-0.2-2-1.2-4-2.7-5.2c-2-1.2-4.2-2.7-6.4-4.2c-0.7-0.5-1.5-0.7-2.2-0.5c-4,0.5-7.7,1.5-11.4,2.7c-5.2,2-10.4,3.5-15.6,5
		c-0.7,0.2-1.5,0.7-1.7,1.5c-1.2,2.5-2,5.2-1.7,7.7c0,0.7-0.2,1.5-1,2c-0.5,0.7-1.7,0.7-2.5,0.2l-0.2-0.2c-2.7-8.9-3-18.3-0.5-27.5
		c1.5-0.2,3,0.2,4,1c6.7,5.9,16.1,7.2,24,3.2c4.5-1.7,7.4-5.7,8.2-10.4c1-5.9-6.9-12.4-12.1-13.4c-3.7-0.7-9.9-0.2-18.3,1.5
		c5.2-8.4,11.9-11.4,19.8-8.9c13.4,4.2,22.6,19.8,24.5,33.5C544.4,434.3,544.4,442.5,543.4,450.4z" class="st11"></path>
	<path d="M331.3,404.3c7.2,9.2,6.7,15.4-1.2,18.8c-9.4,4.7-17.1,4-22.8-2.5c0-3.5-1.7-6.7-4.7-8.4c-2.2-1.2-3-4-1.5-6.2
		c0.2-0.2,0.2-0.5,0.5-0.7C311.7,394.4,321.6,393.9,331.3,404.3z" class="st7"></path>
	<path d="M493.1,420.2c-2.5-7.2-0.5-13.4,5.9-18.3c8.4-1.7,14.4-2.2,18.3-1.5c5,1,12.9,7.7,12.1,13.4
		c-0.7,4.7-3.7,8.7-8.2,10.4c-7.9,4-17.6,2.7-24-3.2C496.1,420.4,494.6,419.9,493.1,420.2z" class="st7"></path>
	<path d="M771.9,477.9c2.5,2.7,3.7,6.2,3.7,9.9c-6.9,0.5-12.9,0-19.6,2c-8.2,2.2-16.6,4.2-25.3,5.9
		c-1-0.7-1.7-1.7-2.2-3c0.5-3-0.7-5.7-2.7-7.7c-5.5-5-10.7-6.2-15.9-3.5c-1.5,0.5-2-0.7-1.2-4.2c0.2-0.7,0-1.5-0.2-2.2
		c-1.5-2.7-3.5-5.2-5.9-6.9c-2.7-2-6.4-2-9.9-3.7c-0.7-0.5-1.2-1-1.5-1.7c-3.2-6.4-13.9-9.2-20.3-9.7c-0.7,0-1.5,0-2.2,0.5
		c-6.7,3.5-9.7-3.5-12.9-7.7c-3.2-4.2-7.9-5.2-12.6-7.4c-0.7-0.2-1.2-0.7-1.2-1.5c0-0.5-0.2-0.7-0.7-1c-0.7-0.5-1.2-0.2-1.2,0.7
		c0,1.5-0.5,2.2-1.5,1.7l1.5-25.3c0.2,1.2,1,2,2.2,2.2c0.5,0,1.2-0.2,1.5-0.7c2.2-3.7,5-4.7,7.7-3c0.7,0.5,2,0.5,2.7,0
		c1.7-1.7,4-2.7,6.4-3c4-0.2,8.2-1,11.9-2.2c0.7-0.2,1.5,0,1.7,0.7c0,0,0,0,0,0.2c1.2,2.7,1.7,5.9,1.5,8.9c-0.2,0.7,0.2,1.5,1,1.5
		l0,0l8.9,2c0.7,0.2,1.5,0.5,1.7,1.2c3,4.2,5.2,8.7,6.7,13.6c0.2,1.5,1.7,2.2,3,2c5.7-0.5,11.4-2.7,16.1-6.2c0.2-0.2,0.5,0,0.5,0
		v0.2l-3.5,18.8c-0.2,1,0.2,2,1.2,2.2c5.2,2.2,11.2,2,16.1-0.7c3.2-1.5,5-0.7,5.5,3c0,1.5,1,2,2.2,1.7c2-0.5,3.7-1.2,5.2-2.5
		c0.7-0.5,1.5-0.7,2.2-0.7c2,0,3.7,0.5,5.5,1.5c1.5,1,2,3,1.2,4.5c-2,4.7-6.2,12.6,0,16.1c4.7,2.5,8.2,2,10.7-1.7c0.7-1,1.7-2,3-2.2
		c2-0.7,4.5,0,5.5,2C769.9,474.2,770.9,476.2,771.9,477.9z" class="st12"></path>
	<path d="M630.7,460.1c-1.2,7.4-3.7,8.7-8.7,13.1c-0.7,0.5-1.2,0.5-1.5-0.2c-0.5-1.2-1-2.5-1-3.7
		c-1-11.9-1.7-23.5-2.2-34.4c-0.2-6.4,0.2-12.6,1.5-18.8c0.2-0.7,1-1.2,1.7-1.2c0.2,0,0.5,0.2,0.7,0.5l11.6,12.1
		c1.7,1.7,2.5,4,2,6.4C633.4,443,631.9,451.6,630.7,460.1z" class="st3"></path>
	<path d="M307.5,420.7c5.7,6.4,13.4,7.2,22.8,2.5c0.5,6.7-0.7,13.1-3.5,19.3c-1,1.5-2,2-3,1.7c-0.7-0.2-1.2-1-1.2-1.7
		c0.2-2.7,0-5.5-0.7-8.2c-0.2-0.7-0.7-1.5-1.5-1.7c-3-1.7-6.2-3-9.7-3.5c-5.9-0.5-12.1-0.5-18.1-0.2c-0.2,0-0.2,0-0.2-0.2
		c0,0,0-0.2,0.2-0.2l0,0l7.9-0.2c0.7,0,1.2-0.2,1.7-0.5l5.2-3.2c0.2,0,0.2-0.2,0.2-0.2l0,0l-0.2-0.5L307.5,420.7z" class="st13"></path>
	<path d="M307.3,423.4l0.2,0.5c0,0.2,0,0.2,0,0.5l0,0l-5.2,3.2c-0.5,0.2-1.2,0.5-1.7,0.5l-7.9,0.2c0,0-0.2,0-0.2,0.2
		l0,0c0,0.2,0.2,0.2,0.2,0.2c5.9-0.2,12.1-0.2,18.1,0.2c3.5,0.5,6.7,1.7,9.7,3.5c0.7,0.2,1.2,1,1.5,1.7c0.7,2.7,1,5.5,0.7,8.2
		c0,0.7,0.2,1.5,1.2,1.7c1,0.5,2-0.2,3-1.7c-1,4.5-3.5,8.4-6.7,11.4c-6.2-0.2-7.7-2.7-4.7-7.4c1.2,0.2,1.7-2.5,1.2-8.4
		c0-1-0.7-1.5-1.5-1.7l-28.3-3.2c1.2-3.7,5-6.4,8.9-6.7C299.6,426.4,303.5,425.1,307.3,423.4z" class="st14"></path>
	<path d="M539.5,438.5c-6.9-1.7-14.1-2-21.1-0.5c-1.7,0.2-1.7,0.5,0,0.7l2.2,0.2l-15.6,0.5c-2.5,0-4.5,1.7-5,4
		c-1.5,7.4,1.5,12.4,8.7,15.4c5.7,2.5,12.1,3.5,18.3,3c4-1,7.7-3.2,10.4-6.2c-0.2,1,0.2,1.5,1.2,2c-8.9,9.2-21.8,7.4-33.2,3.7
		c-5.7-2.7-10.2-7.7-12.1-13.6c0.5,0.7,1.7,0.7,2.5,0.2l0.2-0.2c0.5-0.5,1-1.2,1-2c0-2.7,0.5-5.5,1.7-7.7c0.2-0.7,1-1.2,1.7-1.5
		c5.5-1.5,10.7-3,15.6-5c3.7-1.5,7.4-2.2,11.4-2.7c0.7,0,1.5,0,2.2,0.5c2.2,1.5,4.5,3,6.4,4.2C538,434.5,539.2,436.5,539.5,438.5z" class="st14"></path>
	<path d="M286.7,433.3l28.3,3c1,0,1.5,0.7,1.5,1.7c0.5,5.9,0,8.9-1.2,8.4l-0.2-3.7c0-0.2,0-0.2,0.2,0
		c0.5,1.2-0.5,3.2-3,5.9c1.7-5.7,1-8.2-2.2-7.9c-0.5-1-1.5-1.7-2.7-2c-7.4-1-14.9-1.2-22.1-0.5C285.2,436.5,285.7,434.8,286.7,433.3
		z" class="st15"></path>
	<path d="M261.2,454.1l-9.2,3.2c-0.2,0.2-0.5,0.5-0.7,0.5c-0.5,0-0.7-0.2-0.7-0.7l0.7-7.7c0.2,1.2,0.5,1,0.7-0.7
		l5.7-10.7c3-5.5,4.2-5,4,1L261.2,454.1z" class="st16"></path>
	<path d="M710,481.4l-13.4,21.1c-0.5,0.7-0.7,1.7-0.2,2.5l4,10.7c0.5,1.2,2,2,3.2,1.2c0.2,0,0.5-0.2,0.7-0.5l24.3-23.8
		c0.5,1.2,1.2,2.2,2.2,3c-8.4,5.7-13.6,9.9-15.6,12.6c-11.6,15.9-20.3,38.4-15.9,58.2c0.2,0.7,0.7,1.5,1.5,2l6.2,3.7
		c0.7,0.5,1.5,0.5,2.2,0.2c1-0.2,1.7-1.2,1.5-2.2v-0.2c0.7,1,2,1.7,3.2,1.2l3.7,9.9c0.7,2-0.2,4-2,4.7l0,0c-5.2,2-10.9,1.7-16.1-0.5
		c-1-0.5-2.2-0.2-3,0.7c-1.7,2.2-3,4.7-3.7,7.4c-0.2,0.7,0,1.5,0.7,2.2c1.2,1,2.7,1.7,4.5,2.2l-10.2-3.2c-0.7-0.2-1.2-0.7-1.5-1.7
		c-0.2-2.5-0.2-5.2,0.2-7.7c0.2-1-0.2-2-1.2-2.2c-0.7-0.2-1.2,0-1.5,0.7c0,2-1,3.7-2.5,5c-7.4-6.7-8.2-10.9-10.9-18.6
		c-3.2-9.9-9.4-14.9-18.8-19.1c1.7-5,4-10.2,6.2-14.9c2-3.2,1.2-7.2-1.5-9.7c-1.5-1.2-1.5-3.5-0.5-5c3.2-5.2,6.9-9.9,10.9-14.6
		c3.7-4.2,5-9.9,11.2-11.4c4-1,4.2-2.5,0.5-4.7c-3-1.7-5.9-3.7-8.7-5.9c-3.7-3-5-2.2-4,2.5c1.7,7.4-7.9,10.2-13.4,11.2
		c-1,0-1.7-0.2-2.5-1c-3-3.5-6.2-6.9-9.7-9.9c-2.5-2.7-4.5-5.7-5.9-8.9c-0.2-0.7-1-1.2-1.7-1.5c-2.2-0.7-2.5-2.5-1-5
		c4.5-10.7,6.7-22.1,6.7-33.7c1,0.5,1.5-0.2,1.5-1.7c0-1,0.2-1.2,1.2-0.7c0.2,0.2,0.5,0.7,0.7,1c0.2,0.7,0.7,1.2,1.2,1.5
		c4.7,2.2,9.2,3,12.6,7.4s6.4,11.2,12.9,7.7c0.7-0.5,1.5-0.5,2.2-0.5c6.4,0.5,17.3,3.2,20.3,9.7c0.2,0.7,1,1.2,1.5,1.7
		c3.2,2,7.2,1.7,9.9,3.7c2.5,2,4.5,4.2,5.9,6.9c0.2,0.7,0.5,1.5,0.2,2.2C708.2,480.6,708.5,482.1,710,481.4z" class="st17"></path>
	<path d="M310.2,440.7c1.2,2.5,2.2,5.2,2.2,7.9c2.5-2.7,3.5-4.7,3-5.9c0-0.2-0.2-0.2-0.2,0l0.2,3.7
		c-3,4.5-1.5,6.9,4.7,7.4c-2.2,2.5-5.2,4-8.2,4.5c-3,0.2-5.9,0.7-8.9,1.7l-5,0.5c-6.2-0.2-12.1-2.7-16.6-7.2
		c-0.7-3.5-0.7-7.2,0-10.9c0.7,1.5,1.5,1.7,1.7,1.2c1-1.7,1.7-3.5,2.2-5.5c7.4-0.7,14.9-0.5,22.1,0.5
		C308.5,438.8,309.5,439.5,310.2,440.7z" class="st18"></path>
	<path d="M539.5,438.5l0.2,11.9c-0.2-3-1-5.7-2.7-8.2c-0.5-0.7-1.2-1.2-2-1.2l-14.6-2l-2.2-0.2c-1.7-0.2-1.7-0.5,0-0.7
		C525.3,436.8,532.5,436.8,539.5,438.5z" class="st15"></path>
	<path d="M572.9,462.1c-1.5,1-3.5,1-5,0c-1.2-1-2-2.5-2-4c-1-5.2-1.7-10.4-2.2-15.9c0.2-2.7,0.5-4.2,1.2-4.5
		c2-0.2,4,1,4.5,3C570.7,449.2,571.9,456.1,572.9,462.1z" class="st19"></path>
	<path d="M520.6,439l14.6,2c0.7,0,1.5,0.5,2,1.2c1.7,2.5,2.5,5.2,2.7,8.2c-0.2,2-1,3.7-2.2,5.2
		c-2.7,3-6.4,5.2-10.4,6.2c-6.2,0.7-12.6-0.5-18.3-3c-7.4-3-10.2-7.9-8.7-15.4c0.5-2.5,2.5-4.2,5-4L520.6,439z M531.3,441.5
		c-3.5-2-7.7-2-10.9,0c-0.7,0.5-1.5,0.5-2.2,0.5c-1.2,0-2.5,0-3.7,0.2s-1,0.5,0,0.7c2.7,0.7,5.7,0.2,8.2-1c4.5-2.5,9.4,1.2,11.4,5.2
		c0,0.2,0.5,0.5,0.7,0.2l2.5-0.7c0.5-0.2,0.7-0.5,0.2-1C535.7,444,533.8,442.5,531.3,441.5z" class="st18"></path>
	<path d="M531.3,441.5c2.5,1,4.5,2.2,6.2,4.2c0.2,0.5,0.2,0.7-0.2,1l-2.5,0.7c-0.2,0-0.5,0-0.7-0.2
		c-2-4-6.9-7.7-11.4-5.2c-2.5,1.5-5.5,1.7-8.2,1c-1.2-0.2-1.2-0.5,0-0.7s2.5-0.5,3.7-0.2c0.7,0,1.5,0,2.2-0.5
		C523.9,439.5,527.8,439.5,531.3,441.5z" class="st20"></path>
	<path d="M310.2,440.7c3.2-0.2,4,2.2,2.2,7.9C312.2,445.7,311.5,443.2,310.2,440.7z" class="st20"></path>
	<path d="M563.7,442.5c0.2,5.2,1,10.7,2.2,15.9c0.2,1.5,1,3,2,4c1.5,1,3.5,1,5,0c3.5,7.2,5.2,15.1,5.2,23
		c0.2,3.5-0.7,6.9-3,9.7c-4.2,5-9.4,9.4-14.9,12.9c-4.7,3-10.2,4.2-15.9,3.7c-5.9-0.5-11.9-2-17.3-4.5c-2.7-1.2-5.2-3-7.2-5.2
		c-1-1.2-2-2.2-3-3.2c-1-1-2-1.7-3-2.7c-0.5-0.5-1.2-1-2-1c-1-0.2-1.7-1-2.2-2c-1-2.2-2.2-4.5-3-6.9c-0.7-2.2-1.2-4.5-1.5-6.7
		c-0.2-2.5-0.5-4.7-1-7.2c-1-3.5-0.2-7.4,2-10.4c11.2,3.7,24,5.2,33.2-3.7c2.2-1.7,4-4.2,4.5-7.2c2.5-0.7,5-2,6.9-3.7
		c0.5-0.5,1.5-0.7,2.2-0.7C558.3,446.7,562,445.4,563.7,442.5z M567.7,464.3c-1.2-1.5-3.7-1.7-5.2-0.2c-0.5,0.5-0.7,1-1,1.5
		c-2.2,3.7-5.2,6.9-8.7,9.7c-1.2,1-2.7,0.7-3.7-0.5c-0.2-0.2-0.2-0.5-0.5-0.7l-1.5-4.5c-1-2.7-4-4.2-6.7-3.2c-0.2,0.2-0.7,0.2-1,0.5
		c-2.5,1.5-4.7,3-7.2,4.5c-2.5,1.5-4.7,3.7-5.7,6.2c-2.2,6.2-1.5,13.6,4,18.1c9.9,7.7,19.8,7.4,30-1
		C567,489.6,577.1,471.5,567.7,464.3z" class="st21"></path>
	<path d="M602.2,446.2c1.2,5.2,1,10.7-0.5,15.6c-0.7,2.2-1.5,4.7-1.7,7.2c-0.2,2.5-0.5,5-0.7,7.2
		c-0.5-9.2-1-18.3-1-27.8c0.5,0.2,0.7,0.7,0.5,1.2l0,0c-0.2,0.5,0,1,0.5,1.2c0,0,0,0,0.2,0c0.5,0,1.2,0.5,1.2,1l0,0c0,2.5,0,5,0,7.2
		c0,0.2,0,0.2,0.2,0.2l0,0c0.2,0,0.2,0,0.2-0.2C601.7,455.1,601.9,450.7,602.2,446.2z" class="st22"></path>
	<path d="M281.2,453.4c4.5,4.2,10.4,6.7,16.6,6.9c-0.2,0.5,0,1.2,0.5,1.7c0.5,0.2,1,0.5,1.5,0.7c0.7,0.2,1.5,0.5,2,0.7
		c0.7,0.2,1.2,1,1.2,1.7c0.2,2,0,4-0.7,5.7c-1,2.7-1.7,4.5-2,5.2c-2,7.9-7.4,14.9-14.9,18.6c-8.4,3.5-14.1,5.2-17.3,5.2
		c-7.7,0.5-15.1-3-19.8-8.9c-0.5-0.5-0.7-1.2-1-2.2c-0.2-3.2-2-5.5-2-8.4c-0.2-8.4,2.7-14.1,3.2-21.8c0-0.5,0-0.5,0.2,0
		c0.2,0.2,0.5,0.5,0.7,0.5c0.2,0,0.5,0,0.7,0c0.7-0.5,1.5-1.2,1.7-2.2l9.2-3.2c1.7,0.2,3.7-0.5,4.7-2c0.5-0.7,1-1.2,2-1.2
		C272.3,449.7,277.3,450.7,281.2,453.4z M286.9,467.3c-4-6.2-13.9-6.9-22.1-1.7c-8.2,5.2-11.4,14.4-7.4,20.8
		c4,6.4,13.9,6.9,22.1,1.7C287.7,482.9,290.9,473.7,286.9,467.3z" class="st23"></path>
	<path d="M302.8,460.1l2.2,4.7c0.2,0.7,0.2,1.5,0,2.2c-0.7,2-1.5,4.2-1.7,6.4c-0.2,2-1,4.2-2,5.9
		c-2.5,4.5-4.2,8.9-8.4,11.9c-2.2,1.5-4.7,2.7-7.2,3.7c7.4-3.7,12.9-10.7,14.9-18.6c0.2-0.7,0.7-2.5,2-5.2c0.7-1.7,1-3.7,0.7-5.7
		c0-0.7-0.5-1.5-1.2-1.7c-0.7-0.2-1.2-0.5-2-0.7c-0.5,0-1-0.2-1.5-0.7c-0.5-0.2-0.7-1-0.5-1.7L302.8,460.1z" class="st21"></path>
	
		<ellipse ry="13.4" rx="17.6" cy="476.8" cx="272.4" class="st8" transform="matrix(0.8425 -0.5388 0.5388 0.8425 -213.9913 221.8953)"></ellipse>
	<path d="M567.7,464.3c9.4,7.4-1,25.3-7.2,30.5c-9.9,8.4-20.1,8.7-30,1c-5.5-4.5-6.4-11.6-4-18.1
		c1.2-2.7,3.2-5,5.7-6.2c2.5-1.5,5-3,7.2-4.5c2.5-1.5,5.7-0.7,7.2,1.7c0.2,0.2,0.2,0.7,0.5,1l1.5,4.5c0.5,1.2,2,2,3.5,1.5
		c0.2,0,0.5-0.2,0.7-0.5c3.5-2.7,6.2-5.9,8.7-9.7c0.7-2,3-2.7,4.7-2C567,463.3,567.5,463.8,567.7,464.3z" class="st24"></path>
	<path d="M788.3,473.7c4.2,3.5,6.2,8.9,5.5,14.4c0,0.7,0.2,1.5,1,1.7c15.9,7.2,33.5,17.6,40.1,34.2
		c3.2,8.4,5,12.9,5.2,13.1c6.4,14.4,8.7,30.5,6.7,46.1c0.5-6.2,0-12.1-2-18.1c-0.2-0.7-0.7-1.5-1.5-2c-1.2-0.7-2.5-1.2-4-1.2
		c-0.7,0-1.2-0.2-1.7-0.7c-0.2-0.5-0.7-0.7-1.2-0.7s-1,0.2-1,0.7l0,0c-1,10.2-3.5,20.3-7.7,29.5c-1,2.2-3,4-5.5,4.7
		c-2.7,0.5-5.7,1.5-8.4,2.5c-6.9,2.7-16.1,1.5-23.5,1.2c-4.7-0.2-9.2-0.2-13.9,0.2c-12.6,1-25,1.2-37.7,0.5
		c-13.1-0.7-23-1.2-29.7-1.2c13.6-0.5,27.3-0.5,40.9-0.5c2.7,0,5.2-1.2,7.4-1.2c17.1-0.2,28.3-0.2,32.7,0.2
		c6.9,0.5,14.1,0.5,21.1-0.2c3.7-0.5,7.2-2.7,9.2-5.9c0.5-0.5,0.5-1.2,0.5-2c-0.5-4.5,0-8.9,1.2-13.4c3-11.4,3.7-23.3,2.5-35.2
		c0-0.7,0.5-1.5,1.2-1.7c1-0.2,2-0.2,2.7,0.5c0.5,0.5,1.5,0.5,1.7,0c0.2-0.2,0.2-0.2,0.2-0.5l3.7-7.7c0.7-1.2,0.5-3-0.2-4.2
		c-1.7-3.2-3.7-6.4-6.2-9.7c-2.2-3-4.7-5.7-7.7-7.9c-6.9-5.2-14.4-9.7-22.3-13.4c-2-1-4.2-1.2-6.7-1.2c-0.7,0-1.5-0.5-1.7-1.2
		l-1.2-3.5c-0.2-0.7-1-1.5-1.7-1.7c-3.5-1.2-7.2-1.5-10.7-0.7c0-3.7-1.5-7.2-3.7-9.9l3.2-0.2c0.7,0,1.5-0.7,1.5-1.5
		C777.9,470,784.3,470.7,788.3,473.7z" class="st25"></path>
	<path d="M631.7,471.7c-1.5,2.7-1.2,4.5,1,5c0.7,0.2,1.5,0.7,1.7,1.5c1.5,3.2,3.5,6.4,5.9,8.9c3.5,3,6.7,6.4,9.7,9.9
		c0.7,0.7,1.5,1,2.5,1c5.5-0.7,15.1-3.7,13.4-11.2c-1-4.7,0.2-5.5,4-2.5c2.7,2.2,5.7,4.2,8.7,5.9c3.7,2,3.5,3.5-0.5,4.7
		c-6.2,1.5-7.2,7.2-11.2,11.4c-4,4.5-7.7,9.4-10.9,14.6c-1,1.5-0.7,3.7,0.5,5c2.7,2.5,3.5,6.4,1.5,9.7c-2.5,4.7-4.5,9.9-6.2,14.9
		l-8.4-4c-1.5-0.7-2.7-2.2-3-4c-1.5-9.9-4.5-19.3-8.9-28.3c-4.5-9.9-8.7-19.8-12.1-30.2c-1-2.2,0-4.7,2-5.7L631.7,471.7z" class="st12"></path>
	<path d="M728.5,492.8l-24.3,23.8c-1,1-2.5,0.7-3.5-0.2c-0.2-0.2-0.2-0.5-0.5-0.7l-4-10.7c-0.2-0.7-0.2-1.7,0.2-2.5
		l13.4-21.1c5-2.7,10.4-1.5,15.9,3.5C728.1,486.8,729,489.8,728.5,492.8z M703.3,509.4c1-0.5,1-2.2,0-4c-1-1.7-2.5-2.7-3.5-2.2
		c-1,0.5-1,2.2,0,4C700.8,508.9,702.3,509.9,703.3,509.4L703.3,509.4z" class="st7"></path>
	<path d="M450.2,482.9c1-1,2.2-1.5,3.7-1.5c0.7,0,1.2,0.2,1.2,1c0,0.2,0,0.2,0,0.5c0,1.7-1.2,3.2-3,3.5
		c-7.9,1.7-16.1,2.7-24.3,3c-7.7,0.2-15.4,0-23-1c-14.1-1.5-28.3-0.2-41.9,3.7c-3.7,1.2-7.4,1.2-11.2,0.5c-5-1.2-9.7-2.7-14.1-4.7
		c-1-0.5-1.7-1.2-2-2.2l-0.2-0.7c-0.2-0.5,0-1.2,0.7-1.2c0.2,0,0.5,0,0.7,0c7.9,2.7,12.9,8.4,22.6,6.4c19.3-4,30.5-5.9,47.3-4
		c10.4,1.2,19.8,1.2,29.7,1.7c1,0,1.7-0.2,2.5-0.7c2.5-2,5.2-3,8.4-3C448.8,483.9,449.8,483.4,450.2,482.9z" class="st2"></path>
	<path d="M764,497.5l-0.2-0.2v-1c0-0.7,0.5-1.2,1.2-1.2c0,0,0,0,0.2,0c4.5,0.5,8.7,2.7,11.4,6.4c0.2,0.2,0.2,0.7,0,1.2
		l-0.5,0.7c-0.2,0.5-1,0.7-1.5,0.5c-0.2,0-0.2-0.2-0.2-0.2C771.4,500.7,767.9,498.7,764,497.5z" class="st26"></path>
	<path d="M751.8,498c1.7,0,2,0.7,1.2,2.2l-2,3.2c-0.7,1.2-2.2,2-3.7,1.5c-2.5-0.2-4.7,0.2-6.9,1.2
		c-1.5,0.5-3-0.2-3.5-1.7l0,0c-0.2-0.7,0-1.7,0.7-2c0,0,0,0,0.2,0C741.9,500,746.9,498.5,751.8,498z" class="st27"></path>
	
		<ellipse ry="3.5" rx="2" cy="506.2" cx="701.4" class="st28" transform="matrix(0.8796 -0.4756 0.4756 0.8796 -156.3472 394.5473)"></ellipse>
	<path d="M633.9,546.6v4.5c0,0.7-0.7,1.5-1.5,1.7l-1,0.2c-0.5,0-1-0.2-1-0.7V552l0.5-3.5c0-0.7-0.5-1.5-1.2-1.5
		c-0.2,0-0.7,0-1,0.2c-3,2-5,4.7-8.4,5.9l-12.4,4.7c-3,1-6.4,0.2-10.7-2.5c-3.2-6.7-3.2-14.4,0.2-20.8c0.2-0.7,0.7-1,1.5-1.2l2-0.5
		c1-0.2,1.2-0.7,0.7-1.7c-0.2-0.5-0.5-0.7-1-1c-0.7-0.2-1-1-1-1.7c0-1.2,1-2.2,2-2.7c1.7-1,3.2-2,4.7-3.5c7.7-3.7,14.1-3,19.1,2.5
		c3.5,3.5,5.9,7.9,6.4,12.9C632.1,540.4,632.6,543.6,633.9,546.6z" class="st29"></path>
	<path d="M539.5,606c1.2,6.2,1.5,12.4,1.2,18.6c-2.2,20.6-8.4,40.4-18.1,58.5l-80.8,5.5c-31,2-55.8,3-74.3,2.7
		c-19.3-0.2-38.7-0.2-58,0c-14.1,0-28.7-1.5-43.4-2c-7.7-15.6-11.6-32.7-11.4-49.8c-0.2-23,5-45.6,15.1-66.2
		c7.7-15.1,16.1-26,33.2-30.2c11.4-2.7,22.8-4.5,34.4-5.5c47.6-4,97.1-5.2,144.7,1.2c16.1,2.2,26.3,3.2,36.2,13.9
		C531,567.1,536.5,585.7,539.5,606z" class="st30"></path>
	<path d="M767.2,558.9c-6.4,2.5-15.9,3.5-22.1,0.5c-1.7-0.7-2.5-2.7-1.7-4.5c0.2-0.2,0.2-0.5,0.5-0.7l11.2-12.6
		c1.7-2,4.7-2.5,6.9-1.5c7.2,3.5,13.9,8.4,19.1,14.6c0.7,1,0.7,2.2-0.2,3.2c0,0-0.2,0.2-0.5,0.2c-3.5,2-7.4,2.2-11.2,0.7
		C768.7,558.7,767.9,558.7,767.2,558.9z" class="st25"></path>
	<path d="M633.9,546.6c1.2,2,1,4.5-0.5,6.2c-0.5,0.5-0.7,1-1,1.5c-0.2,0.5-0.2,0.7-0.7,1.2c-15.1-2.2-21.6,4-19.3,18.8
		c1.7,9.9,7.2,15.1,16.4,15.4c0.7,0,1.5-0.2,2.2-0.7c3.7-3.2,6.4-7.4,7.9-11.9c2.5,14.4-0.5,26-8.9,34.7c-4,4-9.4,5.9-13.9,9.7
		c-0.7,0.5-1.5,0.7-2.5,0.7l-7.9-1.5c5.7-4.2,8.2-8.7,7.4-13.4c-1.7-8.4-11.9-9.9-18.8-7.7c-0.7,0.2-1.5,0.7-1.7,1.5
		c-3.7,5.9-4.5,13.1-2,19.6c-3,3-1.5,5.7,4.5,7.7c11.4,4.2,24.8-1.5,34.4-9.7c9.7-8.2,15.4-23,16.1-35.7c0.2-3.7,1.5-4,3.7-1.2
		c9.7,12.1,21.1,22.6,34,31.2c-5.7,14.6-14.1,28-24.8,39.4c-2.5,0.2-3.7,1-4.2,2c-1.2,3.5-3.2,6.4-5.7,9.2
		c-9.7,12.6-17.6,26.5-23.5,41.1c-3.5-2.7-8.4-3.2-12.4-1.5c-0.7,0.2-1.5,0.5-2.2,0.5l-6.2-0.2c-1.7,0-2.2-0.7-1.7-2.5
		c4.2-10.9,6.9-22.3,8.4-34c0.2-0.2,0-0.7-0.2-1c0,0,0,0-0.2,0l-0.7-0.2h-0.2c-2.7,8.4-5.5,16.6-8.2,24.8c-1,3.2-2.2,6.2-3.7,9.2
		c-1.2,2.2-3.2,4-5.5,5c-28,10.9-57.2,17.6-87.2,20.3c-0.2,0-0.7-0.2-0.7-0.5c0-0.2,0-0.2,0-0.5c6.2-10.2,11.9-20.6,16.9-31.2
		c0-0.2,0.2-0.5,0.2-0.7v-0.7c0-0.5-0.2-1-0.7-1h-0.2h-1.2l3.5-7.4c9.7-18.1,15.9-38.2,18.1-58.5c0.2-6.2,0-12.4-1.2-18.6l0.5-2.2
		c0-0.7,0.7-1.2,1.5-1.2c4.7,0,9.2,0,13.9-0.7c10.4-2,21.6-4.7,33-7.9c3.5-1,6.4-3.5,7.9-6.7c0.5-1.2,0.5-2.5-0.5-3.5
		c-5-5.7-7.7-13.6-4.2-20.8c1.2-3,3.2-5.7,5.5-7.9c4.2,2.7,7.9,3.5,10.7,2.5l12.4-4.7c3.2-1.2,5.5-3.7,8.4-5.9
		c0.7-0.5,1.5-0.2,2,0.2c0.2,0.2,0.2,0.7,0.2,1l-0.5,3.5c0,0.5,0.2,1,0.7,1h0.2l1-0.2c0.7-0.2,1.5-1,1.5-1.7L633.9,546.6z" class="st22"></path>
	<path d="M713.9,571.1c-1.2,0.2-2.5-0.2-3.2-1.2c-2.2-6.9,0.2-14.4,6.2-18.6c1.7-1.5,4.2-1,5.7,0.7
		c0.5,0.5,0.7,1,0.7,1.7c1.5,6.9-1,9.9-3.7,15.4C718.9,570.3,716.9,571.1,713.9,571.1z" class="st16"></path>
	
		<ellipse ry="9.2" rx="6.9" cy="563.5" cx="805.4" class="st16" transform="matrix(0.9767 -0.2147 0.2147 0.9767 -102.1911 186.0532)"></ellipse>
	<path d="M213.3,554.7c0.2-0.2,0.5-0.5,1-0.5c0.7-0.2,1.5,0.2,1.5,1l0.7,2.5c0.2,0.5,0.7,1,1.2,1.2
		c1.7,0.5,3.5,0.7,5,1c1.7,0.2,3.5,0.2,5.2,0c12.6-2,25.3-2,37.9-0.5c2.7,0.5,4.5,3,4.2,5.7l0,0c-0.5,2.7-0.7,5.5-0.2,7.9
		c-10.2,20.6-15.4,43.1-15.1,66.2c-0.2,17.3,3.7,34.4,11.4,49.8l3.5,8.2c-2.2,0-3.7,0.7-4.2,2c-0.2,1.2,0.2,2.5,1,3.5
		c4,5.2,6.7,8.7,8.2,10.9c1,1.2,1,3,0.2,4.2c-0.5,0.7-1.2,1-2,0.7c-1-0.2-2.2,0-3.2,0.7c-0.5,0.5-1.5,0.7-2.2,0.7
		c-3.7,0.2-7.4-1-10.2-3.5c-0.5-0.5-1.2-0.7-2-1c-1.5,0-3-1-3.7-2.5c-4.2-9.2-6.7-10.9-6.9-5c-5.9-19.8-5-41.1,3-60
		c1.5-3.5,2.5-7.2,3-10.9c0.5-3.7,0.7-7.4,0.7-11.2c0-0.7-0.2-1.5-1-2c-3.5-2.7-5-7.4-3.5-11.6c3.2-1.7,3.2-4.2,0-7.2
		c-1.2-1-2.5-1.7-4-2.2s-2.7-1.2-4-2.2c-6.4-4.5-12.4-9.9-17.8-15.6c-1.5-2-2.7-4-3.7-6.2c-2.5-5.2-1.7-14.1-2.2-20.1
		c0-1-0.2-1.5-0.7-1.5c-0.5,0-1.2,0.2-2,1C212.3,557.7,212.6,556.2,213.3,554.7z" class="st22"></path>
	<path d="M631.7,555.5c6.7,7.9,9.2,15.1,7.2,21.3c-1.5,4.7-4.2,8.7-7.9,11.9c-0.5,0.5-1.2,0.7-2.2,0.7
		c-9.4-0.2-14.9-5.5-16.4-15.4C610.1,559.7,616.3,553.5,631.7,555.5z" class="st29"></path>
	<path d="M247.3,612.7c-10.9-7.7-21.1-16.9-29.7-27c-6.7-7.9-5.5-17.1-5-26.5c0.7-0.7,1.5-1.2,2-1
		c0.5,0.2,0.7,0.5,0.7,1.5c0.5,5.9-0.5,14.9,2.2,20.1c1,2.2,2.2,4.2,3.7,6.2c5.5,5.9,11.4,11.2,17.8,15.6c1.2,1,2.5,1.5,4,2.2
		c1.5,0.5,2.7,1.2,4,2.2C250.8,608.5,250.8,611,247.3,612.7z" class="st31"></path>
	<path d="M846.5,583l-3,21.1c0.2-1.2,0-2.5-0.5-3.5c-0.5-1-1-0.7-1.5,0.2c-1.2,5-3.5,9.4-6.2,13.6
		c-3.2,4.7-9.7,10.4-18.6,16.9c-5.7,4-10.9,7.4-16.1,10.9c0,0,0,0,0,0.2l0,0l0.2,0.5c0.2,0.2,0.5,0.5,0.7,0.2l0,0
		c10.7-5.2,20.6-11.6,29.5-19.3c3.2-3,4.7-2.2,4.5,2.2c-0.2,4.7,0,9.2,1.2,13.6c0.5,2,0.7,3.7,0.7,5.7s0.2,4,0.7,5.7
		c4.2,17.1,4.2,34.9,0.5,52c-0.5,2.5-1.7,4.7-3.5,6.4c-2.5,2.5-5.5,4.5-8.7,5.7c-1,0.2-2.2,1-3,1.7c-0.7,0.7-0.7,1,0.5,1
		c2,0,4-0.2,5.9-0.7c3.2-0.7,6.7-1,10.2-0.7c0.7,0,1.5,0.2,2.2,0.5c1,0.7,2.5,0.7,3.7,0.5c-10.4-0.2-20.8,1.2-30.7,4.5
		c-1,0.2-2,0.7-2.7,1.5c-0.7,0.7-1.7,1.2-2.5,1.7s-1.2,1-1.5,1.7c-0.5,1-1.5,1.5-2.5,1.2c1.7-3.7,3.2-7.7,4.5-11.6
		c0-0.2,0.2-0.5,0.5-0.7c0.2-0.2,0.5-0.5,0.7-0.7l9.4-20.6c0.2-0.2,0-0.7-0.2-0.7l0,0l-0.5-0.2c0,0-0.2-0.2-0.5,0l0,0
		c-4,6.2-7.2,13.6-10.9,19.1c-3.7,5.5-6.4,9.9-12.4,13.4c-3.2,2-6.2,4-8.9,5.9c-1.5,1-3.5,0.5-4.5-1c-0.2-0.5-0.5-0.7-0.5-1.2
		c-0.7-6.2-2.2-12.1-3.7-18.1c-1.7-6.4-0.7-13.9-0.5-20.8c0-0.7-0.5-1.5-1.2-1.5c-0.2,0-0.5,0-0.5,0l-1.5,0.5c-0.7,0.2-1.5,0.2-2,0
		c-1.7-1-2.5-3-1.7-4.7c0.2-1.5,0.7-3,1-4.5c0.2-0.5,0-1.2-0.5-1.5c-0.2-0.2-0.5-0.2-0.7-0.2c-0.7,0-1,0.2-1,1c0.2,2.2,0,4.5-1,6.4
		c-0.2,0.7-0.2,1.5,0,2.2c1.5,2.7,4,4.2,5,6.9c1.7,5,1.2,10.4,2,14.6c0.5,3,1.2,5.9,1.7,8.7c0.5,3,0.7,5.9,0.7,8.7
		c0.2,4.2,0.7,8.2,1.7,12.1c-1.7-1-3.5-1.7-5.5-2c-3.2-0.5-6.9,1.7-10.7,2.2c-1.7,0.2-3.5,0.7-5.2,1.2c-4.2,2-8.7,3.7-13.1,5.2
		c-4.2,1-8.7,1.5-13.1,1.5l-1.5-3.5c-0.5-4.7-0.7-9.4-1-14.1c0-3.5,0.5-6.7,1.2-10.2c0.7-3.5,1.2-6.9,1.2-10.4c0-1.5-0.2-1.5-1-0.2
		c-2.2,3.5-2,7.4-3.7,11.4c-0.7,1.7-1.2,3.2-2,5c-0.2,1-1.2,1.7-2.2,1.5h-0.2c-5.5-0.7-10.9-1.7-16.4-3c-5.2-1.2-10.2-3-14.9-5.7
		c-5.5-3-10.4-6.2-15.4-9.9c-2-1.5-2.7-1-2.2,1.2c0.5,2.7,0.2,4.5-0.7,5.2c-1.5,1-2,3-1,4.5c0,0,0,0.2,0.2,0.2
		c2,2.7,3.5,5.7,4.5,9.2c0.2,0.7,0,1.5-0.2,2.2l-2.2,3.7l-5,2c0.5-0.7,1.2-1.5,2-1.7c0.7-0.2,1.2-0.7,1.2-1.5
		c0.2-2.2-0.2-3.7-1.7-4.2c-0.5-0.2-1-0.7-0.7-1.2c0.2-1.2,0.2-2.5,0-3.7c-2-10.4-5.5-20.3-10.2-29.7c-1-2.5-3.2-4.5-5.9-5.2
		c-2.5-0.7-4.7-2-6.4-3.5c-3-2.5-5.5-5.5-7.7-8.7l8.2-14.9c2.5-2.7,4.5-5.7,5.7-9.2c0.2-1,1.7-1.7,4.2-2c2,2.2,4.2,3.7,6.9,5
		c1,0.5,2,0,2.5-0.7v-0.2c2-6.9,3-13.9,7.4-19.8c5-6.9,9.7-13.9,13.9-21.3c0.5-0.7,1-1.2,1.7-1.5l1.7-0.7c0.7-0.2,1.2-1.2,1-2
		c-0.7-3.7-3-6.9-5.9-8.9c0-5-2-9.7-5.5-13.4c1.5-1.2,2.5-3,2.5-5c0-1,0.5-1.2,1.5-0.7c1,0.2,1.5,1.5,1.2,2.2
		c-0.5,2.5-0.5,5.2-0.2,7.7c0,0.7,0.5,1.5,1.5,1.7l10.2,3l10.9,1.5c6.7,0,16.6,0.5,29.7,1.2c12.6,0.7,25.3,0.5,37.7-0.5
		c4.7-0.2,9.2-0.5,13.9-0.2c7.4,0.2,16.6,1.5,23.5-1.2c2.7-1,5.5-2,8.4-2.5c2.5-0.5,4.5-2.2,5.5-4.7c4.2-9.4,6.7-19.3,7.7-29.5
		c0-0.5,0.5-1,1-0.7l0,0c0.5,0,1,0.2,1.2,0.7c0.5,0.5,1,0.7,1.7,0.7c1.5,0,2.7,0.5,4,1.2c0.7,0.5,1.2,1,1.5,2
		C846.5,570.8,847,577,846.5,583z M795.7,664.3c-0.2-0.7-0.2-1.7-0.5-2.5c-0.2-1-0.5-1-0.7,0c-1,4.5-0.2,7.4,2.5,9.7
		c3.5,2.5,7.4,4.5,11.6,5.7c11.2,3.2,17.8-10.7,20.1-19.3c1.2-5.2,0.7-5.5-1.5-0.5c-3,6.4-8.2,19.8-17.6,17.6
		C803.1,673.7,796.7,670.2,795.7,664.3L795.7,664.3z" class="st32"></path>
	<path d="M798.2,579.5c-0.5,3.5-1.7,6.7-3.7,9.4c-0.5,0.7-1.5,1.2-2.5,1c-1.7-0.2-3.2-1-4.5-2
		c-0.7-0.5-1.5-0.7-2.2-0.7l-54-0.5c-1.2,0-2.2-1-2.2-2.2l0,0l0.5-11.4c0-1,0.5-2,1.2-2.5c7.2-5.5,11.9-2.7,19.3-2.5
		c0.7,0,1.7-0.2,2.2-0.7c2.2-1.7,5.5-1.7,7.9-0.5c0.7,0.2,1.5,0.5,2.2,0.2c6.7-1,13.6-1,20.3,0.5c2,0.5,3.5,2.2,3.5,4.2l0.5,7.4
		c0,1,1,1.7,2,1.7c0.5,0,1-0.2,1.5-0.7l4.7-6.2c0.7-1,2.2-1.2,3.2-0.5c0.2,0.2,0.5,0.5,0.7,0.7c0.7,1,0.5,2.5-0.2,3.5
		C798.4,578.5,798.4,579,798.2,579.5z" class="st29"></path>
	<path d="M605.6,620.4c-2.5,1.5-5,2.7-7.7,3.5c-3.7,1-5.5-0.7-7.7-3.5c-2.5-6.4-1.7-13.9,2-19.6c0.5-0.7,1-1.2,1.7-1.5
		c7.2-2.2,17.3-0.7,18.8,7.7C613.8,611.7,611.6,616.2,605.6,620.4z" class="st28"></path>
	<path d="M843.3,604.3c-1.7,8.9-5.9,16.1-4.7,26c2.5,18.1,5.2,36.4,8.2,54.5c1.2,10.2,0.7,20.3-1.2,30.2
		c0.2,0,0.2,0.7-0.2,2.7c-1.2,0.2-2.5,0.2-3.7-0.5c-0.7-0.5-1.5-0.5-2.2-0.5c-3.5-0.2-6.7,0-10.2,0.7c-2,0.5-4,0.7-5.9,0.7
		c-1,0-1.2-0.5-0.5-1c1-0.7,2-1.2,3-1.7c3.5-1.2,6.4-3,8.7-5.7c1.7-1.7,3-4,3.5-6.4c4-17.1,3.7-34.9-0.5-52c-0.5-2-0.5-4-0.7-5.7
		c0-2-0.2-4-0.7-5.7c-1.2-4.5-1.5-9.2-1.2-13.6c0.5-4.5-1-5.2-4.5-2.2c-8.9,7.7-18.8,14.4-29.5,19.6c-0.2,0.2-0.7,0.2-0.7-0.2l0,0
		l-0.2-0.5c0,0,0,0,0-0.2l0,0c5.2-3.2,10.4-6.9,16.1-10.9c9.2-6.4,15.4-11.9,18.6-16.9c2.7-4.2,5-8.9,6.2-13.6
		c0.2-1,0.7-1.2,1.5-0.2C843.3,601.8,843.5,603.1,843.3,604.3z" class="st33"></path>
	<path d="M687.2,601.8c3.2,2,5.5,5.2,6.2,8.9c0.2,0.7-0.2,1.7-1,2l-1.7,0.7c-0.7,0.2-1.2,0.7-1.7,1.5
		c-4.2,7.2-8.9,14.4-13.9,21.3c-4.2,5.9-5.5,12.9-7.4,19.8c-0.2,1-1.2,1.5-2.2,1.2h-0.2c-2.7-1.2-5-2.7-6.9-5
		c10.7-11.4,19.1-24.8,24.8-39.4L687.2,601.8z" class="st25"></path>
	<path d="M648.5,663.8l-8.2,14.9c-10.2,17.1-16.1,36.7-16.9,56.5c0,4,2,10.7,6.2,20.1c2,4.7,5.5,8.7,9.9,11.2
		c5.2,3.2,11.4,2.5,17.3,3c0.5,0,1.2,0.2,1.5,1l0.2,0.7c0.5,0.7,0.2,1.2-0.7,1.5c-1,0.2-2,0.7-2.7,1.5l-12.1-0.7l-7.2-5
		c-3.2-3.2-5.9-6.9-8.7-10.7c-1.5-2.2-1.5-5-3-7.4c-0.2-0.7-1-1-1.7-0.7l0,0c-21.8,8.2-34.9,14.4-55,11.6c-0.7-0.2-1.7,0.2-2.2,1
		l-7.2,8.2c-0.5,0.7-1.2,1-2.2,1.2l-13.9,1.7l-2.2-1c-0.7-0.2-1.5-0.7-2-1.5c-3.2-4.2-8.2-7.2-13.4-7.7c3.2-1.7,6.9-1.5,9.9,0.7
		c7.4,4.2,14.4,5,20.8,2.2c0.7-0.2,1.5-1,2-1.7c4.7-6.7,10.7-12.1,15.4-18.8c8.9-12.1,16.6-25.3,23-38.9c0.5-1,1.7-1.5,2.7-1
		c0.2,0,0.2,0.2,0.5,0.2c0.2,0,0,0.7-0.2,2c-1.5,4.7-3.7,9.2-6.2,13.6c-6.7,10.9-13.4,21.6-20.3,32.5c-0.5,0.7-0.2,1.7,0.5,2.2
		c0,0,0.2,0,0.2,0.2c6.4,2.2,13.4,2.2,19.8,0.2c9.2-2.7,18.3-6.2,27.3-9.9c2-0.7,3-3.2,2-5.2l0,0c-5-11.6-1-25.3,3-36.7
		C630.9,690,638.8,676.2,648.5,663.8z" class="st34"></path>
	<path d="M625,704.7c-4,11.4-7.9,25-3,36.7c0.7,2,0,4.2-2,5.2l0,0c-8.9,3.7-18.1,7.2-27.3,9.9
		c-6.4,2-13.4,1.7-19.8-0.2c-1-0.2-1.2-1.2-1-2.2c0,0,0-0.2,0.2-0.2c6.9-10.7,13.6-21.6,20.3-32.5c2.5-4.2,4.7-8.9,6.2-13.6
		c0.5-1.2,0.5-1.7,0.2-2c-1-0.7-2.2-0.5-3,0.2c0,0-0.2,0.2-0.2,0.5c-6.4,13.6-14.1,26.8-23,38.9c-5,6.7-10.9,12.1-15.4,18.8
		c-0.5,0.7-1.2,1.2-2,1.7c-6.7,2.7-13.6,2-20.8-2.2c-3-2-6.7-2.5-9.9-0.7l-7.2,1l0.7-1c0.5-0.5,0.2-0.7-0.5-0.7
		c-3.5-0.2-6.9,0.7-9.9,2.7c-6.4,5-18.1,3.5-24.8,0.7c-3-1.2-5.7-4.5-8.7-5.5c-4-1.2-4-2.7-0.2-4.7c8.7-4.5,15.9-11.2,21.1-19.3
		c0.5-0.7,0.2-1.5-0.5-2c-0.2,0-0.2-0.2-0.5-0.2l-1.2-0.2c10.2-13.4,18.8-27.8,26-43.1h1.2c0.5,0,1,0.2,1,0.7v0.2v0.7
		c0,0.2,0,0.5-0.2,0.7c-5.2,10.7-10.9,21.1-17.1,31.2c-0.2,0.2-0.2,0.7,0.2,1c0.2,0,0.2,0.2,0.5,0c30-2.7,59.2-9.7,87.2-20.3
		c2.5-1,4.5-2.7,5.5-5c1.5-3,2.7-5.9,3.7-9.2c2.7-8.2,5.5-16.6,8.2-24.8c4-12.4,0-0.2,0.2,0l0.7,0.2c0.2,0,0.7,0.2,0.5,0.7
		c0,0,0,0,0,0.2c-1.5,11.6-4.5,23-8.4,34c-0.5,1.7,0,2.5,1.7,2.5l6.2,0.2c0.7,0,1.5-0.2,2.2-0.5C616.8,701.7,621.5,702.2,625,704.7z" class="st35"></path>
	<path d="M640.6,678.4c2.2,3.2,4.7,6.2,7.7,8.7c2,1.7,4,2.7,6.4,3.5c2.7,0.7,4.7,2.7,5.9,5.2
		c4.7,9.4,8.2,19.3,10.2,29.7c0.2,1.2,0.2,2.5,0,3.7c-0.2,0.5,0.2,1.2,0.7,1.2c1.2,0.5,2,2,1.7,4.2c0,0.7-0.5,1.2-1.2,1.5
		c-1,0.2-1.7,1-2,1.7l-9.7,2.7c-0.7,0.2-1.5,0.5-2.2,1.2l-3.2,2.5c-0.7,0.5-0.5,0.7,0.2,0.7c1.7,0,3.2-0.7,4.5-1.7
		c0.5-0.5,1.2-1,2-1.2l11.2-3.2c-5,2.2-10.4,4.5-15.6,6.2c-1.2,0.5-2.5,1-3.7,1.7c-3,1.5-7.4,1-9.9,1.5c-3.2,0.7-6.4,1.2-9.7,1.5
		c-0.7,0-1.5,0.5-1.7,1.2c-0.5,1.2-1.2,2.5-2.2,3.5c-4.2-9.4-6.2-16.1-6.2-20.1C624.5,714.8,630.2,695.5,640.6,678.4z" class="st36"></path>
	<path d="M522.6,683.1l-3.5,7.4c-7.2,15.1-15.9,29.5-26,43.1c-6.4,9.9-15.9,17.3-27,20.8c-2.5,0.7-3,2.2-1.7,4.2
		c-5.7,1-11.6,1.7-17.6,2c-24,0.5-47.8,0.7-71.9,1.2c-6.4,0.2-12.9-0.5-19.3-1.7c-22.6-8.9-38.7-16.4-48.8-22.6
		c-13.9-8.7-26.3-22.1-37.2-40.4l-3.5-8.2c14.6,0.5,29.2,2.2,43.4,2c19.3,0,38.7,0,58,0c18.6,0.2,43.4-0.7,74.3-2.7L522.6,683.1z" class="st37"></path>
	<path d="M269.8,697.5c10.7,18.3,23,31.7,37.2,40.4c10.2,6.2,26.3,13.9,48.8,22.6l-7.9,10.7c-0.5,0.7-1.2,1-2,1
		l-22.3,0.7l-14.6-8.9c-0.7-0.5-1.5-0.5-2.2-0.5c-3.7,0.2-6.9,3-7.9,6.7c-0.2,0.7-0.7,1.2-1.5,1.5l-4,1.2c-5-0.7-10.2-0.5-14.9,1.2
		c-1.5-1.5-2.5-3.2-3.2-5.2c-14.4-21.1-24.5-36.7-30.5-60.5c0.2-5.9,2.5-4.2,6.9,5c0.7,1.5,2,2.5,3.7,2.5c0.7,0,1.5,0.5,2,1
		c2.7,2.5,6.4,4,10.2,3.5c0.7,0,1.5-0.2,2.2-0.7c1-0.7,2-1,3.2-0.7c0.7,0.2,1.5-0.2,2-0.7c1-1.2,0.7-3-0.2-4.2
		c-1.2-2.2-4-5.7-8.2-10.9c-1-1-1.2-2.2-1-3.5C265.9,698.5,267.4,697.7,269.8,697.5z" class="st38"></path>
	<path d="M730.5,745.6l-0.7-1c-0.2-0.5-1-0.7-1.7-0.5c-0.5,0.2-1,1-0.7,1.5c0.7,2.7,1.2,5.2,2,7.4
		c0.2,1.5,0.5,3.2,0.5,4.7c0,1.7,1,3.5,2.5,4.5l-12.6,2.7c0.2-0.5,0.5-0.7,0.5-1.2c0-0.7-0.5-1.2-1.2-1.2h-0.2
		c-10.4,2.7-21.1,4.2-32,4.5c-0.7,0-1.5,0.5-1.5,1.2c0,0.2,0,0.2,0,0.5c0.2,2,1.5,4,3.2,4.7l-33.2,0.2c0.7-0.7,1.7-1.2,2.7-1.5
		c1-0.2,1.2-0.7,0.7-1.5l-0.2-0.7c-0.2-0.5-0.7-0.7-1.5-1c-6.2-0.2-12.1,0.2-17.3-3c-4.5-2.5-7.9-6.4-9.9-11.2c1-1,1.7-2.2,2.2-3.5
		c0.2-0.7,1-1.2,1.7-1.2c3.2-0.2,6.4-0.7,9.7-1.5c2.2-0.5,6.7,0,9.9-1.5c1.2-0.7,2.5-1.2,3.7-1.7c5.5-1.7,10.7-4,15.6-6.2
		c3-2.5,3.7-3.5,2.2-3l2.2-3.7c0.5-0.7,0.5-1.5,0.2-2.2c-1-3.2-2.5-6.4-4.5-9.2c-1-1.5-0.7-3.5,0.7-4.5c0,0,0.2,0,0.2-0.2
		c1-0.5,1.2-2.2,0.7-5.2c-0.5-2.2,0.2-2.7,2.2-1.2c5,3.7,9.9,6.9,15.4,9.9c4.7,2.5,9.7,4.5,14.9,5.7c5.5,1.2,10.9,2.2,16.4,3
		c1,0.2,2.2-0.2,2.5-1.2V727c0.5-1.7,1.2-3.2,2-5c1.7-3.7,1.5-7.9,3.7-11.4c0.7-1.2,1.2-1.2,1,0.2c0,3.5-0.5,6.9-1.2,10.4
		c-0.7,3.2-1.2,6.7-1.2,10.2C729.8,736.1,730,740.8,730.5,745.6z" class="st39"></path>
	<path d="M845.8,715.1c0.2,1,0.5,1.7,1.2,2.5c1,0.7,2.2,0.5,3.2,0c6.9,0.7,13.1,5,16.9,10.9c5,8.7,11.2,16.9,18.3,24
		l7.9,14.4c0.2,0.5,0.7,0.5,1,0.5c0.2,0,0.2-0.2,0.5-0.5c3.5-8.2,9.4-10.2,17.8-5.5c5,2.5,9.7,5.7,13.6,9.7c2.5,2.5,2,3.5-1.5,3.5
		c-19.1-0.7-38.4,1.2-57.7,0.5c-14.6-0.5-29.7,0.2-43.9-0.2c-9.2-0.5-18.3-0.2-27.3-1.5c-3.2-0.2-6.2,0-9.4,0.7
		c-2.5,0.5-5.2,0.2-7.4-0.5c-2.5-0.5-5-0.5-7.2,0l9.2-1.2c2.2-0.5,4-2.2,4.2-4.5c0-2,1-4,2.5-5.2c0.5-0.5,1-1.2,1.2-2
		c1-2.7,1.2-5.5,1-8.4c0-0.7,0-1.5,0.5-2.2c3.7-7.7,8.9-14.9,14.9-21.1c1,0,2-0.5,2.5-1.2c0.2-0.7,1-1.2,1.5-1.7
		c0.7-0.5,1.7-1.2,2.5-1.7c0.7-0.7,1.7-1.2,2.7-1.5c9.9-3,20.3-4.5,30.7-4.5C846,715.8,846.3,715.1,845.8,715.1z" class="st40"></path>
	<path d="M885.4,752.2c-7.2-7.2-13.4-15.1-18.3-24c-3.7-6.2-9.9-10.2-16.9-10.9c16.6-2.2,22.8,10.7,30.7,23.3
		C883.4,744.1,884.9,748.3,885.4,752.2z" class="st37"></path>
	<path d="M150.4,722.5c-4,0-7.9,0.7-11.6,2l-22.6,6.9c3-5.9,9.4-9.7,16.1-9.2c0.7,0,1.7-0.2,2.2-0.5
		C140,718.5,144.7,721.3,150.4,722.5z" class="st27"></path>
	<path d="M150.4,722.5c17.1,1.2,30.7,7.2,41.4,17.8c8.7,9.2,16.6,19.1,23.5,29.5c0.5,1.2,0.2,2.5,0,3.5l-43.4-0.2
		c-5-4.5-8.7-9.7-11.6-15.6c-3.2-8.2-6.7-16.6-10.4-24.8c-2.5-5.9-6.4-8.7-11.4-7.9C142.5,723.3,146.4,722.5,150.4,722.5z" class="st41"></path>
	<path d="M171.7,773.1l-73.1,0.5c-1.5,0-2.5-1-2.7-2.2c0-0.5,0-1,0.2-1.5l19.6-38.4l22.6-6.9c5-0.7,8.9,2,11.4,7.9
		c3.5,8.2,6.9,16.6,10.4,24.8C163,763.4,167,768.6,171.7,773.1z" class="st40"></path>
	<path d="M493.1,733.9l1.2,0.2c0.7,0.2,1.2,1,1,1.7c0,0.2,0,0.2-0.2,0.5c-5.2,8.2-12.6,14.9-21.1,19.3
		c-3.7,2-3.5,3.5,0.2,4.7c3,1,5.7,4.5,8.7,5.5c6.9,2.7,18.3,4.2,24.8-0.7c3-2,6.2-3,9.9-2.7c0.7,0,0.7,0.2,0.5,0.7l-0.7,1
		c-4.7,0.5-8.9,3.5-11.4,7.7c-0.5,0.7-1,1.2-1.7,1.5c-1.5,0.5-3.2,0.5-4.7,0.5c-6.9,0.7-13.9,0-20.6-1.7c-0.2-1.2-1-2.2-2.2-3
		l-12.6-10.2c-1.5-2-0.7-3.5,1.7-4.2C477,751,486.7,743.8,493.1,733.9z" class="st34"></path>
	<path d="M674.8,736.1c1.5-0.5,1,0.5-2.2,3l-11.2,3.2c-0.7,0.2-1.5,0.5-2,1.2c-1.2,1-2.7,1.7-4.5,2
		c-0.7,0-1-0.2-0.2-0.7l3.2-2.5c0.7-0.5,1.5-1,2.2-1.2l9.7-2.7L674.8,736.1z" class="st42"></path>
	<path d="M779.6,740.4c0.5,4.7,0.7,9.4,0.7,13.9c0.5,5-2.7,9.7-7.9,10.7c-7.9,2.2-17.1,5.9-25.5,5.2
		c-0.7,0-1.7-0.5-2.2-1c-1.7-1-3.2-2.5-4.7-4c-3.5-5-6.2-10.4-8.2-16.4c4.5,0,8.9-0.5,13.1-1.5c4.5-1.5,8.9-3.2,13.1-5.2
		c1.7-0.7,3.2-1.2,5.2-1.2c3.7-0.5,7.4-2.7,10.7-2.2C776.1,738.6,778.1,739.4,779.6,740.4z" class="st10"></path>
	<path d="M719.9,765.1c-5.7,3.5-11.9,5.9-18.3,6.9l-12.9,1.2c-1.7-1-3-2.7-3.2-4.7c0-0.7,0.5-1.5,1-1.5
		c0,0,0.2,0,0.5,0c10.9,0,21.6-1.5,32-4.5c0.7-0.2,1.2,0.2,1.5,0.7v0.2C720.4,764.4,720.1,764.6,719.9,765.1z" class="st43"></path>
	<path d="M732.5,762.4l8.4,9.4l-20.6,2.2c-6.4,0.7-12.4-1-18.8-2c6.4-1,12.6-3.5,18.3-6.9L732.5,762.4z" class="st6"></path>
	<path d="M636.1,768.1l7.2,5c-5.7-0.2-14.4,0-26.3,0.5c-10.2,0.5-28.5,0.2-54.8-0.5c-0.5,0-1,0-1.2-0.5
		c-0.5-0.5-0.5-1.2,0-1.7c0.2,0,0.2-0.2,0.5-0.2c4.2-1,8.4-1.2,12.6-1c13.6,0.2,28,0.2,43.4,0C624,769.6,630.2,769.1,636.1,768.1z" class="st27"></path>
	<path d="M275.5,769.1c0.5,2,1.7,3.7,3.2,5.2l-63.4-0.7c0.5-1.2,0.5-2.5,0-3.5h55.8c0.7,0,1.5,0.2,2.2,0.5
		c0.2,0.2,0.5,0.2,1,0.5c0.2,0,0.5,0,0.7,0C275.3,770.8,275.5,770.1,275.5,769.1z" class="st27"></path>
	<path d="M476.8,769.1c1,0.7,2,1.7,2.2,3c-4.7,1.5-9.4,0.7-13.4,0.7c-33.7,0.2-67.4,0.5-101.4,0.7c-4.2,0-8.2,0-12.1,0
		c-0.5,0-1-0.2-1-1c0,0,0,0,0-0.2v-1c0-0.7,0.5-1.2,1-1.2c5.9-1,11.6,0,17.6,0c33.5,0,66.9,0,100.4-0.2c1.7,0,3.5,0.5,5,1
		c0.5,0.2,1,0,1.2-0.5v-0.2L476.8,769.1z" class="st27"></path>
	<path d="M805.6,728.5c-5.9,6.2-11.2,13.1-14.9,21.1c-0.2,0.7-0.5,1.5-0.5,2.2c0.2,2.7-0.2,5.7-1,8.4
		c-0.2,0.7-0.7,1.5-1.2,2c-1.5,1.2-2.5,3.2-2.5,5.2c-0.2,2.2-2,4-4.2,4.5l-9.2,1.2c-7.9,0.5-15.9,1.2-23.5,2
		c-2.7-0.2-5.5-1.5-7.7-3.5l-8.4-9.4c-1.5-1-2.5-2.7-2.5-4.5c0-1.5-0.2-3.2-0.5-4.7c-0.7-2.2-1.2-5-2-7.4c-0.2-0.7,0.2-1.2,0.7-1.5
		c0.5-0.2,1.2,0,1.7,0.5l0.7,1l1.5,3.5c1.7,5.9,4.5,11.4,8.2,16.4c1.2,1.5,3,3,4.7,4c0.7,0.5,1.5,1,2.2,1c8.4,0.7,17.3-3,25.5-5.2
		c5-1,8.4-5.7,7.9-10.7c0-4.5-0.5-8.9-0.7-13.9c-1-4-1.7-7.9-1.7-12.1c0-3-0.2-5.9-0.7-8.7c-0.5-3-1-5.9-1.7-8.7
		c-0.7-4.5-0.2-9.9-2-14.6c-1-2.7-3.5-4.2-5-6.9c-0.2-0.7-0.2-1.5,0-2.2c0.7-2,1.2-4.2,1-6.4c0-0.7,0.2-1,1-1c0.2,0,0.5,0,0.7,0.2
		c0.5,0.2,0.7,0.7,0.5,1.5c-0.5,1.5-0.7,3-1,4.5c-0.7,1.7,0,3.7,1.7,4.7c0.7,0.2,1.5,0.5,2,0l1.5-0.5c0.7-0.2,1.5,0,1.7,0.7
		c0,0.2,0,0.5,0,0.5c-0.2,6.7-1.2,14.1,0.5,20.8c1.7,5.9,3,11.9,3.7,18.1c0.2,1.7,2,3,3.7,2.7c0.5,0,1-0.2,1.2-0.5
		c2.7-2,5.9-4,8.9-5.9c5.7-3.7,8.4-7.9,12.4-13.4c4-5.5,6.9-12.9,10.9-19.1c0,0,0.2-0.2,0.5,0l0,0l0.5,0.2c0.2,0.2,0.5,0.5,0.2,0.7
		l0,0l-9.7,20.3c-0.2,0.2-0.5,0.5-0.7,0.7s-0.5,0.5-0.5,0.7C808.8,720.8,807.4,724.7,805.6,728.5z" class="st44"></path>
	<path d="M795.7,664.3c1,5.7,7.4,9.2,13.4,10.4c9.4,2.2,14.6-11.2,17.6-17.6c2.2-5,3-4.7,1.5,0.5
		c-2.2,8.7-8.9,22.8-20.1,19.3c-4.2-1.2-8.2-3.2-11.6-5.7c-2.7-2-3.5-5.2-2.5-9.7c0.2-1,0.5-1,0.7,0
		C795.2,662.8,795.5,663.5,795.7,664.3z" class="st33"></path>
	<path d="M224.7,543.1l0.5-5.9c0.2-2.7,2.7-4.7,5.5-4.5c0.5,0,1.2,0.2,1.7,0.5l4.2,2.2c2.2,1.2,3.2,4.2,2,6.7l-1.2,2.5
		c-0.5,1.2-1.5,2-2.7,2.5l-3.5,1.2c-2.7,0.7-5.5-0.7-6.2-3.2C224.7,544.3,224.7,543.8,224.7,543.1z" class="st35"></path>
	<path d="M797.2,444.2c0.5,1,0,2.2-1.2,2.7l-0.2,0.2c-5.2,2.2-10.2,2-11.2-0.5l-0.2-0.5c-1-2.5,2.5-5.9,7.4-8.2h0.2
		c1-0.5,2.2,0,2.7,1.2L797.2,444.2z" class="st5"></path>
</g>
</svg>
