<?xml version="1.0" standalone="no"?><!DOCTYPE svg PUBLIC "-//W3C//DTD SVG 1.1//EN" "http://www.w3.org/Graphics/SVG/1.1/DTD/svg11.dtd"><svg height="1024" node-id="1" sillyvg="true" template-height="1024" template-width="1024" version="1.1" viewBox="0 0 1024 1024" width="1024" xmlns="http://www.w3.org/2000/svg" xmlns:xlink="http://www.w3.org/1999/xlink"><defs node-id="71"></defs><path d="M 562.00 256.20 L 560.90 253.60 C 560.90 253.00 560.00 252.70 559.80 252.70 C 559.60 252.70 559.50 252.70 559.20 253.00 C 558.90 253.30 558.60 253.90 558.60 254.40 C 558.60 262.10 557.70 269.80 555.70 277.30 C 554.00 281.30 551.70 285.00 548.80 288.50 C 548.50 289.10 548.50 289.60 549.10 290.20 C 549.40 290.20 549.40 290.50 549.70 290.50 L 550.60 290.80 C 551.70 291.10 552.90 290.50 553.50 289.70 C 561.50 278.50 564.40 268.00 562.40 258.00 C 565.50 257.70 568.40 256.60 571.00 254.90 C 573.00 253.50 575.30 252.30 577.60 251.80 C 585.00 250.40 592.50 249.20 599.90 248.70 C 601.30 248.70 602.50 247.80 603.30 246.70 C 604.20 245.30 605.90 244.70 607.30 245.60 C 608.20 245.90 608.40 246.70 608.70 247.60 C 609.60 251.30 609.60 255.30 608.40 259.00 C 602.40 279.30 594.10 299.00 583.80 317.60 C 582.70 319.60 583.50 322.20 585.50 323.60 C 590.60 326.50 596.40 327.60 602.40 327.30 C 600.10 328.20 597.80 329.30 595.80 331.00 C 594.90 331.60 594.10 331.90 593.20 331.90 L 588.90 332.20 C 582.60 321.60 574.00 312.80 564.00 305.60 C 541.10 288.40 514.80 276.70 486.50 271.90 L 469.90 272.20 C 463.90 273.30 457.90 273.60 451.90 272.50 L 405.90 282.50 C 404.80 282.80 403.60 281.90 403.30 280.80 C 403.30 280.50 403.30 280.20 403.30 279.90 C 404.40 276.80 403.00 273.00 400.20 271.30 C 396.50 267.90 391.60 265.90 386.50 265.90 C 380.80 266.50 375.30 265.90 369.90 264.50 C 369.00 264.20 368.20 264.20 367.30 264.80 C 365.90 265.40 365.60 266.20 365.90 267.10 C 359.00 270.50 352.70 275.40 347.30 281.10 C 346.40 282.20 345.30 283.10 344.20 283.70 C 342.20 280.00 341.30 275.70 341.30 271.40 C 343.00 256.80 349.30 243.10 359.30 231.90 C 359.90 231.30 361.00 231.00 361.90 231.30 C 367.60 234.20 372.50 238.20 376.20 243.00 C 377.30 244.40 379.30 244.70 380.80 243.60 C 381.10 243.60 381.10 243.30 381.40 243.00 C 384.50 239.30 391.10 231.80 396.30 232.10 C 402.60 232.40 407.70 240.70 410.00 245.80 C 410.60 247.20 412.30 247.80 413.40 247.20 C 413.70 247.20 414.00 246.90 414.30 246.60 C 422.90 237.40 433.20 230.00 444.30 224.90 C 446.00 223.80 448.00 224.30 449.20 226.00 C 449.20 226.30 449.50 226.30 449.50 226.60 C 454.10 233.50 456.90 241.50 458.70 249.50 C 459.80 255.80 461.30 262.10 462.40 268.40 C 462.70 269.30 463.30 270.10 464.10 270.40 C 464.70 270.70 465.20 270.70 466.10 270.40 C 467.00 270.40 467.20 269.50 467.20 268.70 L 467.20 268.40 C 466.90 267.50 466.90 266.70 467.20 265.80 C 467.20 264.90 467.50 264.40 468.10 263.80 C 470.70 260.40 473.50 257.20 476.70 254.40 C 479.80 251.50 483.90 249.80 488.10 249.50 C 493.80 248.90 499.30 248.40 504.40 247.50 C 505.30 247.50 506.10 246.90 506.70 246.60 C 507.60 246.00 508.40 245.50 509.60 245.20 C 510.50 244.90 511.30 244.30 511.90 243.80 C 523.10 232.10 537.40 223.80 552.80 219.80 C 555.70 218.90 558.50 220.70 559.10 223.50 C 559.10 223.80 559.10 224.10 559.10 224.40 L 562.00 256.20 Z" fill="#f0d1cd" fill-rule="nonzero" node-id="75" stroke="none" target-height="113.30002" target-width="268.3" target-x="341.3" target-y="218.9"></path><path d="M 794.20 317.40 C 792.20 320.80 791.60 324.30 789.10 327.10 C 781.90 334.50 773.90 334.00 764.50 324.80 C 758.80 319.40 754.80 320.50 747.60 318.80 C 732.40 316.20 722.10 302.20 724.10 287.10 C 725.20 273.90 732.70 265.90 742.40 258.20 C 747.30 254.20 749.30 249.30 753.00 244.20 C 767.30 226.20 789.90 231.30 796.20 253.40 C 796.80 255.40 798.20 256.80 800.20 257.10 C 812.50 260.20 819.60 267.70 821.70 279.70 C 824.60 296.00 818.80 306.90 804.80 313.20 C 802.50 314.30 799.10 314.30 796.20 315.50 C 795.40 316.00 794.50 316.60 794.20 317.40 Z M 747.30 260.00 C 726.70 269.40 717.80 301.50 741.90 313.50 C 747.90 316.60 754.80 317.80 761.60 316.60 C 763.30 316.30 764.70 317.20 765.30 318.60 C 768.20 324.60 771.90 327.80 776.70 328.00 C 780.70 328.60 784.40 326.60 786.40 323.10 C 787.80 320.50 789.00 318.00 789.80 315.10 C 790.40 313.10 791.80 312.00 793.80 311.70 C 809.80 310.60 818.10 302.30 818.70 286.50 C 819.00 274.50 814.70 266.50 805.00 262.20 C 802.70 261.30 800.40 260.50 797.80 259.60 C 791.20 257.60 792.40 251.00 790.40 247.00 C 785.80 238.40 778.40 235.30 767.80 237.60 C 760.10 239.30 754.40 244.80 750.90 253.90 C 750.80 256.80 749.30 258.80 747.30 260.00 Z" fill="#fe6037" fill-rule="nonzero" node-id="77" stroke="none" target-height="108.3" target-width="106.79999" target-x="717.8" target-y="226.2"></path><path d="M 741.90 313.40 C 717.90 301.40 726.70 269.40 747.30 259.90 C 749.30 258.80 751.00 256.80 751.60 254.50 C 755.00 245.30 760.50 239.90 768.50 238.20 C 778.80 235.90 786.20 239.10 791.10 247.60 C 793.40 251.60 792.00 258.20 798.50 260.20 C 800.80 260.80 803.40 261.60 805.70 262.80 C 815.10 267.10 819.70 275.10 819.40 287.10 C 818.80 302.80 810.50 311.10 794.50 312.30 C 792.50 312.30 790.80 313.70 790.50 315.70 C 789.90 318.60 788.80 321.10 787.10 323.70 C 785.10 327.10 781.40 329.10 777.40 328.60 C 772.50 328.00 768.80 324.90 766.00 319.20 C 765.40 317.80 763.70 316.60 762.30 317.20 C 754.80 317.70 747.90 316.60 741.90 313.40 Z" fill="#ffc156" fill-rule="nonzero" node-id="79" stroke="none" target-height="93.20001" target-width="101.79999" target-x="717.9" target-y="235.9"></path><path d="M 562.00 256.20 C 562.00 256.80 562.30 257.30 562.30 257.60 C 564.30 267.60 561.20 278.20 553.40 289.30 C 552.80 290.20 551.70 290.70 550.50 290.40 L 549.60 290.10 C 549.00 290.10 548.50 289.20 548.70 288.70 C 548.70 288.40 548.70 288.40 549.00 288.10 C 551.90 284.70 554.10 280.90 555.90 276.90 C 557.60 269.50 558.50 261.70 558.80 254.00 C 558.80 253.40 559.10 252.90 559.40 252.60 C 560.00 252.30 560.50 252.30 560.80 252.60 C 560.80 252.60 561.10 252.90 561.10 253.20 L 562.00 256.20 Z" fill="#dfa5ac" fill-rule="nonzero" node-id="81" stroke="none" target-height="38.40001" target-width="15.799988" target-x="548.5" target-y="252.3"></path><g node-id="228"><path d="M 296.01 253.93 L 297.67 254.31 L 299.12 255.17 L 300.31 256.44 L 301.21 258.07 L 301.73 259.92 L 301.83 262.00 L 301.47 264.06 L 300.74 265.83 L 299.64 267.34 L 298.31 268.45 L 296.76 269.13 L 295.07 269.30 L 293.42 268.92 L 291.96 268.06 L 290.78 266.80 L 289.88 265.16 L 289.36 263.32 L 289.26 261.23 L 289.61 259.18 L 290.35 257.41 L 291.44 255.89 L 292.78 254.79 L 294.32 254.10 L 296.01 253.93 Z" fill="#ffc156" fill-rule="nonzero" group-id="1" node-id="85" stroke="none" target-height="15.370758" target-width="12.57605" target-x="289.25592" target-y="253.93121"></path></g><path d="M 400.10 270.80 L 378.90 286.50 C 378.30 287.10 377.20 287.40 376.30 286.80 C 371.40 285.40 367.10 281.90 364.90 277.40 C 363.80 275.10 364.00 271.40 365.50 266.20 C 365.20 265.30 365.50 264.50 366.90 263.90 C 367.80 263.60 368.60 263.30 369.50 263.60 C 374.90 265.00 380.70 265.60 386.10 265.00 C 391.50 265.40 396.40 267.40 400.10 270.80 Z" fill="#ffbca9" fill-rule="nonzero" node-id="88" stroke="none" target-height="24.100006" target-width="36.30002" target-x="363.8" target-y="263.3"></path><path d="M 365.80 266.30 C 364.10 271.40 364.10 275.20 365.20 277.50 C 367.50 282.10 371.80 285.50 376.60 286.90 C 377.50 287.20 378.30 287.20 379.20 286.60 L 400.40 270.90 C 403.30 272.60 404.70 276.30 403.50 279.50 C 403.20 280.60 404.10 281.80 405.20 282.10 C 405.50 282.10 405.80 282.10 406.10 282.10 L 452.10 272.10 C 439.20 284.40 422.90 293.00 405.50 296.70 C 404.60 297.00 403.80 296.70 403.20 296.10 C 401.80 294.70 400.60 293.00 400.10 291.20 C 399.80 290.10 399.20 290.10 398.70 290.90 C 398.70 291.20 398.40 291.20 398.10 291.50 C 397.20 291.80 396.40 292.10 395.50 292.10 C 391.80 291.50 388.10 293.00 385.50 295.50 C 378.90 302.40 369.80 306.10 360.30 305.80 C 359.40 305.80 358.60 305.50 358.00 304.90 C 350.80 300.00 347.70 290.90 350.30 282.30 C 350.60 281.70 350.30 280.90 349.70 280.60 L 349.40 280.60 C 349.10 280.60 348.50 280.60 348.30 280.60 C 352.30 274.50 358.60 269.70 365.80 266.30 Z" fill="#fe6048" fill-rule="nonzero" node-id="90" stroke="none" target-height="39.80002" target-width="104.399994" target-x="347.7" target-y="266.3"></path><path d="M 486.50 271.10 C 485.60 271.70 484.50 271.70 483.40 271.70 C 482.80 271.70 482.50 272.00 482.30 272.60 L 482.30 272.90 C 482.30 273.20 482.30 273.50 482.30 273.80 C 482.60 274.70 483.20 274.90 483.70 275.20 C 514.30 279.50 543.20 292.40 566.90 312.40 C 574.30 318.70 581.20 325.80 586.90 333.90 C 593.80 349.30 599.20 365.10 603.80 381.40 C 606.10 390.80 608.10 400.30 609.20 410.00 C 610.30 419.70 611.50 429.40 612.60 438.90 C 612.90 441.80 612.90 444.90 612.60 447.80 C 612.30 452.40 613.70 455.20 616.00 456.40 C 610.90 457.80 605.40 459.00 599.70 460.10 C 581.10 464.10 563.70 471.80 548.50 483.00 C 546.20 484.70 543.60 486.10 541.30 487.30 C 541.00 487.60 540.70 487.90 540.70 488.20 C 540.70 488.80 541.00 489.30 541.80 489.10 C 546.70 488.20 550.70 486.50 555.50 487.40 C 561.50 488.50 567.80 486.50 572.40 482.50 C 579.00 476.50 587.30 471.90 596.10 469.90 C 603.00 468.50 609.80 467.60 616.70 467.00 C 627.90 466.10 639.90 464.40 652.50 462.40 L 649.10 459.80 L 655.10 469.00 C 654.20 471.60 654.80 474.40 656.20 476.70 C 656.80 477.60 657.10 478.40 657.10 479.30 C 657.10 482.20 658.20 484.20 660.20 484.70 C 656.20 495.60 656.50 504.70 661.30 512.40 C 660.20 512.10 659.60 512.10 659.00 512.70 C 658.10 514.10 658.40 516.10 659.30 517.60 C 666.70 529.60 673.90 541.30 680.80 552.80 C 683.90 557.90 686.80 563.10 689.40 568.50 L 689.70 570.80 C 690.00 571.70 689.70 572.50 689.10 573.40 C 688.20 575.10 688.20 576.30 689.40 577.10 C 688.50 577.70 687.70 578.20 686.50 578.20 C 672.80 578.80 659.60 583.60 648.70 591.90 C 648.40 592.20 648.10 592.50 648.40 592.80 L 648.40 592.80 L 648.70 593.40 C 648.70 593.40 649.00 593.70 649.30 593.40 L 649.30 593.40 C 657.60 588.30 666.70 584.20 676.20 581.40 C 677.10 581.10 678.20 581.40 679.10 582.00 C 683.70 585.70 687.70 590.60 690.30 596.00 C 685.70 593.70 683.40 596.90 679.10 595.10 C 676.80 594.00 674.00 595.10 673.10 597.40 C 672.00 600.30 670.20 602.80 668.00 604.80 C 662.30 609.90 654.60 618.80 657.70 626.50 C 659.70 631.40 666.00 635.10 670.60 638.50 C 671.50 639.10 672.30 639.40 673.20 639.40 C 675.80 639.70 678.60 638.50 680.60 636.80 C 681.70 635.40 683.70 635.10 685.20 636.20 C 685.50 636.50 685.80 636.50 685.80 636.80 L 688.40 639.40 C 689.80 640.50 690.10 642.80 689.00 644.30 C 689.00 644.60 688.70 644.60 688.70 644.90 C 682.40 652.30 675.00 659.20 667.20 664.90 C 665.50 666.30 663.50 667.20 661.20 667.20 C 657.20 666.90 656.30 668.30 659.20 671.50 C 659.80 672.10 661.80 672.10 665.20 671.50 L 664.90 674.90 L 660.60 697.80 C 660.30 698.70 660.00 699.50 659.20 699.80 C 654.10 703.20 648.60 706.40 643.20 708.70 C 612.00 721.30 580.30 732.70 548.20 743.30 C 519.90 752.50 489.60 759.60 460.10 766.80 C 451.50 768.80 443.50 768.20 434.90 768.20 C 432.90 768.20 432.00 767.30 432.60 765.30 C 434.60 755.90 438.00 746.70 442.60 738.10 C 446.00 732.10 449.20 726.10 452.00 719.80 C 456.30 710.90 460.90 702.10 466.30 693.80 C 466.90 692.90 466.60 691.50 465.70 690.90 C 465.40 690.60 464.80 690.60 464.00 690.90 L 475.20 672.60 C 486.40 658.90 498.10 643.10 510.40 625.70 C 517.30 615.70 520.70 603.70 519.80 591.40 C 518.90 569.10 511.50 551.60 497.20 534.50 C 487.50 522.80 474.60 514.20 460.30 509.00 C 450.30 505.60 436.60 503.90 418.80 504.40 C 390.80 505.30 363.30 507.30 336.70 510.10 C 311.80 513.00 294.10 515.80 283.50 518.70 C 247.20 529.00 224.00 552.20 214.00 588.20 C 212.60 593.30 211.10 597.60 210.00 601.40 C 204.60 603.10 202.00 609.40 202.30 620.00 C 202.60 629.20 202.60 638.00 202.90 647.20 C 202.90 647.80 202.60 648.30 202.00 648.30 L 201.70 648.30 C 187.70 645.40 173.70 641.10 160.50 635.40 C 157.60 634.00 155.10 632.30 152.80 630.00 C 151.40 628.60 151.40 626.30 152.80 624.90 C 153.40 624.30 153.70 624.00 154.50 624.00 C 159.10 622.90 163.70 621.40 168.50 620.00 C 184.50 615.10 178.20 596.30 170.50 588.00 C 169.90 587.40 168.80 586.90 167.90 586.90 C 159.90 586.30 152.50 592.30 148.20 598.30 C 147.60 599.20 146.50 599.20 145.60 598.60 C 145.30 598.30 145.00 598.00 145.00 597.70 L 137.00 573.70 C 136.70 572.60 135.30 571.70 134.10 572.30 C 133.80 572.30 133.50 572.60 133.20 572.90 C 129.50 576.60 126.60 581.20 125.80 586.60 C 126.70 573.70 128.90 560.90 133.20 548.60 C 136.10 539.70 142.90 544.00 148.90 545.20 C 151.80 545.50 154.60 545.20 157.20 543.80 C 159.80 542.40 162.30 540.90 164.90 539.50 C 167.20 537.80 170.00 536.60 172.90 536.10 C 180.60 534.70 188.90 533.20 197.80 531.80 C 202.70 531.20 205.00 529.20 204.70 526.70 C 208.40 530.70 211.00 535.60 212.40 540.70 C 213.30 545.30 213.30 550.10 211.80 554.70 C 210.40 561.00 209.80 567.00 209.50 573.30 C 209.50 573.90 209.80 574.20 210.10 574.20 L 210.40 574.20 L 211.30 574.20 C 212.20 574.20 212.70 573.60 212.70 572.80 C 213.60 565.40 215.00 558.20 217.00 551.30 C 218.40 545.90 218.40 541.90 216.70 539.00 C 212.40 531.60 207.50 523.80 202.10 515.80 C 201.50 514.90 201.00 514.90 200.40 516.10 C 200.10 517.00 200.10 517.50 200.40 518.40 L 193.80 502.70 C 196.90 492.40 200.40 482.10 204.10 472.10 C 205.50 467.80 208.10 462.10 211.80 454.90 C 214.70 449.20 217.20 443.50 219.20 437.70 C 218.60 440.30 218.60 442.60 219.20 445.10 C 219.50 446.20 220.10 446.20 220.90 446.00 C 223.20 444.90 224.90 442.90 226.30 440.90 C 226.30 446.90 223.70 452.60 219.10 456.30 C 218.20 456.90 218.00 457.70 217.70 458.60 C 216.60 462.60 217.10 466.90 219.10 470.60 C 226.00 483.80 240.60 485.20 250.60 475.20 C 253.70 472.10 256.30 468.30 258.00 464.00 C 259.10 461.10 261.70 455.70 265.70 447.40 C 269.70 439.10 259.10 436.80 254.30 434.80 L 250.30 432.50 C 245.70 429.90 239.40 429.60 231.70 431.90 C 237.40 420.50 237.70 409.90 232.80 400.20 C 236.20 387.00 241.10 374.50 247.10 362.20 C 256.00 343.60 269.40 327.60 286.60 315.90 L 290.30 315.90 C 291.20 315.90 292.00 315.30 292.30 314.80 C 293.70 312.50 295.70 312.20 298.90 313.10 C 300.00 313.40 300.90 314.80 300.60 316.00 C 300.30 319.70 299.20 323.70 296.90 326.90 C 296.30 327.80 296.00 328.60 296.00 329.80 C 296.00 331.20 295.40 332.70 294.00 333.20 C 293.10 333.50 292.90 334.30 292.90 335.20 C 292.90 337.80 292.00 340.10 290.60 342.10 C 290.00 343.00 289.50 343.80 289.20 344.70 C 287.80 349.00 284.10 351.30 278.30 351.00 C 268.90 357.30 261.70 366.20 257.70 376.70 C 252.60 391.60 250.80 407.60 252.80 423.30 C 258.50 433.30 266.20 435.00 275.70 429.00 C 275.40 430.70 276.60 432.10 278.80 432.70 C 279.90 433.00 281.10 433.60 281.90 434.40 C 283.30 435.80 285.00 437.00 287.00 438.10 C 289.60 439.20 292.10 439.80 295.00 439.80 C 301.90 439.80 304.70 441.20 303.90 444.40 C 298.20 449.50 290.20 447.00 283.90 445.80 C 283.00 445.50 282.20 446.40 281.90 447.20 L 281.90 447.50 L 281.90 448.40 C 281.90 449.80 283.00 451.00 284.50 451.30 C 290.20 452.70 296.20 451.90 301.40 449.30 C 320.60 437.60 343.20 432.40 365.50 434.40 C 378.10 435.80 390.70 436.40 403.50 436.10 C 409.50 435.20 415.50 433.50 420.70 430.40 C 430.40 424.40 440.40 419.50 449.00 411.80 C 450.10 410.90 450.40 408.90 449.60 407.80 C 449.60 407.80 449.60 407.50 449.30 407.50 C 447.60 406.60 445.90 406.10 444.20 405.80 C 446.50 402.90 447.90 399.50 448.80 396.10 C 449.40 391.50 449.40 387.20 449.10 382.70 C 449.10 381.00 449.40 379.60 450.50 378.40 L 451.40 377.30 C 451.70 376.70 452.30 376.70 452.80 377.00 C 453.10 377.30 453.10 377.30 453.10 377.60 C 453.40 379.90 454.00 382.50 455.10 384.50 C 458.20 397.90 468.30 411.10 483.70 407.70 C 505.70 402.80 511.20 384.80 509.20 364.50 C 508.30 351.90 501.80 340.50 491.20 333.60 C 488.60 332.20 486.60 330.20 485.50 327.60 C 484.60 324.20 483.80 320.70 482.60 317.60 C 481.50 314.50 480.60 311.00 480.60 307.30 C 480.60 301.60 480.00 295.60 478.90 289.90 C 478.60 289.00 478.30 288.20 477.50 287.60 C 475.80 286.20 474.10 284.50 472.90 282.50 C 471.20 279.60 470.00 276.50 470.00 273.10 L 486.50 271.10 Z M 541.40 403.50 C 544.30 403.50 546.30 395.50 545.70 386.10 C 545.10 376.70 542.60 368.90 539.70 369.20 C 536.80 369.50 534.80 377.20 535.40 386.60 C 536.00 396.10 538.50 403.80 541.40 403.50 Z M 506.20 414.10 C 504.80 416.70 503.30 419.00 501.60 421.50 C 498.70 425.80 494.70 424.90 492.40 420.90 C 486.70 410.90 473.00 422.00 480.10 433.50 C 482.70 437.50 486.10 440.70 490.10 442.70 C 508.40 452.70 526.70 445.30 538.70 429.50 C 543.60 424.10 544.70 416.10 541.80 409.50 C 541.50 408.40 540.40 407.50 539.50 407.20 C 534.90 405.80 530.60 402.60 525.80 402.30 C 516.80 401.50 510.20 405.50 506.20 414.10 L 506.20 414.10 Z M 582.00 493.90 C 580.90 491.90 578.00 491.30 576.00 492.50 C 575.40 492.80 574.90 493.40 574.60 493.90 C 568.00 501.60 566.60 509.30 570.30 517.60 C 570.90 518.70 571.40 519.30 572.60 519.90 C 579.50 523.90 586.00 529.10 591.50 535.10 C 599.20 543.40 606.10 538.20 615.00 537.10 C 615.90 536.80 616.70 537.40 617.30 538.20 C 619.00 541.10 619.60 544.50 622.20 546.80 C 628.20 552.50 634.20 553.40 640.50 549.40 C 643.90 546.80 646.50 543.10 647.40 539.10 C 648.50 534.80 649.40 530.50 649.40 526.20 C 649.70 514.80 649.10 503.30 648.00 491.90 C 647.10 481.90 642.00 475.90 632.60 474.50 C 629.20 473.90 625.70 475.90 624.60 479.40 C 620.90 490.80 613.70 504.60 598.90 500.30 C 594.30 499.20 589.50 497.40 584.90 495.70 C 583.70 495.10 582.90 494.50 582.00 493.90 Z M 593.40 572.00 C 591.10 565.70 580.80 551.10 571.90 553.70 C 552.20 559.70 553.00 585.70 573.90 588.90 C 587.90 591.20 602.20 588.30 614.20 581.50 C 615.10 580.90 615.30 579.80 614.80 578.90 C 614.50 578.60 614.50 578.30 614.20 578.30 C 609.60 575.40 604.20 574.60 598.80 575.40 C 596.60 575.40 594.30 574.30 593.40 572.00 L 593.40 572.00 Z M 165.30 569.10 C 167.30 563.40 164.40 557.10 159.00 555.10 C 153.30 553.10 147.00 556.00 145.00 561.40 C 143.00 566.80 145.90 573.40 151.30 575.40 C 151.60 575.40 151.90 575.70 152.20 575.70 C 157.60 577.40 163.30 574.60 165.30 569.10 L 165.30 569.10 Z M 649.50 614.30 C 649.50 612.60 648.10 611.40 646.60 611.40 L 644.90 611.40 C 643.20 611.40 642.00 612.50 642.00 614.00 L 642.00 614.30 L 642.00 623.70 C 642.00 625.40 643.10 626.60 644.60 626.60 L 644.90 626.60 L 646.60 626.60 C 648.30 626.60 649.50 625.50 649.50 624.00 L 649.50 623.70 L 649.50 614.30 Z" fill="#fe6048" fill-rule="nonzero" node-id="92" stroke="none" target-height="497.69998" target-width="564.5" target-x="125.8" target-y="271.1"></path><path d="M 469.60 271.40 C 469.60 274.80 470.70 278.00 472.50 280.80 C 473.90 282.80 475.40 284.50 477.10 285.90 C 477.70 286.50 478.20 287.30 478.50 288.20 C 479.60 293.90 480.20 299.60 480.20 305.60 C 480.20 309.00 480.80 312.50 482.20 315.90 C 483.30 319.30 484.20 322.50 485.10 325.90 C 486.20 328.50 488.20 330.80 490.80 331.90 C 478.80 326.50 469.90 329.00 463.60 339.60 C 460.70 344.20 458.50 349.30 456.70 354.50 C 454.40 363.70 453.80 373.40 454.70 382.80 C 453.60 380.50 453.00 378.20 452.70 375.90 C 452.70 375.30 452.10 375.00 451.60 375.00 C 451.30 375.00 451.00 375.30 451.00 375.30 L 450.10 376.40 C 449.20 377.50 448.70 379.30 448.70 380.70 C 449.00 385.30 449.00 389.60 448.40 394.10 C 447.50 397.50 445.80 401.00 443.50 403.80 C 439.80 408.90 435.20 413.50 430.10 417.50 C 416.10 428.40 405.50 430.70 386.60 429.50 C 367.70 428.30 343.40 425.20 326.50 430.60 C 318.50 433.70 310.80 437.50 303.60 442.30 C 304.50 439.20 301.60 437.70 294.70 437.70 C 291.80 437.70 289.30 437.10 286.70 436.00 C 285.00 435.10 283.30 433.70 281.60 432.30 C 280.70 431.40 279.60 430.90 278.50 430.60 C 276.20 430.00 275.10 428.90 275.40 426.90 C 280.30 422.60 284.00 417.20 286.60 411.20 C 292.90 395.50 298.60 366.30 288.30 352.60 C 286.00 349.50 281.70 348.00 278.00 348.90 C 283.70 349.20 287.40 346.90 288.90 342.60 C 289.20 341.70 289.80 340.90 290.30 340.00 C 291.70 338.00 292.60 335.70 292.60 333.10 C 292.60 332.20 292.90 331.40 293.70 331.10 C 295.10 330.50 295.70 329.10 295.70 327.70 C 295.70 326.60 296.00 325.70 296.60 324.80 C 298.60 321.70 300.00 317.60 300.30 313.90 C 300.60 312.80 299.70 311.30 298.60 311.00 C 295.50 309.90 293.20 310.40 292.00 312.70 C 291.70 313.60 290.90 313.80 290.00 313.80 L 286.30 313.80 L 316.30 292.60 L 343.80 281.40 C 344.90 280.80 346.10 280.00 346.90 278.80 C 347.20 278.80 347.80 278.80 348.00 278.80 C 348.60 278.80 349.10 279.40 349.10 280.20 C 349.10 280.50 349.10 280.50 349.10 280.50 C 346.50 288.80 349.70 297.90 356.80 302.80 C 357.40 303.40 358.20 303.70 359.10 303.70 C 368.50 304.00 377.70 300.00 384.30 293.40 C 386.90 290.80 390.60 289.40 394.30 290.00 C 395.20 290.00 396.00 290.00 396.90 289.40 C 397.20 289.40 397.20 289.10 397.50 288.80 C 398.10 287.90 398.60 287.90 398.90 289.10 C 399.80 290.80 400.90 292.50 402.00 294.00 C 402.60 294.60 403.40 294.90 404.30 294.60 C 421.70 290.90 437.80 282.60 450.90 270.30 C 457.30 272.80 463.60 272.80 469.60 271.40 Z M 349.20 384.70 C 348.90 383.30 345.80 382.70 342.60 383.60 C 339.50 384.50 336.90 386.20 337.50 387.60 C 338.10 389.00 340.60 389.60 344.10 388.70 C 347.50 387.80 349.50 386.10 349.20 384.70 Z" fill="#df615d" fill-rule="nonzero" node-id="94" stroke="none" target-height="172" target-width="215.69998" target-x="275.1" target-y="270.3"></path><path d="M 486.50 271.10 C 514.50 276.00 541.10 287.70 564.00 304.80 C 574.00 312.00 582.60 320.80 588.90 331.40 C 588.90 331.70 588.90 332.00 588.90 332.30 C 587.80 332.60 587.20 332.90 587.50 333.40 C 581.80 325.40 574.90 318.20 567.50 311.90 C 543.80 291.90 514.90 279.00 484.30 274.70 C 483.40 274.70 482.90 274.10 482.90 273.30 C 482.90 273.00 482.90 272.70 482.90 272.40 C 482.90 271.80 483.20 271.50 483.80 271.50 L 484.10 271.50 C 484.50 272.00 485.60 271.70 486.50 271.10 Z" fill="#ea372a" fill-rule="nonzero" node-id="96" stroke="none" target-height="62.299988" target-width="106.00003" target-x="482.9" target-y="271.1"></path><path d="M 316.30 294.00 L 286.30 315.20 C 269.40 326.90 255.70 342.90 246.80 361.50 C 240.80 373.80 235.90 386.40 232.50 399.50 L 219.10 436.70 C 216.80 442.40 214.50 448.10 211.70 453.90 C 208.00 461.10 205.40 466.80 204.00 471.10 C 200.30 481.10 196.80 491.10 193.70 501.70 C 188.00 491.70 188.80 480.00 196.30 466.50 C 198.00 465.60 198.90 463.60 198.60 461.90 C 198.60 461.00 198.00 460.20 197.20 460.20 C 194.90 459.90 192.60 459.30 190.60 458.50 C 176.60 450.50 163.70 441.10 152.30 430.20 C 150.60 428.80 149.20 427.10 148.00 425.30 C 144.90 421.30 142.60 420.70 141.40 423.00 C 140.50 422.10 140.30 421.00 140.80 419.90 C 141.10 419.00 141.90 418.50 142.80 418.20 C 152.80 416.20 165.40 419.90 175.10 420.50 C 177.70 420.80 179.70 418.80 180.00 416.50 C 180.00 415.90 180.00 415.10 179.70 414.50 C 177.70 409.40 175.70 404.80 173.70 400.50 C 171.40 395.90 170.00 391.10 169.70 386.20 C 169.10 379.30 169.40 372.50 170.60 365.60 C 170.60 365.00 170.90 364.70 171.50 364.50 C 172.10 363.90 172.60 363.40 172.90 362.80 C 179.50 350.80 185.20 338.50 190.60 325.60 C 191.70 323.00 194.60 321.90 196.90 322.70 C 197.80 323.00 198.60 323.60 199.20 324.40 C 205.20 333.30 212.10 341.60 219.50 349.30 C 221.80 351.60 223.50 354.20 224.90 356.70 C 226.30 359.80 228.90 362.10 232.10 363.00 C 236.10 364.40 240.40 362.70 242.40 359.00 C 243.00 357.90 243.50 357.00 244.40 355.90 C 251.80 344.70 257.30 337.00 260.70 333.00 C 274.30 314.30 294.00 300.90 316.30 294.00 Z" fill="#f0d1cd" fill-rule="nonzero" node-id="98" stroke="none" target-height="207.70001" target-width="175.99998" target-x="140.3" target-y="294"></path><path d="M 666.40 338.60 C 666.10 336.00 665.00 334.90 663.30 334.60 C 662.40 334.60 661.30 334.90 661.00 335.70 C 659.60 337.70 657.60 339.10 655.30 339.70 C 637.60 344.00 618.70 342.00 602.40 334.00 C 598.10 332.30 593.50 331.70 589.00 332.30 C 589.00 332.00 589.00 331.70 589.00 331.40 L 593.30 331.10 C 594.20 331.10 595.00 330.80 595.90 330.20 C 597.90 328.50 600.20 327.30 602.50 326.50 C 613.40 324.20 624.20 323.10 635.40 323.10 C 639.40 323.10 643.10 322.50 646.80 321.10 C 652.20 319.70 657.70 319.70 663.10 320.80 C 664.00 320.80 664.80 321.70 664.80 322.50 L 666.40 338.60 Z" fill="#e2917e" fill-rule="nonzero" node-id="100" stroke="none" target-height="24.299988" target-width="77.400024" target-x="589" target-y="319.7"></path><path d="M 491.10 332.00 C 501.70 338.90 508.50 350.30 509.10 362.90 C 511.10 383.20 505.70 401.20 483.60 406.10 C 467.90 409.50 458.10 396.40 455.00 382.90 C 454.10 373.50 455.00 363.70 457.00 354.60 C 458.70 349.50 461.00 344.30 463.90 339.70 C 470.20 329.20 479.00 326.60 491.10 332.00 Z M 492.20 372.60 C 496.80 371.20 498.80 364.30 496.50 357.70 C 494.20 351.10 488.80 346.50 484.20 348.00 C 479.60 349.50 477.60 356.30 479.90 363.20 C 482.20 370.10 487.30 374.10 492.20 372.60 Z M 473.00 399.00 C 474.70 401.00 477.00 402.10 479.60 401.90 L 488.80 401.00 C 493.10 400.70 496.20 396.70 496.00 392.40 C 495.70 390.40 494.90 388.70 493.40 387.30 L 482.20 377.60 C 479.30 375.00 475.00 375.00 472.20 377.30 L 467.90 380.70 C 464.50 383.30 463.90 388.40 466.80 391.90 L 466.80 391.90 L 473.00 399.00 Z" fill="#2c0707" fill-rule="nonzero" node-id="102" stroke="none" target-height="82.899994" target-width="57" target-x="454.1" target-y="326.6"></path><path d="M 588.90 332.30 C 593.50 331.70 598.10 332.30 602.30 334.00 C 618.90 342.00 637.50 344.00 655.20 339.70 C 657.50 339.10 659.50 337.70 660.90 335.70 C 661.50 334.80 662.30 334.60 663.20 334.60 C 664.90 334.90 666.10 336.00 666.30 338.60 C 668.00 368.10 667.40 397.80 664.60 427.30 C 664.30 430.40 665.50 431.30 668.00 429.00 C 675.40 423.60 684.30 420.70 693.50 421.30 C 698.40 421.30 703.50 420.40 708.10 418.40 C 711.00 417.30 712.70 418.10 713.20 421.30 C 716.60 440.50 718.30 460.20 718.60 479.60 C 718.60 493.60 712.30 508.20 707.40 521.40 C 707.10 522.00 707.40 522.80 708.00 523.40 L 708.30 523.40 C 708.60 523.40 709.20 523.40 709.70 522.80 C 715.40 518.80 721.10 515.10 727.10 511.60 C 730.80 511.60 734.50 510.50 738.00 508.70 C 740.90 506.70 744.90 507.60 746.60 510.40 C 746.90 510.70 746.90 511.00 747.20 511.50 C 750.10 516.40 752.60 521.50 754.60 526.70 C 758.30 535.30 746.30 540.70 740.00 543.30 C 734.90 544.70 729.40 543.00 725.70 539.00 C 722.80 535.90 720.80 536.40 720.00 540.70 L 719.40 543.80 C 718.50 547.20 720.00 551.00 723.10 552.70 C 737.70 562.70 753.40 557.80 769.70 551.30 C 773.10 549.90 776.30 548.20 779.40 545.90 C 789.10 537.90 796.30 525.60 801.70 514.40 C 804.00 509.30 805.70 503.80 807.10 498.10 C 808.50 492.70 810.50 487.20 812.80 481.80 C 813.40 480.40 815.10 479.80 816.50 480.40 C 816.80 480.40 817.10 480.70 817.40 481.00 C 820.80 485.00 822.30 490.40 821.70 495.60 C 818.30 517.60 809.10 538.20 795.40 555.70 C 785.70 567.10 772.80 575.40 758.20 579.20 C 749.30 581.20 740.20 580.30 731.90 576.60 C 727.60 574.90 726.80 576.00 729.30 579.70 C 733.60 585.40 729.60 580.60 730.20 582.00 C 730.50 582.90 730.20 583.70 729.60 584.00 C 729.60 584.00 729.60 584.00 729.30 584.00 C 728.20 584.60 726.70 584.60 725.90 583.70 C 714.50 576.80 704.20 568.30 695.30 558.20 C 691.30 553.90 690.40 554.50 692.70 559.90 C 694.10 563.60 693.00 565.90 689.30 566.50 C 686.70 561.10 683.90 555.90 680.70 550.80 C 673.80 539.40 666.70 527.60 659.20 515.60 C 658.30 514.20 658.10 512.50 658.90 510.70 C 659.20 510.10 660.00 510.10 661.20 510.40 L 669.20 517.60 C 669.80 518.20 670.90 518.20 671.20 517.30 L 671.50 517.00 L 675.20 509.60 C 682.90 511.00 682.90 521.60 687.50 526.50 C 689.20 528.20 690.90 529.60 693.20 530.80 C 694.30 531.40 695.80 530.80 696.30 529.90 L 701.20 521.30 C 702.90 518.40 702.10 515.00 699.50 513.00 C 696.40 510.70 693.50 507.90 690.60 505.30 C 687.70 502.70 685.70 499.60 684.00 495.90 C 682.30 492.20 680.60 488.70 678.30 485.60 C 677.70 485.00 677.70 483.90 678.60 483.30 C 678.60 483.30 678.90 483.30 678.90 483.00 C 680.90 481.60 682.60 479.30 683.50 477.00 C 683.80 476.10 683.80 475.30 683.20 474.70 L 678.90 469.30 C 678.00 468.40 677.80 467.30 678.00 466.20 C 679.10 462.50 677.10 458.80 673.70 457.30 C 671.70 456.40 669.70 456.70 668.00 457.90 L 655.40 467.60 L 649.70 458.40 C 650.60 454.40 654.60 450.10 661.10 445.80 C 662.20 444.90 662.50 444.10 661.70 443.20 C 661.10 442.60 660.30 442.30 659.70 442.60 L 659.70 442.60 C 655.10 445.70 650.80 445.20 646.50 440.90 C 641.60 436.00 637.10 431.20 633.10 426.60 C 629.70 422.90 625.90 421.70 622.20 423.50 C 619.30 424.90 617.10 427.80 616.50 430.90 C 615.40 435.20 615.40 439.50 616.20 443.80 C 616.50 444.70 616.80 445.50 617.30 446.40 C 619.60 449.30 619.60 452.70 617.00 456.70 L 617.00 455.80 C 614.40 454.40 613.30 451.50 613.60 447.20 C 613.90 444.30 613.90 441.20 613.60 438.30 C 612.50 428.60 611.30 418.90 610.20 409.40 C 609.10 399.70 607.30 390.20 604.80 380.80 C 600.50 364.50 594.80 348.80 587.90 333.30 C 587.20 332.90 587.40 332.60 588.90 332.30 Z M 635.80 382.10 C 625.20 379.80 620.60 393.00 631.80 397.80 C 637.20 400.10 643.00 401.80 649.00 402.90 C 653.30 403.50 655.00 401.80 653.60 397.50 C 650.90 389.50 644.10 383.50 635.80 382.10 Z" fill="#6c3d4f" fill-rule="nonzero" node-id="104" stroke="none" target-height="253.70001" target-width="235.09998" target-x="587.2" target-y="331.7"></path><path d="M 496.37 357.63 L 496.96 359.94 L 497.24 362.12 L 497.24 364.19 L 496.95 366.24 L 496.41 368.03 L 495.64 369.59 L 494.60 370.95 L 493.37 371.96 L 491.92 372.66 L 490.34 372.95 L 488.74 372.86 L 487.10 372.38 L 485.56 371.57 L 484.07 370.45 L 482.63 368.97 L 481.40 367.30 L 480.34 365.37 L 479.45 363.16 L 478.86 360.85 L 478.58 358.67 L 478.58 356.59 L 478.87 354.54 L 479.41 352.76 L 480.18 351.20 L 481.22 349.84 L 482.45 348.83 L 483.90 348.13 L 485.48 347.84 L 487.07 347.93 L 488.72 348.41 L 490.26 349.21 L 491.75 350.33 L 493.19 351.82 L 494.42 353.49 L 495.48 355.41 L 496.37 357.63 Z" fill="#f6f7f9" fill-rule="nonzero" group-id="2" node-id="108" stroke="none" target-height="25.111786" target-width="18.667664" target-x="478.57516" target-y="347.83786"></path><path d="M 287.10 412.10 C 286.20 408.70 284.80 405.20 282.80 402.10 C 281.10 399.20 277.70 397.80 274.50 398.40 C 266.50 399.80 261.90 403.30 260.50 408.70 C 259.40 413.30 258.80 417.90 258.50 422.70 C 258.50 423.80 257.90 424.40 257.10 424.40 C 256.30 424.40 255.40 424.10 255.10 423.30 C 254.50 421.90 254.00 421.60 253.10 422.40 C 251.10 406.70 252.80 390.70 258.00 375.80 C 262.00 365.20 269.20 356.40 278.60 350.10 C 282.30 349.20 286.60 350.70 288.90 353.80 C 299.10 367.20 293.40 396.40 287.10 412.10 Z M 271.40 390.70 C 274.80 392.10 280.00 388.40 282.80 382.10 C 285.70 375.80 285.10 369.50 281.70 367.80 C 278.30 366.10 273.10 370.10 270.30 376.40 C 267.40 382.70 267.70 389.20 271.40 390.70 Z" fill="#2c0707" fill-rule="nonzero" node-id="111" stroke="none" target-height="75.19998" target-width="48" target-x="251.1" target-y="349.2"></path><path d="M 281.24 367.80 L 282.27 368.47 L 283.09 369.44 L 283.73 370.78 L 284.20 373.05 L 284.17 375.91 L 283.61 378.88 L 282.46 382.11 L 280.85 385.13 L 279.04 387.55 L 276.95 389.50 L 274.95 390.69 L 273.53 391.12 L 272.26 391.16 L 271.07 390.86 L 270.04 390.18 L 269.21 389.21 L 268.57 387.88 L 268.10 385.60 L 268.13 382.74 L 268.69 379.77 L 269.84 376.54 L 271.45 373.52 L 273.27 371.10 L 275.35 369.15 L 277.35 367.97 L 278.77 367.53 L 280.04 367.49 L 281.24 367.80 Z" fill="#f6f7f9" fill-rule="nonzero" group-id="3" node-id="115" stroke="none" target-height="23.672913" target-width="16.102905" target-x="268.09998" target-y="367.48956"></path><path d="M 545.90 386.17 L 545.93 390.86 L 545.61 394.87 L 544.94 398.56 L 544.08 401.12 L 543.25 402.56 L 542.44 403.31 L 541.62 403.59 L 540.78 403.39 L 539.90 402.72 L 538.93 401.36 L 537.84 398.90 L 536.82 395.28 L 536.12 391.32 L 535.71 386.65 L 535.68 381.95 L 536.00 377.94 L 536.68 374.25 L 537.54 371.69 L 538.37 370.25 L 539.18 369.50 L 540.00 369.22 L 540.84 369.42 L 541.71 370.09 L 542.68 371.45 L 543.78 373.92 L 544.80 377.53 L 545.49 381.49 L 545.90 386.17 Z" fill="#2c0707" fill-rule="nonzero" group-id="4" node-id="120" stroke="none" target-height="34.362152" target-width="10.247803" target-x="535.68256" target-y="369.22418"></path><path d="M 473.00 399.00 L 466.70 391.60 C 463.80 388.20 464.40 383.30 467.60 380.40 L 467.60 380.40 L 471.90 377.00 C 474.80 374.70 479.10 374.70 481.90 377.30 L 493.10 387.00 C 496.20 389.90 496.80 394.70 494.00 398.20 C 492.60 399.60 490.90 400.80 488.90 400.80 L 479.70 401.70 C 477.30 401.80 474.80 401.00 473.00 399.00 Z" fill="#b14f59" fill-rule="nonzero" node-id="123" stroke="none" target-height="27.099976" target-width="33" target-x="463.8" target-y="374.7"></path><path d="M 631.80 397.80 C 620.60 392.90 625.20 379.80 635.80 382.10 C 644.10 383.50 650.70 389.50 653.20 397.50 C 654.60 401.80 653.20 403.50 648.60 402.90 C 642.90 401.80 637.20 400.10 631.80 397.80 Z" fill="#97485e" fill-rule="nonzero" node-id="125" stroke="none" target-height="23.700012" target-width="34" target-x="620.6" target-y="379.8"></path><path d="M 349.19 384.52 L 349.17 385.27 L 348.81 386.06 L 347.99 386.93 L 346.37 387.97 L 344.08 388.80 L 341.68 389.15 L 339.76 389.02 L 338.62 388.64 L 337.92 388.11 L 337.56 387.46 L 337.57 386.71 L 337.93 385.92 L 338.76 385.04 L 340.38 384.01 L 342.66 383.18 L 345.07 382.82 L 346.98 382.96 L 348.13 383.34 L 348.82 383.86 L 349.19 384.52 Z" fill="#a7343f" fill-rule="nonzero" group-id="5" node-id="129" stroke="none" target-height="6.3342285" target-width="11.6328125" target-x="337.55524" target-y="382.82013"></path><path d="M 287.10 412.10 C 284.50 418.10 280.80 423.50 275.90 427.80 C 266.50 434.10 258.70 432.10 253.00 422.10 C 253.60 421.20 254.10 421.80 255.00 423.00 C 255.30 423.90 256.10 424.40 257.00 424.10 C 257.90 424.10 258.40 423.50 258.40 422.40 C 258.70 417.80 259.50 413.00 260.40 408.40 C 261.80 403.00 266.40 399.50 274.40 398.10 C 277.50 397.50 281.00 399.00 282.70 401.80 C 284.80 405.00 286.30 408.40 287.10 412.10 Z" fill="#c33935" fill-rule="nonzero" node-id="132" stroke="none" target-height="36.600006" target-width="34.100006" target-x="253" target-y="397.5"></path><path d="M 232.50 399.50 C 237.60 408.90 237.10 419.50 231.40 431.20 L 226.00 439.80 C 224.60 441.80 222.90 443.80 220.60 444.90 C 219.70 445.50 219.20 445.20 218.90 444.00 C 218.30 441.40 218.30 439.10 218.90 436.60 L 232.50 399.50 Z" fill="#760906" fill-rule="nonzero" node-id="134" stroke="none" target-height="46" target-width="19.300003" target-x="218.3" target-y="399.5"></path><path d="M 506.20 414.10 C 510.20 405.50 516.50 401.50 525.40 402.10 C 530.30 402.40 534.60 405.50 539.10 407.00 C 540.20 407.30 541.10 408.10 541.40 409.30 C 544.30 415.90 543.10 423.90 538.30 429.30 C 526.30 445.00 508.00 452.50 489.70 442.50 C 485.70 440.50 482.30 437.10 479.70 433.30 C 472.50 421.90 486.60 410.70 492.00 420.70 C 494.30 424.70 498.30 425.60 501.20 421.30 C 503.40 419.00 505.10 416.70 506.20 414.10 Z" fill="#fe8964" fill-rule="nonzero" node-id="136" stroke="none" target-height="51" target-width="71.79999" target-x="472.5" target-y="401.5"></path><path d="M 443.90 404.40 C 445.60 405.00 447.30 405.50 449.00 406.10 C 450.10 407.20 450.10 409.00 449.00 410.10 L 448.70 410.40 C 440.10 418.40 430.10 423.30 420.40 429.00 C 415.30 432.10 409.20 433.90 403.20 434.70 C 390.60 435.00 377.70 434.10 365.20 433.00 C 342.90 431.00 320.60 436.10 301.40 447.90 C 296.30 450.50 290.20 451.30 284.50 449.90 C 283.10 449.60 281.90 448.50 281.90 447.00 L 281.90 446.10 C 281.90 445.20 282.80 444.40 283.60 444.40 L 283.90 444.40 C 290.20 445.50 298.20 447.80 303.90 443.00 C 311.10 438.40 318.80 434.40 326.80 431.30 C 343.70 425.90 368.00 429.00 386.90 430.20 C 405.80 431.30 416.40 429.10 430.40 418.20 C 435.60 414.10 440.10 409.50 443.90 404.40 Z" fill="#ea372a" fill-rule="nonzero" node-id="138" stroke="none" target-height="46.899994" target-width="168.20001" target-x="281.9" target-y="404.4"></path><path d="M 196.20 466.70 C 181.90 458.40 168.20 449.00 155.30 438.40 C 149.90 433.80 145.00 428.70 140.70 422.70 C 142.10 420.40 144.10 421.30 147.30 425.00 C 148.70 426.70 150.20 428.40 151.60 429.90 C 163.00 440.80 175.90 450.50 189.90 458.20 C 191.90 459.10 194.20 459.60 196.50 459.90 C 197.40 459.90 197.90 460.80 197.90 461.60 C 198.70 463.90 197.90 465.90 196.20 466.70 Z" fill="#ce9b79" fill-rule="nonzero" node-id="140" stroke="none" target-height="46.30002" target-width="58" target-x="140.7" target-y="420.4"></path><path d="M 648.90 459.30 L 652.30 461.90 C 643.40 453.00 631.10 451.60 616.30 457.30 C 618.90 453.30 618.90 450.10 616.60 447.00 C 616.00 446.10 615.70 445.30 615.50 444.40 C 614.60 440.10 614.60 435.80 615.80 431.50 C 616.40 428.40 618.70 425.50 621.50 424.10 C 625.20 422.40 628.90 423.50 632.40 427.20 C 636.70 431.80 641.30 436.60 645.80 441.50 C 650.10 445.80 654.40 446.40 659.00 443.20 C 659.60 442.60 660.70 442.60 661.00 443.50 L 661.00 443.50 C 661.90 444.40 661.60 445.20 660.40 446.10 C 653.80 451.00 650.10 455.30 648.90 459.30 Z" fill="#b14f59" fill-rule="nonzero" node-id="142" stroke="none" target-height="39.5" target-width="47.30005" target-x="614.6" target-y="422.4"></path><path d="M 225.90 440.10 L 231.30 431.50 C 239.00 429.50 245.00 429.50 249.90 432.10 L 253.90 434.40 C 258.80 436.40 269.30 439.00 265.30 447.00 C 261.30 455.30 258.70 460.70 257.60 463.60 C 255.90 467.60 253.30 471.60 250.20 474.80 C 240.20 484.80 225.60 483.40 218.70 470.20 C 216.70 466.50 216.40 462.20 217.30 458.20 C 217.60 457.30 217.90 456.50 218.70 455.90 C 223.30 451.60 225.90 446.20 225.90 440.10 Z" fill="#fe8964" fill-rule="nonzero" node-id="144" stroke="none" target-height="55.299988" target-width="52.899994" target-x="216.4" target-y="429.5"></path><path d="M 838.60 583.40 C 834.30 585.70 831.40 591.70 829.40 601.40 C 828.50 604.80 826.30 607.70 822.80 609.40 C 821.90 609.70 821.40 610.50 820.80 611.40 C 818.50 616.00 814.50 619.40 809.60 621.10 C 808.70 621.40 807.90 622.00 807.30 622.80 C 801.60 630.00 794.10 635.70 785.60 639.40 C 784.70 639.70 784.20 640.30 783.60 641.10 C 782.20 643.40 779.90 643.40 778.20 645.40 C 776.20 647.70 774.50 650.30 772.80 652.80 C 771.90 654.80 770.50 656.20 768.50 656.80 C 766.80 657.40 764.80 656.50 763.90 655.10 C 763.30 654.50 762.50 654.50 761.90 654.80 L 761.60 655.10 C 759.90 658.20 757.60 661.40 755.00 664.00 C 750.70 668.00 745.80 671.40 740.40 673.40 C 726.70 679.40 713.50 684.60 700.90 688.80 C 698.30 689.70 695.80 691.10 693.50 692.50 C 691.20 693.90 688.90 695.10 686.30 695.90 C 679.70 697.90 673.10 699.90 666.90 702.20 C 666.00 702.50 664.90 701.90 664.60 701.10 C 664.60 700.80 664.60 700.50 664.60 700.20 C 665.50 693.90 666.30 687.30 667.20 680.50 C 667.80 676.50 666.60 674.50 664.10 674.20 L 664.40 670.80 C 676.40 662.80 685.00 655.60 689.90 649.30 C 701.30 634.70 701.60 618.10 701.30 600.70 C 701.30 599.80 700.70 599.30 699.90 599.30 L 699.60 599.30 C 696.70 599.60 693.90 599.30 691.30 598.70 C 690.40 598.40 689.60 597.80 689.60 596.70 L 689.60 595.30 L 693.00 595.60 C 693.90 595.90 695.00 595.30 695.30 594.50 L 697.90 589.60 C 698.50 588.70 698.50 587.90 698.20 587.00 C 697.10 583.60 695.60 580.40 693.90 577.30 C 693.60 576.40 692.80 575.90 691.90 575.60 C 690.80 575.30 689.90 575.60 689.00 576.20 C 687.90 575.30 687.90 573.90 688.70 572.50 C 689.30 571.60 689.30 570.80 689.30 569.90 L 689.00 567.60 C 692.70 567.00 693.90 564.70 692.40 561.00 C 690.10 555.60 691.00 555.00 695.00 559.30 C 703.90 569.30 714.20 577.60 725.60 584.80 C 726.70 585.40 728.20 585.70 729.00 585.10 C 729.90 584.80 730.10 584.00 729.90 583.10 C 729.90 583.10 729.90 583.10 729.90 582.80 C 729.30 581.40 729.00 580.50 729.00 580.50 C 726.10 576.80 727.00 575.60 731.60 577.40 C 739.90 581.10 749.00 582.00 757.90 580.00 C 772.50 576.30 785.40 568.00 795.10 556.50 C 808.80 539.10 818.00 518.50 821.40 496.40 C 822.30 491.30 820.80 485.80 817.70 481.50 C 816.60 480.40 814.80 480.40 813.70 481.50 C 813.40 481.80 813.40 482.10 813.10 482.40 C 810.80 487.50 808.80 493.00 807.40 498.70 C 806.00 504.10 804.00 509.60 802.00 515.00 C 796.60 526.40 789.40 538.50 779.70 546.50 C 776.80 548.80 773.40 550.50 770.00 551.90 C 753.70 558.50 738.00 563.30 723.40 553.30 C 720.30 551.30 718.80 547.90 719.70 544.40 L 720.30 541.30 C 721.20 537.00 723.20 536.40 726.00 539.60 C 729.40 543.60 735.20 545.00 740.00 543.60 C 735.10 551.30 739.10 551.60 751.40 544.70 C 752.30 544.10 752.80 543.60 753.10 542.70 C 754.00 540.10 755.40 537.80 757.10 535.50 C 757.70 534.60 758.80 534.40 760.00 534.90 C 762.90 536.00 765.40 537.50 768.00 538.90 C 771.40 540.60 773.40 540.00 773.70 537.20 C 778.00 533.20 781.40 528.60 783.70 523.20 C 788.30 511.80 775.10 501.50 794.30 496.30 C 795.40 496.00 796.00 495.20 796.00 494.00 L 796.00 493.70 C 794.00 485.70 795.40 477.10 800.00 470.00 C 804.00 464.00 806.30 456.80 806.60 449.70 C 806.60 448.60 806.60 447.40 806.30 446.60 C 806.30 446.30 806.30 446.00 806.30 445.70 C 806.30 444.80 807.20 444.60 807.70 444.60 C 811.40 444.30 815.10 445.70 818.00 448.00 C 836.30 462.30 844.60 486.90 844.60 509.50 C 845.10 533.70 842.80 558.80 838.60 583.40 Z M 808.00 605.70 C 809.40 604.80 808.30 599.40 805.40 593.70 C 802.50 588.00 798.80 583.70 797.10 584.50 C 795.40 585.40 796.80 590.80 799.70 596.50 C 802.50 602.30 806.50 606.30 808.00 605.70 L 808.00 605.70 Z M 762.20 621.80 C 767.30 626.40 775.90 624.90 781.60 618.40 C 787.30 611.80 787.60 603.20 782.50 598.70 C 777.40 594.10 768.80 595.80 763.10 602.10 C 757.30 608.30 757.30 617.20 762.20 621.80 L 762.20 621.80 Z M 721.90 640.10 C 736.80 636.40 731.60 621.80 723.30 615.20 C 721.90 613.50 719.00 613.50 717.60 614.90 C 717.30 615.20 717.00 615.50 717.00 615.80 C 712.40 621.20 707.00 629.20 710.40 636.10 C 712.10 640.40 716.10 641.50 721.90 640.10 L 721.90 640.10 Z" fill="#e54a3e" fill-rule="nonzero" node-id="146" stroke="none" target-height="258.2" target-width="181" target-x="664.1" target-y="444.3"></path><path d="M 652.40 461.90 C 639.80 463.90 627.80 465.30 616.60 466.50 C 609.70 467.10 602.90 467.90 596.00 469.40 C 587.10 471.70 579.10 476.00 572.30 482.00 C 567.70 486.30 561.70 488.00 555.40 486.90 C 550.50 486.00 546.50 487.80 541.70 488.60 C 541.10 488.60 540.60 488.30 540.60 487.70 C 540.60 487.40 540.90 486.80 541.20 486.80 C 543.80 485.70 546.10 484.20 548.40 482.50 C 563.60 471.30 581.00 463.60 599.60 459.60 C 605.30 458.50 610.50 457.30 615.90 455.90 L 615.90 456.80 C 631.50 451.30 643.50 453.00 652.40 461.90 Z" fill="#ffd9bf" fill-rule="nonzero" node-id="148" stroke="none" target-height="37.30002" target-width="111.80005" target-x="540.6" target-y="451.3"></path><path d="M 675.00 510.80 C 676.70 508.20 677.00 505.10 676.10 502.20 C 673.20 493.00 671.20 486.20 659.80 483.90 C 657.80 483.30 656.90 481.30 656.70 478.50 C 656.70 477.60 656.40 476.80 655.80 475.90 C 654.10 473.60 653.80 470.80 654.70 468.20 L 667.30 458.50 C 669.00 457.40 671.00 457.10 673.00 457.90 C 676.40 459.30 678.40 463.00 677.30 466.80 C 677.00 467.90 677.30 469.10 678.20 469.90 L 682.50 475.30 C 683.10 475.90 683.40 477.00 682.80 477.60 C 681.90 480.20 680.50 482.20 678.20 483.60 C 677.30 483.90 677.10 485.00 677.60 485.60 C 677.60 485.60 677.60 485.90 677.90 485.90 C 680.20 489.30 681.90 492.80 683.60 496.20 C 685.30 499.60 687.30 502.80 690.20 505.60 C 693.10 508.50 695.90 511.00 699.10 513.30 C 701.70 515.30 702.20 518.70 700.80 521.60 L 695.90 530.20 C 695.30 531.30 693.90 531.60 692.80 531.10 C 690.50 530.00 688.80 528.50 687.10 526.80 C 682.70 522.80 682.70 512.20 675.00 510.80 Z" fill="#b14f59" fill-rule="nonzero" node-id="150" stroke="none" target-height="74.49997" target-width="48.400024" target-x="653.8" target-y="457.1"></path><path d="M 584.60 495.60 C 589.20 497.30 593.80 498.70 598.60 500.20 C 613.50 504.20 620.60 490.50 624.30 479.30 C 625.40 475.90 628.90 473.90 632.30 474.40 C 641.70 476.10 646.90 481.80 647.70 491.80 C 648.80 503.20 649.10 514.70 649.10 526.10 C 648.80 530.40 648.20 535.00 647.10 539.00 C 646.20 543.30 643.70 547.00 640.20 549.30 C 633.90 553.30 627.90 552.40 621.90 546.70 C 619.30 544.40 618.80 541.00 617.00 538.10 C 616.70 537.20 615.90 537.00 614.70 537.00 C 606.10 538.10 599.00 543.30 591.20 535.00 C 585.80 529.00 579.50 523.80 572.30 519.80 C 571.40 519.20 570.60 518.40 570.00 517.50 C 566.30 509.20 567.70 501.50 574.30 493.80 C 575.40 491.80 578.30 491.20 580.30 492.40 C 580.90 492.70 581.40 493.30 581.70 493.80 C 582.60 494.80 583.70 495.30 584.60 495.60 Z" fill="#6c3d4f" fill-rule="nonzero" node-id="152" stroke="none" target-height="79.399994" target-width="82.79999" target-x="566.3" target-y="473.9"></path><path d="M 158.10 484.20 C 158.10 487.35 155.55 489.90 152.40 489.90 C 149.25 489.90 146.70 487.35 146.70 484.20 C 146.70 481.05 149.25 478.50 152.40 478.50 C 155.55 478.50 158.10 481.05 158.10 484.20 Z" fill="#ffc156" fill-rule="nonzero" node-id="154" stroke="none" target-height="11.399994" target-width="11.400009" target-x="146.7" target-y="478.5"></path><path d="M 660.10 483.90 C 671.30 486.20 673.50 492.80 676.40 502.20 C 677.30 505.10 677.00 508.20 675.30 510.80 L 671.60 518.20 C 671.30 519.10 670.20 519.30 669.60 518.80 C 669.60 518.80 669.30 518.80 669.30 518.50 L 661.30 511.30 C 656.40 503.90 656.10 494.80 660.10 483.90 Z" fill="#f88b79" fill-rule="nonzero" node-id="156" stroke="none" target-height="35.399994" target-width="21.200012" target-x="656.1" target-y="483.9"></path><path d="M 773.90 536.80 C 773.30 539.70 771.30 540.20 768.20 538.50 C 765.60 537.10 762.80 535.60 760.20 534.50 C 759.10 533.90 757.90 534.50 757.30 535.10 C 755.60 537.10 754.20 539.40 753.30 542.30 C 753.00 543.20 752.40 544.00 751.60 544.30 C 739.30 551.20 735.60 550.90 740.20 543.20 C 746.50 540.60 758.50 535.50 754.80 526.60 C 752.50 521.50 749.90 516.30 747.40 511.40 C 746.00 508.30 742.50 506.80 739.40 508.00 C 739.10 508.30 738.50 508.30 738.30 508.60 C 734.90 510.30 731.40 511.50 727.40 511.50 L 741.40 500.10 C 743.10 498.70 745.70 499.00 747.10 500.70 C 747.40 501.00 747.40 501.30 747.70 501.60 L 758.90 527.30 C 759.20 528.20 760.00 528.40 760.60 528.40 C 765.90 528.80 771.30 532.00 773.90 536.80 Z" fill="#f4c5a9" fill-rule="nonzero" node-id="158" stroke="none" target-height="52.5" target-width="46.5" target-x="727.4" target-y="498.7"></path><path d="M 474.50 672.40 C 454.20 681.30 433.00 688.70 411.30 694.40 C 361.00 707.60 309.20 713.30 257.40 711.60 C 250.00 711.30 238.80 709.90 229.10 710.20 L 218.20 697.00 C 212.80 686.10 209.00 674.70 206.80 662.70 C 205.70 642.40 206.50 622.40 209.40 602.40 C 210.50 598.70 212.00 594.10 213.40 589.20 C 223.70 552.90 246.90 529.70 282.90 519.70 C 293.50 516.80 311.20 514.00 336.10 511.10 C 362.70 508.20 389.90 506.20 418.20 505.40 C 435.90 504.80 449.70 506.30 459.70 510.00 C 474.00 514.90 486.90 523.70 496.60 535.50 C 510.90 552.70 518.30 570.10 519.20 592.40 C 520.10 604.40 516.60 616.70 509.80 626.70 C 497.30 642.90 485.60 658.40 474.50 672.40 Z M 350.30 549.70 C 354.60 552.60 361.70 549.70 366.30 543.10 C 370.90 536.50 370.90 528.80 366.60 525.70 C 362.30 522.60 355.20 525.70 350.60 532.30 C 346.00 538.80 346.00 546.50 350.30 549.70 Z M 315.70 549.10 C 306.00 545.10 303.10 556.00 305.40 562.80 C 306.30 565.40 308.00 565.90 310.30 564.80 C 314.30 562.50 317.20 559.10 318.30 554.50 C 319.20 552.50 318.00 550.20 316.00 549.40 C 316.00 549.10 316.00 549.10 315.70 549.10 Z M 306.00 614.90 L 307.10 622.10 C 307.10 623.00 307.70 623.80 308.20 624.40 C 314.50 631.60 323.60 635.60 333.10 635.60 C 337.40 635.30 341.70 634.20 345.70 632.50 C 348.80 631.60 351.70 630.20 354.30 628.50 C 358.90 625.40 362.90 621.60 366.60 617.60 C 375.80 607.90 383.80 614.20 393.80 611.00 C 403.80 607.80 411.50 600.40 415.30 590.70 C 415.90 589.60 417.00 589.00 418.20 589.30 C 422.50 590.20 427.40 591.60 431.60 589.60 C 443.30 584.20 448.50 574.70 447.00 561.30 C 447.00 560.70 446.40 560.20 445.90 560.20 C 445.60 560.20 445.30 560.20 445.00 560.50 C 444.70 560.80 444.40 561.40 444.10 561.90 C 443.00 570.20 441.00 579.10 433.20 583.10 C 429.50 584.80 425.50 585.10 421.50 584.00 C 416.10 582.90 410.90 581.70 405.80 580.00 C 404.70 579.70 403.20 580.30 402.70 581.40 C 402.70 581.40 402.70 581.70 402.70 582.00 C 401.80 588.30 401.00 597.70 394.70 600.90 C 387.80 603.80 380.70 605.50 373.20 605.50 C 371.20 605.80 369.20 604.90 367.80 603.50 C 366.90 602.60 365.80 602.60 364.90 603.50 L 364.60 603.80 C 355.40 617.00 346.90 633.30 327.10 629.30 C 317.10 627.30 311.10 620.40 309.40 609.00 C 309.40 608.10 308.50 607.60 307.70 607.90 C 307.40 607.90 307.40 607.90 307.10 608.20 C 301.70 611.60 292.80 615.40 287.10 611.60 C 280.80 607.60 278.80 601.00 280.80 592.20 C 281.10 590.20 280.80 590.20 279.70 591.60 C 272.80 600.20 263.70 606.50 253.40 609.90 C 250.80 610.80 248.00 610.80 245.40 609.60 C 244.00 609.00 243.40 607.30 244.00 605.90 L 244.00 605.90 C 245.10 604.20 245.70 602.50 246.00 600.50 C 245.40 595.60 244.60 595.40 242.90 600.20 C 240.00 607.90 241.20 615.60 251.50 615.10 C 259.50 614.80 267.50 611.70 273.80 606.50 C 274.40 605.90 274.90 605.90 275.50 606.50 L 275.80 606.80 C 277.50 609.10 279.50 611.40 280.90 613.70 C 284.90 619.40 290.60 620.60 296.90 620.90 C 297.80 620.90 298.90 620.60 299.50 620.00 L 304.40 616.00 C 305.40 613.80 306.00 613.80 306.00 614.90 L 306.00 614.90 Z" fill="#fef2e1" fill-rule="nonzero" node-id="160" stroke="none" target-height="208.5" target-width="314.39996" target-x="205.7" target-y="504.8"></path><path d="M 204.20 526.00 L 199.90 517.70 C 199.60 516.80 199.90 516.30 199.90 515.40 C 200.50 514.30 201.00 514.30 201.60 515.10 C 207.00 523.10 211.90 530.80 216.20 538.30 C 217.90 541.20 217.90 545.20 216.50 550.60 C 214.50 557.80 213.10 564.90 212.20 572.10 C 212.20 573.00 211.30 573.50 210.80 573.50 L 209.90 573.50 C 209.30 573.50 209.00 573.20 209.00 572.90 L 209.00 572.60 C 209.30 566.30 209.90 560.00 211.30 554.00 C 212.40 549.40 212.70 544.60 211.90 540.00 C 210.80 534.50 207.90 530.00 204.20 526.00 Z" fill="#ea372a" fill-rule="nonzero" node-id="162" stroke="none" target-height="59.200012" target-width="18.299988" target-x="199.6" target-y="514.3"></path><path d="M 366.89 525.54 L 368.14 526.68 L 369.07 528.10 L 369.69 529.86 L 369.97 531.73 L 369.92 533.79 L 369.54 536.09 L 368.86 538.31 L 367.84 540.58 L 366.46 542.90 L 364.81 545.04 L 363.07 546.82 L 361.25 548.28 L 359.27 549.48 L 357.36 550.28 L 355.52 550.71 L 353.66 550.78 L 352.00 550.44 L 350.48 549.69 L 349.22 548.56 L 348.29 547.14 L 347.67 545.38 L 347.40 543.51 L 347.44 541.44 L 347.83 539.15 L 348.51 536.92 L 349.53 534.66 L 350.91 532.34 L 352.56 530.20 L 354.29 528.42 L 356.11 526.96 L 358.10 525.76 L 360.00 524.96 L 361.85 524.53 L 363.71 524.45 L 365.37 524.80 L 366.89 525.54 Z" fill="#fe6037" fill-rule="nonzero" group-id="6" node-id="166" stroke="none" target-height="26.328308" target-width="22.563599" target-x="347.40164" target-y="524.45483"></path><path d="M 305.40 562.60 C 303.10 556.00 306.00 544.90 315.70 548.90 C 317.70 549.50 318.80 551.80 318.30 554.00 L 318.30 554.30 C 317.20 558.60 314.30 562.30 310.30 564.60 C 308.00 566.00 306.30 565.10 305.40 562.60 Z" fill="#fe6048" fill-rule="nonzero" node-id="169" stroke="none" target-height="21.099976" target-width="15.699982" target-x="303.1" target-y="544.9"></path><path d="M 593.40 572.00 C 594.30 574.30 596.50 575.70 598.80 575.10 C 604.20 574.20 609.70 575.10 614.20 578.00 C 615.10 578.60 615.30 579.70 614.80 580.60 C 614.50 580.90 614.50 581.20 614.20 581.20 C 601.90 588.40 587.60 590.90 573.90 588.60 C 553.00 585.50 552.20 559.40 571.90 553.40 C 580.60 550.80 590.90 565.70 593.40 572.00 Z" fill="#7d434d" fill-rule="nonzero" node-id="171" stroke="none" target-height="40.100037" target-width="63.099976" target-x="552.2" target-y="550.8"></path><path d="M 157.67 556.10 L 159.53 556.83 L 161.15 557.80 L 162.55 559.00 L 163.73 560.42 L 164.63 561.96 L 165.26 563.65 L 165.58 565.41 L 165.57 567.21 L 165.22 569.06 L 164.51 570.80 L 163.55 572.32 L 162.32 573.62 L 160.88 574.70 L 159.29 575.51 L 157.53 576.06 L 155.70 576.32 L 153.82 576.25 L 151.85 575.86 L 149.99 575.13 L 148.37 574.16 L 146.97 572.96 L 145.79 571.54 L 144.89 570.00 L 144.26 568.31 L 143.94 566.55 L 143.95 564.75 L 144.30 562.90 L 145.01 561.16 L 145.97 559.64 L 147.20 558.34 L 148.64 557.26 L 150.23 556.45 L 151.99 555.90 L 153.82 555.64 L 155.71 555.71 L 157.67 556.10 Z" fill="#b14f59" fill-rule="nonzero" group-id="7" node-id="175" stroke="none" target-height="20.677002" target-width="21.638977" target-x="143.9414" target-y="555.64154"></path><path d="M 304.60 614.30 L 299.70 618.30 C 298.80 618.90 298.00 619.20 297.10 619.20 C 290.80 618.90 284.80 617.80 281.10 612.00 C 279.40 609.70 277.70 607.40 276.00 605.10 C 275.70 604.50 274.90 604.20 274.30 604.80 C 274.30 604.80 274.00 604.80 274.00 605.10 C 267.70 610.20 260.00 613.40 251.70 613.70 C 241.40 614.30 240.30 606.50 243.10 598.80 C 244.80 594.20 246.00 594.20 246.20 599.10 C 245.90 601.10 245.30 602.80 244.20 604.50 C 243.30 605.90 243.90 607.60 245.30 608.50 L 245.30 608.50 C 247.90 609.60 250.70 609.90 253.30 608.80 C 263.60 605.40 272.70 599.10 279.90 590.80 C 281.00 589.40 281.60 589.70 281.00 591.40 C 279.00 600.30 281.30 606.80 287.30 610.80 C 293.00 614.50 301.90 610.80 307.30 607.40 C 307.90 607.10 308.70 607.10 309.30 607.70 C 309.30 608.00 309.60 608.00 309.60 608.30 C 311.30 620.00 317.30 626.60 327.30 628.60 C 347.00 632.60 355.60 616.30 364.80 603.10 C 365.40 602.20 366.80 602.00 367.70 602.50 L 368.00 602.80 C 369.40 604.20 371.40 605.10 373.40 604.80 C 380.80 604.80 388.00 603.10 394.90 600.20 C 401.20 597.10 402.10 587.60 402.90 581.30 C 403.20 579.90 404.30 579.00 405.50 579.30 C 405.80 579.30 405.80 579.30 406.10 579.30 C 411.20 581.00 416.40 582.40 421.80 583.30 C 425.80 584.40 429.80 583.90 433.50 582.40 C 440.90 578.40 443.20 569.50 444.40 561.20 C 444.40 560.60 444.70 560.10 445.30 559.80 C 445.60 559.50 445.90 559.50 446.20 559.50 C 446.80 559.50 447.30 560.10 447.30 560.60 C 448.70 574.00 443.60 583.50 431.90 588.90 C 427.60 590.90 422.70 589.50 418.50 588.60 C 417.40 588.30 416.20 589.20 415.60 590.00 C 411.90 599.70 403.90 607.20 394.10 610.30 C 383.80 613.40 376.10 607.20 366.90 616.90 C 363.20 620.90 358.90 624.60 354.60 627.80 C 352.00 629.80 349.20 630.90 346.00 631.80 C 342.00 633.50 337.70 634.40 333.40 634.90 C 324.00 634.90 314.80 630.90 308.50 623.70 C 307.90 623.10 307.60 622.30 307.40 621.40 L 306.30 614.20 C 306.00 614.00 305.40 613.80 304.60 614.30 Z" fill="#ffa490" fill-rule="nonzero" node-id="178" stroke="none" target-height="75.400024" target-width="208.40001" target-x="240.3" target-y="559.5"></path><path d="M 209.60 601.70 C 206.70 621.70 205.90 642.00 207.00 662.00 C 206.70 663.40 206.10 664.00 205.60 664.00 L 203.00 654.80 C 202.70 653.90 202.10 653.40 201.30 653.10 C 167.00 644.80 122.10 631.40 125.50 586.20 C 126.60 581.10 129.20 576.20 132.90 572.50 C 133.80 571.60 135.20 571.60 136.30 572.50 C 136.60 572.80 136.60 573.10 136.90 573.40 L 144.90 597.40 C 145.20 598.30 146.30 598.80 147.20 598.50 C 147.50 598.50 147.80 598.20 148.10 597.90 C 152.40 591.90 159.80 585.90 167.80 586.50 C 168.70 586.50 169.80 587.10 170.40 587.60 C 178.10 595.90 184.70 614.80 168.40 619.60 C 163.80 621.00 159.00 622.50 154.40 623.60 C 152.40 624.20 151.30 626.20 151.80 628.20 C 152.10 628.80 152.40 629.30 152.70 629.90 C 155.00 632.20 157.60 633.90 160.40 635.30 C 173.60 641.00 187.30 645.30 201.60 648.20 C 202.20 648.20 202.70 647.90 202.70 647.30 L 202.70 647.00 C 202.40 638.10 202.40 629.00 202.10 619.80 C 201.90 609.80 204.50 603.50 209.60 601.70 Z" fill="#b14f59" fill-rule="nonzero" node-id="180" stroke="none" target-height="92.400024" target-width="87.50001" target-x="122.1" target-y="571.6"></path><path d="M 690.40 595.50 C 687.80 590.10 684.10 585.50 679.20 581.50 C 678.30 580.90 677.20 580.60 676.30 580.90 C 666.90 583.80 657.70 587.80 649.40 592.90 C 649.40 592.90 649.10 593.20 648.80 592.90 L 648.80 592.90 L 648.50 592.30 C 648.20 592.00 648.20 591.40 648.50 591.40 L 648.50 591.40 C 659.40 583.10 672.50 578.20 686.30 577.70 C 687.40 577.70 688.30 577.10 689.20 576.60 C 690.10 576.00 690.90 575.70 692.10 576.00 C 693.00 576.30 693.80 576.90 694.10 577.70 C 695.80 580.80 697.20 584.00 698.40 587.40 C 698.70 588.30 698.70 589.40 698.10 590.00 L 695.50 594.90 C 695.20 595.80 694.10 596.30 693.20 596.00 L 690.40 595.50 Z" fill="#ffbca9" fill-rule="nonzero" node-id="182" stroke="none" target-height="20.599976" target-width="50.5" target-x="648.2" target-y="575.7"></path><path d="M 838.60 583.40 C 836.00 598.60 830.60 612.90 824.90 627.70 C 821.20 637.70 816.00 647.10 809.70 656.00 C 794.30 678.00 776.80 704.30 755.10 719.20 C 748.80 723.50 743.40 727.80 738.80 731.50 C 733.70 735.80 728.20 740.10 722.80 743.80 C 704.80 755.00 685.90 764.70 666.20 772.40 L 607.30 787.60 L 570.40 800.20 C 557.00 802.20 543.20 803.10 529.50 802.50 C 523.20 802.20 516.30 802.20 508.90 802.50 C 502.00 802.80 495.20 802.80 488.30 802.20 C 485.70 801.90 484.00 800.50 481.10 800.50 C 475.40 800.80 469.70 800.80 463.90 800.80 C 463.00 801.10 462.80 800.20 463.00 798.20 C 462.10 795.90 460.40 794.20 458.10 793.10 C 449.50 788.20 440.70 783.90 431.80 780.20 C 428.40 775.90 427.20 775.30 428.90 777.90 C 427.20 774.20 426.30 769.90 427.20 765.90 C 428.90 757.60 431.50 749.60 435.20 742.20 C 443.80 725.00 452.10 706.40 463.20 690.70 C 464.10 690.40 464.60 690.40 464.90 690.70 C 465.80 691.30 466.00 692.70 465.50 693.60 C 460.10 701.90 455.50 710.50 451.20 719.60 C 448.30 725.90 445.20 731.90 441.80 737.90 C 437.20 746.50 433.80 755.60 431.80 765.10 C 431.50 767.10 432.10 768.00 434.10 768.00 C 442.70 768.00 450.70 768.90 459.30 766.60 C 488.80 759.40 519.10 752.30 547.40 743.10 C 579.40 732.50 611.20 721.10 642.40 708.50 C 648.10 706.20 653.60 703.10 658.40 699.60 C 659.30 699.00 659.50 698.50 659.80 697.60 L 664.10 674.70 C 666.70 675.00 667.80 677.00 667.20 681.00 C 666.30 687.90 665.50 694.40 664.60 700.70 C 664.60 701.80 665.20 702.70 666.30 702.70 C 666.60 702.70 666.90 702.70 667.20 702.70 C 673.50 700.40 680.10 698.10 686.60 696.40 C 689.20 695.50 691.50 694.40 693.80 693.00 C 696.10 691.30 698.70 690.10 701.20 689.30 C 713.80 685.30 726.70 680.10 740.70 673.90 C 746.10 671.60 751.00 668.50 755.30 664.50 C 757.90 661.90 760.20 658.80 761.90 655.60 C 762.20 655.00 763.00 654.70 763.90 655.00 L 764.20 655.30 C 765.30 656.70 767.10 657.60 768.80 657.00 C 770.80 656.10 772.20 654.70 773.10 653.00 C 774.50 650.40 776.50 647.90 778.50 645.60 C 780.20 643.60 782.50 643.30 783.90 641.30 C 784.50 640.40 785.00 639.90 785.90 639.60 C 794.50 636.20 801.90 630.40 807.60 623.00 C 808.20 622.10 809.00 621.60 809.90 621.30 C 814.80 619.60 818.80 616.20 821.10 611.60 C 821.40 610.70 822.20 610.20 823.10 609.60 C 826.20 608.20 828.80 605.30 829.70 601.60 C 831.40 591.40 834.30 585.40 838.60 583.40 Z M 763.30 678.70 C 763.60 677.00 763.60 675.30 763.30 673.80 C 763.00 672.30 762.40 672.40 762.20 673.80 L 751.60 705.30 C 751.30 705.90 751.60 705.90 752.20 705.90 C 752.50 705.90 752.80 705.90 753.10 705.60 C 754.00 705.30 754.50 704.70 754.80 704.20 C 758.80 696.10 761.60 687.50 763.30 678.70 Z M 486.50 798.80 L 516.20 801.40 C 516.50 801.40 516.80 801.10 516.80 800.80 L 516.80 800.50 C 517.10 797.10 511.10 793.30 503.40 792.80 L 500.50 792.50 C 492.80 791.90 486.20 794.20 485.90 797.60 L 485.90 797.90 C 485.90 798.50 485.90 798.80 486.50 798.80 C 486.20 798.80 486.20 798.80 486.50 798.80 L 486.50 798.80 Z" fill="#c33935" fill-rule="nonzero" node-id="184" stroke="none" target-height="219.69995" target-width="412.3" target-x="426.3" target-y="583.4"></path><path d="M 805.16 593.50 L 806.55 596.46 L 807.55 599.08 L 808.26 601.59 L 808.53 603.42 L 808.39 604.94 L 807.89 605.59 L 807.07 605.62 L 805.75 604.85 L 804.42 603.56 L 802.79 601.53 L 801.25 599.19 L 799.65 596.33 L 798.26 593.37 L 797.26 590.75 L 796.55 588.24 L 796.28 586.42 L 796.42 584.90 L 796.92 584.24 L 797.74 584.22 L 799.06 584.99 L 800.39 586.27 L 802.02 588.31 L 803.56 590.64 L 805.16 593.50 Z" fill="#7d434d" fill-rule="nonzero" group-id="8" node-id="188" stroke="none" target-height="21.403687" target-width="12.255798" target-x="796.27716" target-y="584.21545"></path><path d="M 690.40 595.50 L 690.40 596.90 C 690.40 597.80 691.00 598.60 692.10 598.90 C 694.70 599.50 697.50 599.80 700.40 599.50 C 701.30 599.50 701.80 600.10 702.10 600.60 L 702.10 600.60 C 702.70 618.00 702.10 634.60 690.70 649.20 C 685.80 655.50 677.30 662.60 665.20 670.70 C 661.80 671.30 659.80 671.30 659.20 670.70 C 656.30 667.60 657.20 666.10 661.20 666.40 C 663.50 666.40 665.50 665.50 667.20 664.10 C 675.20 658.40 682.40 651.50 688.70 644.10 C 690.10 642.70 690.10 640.70 689.00 639.20 C 689.00 638.90 688.70 638.90 688.40 638.90 L 685.80 636.30 C 684.70 634.90 682.70 634.60 681.20 635.70 C 680.90 636.00 680.60 636.00 680.60 636.30 C 678.60 638.00 676.00 639.20 673.20 638.90 C 672.30 638.90 671.50 638.60 670.60 638.00 C 666.00 634.60 659.70 630.80 657.70 626.00 C 654.60 618.30 662.30 609.40 668.00 604.30 C 670.30 602.30 672.00 599.70 673.10 596.90 C 674.20 594.60 676.80 593.80 679.10 594.60 C 683.30 596.60 685.80 593.20 690.40 595.50 Z" fill="#6c3d4f" fill-rule="nonzero" node-id="191" stroke="none" target-height="78.099976" target-width="48.100037" target-x="654.6" target-y="593.2"></path><path d="M 782.79 598.66 L 784.29 600.33 L 785.37 602.21 L 786.05 604.35 L 786.33 606.60 L 786.22 608.94 L 785.70 611.41 L 784.81 613.78 L 783.52 616.08 L 781.80 618.35 L 779.77 620.32 L 777.64 621.88 L 775.40 623.05 L 773.01 623.87 L 770.70 624.27 L 768.43 624.27 L 766.22 623.85 L 764.22 623.01 L 762.39 621.73 L 760.89 620.06 L 759.81 618.18 L 759.13 616.04 L 758.85 613.79 L 758.96 611.45 L 759.49 608.98 L 760.38 606.61 L 761.66 604.31 L 763.38 602.05 L 765.41 600.07 L 767.54 598.51 L 769.79 597.34 L 772.17 596.52 L 774.49 596.12 L 776.75 596.12 L 778.96 596.54 L 780.96 597.38 L 782.79 598.66 Z" fill="#7d434d" fill-rule="nonzero" group-id="9" node-id="195" stroke="none" target-height="28.14862" target-width="27.475891" target-x="758.8528" target-y="596.12067"></path><path d="M 641.80 623.80 L 641.80 614.40 C 641.80 612.70 643.20 611.50 644.90 611.50 L 646.60 611.50 C 648.30 611.50 649.50 612.90 649.50 614.60 L 649.50 624.00 C 649.50 625.70 648.10 626.90 646.40 626.90 L 644.70 626.90 C 642.90 626.90 641.80 625.50 641.80 623.80 Z" fill="#b14f59" fill-rule="nonzero" node-id="198" stroke="none" target-height="15.400024" target-width="7.700012" target-x="641.8" target-y="611.5"></path><path d="M 723.30 615.20 C 731.60 622.10 737.00 636.40 721.90 640.10 C 716.20 641.50 712.20 640.10 710.20 636.10 C 706.80 628.90 711.90 621.20 716.80 615.80 C 717.90 613.80 720.50 613.20 722.50 614.40 C 722.70 614.90 723.00 614.90 723.30 615.20 Z" fill="#7d434d" fill-rule="nonzero" node-id="200" stroke="none" target-height="28.299988" target-width="30.200012" target-x="706.8" target-y="613.2"></path><path d="M 207.00 662.40 C 209.30 674.40 213.00 685.90 218.40 696.70 C 222.10 706.70 228.10 716.10 235.60 723.90 C 262.50 753.10 298.50 772.00 337.70 777.10 C 346.60 778.20 354.60 779.40 362.30 780.20 C 369.70 781.10 377.20 781.30 384.60 780.80 C 387.20 780.80 388.00 781.90 386.90 784.20 C 386.00 786.50 386.00 788.80 386.30 791.40 L 380.30 797.40 L 375.40 801.40 L 304.80 802.30 L 306.50 801.70 C 307.40 801.40 307.60 800.60 307.40 799.70 C 307.10 799.10 306.80 798.80 306.30 798.60 C 302.00 796.90 297.70 795.20 293.40 793.70 C 289.10 792.60 285.10 790.60 281.40 788.00 C 272.80 782.60 265.10 776.60 257.90 769.40 C 250.50 761.70 242.70 754.20 234.40 746.50 C 227.50 736.80 222.40 725.90 219.00 714.20 C 218.40 711.60 217.90 709.10 217.90 706.80 C 217.90 704.20 217.30 701.70 216.50 699.40 C 212.50 688.00 208.80 676.20 205.30 664.20 C 206.20 664.10 206.80 663.50 207.00 662.40 Z" fill="#cf4847" fill-rule="nonzero" node-id="202" stroke="none" target-height="139.89996" target-width="182.7" target-x="205.3" target-y="662.4"></path><path d="M 763.30 678.70 C 761.90 687.60 758.70 696.10 754.40 704.20 C 754.10 704.80 753.50 705.30 752.70 705.60 C 752.40 705.60 752.10 705.90 751.80 705.90 C 751.20 705.90 751.20 705.60 751.20 705.30 L 761.80 673.80 C 762.40 672.40 762.70 672.40 762.90 673.80 C 763.60 675.20 763.60 677.00 763.30 678.70 Z" fill="#760906" fill-rule="nonzero" node-id="204" stroke="none" target-height="33.5" target-width="12.399963" target-x="751.2" target-y="672.4"></path><path d="M 474.50 672.40 L 463.30 690.70 C 452.10 706.40 443.90 725.00 435.30 742.20 C 431.90 749.90 429.00 757.90 427.30 765.90 C 426.70 769.90 427.30 774.20 429.00 777.90 C 423.60 778.20 418.10 778.20 412.70 778.50 C 407.60 778.80 402.40 778.50 397.50 778.20 C 388.90 777.60 379.50 777.30 369.80 777.10 C 317.50 776.50 260.50 753.60 229.10 709.90 C 238.80 709.90 249.70 711.00 257.40 711.30 C 309.20 713.00 360.90 707.30 411.30 694.10 C 433.00 688.70 454.20 681.30 474.50 672.40 Z" fill="#f4c5a9" fill-rule="nonzero" node-id="206" stroke="none" target-height="106.39996" target-width="245.4" target-x="229.1" target-y="672.4"></path><path d="M 218.50 696.70 L 229.10 710.10 C 260.60 753.90 317.50 776.70 369.80 777.30 C 379.50 777.30 388.70 777.60 397.50 778.40 C 402.60 778.70 407.80 779.00 412.70 778.70 C 418.10 778.40 423.60 778.10 429.00 778.10 C 427.60 775.20 428.40 776.10 431.90 780.40 C 421.30 780.70 410.70 781.00 400.20 781.50 C 396.50 781.80 391.90 784.90 386.20 791.50 C 385.90 789.20 386.20 786.60 386.80 784.30 C 387.90 782.00 387.10 780.90 384.50 780.90 C 377.10 781.50 369.60 781.20 362.20 780.30 C 354.50 779.40 346.20 778.30 337.60 777.20 C 298.40 771.80 262.10 752.90 235.50 724.00 C 228.20 715.90 222.20 706.70 218.50 696.70 Z" fill="#a7343f" fill-rule="nonzero" node-id="208" stroke="none" target-height="94.79999" target-width="213.4" target-x="218.5" target-y="696.7"></path><path d="M 867.40 732.70 C 854.80 732.40 845.90 730.70 840.80 727.60 C 835.10 723.90 829.90 719.30 825.60 713.90 C 818.40 704.70 803.30 706.20 793.30 709.00 C 789.60 710.10 785.60 710.10 781.90 708.70 L 826.20 698.70 C 828.20 698.10 830.20 698.70 831.90 700.10 C 836.50 703.80 841.30 707.50 846.50 711.50 C 854.60 717.30 861.40 724.40 867.40 732.70 Z" fill="#baa4ab" fill-rule="nonzero" node-id="210" stroke="none" target-height="34.600037" target-width="85.5" target-x="781.9" target-y="698.1"></path><path d="M 867.40 732.70 C 869.70 737.60 872.00 742.70 874.30 747.90 C 876.90 754.50 879.40 761.10 881.70 767.60 C 886.00 779.30 893.40 789.30 898.60 801.10 C 898.90 801.40 898.60 802.20 897.70 803.10 C 893.10 804.20 888.30 804.50 883.40 804.50 C 843.40 804.80 804.20 804.80 766.10 804.80 C 753.80 804.80 741.20 804.20 728.90 803.40 C 727.20 803.10 725.50 802.80 723.80 802.30 C 721.20 801.70 719.50 798.90 720.40 796.30 C 720.40 796.00 720.70 795.70 720.70 795.40 C 724.10 784.50 728.70 773.70 734.10 763.70 C 736.10 759.70 738.70 756.00 741.50 752.50 C 751.80 741.10 761.20 729.00 771.00 717.30 C 774.10 713.90 777.60 711.00 781.30 708.40 C 785.00 709.80 789.00 709.80 792.70 708.70 C 802.70 705.80 817.90 704.40 825.00 713.60 C 829.30 719.00 834.40 723.60 840.20 727.30 C 845.70 730.40 854.60 732.20 867.40 732.70 Z" fill="#958a9c" fill-rule="nonzero" node-id="212" stroke="none" target-height="100.39996" target-width="179.40002" target-x="719.5" target-y="704.4"></path><path d="M 234.50 746.50 C 242.80 754.20 250.50 761.70 258.00 769.40 C 265.20 776.30 273.20 782.60 281.50 788.00 C 285.20 790.60 289.20 792.60 293.50 793.70 C 297.80 795.10 302.10 796.60 306.40 798.60 C 307.00 798.90 307.30 799.20 307.50 799.70 C 307.80 800.60 307.50 801.40 306.60 801.70 L 304.90 802.30 L 290.00 802.00 C 284.90 801.10 282.60 800.00 283.10 798.30 C 276.20 791.40 268.80 785.10 261.10 779.10 C 249.90 769.90 241.10 759.10 234.50 746.50 Z" fill="#a7343f" fill-rule="nonzero" node-id="214" stroke="none" target-height="55.799988" target-width="73.29999" target-x="234.5" target-y="746.5"></path><path d="M 666.10 772.50 C 666.70 773.90 668.70 774.80 672.10 775.10 C 673.00 775.10 674.10 775.70 674.70 776.20 C 681.90 782.50 687.30 790.20 690.40 799.40 C 691.00 800.50 690.10 802.00 689.00 802.50 C 688.70 802.50 688.40 802.50 688.10 802.50 L 621.70 802.50 L 616.00 794.20 C 615.40 793.30 615.10 792.50 614.90 791.60 C 613.80 788.50 611.20 787.30 606.90 787.60 L 666.10 772.50 Z" fill="#baa4ab" fill-rule="nonzero" node-id="216" stroke="none" target-height="30" target-width="84.099976" target-x="606.9" target-y="772.5"></path><path d="M 432.10 779.90 C 441.00 783.90 449.50 788.20 458.40 792.80 C 460.40 793.90 462.10 795.70 463.30 797.90 C 459.90 800.50 455.60 798.50 452.10 798.80 C 429.50 800.50 406.60 800.50 384.00 799.40 C 381.40 799.40 380.30 798.50 380.30 797.10 L 386.30 791.10 C 392.00 784.50 396.60 781.10 400.30 781.10 C 411.30 780.50 421.60 780.20 432.10 779.90 Z" fill="#f6f7f9" fill-rule="nonzero" node-id="218" stroke="none" target-height="20.599976" target-width="83" target-x="380.3" target-y="779.9"></path><path d="M 607.20 787.40 C 611.50 787.10 614.10 788.50 615.20 791.40 C 615.50 792.30 616.10 793.10 616.30 794.00 L 622.00 802.30 C 612.80 804.60 600.00 800.00 593.70 801.70 C 589.40 802.80 585.10 802.80 580.80 802.00 C 580.80 802.00 579.40 801.40 577.10 800.60 C 575.10 799.70 572.80 799.70 570.50 800.00 L 607.20 787.40 Z" fill="#feebe5" fill-rule="nonzero" node-id="220" stroke="none" target-height="17.5" target-width="51.5" target-x="570.5" target-y="787.1"></path><path d="M 486.20 798.80 C 485.90 798.80 485.60 798.50 485.60 798.20 L 485.60 798.20 L 485.60 797.90 C 485.90 794.50 492.50 791.90 500.20 792.80 L 503.10 793.10 C 510.80 793.70 516.80 797.10 516.50 800.80 L 516.50 801.10 C 516.50 801.40 516.20 801.70 515.90 801.70 L 486.20 798.80 Z" fill="#fbb2b1" fill-rule="nonzero" node-id="222" stroke="none" target-height="9.799988" target-width="31.199982" target-x="485.6" target-y="791.9"></path><path d="M 283.10 797.70 C 282.50 799.40 284.80 800.80 290.00 801.40 L 229.70 804.00 C 229.10 804.00 228.60 803.40 228.60 803.10 C 228.60 802.80 228.60 802.50 228.90 802.50 C 230.30 801.10 232.00 800.50 234.00 800.50 C 249.70 800.00 266.00 799.10 283.10 797.70 Z" fill="#f0d1cd" fill-rule="nonzero" node-id="224" stroke="none" target-height="6.299988" target-width="61.399994" target-x="228.6" target-y="797.7"></path><path d="M 380.40 797.10 C 380.40 798.50 381.50 799.40 384.10 799.40 C 406.70 800.50 429.60 800.30 452.20 798.80 C 455.60 798.50 459.60 800.50 463.40 797.90 C 463.10 799.90 463.40 800.80 464.30 800.50 C 463.20 801.40 462.00 801.60 460.90 801.60 C 451.20 801.30 438.00 801.90 421.40 802.70 C 406.20 803.60 390.80 802.70 375.60 800.70 L 380.40 797.10 Z" fill="#fbb2b1" fill-rule="nonzero" node-id="226" stroke="none" target-height="6.5" target-width="88.69998" target-x="375.6" target-y="797.1"></path></svg>