<?xml version="1.0" standalone="no"?><!DOCTYPE svg PUBLIC "-//W3C//DTD SVG 1.1//EN" "http://www.w3.org/Graphics/SVG/1.1/DTD/svg11.dtd"><svg height="1024" node-id="1" sillyvg="true" template-height="1024" template-width="1024" version="1.1" viewBox="0 0 1024 1024" width="1024" xmlns="http://www.w3.org/2000/svg" xmlns:xlink="http://www.w3.org/1999/xlink"><defs node-id="82"></defs><path d="M 382.00 301.20 C 382.20 305.80 381.00 310.10 378.90 313.90 C 378.40 315.10 377.00 315.80 375.80 315.10 C 375.60 315.10 375.60 314.90 375.30 314.90 C 374.60 314.40 374.10 313.70 374.10 313.00 L 373.90 302.00 C 373.70 300.30 374.90 298.60 376.50 298.20 C 376.70 298.20 377.00 298.20 377.00 298.20 L 378.20 298.00 C 379.90 297.50 381.30 298.50 381.80 300.20 C 382.00 300.50 382.00 300.90 382.00 301.20 Z" fill="#fee09c" fill-rule="nonzero" node-id="86" stroke="none" target-height="18.299988" target-width="8.5" target-x="373.7" target-y="297.5"></path><path d="M 360.20 299.00 L 360.70 299.00 C 362.90 299.00 364.50 300.70 364.50 302.80 L 364.50 311.20 C 364.50 313.40 362.80 315.00 360.70 315.00 L 360.20 315.00 C 358.00 315.00 356.40 313.30 356.40 311.20 L 356.40 302.80 C 356.30 300.70 358.00 299.00 360.20 299.00 Z" fill="#fee09c" fill-rule="nonzero" node-id="88" stroke="none" target-height="16" target-width="8.200012" target-x="356.3" target-y="299"></path><path d="M 324.00 305.50 L 324.20 305.30 C 326.40 304.30 329.00 305.30 330.00 307.50 L 336.70 322.40 C 337.70 324.60 336.70 327.20 334.50 328.20 L 334.30 328.40 C 332.10 329.40 329.50 328.40 328.50 326.20 L 321.80 311.30 C 320.90 309.10 321.80 306.70 324.00 305.50 Z" fill="#f4c5a9" fill-rule="nonzero" node-id="90" stroke="none" target-height="25.100006" target-width="16.800018" target-x="320.9" target-y="304.3"></path><path d="M 684.20 447.80 C 683.50 446.10 682.50 444.40 681.60 442.80 C 677.30 435.10 678.70 425.10 666.30 426.70 C 662.00 427.20 657.70 428.10 653.60 429.60 C 648.10 431.80 642.30 433.40 636.30 434.60 C 635.80 433.90 635.80 433.40 636.10 432.90 L 628.90 395.50 C 629.90 391.70 628.40 389.30 625.10 388.30 C 624.40 388.10 623.70 388.10 622.90 388.30 L 615.50 390.70 L 614.80 381.80 C 614.60 380.10 613.10 378.90 611.40 379.20 L 611.20 379.20 C 607.60 379.90 604.00 380.20 600.40 379.90 C 599.70 379.90 599.00 379.90 598.20 380.40 C 594.40 383.00 590.30 385.20 586.20 387.40 C 584.00 388.60 582.40 388.10 581.40 386.20 C 581.20 385.50 580.70 385.00 580.00 384.80 C 575.00 382.20 569.20 380.70 563.50 380.50 C 562.10 380.50 561.10 379.30 561.10 378.10 C 561.10 377.90 561.10 377.60 561.30 377.40 C 562.00 375.00 563.20 372.80 564.90 370.90 C 568.30 367.30 567.50 365.60 562.50 366.30 C 561.10 366.80 559.60 367.50 558.40 368.70 C 557.40 369.90 556.50 371.10 555.50 372.30 C 552.60 376.60 547.80 379.70 542.60 380.40 C 541.90 380.60 541.20 380.90 540.40 381.40 C 532.30 387.20 525.10 387.20 518.60 381.60 C 514.30 377.80 511.40 372.70 506.90 368.90 C 505.50 367.70 503.50 367.20 501.90 367.90 C 496.40 369.60 491.80 369.10 488.50 366.50 C 487.80 359.80 489.00 352.80 491.90 346.60 C 498.40 333.40 511.80 313.50 527.40 311.40 C 535.50 310.20 540.60 328.20 540.60 332.70 C 540.60 335.60 540.80 338.50 541.30 341.30 C 541.30 341.80 541.80 342.30 542.30 342.30 L 542.50 342.30 C 554.70 340.40 567.20 340.40 579.20 342.50 C 582.10 343.00 583.80 345.60 583.30 348.50 C 583.30 349.00 583.10 349.20 582.80 349.70 C 581.80 352.10 581.40 354.50 581.40 357.10 C 581.40 357.80 581.90 358.50 582.60 359.00 L 599.60 370.00 C 600.80 370.70 602.20 370.50 603.20 369.30 C 603.40 369.10 603.40 368.60 603.70 368.30 C 605.40 355.40 612.30 337.60 624.80 331.20 C 629.40 328.80 632.90 330.50 635.30 334.60 C 638.40 340.10 641.30 345.60 643.90 351.10 C 644.40 352.10 645.60 352.50 646.80 352.30 C 657.60 348.70 663.30 348.20 669.30 359.30 C 672.40 364.80 675.10 370.60 677.20 376.10 C 677.40 377.10 678.40 377.50 679.40 377.30 C 695.00 374.70 708.60 372.30 709.60 393.10 C 709.60 395.30 711.50 396.90 713.70 396.70 L 713.70 396.70 C 719.20 396.50 739.60 395.00 735.30 406.50 C 730.30 420.60 719.70 432.10 706.30 438.90 C 699.10 442.60 691.60 445.70 684.20 447.80 Z M 536.10 360.60 C 535.90 360.80 535.60 361.30 535.40 361.80 L 533.50 370.90 C 533.30 371.90 534.00 372.80 534.90 373.10 C 535.40 373.10 535.90 373.10 536.10 372.90 L 546.90 367.10 C 547.90 366.60 548.10 365.40 547.60 364.50 C 547.60 364.30 547.40 364.30 547.10 364.00 L 541.10 358.20 C 540.40 357.50 539.40 357.50 538.70 358.00 L 536.10 360.60 Z M 655.00 396.80 L 653.30 397.00 C 651.40 397.20 649.70 398.90 649.90 400.80 C 649.40 406.30 647.50 411.60 644.40 416.10 C 641.80 419.90 640.80 424.50 638.40 428.30 C 637.90 429.30 638.20 429.70 639.10 429.70 C 640.30 429.90 641.70 429.50 642.70 428.70 C 643.40 428.20 644.10 427.30 644.60 426.50 C 645.60 424.10 645.60 421.50 647.00 419.10 C 650.80 412.60 654.20 405.90 656.80 398.70 C 657.60 397.30 656.90 396.60 655.00 396.80 L 655.00 396.80 Z M 696.20 411.20 C 691.60 414.30 686.60 416.50 681.10 417.20 C 679.90 417.40 679.20 418.40 679.20 419.60 L 679.20 420.60 C 679.20 421.60 679.70 421.80 680.40 421.30 C 683.30 420.10 686.40 419.40 689.70 419.10 C 691.60 419.10 693.50 418.60 695.20 417.90 C 697.10 416.70 698.10 414.50 698.30 412.40 C 698.30 411.70 697.80 411.00 697.10 411.00 C 696.70 410.90 696.40 411.20 696.20 411.20 L 696.20 411.20 Z" fill="#fedc64" fill-rule="nonzero" node-id="92" stroke="none" target-height="137.59998" target-width="251.79999" target-x="487.8" target-y="310.2"></path><path d="M 316.50 336.20 C 309.50 333.80 304.00 328.30 301.60 321.10 C 300.40 318.50 301.40 315.30 304.00 314.10 L 304.50 313.90 C 306.20 312.90 308.30 313.40 309.50 315.10 C 309.50 315.10 309.50 315.30 309.70 315.30 L 319.50 335.00 C 319.70 335.50 319.50 336.20 319.00 336.40 L 318.80 336.40 C 318.20 336.40 317.50 336.40 316.50 336.20 Z" fill="#f4c5a9" fill-rule="nonzero" node-id="94" stroke="none" target-height="23.5" target-width="19.300018" target-x="300.4" target-y="312.9"></path><path d="M 476.20 364.40 C 473.30 362.70 470.00 363.00 466.10 365.80 C 464.70 366.80 464.20 368.90 465.10 370.40 C 465.30 370.60 465.60 370.90 465.80 371.10 C 468.20 373.00 469.90 375.90 470.10 379.00 C 470.30 379.70 469.90 380.20 469.40 380.40 L 469.20 380.40 C 463.40 381.60 457.90 384.00 452.90 387.40 C 450.50 387.60 448.10 388.60 446.20 389.80 C 437.80 394.80 430.10 400.10 423.00 405.40 C 417.20 404.90 411.70 406.80 407.40 410.70 C 405.50 412.60 402.60 413.30 400.00 412.40 C 382.30 408.60 367.40 397.10 358.80 381.00 C 355.90 376.20 356.20 370.20 359.50 365.70 C 366.20 356.60 375.80 358.30 386.30 359.70 C 387.00 359.70 387.70 359.70 388.50 359.20 C 390.70 358.00 392.80 356.30 394.70 354.60 C 407.60 343.10 417.20 341.90 434.20 345.00 C 435.20 345.20 436.10 345.00 436.80 344.30 C 442.10 340.20 454.30 334.20 460.50 339.50 C 468.00 346.20 473.50 354.90 476.20 364.40 Z" fill="#fedc64" fill-rule="nonzero" node-id="96" stroke="none" target-height="79.099976" target-width="120.30002" target-x="355.9" target-y="334.2"></path><path d="M 536.10 360.60 L 539.00 358.20 C 539.70 357.50 540.90 357.70 541.40 358.40 L 547.40 364.20 C 548.10 364.90 548.10 366.10 547.40 366.80 C 547.20 367.00 547.20 367.00 546.90 367.30 L 536.10 373.10 C 535.10 373.60 533.90 373.30 533.50 372.40 C 533.30 371.90 533.30 371.70 533.30 371.20 L 535.20 362.10 C 535.40 361.30 535.60 361.10 536.10 360.60 Z" fill="#ffc156" fill-rule="nonzero" node-id="98" stroke="none" target-height="16.100006" target-width="14.799988" target-x="533.3" target-y="357.5"></path><path d="M 476.20 364.40 C 480.50 363.70 484.80 364.20 488.70 366.10 C 492.30 368.70 496.60 369.00 502.10 367.50 C 503.80 367.00 505.70 367.30 507.10 368.50 C 511.70 372.30 514.50 377.60 518.80 381.20 C 525.30 387.00 532.70 386.70 540.60 381.00 C 541.30 380.50 542.00 380.30 542.80 380.00 C 548.10 379.30 552.90 376.40 555.70 371.90 C 556.40 370.70 557.40 369.30 558.60 368.30 C 559.60 367.10 561.00 366.40 562.70 365.90 C 567.70 365.20 568.50 366.90 565.10 370.50 C 563.40 372.40 562.20 374.60 561.50 377.00 C 561.00 378.20 561.70 379.60 562.90 380.10 C 563.10 380.10 563.40 380.30 563.60 380.30 C 569.40 380.50 574.90 382.00 580.10 384.60 C 580.60 384.80 581.10 385.30 581.50 386.00 C 582.50 387.90 583.90 388.20 586.30 387.20 C 590.40 385.00 594.40 382.90 598.30 380.20 C 599.00 379.70 599.70 379.70 600.50 379.70 C 604.10 379.90 607.70 379.90 611.30 379.00 C 613.00 378.50 614.70 379.70 614.90 381.40 C 614.90 381.60 614.90 381.60 614.90 381.90 L 615.60 390.80 C 610.30 393.70 605.10 396.60 599.80 399.40 L 590.20 404.00 C 585.90 406.20 581.80 408.60 578.00 411.40 C 577.50 411.90 577.00 411.90 576.30 412.10 C 575.60 412.10 574.90 412.30 574.40 412.80 C 567.00 417.80 559.80 423.10 552.80 428.60 C 551.80 429.30 550.60 429.80 549.40 429.60 C 548.90 429.40 548.20 429.60 548.00 430.30 L 548.00 430.50 L 547.50 433.10 C 546.30 425.90 544.90 418.70 543.20 411.50 C 542.50 408.40 541.50 405.50 540.10 402.60 C 539.90 401.90 539.10 401.60 538.40 401.90 C 519.50 406.90 501.00 414.10 483.50 423.20 C 480.10 424.90 477.00 426.80 473.90 429.00 C 472.90 429.70 471.50 429.50 471.00 428.50 C 471.00 428.30 470.80 428.30 470.80 428.00 C 467.70 418.70 464.10 409.30 460.50 400.40 C 458.60 395.60 455.90 391.30 452.80 387.20 C 457.80 383.80 463.30 381.40 469.10 380.20 C 469.80 380.20 470.30 379.50 470.10 379.00 L 470.10 378.80 C 469.60 375.70 468.20 372.80 465.80 370.90 C 464.40 369.70 464.10 367.80 465.30 366.30 C 465.50 366.10 465.80 365.80 466.00 365.60 C 469.70 363.20 473.10 362.80 476.20 364.40 Z" fill="#feaf3a" fill-rule="nonzero" node-id="100" stroke="none" target-height="70.30002" target-width="162.79999" target-x="452.8" target-y="362.8"></path><path d="M 452.70 387.20 C 455.80 391.30 458.50 395.60 460.40 400.40 C 464.00 409.30 467.60 418.40 470.70 428.00 C 471.20 429.20 472.40 429.70 473.30 429.20 C 473.50 429.20 473.80 429.00 473.80 429.00 C 476.90 426.80 480.00 424.90 483.40 423.20 C 500.90 414.30 519.40 407.10 538.30 401.90 C 539.00 401.70 539.70 402.10 540.00 402.60 C 541.40 405.50 542.40 408.60 543.10 411.50 C 544.80 418.50 546.00 425.60 547.40 433.10 L 547.90 440.10 C 548.10 442.50 548.90 442.70 550.30 440.80 C 554.10 435.50 558.70 431.00 563.50 426.90 C 582.20 410.80 605.00 400.10 629.20 395.50 L 636.40 432.90 L 634.20 437.20 C 634.00 437.90 633.70 438.60 633.70 439.40 C 633.00 448.30 634.90 470.80 626.50 477.00 C 626.00 477.20 625.50 477.20 625.10 476.80 C 625.10 476.80 624.90 476.60 624.90 476.30 C 622.70 462.90 616.00 450.70 606.00 441.50 C 604.60 440.30 602.90 439.60 601.20 439.30 C 601.40 438.60 601.40 437.90 601.20 437.10 C 600.70 436.60 600.20 436.40 599.50 436.40 C 587.00 435.90 574.80 439.30 564.50 446.00 C 559.90 450.80 555.20 453.00 550.40 452.70 C 548.70 452.50 547.30 452.70 545.60 452.90 C 543.90 453.60 542.50 454.30 541.30 455.50 C 540.80 456.00 540.10 456.50 539.40 456.50 C 538.40 456.70 537.20 457.00 536.30 457.20 C 534.90 457.70 533.40 457.90 532.00 458.20 C 524.10 458.70 516.20 458.90 508.50 458.70 C 508.30 458.70 507.80 458.50 507.80 458.20 L 507.60 457.70 C 507.40 457.20 506.60 456.70 506.20 457.00 C 499.20 457.70 492.50 456.00 486.80 452.00 C 485.10 450.60 483.20 449.40 481.00 448.90 C 479.30 448.40 477.40 448.20 475.50 448.40 C 474.50 448.40 474.50 448.60 475.50 449.10 L 484.60 452.50 C 488.40 453.50 491.80 455.10 494.90 457.50 C 490.60 456.80 486.50 455.60 482.70 453.70 C 480.80 452.70 478.90 452.30 476.70 452.70 L 464.70 449.80 C 464.50 449.80 464.50 449.80 464.50 450.00 L 464.50 450.70 C 464.50 450.90 464.50 451.40 465.00 451.40 L 465.20 451.40 C 471.20 451.60 476.70 453.30 482.00 456.20 C 485.80 458.40 489.70 458.60 493.70 460.00 L 493.70 460.00 L 493.70 460.00 C 491.50 459.30 489.40 459.00 487.20 459.30 C 483.40 457.60 479.50 455.90 475.70 454.00 C 474.50 453.30 473.80 453.50 473.50 454.20 C 473.50 454.40 473.50 454.40 473.70 454.70 C 477.80 457.10 482.60 458.50 487.10 459.30 C 492.90 461.90 498.80 464.30 505.10 466.00 C 505.80 466.20 506.30 466.50 507.00 466.70 C 509.40 468.10 509.20 468.40 506.50 467.40 C 501.90 465.70 497.20 464.00 491.90 462.40 C 487.60 461.00 483.00 459.30 479.00 457.40 C 474.90 455.50 470.60 453.60 466.30 451.60 C 464.10 450.60 461.70 451.40 460.50 453.00 C 457.10 457.60 451.60 460.40 444.20 461.60 C 443.20 461.80 443.20 461.60 443.70 460.90 L 444.40 460.20 C 445.10 459.50 446.30 459.00 447.30 458.80 C 450.40 458.30 453.50 457.10 455.90 455.00 C 458.30 453.10 459.50 450.00 459.30 447.10 C 458.30 434.40 443.50 435.60 436.50 442.50 C 432.70 446.60 428.60 450.40 424.80 454.50 C 424.60 454.70 424.30 454.70 424.10 454.50 L 424.10 454.50 L 423.60 454.00 C 423.10 453.50 423.10 452.80 423.60 452.60 L 438.70 433.90 L 429.40 418.30 C 427.50 415.20 423.40 414.00 420.10 415.90 C 419.90 415.90 419.90 416.10 419.60 416.10 L 403.80 427.00 C 403.10 427.20 402.40 427.70 402.10 428.40 C 401.80 429.10 401.60 429.80 401.60 430.60 C 401.80 434.90 401.40 439.20 400.40 443.30 C 400.20 444.30 399.90 444.50 399.20 443.50 C 398.50 442.30 398.20 440.90 398.50 439.70 C 399.00 437.80 397.80 435.60 395.60 435.40 C 394.40 435.20 393.20 435.40 392.20 436.40 L 383.60 441.70 C 382.90 442.20 381.90 442.40 381.00 442.20 C 380.00 442.00 379.10 442.00 378.10 442.20 C 377.40 442.20 376.70 442.90 376.90 443.60 C 376.90 443.80 376.90 444.10 377.10 444.30 L 383.30 458.00 C 383.50 458.70 383.50 458.70 382.80 458.20 C 381.10 456.80 379.70 455.10 378.70 453.20 C 378.20 452.00 377.00 451.30 375.80 451.30 C 375.10 451.30 374.40 451.80 374.10 452.50 C 373.60 453.90 372.20 454.70 370.70 454.20 C 370.50 454.20 370.20 454.00 370.20 454.00 C 369.50 453.80 368.80 453.50 367.80 453.80 C 365.60 454.30 363.50 455.50 361.80 457.20 C 355.60 463.20 348.10 468.20 340.20 471.80 C 337.80 466.80 334.20 462.50 329.70 459.30 C 329.00 458.80 328.50 458.10 328.50 457.40 L 324.40 440.90 C 326.10 427.50 329.00 414.50 333.30 401.60 C 333.50 400.90 334.30 400.40 335.00 400.60 C 347.50 402.00 354.90 406.40 368.30 413.30 C 374.30 416.40 379.60 420.70 386.30 422.90 L 387.70 423.90 C 382.40 425.80 378.60 430.60 378.10 436.40 C 378.10 437.10 378.60 438.10 379.30 438.10 C 379.50 438.10 379.80 438.10 380.00 438.10 C 385.50 436.40 390.50 433.30 394.60 429.20 C 403.00 420.60 411.90 412.40 421.40 404.80 C 428.60 399.50 436.30 394.30 444.60 389.20 C 448.10 388.40 450.30 387.50 452.70 387.20 Z" fill="#3ab3b3" fill-rule="nonzero" node-id="102" stroke="none" target-height="90" target-width="312.00003" target-x="324.4" target-y="387.2"></path><path d="M 629.30 395.60 C 605.10 400.20 582.30 410.90 563.60 427.00 C 558.60 431.10 554.30 435.90 550.40 440.90 C 549.00 442.80 548.20 442.60 548.00 440.20 L 547.50 433.20 L 548.00 430.60 C 548.00 429.90 548.50 429.40 549.20 429.60 L 549.40 429.60 C 550.60 429.80 551.80 429.60 552.80 428.60 C 559.80 422.80 566.90 417.60 574.40 412.80 C 574.90 412.30 575.60 412.10 576.30 412.10 C 576.80 412.10 577.50 411.90 578.00 411.40 C 581.80 408.50 585.90 405.90 590.20 404.00 L 599.80 399.40 C 605.10 396.50 610.30 393.90 615.60 390.80 L 623.00 388.40 C 623.70 388.20 624.40 388.20 625.20 388.40 C 628.80 389.40 630.00 391.80 629.30 395.60 Z" fill="#f1efbe" fill-rule="nonzero" node-id="104" stroke="none" target-height="54.599976" target-width="82.5" target-x="547.5" target-y="388.2"></path><path d="M 656.60 399.20 C 654.00 406.20 650.60 413.10 646.80 419.60 C 645.40 422.00 645.40 424.60 644.40 427.00 C 643.90 428.00 643.40 428.70 642.50 429.20 C 641.50 429.90 640.10 430.20 638.90 430.20 C 637.90 430.20 637.70 429.70 638.20 428.80 C 640.60 425.00 641.60 420.20 644.20 416.60 C 647.60 412.00 649.50 406.80 649.70 401.30 C 649.70 399.40 651.10 397.70 653.10 397.50 L 654.80 397.30 C 656.90 396.60 657.60 397.30 656.60 399.20 Z" fill="#ffa246" fill-rule="nonzero" node-id="106" stroke="none" target-height="33.600006" target-width="19.899963" target-x="637.7" target-y="396.6"></path><path d="M 423.00 405.20 C 413.70 412.90 404.50 421.00 396.20 429.60 C 392.10 433.90 387.10 436.80 381.60 438.50 C 380.90 438.70 379.90 438.30 379.70 437.50 C 379.70 437.30 379.70 437.00 379.70 436.80 C 380.20 431.00 384.00 426.30 389.30 424.30 C 393.60 422.90 397.20 420.20 400.10 416.60 C 400.30 416.40 400.30 416.10 400.10 415.90 L 400.10 415.90 C 399.90 415.70 399.90 415.70 399.60 415.40 L 400.30 412.00 C 402.90 413.00 405.80 412.20 407.70 410.30 C 411.50 406.90 417.20 404.90 423.00 405.20 Z" fill="#ffecd2" fill-rule="nonzero" node-id="108" stroke="none" target-height="33.80002" target-width="43.299988" target-x="379.7" target-y="404.9"></path><path d="M 681.10 417.40 C 686.60 416.40 691.60 414.50 696.20 411.40 C 696.90 410.90 697.60 411.20 698.10 411.90 C 698.30 412.10 698.30 412.40 698.30 412.60 C 698.30 414.80 697.10 416.90 695.20 418.10 C 693.50 419.10 691.60 419.30 689.70 419.30 C 686.60 419.50 683.50 420.30 680.40 421.50 C 679.70 421.70 679.20 421.50 679.20 420.80 L 679.20 419.60 C 679.20 418.60 680.10 417.70 681.10 417.40 Z" fill="#ffc156" fill-rule="nonzero" node-id="110" stroke="none" target-height="10.800018" target-width="19.099976" target-x="679.2" target-y="410.9"></path><path d="M 399.20 415.50 C 399.40 415.50 399.70 415.70 399.70 416.00 C 399.90 416.20 399.90 416.50 399.70 416.70 L 399.70 416.70 C 396.80 420.30 393.20 422.90 388.90 424.40 L 387.50 423.40 C 388.20 423.40 388.70 423.40 389.40 422.90 C 392.50 420.00 395.60 417.70 399.20 415.50 Z" fill="#dbcaab" fill-rule="nonzero" node-id="112" stroke="none" target-height="8.899994" target-width="12.399994" target-x="387.5" target-y="415.5"></path><path d="M 438.30 434.70 C 434.20 434.90 430.20 433.70 427.00 431.10 C 426.30 430.60 425.60 430.40 424.80 430.40 C 420.50 430.60 415.90 431.10 411.60 432.10 C 409.20 432.30 407.00 432.30 404.60 432.10 C 403.60 432.10 403.20 431.40 403.20 430.40 C 403.20 429.40 403.40 428.50 403.90 427.80 L 419.50 417.00 C 422.60 414.80 426.70 415.60 428.80 418.70 C 428.80 418.90 429.00 418.90 429.00 419.20 L 438.30 434.70 Z" fill="#ffbca9" fill-rule="nonzero" node-id="114" stroke="none" target-height="20.100006" target-width="35.099976" target-x="403.2" target-y="414.8"></path><path d="M 684.20 447.80 L 687.60 456.70 C 688.10 457.90 689.30 458.40 690.50 457.90 C 702.20 453.60 714.20 450.00 726.50 446.90 C 728.40 446.20 730.60 447.10 731.50 449.10 C 731.50 449.10 731.50 449.10 731.50 449.30 C 733.70 454.30 735.10 459.80 736.10 465.40 C 736.80 469.20 738.00 477.60 739.50 490.60 C 738.10 491.60 737.10 492.80 736.40 494.40 C 736.20 495.10 735.40 495.60 735.00 495.80 C 734.30 496.00 733.60 496.50 733.30 497.50 C 733.10 498.50 733.30 499.40 733.80 500.40 C 734.80 502.30 735.70 504.00 736.40 505.40 C 738.10 508.30 737.40 509.20 734.20 507.80 C 731.10 506.60 728.20 504.90 725.60 503.20 C 727.00 500.10 729.00 497.40 731.40 495.10 C 731.90 494.60 732.10 493.90 731.90 493.20 C 731.70 492.20 731.20 491.50 730.50 491.00 C 729.80 490.50 729.30 489.80 729.30 488.80 L 728.10 483.80 C 727.90 483.10 727.40 482.40 726.90 481.90 L 714.40 472.10 C 714.20 471.90 713.70 471.60 713.20 471.60 L 695.70 471.10 C 695.20 470.10 694.30 469.20 693.30 468.70 C 692.10 468.20 691.90 468.50 691.90 469.70 L 692.60 475.70 C 692.80 476.70 692.10 477.60 691.20 477.60 C 691.00 477.60 690.50 477.60 690.20 477.40 C 686.40 475.70 682.80 473.30 679.90 470.20 C 677.70 467.60 675.10 465.40 672.00 464.00 C 667.90 462.10 663.90 460.40 659.80 459.00 C 653.30 456.60 647.80 452.80 641.30 449.70 C 634.80 446.60 637.20 440.10 637.00 434.60 C 642.80 433.40 648.50 431.50 654.30 429.60 C 658.40 428.20 662.70 427.20 667.00 426.70 C 679.50 425.00 678.00 435.10 682.30 442.80 C 682.50 444.50 683.50 446.20 684.20 447.80 Z" fill="#b56967" fill-rule="nonzero" node-id="116" stroke="none" target-height="84.20001" target-width="104.70001" target-x="634.8" target-y="425"></path><path d="M 404.00 427.70 C 403.50 428.70 403.30 429.40 403.30 430.30 C 403.30 431.30 404.00 432.00 404.70 432.00 C 407.10 432.20 409.30 432.20 411.70 432.00 C 416.00 431.00 420.60 430.60 424.90 430.30 C 425.60 430.30 426.30 430.50 427.10 431.00 C 430.20 433.60 434.30 434.80 438.40 434.60 L 423.30 453.30 C 422.80 453.80 422.80 454.50 423.30 454.70 L 423.80 455.20 C 424.00 455.40 424.30 455.40 424.50 455.20 L 424.50 455.20 C 428.30 451.10 432.40 447.30 436.20 443.20 C 443.20 436.20 458.00 435.10 459.00 447.80 C 459.20 450.90 458.00 453.80 455.60 455.70 C 453.20 457.60 450.10 459.10 447.00 459.50 C 445.80 459.70 444.80 460.20 444.10 460.90 L 443.40 461.60 C 442.70 462.30 442.90 462.60 443.90 462.30 C 451.30 461.30 456.80 458.50 460.20 453.70 C 461.60 451.80 464.00 451.30 466.00 452.30 C 470.30 454.20 474.40 456.10 478.70 458.10 C 483.00 460.00 487.30 461.70 491.60 463.10 C 496.90 464.80 501.70 466.50 506.20 468.10 C 508.80 469.10 508.80 468.80 506.70 467.40 C 506.20 466.90 505.50 466.70 504.80 466.70 C 498.60 465.00 492.60 462.90 486.80 460.00 C 489.00 459.80 491.10 460.20 493.30 460.70 L 493.30 460.70 L 493.30 460.70 C 489.50 459.30 485.40 458.80 481.60 456.90 C 476.30 454.00 470.80 452.30 464.80 452.10 C 464.60 452.10 464.10 451.90 464.10 451.60 L 464.10 451.40 L 464.10 450.70 C 464.10 450.50 464.30 450.50 464.30 450.50 L 476.30 453.40 L 481.80 456.30 C 483.70 457.30 485.60 458.00 487.60 458.50 C 491.70 459.70 495.70 461.10 499.60 463.10 C 499.80 463.30 500.30 463.30 500.80 463.30 L 502.00 463.30 C 504.90 462.60 504.90 461.90 502.00 461.40 C 499.10 461.20 496.50 460.00 494.30 458.30 C 491.20 455.90 487.60 454.20 484.00 453.30 C 484.70 453.10 485.40 452.80 486.20 453.10 C 492.00 456.90 498.70 458.90 505.60 458.10 C 506.30 458.10 506.80 458.30 507.00 458.80 L 507.20 459.30 C 507.40 459.50 507.70 459.80 507.90 459.80 C 515.60 459.80 523.20 459.80 531.40 459.30 C 532.80 459.10 534.30 458.80 535.70 458.30 C 536.70 458.10 537.60 457.80 538.80 457.60 C 539.50 457.60 540.20 457.10 540.70 456.60 C 541.90 455.40 543.30 454.40 545.00 454.00 C 546.70 453.50 548.10 453.50 549.80 453.80 C 554.80 454.00 559.40 451.90 563.90 447.10 C 571.30 447.10 578.80 445.70 585.70 443.30 C 588.30 442.60 591.00 442.30 593.60 442.80 C 591.20 445.20 591.00 449.00 593.40 451.40 C 593.90 452.10 594.80 452.60 595.60 452.80 C 596.10 453.00 596.60 453.30 596.80 454.00 C 596.80 454.20 597.00 454.50 597.00 454.70 C 597.20 455.40 597.00 456.40 596.30 456.60 C 593.70 458.30 591.70 460.70 590.80 463.80 C 589.60 467.40 591.30 471.50 594.60 473.10 C 597.00 474.30 598.90 476.20 600.60 478.40 C 602.00 480.60 601.60 483.40 599.40 484.90 C 598.90 485.10 598.40 485.40 598.00 485.60 L 589.40 487.80 C 587.70 487.80 586.30 488.50 585.60 490.00 C 583.40 492.60 583.70 495.80 580.60 498.60 C 580.10 499.10 579.60 499.80 579.40 500.80 L 578.90 503.70 C 578.70 504.70 578.20 504.90 577.50 504.20 C 572.70 500.80 567.20 499.20 561.20 499.20 C 560.50 499.20 559.80 499.40 559.50 499.90 C 558.80 500.90 557.30 500.90 556.40 500.10 C 556.20 499.90 555.90 499.60 555.90 499.40 C 555.70 499.20 555.70 498.70 555.70 498.40 C 555.70 497.90 555.50 497.70 555.20 497.70 L 555.00 497.70 C 554.30 497.70 553.60 497.90 552.80 498.20 L 549.20 498.90 C 548.50 499.40 547.50 499.10 547.00 498.70 C 546.50 498.00 545.60 497.70 544.80 497.70 C 540.00 497.70 539.50 499.60 542.90 502.70 C 549.90 509.20 557.30 515.40 565.20 520.70 C 561.80 524.30 559.00 528.10 557.10 532.70 C 556.90 533.40 556.60 534.40 556.90 535.10 C 557.60 537.50 559.10 539.70 561.20 540.90 C 561.70 541.10 562.20 541.40 562.60 541.10 C 563.80 541.10 564.50 541.60 564.80 543.30 C 564.80 544.00 564.60 544.50 564.30 545.00 L 547.30 565.90 C 547.80 564.50 547.80 563.00 547.50 561.60 C 547.50 561.10 547.00 560.60 546.30 560.90 C 546.10 560.90 546.10 560.90 545.80 561.10 C 544.40 561.80 542.90 562.30 541.50 562.30 C 540.80 562.50 540.10 562.30 539.30 561.80 L 507.20 540.70 C 500.00 534.50 492.60 531.60 484.90 532.10 C 481.10 532.80 477.20 534.30 474.10 536.90 C 473.40 537.40 472.70 537.60 471.90 537.60 C 467.60 537.80 463.30 536.90 459.70 534.70 C 459.00 534.50 458.70 533.70 458.70 533.00 C 458.70 530.80 458.00 528.70 456.80 527.00 C 456.30 526.30 455.40 526.00 454.60 526.00 L 446.00 527.20 C 445.30 527.20 444.60 527.70 443.80 528.40 C 443.30 529.10 442.60 529.80 441.90 530.60 C 438.50 534.20 438.50 538.00 432.60 538.70 L 425.20 539.40 C 415.60 542.00 405.30 544.20 394.00 546.40 C 390.20 547.10 386.80 548.80 383.90 551.20 C 383.40 551.70 382.90 552.40 382.70 553.10 C 382.20 556.20 380.50 559.30 377.90 561.20 C 377.20 561.70 376.70 561.70 376.50 561.00 L 376.30 560.30 C 376.10 559.60 376.30 558.60 376.80 557.90 C 379.90 554.50 381.10 550.00 379.90 545.40 C 379.90 544.70 379.20 544.20 378.50 544.20 C 378.30 544.20 377.80 544.20 377.50 544.40 C 377.00 544.90 377.00 545.40 377.00 545.80 C 377.00 549.40 373.90 552.50 370.30 552.50 C 363.30 552.50 357.60 559.70 354.50 565.40 C 353.10 568.00 351.40 570.40 349.20 572.60 C 346.80 575.20 344.90 577.90 343.20 581.00 C 342.70 582.00 342.50 583.20 342.50 584.10 C 342.50 584.80 342.30 585.50 341.50 585.50 L 341.50 585.50 C 336.50 586.90 331.00 585.30 327.60 581.20 C 329.50 581.70 331.40 582.40 332.90 583.80 C 334.60 585.50 337.50 585.50 339.10 583.80 C 339.60 583.30 339.80 582.80 340.10 582.10 C 341.10 579.70 342.00 577.30 343.50 575.10 C 346.40 570.10 346.60 565.50 344.20 561.90 C 340.80 558.50 336.80 556.10 332.20 554.70 C 331.00 554.20 329.60 554.50 328.40 555.20 C 323.40 558.80 322.40 563.80 326.00 570.10 C 326.70 573.00 326.70 576.10 325.80 579.00 L 316.50 572.80 C 315.80 567.50 315.50 562.50 316.00 557.20 C 317.20 551.40 318.20 545.50 318.90 539.70 C 319.10 540.20 319.40 540.70 319.60 541.10 C 320.80 543.00 321.50 542.80 321.80 540.60 C 322.30 536.50 320.60 533.20 320.80 529.60 C 321.00 524.60 321.80 519.80 322.70 515.00 C 323.20 506.10 326.30 497.50 331.60 490.10 L 331.60 489.90 C 331.60 489.70 331.40 489.40 331.40 489.40 C 331.20 489.20 330.90 489.20 330.70 489.20 L 330.50 489.40 L 321.40 503.10 C 320.70 504.10 319.20 504.30 318.30 503.80 C 318.10 503.60 317.80 503.30 317.60 503.10 C 315.20 499.50 312.10 496.10 308.50 493.80 C 305.60 492.10 303.70 489.00 303.50 485.70 C 304.50 483.80 305.70 481.90 306.60 479.70 C 308.50 475.40 308.30 470.60 309.50 466.00 C 310.00 464.60 309.30 462.90 307.80 462.20 C 304.00 460.30 299.70 461.50 294.90 465.80 C 297.30 461.70 299.70 458.10 301.90 455.00 C 303.30 453.10 306.00 452.40 309.60 453.10 C 313.90 453.80 318.00 454.50 322.10 455.50 C 322.60 455.70 322.80 455.70 323.30 455.50 C 323.80 455.30 324.00 455.00 324.30 454.50 L 323.00 456.00 C 322.80 456.70 322.80 457.40 323.50 457.90 L 340.30 471.60 C 348.20 468.00 355.60 463.20 361.90 457.00 C 363.60 455.30 365.50 454.10 367.90 453.60 C 368.60 453.40 369.60 453.40 370.30 453.80 C 371.50 454.50 373.20 454.30 373.90 453.10 C 373.90 452.90 374.10 452.60 374.10 452.60 C 374.30 451.90 375.10 451.40 375.80 451.40 C 377.00 451.40 378.20 452.10 378.70 453.30 C 379.70 455.20 381.10 456.90 382.80 458.30 C 383.30 458.80 383.50 458.50 383.30 458.10 L 377.10 444.40 C 376.60 443.70 376.90 443.00 377.30 442.50 C 377.50 442.30 377.80 442.30 378.00 442.30 C 379.00 442.10 379.90 442.10 380.90 442.30 C 381.90 442.50 382.80 442.30 383.50 441.80 L 392.10 436.50 C 393.80 435.50 396.20 436.00 397.10 437.70 C 397.60 438.40 397.60 439.10 397.60 440.10 C 397.40 441.50 397.60 442.70 398.30 443.90 C 398.80 444.90 399.30 444.90 399.50 443.70 C 400.50 439.60 400.70 435.30 400.70 431.00 C 400.70 430.30 400.70 429.60 401.20 428.80 C 402.60 428.70 403.10 428.00 404.00 427.70 Z M 504.20 502.30 C 490.30 500.40 475.20 509.30 464.90 519.30 C 463.90 520.30 463.70 521.70 464.70 522.90 C 465.90 524.30 467.30 525.30 469.00 525.50 C 469.70 525.70 470.40 525.70 471.20 525.30 C 473.80 523.60 477.90 521.70 483.40 519.10 C 490.60 515.50 498.70 513.80 506.90 514.30 C 509.80 514.50 510.70 513.30 510.30 510.50 C 510.10 509.30 509.60 507.90 509.30 506.40 C 508.00 504.20 506.40 502.50 504.20 502.30 L 504.20 502.30 Z M 539.40 529.80 C 539.20 524.50 533.40 520.50 526.90 520.70 C 520.40 520.90 515.40 525.70 515.60 531.20 C 515.80 536.70 521.60 540.50 528.10 540.30 C 534.60 540.10 539.90 535.10 539.40 529.80 L 539.40 529.80 Z M 399.20 535.60 L 389.60 538.70 C 388.90 538.90 388.20 538.70 387.40 538.20 C 386.40 537.20 385.20 536.80 383.80 537.00 C 382.80 537.20 382.10 538.00 382.40 538.90 C 382.40 539.40 382.90 539.90 383.10 540.10 L 383.80 540.60 C 384.50 540.80 384.80 541.80 384.30 542.30 L 384.30 542.30 C 384.10 542.80 383.80 543.50 384.10 544.20 C 384.10 544.90 384.60 545.40 385.30 545.40 C 385.80 545.60 386.50 545.40 386.50 544.90 C 386.50 544.70 386.70 544.70 387.00 544.40 L 430.90 535.50 C 432.30 535.30 432.80 534.30 432.30 533.10 C 432.10 532.60 431.80 532.10 431.80 531.70 C 431.30 530.50 430.10 529.80 428.90 530.00 C 421.50 530.70 414.50 531.20 408.50 531.20 C 406.60 531.20 404.70 531.90 403.00 532.90 C 403.20 531.70 402.80 530.50 402.00 529.50 C 401.30 529.00 400.30 529.00 399.60 529.50 C 398.20 530.90 395.80 531.20 394.10 530.00 C 393.10 529.50 392.70 528.80 392.40 527.80 C 391.90 525.60 390.00 524.00 387.80 524.00 C 387.10 524.00 386.10 524.20 385.60 525.00 C 382.00 529.10 382.20 532.90 386.30 536.50 C 387.00 537.00 387.70 537.20 388.50 537.20 C 392.50 537.70 396.10 537.00 399.20 535.60 L 399.20 535.60 Z M 372.20 537.70 L 379.20 539.40 C 379.70 539.60 380.40 539.40 380.60 538.70 L 380.60 538.50 C 380.80 537.30 380.60 536.10 379.90 535.10 C 376.50 531.30 372.00 528.90 367.00 527.90 C 366.30 527.70 365.30 527.90 364.80 528.60 L 349.20 544.70 C 347.50 546.60 347.50 548.10 349.70 549.50 L 350.20 550.00 C 351.90 551.40 354.50 551.00 355.70 549.30 C 355.70 549.30 355.70 549.10 355.90 549.10 C 359.50 544.80 363.60 541.40 368.40 538.60 C 369.50 537.70 371.00 537.50 372.20 537.70 L 372.20 537.70 Z" fill="#e2917e" fill-rule="nonzero" node-id="118" stroke="none" target-height="159.20001" target-width="307.1" target-x="294.9" target-y="427.7"></path><path d="M 766.20 434.40 L 767.40 438.50 C 768.10 441.10 766.70 443.80 764.00 444.50 C 763.50 444.70 763.00 444.70 762.60 444.70 L 757.60 444.50 C 755.00 444.30 753.00 442.10 753.30 439.50 L 753.30 439.30 L 754.00 434.30 C 754.50 431.70 756.90 430.00 759.50 430.50 C 759.70 430.50 760.20 430.70 760.50 430.70 L 763.40 431.90 C 764.70 432.00 765.70 433.00 766.20 434.40 Z" fill="#fef2e1" fill-rule="nonzero" node-id="120" stroke="none" target-height="14.700012" target-width="15.099976" target-x="753" target-y="430"></path><path d="M 636.50 433.00 C 636.30 433.50 636.30 434.00 636.70 434.70 C 636.70 440.50 634.30 446.90 641.00 449.80 C 647.70 452.70 653.00 456.50 659.50 459.10 C 663.60 460.50 667.40 462.20 671.70 464.10 C 674.60 465.80 677.50 467.90 679.60 470.30 C 682.50 473.40 686.10 475.80 689.90 477.50 C 690.90 478.00 691.80 477.50 692.30 476.50 C 692.50 476.30 692.50 475.80 692.50 475.50 L 691.80 469.50 C 691.60 468.30 692.00 468.10 693.20 468.50 C 694.20 469.00 695.10 469.90 695.60 470.90 C 699.90 475.90 702.80 481.90 706.90 486.00 C 712.70 492.20 718.90 497.70 725.60 503.00 C 728.50 504.70 731.40 506.40 734.20 507.60 C 737.30 508.80 738.00 508.10 736.40 505.20 C 735.70 504.00 734.70 502.30 733.80 500.20 C 733.30 499.20 733.10 498.30 733.30 497.30 C 733.50 496.60 734.30 495.90 735.00 495.60 C 735.70 495.30 736.20 494.90 736.40 494.20 C 736.90 492.50 738.10 491.30 739.50 490.40 L 740.90 490.20 L 741.40 490.40 C 741.60 490.60 741.90 490.90 742.10 491.10 C 743.30 498.80 746.70 505.70 751.70 511.50 C 757.00 518.90 761.00 523.50 763.70 524.70 C 768.70 527.10 774.20 529.50 780.00 532.10 C 782.90 535.50 787.70 536.20 791.30 533.50 C 793.70 532.80 795.90 531.30 797.10 529.40 C 797.60 528.70 798.30 528.40 799.00 528.40 C 802.40 528.40 805.50 530.30 808.30 534.20 C 809.30 534.90 810.90 535.90 813.60 537.30 C 815.00 538.30 816.00 539.90 815.80 541.90 C 807.90 544.30 799.70 545.50 791.60 545.00 C 783.50 544.50 777.90 543.60 775.30 541.90 C 770.50 539.30 765.70 536.60 760.70 534.50 C 755.70 532.40 750.90 529.70 746.10 526.80 C 737.20 521.50 728.40 516.50 719.30 511.50 C 714.50 508.90 709.70 505.30 704.40 502.40 C 700.30 500.20 696.50 497.80 693.10 495.70 C 679.40 486.60 667.90 479.60 659.30 474.80 C 653.80 471.90 647.60 470.00 641.30 469.00 C 636.00 468.00 633.90 470.00 632.20 474.80 C 630.30 479.40 628.80 483.20 627.40 487.30 C 626.00 491.40 624.00 495.40 621.90 499.30 C 616.40 508.40 608.50 516.10 599.40 521.60 C 598.00 522.60 596.30 523.00 594.60 523.00 C 592.90 523.00 591.20 522.80 589.60 522.50 C 587.20 522.00 584.60 521.80 582.20 521.50 C 576.70 521.50 571.40 520.80 566.10 519.60 C 558.20 514.10 550.80 508.10 543.80 501.60 C 540.40 498.20 540.90 496.60 545.70 496.60 C 546.40 496.60 547.40 497.10 547.90 497.60 C 548.40 498.10 549.30 498.30 550.10 497.80 L 553.20 496.40 C 556.80 498.30 556.30 499.80 551.80 500.70 C 551.10 500.70 550.40 501.40 550.60 502.10 C 550.40 504.00 551.60 505.70 553.50 505.90 C 553.70 505.90 554.00 505.90 554.00 505.90 C 555.20 506.10 556.20 506.60 556.60 507.60 C 562.10 515.30 573.10 518.60 582.20 519.60 C 587.00 520.10 592.00 518.40 597.50 518.60 C 598.20 518.60 598.90 518.40 599.70 518.10 C 606.20 514.00 611.70 508.50 615.80 501.80 L 622.50 490.50 C 623.70 489.10 623.90 487.10 623.70 485.20 C 622.50 481.40 621.30 477.50 620.30 473.70 C 619.80 472.00 618.10 470.60 615.30 469.60 C 613.40 463.40 608.60 458.60 602.10 456.90 C 601.40 456.70 600.40 456.70 599.70 456.90 C 596.80 457.90 595.10 461.00 595.90 464.10 C 596.60 468.40 599.50 472.20 603.60 473.90 C 604.80 476.50 607.00 478.50 609.60 479.20 C 610.30 479.40 610.80 480.20 610.80 480.90 C 610.80 485.50 607.40 487.90 602.90 487.90 C 598.60 487.70 594.50 487.20 590.40 486.20 L 599.00 484.00 C 601.40 483.30 603.10 480.90 602.40 478.50 C 602.20 478.00 601.90 477.50 601.70 477.10 C 600.00 474.90 598.10 473.30 595.70 471.80 C 592.10 470.10 590.40 466.30 591.90 462.50 C 592.90 459.40 594.80 457.00 597.40 455.30 C 598.10 454.80 598.40 454.10 598.10 453.40 C 598.10 453.20 597.90 452.90 597.90 452.70 C 597.70 452.20 597.20 451.70 596.70 451.50 C 593.60 450.30 592.10 446.70 593.30 443.60 C 593.50 442.90 594.00 442.20 594.70 441.40 L 601.70 438.80 C 603.40 439.00 605.10 439.80 606.50 441.00 C 616.60 450.10 623.30 462.30 625.40 475.80 C 625.40 476.30 626.10 476.80 626.60 476.50 C 626.80 476.50 626.80 476.50 627.10 476.30 C 635.50 470.10 633.60 447.50 634.30 438.70 C 634.30 438.00 634.50 437.30 634.80 436.50 L 636.50 433.00 Z" fill="#7d434d" fill-rule="nonzero" node-id="122" stroke="none" target-height="112.5" target-width="275.59998" target-x="540.4" target-y="433"></path><path d="M 601.00 439.70 L 594.30 442.30 C 591.70 441.80 589.00 442.10 586.40 442.80 C 579.40 445.20 572.00 446.40 564.60 446.60 C 575.10 439.90 587.10 436.50 599.60 437.00 C 600.30 437.00 600.80 437.20 601.30 437.70 C 601.50 438.30 601.50 439.00 601.00 439.70 Z" fill="#ffecd2" fill-rule="nonzero" node-id="124" stroke="none" target-height="10.100006" target-width="36.900024" target-x="564.6" target-y="436.5"></path><path d="M 341.70 471.80 L 324.90 458.40 C 324.40 457.90 324.20 457.20 324.40 456.50 L 325.10 454.80 C 324.10 450.20 324.40 445.50 325.80 441.10 L 329.90 457.40 C 330.10 458.10 330.60 458.80 331.10 459.30 C 335.70 462.50 339.30 466.80 341.70 471.80 Z" fill="#4c7068" fill-rule="nonzero" node-id="126" stroke="none" target-height="30.699982" target-width="17.600006" target-x="324.1" target-y="441.1"></path><path d="M 486.20 452.40 C 485.50 452.40 484.80 452.40 484.00 452.60 L 474.90 449.20 C 473.90 449.00 473.90 448.70 474.90 448.50 C 476.80 448.30 478.70 448.50 480.40 449.00 C 482.60 449.80 484.80 451.00 486.20 452.40 Z" fill="#469da7" fill-rule="nonzero" node-id="128" stroke="none" target-height="4.3000183" target-width="12.300018" target-x="473.9" target-y="448.3"></path><path d="M 476.40 453.10 C 478.30 452.60 480.50 453.10 482.40 454.10 C 486.20 456.00 490.30 457.20 494.60 457.90 C 496.80 459.60 499.40 460.80 502.30 461.00 C 505.20 461.50 505.20 462.20 502.30 462.90 L 501.10 462.90 C 500.60 462.90 500.40 462.90 499.90 462.70 C 496.10 460.80 492.00 459.10 487.90 458.10 C 486.00 457.60 484.10 456.90 482.10 455.90 L 476.40 453.10 Z" fill="#879e86" fill-rule="nonzero" node-id="130" stroke="none" target-height="10.299988" target-width="28.800018" target-x="476.4" target-y="452.6"></path><path d="M 486.50 460.10 C 481.70 459.40 477.20 457.70 473.10 455.50 C 472.90 455.50 472.90 455.30 472.90 455.00 C 473.10 454.30 473.90 454.00 475.10 454.80 C 478.80 456.70 482.60 458.40 486.50 460.10 Z" fill="#da919e" fill-rule="nonzero" node-id="132" stroke="none" target-height="6.100006" target-width="13.600006" target-x="472.9" target-y="454"></path><path d="M 614.70 470.40 L 613.50 475.20 C 613.30 475.90 612.80 476.60 612.10 476.90 C 609.70 477.90 606.80 477.10 603.20 474.70 C 599.10 473.00 596.00 469.20 595.50 464.90 C 594.80 461.80 596.50 458.70 599.30 457.70 C 600.00 457.50 601.00 457.50 601.70 457.70 C 607.80 459.60 612.80 464.10 614.70 470.40 Z" fill="#ffa490" fill-rule="nonzero" node-id="134" stroke="none" target-height="20.399994" target-width="19.900024" target-x="594.8" target-y="457.5"></path><path d="M 304.30 486.00 C 304.30 487.40 304.10 488.60 303.80 489.80 C 303.60 490.50 302.80 491.00 302.10 491.00 L 298.70 490.80 C 297.70 490.80 296.80 491.00 296.10 491.50 L 287.50 498.20 C 280.30 503.50 287.50 512.10 291.60 516.90 C 294.50 520.00 296.90 523.60 298.60 527.40 C 299.60 529.30 301.50 530.80 303.60 531.20 L 317.30 533.60 C 318.00 533.80 318.70 533.40 318.70 532.60 L 318.70 532.40 C 318.70 525.00 319.20 517.80 320.60 510.60 C 320.80 509.90 321.30 509.40 321.80 509.40 L 322.50 509.40 C 323.00 509.40 323.20 509.60 323.20 510.10 L 323.20 515.60 C 322.20 520.40 321.80 525.40 321.30 530.20 C 321.10 533.80 322.70 537.20 322.30 541.20 C 322.10 543.40 321.30 543.60 320.10 541.70 C 319.90 541.20 319.60 540.70 319.40 540.30 C 318.90 539.60 318.20 538.90 317.50 538.60 C 312.20 537.20 307.20 535.70 302.20 534.80 C 300.30 534.60 298.60 533.40 297.60 531.70 C 293.00 524.30 288.30 517.10 283.00 510.40 C 278.00 503.70 280.40 495.30 284.00 486.70 C 287.10 479.70 291.00 473.00 295.50 466.60 C 300.30 462.30 304.60 461.10 308.40 463.00 C 309.80 463.70 310.30 465.20 310.10 466.80 C 308.90 471.40 309.10 476.40 307.20 480.50 C 306.20 482.10 305.30 484.00 304.30 486.00 Z" fill="#b14f59" fill-rule="nonzero" node-id="136" stroke="none" target-height="82.49997" target-width="45.200012" target-x="278" target-y="461.1"></path><path d="M 815.80 542.50 C 819.20 540.60 822.00 538.40 824.70 535.50 C 827.30 532.90 829.70 530.20 832.40 528.10 C 835.80 525.00 838.40 520.90 839.60 516.60 C 839.80 515.90 840.30 515.60 841.00 515.90 C 841.20 515.90 841.50 516.10 841.50 516.40 C 842.00 517.10 842.90 517.60 843.90 517.60 C 845.80 517.60 846.80 516.60 846.30 515.20 C 848.90 529.10 849.90 543.50 849.40 557.60 L 846.30 558.10 C 845.60 558.10 844.90 558.80 844.90 559.50 C 844.20 563.30 843.20 566.90 842.00 570.50 C 841.50 571.70 840.80 574.30 839.40 578.40 C 838.40 582.00 836.80 585.10 834.40 588.00 C 833.20 589.40 831.50 589.90 829.80 589.40 C 829.10 589.40 828.40 588.70 828.40 587.70 L 828.40 587.70 L 828.40 580.00 C 828.40 578.80 827.70 578.10 826.50 578.10 C 826.30 578.10 826.30 578.10 826.00 578.10 C 825.30 578.10 824.60 578.80 824.30 579.50 C 822.60 584.50 820.20 593.40 815.20 595.60 C 811.60 597.00 808.00 599.20 805.10 601.60 C 801.70 604.50 798.10 606.90 794.30 608.80 C 778.50 616.70 762.40 624.10 746.10 630.80 C 740.10 633.20 734.10 635.40 727.90 636.80 C 726.20 637.00 724.80 636.10 724.30 634.60 C 724.30 634.40 724.30 634.10 724.30 633.90 C 725.00 616.60 721.90 599.10 715.20 583.30 C 715.00 582.80 714.50 582.60 714.00 582.80 C 713.80 582.80 713.50 583.00 713.50 583.30 L 713.00 585.50 C 712.80 586.70 713.00 587.90 713.50 589.10 C 718.30 600.60 720.90 615.20 721.60 633.20 C 721.80 638.50 719.20 639.40 714.20 640.60 C 710.10 641.60 706.30 643.70 702.50 644.90 C 696.00 646.80 689.80 648.70 683.60 650.90 C 682.60 651.10 681.70 651.60 681.00 652.30 C 676.90 655.20 675.20 654.20 675.70 649.20 C 676.90 640.60 676.90 631.70 675.20 623.10 C 674.20 618.50 672.80 614.20 671.10 609.90 C 669.40 605.60 668.00 601.30 666.80 596.70 C 665.60 591.70 663.20 586.60 660.30 582.30 C 659.80 581.80 659.30 581.30 658.90 581.10 C 658.20 580.60 657.70 580.90 658.20 581.80 C 658.40 582.50 658.70 583.20 658.70 584.00 C 658.70 584.80 658.90 585.40 659.20 586.20 C 663.00 593.90 665.70 601.80 667.60 610.20 C 670.00 620.30 671.70 628.70 672.60 635.60 C 673.10 641.60 672.40 647.60 670.20 653.10 C 670.00 653.80 669.20 654.30 668.50 654.50 C 665.90 655.00 663.70 655.90 661.50 657.40 C 657.90 660.00 652.60 660.30 648.30 662.20 C 641.80 665.10 634.90 667.50 627.90 668.90 C 620.20 670.60 613.80 672.30 608.50 673.70 C 600.60 676.30 592.40 678.50 584.30 679.90 C 575.90 681.30 567.80 683.00 559.90 684.90 C 558.20 685.40 556.80 685.40 555.10 685.40 C 553.70 685.40 552.50 684.20 552.70 682.80 C 552.70 682.60 552.70 682.10 552.90 681.80 C 555.80 675.30 556.30 670.80 554.60 667.70 L 561.80 655.20 C 569.90 645.10 588.20 619.20 585.30 606.10 C 584.30 600.60 580.00 596.30 574.50 595.30 C 571.60 594.60 568.70 593.60 566.10 592.40 C 554.80 586.20 542.10 580.20 547.90 564.80 L 564.90 543.90 C 565.40 543.40 565.40 542.70 565.40 542.20 C 565.20 540.80 564.40 540.00 563.20 540.00 C 562.70 540.00 562.20 540.00 561.80 539.80 C 559.60 538.60 558.00 536.40 557.50 534.00 C 557.30 533.30 557.30 532.30 557.70 531.60 C 559.60 527.00 562.50 523.20 565.80 519.60 C 571.10 521.00 576.30 521.50 581.90 521.50 C 584.50 521.50 586.90 521.70 589.30 522.50 C 591.00 522.70 592.70 523.00 594.30 523.00 C 595.90 523.00 597.70 522.50 599.10 521.60 C 608.20 516.10 615.90 508.40 621.60 499.30 C 623.80 495.50 625.70 491.40 627.10 487.30 C 628.50 483.50 630.20 479.40 631.90 475.10 C 633.60 470.80 635.70 468.60 641.20 469.30 C 647.40 470.30 653.40 472.20 659.20 475.10 C 668.10 479.90 679.30 486.60 693.00 496.00 C 696.40 498.20 700.20 500.60 704.30 502.70 C 709.60 505.60 714.40 509.20 719.20 511.80 C 728.30 516.60 737.20 521.60 746.00 527.10 C 750.80 530.00 755.60 532.40 760.60 534.80 C 765.60 537.20 770.40 539.60 775.20 542.20 C 778.10 543.90 783.60 544.80 791.50 545.30 C 799.70 545.90 808.10 544.90 815.80 542.50 Z M 676.50 514.70 L 668.60 506.30 C 666.90 504.60 664.30 504.60 662.60 506.30 L 658.00 510.90 C 654.40 514.30 654.20 520.00 657.80 523.60 L 657.80 523.60 L 659.50 525.30 C 662.90 528.90 668.60 528.90 672.20 525.50 L 676.80 520.90 C 678.20 519.30 678.20 516.60 676.50 514.70 L 676.50 514.70 Z M 711.30 530.10 C 708.40 527.50 704.10 527.70 701.50 530.60 C 701.30 530.80 701.00 531.30 700.80 531.80 L 698.40 535.90 C 697.00 538.30 697.20 541.20 698.60 543.60 L 701.00 547.20 C 703.20 550.30 707.50 551.00 710.80 548.90 C 710.80 548.90 711.00 548.90 711.00 548.70 L 715.60 545.10 C 718.70 542.70 719.20 538.40 716.80 535.30 C 716.60 535.10 716.30 534.60 716.10 534.30 L 711.30 530.10 Z M 571.60 568.60 C 572.30 567.20 572.80 565.50 573.50 564.00 C 574.50 561.60 575.70 559.40 577.30 557.80 C 580.70 554.40 582.30 549.90 582.10 545.10 C 581.60 538.10 579.20 537.20 574.40 542.50 C 571.30 545.90 567.90 548.70 564.30 551.40 C 561.90 553.10 560.70 555.20 558.10 556.90 C 557.40 557.10 556.90 557.90 556.90 558.60 C 556.90 559.30 556.20 559.80 555.50 559.80 C 554.80 559.80 554.10 560.30 554.10 561.00 L 554.10 561.20 C 554.10 562.60 553.40 563.80 552.40 564.80 C 551.70 565.80 551.00 566.70 550.70 567.90 C 549.00 575.30 552.60 585.20 562.20 582.30 C 565.10 581.30 567.50 578.70 569.40 573.70 C 570.40 571.80 571.10 570.30 571.60 568.60 Z M 750.10 545.90 C 748.20 544.90 745.80 545.70 744.80 547.60 C 744.60 547.80 744.60 548.30 744.60 548.60 C 742.40 554.80 746.50 564.90 755.10 560.60 C 758.00 559.40 759.40 556.00 758.20 553.20 L 758.20 553.20 C 757.30 549.70 754.70 547.30 750.10 545.90 Z M 833.80 554.00 C 835.00 554.20 836.40 552.60 836.70 550.20 C 837.00 547.80 836.20 545.90 834.80 545.60 C 833.40 545.30 832.20 547.30 831.90 549.40 C 831.60 551.50 832.30 553.80 833.80 554.00 Z M 581.90 594.50 C 580.90 595.00 580.70 596.20 581.20 596.90 C 581.40 597.40 581.70 597.60 582.20 597.60 C 586.00 599.00 590.30 599.00 594.20 597.40 C 607.60 592.10 619.80 582.50 626.10 569.40 C 627.80 565.80 629.70 562.40 631.60 559.10 C 631.80 558.60 631.80 557.90 631.40 557.40 L 630.90 556.90 C 630.70 556.70 630.20 556.70 629.90 556.90 L 629.90 556.90 C 628.20 559.50 626.80 562.20 625.60 564.80 C 624.40 567.40 622.70 569.80 620.80 572.20 C 615.00 579.60 607.90 585.60 599.70 590.40 C 595.90 592.60 591.60 593.50 587.20 593.00 C 585.00 593.30 583.30 593.60 581.90 594.50 Z M 794.20 561.00 C 791.60 558.40 787.50 558.40 784.90 561.00 L 784.90 561.00 L 781.00 565.00 C 778.40 567.60 778.60 572.00 781.20 574.30 C 781.40 574.50 781.70 574.80 782.20 575.00 L 786.80 578.10 C 789.70 580.00 793.30 579.50 795.40 576.90 L 798.50 573.50 C 800.90 570.90 800.70 566.80 798.30 564.40 L 794.20 561.00 Z" fill="#fe6048" fill-rule="nonzero" node-id="138" stroke="none" target-height="216.80002" target-width="307.80005" target-x="542.1" target-y="468.6"></path><path d="M 614.70 470.40 C 617.60 471.40 619.30 472.80 619.70 474.50 C 620.70 478.30 621.90 482.20 623.10 486.00 C 623.60 487.90 623.10 489.80 621.90 491.30 L 615.20 502.60 C 611.40 509.30 605.90 514.80 599.10 518.90 C 598.40 519.40 597.70 519.60 596.90 519.40 C 591.60 519.20 586.40 520.80 581.60 520.40 C 572.50 519.40 561.50 516.10 556.00 508.40 C 555.30 507.40 554.30 507.00 553.40 506.70 C 551.50 506.70 550.00 505.30 550.00 503.30 C 550.00 503.10 550.00 502.80 550.00 502.80 C 550.00 502.10 550.50 501.40 551.20 501.40 C 555.80 500.40 556.20 499.00 552.60 497.10 C 553.30 496.90 554.00 496.60 554.80 496.60 C 555.30 496.60 555.50 496.60 555.80 497.10 L 555.80 497.30 C 555.80 497.50 555.80 498.00 556.00 498.30 C 556.50 499.50 557.90 500.00 558.90 499.50 C 559.10 499.30 559.40 499.30 559.60 499.00 C 560.10 498.50 560.80 498.30 561.30 498.30 C 567.10 498.30 572.80 500.20 577.60 503.60 C 578.60 504.10 579.00 504.10 579.00 503.10 L 579.50 500.20 C 579.70 499.50 580.00 498.80 580.70 498.00 C 583.80 495.10 583.60 492.00 585.70 489.40 C 586.70 488.00 588.10 487.20 589.50 487.20 C 593.60 488.20 597.90 488.90 602.00 488.90 C 606.60 489.10 609.90 486.70 609.90 481.90 C 609.90 481.20 609.40 480.50 608.70 480.20 C 606.10 479.20 603.90 477.30 602.70 474.90 C 606.30 477.30 609.20 478.00 611.60 477.10 C 612.30 476.90 612.80 476.10 613.00 475.40 L 614.70 470.40 Z" fill="#df615d" fill-rule="nonzero" node-id="140" stroke="none" target-height="50.399994" target-width="73.599976" target-x="550" target-y="470.4"></path><path d="M 725.00 503.50 C 718.30 498.20 712.10 492.70 706.30 486.50 C 702.50 482.40 699.30 476.40 695.00 471.40 L 712.50 471.90 C 713.00 471.90 713.20 472.10 713.70 472.40 L 726.20 482.20 C 726.90 482.70 727.40 483.40 727.40 484.10 L 728.60 489.10 C 728.80 489.80 729.30 490.50 729.80 491.30 C 730.50 491.80 731.00 492.50 731.20 493.50 C 731.40 494.20 731.20 494.90 730.70 495.40 C 728.30 497.50 726.40 500.30 725.00 503.50 Z" fill="#e37a7b" fill-rule="nonzero" node-id="142" stroke="none" target-height="32.100006" target-width="36.400024" target-x="695" target-y="471.4"></path><path d="M 791.30 534.10 C 787.70 536.70 782.70 536.00 780.00 532.70 C 778.30 528.60 777.10 524.30 776.20 520.00 C 776.00 517.80 775.50 515.70 775.20 513.50 C 775.00 511.30 774.00 509.40 772.60 508.00 C 769.00 504.90 763.70 504.40 759.70 507.30 C 757.10 509.00 754.40 510.40 751.30 512.10 C 746.30 506.30 742.90 499.20 741.70 491.70 C 741.70 491.20 741.50 491.00 741.00 491.00 L 740.50 490.80 C 745.30 487.70 750.60 485.00 755.80 482.90 C 766.80 478.80 774.00 475.90 777.10 474.50 C 779.70 473.10 782.90 472.80 786.00 473.80 C 786.70 474.00 787.20 474.80 787.40 475.50 C 789.60 483.40 790.50 491.80 790.50 499.90 C 790.90 511.10 791.10 522.60 791.30 534.10 Z" fill="#b56967" fill-rule="nonzero" node-id="144" stroke="none" target-height="63.900024" target-width="50.799988" target-x="740.5" target-y="472.8"></path><path d="M 304.30 486.00 C 304.30 489.40 306.20 492.70 309.30 494.40 C 312.90 496.80 316.00 499.90 318.40 503.50 C 319.10 504.50 320.60 504.70 321.50 504.20 C 321.70 504.00 322.00 503.70 322.20 503.50 L 331.30 489.60 C 331.50 489.40 331.80 489.40 332.00 489.40 L 332.20 489.60 C 332.20 489.80 332.40 490.10 332.40 490.10 L 332.40 490.30 C 327.10 497.50 324.00 506.10 323.50 515.20 L 323.50 509.70 C 323.50 509.20 323.30 509.00 322.80 509.00 L 322.10 509.00 C 321.40 509.00 320.90 509.50 320.90 510.20 C 319.70 517.40 319.00 524.80 319.00 532.00 C 319.00 532.70 318.50 533.20 317.60 533.20 L 317.40 533.20 L 303.70 530.80 C 301.50 530.30 299.60 529.10 298.70 527.00 C 296.80 523.20 294.60 519.60 291.70 516.50 C 287.40 511.70 280.40 503.30 287.60 497.80 L 296.20 491.10 C 296.90 490.60 297.90 490.40 298.80 490.40 L 302.20 490.60 C 302.90 490.60 303.60 490.10 303.90 489.40 C 304.10 488.60 304.30 487.20 304.30 486.00 Z" fill="#e37a7b" fill-rule="nonzero" node-id="146" stroke="none" target-height="47.200012" target-width="52" target-x="280.4" target-y="486"></path><path d="M 846.20 514.70 C 846.40 516.10 845.70 516.90 843.80 517.10 C 842.80 517.30 841.90 516.90 841.40 515.90 C 841.20 515.70 841.20 515.70 840.90 515.40 C 840.20 515.20 839.70 515.60 839.50 516.10 C 838.30 520.40 835.70 524.50 832.30 527.60 C 829.90 530.00 827.30 532.40 824.60 535.00 C 822.00 537.60 819.10 540.00 815.70 542.00 C 815.90 540.30 815.00 538.40 813.50 537.40 C 811.10 536.00 809.20 534.80 808.20 534.30 C 812.30 531.20 815.60 527.30 818.30 522.80 C 818.80 521.80 819.00 520.60 819.30 519.40 C 819.50 518.90 819.80 518.70 820.00 518.20 C 822.90 515.60 825.30 512.90 827.70 509.80 C 834.40 508.60 837.80 505.20 837.80 500.00 C 838.00 500.00 838.50 499.80 838.80 499.50 C 840.00 498.80 841.70 499.00 842.60 500.20 L 842.80 500.40 C 844.80 505.80 846.00 510.20 846.20 514.70 Z" fill="#cf4847" fill-rule="nonzero" node-id="148" stroke="none" target-height="43.200012" target-width="38.200012" target-x="808.2" target-y="498.8"></path><path d="M 838.10 500.80 C 838.10 506.10 834.70 509.40 828.00 510.60 C 830.40 506.60 833.80 503.00 838.10 500.80 Z" fill="#f4c5a9" fill-rule="nonzero" node-id="150" stroke="none" target-height="9.800018" target-width="10.099976" target-x="828" target-y="500.8"></path><path d="M 504.20 502.30 C 506.40 502.50 508.30 504.20 509.00 506.40 C 509.50 507.80 509.70 509.30 510.00 510.50 C 510.50 513.10 509.50 514.60 506.60 514.30 C 498.50 513.80 490.30 515.50 483.10 519.10 C 477.60 521.70 473.50 523.90 470.90 525.30 C 470.20 525.80 469.50 525.80 468.70 525.50 C 467.00 525.00 465.60 524.10 464.40 522.90 C 463.70 521.70 463.70 520.30 464.60 519.30 C 475.00 509.00 490.30 500.30 504.20 502.30 Z" fill="#2c0707" fill-rule="nonzero" node-id="152" stroke="none" target-height="25.5" target-width="46.799988" target-x="463.7" target-y="500.3"></path><path d="M 676.50 514.70 C 678.20 516.40 678.20 519.00 676.30 520.70 L 671.70 525.30 C 668.10 528.70 662.40 528.70 659.00 525.10 L 657.30 523.40 C 653.90 519.80 653.90 514.10 657.50 510.70 L 657.50 510.70 L 662.10 506.10 C 663.80 504.40 666.40 504.40 668.10 506.10 L 676.50 514.70 Z" fill="#7d434d" fill-rule="nonzero" node-id="154" stroke="none" target-height="24.300018" target-width="24.299988" target-x="653.9" target-y="504.4"></path><path d="M 780.10 532.70 C 774.10 530.10 768.60 527.70 763.80 525.30 C 760.90 523.90 757.10 519.50 751.80 512.10 C 754.70 510.70 757.60 509.00 760.20 507.30 C 764.00 504.40 769.50 504.70 773.10 508.00 C 774.50 509.40 775.50 511.40 775.70 513.50 C 775.90 515.60 776.20 517.80 776.70 520.00 C 777.00 524.30 778.40 528.60 780.10 532.70 Z" fill="#f88b79" fill-rule="nonzero" node-id="156" stroke="none" target-height="28.300018" target-width="28.299988" target-x="751.8" target-y="504.4"></path><g node-id="242"><path d="M 539.66 529.73 L 539.57 531.51 L 539.13 533.18 L 538.34 534.77 L 537.25 536.20 L 535.90 537.45 L 534.26 538.55 L 532.47 539.38 L 530.49 539.96 L 528.30 540.26 L 526.09 540.23 L 524.06 539.91 L 522.17 539.31 L 520.40 538.43 L 518.91 537.35 L 517.65 536.07 L 516.66 534.59 L 516.02 532.99 L 515.71 531.24 L 515.80 529.46 L 516.24 527.79 L 517.03 526.20 L 518.12 524.77 L 519.47 523.52 L 521.11 522.42 L 522.90 521.59 L 524.88 521.01 L 527.07 520.70 L 529.28 520.73 L 531.31 521.06 L 533.20 521.66 L 534.97 522.54 L 536.46 523.62 L 537.72 524.90 L 538.71 526.37 L 539.35 527.97 L 539.66 529.73 Z" fill="#c33935" fill-rule="nonzero" group-id="1" node-id="160" stroke="none" target-height="19.560791" target-width="23.951965" target-x="515.70905" target-y="520.7039"></path></g><path d="M 403.30 532.90 C 402.30 534.10 400.90 535.10 399.50 535.50 C 396.10 536.70 392.80 537.40 389.20 537.40 C 388.50 537.40 387.50 537.20 387.00 536.70 C 382.70 533.10 382.40 529.30 386.30 525.20 C 386.80 524.50 387.50 524.20 388.50 524.20 C 390.70 524.20 392.60 525.90 393.10 528.00 C 393.30 529.00 394.10 529.70 394.80 530.20 C 396.50 531.40 398.90 531.20 400.30 529.70 C 401.00 529.00 402.00 529.00 402.70 529.70 C 403.10 530.50 403.60 531.70 403.30 532.90 Z" fill="#e37a7b" fill-rule="nonzero" node-id="163" stroke="none" target-height="13.200012" target-width="21.200012" target-x="382.4" target-y="524.2"></path><path d="M 507.80 540.10 C 504.70 539.60 501.80 538.90 498.90 537.70 C 497.20 537.00 495.30 536.50 493.10 536.70 C 490.00 536.90 487.10 538.40 485.20 541.00 C 484.50 542.00 483.50 542.40 482.30 542.70 C 480.60 542.20 479.20 543.20 478.00 545.80 C 473.40 555.90 458.30 555.60 449.70 553.00 C 446.30 552.00 444.40 549.20 443.90 544.40 C 443.90 543.90 443.40 543.40 442.90 543.40 L 442.20 543.40 C 442.00 543.40 441.50 543.60 441.50 543.90 C 441.50 543.90 441.50 543.90 441.50 544.10 C 441.50 547.00 442.50 549.60 443.90 552.20 C 444.40 552.90 443.90 553.60 443.40 554.10 C 435.00 558.90 427.60 565.10 421.10 572.10 C 419.70 571.40 418.20 571.40 416.80 572.10 C 417.30 571.40 418.00 570.70 418.70 569.90 C 420.60 568.90 420.60 568.70 418.50 569.40 C 409.40 572.50 406.50 580.20 398.60 584.00 C 395.70 585.70 392.40 586.90 389.00 587.40 C 376.30 587.60 368.40 582.40 365.00 571.30 C 364.30 568.90 363.80 568.90 363.30 571.50 C 362.30 578.20 368.80 584.40 374.80 589.00 C 378.20 591.20 382.00 592.10 385.80 591.60 L 383.40 611.50 C 383.20 613.70 381.20 615.10 379.30 614.90 C 370.00 614.40 364.00 611.50 355.60 607.90 C 350.80 605.70 344.10 604.80 339.30 601.20 C 332.60 596.40 324.90 589.90 321.30 581.10 C 321.10 580.40 320.30 579.90 319.90 579.70 C 318.70 579.20 317.70 579.50 317.50 580.40 L 316.80 573.20 L 326.10 579.40 L 328.30 581.80 C 331.70 585.90 337.20 587.60 342.20 586.10 C 342.90 586.10 343.40 585.40 343.20 584.70 L 343.20 584.70 C 343.20 583.50 343.40 582.50 343.90 581.60 C 345.30 578.50 347.50 575.60 349.90 573.20 C 352.10 571.00 353.70 568.60 355.20 566.00 C 358.30 560.20 364.10 553.10 371.00 553.10 C 374.60 552.90 377.50 550.00 377.70 546.40 C 377.70 545.90 377.90 545.20 378.20 545.00 C 378.50 544.80 378.70 544.80 379.20 544.80 C 379.90 544.80 380.60 545.30 380.60 546.00 C 381.80 550.30 380.60 555.10 377.50 558.50 C 376.80 559.20 376.80 560.20 377.00 560.90 L 377.20 561.60 C 377.40 562.30 377.90 562.60 378.60 561.80 C 381.20 559.60 383.20 556.80 383.60 553.40 C 383.80 552.70 384.10 552.00 384.80 551.50 C 387.70 548.90 391.00 547.20 394.90 546.70 C 405.90 544.80 416.50 542.40 426.10 539.70 L 433.50 539.00 C 439.30 538.30 439.30 534.40 442.80 530.90 C 443.50 530.20 444.00 529.50 444.70 528.70 C 445.20 528.00 445.90 527.70 446.90 527.50 L 455.50 526.30 C 456.20 526.10 457.20 526.50 457.70 527.30 C 459.10 529.00 459.90 531.10 459.60 533.30 C 459.60 534.00 460.10 534.70 460.60 535.00 C 464.20 537.20 468.50 538.10 472.80 537.90 C 473.50 537.90 474.20 537.70 475.00 537.20 C 478.10 534.60 481.70 533.10 485.80 532.40 C 492.90 531.00 500.60 533.90 507.80 540.10 Z" fill="#ffa490" fill-rule="nonzero" node-id="165" stroke="none" target-height="89" target-width="191" target-x="316.8" target-y="526.1"></path><path d="M 711.30 530.10 L 715.90 534.40 C 718.80 537.00 719.00 541.40 716.40 544.20 C 716.20 544.40 715.90 544.70 715.40 544.90 L 710.80 548.50 C 707.70 550.90 703.40 550.20 701.00 547.10 C 701.00 547.10 701.00 546.90 700.80 546.90 L 698.20 543.30 C 696.50 541.10 696.50 538.00 698.00 535.60 L 700.40 531.50 C 702.30 528.10 706.60 527.20 710.00 529.10 C 710.30 529.30 710.80 529.80 711.30 530.10 Z" fill="#7d434d" fill-rule="nonzero" node-id="167" stroke="none" target-height="23.700012" target-width="22.5" target-x="696.5" target-y="527.2"></path><path d="M 372.20 537.70 C 371.00 537.50 369.80 537.70 368.60 538.20 C 363.80 540.80 359.50 544.40 356.10 548.70 C 354.90 550.60 352.50 551.10 350.60 549.90 C 350.60 549.90 350.40 549.90 350.40 549.70 L 349.90 549.20 C 347.70 548.00 347.50 546.30 349.40 544.40 L 365.00 528.60 C 365.50 528.10 366.40 527.90 367.20 527.90 C 372.20 528.90 376.80 531.30 380.10 535.10 C 381.10 536.10 381.30 537.30 380.80 538.50 C 380.80 539.20 380.10 539.50 379.60 539.50 L 379.40 539.50 L 372.20 537.70 Z" fill="#760906" fill-rule="nonzero" node-id="169" stroke="none" target-height="23.199951" target-width="33.799988" target-x="347.5" target-y="527.9"></path><path d="M 399.20 535.60 C 400.90 535.40 402.10 534.40 403.00 533.00 C 404.70 531.80 406.60 531.30 408.50 531.30 C 414.50 531.30 421.40 530.80 428.90 530.10 C 430.10 529.90 431.30 530.80 431.80 532.00 C 432.00 532.50 432.30 533.00 432.30 533.40 C 432.80 534.80 432.30 535.60 430.90 535.80 L 387.00 544.70 C 386.80 544.70 386.50 544.90 386.50 545.20 C 386.30 545.70 385.80 545.90 385.30 545.70 C 384.60 545.70 384.10 545.00 384.10 544.50 C 384.10 543.80 384.10 543.30 384.30 542.60 C 384.80 541.90 384.50 541.20 383.80 540.90 L 383.80 540.90 L 383.10 540.40 C 382.40 539.90 382.10 538.70 382.60 538.00 C 382.80 537.50 383.30 537.30 383.80 537.30 C 385.00 537.10 386.40 537.50 387.40 538.50 C 387.90 539.00 388.80 539.20 389.60 539.00 L 399.20 535.60 Z" fill="#ffa490" fill-rule="nonzero" node-id="171" stroke="none" target-height="16" target-width="50.69998" target-x="382.1" target-y="529.9"></path><path d="M 507.80 540.10 L 539.90 561.20 C 540.60 561.70 541.30 561.90 542.10 561.70 C 543.50 561.50 545.00 561.00 546.40 560.50 C 546.90 560.30 547.40 560.30 547.80 560.70 C 547.80 560.90 548.00 560.90 548.00 561.20 C 548.50 562.60 548.20 564.10 547.80 565.50 C 542.00 580.80 554.80 586.80 566.00 593.10 C 568.60 594.30 571.50 595.30 574.40 596.00 C 579.90 597.20 584.00 601.30 585.20 606.80 C 588.10 620.00 569.90 645.90 561.70 655.90 C 557.40 652.10 551.90 651.80 545.40 654.90 C 544.70 655.40 543.70 655.40 543.00 655.40 C 533.70 654.20 524.50 651.30 515.90 647.50 C 511.10 644.90 505.40 645.30 501.00 648.70 C 500.30 649.20 499.60 649.40 498.80 649.40 L 495.20 649.40 C 494.50 649.40 494.00 649.60 493.80 650.40 L 489.70 657.10 C 489.00 658.50 487.30 659.30 485.90 658.50 C 483.30 657.80 481.30 654.90 482.10 652.30 C 483.80 646.10 485.70 639.80 487.90 633.80 C 488.10 632.80 488.40 631.90 488.10 631.20 C 487.90 630.20 487.40 629.30 486.40 628.80 C 483.00 627.10 483.30 625.90 486.90 625.20 C 487.40 625.20 488.30 625.00 489.80 624.70 C 490.50 624.50 491.20 624.20 492.00 623.70 C 497.00 619.40 501.80 614.60 506.10 609.60 C 511.60 603.10 508.70 593.50 504.90 586.80 C 497.70 574.60 489.30 563.30 479.70 553.00 C 479.20 552.50 479.00 551.60 479.50 551.10 L 483.30 543.00 C 484.50 543.00 485.50 542.30 486.20 541.30 C 488.10 538.90 491.00 537.20 494.10 537.00 C 496.00 537.00 497.90 537.20 499.90 538.00 C 501.80 538.90 504.70 539.60 507.80 540.10 Z" fill="#ffd9bf" fill-rule="nonzero" node-id="173" stroke="none" target-height="122.29999" target-width="109.099976" target-x="479" target-y="537"></path><path d="M 569.60 573.40 C 567.40 578.20 565.00 581.10 562.40 582.00 C 552.60 585.10 549.20 575.30 550.90 567.60 C 551.10 566.40 551.60 565.40 552.60 564.50 C 553.60 563.50 554.30 562.30 554.30 560.90 C 554.30 560.20 554.80 559.50 555.50 559.50 L 555.70 559.50 C 556.40 559.50 557.10 559.00 557.10 558.30 C 557.30 557.60 557.60 556.90 558.30 556.60 C 560.90 554.90 562.10 552.80 564.50 551.10 C 568.30 548.50 571.70 545.60 574.60 542.20 C 579.40 536.90 581.80 537.90 582.30 544.80 C 582.50 549.60 580.90 554.10 577.50 557.50 C 575.80 559.40 574.40 561.30 573.70 563.70 C 573.20 565.10 572.50 566.80 571.80 568.30 C 571.10 569.80 570.40 571.80 569.60 573.40 Z" fill="#f88b79" fill-rule="nonzero" node-id="175" stroke="none" target-height="48.19995" target-width="33.299988" target-x="549.2" target-y="536.9"></path><path d="M 482.60 542.50 L 478.80 550.60 C 478.30 551.30 478.60 552.00 479.00 552.50 C 488.60 562.80 497.00 574.10 504.20 586.30 C 508.00 592.80 510.90 602.40 505.40 609.10 C 501.10 614.10 496.30 618.90 491.30 623.20 C 490.60 623.70 489.90 623.90 489.10 624.20 C 487.70 624.40 486.70 624.40 486.20 624.70 C 482.60 625.70 482.40 626.90 485.70 628.30 C 486.70 628.80 487.10 629.70 487.40 630.70 C 487.70 631.70 487.60 632.60 487.20 633.30 C 485.00 639.50 483.10 645.50 481.40 651.80 C 479.20 659.90 477.30 668.10 475.40 676.20 C 474.90 678.80 473.20 681.00 471.10 682.40 C 470.40 682.90 469.40 682.90 468.70 682.60 L 465.30 681.40 C 464.60 681.20 463.90 681.20 463.40 681.60 C 462.70 682.10 462.00 682.30 461.00 682.30 C 460.00 682.30 459.80 681.80 460.00 680.90 C 461.20 678.70 462.40 676.60 463.60 674.40 C 468.40 660.00 472.50 645.40 476.10 630.50 C 472.50 628.30 468.40 627.60 464.40 628.10 C 455.80 630.00 446.20 631.70 435.90 633.40 C 434.20 633.60 433.00 635.10 433.30 636.80 L 433.80 642.30 L 438.60 662.90 L 438.40 664.30 C 438.40 664.80 437.90 665.30 437.40 665.00 L 437.40 665.00 C 437.20 665.00 436.90 664.80 436.70 664.50 C 436.20 663.30 435.50 662.30 434.30 662.10 C 428.50 652.00 424.00 641.20 420.60 630.20 C 420.10 628.80 421.10 627.30 422.30 626.80 C 422.50 626.80 422.80 626.60 423.30 626.80 L 425.50 626.80 C 429.30 628.50 433.40 629.00 437.50 628.20 C 449.70 627.20 461.90 625.10 473.90 622.20 C 475.60 622.00 477.30 622.00 478.90 622.20 C 479.60 622.20 480.10 621.70 480.10 621.20 L 480.10 619.80 C 480.10 619.30 479.90 618.80 479.10 618.60 C 469.00 616.90 457.80 615.50 445.30 614.00 C 438.60 613.30 432.10 611.60 426.10 609.00 C 418.20 605.20 407.40 597.50 404.10 588.90 C 403.60 587.50 402.20 586.70 400.70 587.20 L 389.00 590.60 C 388.00 590.40 387.10 590.40 386.10 590.60 C 382.30 591.10 378.40 590.10 375.10 588.00 C 369.10 583.40 362.60 577.20 363.60 570.50 C 364.10 567.90 364.60 567.90 365.30 570.30 C 368.70 581.10 376.60 586.60 389.30 586.40 C 392.70 585.90 396.00 585.00 398.90 583.00 C 406.60 579.20 409.40 571.50 418.80 568.40 C 421.00 567.70 421.00 567.90 419.00 568.90 C 418.30 569.40 417.60 570.10 417.10 571.10 C 412.80 573.30 409.00 576.60 406.60 580.90 C 405.60 582.30 405.60 584.00 406.10 585.50 C 410.20 598.40 424.80 607.30 437.70 609.70 C 451.40 612.10 465.00 613.30 478.90 613.30 C 492.10 613.50 511.30 608.50 503.30 590.30 C 498.30 580.20 492.30 570.90 485.10 562.00 C 482.90 559.40 480.50 557.00 478.10 554.60 C 477.40 554.10 476.70 553.90 475.90 553.90 C 471.60 554.40 467.80 557.70 463.40 557.50 C 458.80 557.30 453.80 556.80 448.50 556.10 C 447.80 556.10 446.80 556.10 446.10 556.30 C 438.90 559.40 432.20 564.00 426.70 569.70 C 424.10 572.60 422.10 573.10 421.40 570.90 C 427.90 563.90 435.50 557.70 443.70 552.90 C 444.40 552.40 444.70 551.70 444.20 551.00 C 442.80 548.60 441.80 545.70 441.80 542.90 C 441.80 542.70 442.00 542.20 442.30 542.20 C 442.30 542.20 442.30 542.20 442.50 542.20 L 443.20 542.20 C 443.70 542.20 444.20 542.70 444.20 543.20 C 444.90 548.00 446.80 550.60 450.00 551.80 C 458.60 554.70 473.70 554.90 478.30 544.60 C 479.30 543.00 481.00 542.00 482.60 542.50 Z" fill="#fe6037" fill-rule="nonzero" node-id="177" stroke="none" target-height="140.90002" target-width="148.69998" target-x="362.6" target-y="542"></path><path d="M 750.10 545.90 C 754.70 547.60 757.30 550.00 758.20 553.10 C 759.40 556.00 758.00 559.30 755.10 560.50 L 755.10 560.50 C 746.70 564.80 742.40 554.70 744.60 548.50 C 745.10 546.30 747.00 544.90 749.20 545.40 C 749.40 545.60 749.90 545.60 750.10 545.90 Z" fill="#7d434d" fill-rule="nonzero" node-id="179" stroke="none" target-height="19.899963" target-width="17" target-x="742.4" target-y="544.9"></path><path d="M 834.90 545.61 L 835.75 546.04 L 836.42 547.08 L 836.75 548.45 L 836.73 550.19 L 836.31 551.87 L 835.65 553.11 L 834.74 553.95 L 833.81 554.15 L 832.96 553.72 L 832.28 552.68 L 831.95 551.31 L 831.97 549.57 L 832.39 547.89 L 833.06 546.65 L 833.97 545.81 L 834.90 545.61 Z" fill="#c33935" fill-rule="nonzero" group-id="2" node-id="183" stroke="none" target-height="8.5303955" target-width="4.8009033" target-x="831.9523" target-y="545.61487"></path><path d="M 345.10 562.40 C 346.50 567.00 345.60 570.10 342.00 572.00 C 339.60 573.20 336.70 573.90 333.90 573.70 C 333.20 573.70 332.50 573.50 331.70 572.70 C 330.30 571.50 328.60 570.50 326.70 570.30 C 323.10 564.10 324.10 559.00 329.10 555.40 C 330.30 554.70 331.70 554.40 332.90 554.90 C 337.60 556.70 341.70 559.10 345.10 562.40 Z" fill="#c33935" fill-rule="nonzero" node-id="186" stroke="none" target-height="19.5" target-width="23.399994" target-x="323.1" target-y="554.4"></path><path d="M 417.00 571.80 C 418.40 571.10 419.90 571.10 421.30 571.80 C 422.00 574.00 423.70 573.50 426.60 570.60 C 432.10 564.80 438.80 560.30 446.00 557.20 C 446.70 557.00 447.40 556.70 448.40 557.00 C 453.70 557.70 458.70 558.20 463.30 558.40 C 467.60 558.60 471.40 555.50 475.80 554.80 C 476.50 554.80 477.50 555.00 478.00 555.50 C 480.60 557.70 483.00 560.30 485.00 562.90 C 492.20 571.50 498.20 581.10 503.20 591.20 C 511.10 609.20 491.90 614.20 478.80 614.20 C 464.90 614.20 451.20 613.00 437.60 610.60 C 424.70 608.20 410.00 599.30 406.00 586.40 C 405.50 585.00 405.80 583.30 406.50 581.80 C 409.10 577.30 412.70 573.90 417.00 571.80 Z" fill="#ffbca9" fill-rule="nonzero" node-id="188" stroke="none" target-height="59.400024" target-width="105.600006" target-x="405.5" target-y="554.8"></path><path d="M 581.90 594.50 C 583.30 593.50 585.00 593.30 586.70 593.50 C 591.00 594.00 595.60 593.00 599.20 590.90 C 607.30 586.10 614.50 580.10 620.30 572.70 C 622.20 570.50 623.90 567.90 625.10 565.30 C 626.30 562.70 628.00 560.00 629.40 557.40 C 629.60 557.20 630.10 556.90 630.40 557.20 L 630.40 557.20 L 630.90 557.70 C 631.40 558.20 631.60 558.90 631.10 559.40 C 629.20 562.80 627.30 566.10 625.60 569.70 C 619.10 582.60 606.90 592.50 593.70 597.70 C 589.90 599.40 585.60 599.40 581.70 597.90 C 580.70 597.70 580.30 596.50 580.50 595.50 C 581.10 595.00 581.40 594.80 581.90 594.50 Z" fill="#fb381a" fill-rule="nonzero" node-id="190" stroke="none" target-height="42.5" target-width="51.299988" target-x="580.3" target-y="556.9"></path><path d="M 849.30 557.10 C 847.60 569.60 843.30 581.30 836.40 591.90 C 824.20 609.60 808.80 625.00 791.30 637.20 C 782.70 643.20 776.70 647.50 773.30 650.40 C 764.40 657.40 758.40 661.90 755.60 663.80 C 741.90 672.70 727.10 679.10 711.50 683.20 C 702.20 685.80 693.30 689.90 684.90 695.20 C 672.90 702.40 659.30 706.00 645.40 705.70 C 643.00 705.70 640.60 706.90 638.90 708.60 C 633.90 714.10 627.90 718.40 621.20 721.30 L 618.30 722.70 C 613.70 723.40 609.20 723.90 604.60 724.10 C 596.50 724.10 582.10 723.60 561.50 722.70 C 560.50 721.70 559.80 720.50 559.30 719.10 L 537.80 706.00 C 537.60 692.80 546.70 678.90 554.30 668.10 C 556.00 671.00 555.50 675.80 552.60 682.20 C 552.10 683.60 552.60 685.10 554.00 685.60 C 554.20 685.80 554.70 685.80 555.00 685.80 C 556.70 685.80 558.10 685.80 559.80 685.30 C 567.70 683.40 575.90 681.70 584.20 680.30 C 592.30 678.60 600.50 676.70 608.40 674.10 C 613.70 672.40 620.10 671.00 627.80 669.30 C 634.80 667.90 641.70 665.50 648.20 662.60 C 652.50 660.70 657.50 660.40 661.40 657.80 C 663.60 656.40 666.00 655.40 668.40 654.90 C 669.10 654.70 669.80 654.20 670.10 653.50 C 672.30 648.00 673.00 641.80 672.50 636.00 C 671.50 629.00 669.90 620.40 667.50 610.60 C 665.60 602.20 662.90 594.30 659.10 586.60 C 658.90 585.90 658.60 585.20 658.60 584.40 C 658.60 583.60 658.40 583.00 658.10 582.20 C 657.90 581.20 658.10 581.00 658.80 581.50 C 659.30 581.70 660.00 582.20 660.20 582.70 C 663.30 587.00 665.50 592.00 666.70 597.10 C 667.90 601.70 669.30 606.00 671.00 610.30 C 672.70 614.60 674.10 618.90 675.10 623.50 C 676.80 632.10 676.80 641.00 675.60 649.60 C 674.90 654.60 676.60 655.60 680.90 652.70 C 681.60 652.20 682.60 651.70 683.50 651.50 C 689.70 649.10 696.20 646.90 702.70 645.30 C 706.50 644.10 710.40 641.90 714.40 641.00 C 719.20 639.80 721.80 638.80 721.80 633.60 C 721.30 615.60 718.40 601.00 713.70 589.50 C 713.20 588.30 713.00 587.10 713.20 585.90 L 713.70 583.70 C 713.70 583.20 714.20 583.00 714.70 583.00 C 714.90 583.00 715.20 583.20 715.20 583.50 C 722.20 599.60 725.30 616.80 724.30 634.10 C 724.30 635.80 725.50 637.00 727.20 637.20 C 727.40 637.20 727.70 637.20 727.90 637.20 C 734.10 635.80 740.40 633.80 746.10 631.20 C 762.40 624.50 778.50 617.10 794.30 609.20 C 798.10 607.30 802.00 604.90 805.10 602.00 C 808.20 599.40 811.60 597.40 815.20 596.00 C 820.50 593.80 822.90 585.00 824.30 579.90 C 824.50 579.20 825.30 578.70 826.00 578.50 C 827.00 578.30 828.20 579.00 828.40 579.90 C 828.40 580.10 828.40 580.10 828.40 580.40 L 828.40 588.30 C 828.40 589.00 828.90 589.70 829.60 590.00 L 829.60 590.00 C 831.30 590.50 833.20 589.80 834.20 588.60 C 836.40 585.70 838.00 582.60 839.20 579.00 C 840.40 575.20 841.40 572.50 841.80 571.10 C 843.00 567.50 844.00 563.90 844.70 560.10 C 844.70 559.40 845.40 558.70 846.10 558.70 L 849.30 557.10 Z" fill="#ea372a" fill-rule="nonzero" node-id="192" stroke="none" target-height="167" target-width="311.7" target-x="537.6" target-y="557.1"></path><path d="M 794.20 561.00 L 798.00 564.60 C 800.60 567.00 800.60 571.10 798.20 573.70 L 795.10 577.10 C 792.90 579.50 789.10 580.00 786.50 578.30 L 781.90 575.20 C 778.80 573.00 778.10 569.00 780.20 566.10 C 780.40 565.90 780.70 565.60 780.90 565.10 L 784.70 561.00 C 787.50 558.60 791.60 558.60 794.20 561.00 L 794.20 561.00 Z" fill="#7d434d" fill-rule="nonzero" node-id="194" stroke="none" target-height="21.400024" target-width="22.5" target-x="778.1" target-y="558.6"></path><path d="M 345.10 562.40 C 347.50 566.00 347.30 570.50 344.40 575.60 C 343.20 577.80 342.00 580.20 341.00 582.60 C 340.30 585.00 337.60 586.20 335.20 585.50 C 334.50 585.30 334.00 585.00 333.50 584.50 C 332.10 583.10 330.10 582.30 328.20 581.90 L 326.00 579.50 C 327.00 576.60 327.00 573.50 326.20 570.60 C 328.10 570.80 329.80 571.80 331.20 573.00 C 331.70 573.50 332.40 573.70 333.40 574.00 C 336.30 574.20 339.20 573.50 341.50 572.30 C 345.50 570.10 346.50 567.00 345.10 562.40 Z" fill="#f46e66" fill-rule="nonzero" node-id="196" stroke="none" target-height="23.799988" target-width="21.5" target-x="326" target-y="562.4"></path><path d="M 386.30 591.40 C 387.30 591.20 388.20 591.20 389.20 591.40 C 390.20 596.20 389.70 601.20 388.00 605.50 C 385.80 610.30 384.20 615.30 383.20 620.40 C 382.50 625.20 383.00 630.20 384.40 634.80 C 380.80 638.40 379.60 643.90 381.50 648.90 C 380.50 645.50 380.10 641.90 380.80 638.40 C 381.00 637.70 380.60 636.70 380.10 636.20 C 379.40 635.70 378.70 635.50 377.70 635.70 C 377.20 635.70 376.70 635.70 376.50 635.70 C 372.40 634.30 368.40 632.60 364.30 630.90 C 363.60 630.40 362.90 630.40 362.10 630.70 C 361.40 631.20 361.10 631.90 361.40 633.30 C 353.00 628.30 347.30 620.10 342.20 612.00 C 340.50 609.10 338.40 606.50 335.70 604.60 C 327.80 598.10 321.80 590.00 318.00 580.60 C 318.20 579.60 319.00 579.40 320.40 579.90 C 321.10 580.10 321.60 580.60 321.80 581.30 C 325.40 590.20 333.30 596.60 339.80 601.40 C 344.60 604.80 351.30 606.00 356.10 608.10 C 364.50 611.90 370.50 614.60 379.80 615.10 C 382.00 615.30 383.60 613.70 383.90 611.70 L 386.30 591.40 Z" fill="#f46e66" fill-rule="nonzero" node-id="198" stroke="none" target-height="69.5" target-width="72.20001" target-x="318" target-y="579.4"></path><path d="M 425.60 627.40 C 426.60 626.70 427.00 625.70 427.00 624.50 C 427.00 623.80 426.80 623.10 426.00 622.60 C 421.00 619.50 415.00 618.00 409.20 618.80 C 400.60 620.00 391.90 620.70 383.10 620.50 C 384.10 615.50 385.70 610.40 387.90 605.60 C 389.80 601.00 390.10 596.00 389.10 591.50 L 400.80 588.10 C 402.20 587.60 403.70 588.30 404.20 589.80 C 407.60 598.40 418.10 606.30 426.20 609.90 C 432.20 612.50 438.70 614.20 445.40 614.90 C 457.90 616.30 469.10 617.80 479.20 619.50 C 479.70 619.50 480.20 620.00 480.20 620.70 L 480.20 622.10 C 480.20 622.80 479.70 623.10 479.00 623.10 C 477.30 622.90 475.60 622.90 474.00 623.10 C 462.00 626.00 449.80 628.10 437.60 629.10 C 433.50 629.50 429.40 628.80 425.60 627.40 Z" fill="#ffbca9" fill-rule="nonzero" node-id="200" stroke="none" target-height="41.900024" target-width="97.100006" target-x="383.1" target-y="587.6"></path><path d="M 260.00 624.70 C 255.70 626.60 250.90 624.00 247.30 621.30 C 242.50 617.70 242.00 613.40 245.60 608.60 C 248.00 605.20 254.00 600.70 258.30 601.60 C 267.20 603.30 264.10 615.70 261.40 622.90 C 261.20 623.80 260.70 624.50 260.00 624.70 Z" fill="#fda567" fill-rule="nonzero" node-id="202" stroke="none" target-height="25.899963" target-width="25.200012" target-x="242" target-y="600.7"></path><path d="M 425.60 627.40 L 423.40 627.40 C 422.00 627.40 420.80 628.60 420.50 630.00 C 420.50 630.20 420.50 630.70 420.50 631.00 C 423.90 642.00 428.40 652.80 434.20 662.90 C 435.20 665.80 434.70 668.70 433.20 671.30 C 432.70 672.00 432.50 673.00 432.70 673.90 C 433.40 678.00 432.00 680.60 428.90 681.60 C 427.90 681.80 427.00 681.80 426.30 681.40 C 422.50 680.00 419.80 676.60 419.10 672.80 C 418.90 670.60 416.90 669.20 414.80 669.40 C 414.10 669.40 413.60 669.60 413.10 670.10 C 410.90 671.80 408.10 672.50 405.40 671.80 L 399.60 663.70 L 384.30 634.70 C 382.90 630.10 382.40 625.10 383.10 620.30 C 391.70 620.50 400.60 620.10 409.20 618.60 C 415.00 617.90 420.90 619.30 426.00 622.40 C 426.70 622.60 427.20 623.60 427.00 624.30 C 427.00 625.70 426.30 626.60 425.60 627.40 Z" fill="#ffd9bf" fill-rule="nonzero" node-id="204" stroke="none" target-height="63.899963" target-width="52.80002" target-x="382.4" target-y="617.9"></path><path d="M 476.70 631.00 L 434.30 642.70 L 433.80 637.20 C 433.60 635.50 434.80 634.10 436.40 633.80 C 446.70 632.10 456.30 630.40 464.90 628.50 C 469.00 627.80 473.10 628.80 476.70 631.00 Z" fill="#fe7b59" fill-rule="nonzero" node-id="206" stroke="none" target-height="14.900024" target-width="43.100006" target-x="433.6" target-y="627.8"></path><path d="M 381.70 648.70 C 383.40 659.70 385.30 667.20 387.90 671.20 C 389.60 674.10 391.70 674.30 393.90 672.20 C 394.40 671.70 394.90 671.50 395.60 671.50 C 397.80 671.30 399.00 668.60 399.70 663.60 L 405.50 671.70 C 420.60 690.20 440.00 699.30 463.00 703.80 C 467.80 704.50 472.80 705.20 477.90 705.50 C 483.00 705.80 487.70 706.50 492.80 707.20 L 490.40 708.40 C 489.70 708.60 489.20 709.10 488.70 709.80 L 479.60 721.80 C 479.10 722.50 478.40 722.80 477.40 723.00 L 463.30 723.70 C 459.90 721.50 456.30 719.90 452.50 718.90 C 447.90 717.70 443.60 719.40 439.80 723.50 C 433.10 724.50 426.10 724.50 419.40 723.30 C 418.70 723.30 418.00 722.80 417.20 722.30 C 409.30 714.60 402.10 706.20 396.10 697.10 C 386.80 683.40 380.30 665.00 372.90 648.70 C 372.70 648.00 372.70 647.30 372.90 646.50 L 373.60 644.60 C 374.10 643.60 373.80 642.70 373.10 642.00 C 369.70 638.40 365.70 635.50 361.40 633.40 C 361.20 632.00 361.40 631.20 362.10 630.80 C 362.80 630.60 363.50 630.60 364.30 631.00 C 368.40 632.90 372.40 634.40 376.50 635.80 C 377.00 636.00 377.20 636.00 377.70 635.80 C 378.70 635.60 379.40 635.80 380.10 636.30 C 380.80 636.80 381.10 637.50 380.80 638.50 C 380.50 641.70 380.80 645.30 381.70 648.70 Z" fill="#ea372a" fill-rule="nonzero" node-id="208" stroke="none" target-height="93.900024" target-width="131.59998" target-x="361.2" target-y="630.6"></path><path d="M 476.70 631.00 C 473.10 645.90 469.00 660.50 464.20 674.90 C 463.20 677.10 462.00 679.50 460.60 681.40 C 460.10 682.40 460.40 682.80 461.60 682.80 C 462.60 682.80 463.30 682.60 464.00 682.10 C 464.50 681.60 465.40 681.60 465.90 681.90 L 469.30 683.10 C 470.00 683.30 471.00 683.30 471.70 682.90 C 473.90 681.50 475.50 679.30 476.00 676.70 C 477.70 668.60 479.80 660.40 482.00 652.30 C 481.50 655.20 483.20 657.80 485.80 658.50 C 487.20 659.00 488.90 658.50 489.60 657.10 L 493.70 650.40 C 493.90 649.90 494.70 649.40 495.10 649.40 L 498.50 649.40 C 499.20 649.40 499.90 649.20 500.70 648.70 C 505.00 645.30 510.80 644.90 515.60 647.50 C 524.20 651.60 533.30 654.20 542.70 655.40 C 543.40 655.40 544.40 655.40 545.10 654.90 C 551.60 651.80 557.10 652.00 561.40 655.90 L 554.20 668.40 C 546.50 679.40 537.40 693.10 537.70 706.30 C 531.70 707.00 525.70 706.50 519.70 707.50 C 510.60 708.70 501.50 708.70 492.40 707.50 C 487.60 706.80 482.60 706.10 477.50 705.80 C 472.40 705.50 467.70 705.10 462.60 704.10 C 439.60 699.50 420.20 690.40 405.10 672.00 C 407.70 672.50 410.60 672.00 412.80 670.30 C 414.50 669.10 416.90 669.30 418.10 671.30 C 418.60 671.80 418.60 672.50 418.80 673.00 C 419.50 676.80 422.20 680.20 426.00 681.60 C 426.70 682.10 427.70 682.10 428.60 681.80 C 432.00 680.60 433.20 678.00 432.40 674.10 C 432.20 673.10 432.40 672.20 432.90 671.50 C 434.30 668.90 434.80 666.00 433.90 663.10 C 435.10 663.60 435.80 664.50 436.30 665.50 C 438.70 672.70 444.00 678.40 450.70 681.60 C 451.70 682.10 452.90 682.10 453.80 681.10 L 454.80 680.10 C 456.00 679.10 455.80 678.40 454.30 678.20 C 446.90 677.20 438.00 672.20 438.50 663.60 L 433.70 643.00 L 476.70 631.00 Z" fill="#f4c5a9" fill-rule="nonzero" node-id="210" stroke="none" target-height="77.70001" target-width="156.30002" target-x="405.1" target-y="631"></path><path d="M 384.60 634.80 L 399.90 663.80 C 399.20 668.80 397.70 671.50 395.80 671.70 C 395.30 671.70 394.60 671.90 394.10 672.40 C 391.70 674.60 389.80 674.30 388.10 671.40 C 385.50 667.30 383.50 659.70 381.90 648.90 C 379.80 643.90 380.80 638.40 384.60 634.80 Z" fill="#fe8964" fill-rule="nonzero" node-id="212" stroke="none" target-height="39.799988" target-width="20.100006" target-x="379.8" target-y="634.8"></path><path d="M 439.00 663.30 C 438.50 671.90 447.40 677.00 454.80 677.90 C 456.20 678.10 456.50 678.60 455.30 679.80 L 454.30 680.80 C 453.60 681.80 452.40 681.80 451.20 681.30 C 444.50 678.20 439.20 672.40 436.80 665.20 C 437.00 665.40 437.30 665.70 437.50 665.70 C 438.00 665.70 438.50 665.50 438.50 665.00 L 438.50 665.00 L 439.00 663.30 Z" fill="#ffb15c" fill-rule="nonzero" node-id="214" stroke="none" target-height="18.5" target-width="19.700012" target-x="436.8" target-y="663.3"></path><path d="M 299.80 693.00 C 294.80 684.10 295.70 671.20 305.30 665.00 C 306.00 664.50 307.00 664.80 307.50 665.50 C 307.70 665.70 307.70 666.00 307.70 666.50 C 307.50 675.80 305.30 684.70 301.20 693.10 C 301.00 693.60 300.50 693.60 300.20 693.60 C 300.00 693.30 299.80 693.00 299.80 693.00 Z" fill="#879e86" fill-rule="nonzero" node-id="216" stroke="none" target-height="29.099976" target-width="12.900024" target-x="294.8" target-y="664.5"></path><path d="M 808.10 675.80 C 804.30 675.80 800.40 676.50 796.80 677.70 L 775.00 684.40 C 777.90 678.60 784.10 675.10 790.60 675.50 C 791.30 675.50 792.30 675.30 792.80 675.00 C 798.10 671.90 802.80 674.60 808.10 675.80 Z" fill="#f0d1cd" fill-rule="nonzero" node-id="218" stroke="none" target-height="12.5" target-width="33.099976" target-x="775" target-y="671.9"></path><path d="M 808.10 675.80 C 824.60 677.00 837.80 682.80 848.10 693.10 C 856.50 702.00 864.20 711.60 870.90 721.60 C 871.40 722.80 871.10 724.00 870.90 725.00 L 829.00 724.80 C 824.20 720.50 820.60 715.50 817.70 709.70 C 814.60 701.80 811.20 693.60 807.60 685.70 C 805.20 679.90 801.40 677.30 796.60 678.00 C 800.40 676.50 804.30 675.80 808.10 675.80 Z" fill="#baa4ab" fill-rule="nonzero" node-id="220" stroke="none" target-height="49.200012" target-width="74.80005" target-x="796.6" target-y="675.8"></path><path d="M 829.00 724.70 L 758.30 725.20 C 756.90 725.20 755.90 724.20 755.70 723.00 C 755.70 722.50 755.70 722.00 755.90 721.60 L 774.80 684.50 L 796.60 677.80 C 801.40 677.10 805.20 679.70 807.60 685.50 C 811.00 693.40 814.30 701.60 817.70 709.50 C 820.30 715.30 824.20 720.40 829.00 724.70 Z" fill="#958a9c" fill-rule="nonzero" node-id="222" stroke="none" target-height="48.100037" target-width="73.29999" target-x="755.7" target-y="677.1"></path><path d="M 268.10 683.70 C 267.90 683.70 267.90 683.50 267.90 683.20 L 267.90 683.20 L 267.90 683.20 C 269.60 679.60 277.70 679.60 285.60 683.70 L 286.30 683.90 C 294.40 687.70 299.50 694.00 297.60 697.60 L 297.60 697.60 C 297.60 697.80 297.40 697.80 297.10 697.80 L 297.10 697.80 L 268.10 683.70 Z" fill="#879e86" fill-rule="nonzero" node-id="224" stroke="none" target-height="18.200012" target-width="31.600006" target-x="267.9" target-y="679.6"></path><path d="M 739.80 700.90 C 732.40 700.70 724.90 699.20 718.20 696.10 C 715.10 694.70 710.10 694.90 703.30 696.30 C 707.60 693.40 717.00 686.20 723.70 688.60 C 727.80 690.20 733.10 694.20 739.80 700.90 Z" fill="#ead3be" fill-rule="nonzero" node-id="226" stroke="none" target-height="14.700012" target-width="36.5" target-x="703.3" target-y="686.2"></path><path d="M 739.80 700.90 C 746.80 705.00 751.30 712.20 753.70 722.20 C 754.20 723.40 753.50 724.80 752.30 725.30 L 752.00 725.30 C 750.30 725.80 748.40 726.00 746.70 726.00 C 723.00 726.20 699.20 726.00 675.50 724.80 C 675.00 724.80 674.50 724.60 674.30 724.60 C 674.10 724.40 673.80 724.40 673.60 724.40 C 673.40 723.00 673.80 721.30 674.80 720.30 C 680.60 712.40 685.30 707.40 688.70 705.00 C 693.50 701.90 698.50 699.00 703.10 696.40 C 709.80 694.70 714.80 694.70 718.00 696.20 C 725.00 699.00 732.10 700.70 739.80 700.90 Z" fill="#9998af" fill-rule="nonzero" node-id="228" stroke="none" target-height="31.5" target-width="80.79999" target-x="673.4" target-y="694.7"></path><path d="M 463.20 723.50 C 455.50 725.70 447.10 725.70 439.50 723.30 C 443.30 719.20 447.60 717.50 452.20 718.70 C 456.30 719.60 459.90 721.30 463.20 723.50 Z" fill="#ffbca9" fill-rule="nonzero" node-id="230" stroke="none" target-height="8.200012" target-width="23.700012" target-x="439.5" target-y="717.5"></path><path d="M 559.30 719.20 C 559.80 720.60 560.50 721.80 561.50 722.80 C 554.30 723.30 547.10 723.50 539.90 724.00 C 532.70 724.50 525.80 724.50 518.30 724.50 C 506.10 724.50 493.60 724.50 481.20 724.70 C 480.70 724.70 480.20 724.20 480.20 723.70 L 480.20 723.50 L 480.40 722.50 C 480.60 721.50 481.40 721.10 482.30 721.10 L 499.80 720.60 C 517.10 720.10 533.40 721.30 551.30 720.10 C 553.50 719.90 555.40 720.10 557.50 720.80 C 558.20 721.00 558.90 720.60 559.20 719.80 C 559.10 720.10 559.10 719.60 559.30 719.20 Z" fill="#f0d1cd" fill-rule="nonzero" node-id="232" stroke="none" target-height="5.5" target-width="81.29999" target-x="480.2" target-y="719.2"></path><path d="M 674.90 720.10 C 673.90 721.10 673.20 722.70 673.70 724.20 C 673.50 724.20 673.20 724.20 673.00 724.00 C 672.50 723.80 672.30 723.80 671.80 723.80 C 654.10 725.20 636.30 724.80 618.60 722.80 L 621.50 721.40 L 674.90 720.10 Z" fill="#fbb2b1" fill-rule="nonzero" node-id="234" stroke="none" target-height="5.1000366" target-width="56.30005" target-x="618.6" target-y="720.1"></path><path d="M 154.30 721.30 L 208.00 720.80 C 209.00 720.80 209.70 721.50 209.70 722.20 L 209.70 722.20 C 209.70 723.20 209.00 723.90 208.30 723.90 L 154.60 724.40 C 153.60 724.40 152.90 723.70 152.90 723.00 L 152.90 723.00 C 152.60 722.00 153.30 721.30 154.30 721.30 Z" fill="#f0d1cd" fill-rule="nonzero" node-id="236" stroke="none" target-height="3.6000366" target-width="57.09999" target-x="152.6" target-y="720.8"></path><path d="M 811.70 411.32 L 811.96 413.99 L 811.85 416.50 L 811.37 418.86 L 810.53 421.11 L 809.42 423.07 L 808.04 424.76 L 806.37 426.16 L 804.51 427.16 L 802.42 427.78 L 800.24 427.91 L 798.15 427.61 L 796.11 426.87 L 794.23 425.75 L 792.51 424.29 L 790.96 422.45 L 789.70 420.40 L 788.73 418.09 L 788.07 415.48 L 787.80 412.81 L 787.92 410.30 L 788.40 407.94 L 789.23 405.68 L 790.34 403.73 L 791.73 402.04 L 793.39 400.64 L 795.25 399.64 L 797.35 399.02 L 799.53 398.88 L 801.62 399.19 L 803.66 399.93 L 805.54 401.05 L 807.25 402.51 L 808.81 404.34 L 810.07 406.40 L 811.03 408.71 L 811.70 411.32 Z" fill="#ffb15c" fill-rule="nonzero" group-id="3" node-id="240" stroke="none" target-height="29.02948" target-width="24.159668" target-x="787.8038" target-y="398.88428"></path></svg>