<?xml version="1.0" standalone="no"?><!DOCTYPE svg PUBLIC "-//W3C//DTD SVG 1.1//EN" "http://www.w3.org/Graphics/SVG/1.1/DTD/svg11.dtd"><svg height="1024" node-id="1" sillyvg="true" template-height="1024" template-width="1024" version="1.1" viewBox="0 0 1024 1024" width="1024" xmlns="http://www.w3.org/2000/svg" xmlns:xlink="http://www.w3.org/1999/xlink"><defs node-id="93"></defs><path d="M 473.90 296.60 L 433.10 320.90 C 439.50 313.50 446.80 307.00 454.80 301.40 C 457.20 299.80 459.80 298.40 462.60 297.20 C 466.00 295.60 470.10 295.40 473.90 296.60 Z" fill="#f0d1cd" fill-rule="nonzero" node-id="97" stroke="none" target-height="25.5" target-width="40.799988" target-x="433.1" target-y="295.4"></path><path d="M 473.90 296.60 C 479.90 298.60 485.20 301.60 490.00 305.60 C 496.20 310.80 502.30 315.70 508.50 320.90 C 510.50 322.90 512.30 325.10 513.70 327.50 C 511.30 333.50 507.50 338.40 502.60 342.40 C 502.20 342.80 502.20 343.40 502.60 343.80 L 502.60 343.80 L 503.00 344.20 C 503.20 344.40 503.60 344.40 503.80 344.20 C 509.00 340.80 514.30 337.80 519.70 335.10 C 523.30 333.30 528.10 332.90 534.20 333.70 C 535.00 333.90 535.80 333.70 536.40 333.10 C 540.20 330.50 542.60 326.10 542.40 321.60 C 542.40 319.60 543.60 317.80 545.60 317.20 C 553.40 314.40 561.50 312.80 568.30 308.80 C 571.70 306.80 574.90 304.80 578.20 302.80 L 587.50 300.00 L 637.80 300.60 C 639.00 301.00 640.00 301.20 641.20 301.40 C 643.20 301.00 645.20 302.40 645.60 304.60 C 645.60 304.80 645.60 305.20 645.60 305.40 C 646.60 317.70 647.20 329.90 647.40 342.20 C 647.40 345.40 647.80 348.80 648.60 351.90 C 649.60 356.10 651.00 360.50 650.20 364.80 C 649.20 369.80 647.80 374.70 646.00 379.30 C 645.80 379.90 646.00 380.50 646.60 380.70 C 646.80 380.70 647.00 380.70 647.20 380.70 C 665.50 376.30 682.40 370.80 701.50 370.40 C 704.90 369.80 708.30 370.20 711.40 371.20 C 719.80 375.00 728.10 378.40 736.90 381.30 C 737.70 385.10 738.10 389.10 738.10 393.00 C 738.30 404.70 738.50 416.50 738.50 428.20 C 738.70 433.00 737.90 437.70 736.30 442.10 C 735.10 444.90 734.30 447.70 733.70 450.70 C 733.10 455.70 733.10 460.40 733.50 465.40 C 733.50 466.20 733.90 466.40 734.70 466.20 L 736.30 465.40 C 733.90 470.00 731.70 474.50 730.10 479.30 C 729.50 482.30 730.10 485.50 732.10 487.90 C 733.50 490.30 734.70 492.70 735.70 494.70 C 736.70 496.70 737.10 500.30 738.30 502.90 C 738.90 504.10 739.50 505.50 739.70 506.70 C 739.90 508.10 740.30 509.30 740.70 510.70 C 742.70 517.90 748.30 523.20 757.00 527.00 C 765.80 529.60 774.90 532.40 784.20 535.20 C 787.20 536.20 790.20 536.80 793.20 537.20 C 797.00 537.60 800.20 537.80 802.30 538.00 C 809.70 538.00 817.20 537.40 824.60 536.40 C 832.80 533.80 838.30 531.00 841.30 527.80 C 846.70 522.00 850.80 513.30 853.60 501.90 C 854.80 495.90 855.00 489.80 854.20 483.80 C 853.40 476.60 853.40 469.50 854.20 462.30 C 854.60 459.30 855.60 459.10 857.00 461.70 C 859.40 465.90 859.60 472.20 861.20 477.40 C 861.80 479.40 862.60 481.60 863.20 483.60 C 863.40 484.20 863.80 484.80 864.40 485.20 L 868.00 487.20 C 869.20 487.80 869.80 489.40 869.00 490.60 C 868.80 491.20 868.20 491.60 867.60 491.80 C 865.80 492.60 864.80 494.40 865.00 496.40 C 864.80 499.60 864.20 502.80 863.40 505.70 C 862.00 510.50 860.60 515.60 859.00 521.20 C 853.40 540.90 833.70 551.20 814.60 554.20 C 813.20 554.40 810.20 555.20 805.30 556.60 C 797.30 558.80 792.00 555.00 784.40 554.60 C 774.70 554.00 765.10 552.00 756.00 549.00 C 749.20 546.80 742.30 544.60 735.10 542.40 C 729.70 540.60 724.80 538.00 720.20 534.80 C 718.00 533.40 715.80 531.60 713.60 530.00 C 710.00 527.00 706.60 525.00 702.30 521.60 C 700.50 520.20 698.50 519.40 696.50 519.00 C 695.90 518.80 695.30 518.60 694.70 518.00 C 689.50 513.00 684.80 507.90 680.40 502.30 C 677.80 498.30 675.40 493.90 673.40 489.40 C 672.40 487.80 671.00 486.60 669.40 485.80 C 668.60 485.40 668.00 484.60 667.60 483.80 C 667.20 482.60 665.80 481.80 664.40 482.40 C 664.20 482.40 664.00 482.60 663.80 482.80 C 663.20 483.20 662.40 483.00 661.80 482.60 L 658.40 479.60 C 653.00 472.80 647.30 466.50 640.90 460.50 C 635.50 455.50 630.60 450.40 626.00 444.60 C 623.00 441.00 618.80 439.20 615.90 435.50 C 608.90 426.40 601.40 417.80 593.40 409.60 C 593.00 409.60 592.40 409.00 591.40 407.80 C 599.80 404.00 608.30 401.00 617.30 399.20 C 620.30 399.00 619.30 400.40 614.50 403.60 C 613.90 404.00 613.70 404.60 613.90 405.20 C 614.70 409.80 618.10 413.40 622.70 414.30 L 640.00 432.20 C 641.40 437.20 644.80 441.30 650.50 444.50 L 660.00 453.60 C 663.80 460.60 668.00 466.90 672.90 473.10 C 679.30 480.70 686.20 487.60 693.80 494.00 C 694.40 494.60 695.40 494.40 695.80 493.80 L 696.00 493.60 C 698.40 489.20 700.00 485.20 698.00 480.50 C 696.00 475.10 693.20 469.80 690.00 465.00 C 688.40 462.80 688.20 460.00 689.60 457.60 C 690.00 457.00 690.00 456.40 690.00 455.80 C 689.20 449.80 688.20 444.10 687.20 438.10 C 686.20 432.10 683.80 427.60 681.40 422.20 C 679.60 418.40 677.60 414.60 675.20 411.30 C 671.40 405.90 667.80 400.60 664.50 395.20 C 664.10 394.60 663.70 394.20 663.10 394.00 L 654.10 389.20 L 621.50 395.60 L 613.50 396.60 C 612.90 396.80 612.30 396.40 612.10 395.80 C 612.10 395.80 612.10 395.80 612.10 395.60 C 609.30 385.10 606.70 374.70 604.30 364.80 C 602.90 359.20 599.10 356.80 594.20 354.30 C 592.20 353.10 590.40 351.90 588.40 350.70 C 584.00 347.10 578.50 345.30 572.70 345.50 C 565.90 345.70 559.40 345.90 552.60 346.10 L 549.00 347.70 L 527.50 352.50 C 526.90 352.50 526.50 353.10 526.50 353.70 C 526.30 355.10 525.90 355.90 525.30 355.90 C 508.20 350.70 494.90 347.10 481.90 348.50 C 477.90 348.90 469.40 350.10 456.20 352.10 C 455.60 352.30 454.80 352.10 454.20 351.90 L 451.00 350.90 C 447.20 348.70 442.60 348.10 438.30 348.90 C 432.90 347.70 427.60 348.30 422.60 350.90 C 421.00 351.90 419.20 352.70 417.60 353.10 C 415.80 353.50 414.00 353.90 412.20 354.50 C 411.60 354.70 411.00 355.10 410.60 355.50 C 409.20 357.10 407.20 357.90 405.20 357.30 C 404.60 357.10 403.80 357.50 403.40 358.10 C 403.00 358.50 402.60 358.90 402.00 358.90 C 401.20 359.10 401.00 358.70 400.80 358.10 L 400.60 355.50 C 409.20 342.60 419.50 331.00 431.60 321.30 L 473.90 296.60 Z M 617.10 337.80 C 614.30 332.20 603.00 334.00 598.60 336.00 C 598.00 336.40 597.60 337.00 597.60 337.80 C 598.00 343.00 600.00 347.70 603.00 351.90 C 604.40 353.90 606.60 355.50 609.00 356.10 C 621.10 359.70 626.50 349.30 618.70 340.40 C 618.10 339.60 617.50 338.60 617.10 337.80 Z M 706.60 398.90 C 703.40 391.30 701.20 381.00 689.90 385.40 C 688.10 386.00 687.10 388.00 687.30 389.80 C 688.70 397.60 688.90 403.90 695.70 409.70 C 699.70 413.10 710.40 414.50 708.60 405.90 C 708.40 403.40 707.60 401.10 706.60 398.90 Z M 713.40 430.50 C 711.20 428.10 708.20 427.50 704.40 428.90 C 700.20 430.10 697.40 433.90 697.60 438.00 C 697.80 444.80 700.00 451.90 706.70 454.70 C 708.30 455.70 710.30 455.10 711.30 453.50 C 711.30 453.50 711.30 453.50 711.30 453.30 C 715.60 447.40 718.80 436.70 713.40 430.50 L 713.40 430.50 Z M 717.80 489.80 L 717.00 489.80 C 716.60 489.80 716.00 490.00 715.80 490.20 C 713.20 492.00 710.40 493.80 707.80 495.40 C 707.20 495.80 706.60 496.40 706.20 497.20 C 705.40 498.20 705.80 499.80 706.80 500.40 C 707.00 500.60 707.20 500.60 707.20 500.60 C 713.20 504.00 718.70 507.80 723.70 512.50 C 726.30 514.90 729.70 516.10 733.00 515.90 C 735.20 515.70 736.80 513.90 736.80 511.70 C 736.80 511.50 736.80 511.30 736.80 511.10 C 735.20 504.10 732.60 497.20 729.40 490.80 C 729.20 490.20 728.60 489.80 728.00 489.40 C 725.20 488.00 721.80 487.80 718.90 488.80 C 718.50 489.00 718.30 489.20 718.10 489.60 C 718.20 489.60 718.00 489.80 717.80 489.80 L 717.80 489.80 Z" fill="#593f5d" fill-rule="nonzero" node-id="99" stroke="none" target-height="262.19998" target-width="469.19998" target-x="400.6" target-y="296.6"></path><path d="M 638.00 300.40 L 587.70 299.80 C 599.00 299.00 610.40 298.80 621.90 298.80 C 627.30 298.80 632.60 299.20 638.00 300.40 Z" fill="#dfa5ac" fill-rule="nonzero" node-id="101" stroke="none" target-height="1.6000061" target-width="50.299988" target-x="587.7" target-y="298.8"></path><path d="M 578.30 302.60 C 574.90 304.80 571.70 306.80 568.40 308.60 C 561.40 312.60 553.50 314.20 545.70 317.00 C 543.70 317.60 542.50 319.40 542.50 321.40 C 542.50 326.00 540.30 330.40 536.50 332.90 C 535.90 333.50 535.10 333.70 534.30 333.50 C 528.10 332.70 523.40 333.10 519.80 334.90 C 514.40 337.70 509.10 340.70 503.90 344.00 C 503.70 344.20 503.30 344.20 503.10 344.00 L 502.70 343.60 C 502.30 343.20 502.30 342.60 502.70 342.20 L 502.70 342.20 C 507.70 338.40 511.50 333.20 513.80 327.30 C 515.20 329.90 516.80 331.30 520.00 330.70 C 527.80 329.10 532.30 323.30 537.50 318.60 C 540.70 315.60 544.10 313.20 548.00 311.60 C 554.60 308.40 561.50 305.60 568.70 303.40 C 571.60 302.80 575.00 302.60 578.30 302.60 Z" fill="#fbb2b1" fill-rule="nonzero" node-id="103" stroke="none" target-height="41.600006" target-width="76" target-x="502.3" target-y="302.6"></path><path d="M 618.70 340.40 C 626.70 349.50 621.10 359.90 609.00 356.10 C 606.60 355.30 604.40 353.90 603.00 351.90 C 599.80 347.90 598.00 342.90 597.60 337.80 C 597.60 337.00 598.00 336.40 598.60 336.00 C 603.00 333.80 614.30 332.20 617.10 337.80 C 617.50 338.60 618.10 339.60 618.70 340.40 Z" fill="#734461" fill-rule="nonzero" node-id="105" stroke="none" target-height="27.699982" target-width="29.100037" target-x="597.6" target-y="332.2"></path><path d="M 622.50 395.30 C 622.50 396.30 622.90 396.70 623.30 396.70 L 617.70 399.10 C 608.70 400.90 600.20 403.90 591.80 407.70 C 585.40 402.10 579.50 396.00 574.10 389.20 C 570.10 384.40 565.70 380.10 560.80 376.30 C 550.30 368.10 538.70 361.20 526.40 355.60 C 527.20 355.60 527.60 354.80 527.60 353.40 C 527.60 352.80 528.00 352.40 528.60 352.20 L 550.10 347.40 C 553.50 352.80 557.70 354.20 563.00 351.40 C 564.20 350.80 564.80 349.20 564.00 348.00 C 563.60 347.40 563.20 347.00 562.60 346.80 C 559.60 346.00 556.60 345.60 553.50 346.00 C 560.30 345.80 566.80 345.60 573.60 345.40 C 579.40 345.20 584.90 347.20 589.30 350.60 C 591.10 351.80 593.10 353.00 594.90 354.20 C 599.90 356.80 603.70 359.20 605.00 364.70 C 607.40 374.60 610.00 384.80 612.80 395.50 C 612.80 396.10 613.40 396.50 614.00 396.50 C 614.00 396.50 614.00 396.50 614.20 396.50 L 622.50 395.30 Z" fill="#b14f59" fill-rule="nonzero" node-id="107" stroke="none" target-height="62.5" target-width="96.89996" target-x="526.4" target-y="345.2"></path><path d="M 553.90 345.80 C 556.90 345.60 560.10 345.80 563.00 346.60 C 564.40 347.00 565.00 348.40 564.60 349.80 C 564.40 350.40 564.00 351.00 563.40 351.20 C 558.00 354.00 553.90 352.60 550.50 347.20 L 553.90 345.80 Z" fill="#da919e" fill-rule="nonzero" node-id="109" stroke="none" target-height="8.399994" target-width="14.5" target-x="550.5" target-y="345.6"></path><path d="M 830.90 349.90 L 829.70 354.10 C 829.30 355.10 828.50 355.90 827.50 355.90 L 824.90 356.10 C 823.50 356.30 822.10 355.10 821.90 353.70 C 821.90 353.30 821.90 352.90 822.10 352.50 L 822.90 350.50 C 823.10 350.10 823.30 349.70 823.70 349.30 L 826.90 346.90 C 828.10 345.90 829.70 346.30 830.70 347.30 C 830.90 348.20 831.10 348.90 830.90 349.90 Z" fill="#e0e9a6" fill-rule="nonzero" node-id="111" stroke="none" target-height="10.399994" target-width="9.199951" target-x="821.9" target-y="345.9"></path><path d="M 439.70 348.60 C 434.90 351.60 430.60 355.00 426.20 358.70 C 424.60 360.10 422.20 362.10 419.20 364.50 C 416.80 366.30 414.80 368.30 412.80 370.70 C 411.60 372.10 411.40 374.10 411.80 375.70 L 413.80 382.70 C 414.00 383.70 415.00 384.30 416.00 383.90 C 416.40 383.90 416.60 383.50 417.00 383.30 C 421.00 378.30 425.00 373.20 429.10 367.60 C 430.90 365.20 432.30 362.60 433.30 359.80 C 433.50 359.20 433.90 358.80 434.30 358.40 C 436.30 357.20 438.10 356.20 440.10 355.00 C 443.70 353.00 447.90 353.20 451.80 352.20 C 452.20 352.20 452.60 351.80 452.60 351.40 L 452.60 351.20 C 452.60 351.00 452.40 350.80 452.20 350.60 L 455.40 351.60 C 456.00 351.80 456.80 351.80 457.40 351.80 C 470.50 349.80 479.10 348.60 483.10 348.20 C 496.00 346.80 509.40 350.40 526.50 355.60 C 538.60 361.20 550.20 367.90 560.90 376.10 C 565.90 379.90 570.20 384.30 574.20 389.00 C 579.60 395.80 585.50 401.90 591.90 407.50 C 592.70 408.70 593.50 409.50 593.90 409.30 L 588.90 408.30 C 588.30 408.10 587.70 408.30 587.10 408.50 C 580.90 410.50 574.80 413.10 568.80 416.10 C 567.60 416.90 566.40 417.70 565.20 418.70 C 565.00 418.90 564.60 419.10 564.20 418.70 L 564.00 418.50 C 564.00 418.30 564.00 418.10 564.00 418.10 C 564.20 417.10 564.00 416.90 563.00 417.50 C 560.40 419.30 558.80 419.90 558.40 419.30 C 554.60 420.90 553.20 422.30 554.00 423.50 L 549.80 420.10 C 549.40 419.70 548.60 419.90 548.40 420.30 C 548.20 420.50 548.20 420.90 548.20 421.10 C 548.40 423.10 549.20 424.90 550.00 426.70 L 549.40 429.10 C 549.20 429.50 549.40 430.10 549.80 430.50 C 550.20 430.70 550.40 431.10 550.40 431.70 C 550.40 432.50 550.20 432.70 549.40 432.10 C 548.00 430.50 545.60 430.30 544.00 431.70 C 543.80 431.90 543.80 431.90 543.60 432.10 C 543.00 432.70 542.40 432.90 541.60 432.90 C 539.00 432.90 536.80 434.10 535.00 435.90 C 534.60 436.50 533.80 436.70 533.20 436.30 L 533.00 436.10 L 531.80 435.10 C 529.80 426.50 525.00 419.00 518.50 413.20 C 496.40 394.70 471.40 416.00 477.10 441.20 C 478.70 448.40 483.70 454.50 490.60 457.10 C 494.80 459.30 499.60 460.50 504.30 460.70 C 500.90 460.70 497.70 460.70 494.40 460.50 C 491.40 460.30 488.60 459.90 485.80 459.10 C 482.80 458.30 480.00 457.70 477.20 457.10 C 475.40 456.70 473.60 457.90 473.20 459.70 L 471.40 466.50 C 471.20 466.90 471.40 467.30 471.80 467.30 L 472.00 467.30 C 473.20 467.70 474.00 468.70 473.80 470.50 C 473.60 475.70 473.20 479.10 473.00 480.40 C 472.60 482.40 470.80 485.40 467.40 489.00 C 460.60 496.60 453.50 489.80 447.50 485.80 C 446.90 485.40 446.50 485.00 446.10 484.40 C 445.30 483.20 443.90 482.60 442.50 483.20 C 432.40 485.80 420.40 489.60 406.70 494.30 C 402.30 496.10 398.50 498.70 395.40 502.10 C 395.60 501.50 395.80 500.90 395.60 500.30 C 395.40 499.50 395.00 499.30 394.20 499.70 C 380.50 505.50 365.60 503.30 355.20 492.10 C 351.00 488.30 348.80 482.60 349.20 477.00 C 349.20 472.80 348.60 468.80 347.60 464.70 C 347.60 464.30 347.40 464.30 347.00 464.50 C 346.60 464.70 346.80 464.70 346.80 464.90 C 346.60 467.70 346.20 468.70 345.20 468.10 C 345.40 465.10 345.80 461.90 346.20 459.00 C 346.80 456.00 347.00 452.80 347.20 449.90 C 347.40 437.60 349.80 425.40 353.80 413.70 C 356.20 407.50 359.80 401.80 364.30 396.80 C 368.70 392.20 373.40 388.00 378.80 384.50 C 386.20 380.30 393.30 376.10 400.70 371.80 C 402.90 370.40 405.30 371.00 407.70 369.00 C 409.70 367.40 411.70 365.60 413.50 363.80 C 415.50 361.60 415.10 361.20 412.50 362.60 L 395.40 371.40 C 395.00 371.80 394.40 371.60 394.20 371.20 C 394.00 371.00 394.00 371.00 394.00 370.80 C 393.80 370.00 393.80 369.40 394.00 368.60 L 402.00 355.70 L 402.20 358.30 C 402.20 359.10 402.60 359.30 403.40 359.10 C 404.00 358.90 404.40 358.70 404.80 358.30 C 405.20 357.70 405.80 357.50 406.60 357.50 C 408.60 357.90 410.80 357.30 412.00 355.70 C 412.40 355.10 413.00 354.90 413.60 354.70 C 415.40 354.10 417.20 353.70 419.00 353.30 C 420.80 352.90 422.60 352.10 424.00 351.10 C 429.00 348.00 434.30 347.40 439.70 348.60 Z M 390.00 464.90 C 390.00 464.50 389.00 464.10 387.80 464.10 C 386.60 464.10 385.60 464.30 385.60 464.70 C 385.60 465.10 386.60 465.50 387.80 465.50 C 389.00 465.50 390.00 465.30 390.00 464.90 L 390.00 464.90 Z M 461.00 488.80 C 468.60 488.20 471.50 477.90 470.50 471.50 C 470.30 470.50 469.50 469.90 468.50 469.90 L 468.30 469.90 C 460.90 472.10 454.20 475.90 448.40 480.80 C 448.00 481.20 448.00 481.80 448.40 482.20 L 448.40 482.20 C 451.60 485.40 456.40 489.20 461.00 488.80 L 461.00 488.80 Z" fill="#bd575f" fill-rule="nonzero" node-id="113" stroke="none" target-height="158.70001" target-width="248.70001" target-x="345.2" target-y="346.8"></path><path d="M 439.70 348.60 C 444.10 347.80 448.50 348.40 452.40 350.60 C 452.60 350.80 452.80 351.00 452.80 351.20 C 453.00 351.60 452.60 352.00 452.20 352.20 L 452.00 352.20 C 448.00 353.20 443.80 353.00 440.30 355.00 C 438.30 356.00 436.50 357.20 434.50 358.40 C 433.90 358.80 433.50 359.20 433.50 359.80 C 432.50 362.60 431.10 365.20 429.30 367.60 C 425.10 373.20 421.10 378.30 417.20 383.30 C 416.60 384.10 415.40 384.10 414.60 383.50 C 414.40 383.30 414.20 382.90 414.00 382.50 L 412.00 375.50 C 411.40 373.70 411.80 371.90 413.00 370.50 C 414.80 368.10 417.00 366.10 419.40 364.30 C 422.40 361.90 424.80 359.90 426.40 358.50 C 430.40 354.90 434.90 351.50 439.70 348.60 Z" fill="#fbb2b1" fill-rule="nonzero" node-id="115" stroke="none" target-height="36.30002" target-width="41.600006" target-x="411.4" target-y="347.8"></path><path d="M 364.70 396.70 C 370.50 388.50 377.80 382.00 386.60 377.20 C 388.60 376.00 391.20 373.00 394.20 368.20 C 394.00 368.80 394.00 369.60 394.20 370.40 C 394.20 371.00 394.80 371.20 395.20 371.20 C 395.40 371.20 395.60 371.20 395.60 371.00 L 412.70 362.20 C 415.30 361.00 415.50 361.40 413.70 363.40 C 411.90 365.20 409.90 367.00 407.90 368.60 C 405.70 370.60 403.30 370.00 400.90 371.40 C 393.70 375.80 386.40 380.00 379.00 384.10 C 373.90 387.70 369.10 391.90 364.70 396.70 Z" fill="#feac9f" fill-rule="nonzero" node-id="117" stroke="none" target-height="35.700012" target-width="50.799988" target-x="364.7" target-y="361"></path><path d="M 822.40 384.70 C 815.80 398.00 802.90 407.20 788.20 408.60 C 787.60 408.80 787.00 408.40 786.60 408.00 C 785.20 406.20 784.40 404.20 784.20 402.00 C 783.20 393.00 786.40 384.30 793.20 375.70 C 798.60 369.10 808.70 362.00 817.30 365.20 C 825.20 368.20 826.00 377.60 822.40 384.70 Z" fill="#cbda66" fill-rule="nonzero" node-id="119" stroke="none" target-height="46.799988" target-width="42.799988" target-x="783.2" target-y="362"></path><path d="M 736.70 380.80 C 728.10 377.80 719.60 374.60 711.20 370.70 C 708.00 369.70 704.60 369.50 701.30 369.90 C 703.90 369.10 706.70 368.90 709.30 369.30 C 711.50 369.70 713.50 370.10 715.70 370.30 C 717.90 370.50 719.90 370.90 722.10 371.50 C 724.90 372.30 727.70 372.90 730.50 373.30 C 735.50 373.80 737.10 376.20 736.70 380.80 Z" fill="#fbb2b1" fill-rule="nonzero" node-id="121" stroke="none" target-height="11.899994" target-width="35.799988" target-x="701.3" target-y="368.9"></path><path d="M 706.60 398.90 C 707.60 401.10 708.20 403.30 708.80 405.70 C 710.60 414.50 699.80 412.90 695.90 409.50 C 688.90 403.70 688.70 397.40 687.50 389.60 C 687.10 387.80 688.30 385.80 690.10 385.20 C 701.50 381.20 703.60 391.50 706.60 398.90 Z" fill="#734461" fill-rule="nonzero" node-id="123" stroke="none" target-height="33.299988" target-width="23.5" target-x="687.1" target-y="381.2"></path><path d="M 655.10 388.90 C 651.30 392.50 647.70 394.10 644.20 394.10 C 637.00 393.70 630.10 394.50 623.30 396.70 C 622.90 396.70 622.50 396.30 622.50 395.30 L 655.10 388.90 Z" fill="#da919e" fill-rule="nonzero" node-id="125" stroke="none" target-height="7.8000183" target-width="32.599976" target-x="622.5" target-y="388.9"></path><path d="M 655.10 388.90 L 664.10 393.70 C 664.70 393.90 665.10 394.50 665.50 394.90 C 668.90 400.50 672.50 405.80 676.20 411.00 C 678.60 414.40 680.80 418.20 682.40 421.90 C 684.80 427.30 687.20 432.00 688.20 437.80 C 689.20 443.60 690.20 449.50 691.00 455.50 C 691.20 456.10 691.00 456.70 690.60 457.30 C 689.20 459.70 689.40 462.50 691.00 464.70 C 694.20 469.70 697.00 474.80 699.00 480.20 C 701.00 485.00 699.40 489.00 697.00 493.30 C 696.60 494.10 695.80 494.30 695.00 493.90 C 695.00 493.90 694.80 493.90 694.80 493.70 C 687.00 487.50 680.10 480.60 673.90 472.80 C 668.90 466.60 664.60 460.30 661.00 453.30 C 668.80 459.50 675.30 460.10 680.50 455.30 C 683.50 452.50 683.70 449.50 683.50 445.60 C 683.10 439.20 679.90 435.50 674.00 434.30 C 664.50 432.30 650.90 431.10 651.50 444.20 C 645.70 441.00 642.20 436.80 641.00 431.90 C 643.60 430.70 646.00 429.10 648.00 426.70 C 650.80 424.30 652.20 420.70 652.20 417.20 C 651.60 410.20 648.00 406.30 641.50 405.50 C 637.50 404.90 633.50 405.10 629.60 406.10 C 626.40 407.10 624.60 409.70 623.80 413.90 C 619.20 412.90 615.80 409.30 615.00 404.80 C 614.80 404.20 615.00 403.60 615.60 403.20 C 620.40 400.00 621.20 398.40 618.40 398.80 L 624.00 396.40 C 630.80 394.20 637.90 393.40 644.90 393.80 C 647.80 394.10 651.30 392.50 655.10 388.90 Z" fill="#97485e" fill-rule="nonzero" node-id="127" stroke="none" target-height="105.399994" target-width="86.20001" target-x="614.8" target-y="388.9"></path><path d="M 640.40 432.10 L 623.10 414.20 C 623.70 410.00 625.70 407.40 628.90 406.40 C 632.90 405.40 636.90 405.20 640.80 405.80 C 647.60 406.60 651.10 410.60 651.50 417.50 C 651.50 421.10 650.10 424.70 647.30 427.00 C 645.60 429.30 643.20 430.90 640.40 432.10 Z" fill="#e37a7b" fill-rule="nonzero" node-id="129" stroke="none" target-height="26.899994" target-width="28.400024" target-x="623.1" target-y="405.2"></path><path d="M 531.80 434.70 L 532.60 445.80 C 529.80 441.40 526.60 439.00 523.50 438.40 C 514.00 436.80 504.20 438.80 496.10 444.00 C 495.50 444.40 495.10 444.80 495.10 445.60 C 494.70 449.00 494.70 452.20 495.30 455.50 C 495.50 456.10 495.10 456.70 494.50 456.90 L 494.50 456.90 C 493.30 457.30 491.90 457.30 490.70 456.90 C 483.70 454.30 478.80 448.10 477.20 441.00 C 471.40 415.70 496.50 394.70 518.60 413.00 C 525.20 418.60 529.80 426.30 531.80 434.70 Z M 488.80 434.50 C 493.00 437.70 499.70 435.50 503.90 429.70 C 508.10 423.90 508.30 416.80 504.10 413.80 C 499.90 410.80 493.20 412.80 489.00 418.60 C 484.90 424.30 484.70 431.50 488.80 434.50 L 488.80 434.50 Z" fill="#1d0e13" fill-rule="nonzero" node-id="131" stroke="none" target-height="62.599976" target-width="61.19998" target-x="471.4" target-y="394.7"></path><path d="M 593.90 409.40 C 601.90 417.60 609.40 426.10 616.40 435.30 C 619.40 439.10 623.60 440.90 626.50 444.40 C 631.10 450.00 636.20 455.30 641.40 460.30 C 647.60 466.30 653.50 472.60 658.90 479.40 C 658.70 480.80 659.30 482.00 660.30 482.80 C 661.10 483.60 662.10 484.40 662.90 485.20 C 664.50 486.80 665.70 489.00 666.10 491.20 C 666.50 496.40 665.70 501.70 663.30 506.50 C 663.10 507.10 662.30 507.50 661.70 507.50 L 659.90 507.50 C 659.30 507.50 658.70 507.90 658.30 508.50 C 658.10 508.70 658.10 509.10 658.10 509.50 C 654.70 513.90 652.30 518.60 651.10 524.00 C 649.70 529.20 650.30 534.50 652.70 539.30 C 654.90 543.50 657.90 546.90 661.70 549.60 C 666.10 552.80 670.50 552.00 675.60 551.40 C 674.20 552.40 672.60 553.00 671.00 553.20 C 670.40 553.20 670.00 553.40 669.60 553.80 C 669.40 554.00 669.00 554.20 668.60 554.40 C 668.20 554.60 668.00 554.80 668.40 555.00 C 668.80 555.20 669.20 555.40 669.60 555.20 C 670.20 555.00 670.40 555.20 670.40 555.80 C 670.40 556.40 670.00 557.00 669.60 557.20 C 665.80 559.40 662.40 558.20 658.50 559.40 C 655.10 560.40 651.70 562.00 648.80 564.00 C 647.40 564.80 645.80 565.20 644.20 565.00 C 643.60 565.00 643.20 565.20 642.80 565.80 C 641.80 567.40 640.40 568.60 638.80 569.00 C 638.20 569.20 637.60 569.20 637.40 568.60 C 637.40 568.40 637.20 568.40 637.20 568.20 C 637.00 567.80 637.00 567.40 637.20 567.00 C 637.40 566.60 637.20 566.00 636.80 565.80 L 636.80 565.80 C 636.00 565.40 635.40 564.60 635.20 563.80 C 635.00 563.20 634.60 562.60 634.20 562.40 L 629.60 559.60 C 629.00 559.20 628.60 558.60 628.80 557.80 C 629.00 556.60 628.60 555.40 627.60 554.60 C 627.20 554.20 627.00 553.60 627.00 553.00 L 627.40 549.00 C 629.60 547.20 631.00 544.80 631.40 542.00 C 632.00 539.40 632.40 536.60 632.60 534.00 C 632.80 522.90 632.20 511.70 631.00 500.60 C 630.00 493.80 628.20 487.10 625.60 480.70 C 623.80 478.30 621.80 477.50 620.00 478.30 C 618.20 478.90 616.40 479.90 615.00 481.10 C 611.40 484.70 608.20 488.90 605.90 493.40 C 602.70 499.00 598.70 502.20 594.20 502.90 C 591.80 503.30 590.20 505.50 590.60 507.90 C 591.40 515.10 593.80 521.60 598.00 527.60 C 601.80 532.80 606.00 534.40 611.90 536.90 C 614.30 538.10 616.50 540.90 618.10 545.30 C 616.70 547.30 613.30 547.70 608.40 546.70 C 599.30 544.50 589.90 543.50 580.60 543.70 C 574.20 543.90 566.10 549.50 560.50 552.50 C 555.50 555.10 555.10 560.70 559.50 569.20 C 553.70 561.80 550.50 556.70 550.20 553.70 C 549.80 550.90 549.60 548.10 549.20 545.50 C 549.20 544.70 548.60 543.90 547.80 543.50 C 546.60 542.90 545.40 542.90 544.20 543.30 C 542.20 543.90 541.60 543.10 542.20 541.30 L 543.20 538.10 C 543.60 537.10 543.20 536.50 542.20 536.30 C 535.00 535.10 527.90 535.10 520.70 535.90 C 494.40 539.10 469.40 545.20 442.90 549.80 C 428.00 552.40 416.00 554.60 406.90 556.40 C 405.90 556.60 405.10 557.40 404.70 558.40 L 403.10 558.60 C 396.10 548.70 390.00 540.30 378.00 536.90 C 374.00 535.70 369.80 535.10 365.90 534.90 C 361.70 534.70 357.70 535.10 353.60 535.70 C 349.00 536.30 344.10 536.90 339.10 537.30 C 338.30 537.30 337.50 536.70 337.50 535.90 C 337.50 535.70 337.50 535.30 337.70 535.10 C 338.30 534.10 339.70 533.50 340.90 533.90 C 342.90 534.10 343.30 533.50 341.90 531.90 C 336.70 525.50 333.10 518.20 331.60 510.20 C 330.60 505.60 331.60 500.50 335.00 494.70 C 339.80 486.30 343.60 477.40 346.10 468.20 C 347.10 468.80 347.50 467.60 347.70 465.00 C 347.70 464.80 347.70 464.60 347.90 464.60 C 348.10 464.60 348.30 464.40 348.50 464.80 C 349.50 468.80 349.90 473.00 350.10 477.10 C 349.70 482.90 351.90 488.40 356.10 492.20 C 355.70 492.60 355.10 492.40 354.50 491.80 C 353.90 491.20 353.50 491.00 354.10 492.20 C 357.70 500.60 362.50 511.70 371.20 514.70 C 381.10 518.10 388.70 509.30 396.50 502.40 C 399.70 499.00 403.70 496.40 407.80 494.60 C 421.50 489.80 433.50 486.00 443.60 483.50 C 445.00 483.10 446.40 483.50 447.20 484.70 C 447.60 485.30 448.00 485.70 448.60 486.10 C 454.60 489.90 461.70 496.60 468.50 489.30 C 471.70 485.70 473.70 482.90 474.10 480.70 C 474.30 479.30 474.70 475.90 474.90 470.80 C 474.90 469.00 474.30 467.80 473.10 467.60 C 472.70 467.60 472.50 467.20 472.50 466.80 L 472.50 466.60 L 474.30 459.80 C 474.70 458.00 476.50 457.00 478.30 457.20 C 481.10 457.80 483.90 458.60 486.90 459.20 C 489.70 460.00 492.70 460.40 495.50 460.60 C 498.90 460.60 502.10 460.80 505.40 460.80 L 520.70 456.80 C 515.50 469.10 517.90 477.50 527.90 482.30 C 532.10 484.30 536.90 485.10 541.40 484.70 C 546.20 484.30 550.70 482.90 554.90 480.50 C 556.70 479.30 558.50 477.90 560.10 476.30 L 564.90 471.70 C 565.30 471.30 565.70 470.70 565.70 470.10 C 565.90 469.10 566.10 468.30 566.50 467.50 C 569.30 461.50 569.10 455.80 564.70 450.80 C 561.70 447.60 553.00 444.20 548.80 444.20 C 542.00 444.20 541.00 453.00 532.50 450.40 C 533.90 449.60 534.30 447.80 533.70 446.40 L 532.90 435.30 L 534.10 436.30 C 534.50 436.90 535.30 436.90 535.90 436.30 L 536.10 436.10 C 537.70 434.30 540.10 433.10 542.70 433.10 C 543.50 433.10 544.10 432.70 544.70 432.30 C 546.10 430.70 548.50 430.50 550.10 431.90 C 550.30 432.10 550.30 432.10 550.50 432.30 C 551.10 432.90 551.50 432.70 551.50 431.90 C 551.50 431.50 551.30 431.10 550.90 430.70 C 550.50 430.30 550.30 429.90 550.50 429.30 L 551.10 426.90 C 553.30 432.30 555.90 437.40 559.10 442.40 C 560.30 444.20 561.50 444.60 563.10 443.60 C 564.50 442.80 565.10 441.00 564.70 439.40 C 562.90 433.40 559.70 428.10 555.40 423.70 C 554.60 422.50 556.20 421.10 559.80 419.50 C 560.20 420.10 561.80 419.50 564.40 417.70 C 565.20 417.10 565.60 417.30 565.40 418.30 C 565.40 418.50 565.40 418.70 565.40 418.70 C 565.60 419.10 566.00 419.30 566.40 419.10 C 566.60 419.10 566.60 418.90 566.60 418.90 C 567.60 417.90 568.80 417.10 570.20 416.30 C 576.20 413.30 582.10 410.70 588.50 408.70 C 589.10 408.50 589.70 408.50 590.30 408.50 L 593.90 409.40 Z M 599.80 489.20 C 605.00 482.60 610.90 478.90 618.50 478.10 C 623.70 477.50 623.90 476.30 618.90 474.50 C 608.00 470.50 593.20 479.50 586.50 487.00 C 583.70 490.20 580.90 493.20 577.70 496.00 C 568.40 503.80 554.00 512.70 551.40 525.40 C 550.80 528.20 551.40 528.40 553.00 526.20 C 557.20 520.60 561.20 515.30 564.90 510.10 C 569.70 503.50 578.20 498.60 585.00 491.60 C 589.40 486.80 593.40 486.20 598.70 489.40 C 599.00 489.60 599.40 489.40 599.80 489.20 L 599.80 489.20 Z" fill="#da504a" fill-rule="nonzero" node-id="133" stroke="none" target-height="160.70001" target-width="344.99997" target-x="330.6" target-y="408.5"></path><g node-id="282"><path d="M 498.40 414.85 L 499.62 416.01 L 500.53 417.39 L 501.15 419.03 L 501.45 420.78 L 501.45 422.65 L 501.13 424.68 L 500.53 426.65 L 499.61 428.61 L 498.35 430.59 L 496.83 432.38 L 495.22 433.84 L 493.52 435.00 L 491.68 435.90 L 489.89 436.45 L 488.13 436.68 L 486.39 436.58 L 484.80 436.12 L 483.33 435.29 L 482.10 434.13 L 481.19 432.75 L 480.58 431.11 L 480.28 429.37 L 480.28 427.50 L 480.60 425.47 L 481.20 423.50 L 482.12 421.53 L 483.38 419.55 L 484.90 417.77 L 486.50 416.31 L 488.21 415.15 L 490.05 414.24 L 491.84 413.69 L 493.59 413.46 L 495.34 413.57 L 496.93 414.03 L 498.40 414.85 Z" fill="#feebe5" fill-rule="nonzero" group-id="1" node-id="137" stroke="none" target-height="23.222656" target-width="21.169678" target-x="480.27896" target-y="413.4615"></path></g><path d="M 554.10 423.10 C 558.50 427.50 561.70 432.80 563.40 438.80 C 563.80 440.40 563.20 442.00 561.80 443.00 C 560.20 444.00 559.00 443.60 557.80 441.80 C 554.60 436.80 552.00 431.70 549.80 426.30 C 549.00 424.50 548.20 422.70 548.00 420.70 C 548.00 420.10 548.40 419.70 548.80 419.50 C 549.00 419.50 549.40 419.50 549.60 419.70 L 554.10 423.10 Z" fill="#2c0707" fill-rule="nonzero" node-id="140" stroke="none" target-height="24.5" target-width="15.799988" target-x="548" target-y="419.5"></path><path d="M 713.40 430.50 C 718.80 436.70 715.60 447.40 711.60 453.60 C 710.80 455.20 708.80 456.00 707.00 455.00 C 707.00 455.00 707.00 455.00 706.80 455.00 C 700.20 452.00 697.80 444.90 697.70 438.30 C 697.50 433.90 700.30 430.10 704.50 429.20 C 708.40 427.50 711.20 427.90 713.40 430.50 Z" fill="#734461" fill-rule="nonzero" node-id="142" stroke="none" target-height="28.5" target-width="21.299988" target-x="697.5" target-y="427.5"></path><path d="M 660.70 453.60 L 651.00 444.50 C 650.40 431.40 664.10 432.60 673.50 434.60 C 679.50 435.80 682.60 439.60 683.00 445.90 C 683.20 449.90 683.00 452.90 680.00 455.60 C 675.00 460.30 668.60 459.70 660.70 453.60 Z" fill="#e37a7b" fill-rule="nonzero" node-id="144" stroke="none" target-height="28.899994" target-width="32.799988" target-x="650.4" target-y="431.4"></path><path d="M 532.60 445.80 C 533.20 447.20 532.60 449.00 531.40 449.80 C 527.00 451.00 523.00 453.20 519.90 456.40 L 504.60 460.40 C 499.80 460.20 495.10 459.00 490.90 456.80 C 492.10 457.20 493.50 457.20 494.70 456.80 C 495.30 456.60 495.70 456.00 495.50 455.60 L 495.50 455.60 C 494.90 452.20 494.90 449.00 495.30 445.70 C 495.30 445.10 495.70 444.50 496.30 444.10 C 504.50 438.90 514.20 436.90 523.70 438.50 C 526.60 438.80 529.80 441.40 532.60 445.80 Z" fill="#7d434d" fill-rule="nonzero" node-id="146" stroke="none" target-height="23.5" target-width="42.30002" target-x="490.9" target-y="436.9"></path><path d="M 519.70 456.40 C 522.90 453.20 526.90 451.00 531.20 449.80 C 539.80 452.40 540.70 443.60 547.50 443.60 C 551.70 443.60 560.60 447.00 563.40 450.20 C 567.80 455.00 568.20 460.70 565.20 466.90 C 564.80 467.70 564.60 468.70 564.40 469.50 C 564.20 470.10 564.00 470.70 563.60 471.10 L 558.80 475.70 C 557.20 477.30 555.60 478.70 553.60 479.90 C 549.40 482.30 544.80 483.90 540.10 484.10 C 535.50 484.50 530.80 483.70 526.60 481.70 C 516.90 477.00 514.50 468.50 519.70 456.40 Z" fill="#fe8964" fill-rule="nonzero" node-id="148" stroke="none" target-height="40.899994" target-width="53.700012" target-x="514.5" target-y="443.6"></path><path d="M 797.30 508.50 L 797.10 509.90 C 796.90 511.10 796.70 511.10 796.10 510.10 C 794.70 507.50 792.50 505.30 789.70 504.10 C 789.10 503.90 788.70 503.30 788.30 502.70 C 784.30 495.30 781.50 491.00 779.70 489.80 C 776.50 487.20 773.10 484.80 769.80 482.80 C 768.80 482.20 767.60 482.40 766.80 483.00 L 760.60 487.20 C 759.80 487.60 759.00 487.80 758.20 487.40 C 754.20 485.40 750.40 483.00 745.90 483.20 C 740.70 483.40 736.00 485.20 731.80 488.20 C 729.80 485.80 729.20 482.60 729.80 479.60 C 731.60 474.80 733.60 470.30 736.00 465.70 C 743.40 462.30 751.30 458.50 759.70 454.60 C 763.90 452.80 768.50 452.00 772.80 452.40 C 775.00 452.40 777.20 451.80 779.20 450.80 C 779.80 450.60 780.40 450.80 780.80 451.20 C 782.20 453.00 783.40 455.00 784.00 457.20 C 787.40 467.30 790.20 477.70 792.40 488.20 C 793.90 494.50 795.50 501.50 797.30 508.50 Z" fill="#4d3a6a" fill-rule="nonzero" node-id="150" stroke="none" target-height="60.5" target-width="68.099976" target-x="729.2" target-y="450.6"></path><path d="M 888.80 545.70 C 887.20 548.10 886.00 550.90 885.40 553.70 C 884.00 559.90 882.80 566.20 881.60 572.60 C 881.40 573.20 881.00 573.60 880.40 573.60 C 879.60 573.60 879.00 573.00 879.00 572.40 C 878.40 569.00 878.00 566.80 874.80 564.40 C 872.60 562.80 870.80 561.00 869.00 559.00 C 868.60 558.60 868.00 558.60 867.60 559.00 L 867.60 559.00 L 867.20 559.40 C 867.00 559.60 867.00 559.80 867.20 559.80 C 870.40 564.80 874.00 569.70 877.70 574.90 C 879.30 576.90 879.90 579.50 879.70 582.10 C 879.50 585.70 877.90 591.20 874.90 593.60 C 873.90 594.40 873.30 595.60 873.10 596.80 C 872.90 597.40 872.70 598.00 872.10 598.20 C 870.50 599.20 869.10 600.40 867.70 602.00 C 867.50 602.40 867.10 602.60 866.70 602.80 L 866.10 603.00 C 865.70 603.00 865.30 603.20 864.90 603.60 C 860.30 607.00 855.90 610.40 851.60 613.90 C 849.20 615.90 847.40 615.70 844.60 616.10 C 844.00 616.10 843.60 616.50 843.40 617.10 L 843.00 617.90 C 842.80 618.50 842.20 618.90 841.60 619.30 C 834.60 622.90 828.30 627.10 820.70 629.20 C 811.70 632.00 802.80 634.60 793.80 637.20 C 793.60 637.20 793.20 637.20 793.00 637.00 L 792.60 636.60 C 792.20 636.20 791.60 636.20 791.20 636.40 L 791.20 636.40 C 789.80 637.80 788.20 638.60 786.20 639.20 C 774.70 641.20 762.50 646.00 750.00 647.40 C 746.20 647.80 740.30 648.60 731.90 649.80 C 725.10 650.80 718.40 651.00 711.60 650.40 C 711.00 650.40 710.40 649.80 710.40 649.00 L 710.40 648.80 C 711.20 646.60 711.60 644.20 711.80 641.80 C 712.00 634.20 712.20 626.50 712.60 618.70 C 712.60 618.70 712.60 618.50 712.40 618.50 L 712.00 618.50 C 711.80 618.50 711.60 618.70 711.40 618.90 L 711.40 618.90 L 707.80 647.50 C 707.40 650.30 705.00 652.50 702.20 652.70 C 687.70 653.10 673.20 653.30 658.80 653.30 C 655.80 653.10 653.00 652.50 650.20 651.70 C 649.00 651.50 648.20 650.50 648.20 649.50 L 647.80 644.50 C 647.80 643.50 647.60 643.50 647.20 644.50 L 644.60 653.10 L 641.60 659.50 C 641.20 661.70 639.40 663.50 637.40 664.30 C 636.80 664.50 636.20 664.70 635.80 665.30 C 629.80 671.10 623.90 671.90 616.70 674.30 C 614.10 675.10 611.30 675.90 608.50 676.30 C 592.60 678.90 576.50 681.10 560.20 682.90 C 557.00 683.30 554.20 682.10 550.90 681.90 C 548.50 681.90 546.30 681.50 544.10 680.90 C 542.30 680.50 540.50 680.10 538.50 680.10 C 537.90 680.10 537.10 679.90 536.50 679.70 L 532.90 678.50 C 532.50 678.30 532.30 677.90 532.30 677.50 C 532.50 675.70 531.70 673.90 530.50 672.50 L 537.50 658.20 C 544.90 644.90 552.00 631.30 559.00 617.80 C 563.60 608.80 570.10 592.10 563.40 583.00 C 567.80 581.60 572.40 581.00 576.30 579.40 C 591.00 573.40 604.90 565.90 617.90 556.90 C 620.90 554.70 623.70 552.10 626.30 549.30 L 625.90 553.30 C 625.90 553.90 626.10 554.50 626.50 554.90 C 627.50 555.70 627.90 556.90 627.70 558.10 C 627.50 558.70 627.90 559.50 628.50 559.90 L 633.10 562.70 C 633.70 563.10 634.10 563.50 634.10 564.10 C 634.30 564.90 634.90 565.70 635.70 566.10 C 636.10 566.30 636.30 566.70 636.10 567.30 L 636.10 567.30 C 635.90 567.70 635.90 568.10 636.10 568.50 C 636.30 569.10 636.70 569.50 637.30 569.50 C 637.50 569.50 637.50 569.50 637.70 569.30 C 639.50 568.70 640.90 567.70 641.70 566.10 C 641.90 565.70 642.50 565.30 643.10 565.30 C 644.70 565.50 646.30 565.10 647.70 564.30 C 650.70 562.30 654.10 560.90 657.40 559.70 C 661.40 558.50 664.80 559.70 668.50 557.50 C 669.10 557.30 669.30 556.70 669.30 556.10 C 669.30 555.50 669.10 555.30 668.50 555.50 C 668.10 555.70 667.70 555.70 667.30 555.30 C 666.90 554.90 666.90 554.70 667.50 554.70 C 667.90 554.50 668.10 554.50 668.50 554.10 C 668.90 553.70 669.30 553.50 669.70 553.50 C 671.30 553.30 672.90 552.70 674.30 551.70 C 677.90 545.30 677.70 538.00 673.50 529.40 C 670.10 522.00 665.10 515.50 658.80 510.30 C 658.20 509.90 657.40 509.70 656.60 509.70 C 656.60 509.30 656.60 509.10 656.80 508.70 C 657.20 508.10 657.80 507.70 658.40 507.70 L 660.20 507.70 C 661.00 507.70 661.60 507.30 661.80 506.70 C 664.00 501.90 665.00 496.60 664.60 491.40 C 664.20 489.20 663.00 487.00 661.40 485.40 C 660.60 484.60 659.80 483.80 658.80 483.00 C 657.80 482.20 657.20 480.80 657.40 479.60 L 660.80 482.60 C 661.40 483.00 662.20 483.20 662.80 482.80 C 663.80 482.00 665.40 482.20 666.20 483.20 C 666.40 483.40 666.40 483.60 666.60 483.80 C 667.00 484.60 667.60 485.40 668.40 485.80 C 670.00 486.60 671.40 488.00 672.40 489.40 C 674.20 494.00 676.40 498.20 678.80 502.30 C 683.20 507.90 688.10 513.00 693.10 518.00 C 693.50 518.40 694.10 518.80 694.90 519.00 C 697.10 519.40 699.10 520.40 700.70 521.60 C 705.10 525.00 708.50 527.00 712.00 530.00 C 714.20 531.80 716.20 533.40 718.60 534.80 C 723.20 538.00 728.10 540.60 733.50 542.40 C 740.70 544.60 747.60 546.80 754.40 549.00 C 763.50 552.00 773.10 553.80 782.80 554.60 C 790.40 555.20 795.70 558.80 803.70 556.60 C 808.70 555.20 811.70 554.40 813.00 554.20 C 832.10 551.20 851.80 540.90 857.40 521.20 C 859.00 515.60 860.40 510.50 861.80 505.70 C 862.60 502.50 863.20 499.50 863.40 496.40 C 863.40 494.40 864.40 492.80 866.00 491.80 C 867.40 491.20 868.00 489.80 867.40 488.40 C 867.20 487.80 866.80 487.40 866.20 487.00 L 862.60 485.00 C 862.00 484.60 861.60 484.20 861.40 483.40 C 860.80 481.40 860.00 479.20 859.40 477.20 C 857.80 472.20 857.60 465.70 855.20 461.50 C 853.60 458.90 852.80 459.10 852.40 462.10 C 851.60 469.30 851.60 476.40 852.40 483.60 C 853.20 489.60 853.00 495.70 851.80 501.70 C 849.00 513.00 845.00 521.80 839.50 527.60 C 836.50 530.80 830.90 533.60 822.80 536.20 L 806.10 536.40 C 803.70 536.40 801.70 534.80 801.30 532.40 L 798.30 515.70 C 800.10 514.90 802.30 514.70 804.10 515.50 C 804.70 515.70 805.10 516.10 805.30 516.70 L 807.50 524.50 C 807.70 525.10 808.10 525.70 808.70 526.10 C 811.10 527.50 813.90 528.10 816.70 527.50 C 817.90 527.30 818.70 526.30 818.70 525.30 C 818.90 523.50 819.10 521.70 819.70 519.90 C 821.30 514.90 824.70 514.30 829.80 518.50 C 830.40 519.30 831.80 519.50 832.60 518.90 C 833.00 518.70 833.20 518.30 833.20 517.90 C 836.40 512.10 843.70 503.20 842.00 496.40 C 841.80 495.80 841.40 495.20 841.00 494.80 C 835.60 489.40 838.20 483.90 841.00 477.10 C 843.00 471.90 845.00 467.00 847.40 462.00 C 847.80 461.40 848.20 460.80 848.60 460.40 C 849.20 459.80 849.20 458.60 848.60 458.00 C 848.20 457.60 848.00 456.80 848.00 456.20 L 848.20 454.00 C 848.80 452.40 850.00 451.00 851.60 450.40 C 852.20 450.20 853.00 450.40 853.40 450.80 C 867.90 462.50 877.70 475.90 882.20 491.00 C 888.20 505.50 890.00 524.00 888.80 545.70 Z M 877.30 512.40 C 874.90 510.00 871.50 508.40 868.20 508.20 C 864.00 508.00 863.40 509.40 866.40 512.40 C 869.00 514.80 871.20 517.80 872.80 521.00 C 873.40 522.40 874.80 523.20 876.20 523.00 C 877.80 523.20 879.20 521.80 879.40 520.20 C 879.40 520.00 879.40 520.00 879.40 519.80 C 879.70 517.20 878.90 514.60 877.30 512.40 Z M 686.70 553.40 C 685.30 561.40 688.90 566.70 697.20 569.30 C 698.80 569.70 700.40 568.90 700.80 567.50 C 700.80 567.30 701.00 566.90 701.00 566.70 C 701.20 558.50 698.40 550.40 693.00 544.20 C 692.20 543.20 690.80 543.20 690.00 543.80 C 689.80 543.80 689.80 544.00 689.60 544.20 C 687.90 546.30 687.30 550.00 686.70 553.40 Z M 770.90 569.10 C 768.50 565.30 766.10 561.70 763.30 558.20 C 763.10 558.00 762.70 557.80 762.50 558.00 C 762.30 558.00 762.30 558.20 762.30 558.40 C 762.10 558.80 762.30 559.40 762.50 559.80 C 762.70 560.20 762.90 560.40 763.10 560.80 C 766.50 569.00 770.10 576.90 773.60 584.90 C 774.40 587.10 775.00 589.50 775.20 591.90 C 775.40 592.50 775.80 593.10 776.40 593.30 C 777.40 593.90 778.80 593.50 779.40 592.50 C 779.40 592.30 779.60 592.30 779.60 592.10 C 783.20 584.80 774.50 575.10 770.90 569.10 L 770.90 569.10 Z M 664.10 561.20 C 664.50 561.60 664.30 562.40 663.90 562.80 C 663.70 562.80 663.70 563.00 663.50 563.00 C 658.70 565.40 653.20 567.20 652.20 573.10 C 651.20 578.30 650.00 584.00 648.40 589.80 C 646.80 595.60 648.80 598.80 652.80 602.90 C 653.20 603.30 653.20 603.90 652.80 604.30 C 652.60 604.50 652.40 604.50 652.20 604.50 C 649.40 604.50 646.60 603.90 644.00 602.50 C 643.40 602.30 642.60 602.50 642.20 603.10 L 641.80 603.70 C 641.60 603.90 641.80 604.30 642.00 604.50 C 642.00 604.50 642.00 604.50 642.20 604.50 C 649.60 607.30 656.70 609.70 663.70 611.70 C 666.10 612.70 668.70 611.90 670.30 610.10 C 678.50 601.00 678.50 581.30 675.50 570.30 C 673.70 563.50 672.10 557.00 663.60 560.00 C 663.40 560.00 663.20 560.20 663.20 560.40 C 663.20 560.80 663.20 561.20 663.60 561.20 C 664.00 561.20 664.10 561.00 664.10 561.20 L 664.10 561.20 Z M 852.20 566.90 C 849.00 565.30 843.60 563.50 841.90 568.10 C 837.50 579.20 851.80 584.60 856.40 574.10 C 856.60 573.50 856.60 572.90 856.40 572.10 C 855.80 569.90 854.40 567.90 852.20 566.90 Z M 735.70 602.70 C 738.70 606.70 744.50 607.50 748.40 604.50 C 748.60 604.30 748.80 604.30 748.80 604.10 L 755.00 598.70 C 758.00 596.10 759.00 591.90 757.40 588.40 L 751.80 574.90 C 749.80 570.30 744.60 568.10 740.10 569.90 C 739.30 570.30 738.30 570.70 737.70 571.30 L 728.60 578.90 C 725.00 582.10 724.40 587.50 727.20 591.20 L 735.70 602.70 Z M 808.90 585.20 C 811.70 582.80 811.50 578.00 808.50 574.50 C 805.50 570.90 800.70 570.30 798.00 572.70 C 795.30 575.10 795.40 579.90 798.40 583.40 C 801.30 587.00 806.10 587.60 808.90 585.20 L 808.90 585.20 Z" fill="#cf4847" fill-rule="nonzero" node-id="152" stroke="none" target-height="233.09998" target-width="359.5" target-x="530.5" target-y="450.2"></path><path d="M 849.60 453.40 L 849.40 455.60 C 849.40 456.20 849.60 456.80 850.00 457.40 C 850.60 458.00 850.60 459.20 850.00 459.80 C 849.60 460.40 849.20 460.80 848.80 461.40 C 846.40 466.40 844.20 471.30 842.40 476.50 C 841.40 472.10 840.60 463.40 845.20 460.20 C 845.80 459.80 846.20 459.40 846.40 458.80 L 849.60 453.40 Z" fill="#feac9f" fill-rule="nonzero" node-id="154" stroke="none" target-height="23.100006" target-width="10" target-x="840.6" target-y="453.4"></path><path d="M 297.50 488.80 C 286.80 486.60 276.60 478.90 272.40 469.10 C 270.40 464.10 272.80 459.80 278.40 459.60 C 289.10 459.20 297.10 470.50 301.50 479.10 C 302.50 480.90 302.90 483.10 302.70 485.30 C 302.30 487.80 299.90 489.20 297.50 488.80 L 297.50 488.80 Z" fill="#cbda66" fill-rule="nonzero" node-id="156" stroke="none" target-height="30" target-width="32.5" target-x="270.4" target-y="459.2"></path><path d="M 387.82 464.03 L 389.37 464.29 L 389.86 464.58 L 390.00 464.87 L 389.85 465.15 L 389.35 465.42 L 387.79 465.63 L 386.24 465.37 L 385.74 465.07 L 385.60 464.79 L 385.75 464.51 L 386.26 464.23 L 387.82 464.03 Z" fill="#2c0707" fill-rule="nonzero" group-id="2" node-id="160" stroke="none" target-height="1.5997009" target-width="4.399109" target-x="385.60327" target-y="464.0296"></path><path d="M 470.30 471.50 C 471.30 477.90 468.50 488.20 460.80 488.80 C 456.20 489.20 451.50 485.60 448.10 482.40 C 447.70 482.00 447.70 481.40 448.10 481.00 L 448.10 481.00 C 453.90 476.00 460.60 472.20 468.00 470.10 C 469.00 469.90 470.00 470.30 470.20 471.30 C 470.30 471.30 470.30 471.50 470.30 471.50 Z" fill="#fed6c6" fill-rule="nonzero" node-id="163" stroke="none" target-height="19.300018" target-width="23.599976" target-x="447.7" target-y="469.9"></path><path d="M 618.30 478.00 C 610.70 478.80 604.80 482.60 599.60 489.10 C 599.40 489.50 598.80 489.50 598.40 489.30 C 593.00 486.30 589.10 486.90 584.70 491.50 C 578.10 498.50 569.60 503.40 564.60 510.00 C 560.80 515.20 556.80 520.50 552.70 526.10 C 551.10 528.30 550.50 528.10 551.10 525.30 C 553.90 512.60 568.20 503.60 577.40 495.90 C 580.40 493.10 583.40 490.10 586.20 486.90 C 593.00 479.30 607.90 470.20 618.60 474.40 C 623.70 476.20 623.50 477.40 618.30 478.00 Z" fill="#ffbca9" fill-rule="nonzero" node-id="165" stroke="none" target-height="58.099976" target-width="73.20001" target-x="550.5" target-y="470.2"></path><path d="M 625.50 480.60 L 623.70 480.40 C 622.90 480.20 622.70 480.60 623.10 481.40 C 626.10 487.40 627.90 493.70 628.70 500.30 C 629.70 510.80 629.90 521.60 629.30 532.10 C 628.90 538.70 626.70 545.00 622.90 550.40 C 622.70 550.60 622.70 550.60 622.50 550.40 C 622.50 550.20 622.30 550.00 622.30 549.80 C 622.30 549.20 621.90 548.80 621.50 548.60 C 620.10 547.80 618.90 546.80 617.90 545.40 C 616.30 541.00 614.10 538.20 611.70 537.00 C 605.70 534.20 601.60 532.80 597.80 527.70 C 593.80 521.90 591.20 515.20 590.40 508.00 C 590.20 505.60 591.80 503.40 594.00 503.00 C 598.60 502.20 602.60 499.00 605.70 493.50 C 608.10 488.90 611.30 484.70 614.80 481.20 C 616.20 480.00 618.00 479.00 619.80 478.40 C 621.70 477.60 623.50 478.40 625.50 480.60 Z" fill="#63344a" fill-rule="nonzero" node-id="167" stroke="none" target-height="72.99997" target-width="39.700012" target-x="590.2" target-y="477.6"></path><path d="M 625.50 480.60 C 628.10 487.00 630.10 493.70 630.90 500.50 C 632.10 511.60 632.70 522.80 632.50 533.90 C 632.30 536.50 631.90 539.30 631.30 541.90 C 630.90 544.70 629.50 547.10 627.30 548.90 C 624.70 551.70 621.90 554.30 618.90 556.50 C 606.00 565.50 592.00 573.00 577.50 579.00 C 573.50 580.60 568.90 581.20 564.60 582.60 L 558.60 569.50 C 554.20 560.90 554.60 555.40 559.60 552.80 C 565.20 549.80 573.50 544.20 579.70 544.00 C 589.00 543.80 598.40 544.80 607.50 547.00 C 612.50 548.20 615.90 547.80 617.20 545.60 C 618.20 546.80 619.40 548.00 620.80 548.80 C 621.20 549.00 621.60 549.60 621.60 550.00 C 621.60 550.20 621.60 550.40 621.80 550.60 C 621.80 550.80 622.00 550.80 622.20 550.60 C 626.00 545.20 628.20 538.90 628.60 532.30 C 629.20 521.80 629.00 511.00 628.00 500.50 C 627.20 493.90 625.40 487.60 622.40 481.60 C 622.00 480.80 622.20 480.60 623.00 480.60 L 625.50 480.60 Z" fill="#c33935" fill-rule="nonzero" node-id="169" stroke="none" target-height="101.99997" target-width="78.5" target-x="554.2" target-y="480.6"></path><path d="M 797.30 508.50 C 798.70 510.70 799.50 513.10 799.90 515.70 L 802.90 532.40 C 803.30 534.80 805.30 536.40 807.70 536.40 L 824.40 536.20 C 817.00 537.40 809.70 537.80 802.10 537.80 C 799.90 537.80 796.70 537.60 793.00 537.00 C 790.00 536.60 787.00 536.00 784.00 535.00 C 774.70 532.20 765.70 529.40 756.80 526.80 C 762.00 522.80 764.80 516.70 764.80 510.10 C 764.80 503.30 759.00 494.00 750.90 497.20 C 745.10 499.20 741.20 504.40 740.60 510.50 C 740.20 509.10 739.80 507.90 739.60 506.50 C 739.40 505.10 738.80 503.90 738.20 502.70 C 736.80 500.10 736.60 496.90 735.60 494.50 C 734.60 492.10 733.40 490.10 732.00 487.70 C 736.20 484.70 741.00 482.90 746.10 482.70 C 750.70 482.50 754.50 484.90 758.40 486.90 C 759.20 487.30 760.20 487.30 760.80 486.70 L 767.00 482.50 C 768.00 481.90 769.00 481.90 770.00 482.30 C 773.60 484.30 777.00 486.70 779.90 489.30 C 781.50 490.70 784.30 495.10 788.50 502.20 C 788.90 502.80 789.30 503.20 789.90 503.60 C 792.70 504.80 794.90 507.00 796.30 509.60 C 796.70 510.60 797.10 510.60 797.30 509.40 L 797.30 508.50 Z M 784.80 532.50 C 786.60 533.50 789.00 533.10 790.60 531.70 C 793.40 529.50 795.00 526.30 795.00 522.70 C 795.00 519.50 794.60 515.70 791.60 514.30 C 784.60 511.10 779.50 512.90 775.90 519.30 C 772.70 524.90 778.50 531.00 783.70 532.00 C 784.00 532.30 784.40 532.30 784.80 532.50 Z" fill="#734461" fill-rule="nonzero" node-id="171" stroke="none" target-height="55.899994" target-width="92.400024" target-x="732" target-y="481.9"></path><path d="M 718.40 489.40 C 718.60 489.00 718.80 488.80 719.20 488.60 C 722.20 487.60 725.40 487.80 728.30 489.20 C 728.90 489.40 729.30 490.00 729.70 490.60 C 732.90 497.20 735.50 503.90 737.10 510.90 C 737.50 513.10 736.30 515.10 734.10 515.70 C 733.90 515.70 733.70 515.70 733.50 515.70 C 730.10 515.90 726.50 514.70 724.20 512.30 C 719.20 507.70 713.70 503.70 707.70 500.40 C 706.50 500.00 705.90 498.60 706.30 497.40 C 706.30 497.20 706.50 497.00 706.50 497.00 C 706.90 496.20 707.50 495.60 708.10 495.20 C 710.70 493.40 713.50 491.80 716.10 490.00 C 716.50 489.80 716.90 489.60 717.30 489.60 L 718.10 489.60 C 718.00 489.80 718.20 489.60 718.40 489.40 Z" fill="#6c3d4f" fill-rule="nonzero" node-id="173" stroke="none" target-height="28.300018" target-width="31.599976" target-x="705.9" target-y="487.6"></path><path d="M 355.60 492.00 C 365.90 503.10 380.90 505.30 394.60 499.60 C 395.40 499.40 395.80 499.60 396.00 500.20 C 396.20 500.80 396.00 501.40 395.80 502.00 C 388.00 509.00 380.50 517.70 370.50 514.30 C 361.70 511.30 357.00 500.40 353.40 491.80 C 353.00 490.80 353.20 490.60 353.80 491.40 C 354.40 492.20 355.00 492.40 355.60 492.00 Z" fill="#7a2433" fill-rule="nonzero" node-id="175" stroke="none" target-height="27.100006" target-width="43.200012" target-x="353" target-y="490.6"></path><path d="M 757.20 526.80 C 748.40 523.20 742.90 517.70 740.90 510.50 C 741.50 504.30 745.70 499.20 751.20 497.20 C 759.20 494.00 765.10 503.40 765.10 510.10 C 765.10 516.60 762.10 522.80 757.20 526.80 Z" fill="#ce6e83" fill-rule="nonzero" node-id="177" stroke="none" target-height="32.799988" target-width="24.199951" target-x="740.9" target-y="494"></path><path d="M 877.30 512.40 C 878.90 514.60 879.70 517.40 879.30 520.00 C 879.30 521.60 878.10 523.00 876.50 523.00 C 876.30 523.00 876.30 523.00 876.10 523.00 C 874.70 523.20 873.30 522.40 872.70 521.00 C 871.10 517.80 868.90 514.80 866.30 512.40 C 863.10 509.40 863.70 508.00 868.10 508.20 C 871.50 508.50 874.90 510.10 877.30 512.40 Z" fill="#b14f59" fill-rule="nonzero" node-id="179" stroke="none" target-height="15.200012" target-width="16.600037" target-x="863.1" target-y="508"></path><path d="M 657.90 509.70 C 658.70 509.70 659.50 509.90 660.10 510.30 C 666.30 515.50 671.40 522.00 674.80 529.40 C 679.00 537.80 679.20 545.10 675.60 551.70 C 670.40 552.30 666.10 553.10 661.70 549.90 C 657.90 547.30 654.70 543.70 652.70 539.60 C 650.30 534.80 649.70 529.50 651.10 524.30 C 652.30 518.80 654.50 513.80 657.90 509.70 Z" fill="#e37a7b" fill-rule="nonzero" node-id="181" stroke="none" target-height="43.399963" target-width="29.5" target-x="649.7" target-y="509.7"></path><path d="M 783.60 532.10 C 778.40 531.10 772.70 525.10 775.80 519.40 C 779.40 513.00 784.60 511.20 791.50 514.40 C 794.50 515.80 794.90 519.60 794.90 522.80 C 794.90 526.40 793.30 529.60 790.50 531.80 C 788.90 533.20 786.70 533.60 784.70 532.60 C 784.40 532.30 784.00 532.30 783.60 532.10 Z" fill="#ce6e83" fill-rule="nonzero" node-id="183" stroke="none" target-height="22.399963" target-width="22.200012" target-x="772.7" target-y="511.2"></path><path d="M 559.10 569.30 L 565.10 582.40 C 571.90 591.50 565.10 608.30 560.70 617.20 C 553.70 630.90 546.60 644.20 539.20 657.60 L 535.20 655.40 C 534.60 655.20 534.20 654.80 533.80 654.20 C 533.00 653.20 531.80 652.80 530.40 653.00 C 527.60 648.80 524.00 645.60 519.70 643.30 C 513.70 640.30 510.00 642.10 508.40 648.30 C 507.00 647.90 505.60 648.50 504.80 649.70 C 504.60 650.10 504.20 650.50 503.80 650.70 C 503.40 650.90 502.80 651.10 502.20 650.90 C 501.80 650.70 501.20 650.90 501.20 651.50 L 501.20 651.50 C 500.80 652.70 499.80 653.10 498.20 652.70 C 490.20 645.10 477.30 644.30 477.90 659.10 C 474.10 659.50 470.30 660.10 466.80 661.30 C 464.40 662.10 461.80 662.50 459.20 662.10 C 456.60 661.90 454.00 660.90 451.80 659.30 C 450.60 646.60 447.00 634.20 441.10 623.10 C 441.90 621.90 441.70 620.30 440.70 619.30 C 440.30 618.90 439.90 618.30 439.70 617.70 C 439.30 614.90 439.70 613.10 438.50 610.30 C 434.50 602.30 427.80 596.00 418.20 591.00 C 414.80 589.60 412.40 586.60 412.00 583.00 C 411.80 581.80 411.60 580.40 411.40 579.20 C 411.00 577.40 410.60 575.60 410.40 573.80 C 409.80 568.40 407.80 563.50 404.60 559.10 C 404.40 558.90 404.40 558.50 404.60 558.10 L 404.80 557.50 C 405.20 556.50 406.00 555.70 407.00 555.50 C 416.10 553.70 428.10 551.50 443.00 548.90 C 469.50 544.50 494.50 538.40 520.80 535.00 C 528.00 534.20 535.10 534.20 542.30 535.40 C 543.30 535.60 543.70 536.20 543.30 537.20 L 542.30 540.40 C 541.70 542.40 542.30 543.00 544.30 542.40 C 545.50 542.00 546.70 542.20 547.90 542.60 C 548.70 543.00 549.10 543.80 549.30 544.60 C 549.70 547.40 549.90 550.20 550.30 552.80 C 550.70 555.40 553.10 562.00 559.10 569.30 Z M 492.60 572.90 C 489.80 578.10 492.00 591.40 501.40 584.20 C 505.80 580.60 513.50 572.70 505.00 568.30 C 499.80 565.70 495.60 567.30 492.60 572.90 Z M 450.10 591.00 C 453.90 591.00 457.10 586.40 456.90 581.10 C 456.70 575.80 453.70 571.20 449.70 571.40 C 445.70 571.60 442.70 576.00 442.90 581.30 C 443.10 586.60 446.30 591.00 450.10 591.00 Z M 516.10 593.40 C 519.10 595.80 524.30 594.00 527.60 589.60 C 530.90 585.20 531.20 579.90 528.20 577.50 C 525.20 575.10 520.00 576.90 516.70 581.30 C 513.30 585.60 513.10 591.00 516.10 593.40 L 516.10 593.40 Z M 503.60 597.00 C 499.00 583.70 483.30 595.80 477.70 601.00 C 469.90 608.40 474.50 619.90 480.30 627.30 C 480.70 627.90 481.30 628.10 481.90 627.70 C 488.50 625.70 495.60 617.00 500.40 611.80 C 504.60 607.90 505.70 602.10 503.60 597.00 L 503.60 597.00 Z M 468.60 621.80 C 471.20 611.70 472.60 598.10 461.80 593.20 C 459.80 592.20 457.20 592.40 455.40 593.80 C 446.60 599.20 436.30 613.10 447.40 622.00 C 452.20 625.80 458.50 627.20 464.50 625.60 C 466.60 625.20 468.20 623.80 468.60 621.80 L 468.60 621.80 Z M 449.90 638.70 C 450.30 640.10 451.70 640.90 453.10 640.30 C 453.30 640.30 453.70 640.10 453.90 639.90 C 460.90 636.30 458.50 628.20 450.70 628.40 C 449.90 628.40 449.30 628.80 449.10 629.60 C 448.10 632.80 448.50 636.20 449.90 638.70 L 449.90 638.70 Z" fill="#ffa490" fill-rule="nonzero" node-id="185" stroke="none" target-height="128.29999" target-width="167.50003" target-x="404.4" target-y="534.2"></path><path d="M 402.90 558.60 L 404.50 558.40 L 404.30 559.00 C 404.10 559.20 404.10 559.60 404.30 560.00 C 407.50 564.40 409.30 569.30 410.10 574.70 C 410.30 576.50 410.70 578.30 411.10 580.10 C 411.30 581.30 411.70 582.50 411.70 583.90 C 412.10 587.50 414.50 590.50 417.90 591.90 C 427.60 596.90 434.40 603.20 438.40 611.20 C 439.80 614.00 439.20 615.80 439.60 618.60 C 439.60 619.20 440.00 619.80 440.60 620.20 C 441.60 621.20 441.80 622.80 441.00 624.00 C 437.20 615.40 431.30 607.90 423.70 602.30 C 422.10 601.10 420.10 600.10 418.30 599.30 C 416.30 598.50 414.30 597.90 412.30 597.70 C 408.90 597.30 405.30 598.70 401.40 602.50 C 399.80 603.90 398.60 605.30 397.40 606.90 C 396.40 608.30 394.20 608.70 392.80 607.70 L 392.60 607.50 C 389.40 604.70 386.80 601.30 385.00 597.60 C 382.00 591.00 379.00 584.70 375.90 578.30 C 372.10 570.70 367.30 563.80 361.80 557.40 C 357.00 551.60 350.90 547.30 343.70 544.70 C 343.30 544.50 342.90 544.70 342.70 545.10 C 342.70 545.30 342.70 545.30 342.70 545.50 C 342.70 545.70 342.70 546.10 342.50 546.30 L 333.90 543.70 C 333.50 543.70 333.10 543.30 333.30 542.70 L 333.30 541.50 C 333.30 541.30 333.50 541.10 333.70 541.10 L 333.70 541.10 C 336.30 541.10 339.10 540.90 341.70 540.50 C 347.70 539.10 353.80 538.30 359.80 537.70 C 365.80 537.30 370.90 539.70 376.90 541.10 C 379.10 541.50 381.30 542.30 383.50 543.30 C 391.30 547.50 397.60 553.60 402.20 561.00 C 402.40 561.40 402.80 561.60 403.20 561.60 L 404.20 561.60 C 404.60 561.60 404.80 561.40 404.40 561.20 C 403.10 560.40 402.70 559.40 402.90 558.60 Z" fill="#7ecdbb" fill-rule="nonzero" node-id="187" stroke="none" target-height="86.70001" target-width="108.69998" target-x="333.1" target-y="537.3"></path><path d="M 686.70 553.40 C 687.30 550.00 687.90 546.20 689.70 544.10 C 690.50 543.10 691.90 543.10 692.70 543.70 C 692.90 543.70 692.90 543.90 693.10 544.10 C 698.50 550.50 701.30 558.40 701.10 566.60 C 701.10 568.20 699.70 569.40 698.10 569.40 C 697.90 569.40 697.50 569.40 697.30 569.20 C 688.90 566.70 685.50 561.40 686.70 553.40 Z" fill="#e37a7b" fill-rule="nonzero" node-id="189" stroke="none" target-height="26.300049" target-width="15.799988" target-x="685.5" target-y="543.1"></path><path d="M 440.70 623.20 C 446.70 634.50 450.20 646.90 451.40 659.40 C 451.40 669.10 450.40 679.10 448.20 688.60 C 449.00 688.80 448.60 689.00 447.40 689.20 L 447.00 682.60 C 447.00 682.00 446.60 681.40 446.20 681.00 L 432.60 671.00 C 424.80 665.80 418.10 659.30 412.70 651.70 C 408.70 645.50 405.50 639.00 402.80 632.20 C 399.60 624.80 396.60 618.30 393.50 612.30 C 391.50 608.70 388.50 605.70 384.90 603.50 L 380.70 594.90 C 373.90 576.60 361.20 552.30 342.30 545.20 C 342.50 545.00 342.50 544.60 342.50 544.40 C 342.50 544.00 342.70 543.60 343.10 543.60 C 343.30 543.60 343.30 543.60 343.50 543.60 C 350.50 546.20 356.80 550.60 361.60 556.30 C 367.20 562.70 371.70 569.80 375.70 577.20 C 378.90 583.60 382.10 589.90 384.80 596.50 C 386.60 600.30 389.20 603.70 392.40 606.40 C 393.80 607.60 395.80 607.40 397.20 606.00 L 397.40 605.80 C 398.60 604.20 400.00 602.60 401.40 601.40 C 405.40 597.60 409.20 596.00 412.30 596.60 C 414.30 597.00 416.30 597.40 418.30 598.20 C 420.30 599.00 422.10 600.00 423.70 601.20 C 431.00 607.10 436.90 614.70 440.70 623.20 Z" fill="#478dbe" fill-rule="nonzero" node-id="191" stroke="none" target-height="145.60004" target-width="109.100006" target-x="342.3" target-y="543.6"></path><path d="M 888.80 545.70 C 886.40 564.40 884.00 578.70 882.00 588.50 C 880.60 594.50 875.80 603.00 873.80 607.00 C 867.80 618.90 859.10 629.50 848.30 637.20 C 845.10 639.40 842.30 642.00 839.50 644.60 L 831.50 653.00 C 823.90 661.00 808.60 668.70 797.30 672.70 C 791.50 674.70 786.00 677.10 780.60 679.70 C 771.50 683.90 761.90 687.10 752.20 689.40 C 744.60 691.20 736.70 692.40 728.90 692.80 C 721.10 693.60 713.20 693.80 705.20 693.60 C 702.20 693.40 699.20 693.40 696.20 693.80 C 693.40 694.20 690.60 694.20 687.80 694.00 C 684.40 693.80 681.00 694.80 678.70 697.00 C 677.30 698.00 674.30 699.00 669.40 699.80 C 655.30 701.80 641.20 702.80 627.00 702.60 C 628.00 702.40 628.40 701.80 628.60 701.00 C 628.60 700.40 628.20 699.80 627.80 699.80 C 626.20 699.40 626.00 698.40 626.80 697.00 C 634.60 685.70 640.90 673.50 645.70 660.60 C 646.10 659.40 646.50 658.00 646.50 656.60 C 646.50 655.20 646.90 653.80 647.30 652.40 C 647.50 651.80 647.30 651.60 646.90 652.00 L 645.90 652.80 L 648.50 644.20 C 648.70 643.20 648.90 643.20 649.10 644.20 L 649.50 649.20 C 649.50 650.40 650.30 651.20 651.50 651.40 C 654.30 652.20 657.30 652.60 660.10 653.00 C 674.40 653.00 688.70 652.80 703.50 652.40 C 706.30 652.40 708.70 650.20 709.10 647.20 L 712.90 618.40 C 712.90 618.20 713.10 618.00 713.30 618.00 L 713.30 618.00 L 713.70 618.00 C 713.70 618.00 713.90 618.00 713.90 618.20 C 713.50 626.00 713.30 633.50 713.10 641.30 C 712.90 643.70 712.30 646.10 711.70 648.30 C 711.50 648.90 711.90 649.70 712.70 649.70 L 712.90 649.70 C 719.70 650.30 726.40 650.10 733.20 649.10 C 741.60 647.90 747.50 647.10 751.30 646.70 C 763.80 645.50 776.00 640.70 787.50 638.50 C 789.30 638.10 791.10 637.10 792.50 635.70 C 792.90 635.30 793.50 635.30 793.90 635.70 L 793.90 635.70 L 794.30 636.10 C 794.50 636.30 794.90 636.30 795.10 636.30 C 804.10 633.70 813.00 631.10 822.00 628.30 C 829.60 625.90 835.70 621.90 842.90 618.40 C 843.50 618.20 843.90 617.60 844.30 617.00 L 844.70 616.20 C 844.90 615.80 845.30 615.40 845.90 615.20 C 848.70 614.80 850.50 615.00 852.90 613.00 C 857.30 609.40 861.70 605.80 866.20 602.70 C 866.60 602.50 867.00 602.30 867.40 602.10 L 868.00 601.90 C 868.40 601.70 868.80 601.50 869.00 601.10 C 870.20 599.50 871.60 598.30 873.40 597.30 C 874.00 596.90 874.40 596.50 874.40 595.90 C 874.60 594.70 875.20 593.50 876.20 592.70 C 879.20 590.30 880.80 584.70 881.00 581.20 C 881.20 578.60 880.60 576.00 879.00 574.00 C 875.20 568.80 871.60 563.90 868.50 558.90 C 868.30 558.70 868.30 558.50 868.50 558.50 L 868.90 558.10 C 869.30 557.70 869.90 557.70 870.30 558.10 L 870.30 558.10 C 872.10 560.10 874.10 561.90 876.10 563.50 C 879.30 565.90 879.70 568.10 880.30 571.50 C 880.30 572.30 880.90 572.90 881.70 572.70 C 882.30 572.70 882.70 572.30 882.90 571.70 C 884.10 565.30 885.30 559.20 886.70 552.80 C 886.00 550.80 887.20 548.20 888.80 545.70 Z" fill="#a7343f" fill-rule="nonzero" node-id="193" stroke="none" target-height="157.09998" target-width="262.8" target-x="626" target-y="545.7"></path><path d="M 770.90 569.10 C 774.50 575.10 783.20 584.80 779.90 592.20 C 779.50 593.40 778.30 594.00 777.10 593.60 C 776.90 593.60 776.90 593.40 776.70 593.40 C 776.10 593.20 775.70 592.60 775.50 592.00 C 775.30 589.60 774.70 587.20 773.90 585.00 C 770.10 577.00 766.70 568.90 763.20 560.70 C 763.00 560.30 762.80 559.90 762.60 559.70 C 762.20 559.30 762.20 558.90 762.40 558.30 C 762.40 557.90 762.80 557.70 763.20 557.90 C 763.40 557.90 763.40 558.10 763.60 558.10 C 766.10 561.60 768.50 565.30 770.90 569.10 Z" fill="#a7343f" fill-rule="nonzero" node-id="195" stroke="none" target-height="36.299988" target-width="21" target-x="762.2" target-y="557.7"></path><path d="M 663.70 561.00 C 663.30 561.00 663.30 560.60 663.30 560.20 C 663.30 560.00 663.50 559.80 663.70 559.80 C 672.30 556.80 673.80 563.40 675.60 570.10 C 678.60 581.00 678.60 600.70 670.40 609.90 C 668.80 611.70 666.00 612.30 663.80 611.50 C 656.80 609.50 649.70 607.10 642.30 604.30 C 642.10 604.10 641.90 603.90 641.90 603.70 C 641.90 603.70 641.90 603.70 641.90 603.50 L 642.30 602.90 C 642.70 602.30 643.50 602.10 644.10 602.30 C 646.70 603.70 649.50 604.30 652.30 604.30 C 652.90 604.30 653.30 603.70 653.10 603.10 C 653.10 602.90 652.90 602.70 652.90 602.50 C 648.90 598.50 647.10 595.10 648.50 589.40 C 649.90 583.60 651.30 577.90 652.30 572.70 C 653.30 566.90 659.10 564.90 663.60 562.60 C 664.20 562.40 664.60 561.80 664.40 561.20 C 664.40 561.00 664.20 561.00 664.20 560.80 C 664.10 561.00 663.90 561.00 663.70 561.00 Z" fill="#6c3d4f" fill-rule="nonzero" node-id="197" stroke="none" target-height="55.5" target-width="36.69995" target-x="641.9" target-y="556.8"></path><path d="M 852.20 566.90 C 854.20 567.90 855.80 569.90 856.40 572.10 C 856.60 572.70 856.60 573.30 856.40 574.10 C 851.80 584.60 837.50 579.30 841.90 568.10 C 843.70 563.60 849.00 565.30 852.20 566.90 Z" fill="#7d434d" fill-rule="nonzero" node-id="199" stroke="none" target-height="21" target-width="19.099976" target-x="837.5" target-y="563.6"></path><path d="M 492.60 572.90 C 495.60 567.30 499.80 565.70 504.90 568.30 C 513.50 572.50 505.70 580.60 501.30 584.20 C 492.00 591.40 489.80 578.10 492.60 572.90 Z" fill="#fb381a" fill-rule="nonzero" node-id="201" stroke="none" target-height="25.700012" target-width="23.700012" target-x="489.8" target-y="565.7"></path><path d="M 735.70 602.70 L 727.30 591.60 C 724.30 587.80 724.90 582.50 728.70 579.30 L 737.70 571.50 C 741.50 568.30 747.20 568.70 750.40 572.50 C 751.00 573.30 751.60 574.10 751.80 574.90 L 757.40 588.40 C 758.80 592.00 757.80 596.20 755.00 598.70 L 748.80 604.10 C 745.00 607.30 739.30 606.90 736.10 603.10 C 735.90 603.10 735.90 602.90 735.70 602.70 Z" fill="#63344a" fill-rule="nonzero" node-id="203" stroke="none" target-height="39" target-width="34.5" target-x="724.3" target-y="568.3"></path><path d="M 342.70 570.70 L 343.50 570.30 C 346.70 568.50 350.70 569.50 352.50 572.70 L 357.30 581.10 C 359.10 584.30 358.10 588.30 354.90 590.10 L 354.10 590.50 C 350.90 592.30 346.90 591.30 345.10 588.10 L 340.30 579.70 C 338.50 576.50 339.70 572.50 342.70 570.70 Z" fill="#0b224a" fill-rule="nonzero" node-id="205" stroke="none" target-height="23.799988" target-width="20.600006" target-x="338.5" target-y="568.5"></path><path d="M 457.11 581.00 L 456.89 583.68 L 456.23 586.01 L 455.14 588.07 L 453.78 589.61 L 452.68 590.37 L 451.52 590.83 L 450.27 591.01 L 449.01 590.87 L 447.83 590.44 L 446.71 589.72 L 445.30 588.23 L 444.15 586.20 L 443.41 583.89 L 443.11 581.22 L 443.33 578.55 L 443.99 576.21 L 445.08 574.15 L 446.44 572.62 L 447.54 571.86 L 448.70 571.40 L 449.96 571.21 L 451.21 571.36 L 452.39 571.78 L 453.51 572.51 L 454.92 574.00 L 456.08 576.02 L 456.81 578.33 L 457.11 581.00 Z" fill="#fe6037" fill-rule="nonzero" group-id="3" node-id="209" stroke="none" target-height="19.798035" target-width="13.998596" target-x="443.1116" target-y="571.2141"></path><path d="M 808.52 574.35 L 809.83 576.22 L 810.62 578.15 L 810.94 580.15 L 810.77 582.02 L 810.10 583.73 L 808.94 585.15 L 807.38 586.11 L 805.60 586.55 L 803.73 586.47 L 801.78 585.89 L 799.97 584.85 L 798.29 583.31 L 796.99 581.44 L 796.20 579.51 L 795.88 577.50 L 796.05 575.63 L 796.71 573.92 L 797.87 572.51 L 799.43 571.54 L 801.21 571.11 L 803.09 571.19 L 805.03 571.77 L 806.85 572.81 L 808.52 574.35 Z" fill="#7d434d" fill-rule="nonzero" group-id="4" node-id="214" stroke="none" target-height="15.435974" target-width="15.062378" target-x="795.8756" target-y="571.1101"></path><path d="M 528.18 577.67 L 529.08 578.57 L 529.74 579.63 L 530.16 580.89 L 530.35 582.94 L 529.99 585.24 L 529.13 587.51 L 527.71 589.79 L 525.88 591.75 L 523.91 593.17 L 521.78 594.11 L 519.76 594.46 L 518.42 594.38 L 517.23 594.02 L 516.13 593.38 L 515.23 592.49 L 514.58 591.42 L 514.15 590.16 L 513.97 588.11 L 514.32 585.81 L 515.18 583.54 L 516.60 581.26 L 518.44 579.30 L 520.40 577.88 L 522.53 576.95 L 524.56 576.59 L 525.89 576.68 L 527.09 577.04 L 528.18 577.67 Z" fill="#fb381a" fill-rule="nonzero" group-id="5" node-id="219" stroke="none" target-height="17.86621" target-width="16.381104" target-x="513.96606" target-y="576.59326"></path><path d="M 275.20 599.20 C 273.40 599.80 271.40 600.40 269.40 600.60 C 267.40 600.80 266.20 599.80 266.20 597.60 C 264.80 588.30 268.00 581.50 275.50 576.90 C 276.10 576.50 276.70 576.50 277.30 576.70 C 286.00 579.30 278.60 594.80 275.20 599.20 Z" fill="#0b224a" fill-rule="nonzero" node-id="222" stroke="none" target-height="24.299988" target-width="21.200012" target-x="264.8" target-y="576.5"></path><path d="M 342.90 604.30 C 342.10 603.90 341.50 603.30 341.10 602.50 C 340.90 601.90 341.10 601.30 341.50 600.90 L 345.90 595.90 C 346.30 595.30 346.90 595.10 347.50 594.90 C 349.90 594.30 352.30 593.50 354.30 591.90 C 356.70 590.50 359.50 590.50 361.90 591.70 C 370.10 595.50 367.50 603.00 361.90 607.40 C 356.30 611.80 350.40 611.20 344.60 605.40 C 344.00 605.10 343.40 604.70 342.90 604.30 Z" fill="#c4d2ac" fill-rule="nonzero" node-id="224" stroke="none" target-height="21.299988" target-width="29.200012" target-x="340.9" target-y="590.5"></path><path d="M 477.70 600.90 C 483.30 595.50 499.00 583.60 503.60 596.90 C 505.60 602.10 504.40 608.00 500.40 611.80 C 495.40 617.00 488.50 625.70 481.90 627.70 C 481.30 627.90 480.70 627.70 480.30 627.30 C 474.50 619.80 469.90 608.50 477.70 600.90 Z" fill="#fb381a" fill-rule="nonzero" node-id="226" stroke="none" target-height="44.30005" target-width="35.700012" target-x="469.9" target-y="583.6"></path><path d="M 462.00 593.20 C 472.50 598.20 471.30 611.70 468.80 621.80 C 468.40 623.80 466.80 625.20 464.80 625.60 C 458.80 627.20 452.50 626.00 447.70 622.00 C 436.60 613.00 446.90 599.10 455.70 593.80 C 457.60 592.40 460.00 592.20 462.00 593.20 Z" fill="#fb381a" fill-rule="nonzero" node-id="228" stroke="none" target-height="35" target-width="35.899994" target-x="436.6" target-y="592.2"></path><path d="M 380.40 595.00 L 384.60 603.60 C 382.20 618.10 376.60 632.00 368.10 644.00 C 367.70 644.60 367.90 645.40 368.50 645.80 C 368.70 646.00 368.90 646.00 369.30 646.00 C 370.90 646.00 372.10 647.00 372.70 648.40 C 376.70 656.00 381.30 663.30 386.40 670.10 C 383.40 669.90 381.40 669.10 380.60 667.70 C 379.60 666.10 377.80 665.50 376.00 666.30 C 374.60 666.90 372.80 666.70 371.60 665.50 C 371.00 665.10 370.40 664.90 369.80 664.70 C 367.00 664.50 364.40 664.10 361.80 663.30 C 352.10 659.70 341.90 657.90 331.60 658.30 C 325.20 658.50 320.10 658.10 314.30 657.70 L 306.50 656.70 C 303.90 656.30 301.10 656.50 298.50 657.10 C 295.10 655.90 291.70 654.30 289.00 652.10 C 285.60 648.70 281.60 645.90 277.10 643.90 L 268.10 632.20 C 266.50 630.20 267.10 629.40 269.50 630.00 C 277.50 631.40 285.40 631.60 293.40 630.80 C 313.70 629.20 333.80 626.20 353.50 622.00 C 368.70 618.90 377.70 609.70 380.40 595.00 Z" fill="#a5c9e0" fill-rule="nonzero" node-id="230" stroke="none" target-height="75.099976" target-width="119.899994" target-x="266.5" target-y="595"></path><path d="M 266.10 597.60 C 266.10 599.80 267.30 600.80 269.30 600.60 C 271.30 600.40 273.30 600.00 275.10 599.20 C 277.30 599.80 279.90 599.80 282.10 598.80 C 283.70 598.20 285.50 599.20 286.10 600.80 C 286.10 601.00 286.30 601.20 286.30 601.40 C 287.50 612.50 280.30 620.70 268.80 619.50 C 256.70 618.30 262.90 603.10 266.10 597.60 Z" fill="#c4d2ac" fill-rule="nonzero" node-id="232" stroke="none" target-height="23.100037" target-width="30.799988" target-x="256.7" target-y="597.6"></path><path d="M 384.40 603.50 C 388.00 605.70 390.80 608.70 392.80 612.30 C 396.00 618.30 399.20 624.80 402.10 632.20 C 404.70 639.00 408.10 645.50 412.00 651.70 C 417.40 659.30 424.10 665.80 431.90 671.00 C 429.30 671.60 426.70 671.60 424.10 670.80 C 423.50 670.60 422.90 670.80 422.30 671.00 C 417.90 673.40 413.50 675.80 409.40 678.20 C 408.00 679.00 406.40 679.40 404.80 679.60 C 403.20 679.80 401.60 679.80 400.00 679.80 C 397.60 679.80 395.20 679.00 393.40 677.60 C 390.60 675.40 388.00 672.80 386.00 669.80 C 380.60 663.00 376.10 655.70 372.30 648.10 C 371.70 646.70 370.50 645.70 368.90 645.70 C 368.10 645.70 367.70 645.10 367.50 644.50 C 367.50 644.30 367.50 643.90 367.70 643.70 C 376.50 632.00 382.00 618.10 384.40 603.50 Z" fill="#ede4f0" fill-rule="nonzero" node-id="234" stroke="none" target-height="76.29999" target-width="64.399994" target-x="367.5" target-y="603.5"></path><path d="M 449.90 638.70 C 448.30 635.90 447.90 632.50 448.90 629.60 C 449.10 628.80 449.70 628.40 450.50 628.40 C 458.30 628.20 460.80 636.40 453.70 639.90 C 452.50 640.70 450.90 640.50 450.10 639.30 C 450.10 639.30 450.10 639.10 449.90 638.70 Z" fill="#c33935" fill-rule="nonzero" node-id="236" stroke="none" target-height="12.5" target-width="12.899994" target-x="447.9" target-y="628.2"></path><path d="M 530.00 653.10 C 531.60 661.70 524.40 670.80 515.90 671.80 C 512.10 672.20 508.70 669.80 506.40 667.20 C 501.20 661.60 501.60 655.50 508.00 648.50 C 509.60 642.30 513.40 640.50 519.30 643.50 C 523.60 645.70 527.40 648.90 530.00 653.10 Z" fill="#677099" fill-rule="nonzero" node-id="238" stroke="none" target-height="31.700012" target-width="30.399963" target-x="501.2" target-y="640.5"></path><path d="M 298.90 657.00 L 295.70 663.60 C 295.50 664.20 295.30 664.80 295.50 665.40 C 297.90 674.70 302.10 683.70 308.20 691.30 C 313.60 698.10 323.30 698.90 331.10 700.30 C 334.70 700.90 338.50 700.70 341.80 699.70 L 348.80 697.70 C 356.00 696.30 363.10 694.90 370.30 693.70 C 370.90 693.70 371.30 693.10 371.50 692.70 C 371.50 692.10 371.90 691.70 372.10 691.30 C 372.50 690.90 372.90 690.90 373.30 691.30 C 373.50 691.50 373.50 691.50 373.50 691.70 L 374.30 697.50 C 374.50 698.30 375.10 698.70 375.90 698.70 C 384.50 698.90 393.80 700.30 401.60 700.50 C 413.50 700.70 425.50 700.70 437.20 700.30 C 437.80 700.30 438.40 700.10 439.20 699.90 L 447.00 696.50 C 447.60 701.90 446.00 707.20 442.20 711.40 C 442.00 711.80 442.00 712.20 442.20 712.40 C 442.40 712.60 442.60 712.60 442.80 712.60 C 443.20 712.60 443.60 712.80 443.80 713.00 L 443.80 713.80 C 443.80 714.20 444.00 714.80 444.60 714.80 L 444.60 714.80 C 445.00 714.80 445.40 715.20 445.60 715.40 C 444.00 716.20 442.00 716.60 440.20 716.60 C 439.60 716.60 438.80 716.60 438.20 716.80 C 433.60 718.60 428.90 719.60 423.90 719.80 C 423.70 719.80 423.70 719.80 423.70 720.00 L 423.70 720.60 C 423.70 721.00 423.90 721.20 424.30 721.20 L 424.30 721.20 L 428.30 721.60 C 428.30 721.60 428.50 721.60 428.30 721.80 L 428.30 722.00 C 428.10 722.00 427.90 722.20 427.90 722.20 C 408.60 720.60 389.50 717.60 370.60 713.20 C 371.20 712.00 371.20 710.60 370.60 709.40 C 370.00 708.60 369.00 708.40 368.20 708.80 C 368.00 709.00 367.60 709.20 367.60 709.60 C 365.80 714.40 362.80 718.70 359.20 722.10 C 358.80 722.50 358.20 722.90 357.40 722.90 C 355.20 722.90 353.00 722.90 351.00 722.90 C 350.40 722.90 350.40 722.90 351.00 723.10 C 351.20 723.10 351.20 723.10 351.40 722.90 C 351.60 722.70 351.60 722.50 351.40 722.50 C 351.00 722.30 350.60 722.30 350.20 722.50 C 349.80 722.70 349.20 722.70 348.60 722.50 C 347.60 722.10 347.20 721.10 347.40 720.30 C 347.60 718.30 346.20 716.50 344.20 716.30 C 343.80 716.30 343.40 716.30 343.00 716.30 C 338.20 717.30 333.10 718.50 328.90 715.50 C 328.50 715.10 327.90 714.90 327.30 714.90 C 322.50 714.10 318.00 712.70 313.60 710.70 C 311.40 709.70 309.20 709.10 306.80 708.90 C 306.20 708.90 305.80 708.50 305.20 708.30 C 299.40 703.90 294.90 698.20 291.50 691.80 C 291.10 690.80 290.70 691.00 290.70 692.00 L 290.50 694.00 C 289.90 691.20 290.10 688.20 291.30 685.60 C 291.70 684.40 291.30 683.00 290.10 682.40 C 285.90 680.20 282.30 677.20 279.60 673.40 C 274.00 666.00 274.40 658.30 280.80 650.10 C 281.00 649.90 281.00 649.70 280.80 649.50 L 277.20 643.90 C 281.80 645.70 285.80 648.50 289.10 652.10 C 292.10 654.30 295.50 655.80 298.90 657.00 Z M 351.60 719.30 L 356.80 715.10 C 357.80 714.30 357.80 712.90 357.00 712.10 C 356.80 711.90 356.60 711.70 356.40 711.50 C 354.40 710.30 352.20 710.10 350.00 710.90 C 348.40 711.30 347.20 712.90 347.60 714.70 C 347.60 714.90 347.60 714.90 347.80 715.10 L 348.40 718.10 C 348.80 720.10 350.00 720.50 351.60 719.30 L 351.60 719.30 Z" fill="#6396d0" fill-rule="nonzero" node-id="240" stroke="none" target-height="79.19995" target-width="173.6" target-x="274" target-y="643.9"></path><path d="M 497.80 653.10 C 499.80 657.90 500.00 665.60 494.00 667.40 C 485.60 670.00 480.10 667.20 477.50 659.40 C 476.90 644.50 489.80 645.50 497.80 653.10 Z" fill="#677099" fill-rule="nonzero" node-id="242" stroke="none" target-height="25.5" target-width="23.100006" target-x="476.9" target-y="644.5"></path><path d="M 507.90 648.50 C 501.70 655.50 501.10 661.60 506.30 667.20 C 508.70 669.80 512.10 672.20 515.80 671.80 C 524.40 670.80 531.30 661.70 529.90 653.10 C 531.10 652.70 532.50 653.30 533.30 654.30 C 533.70 654.70 534.30 655.10 534.70 655.50 L 538.70 657.70 L 531.70 672.00 C 525.90 682.50 523.30 690.30 519.40 699.80 C 519.20 700.20 519.20 700.80 519.40 701.20 C 519.80 701.60 520.00 702.00 520.40 702.40 C 519.80 702.60 519.40 703.00 519.20 703.60 C 517.60 703.00 515.80 702.80 514.20 702.80 C 516.60 701.60 515.80 700.20 511.60 699.00 L 514.60 699.00 C 515.20 699.00 515.80 698.80 515.80 698.20 L 515.80 698.00 C 516.00 696.20 515.20 695.20 513.60 695.40 C 490.90 697.00 471.20 696.00 450.00 690.40 C 449.40 690.20 449.00 690.00 448.60 689.40 C 448.40 689.20 448.00 688.80 447.60 688.80 C 449.80 679.30 451.00 669.50 451.00 659.60 C 453.20 661.20 455.80 662.20 458.40 662.40 C 461.00 662.60 463.60 662.40 466.00 661.60 C 469.60 660.60 473.40 659.80 477.10 659.40 C 479.70 667.20 485.30 669.90 493.60 667.40 C 499.60 665.60 499.40 657.70 497.40 653.10 C 499.00 653.30 500.00 652.90 500.40 651.90 C 500.60 651.50 501.00 651.10 501.40 651.30 L 501.40 651.30 C 502.00 651.50 502.60 651.30 503.00 651.10 C 503.40 650.90 503.80 650.50 504.00 650.10 C 505.10 648.70 506.70 648.10 507.90 648.50 Z" fill="#da919e" fill-rule="nonzero" node-id="244" stroke="none" target-height="55.5" target-width="91.100006" target-x="447.6" target-y="648.1"></path><path d="M 627.30 702.80 C 625.10 702.60 623.50 702.80 622.90 703.60 C 616.50 710.20 610.20 716.50 603.40 722.70 L 600.60 724.30 L 591.10 724.30 C 589.30 724.30 589.10 723.70 590.30 722.30 C 591.90 720.70 594.10 720.10 596.30 720.30 C 597.10 720.30 597.90 720.10 598.50 719.70 C 601.30 718.30 603.90 716.70 606.30 714.70 C 613.50 707.30 619.20 701.20 623.20 696.40 C 632.20 685.50 638.90 672.70 643.10 659.20 L 646.10 652.80 L 647.10 652.00 C 647.50 651.60 647.70 651.80 647.50 652.40 C 647.10 653.80 646.90 655.20 646.70 656.60 C 646.50 658.00 646.30 659.40 645.90 660.60 C 641.30 673.50 635.00 685.70 627.00 697.00 C 626.00 698.40 626.40 699.20 628.00 699.80 C 628.60 700.00 628.80 700.60 628.80 701.00 C 628.70 701.80 628.30 702.40 627.30 702.80 Z" fill="#760906" fill-rule="nonzero" node-id="246" stroke="none" target-height="72.70001" target-width="58.600037" target-x="589.1" target-y="651.6"></path><path d="M 386.20 670.00 C 388.20 673.00 390.80 675.60 393.60 677.80 C 395.60 679.20 397.80 680.00 400.20 680.00 C 401.80 680.00 403.40 680.00 405.00 679.80 C 406.60 679.60 408.20 679.20 409.60 678.40 C 413.80 676.20 418.00 673.80 422.50 671.20 C 423.10 670.80 423.70 670.80 424.30 671.00 C 426.90 671.80 429.50 671.80 432.10 671.20 L 445.80 681.30 C 446.40 681.70 446.60 682.30 446.60 682.90 L 447.00 689.50 L 446.60 696.50 L 438.80 699.90 C 438.20 700.10 437.60 700.30 436.80 700.30 C 424.90 700.70 412.90 700.70 401.20 700.50 C 393.40 700.30 384.30 698.90 375.50 698.70 C 374.70 698.70 374.10 698.10 373.90 697.50 L 373.10 691.70 C 373.10 691.30 372.70 690.90 372.10 690.90 C 371.90 690.90 371.70 691.10 371.70 691.10 C 371.30 691.50 371.10 691.90 371.10 692.50 C 371.10 693.10 370.50 693.50 369.90 693.50 C 362.70 694.70 355.60 696.10 348.40 697.50 L 341.40 699.50 C 337.80 700.50 334.20 700.70 330.70 700.10 C 322.90 698.90 313.20 698.10 307.80 691.10 C 301.80 683.50 297.50 674.60 295.10 665.20 C 294.90 664.60 295.10 664.00 295.30 663.40 L 298.50 656.80 C 301.10 656.00 303.90 656.00 306.50 656.40 L 314.30 657.40 C 320.10 657.80 325.40 658.20 331.60 658.00 C 341.90 657.60 352.10 659.40 361.80 663.00 C 364.40 663.80 367.00 664.20 369.80 664.40 C 370.40 664.40 371.00 664.80 371.60 665.20 C 372.80 666.20 374.60 666.60 376.00 666.00 C 377.60 665.20 379.60 665.80 380.60 667.40 C 381.60 669.00 383.20 669.80 386.20 670.00 Z" fill="#8abbda" fill-rule="nonzero" node-id="248" stroke="none" target-height="44.700012" target-width="152.1" target-x="294.9" target-y="656"></path><path d="M 642.80 659.20 C 638.60 672.70 631.90 685.50 622.90 696.40 C 618.90 701.20 613.40 707.30 606.00 714.70 C 603.60 716.70 601.00 718.50 598.20 719.70 C 597.60 720.10 596.80 720.30 596.00 720.30 C 593.80 720.10 591.60 720.70 590.00 722.30 C 588.80 723.50 589.00 724.30 590.80 724.30 L 600.30 724.30 C 599.90 724.70 599.30 724.90 598.70 724.90 L 581.40 725.10 C 580.60 725.10 580.00 724.50 580.00 723.70 C 580.00 723.50 580.00 723.10 580.20 722.90 C 581.00 721.70 580.60 720.70 578.80 719.70 C 575.00 717.70 571.20 716.10 567.10 715.30 C 566.50 715.10 565.70 715.30 565.10 715.70 L 560.10 719.50 C 559.70 719.70 559.50 720.50 559.70 720.90 C 559.70 720.90 559.70 721.10 559.90 721.10 C 560.50 721.90 561.30 722.70 562.30 723.30 C 562.90 723.70 562.90 723.90 562.10 724.10 L 557.30 724.70 L 542.40 724.30 C 541.80 724.30 541.20 724.10 540.80 723.50 L 520.50 702.40 C 520.10 702.00 519.70 701.60 519.50 701.20 C 519.30 700.80 519.30 700.20 519.50 699.80 C 523.50 690.30 526.10 682.50 531.80 672.00 C 533.20 673.20 533.80 675.00 533.60 677.00 C 533.60 677.40 533.80 677.80 534.20 678.00 L 537.80 679.20 C 538.40 679.40 539.20 679.60 539.80 679.60 C 541.60 679.80 543.40 680.00 545.40 680.40 C 547.60 681.00 550.00 681.40 552.20 681.40 C 555.40 681.40 558.40 682.60 561.50 682.40 C 577.60 680.80 593.70 678.60 609.60 676.00 C 612.40 675.60 615.20 674.80 617.80 674.00 C 625.00 671.60 630.70 670.80 636.90 665.00 C 637.30 664.60 637.90 664.20 638.50 664.00 C 640.80 663.40 642.40 661.40 642.80 659.20 Z" fill="#a7343f" fill-rule="nonzero" node-id="250" stroke="none" target-height="65.89996" target-width="123.5" target-x="519.3" target-y="659.2"></path><path d="M 188.30 720.90 C 188.30 717.10 188.90 713.50 190.10 710.00 C 192.90 702.00 199.80 695.10 207.40 691.30 C 211.80 689.30 216.70 688.10 221.70 688.30 C 235.00 687.90 248.60 689.70 261.30 693.50 C 266.50 695.30 271.20 697.90 275.60 701.10 C 284.70 707.30 293.10 714.40 300.90 722.40 C 301.90 723.20 302.90 723.80 304.10 724.40 C 307.50 726.20 307.30 727.00 303.50 727.20 C 285.40 728.20 269.10 728.60 249.20 728.20 C 231.90 727.80 214.80 727.80 197.70 728.40 C 194.50 728.40 189.70 727.40 185.80 727.40 L 135.30 726.20 C 135.10 726.20 134.90 726.00 134.90 725.80 L 134.90 725.80 L 134.90 725.80 C 134.90 725.60 135.10 725.40 135.30 725.40 C 152.20 724.60 168.90 724.20 185.00 724.60 C 186.90 724.10 188.30 722.70 188.30 720.90 Z" fill="#a79ba2" fill-rule="nonzero" node-id="252" stroke="none" target-height="40.69995" target-width="172.6" target-x="134.9" target-y="687.9"></path><path d="M 448.10 688.70 C 448.50 688.90 448.70 689.10 449.10 689.30 C 449.50 689.70 449.90 690.10 450.50 690.30 C 471.60 696.10 491.50 696.90 514.10 695.30 C 515.90 695.30 516.50 696.10 516.30 697.90 C 516.30 698.50 515.90 698.90 515.30 698.90 L 515.10 698.90 L 512.10 698.90 C 510.50 697.30 508.10 697.90 505.10 700.70 C 501.70 700.70 499.90 701.10 499.50 701.90 C 494.70 704.10 490.20 705.90 485.80 707.50 C 482.60 708.70 479.20 709.10 475.90 708.50 C 466.90 707.30 458.20 705.10 449.80 701.90 C 449.20 701.70 448.60 701.90 448.40 702.50 C 448.40 702.70 448.40 702.70 448.40 702.90 C 448.40 706.70 447.00 710.10 444.20 712.60 C 444.00 712.40 443.60 712.20 443.20 712.20 C 442.80 712.20 442.40 712.00 442.40 711.60 C 442.40 711.40 442.40 711.20 442.60 711.00 C 446.20 707.00 448.00 701.70 447.40 696.10 L 447.80 689.10 C 448.50 689.10 448.90 688.90 448.10 688.70 Z" fill="#a7343f" fill-rule="nonzero" node-id="254" stroke="none" target-height="23.899963" target-width="74.100006" target-x="442.4" target-y="688.7"></path><path d="M 370.90 713.30 C 368.70 717.30 366.30 721.30 363.50 724.80 C 361.70 727.00 357.50 727.80 354.50 727.60 C 347.90 727.00 341.40 726.40 335.20 725.60 C 334.00 726.20 332.40 725.60 331.80 724.40 C 331.40 723.60 330.60 723.00 329.60 723.00 L 325.00 720.20 C 324.40 719.60 323.40 719.80 322.80 720.40 L 322.60 720.60 L 320.60 723.40 C 319.00 725.60 315.80 726.20 313.40 724.60 C 313.20 724.40 313.00 724.20 312.80 724.20 C 308.80 720.40 303.30 717.80 299.90 714.50 C 294.50 708.90 291.10 701.60 290.40 693.80 L 290.60 691.80 C 290.80 690.80 291.00 690.80 291.40 691.60 C 294.80 698.00 299.40 703.70 305.10 708.10 C 305.50 708.50 306.10 708.70 306.70 708.70 C 309.10 708.90 311.30 709.70 313.50 710.50 C 317.90 712.50 322.50 713.90 327.20 714.70 C 327.80 714.70 328.40 715.10 328.80 715.30 C 333.00 718.10 338.10 717.10 342.90 716.10 C 344.90 715.70 346.70 717.10 347.10 718.90 C 347.10 719.30 347.10 719.70 347.10 720.10 C 346.90 721.10 347.50 722.10 348.30 722.30 C 348.70 722.50 349.30 722.50 349.90 722.30 C 350.30 722.10 350.70 722.10 351.10 722.30 C 351.30 722.50 351.30 722.50 351.10 722.70 C 350.90 722.90 350.70 722.90 350.70 722.90 C 350.10 722.90 350.10 722.70 350.70 722.70 C 352.70 722.70 354.90 722.70 357.10 722.70 C 357.70 722.70 358.30 722.50 358.90 721.90 C 362.70 718.30 365.50 714.10 367.30 709.40 C 367.70 708.60 368.70 708.00 369.50 708.40 C 369.90 708.60 370.10 708.80 370.30 709.00 C 371.30 710.70 371.30 712.10 370.90 713.30 Z" fill="#4c6daa" fill-rule="nonzero" node-id="256" stroke="none" target-height="37" target-width="80.899994" target-x="290.4" target-y="690.8"></path><path d="M 777.80 724.90 L 778.20 725.50 C 774.20 726.70 770.20 727.10 766.10 726.70 L 767.10 726.30 C 767.50 726.10 767.90 725.70 767.90 725.30 C 767.90 725.10 767.90 724.90 767.90 724.70 C 767.90 724.10 767.30 723.70 766.70 723.70 C 761.10 723.50 755.20 724.50 750.20 720.90 C 747.20 718.70 743.80 714.50 740.50 708.20 C 739.30 706.00 736.70 704.00 732.50 702.40 C 741.50 696.00 751.00 695.00 761.50 699.60 C 763.70 700.60 766.10 703.20 769.10 707.40 C 772.10 712.20 774.50 717.30 776.10 722.70 C 776.40 723.70 777.20 724.30 777.80 724.90 Z" fill="#baa4ab" fill-rule="nonzero" node-id="258" stroke="none" target-height="32.099976" target-width="45.700012" target-x="732.5" target-y="695"></path><path d="M 511.90 699.00 C 516.10 700.20 516.90 701.60 514.50 702.80 C 510.50 700.60 507.70 700.80 505.90 703.80 C 503.50 703.40 503.30 702.20 504.90 700.60 C 507.90 698.00 510.30 697.40 511.90 699.00 Z" fill="#d5bcce" fill-rule="nonzero" node-id="260" stroke="none" target-height="6.3999634" target-width="13.600037" target-x="503.3" target-y="697.4"></path><path d="M 505.00 700.60 C 503.20 702.20 503.60 703.20 506.00 703.80 C 500.00 709.60 494.10 715.10 487.90 720.30 C 486.70 721.10 485.30 721.50 483.70 721.30 C 472.80 722.10 461.80 722.30 450.90 721.70 L 459.70 714.10 C 460.10 713.70 460.30 713.10 460.10 712.50 C 459.50 710.90 458.30 709.70 456.90 708.90 C 462.50 709.70 467.40 710.50 471.80 711.50 C 474.40 711.90 477.00 711.90 479.40 711.90 C 482.00 711.90 484.60 711.50 486.80 710.50 C 491.60 708.50 495.80 705.50 499.30 701.50 C 499.80 701.00 501.60 700.60 505.00 700.60 Z" fill="#6396d0" fill-rule="nonzero" node-id="262" stroke="none" target-height="21.700012" target-width="55.100006" target-x="450.9" target-y="700.6"></path><path d="M 514.50 702.80 C 516.30 702.60 517.90 702.80 519.50 703.60 C 519.30 710.20 505.40 718.90 501.60 719.90 L 493.00 722.50 C 490.20 723.30 487.20 723.90 484.20 724.10 C 476.20 724.70 468.30 725.10 460.30 724.90 C 451.20 724.50 442.00 723.90 432.90 723.30 C 438.90 724.10 445.00 723.50 451.00 721.90 C 461.90 722.50 472.90 722.30 483.80 721.50 C 485.20 721.50 486.60 721.10 488.00 720.50 C 494.20 715.10 500.30 709.80 506.10 704.00 C 507.70 700.80 510.50 700.60 514.50 702.80 Z" fill="#4c6daa" fill-rule="nonzero" node-id="264" stroke="none" target-height="24.5" target-width="86.600006" target-x="432.9" target-y="700.6"></path><path d="M 499.40 701.80 C 496.00 705.60 491.60 708.80 486.90 710.80 C 484.50 711.80 481.90 712.20 479.50 712.20 C 476.90 712.20 474.30 712.20 471.90 711.80 C 467.50 711.00 462.40 710.00 457.00 709.20 C 454.20 707.80 450.60 709.80 445.90 715.40 C 445.70 715.00 445.30 714.80 444.90 714.80 C 444.50 714.80 444.10 714.40 444.10 713.80 L 444.10 713.80 L 444.10 713.00 C 446.70 710.40 448.30 706.80 448.30 703.30 C 448.30 702.70 448.70 702.10 449.30 702.10 C 449.50 702.10 449.50 702.10 449.70 702.10 C 458.10 705.30 466.80 707.50 475.80 708.70 C 479.20 709.10 482.60 708.70 485.70 707.70 C 490.00 706.00 494.60 704.00 499.40 701.80 Z" fill="#a5c9e0" fill-rule="nonzero" node-id="266" stroke="none" target-height="13.600037" target-width="55.299988" target-x="444.1" target-y="701.8"></path><path d="M 732.50 702.60 C 736.50 704.20 739.30 706.20 740.50 708.40 C 743.90 714.80 747.30 718.90 750.20 721.10 C 755.20 724.50 761.10 723.50 766.70 723.90 C 767.30 723.90 767.70 724.30 767.90 724.90 C 767.90 725.10 767.90 725.30 767.90 725.50 C 767.90 725.90 767.50 726.30 767.10 726.50 L 766.10 726.90 L 722.70 726.30 L 717.70 725.90 C 717.50 725.90 717.30 725.70 717.30 725.70 C 717.10 725.50 717.10 725.10 717.30 724.90 L 717.30 724.90 C 721.20 716.70 725.70 708.40 732.50 702.60 Z" fill="#958a9c" fill-rule="nonzero" node-id="268" stroke="none" target-height="24.300049" target-width="50.80005" target-x="717.1" target-y="702.6"></path><path d="M 456.80 709.10 C 458.20 709.90 459.40 711.10 460.00 712.70 C 460.20 713.30 460.00 713.90 459.60 714.30 L 450.80 721.90 C 445.00 723.50 438.90 724.10 432.70 723.30 C 431.10 723.50 429.30 723.10 427.90 722.30 C 428.10 722.30 428.30 722.10 428.30 722.10 C 428.30 722.10 428.50 722.10 428.30 721.90 L 428.30 721.70 L 424.30 721.30 C 423.90 721.30 423.70 721.10 423.70 720.70 L 423.70 720.70 L 423.70 720.10 C 423.70 719.90 423.70 719.90 423.90 719.90 C 428.90 719.50 433.60 718.50 438.20 716.90 C 438.80 716.70 439.60 716.50 440.20 716.70 C 442.00 716.90 444.00 716.50 445.60 715.50 C 450.30 709.70 454.00 707.80 456.80 709.10 Z" fill="#185b84" fill-rule="nonzero" node-id="270" stroke="none" target-height="16.299988" target-width="36.5" target-x="423.7" target-y="707.8"></path><path d="M 351.60 719.30 C 349.80 720.70 348.80 720.30 348.40 718.10 L 347.80 715.10 C 347.20 713.50 348.20 711.70 349.80 711.10 C 350.00 711.10 350.00 711.10 350.20 710.90 C 352.40 710.10 354.60 710.50 356.60 711.50 C 357.60 712.10 358.00 713.30 357.40 714.30 C 357.20 714.50 357.00 714.70 356.80 714.90 L 351.60 719.30 Z" fill="#a5c9e0" fill-rule="nonzero" node-id="272" stroke="none" target-height="10.600037" target-width="10.799988" target-x="347.2" target-y="710.1"></path><path d="M 599.00 724.90 C 598.60 725.30 598.40 725.30 598.20 724.90 L 557.80 724.70 L 562.60 724.10 C 563.40 724.10 563.40 723.70 562.80 723.30 C 561.80 722.70 561.00 722.10 560.40 721.10 C 560.00 720.70 560.00 720.10 560.40 719.70 C 560.40 719.70 560.60 719.70 560.60 719.50 L 565.60 715.70 C 566.20 715.30 567.00 715.10 567.60 715.30 C 571.80 716.30 575.60 717.70 579.30 719.70 C 581.10 720.70 581.50 721.70 580.70 722.90 C 580.30 723.50 580.50 724.30 581.10 724.90 C 581.30 725.10 581.70 725.10 581.90 725.10 L 599.00 724.90 Z" fill="#ff8044" fill-rule="nonzero" node-id="274" stroke="none" target-height="10.200012" target-width="41.200012" target-x="557.8" target-y="715.1"></path><path d="M 329.70 723.10 C 330.70 723.10 331.50 723.70 331.90 724.50 C 332.50 725.70 334.10 726.10 335.30 725.70 C 331.30 726.50 327.30 726.50 323.40 725.70 C 322.60 725.50 322.60 725.30 323.00 724.70 C 323.40 724.30 324.00 724.10 324.60 724.30 C 327.10 725.30 328.70 724.90 329.70 723.10 Z" fill="#baa4ab" fill-rule="nonzero" node-id="276" stroke="none" target-height="3.4000244" target-width="12.699982" target-x="322.6" target-y="723.1"></path><path d="M 603.40 722.70 C 603.40 722.90 603.40 723.10 603.40 723.30 C 603.40 723.70 603.60 723.90 604.00 723.90 C 604.00 723.90 604.00 723.90 604.20 723.90 C 610.20 723.50 616.30 723.30 622.30 723.70 C 628.30 723.90 634.20 724.10 640.40 723.90 C 662.50 723.50 684.40 723.70 706.40 724.70 C 709.00 724.90 711.80 725.10 714.40 725.70 C 715.00 725.90 715.60 725.70 716.20 725.50 L 717.40 724.90 C 717.20 725.10 717.20 725.30 717.20 725.70 L 717.20 725.70 C 717.20 725.90 717.40 725.90 717.60 725.90 L 722.60 726.30 C 687.60 727.30 652.40 727.70 617.40 727.10 C 613.20 727.10 609.00 727.30 605.10 727.90 C 602.50 727.90 600.10 726.90 598.30 725.10 C 598.50 725.50 598.70 725.30 599.10 725.10 C 599.70 725.10 600.30 724.90 600.70 724.50 L 603.40 722.70 Z" fill="#f0d1cd" fill-rule="nonzero" node-id="278" stroke="none" target-height="5.200012" target-width="124.29999" target-x="598.3" target-y="722.7"></path><path d="M 778.20 725.50 L 777.80 724.90 C 778.40 724.50 779.00 724.10 779.80 724.10 C 786.00 723.50 792.10 723.30 798.50 723.50 C 805.30 723.70 811.40 723.70 817.20 723.50 C 827.70 723.30 838.10 723.50 848.80 724.10 C 864.70 724.90 849.00 724.10 849.00 724.30 L 849.00 724.90 C 849.00 725.30 848.80 725.70 848.40 725.70 L 848.20 725.70 L 778.20 725.50 Z" fill="#f0d1cd" fill-rule="nonzero" node-id="280" stroke="none" target-height="2.4000244" target-width="86.900024" target-x="777.8" target-y="723.3"></path></svg>