<?xml version="1.0" standalone="no"?><!DOCTYPE svg PUBLIC "-//W3C//DTD SVG 1.1//EN" "http://www.w3.org/Graphics/SVG/1.1/DTD/svg11.dtd"><svg t="1709717757808" class="icon" viewBox="0 0 1024 1024" version="1.1" xmlns="http://www.w3.org/2000/svg" p-id="7521" xmlns:xlink="http://www.w3.org/1999/xlink" width="64" height="64"><path d="M512 896c211.9936 0 384-172.00128 384-384s-172.0064-384-384-384V64c247.1936 0 448 200.80128 448 448s-200.80128 448-448 448-448-200.80128-448-448H128c0 211.99872 172.00128 384 384 384zM91.20256 136.00256l136.00256 136.00256-111.20128 112 268.8 2.40128-2.4064-268.8-109.5936 109.59872-136.00256-136.00256-45.59872 44.8z" p-id="7522" fill="#d81e06"></path><path d="M480.128 505.78432v75.55072H369.99168c-17.30048 0-31.86176 14.5664-31.86176 31.86688 0 17.29024 14.56128 31.872 31.86176 31.872h110.14144v84.64896c0 17.29024 14.57664 31.86688 31.872 31.86688s31.86688-14.57664 31.86688-31.86688V645.0688h110.14144c17.29536 0 31.86688-14.58176 31.86688-31.872 0-17.30048-14.57152-31.86688-31.86688-31.86688h-111.96416V505.78432h110.14656c17.29536 0 31.86176-14.56128 31.86176-31.85664 0-17.3056-14.5664-31.872-31.86176-31.872h-50.97472l19.11296-42.78272c7.28064-16.37888 0-34.59072-16.384-41.87136-15.47264-7.28576-34.59584 0-41.8816 16.384l-30.0288 68.26496H477.4144l-30.03392-68.26496c-7.29088-16.384-25.4976-23.66976-41.8816-16.384C389.12 364.68224 381.83936 382.89408 389.12 399.27296l19.0976 42.78272h-38.23104c-17.29536 0-31.85664 14.57664-31.85664 31.872s14.5664 31.85664 31.85664 31.85664h110.14144z" p-id="7523" fill="#d81e06"></path></svg>