<?xml version="1.0" standalone="no"?><!DOCTYPE svg PUBLIC "-//W3C//DTD SVG 1.1//EN" "http://www.w3.org/Graphics/SVG/1.1/DTD/svg11.dtd"><svg t="1709716493346" class="icon" viewBox="0 0 1024 1024" version="1.1" xmlns="http://www.w3.org/2000/svg" p-id="4637" xmlns:xlink="http://www.w3.org/1999/xlink" width="64" height="64"><path d="M756.011968 124.249839l-76.595492 152.206564 145.722896-152.206564L720.782605 312.635393l104.358813 0L825.141418 442.641329l-98.350982 0-75.074859 72.862471 173.427888 0 0 125.547391L603.583346 641.051191l0 244.802472L426.805154 885.853663 426.805154 737.75772 299.233664 864.253716l127.572514-181.585685 0-41.61684L198.858582 641.051191 198.858582 515.5038l227.946572 0L426.805154 442.641329 198.858582 442.641329 198.858582 312.635393l178.611957 0L264.131191 124.249839l151.85864 0 102.081956 161.947416 95.662757-161.947416L756.011968 124.249839 756.011968 124.249839z" fill="#D8261E" p-id="4638"></path><path d="M825.141418 124.249839 680.557462 381.006574 787.067264 380.595204 270.96176 892.272863 599.53617 466.265376 492.583277 471.672526Z" fill="#FFFFFF" p-id="4639"></path><path d="M270.960737 902.505925c-2.413979 0-4.832052-0.849344-6.77224-2.562359-4.03899-3.566222-4.620227-9.653871-1.329275-13.921058L577.865615 477.607702l-84.765569 4.284583c-4.183276 0.199545-8.080026-2.152013-9.822716-5.964852-1.743714-3.812839-0.984421-8.303106 1.914606-11.332093l332.558142-347.422687c3.564175-3.724835 9.344832-4.214998 13.489222-1.143033 4.14132 3.071965 5.350868 8.746198 2.820232 13.239536l-135.956462 241.434771 88.925309-0.343831c0.014326 0 0.026606 0 0.039909 0 4.139274 0 7.870248 2.492774 9.454326 6.318916 1.589195 3.837398 0.700965 8.256034-2.249227 11.180644L278.166859 899.540384C276.178575 901.511271 273.571191 902.505925 270.960737 902.505925zM599.538217 456.032314c3.792373 0 7.293103 2.102894 9.064446 5.487991 1.852184 3.538593 1.474584 7.831362-0.963954 10.994402L373.106138 776.59526l389.007805-385.670803-81.516572 0.315178c-0.014326 0-0.026606 0-0.039909 0-3.628644 0-6.986111-1.920746-8.824993-5.052063-1.843998-3.14155-1.879813-7.027044-0.092098-10.202363l104.736413-185.992041L517.775029 460.152145l81.245396-4.106528C599.193363 456.036407 599.366302 456.032314 599.538217 456.032314z" fill="#D8261E" p-id="4640"></path></svg>