<?xml version="1.0" standalone="no"?><!DOCTYPE svg PUBLIC "-//W3C//DTD SVG 1.1//EN" "http://www.w3.org/Graphics/SVG/1.1/DTD/svg11.dtd"><svg t="1709717786634" class="icon" viewBox="0 0 1024 1024" version="1.1" xmlns="http://www.w3.org/2000/svg" p-id="7706" xmlns:xlink="http://www.w3.org/1999/xlink" width="64" height="64"><path d="M512 64V128c211.9936 0 384 172.00128 384 384s-172.00128 384-384 384-384-172.00128-384-384H64c0 247.19872 200.81152 448 448 448 247.1936 0 448-200.80128 448-448S759.1936 64 512 64z" p-id="7707" fill="#d81e06"></path><path d="M358.4 309.60128L222.40256 173.59872 332.8 64H64v264.00256l113.60256-108.8L313.6 354.40128l44.8-44.8zM492.07808 713.96352a28.60032 28.60032 0 0 1-10.37312-1.96096 15.95392 15.95392 0 0 1-3.59936-2.01728l-0.10752-0.06144a24.4736 24.4736 0 0 1-4.57728-2.95936l-0.15872-0.09728-1.88928-1.81248-0.0512-0.08704-133.97504-131.98336c-5.41184-5.31456-8.42752-12.43648-8.48384-20.03456s2.85184-14.76608 8.18688-20.16768a28.2112 28.2112 0 0 1 20.23936-8.46848c7.51616 0 14.60736 2.90304 19.96288 8.18688l114.048 112.37376 216.13568-230.12864a28.42624 28.42624 0 0 1 49.13152 18.66752 28.12928 28.12928 0 0 1-7.75168 20.28544l-235.52 250.73664-0.18432 0.29184s-0.96256 0.94208-1.0496 1.01888l-0.34304 0.36864-0.128 0.08704c-1.792 1.62304-3.56352 2.62144-4.7872 3.30752l-0.18944 0.10752a16.2816 16.2816 0 0 1-3.56352 2.1248c-3.47136 1.47456-7.168 2.22208-10.97216 2.22208z" p-id="7708" fill="#d81e06"></path></svg>