<?xml version="1.0" standalone="no"?><!DOCTYPE svg PUBLIC "-//W3C//DTD SVG 1.1//EN" "http://www.w3.org/Graphics/SVG/1.1/DTD/svg11.dtd"><svg t="1708929880679" class="icon" viewBox="0 0 1024 1024" version="1.1" xmlns="http://www.w3.org/2000/svg" p-id="2050" xmlns:xlink="http://www.w3.org/1999/xlink" width="200" height="200"><path d="M405.333333 85.333333h-85.333333l128 341.333334v170.666666l-128 341.333334h85.333333l256-341.333334v-170.666666L405.333333 85.333333zM85.333333 298.666667H42.666667l64 170.666666v85.333334l-64 170.666666h42.666666l149.333334-149.333333v-128l-149.333334-149.333333z" fill="#1565C0" p-id="2051"></path><path d="M896 597.333333H469.333333l-343.466666-19.2a42.666667 42.666667 0 0 1-40.533334-42.666666v-46.933334a42.666667 42.666667 0 0 1 40.533334-42.666666L469.333333 426.666667h426.666667a85.333333 85.333333 0 0 1 85.333333 85.333333 85.333333 85.333333 0 0 1-85.333333 85.333333z" fill="#03A9F4" p-id="2052"></path><path d="M42.666667 492.373333h192V533.333333H42.666667z" fill="#1565C0" p-id="2053"></path><path d="M917.333333 554.666667a42.666667 42.666667 0 0 1-42.666666-42.666667 42.666667 42.666667 0 0 1 42.666666-42.666667v85.333334z" fill="#35495D" p-id="2054"></path></svg>