<?xml version="1.0" standalone="no"?><!DOCTYPE svg PUBLIC "-//W3C//DTD SVG 1.1//EN" "http://www.w3.org/Graphics/SVG/1.1/DTD/svg11.dtd"><svg t="1708929917144" class="icon" viewBox="0 0 1024 1024" version="1.1" xmlns="http://www.w3.org/2000/svg" p-id="2347" xmlns:xlink="http://www.w3.org/1999/xlink" width="200" height="200"><path d="M725.333333 106.666667H298.666667a128 128 0 0 0-128 128v533.333333h682.666666V234.666667a128 128 0 0 0-128-128z" fill="#F44336" p-id="2348"></path><path d="M682.666667 810.666667h149.333333v85.333333a21.333333 21.333333 0 0 1-21.333333 21.333333h-106.666667a21.333333 21.333333 0 0 1-21.333333-21.333333v-85.333333zM192 810.666667h149.333333v85.333333a21.333333 21.333333 0 0 1-21.333333 21.333333h-106.666667a21.333333 21.333333 0 0 1-21.333333-21.333333v-85.333333z" fill="#37474F" p-id="2349"></path><path d="M874.666667 341.333333h42.666666a42.666667 42.666667 0 0 1 42.666667 42.666667v64a42.666667 42.666667 0 0 1-42.666667 42.666667h-21.333333a21.333333 21.333333 0 0 1-21.333333-21.333334v-128z" fill="#F44336" p-id="2350"></path><path d="M853.333333 341.333333h21.333334v85.333334h-21.333334z" fill="#D32F2F" p-id="2351"></path><path d="M128 490.666667H106.666667a42.666667 42.666667 0 0 1-42.666667-42.666667v-64a42.666667 42.666667 0 0 1 42.666667-42.666667h42.666666v128a21.333333 21.333333 0 0 1-21.333333 21.333334z" fill="#F44336" p-id="2352"></path><path d="M170.666667 426.666667H149.333333v-85.333334h21.333334z" fill="#D32F2F" p-id="2353"></path><path d="M298.666667 149.333333h426.666666a85.333333 85.333333 0 0 1 85.333334 85.333334v298.666666a42.666667 42.666667 0 0 1-42.666667 42.666667H256a42.666667 42.666667 0 0 1-42.666667-42.666667V234.666667a85.333333 85.333333 0 0 1 85.333334-85.333334z" fill="#37474F" p-id="2354"></path><path d="M266.666667 672m-53.333334 0a53.333333 53.333333 0 1 0 106.666667 0 53.333333 53.333333 0 1 0-106.666667 0Z" fill="#E3F2FD" p-id="2355"></path><path d="M757.333333 672m-53.333333 0a53.333333 53.333333 0 1 0 106.666667 0 53.333333 53.333333 0 1 0-106.666667 0Z" fill="#E3F2FD" p-id="2356"></path><path d="M853.333333 768H170.666667v64a21.333333 21.333333 0 0 0 21.333333 21.333333h640a21.333333 21.333333 0 0 0 21.333333-21.333333z" fill="#F6675C" p-id="2357"></path><path d="M362.666667 640h298.666666v64H362.666667z" fill="#D32F2F" p-id="2358"></path><path d="M725.333333 149.333333H298.666667a85.333333 85.333333 0 0 0-85.333334 85.333334v42.666666h597.333334v-42.666666a85.333333 85.333333 0 0 0-85.333334-85.333334z" fill="#263238" p-id="2359"></path><path d="M490.666667 192h42.666666v42.666667h-42.666666zM576 192h42.666667v42.666667h-42.666667zM661.333333 192h42.666667v42.666667h-42.666667zM405.333333 192h42.666667v42.666667h-42.666667zM320 192h42.666667v42.666667h-42.666667z" fill="#FFEB3B" p-id="2360"></path></svg>