<?xml version="1.0" standalone="no"?><!DOCTYPE svg PUBLIC "-//W3C//DTD SVG 1.1//EN" "http://www.w3.org/Graphics/SVG/1.1/DTD/svg11.dtd"><svg t="1708929971528" class="icon" viewBox="0 0 1024 1024" version="1.1" xmlns="http://www.w3.org/2000/svg" p-id="2656" xmlns:xlink="http://www.w3.org/1999/xlink" width="200" height="200"><path d="M320 448h-106.666667v-85.333333a21.333333 21.333333 0 0 1 21.333334-21.333334h13.866666a42.666667 42.666667 0 0 1 39.466667 26.88zM554.666667 448h-106.666667v-85.333333a21.333333 21.333333 0 0 1 21.333333-21.333334h13.866667a42.666667 42.666667 0 0 1 39.466667 26.88z" fill="#D84315" p-id="2657"></path><path d="M960 704H106.666667a85.333333 85.333333 0 0 1-85.333334-85.333333v-136.533334a42.666667 42.666667 0 0 1 33.493334-42.666666L213.333333 405.333333h512l211.2 48.64a85.333333 85.333333 0 0 1 66.133334 83.2V661.333333a42.666667 42.666667 0 0 1-42.666667 42.666667z" fill="#26A69A" p-id="2658"></path><path d="M213.333333 682.666667m-106.666666 0a106.666667 106.666667 0 1 0 213.333333 0 106.666667 106.666667 0 1 0-213.333333 0Z" fill="#37474F" p-id="2659"></path><path d="M213.333333 682.666667m-64 0a64 64 0 1 0 128 0 64 64 0 1 0-128 0Z" fill="#90A4AE" p-id="2660"></path><path d="M810.666667 682.666667m-106.666667 0a106.666667 106.666667 0 1 0 213.333333 0 106.666667 106.666667 0 1 0-213.333333 0Z" fill="#37474F" p-id="2661"></path><path d="M810.666667 682.666667m-64 0a64 64 0 1 0 128 0 64 64 0 1 0-128 0Z" fill="#90A4AE" p-id="2662"></path><path d="M810.666667 682.666667m-21.333334 0a21.333333 21.333333 0 1 0 42.666667 0 21.333333 21.333333 0 1 0-42.666667 0Z" fill="#607D8B" p-id="2663"></path><path d="M213.333333 682.666667m-21.333333 0a21.333333 21.333333 0 1 0 42.666667 0 21.333333 21.333333 0 1 0-42.666667 0Z" fill="#607D8B" p-id="2664"></path><path d="M64 554.666667H21.333333v-64h85.333334l-42.666667 64z" fill="#F44336" p-id="2665"></path><path d="M981.333333 554.666667h-54.613333a42.666667 42.666667 0 0 1-40.533333-29.226667L874.666667 490.666667h64a42.666667 42.666667 0 0 1 42.666666 42.666666z" fill="#E3F2FD" p-id="2666"></path></svg>