<?xml version="1.0" standalone="no"?><!DOCTYPE svg PUBLIC "-//W3C//DTD SVG 1.1//EN" "http://www.w3.org/Graphics/SVG/1.1/DTD/svg11.dtd"><svg t="1708929905399" class="icon" viewBox="0 0 1024 1024" version="1.1" xmlns="http://www.w3.org/2000/svg" p-id="2196" xmlns:xlink="http://www.w3.org/1999/xlink" width="200" height="200"><path d="M469.333333 746.666667h85.333334v128a42.666667 42.666667 0 0 1-42.666667 42.666666 42.666667 42.666667 0 0 1-42.666667-42.666666v-128z" fill="#37474F" p-id="2197"></path><path d="M469.333333 234.666667h85.333334a170.666667 170.666667 0 0 1 170.666666 170.666666v256a85.333333 85.333333 0 0 1-85.333333 85.333334H384a85.333333 85.333333 0 0 1-85.333333-85.333334V405.333333a170.666667 170.666667 0 0 1 170.666666-170.666666z" fill="#F44336" p-id="2198"></path><path d="M512 576a64 64 0 0 1 64 64v128a21.333333 21.333333 0 0 1-21.333333 21.333333h-85.333334a21.333333 21.333333 0 0 1-21.333333-21.333333v-128a64 64 0 0 1 64-64z" fill="#F6695E" p-id="2199"></path><path d="M533.333333 256h-42.666666v256l21.333333 42.666667 21.333333-42.666667V256z" fill="#FF9800" p-id="2200"></path><path d="M512 320a87.253333 87.253333 0 0 0 21.333333-2.986667V256h-42.666666v61.013333a87.253333 87.253333 0 0 0 21.333333 2.986667z" fill="#F57C00" p-id="2201"></path><path d="M490.666667 234.666667h-21.333334a161.066667 161.066667 0 0 0-42.666666 5.546666 85.333333 85.333333 0 0 0 64 76.8zM554.666667 234.666667h-21.333334v82.346666a85.333333 85.333333 0 0 0 64-76.8 161.066667 161.066667 0 0 0-42.666666-5.546666z" fill="#D32F2F" p-id="2202"></path><path d="M661.333333 128h85.333334v42.666667h-85.333334zM277.333333 128h85.333334v42.666667h-85.333334z" fill="#37474F" p-id="2203"></path><path d="M512 192m-85.333333 0a85.333333 85.333333 0 1 0 170.666666 0 85.333333 85.333333 0 1 0-170.666666 0Z" fill="#F44336" p-id="2204"></path><path d="M512 192m-53.333333 0a53.333333 53.333333 0 1 0 106.666666 0 53.333333 53.333333 0 1 0-106.666666 0Z" fill="#E3F2FD" p-id="2205"></path></svg>