<?xml version="1.0" standalone="no"?><!DOCTYPE svg PUBLIC "-//W3C//DTD SVG 1.1//EN" "http://www.w3.org/Graphics/SVG/1.1/DTD/svg11.dtd"><svg t="1708929845014" class="icon" viewBox="0 0 1024 1024" version="1.1" xmlns="http://www.w3.org/2000/svg" p-id="1590" xmlns:xlink="http://www.w3.org/1999/xlink" width="200" height="200"><path d="M789.333333 405.333333h85.333334a42.666667 42.666667 0 0 1 42.666666 42.666667v21.333333a42.666667 42.666667 0 0 1-42.666666 42.666667h-85.333334v-106.666667zM234.666667 512H149.333333a42.666667 42.666667 0 0 1-42.666666-42.666667v-21.333333a42.666667 42.666667 0 0 1 42.666666-42.666667h85.333334v106.666667z" fill="#FFB300" p-id="1591"></path><path d="M149.333333 725.333333h128v106.666667a21.333333 21.333333 0 0 1-21.333333 21.333333H170.666667a21.333333 21.333333 0 0 1-21.333334-21.333333v-106.666667zM746.666667 725.333333h128v106.666667a21.333333 21.333333 0 0 1-21.333334 21.333333h-85.333333a21.333333 21.333333 0 0 1-21.333333-21.333333v-106.666667z" fill="#2D3E4F" p-id="1592"></path><path d="M678.4 213.333333H345.6a106.666667 106.666667 0 0 0-96.853333 61.866667l-83.626667 181.333333A170.666667 170.666667 0 0 0 149.333333 528.213333V704h725.333334v-175.786667a170.666667 170.666667 0 0 0-15.786667-71.68l-83.626667-181.333333A106.666667 106.666667 0 0 0 678.4 213.333333z" fill="#FFC107" p-id="1593"></path><path d="M807.893333 448l-65.706666-142.506667A85.333333 85.333333 0 0 0 664.746667 256H359.253333a85.333333 85.333333 0 0 0-77.44 49.493333L216.106667 448z" fill="#37474F" p-id="1594"></path><path d="M618.666667 213.333333H405.333333l16.426667-49.493333a21.333333 21.333333 0 0 1 20.266667-14.506667h139.946666a21.333333 21.333333 0 0 1 20.266667 14.506667z" fill="#FF9800" p-id="1595"></path><path d="M192 512m21.333333 0l597.333334 0q21.333333 0 21.333333 21.333333l0 85.333334q0 21.333333-21.333333 21.333333l-597.333334 0q-21.333333 0-21.333333-21.333333l0-85.333334q0-21.333333 21.333333-21.333333Z" fill="#E09E00" p-id="1596"></path><path d="M149.333333 704h725.333334v42.666667a42.666667 42.666667 0 0 1-42.666667 42.666666H192a42.666667 42.666667 0 0 1-42.666667-42.666666v-42.666667z" fill="#FFB300" p-id="1597"></path><path d="M768 576m-42.666667 0a42.666667 42.666667 0 1 0 85.333334 0 42.666667 42.666667 0 1 0-85.333334 0Z" fill="#E3F2FD" p-id="1598"></path><path d="M309.333333 576m-32 0a32 32 0 1 0 64 0 32 32 0 1 0-64 0Z" fill="#E3F2FD" p-id="1599"></path><path d="M714.666667 576m-32 0a32 32 0 1 0 64 0 32 32 0 1 0-64 0Z" fill="#E3F2FD" p-id="1600"></path><path d="M256 576m-42.666667 0a42.666667 42.666667 0 1 0 85.333334 0 42.666667 42.666667 0 1 0-85.333334 0Z" fill="#E3F2FD" p-id="1601"></path><path d="M448 170.666667h21.333333v21.333333h-21.333333zM469.333333 192h21.333334v21.333333h-21.333334zM490.666667 170.666667h21.333333v21.333333h-21.333333zM512 192h21.333333v21.333333h-21.333333zM533.333333 170.666667h21.333334v21.333333h-21.333334zM554.666667 192h21.333333v21.333333h-21.333333z" fill="#2D3E4F" p-id="1602"></path></svg>