<?xml version="1.0" standalone="no"?><!DOCTYPE svg PUBLIC "-//W3C//DTD SVG 1.1//EN" "http://www.w3.org/Graphics/SVG/1.1/DTD/svg11.dtd"><svg t="1708929874014" class="icon" viewBox="0 0 1024 1024" version="1.1" xmlns="http://www.w3.org/2000/svg" p-id="1898" xmlns:xlink="http://www.w3.org/1999/xlink" width="200" height="200"><path d="M426.666667 85.333333h42.666666v106.666667h-42.666666zM554.666667 85.333333h42.666666v106.666667h-42.666666z" fill="#607D8B" p-id="1899"></path><path d="M704 832h-64l85.333333 128h64l-85.333333-128zM320 832h64l-85.333333 128h-64l85.333333-128z" fill="#90A4AE" p-id="1900"></path><path d="M682.666667 170.666667H341.333333a106.666667 106.666667 0 0 0-106.666666 106.666666v490.666667a85.333333 85.333333 0 0 0 85.333333 85.333333h384a85.333333 85.333333 0 0 0 85.333333-85.333333V277.333333a106.666667 106.666667 0 0 0-106.666666-106.666666z" fill="#FF9800" p-id="1901"></path><path d="M512 746.666667m-42.666667 0a42.666667 42.666667 0 1 0 85.333334 0 42.666667 42.666667 0 1 0-85.333334 0Z" fill="#E3F2FD" p-id="1902"></path><path d="M618.666667 746.666667m-21.333334 0a21.333333 21.333333 0 1 0 42.666667 0 21.333333 21.333333 0 1 0-42.666667 0Z" fill="#E3F2FD" p-id="1903"></path><path d="M405.333333 746.666667m-21.333333 0a21.333333 21.333333 0 1 0 42.666667 0 21.333333 21.333333 0 1 0-42.666667 0Z" fill="#E3F2FD" p-id="1904"></path><path d="M277.333333 298.666667m42.666667 0l384 0q42.666667 0 42.666667 42.666666l0 256q0 42.666667-42.666667 42.666667l-384 0q-42.666667 0-42.666667-42.666667l0-256q0-42.666667 42.666667-42.666666Z" fill="#35495D" p-id="1905"></path><path d="M384 213.333333m21.333333 0l213.333334 0q21.333333 0 21.333333 21.333334l0 0q0 21.333333-21.333333 21.333333l-213.333334 0q-21.333333 0-21.333333-21.333333l0 0q0-21.333333 21.333333-21.333334Z" fill="#E3F2FD" p-id="1906"></path></svg>