<?xml version="1.0" standalone="no"?><!DOCTYPE svg PUBLIC "-//W3C//DTD SVG 1.1//EN" "http://www.w3.org/Graphics/SVG/1.1/DTD/svg11.dtd"><svg t="1708929534698" class="icon" viewBox="0 0 1024 1024" version="1.1" xmlns="http://www.w3.org/2000/svg" p-id="22832" xmlns:xlink="http://www.w3.org/1999/xlink" width="200" height="200"><path d="M616.947013 908.696509l105.586933-280.285315L512 428.115981 301.466054 628.411194l105.586933 280.285315A163.179806 163.179806 0 0 0 512 984.847085a163.179806 163.179806 0 0 0 104.947013-76.150576z" fill="#D8CE99" p-id="22833"></path><path d="M567.03319 428.115981h155.500756v556.731104H567.03319zM301.466054 428.115981h265.567136v556.731104H301.466054z" fill="#D8CE99" p-id="22834"></path><path d="M407.052987 919.575163L301.466054 639.929769 28.219868 895.898093a38.395249 38.395249 0 0 0-14.078258 26.876674c0 46.714219 123.504716 98.547805 300.762781 98.547804a619.443344 619.443344 0 0 0 197.095609-25.596832 163.179806 163.179806 0 0 1-104.947013-76.150576zM995.780132 895.898093l-273.246186-255.968324-105.586933 279.645394A163.179806 163.179806 0 0 1 512 995.725739a619.443344 619.443344 0 0 0 197.095609 28.156516c177.258064 0 300.762781-51.833586 300.762781-98.547805a38.395249 38.395249 0 0 0-14.078258-29.436357z" fill="#605F56" p-id="22835"></path><path d="M712.935134 831.906012a558.010946 558.010946 0 0 0-207.334342 34.555723c57.592873 20.477466 88.948993 46.074298 88.948992 58.872715s-26.236753 38.395249-76.150576 57.592873a629.682077 629.682077 0 0 0 191.976243 27.516595c186.216956 0 283.484919-58.872715 283.484919-89.588914S899.15209 831.906012 712.935134 831.906012z" fill="#848176" p-id="22836"></path><path d="M429.450216 919.575163c0-11.518575 25.596832-34.555724 76.150576-54.393269a582.327937 582.327937 0 0 0-191.976243-30.716199C128.047514 831.906012 27.579947 901.017459 27.579947 924.054608s97.267963 89.588913 283.484919 89.588914a595.126353 595.126353 0 0 0 207.334342-31.996041c-58.232794-21.757308-88.948993-44.794457-88.948992-62.072318z" fill="#848176" p-id="22837"></path><path d="M594.549784 924.054608c0-12.798416-31.35612-38.395249-88.948992-58.872714-50.553744 19.837545-76.150576 42.874694-76.150576 54.393269s30.716199 42.234773 88.948992 63.992081c49.913823-23.67707 76.150576-44.154536 76.150576-59.512636z" fill="#DAD3AE" p-id="22838"></path><path d="M879.954466 222.06148l-63.992081-71.671131L512 438.994634l210.533946 199.655293 157.42052-416.588447zM208.037615 150.390349l-63.992081 71.671131 157.42052 416.588447L512 438.994634 208.037615 150.390349z" fill="#FFF46E" p-id="22839"></path><path d="M820.44183 124.153596L515.839525 413.397802 210.597299 124.153596 131.887039 213.102589l156.780598 415.948526 10.878654 29.436357 98.547805 261.087691a143.982182 143.982182 0 0 0 72.950972 67.831605 383.952486 383.952486 0 0 0 44.794457 17.917783 421.067893 421.067893 0 0 0 44.154536-17.917783 141.422499 141.422499 0 0 0 72.950972-67.831605l98.547805-261.087691 10.878654-29.436357 157.420519-415.948526zM163.883079 219.501797l48.633982-54.393269 282.205077 268.126819L310.424945 607.933728zM607.348201 908.696509a149.101549 149.101549 0 0 1-91.508676 63.992081 148.461628 148.461628 0 0 1-92.148597-63.992081L320.023757 639.929769l191.976243-184.297194L703.976243 639.929769z m113.265983-300.762781L536.316991 433.235347l282.205077-268.126819 48.633981 54.393269z" fill="#F9B264" p-id="22840"></path><path d="M67.255037 169.587973l99.827647-101.107487h115.825666-99.827646L67.255037 185.585994v101.747408-117.745429z" fill="#66798F" p-id="22841"></path><path d="M296.346687 54.402228h-134.38337L53.8167 163.828686V300.771739h26.876674V191.345281l108.146617-109.426458h107.506696V54.402228z" fill="#666666" p-id="22842"></path><path d="M29.499709 131.832646a56.313031 56.313031 0 0 1 0-78.070339L52.536859 30.085237a53.113427 53.113427 0 0 1 39.035169-16.637941 51.833586 51.833586 0 0 1 36.475486 16.637941L245.792943 147.190745 144.685455 248.938154z" fill="#CCCCCC" p-id="22843"></path><path d="M91.572028 27.525554a40.315011 40.315011 0 0 1 29.436357 12.158495L226.595319 147.190745 144.685455 229.74053 39.098522 122.233834a42.234773 42.234773 0 0 1 0-58.232794L64.055433 39.684049a39.67509 39.67509 0 0 1 27.516595-12.158495m0-27.516595a69.751368 69.751368 0 0 0-48.633982 20.477466L19.900897 43.523574a71.03121 71.03121 0 0 0 0 97.907884l124.784558 127.984162L264.990567 147.190745l-127.984162-127.984162a63.992081 63.992081 0 0 0-45.434377-19.197624z" fill="#FFFFFF" p-id="22844"></path><path d="M250.91231 152.310112l-100.467568 102.387329-76.150576-77.430418 100.467567-102.387329 76.150577 77.430418z" fill="#CCCCCC" p-id="22845"></path><path d="M174.761733 94.717239l56.952952 57.592873-81.909863 82.549784-56.952952-57.592873 81.909863-82.549784m0-39.03517L55.096542 177.267023l94.70828 96.628042 120.305112-121.584953L174.761733 55.682069z" fill="#666666" p-id="22846"></path><path d="M956.744963 169.587973l-99.827647-101.107487h-115.825666 99.827646l115.825667 117.105508v101.747408-117.745429z" fill="#66798F" p-id="22847"></path><path d="M727.653313 54.402228h134.38337l108.146617 109.426458V300.771739h-26.876674V191.345281l-108.146617-109.426458h-107.506696V54.402228z" fill="#666666" p-id="22848"></path><path d="M994.500291 131.832646a56.313031 56.313031 0 0 0 0-78.070339l-23.03715-23.67707a53.113427 53.113427 0 0 0-39.035169-16.637941 51.833586 51.833586 0 0 0-38.395249 16.637941L778.207057 147.190745l101.107488 101.747409z" fill="#CCCCCC" p-id="22849"></path><path d="M932.427972 27.525554a39.67509 39.67509 0 0 1 27.516595 12.158495l23.037149 23.67707a42.234773 42.234773 0 0 1 0 58.872715l-103.667171 107.506696-81.909864-82.549785L902.991615 39.684049a40.315011 40.315011 0 0 1 29.436357-12.158495m0-27.516595a63.992081 63.992081 0 0 0-47.994061 20.477466l-127.984162 127.984162 120.305113 121.584954 124.784557-127.984162a71.03121 71.03121 0 0 0 0-97.907884l-20.477465-23.67707a69.751368 69.751368 0 0 0-48.633982-20.477466z" fill="#FFFFFF" p-id="22850"></path><path d="M773.08769 152.310112l100.467568 102.387329 76.150576-77.430418-100.467567-102.387329-76.150577 77.430418z" fill="#CCCCCC" p-id="22851"></path><path d="M849.238267 94.717239l81.909863 82.549784-56.952952 57.592873-81.909863-82.549784 56.952952-57.592873m0-39.03517l-95.348201 96.628043 120.305112 121.584953 94.70828-96.628042-119.665191-121.584954z" fill="#666666" p-id="22852"></path></svg>