<?xml version="1.0" standalone="no"?><!DOCTYPE svg PUBLIC "-//W3C//DTD SVG 1.1//EN" "http://www.w3.org/Graphics/SVG/1.1/DTD/svg11.dtd"><svg t="1709793961752" class="icon" viewBox="0 0 1024 1024" version="1.1" xmlns="http://www.w3.org/2000/svg" p-id="39371" xmlns:xlink="http://www.w3.org/1999/xlink" width="64" height="64"><path d="M430.218378 438.936216a148.341622 148.341622 0 0 1 209.781622 0l32.740324 32.740325 32.740325-32.712649a148.341622 148.341622 0 0 1 209.781621 209.781622l-207.567567 207.567567c-9.603459 9.631135-22.278919 14.391351-34.954379 14.391351-12.675459 0-25.323243-4.760216-34.954378-14.391351l-207.567568-207.567567a148.341622 148.341622 0 0 1 0-209.781622z" fill="#FFBEA3" p-id="39372"></path><path d="M30.609297 464.646919a233.139892 233.139892 0 0 1 285.557622-164.864l70.26854 18.819459 18.81946-70.240864a233.139892 233.139892 0 1 1 450.393946 120.665945l-119.392865 445.606055a77.215135 77.215135 0 0 1-36.282811 47.048648 77.215135 77.215135 0 0 1-58.893838 7.915243L195.473297 750.204541a233.139892 233.139892 0 0 1-164.864-285.557622z" fill="#FFBEA3" fill-opacity=".2" p-id="39373"></path></svg>