<?xml version="1.0" standalone="no"?><!DOCTYPE svg PUBLIC "-//W3C//DTD SVG 1.1//EN" "http://www.w3.org/Graphics/SVG/1.1/DTD/svg11.dtd"><svg t="1709794023982" class="icon" viewBox="0 0 1024 1024" version="1.1" xmlns="http://www.w3.org/2000/svg" p-id="40688" xmlns:xlink="http://www.w3.org/1999/xlink" width="64" height="64"><path d="M512 514m-448 0a448 448 0 1 0 896 0 448 448 0 1 0-896 0Z" fill="#69B452" p-id="40689"></path><path d="M275.55 384.55V715.6l-49.71-13.31a6.31 6.31 0 0 1-4.67-6.09V404a6.31 6.31 0 0 1 4.67-6.09zM748.45 384.55V715.6l49.71-13.31a6.31 6.31 0 0 0 4.67-6.09V404a6.31 6.31 0 0 0-4.67-6.09z" fill="#D1F0C7" p-id="40690"></path><path d="M674.51 577.1a21.05 21.05 0 1 0 21.05 21.05 21.08 21.08 0 0 0-21.05-21.05zM640.62 515.25a21.05 21.05 0 1 0 21.05 21.05 21.08 21.08 0 0 0-21.05-21.05zM602.78 577.1a21.05 21.05 0 1 0 21.05 21.05 21.08 21.08 0 0 0-21.05-21.05z" fill="#FFFFFF" p-id="40691"></path><path d="M275.54 384.54v331.05h472.95V384.54zM475.3 585.39a4.47 4.47 0 0 1-4.47 4.47h-46.58v46.58a4.47 4.47 0 0 1-4.47 4.47h-26.5a4.47 4.47 0 0 1-4.47-4.47v-46.58h-46.56a4.47 4.47 0 0 1-4.47-4.47v-26.5a4.47 4.47 0 0 1 4.47-4.47h46.58v-46.57a4.47 4.47 0 0 1 4.47-4.47h26.5a4.47 4.47 0 0 1 4.47 4.47v46.58h46.58a4.47 4.47 0 0 1 4.47 4.47z m127.49 42.16a29.39 29.39 0 1 1 29.39-29.39 29.43 29.43 0 0 1-29.4 29.39z m8.44-91.24a29.39 29.39 0 1 1 29.39 29.39 29.43 29.43 0 0 1-29.4-29.4z m63.29 91.24a29.39 29.39 0 1 1 29.39-29.39 29.43 29.43 0 0 1-29.4 29.39z" fill="#FFFFFF" p-id="40692"></path><path d="M602.78 374.75a13.9 13.9 0 0 1-13.19-9.54c-5.14-15.53-16.87-24.26-38-28.31s-48.14-2.42-74.14-0.83c-4.6 0.28-9.35 0.57-14 0.82-49.18 2.67-84.45-5.89-104.76-25.51-19.48-18.78-19.09-41.1-19-48.44v-0.88a13.9 13.9 0 0 1 27.8 0v1.37c-0.09 5.25-0.31 17.56 10.46 27.93 8.92 8.6 27.94 18.21 68.29 18.21 4.9 0 10.11-0.14 15.65-0.44 4.55-0.25 9.15-0.53 13.79-0.81 27.72-1.69 56.38-3.44 81.06 1.28 30.95 5.92 50.87 21.69 59.2 46.89a13.91 13.91 0 0 1-13.2 18.27z" fill="#D1F0C7" p-id="40693"></path></svg>