<?xml version="1.0" standalone="no"?><!DOCTYPE svg PUBLIC "-//W3C//DTD SVG 1.1//EN" "http://www.w3.org/Graphics/SVG/1.1/DTD/svg11.dtd"><svg t="1709794063955" class="icon" viewBox="0 0 1024 1024" version="1.1" xmlns="http://www.w3.org/2000/svg" p-id="41793" xmlns:xlink="http://www.w3.org/1999/xlink" width="64" height="64"><path d="M512.145703 81.129835c-238.223686 0-431.340989 193.117304-431.34099 431.339785 0 238.226094 193.117304 431.344602 431.34099 431.344602 238.220073 0 431.337377-193.118508 431.337377-431.344602 0-238.222481-193.119712-431.339785-431.337377-431.339785z m26.602156 268.065014c3.351159-18.257374 23.415967-29.873841 44.842672-25.953118 21.425501 3.908682 36.07764 21.898734 32.726481 40.156108-3.337913 18.246536-23.405129 29.875046-44.829426 25.94228-21.414664-3.921928-36.065598-21.911979-32.739727-40.14527z m-115.538517-6.518082c4.043547-22.081765 28.321688-36.137847 54.238681-31.392279 25.915789 4.733527 43.63611 26.487762 39.593767 48.581569-4.03873 22.055273-28.303625 36.11256-54.233864 31.366991-25.903748-4.746773-43.639723-26.487762-39.598584-48.556281z m-89.390327 95.412298c-34.281043-6.286885-57.723501-35.056518-52.393918-64.276504 5.353666-29.205536 37.474458-47.815727 71.778379-41.527638 34.269001 6.276047 57.722297 35.057722 52.393918 64.252421-5.35487 29.219986-37.499745 47.828973-71.778379 41.551721z m257.334804 303.095041c-46.941512 40.8208-102.062837 23.488216-118.391157-5.099589-16.325912-28.587806 17.347034-50.001265 13.26977-92.877555-4.080876-42.863044-47.962634-58.179875-65.310871-70.418891 0 0-41.84433-28.575764-32.665069-81.650028 9.188895-53.085102 127.590889-97.974736 212.286221-27.567888 84.718212 70.43334 37.763454 236.800376-9.188894 277.613951z m101.34757-331.911636c-2.692487 14.61481-18.778772 23.938569-35.931937 20.794525-17.176044-3.144044-28.915335-17.542107-26.231278-32.168958 2.669608-14.626851 18.753485-23.949407 35.917488-20.79332 17.179656 3.14284 28.917744 17.539698 26.245727 32.167753z" fill="#F3C97D" p-id="41794"></path></svg>