<?xml version="1.0" standalone="no"?><!DOCTYPE svg PUBLIC "-//W3C//DTD SVG 1.1//EN" "http://www.w3.org/Graphics/SVG/1.1/DTD/svg11.dtd"><svg t="1709794353738" class="icon" viewBox="0 0 1024 1024" version="1.1" xmlns="http://www.w3.org/2000/svg" p-id="48737" xmlns:xlink="http://www.w3.org/1999/xlink" width="64" height="64"><path d="M510.54537 31.907711c264.333294 0 478.617705 214.290551 478.617705 478.620775 0 264.335341-214.283388 478.613612-478.617705 478.613612S31.927665 774.863826 31.927665 510.528486C31.927665 246.198262 246.211053 31.907711 510.54537 31.907711L510.54537 31.907711zM589.938582 186.605002 589.938582 186.605002c0.019443 5.173836 0.428765 10.561543 1.214664 16.119119 5.803169 40.786938 30.497595 87.97568 64.176648 128.432091 33.586956 40.358173 75.355245 73.070202 115.284653 84.989673 10.069333 3.018753 19.910469 4.628414 29.297256 4.589528 37.72316-58.853409 34.471093-137.720641-13.178137-193.725166C737.162668 168.752402 655.472134 154.009629 589.938582 186.605002L589.938582 186.605002zM258.960425 634.383328c-0.506537 28.991288 14.100136 44.968168 42.066071 49.434899l307.645752-206.754924c-42.481534-26.875091-78.691223-71.122851-97.400331-117.700679L258.960425 634.383328 258.960425 634.383328zM268.997012 700.001815l-32.003901-30.764678c-37.625946 39.248909-48.038086 83.205027-37.85312 118.064976 5.108345 17.541515 15.32708 32.692586 29.848819 43.910069 14.112416 10.905374 32.081673 17.994839 53.153594 19.799952 53.550637 4.583388 130.007983-25.914206 213.751269-119.771851 65.798589-73.733305 122.666784-108.301612 167.698396-116.175953 22.506597-3.965312 41.625026-1.01819 56.925501 7.031137 15.307637 8.042163 27.343765 21.311375 35.509748 38.008662 14.566764 29.673833 17.267269 69.708642 5.621021 111.333668l42.780339 11.982916c14.626115-52.206012 10.634198-103.619986-8.581446-142.804427-12.32163-25.102724-30.79026-45.279253-54.646598-57.80759-23.837918-12.542664-52.550867-17.314341-85.261872-11.562337-54.06229 9.458419-120.04405 48.39522-193.269795 130.450051-72.849168 81.633229-135.195122 108.534925-176.871313 104.977913-12.223393-1.051959-22.234397-4.831029-29.673833-10.595312-6.992251-5.414313-11.912307-12.697183-14.385639-21.13639C235.694535 754.324024 243.44608 726.655871 268.997012 700.001815L268.997012 700.001815zM775.17747 449.330682c-49.752124-16.470113-99.464339-55.263651-138.511657-102.146425-35.554774-42.657542-62.891376-92.75452-73.947176-139.383514-29.212322 35.970236-41.085744 82.048691-34.652218 126.302591 17.878183 53.718459 64.241117 109.346407 115.928313 133.087111C687.345052 479.717759 735.170291 474.122321 775.17747 449.330682z" fill="#EF821B" p-id="48738"></path></svg>