<?xml version="1.0" standalone="no"?><!DOCTYPE svg PUBLIC "-//W3C//DTD SVG 1.1//EN" "http://www.w3.org/Graphics/SVG/1.1/DTD/svg11.dtd"><svg t="1709793905719" class="icon" viewBox="0 0 1024 1024" version="1.1" xmlns="http://www.w3.org/2000/svg" p-id="35776" xmlns:xlink="http://www.w3.org/1999/xlink" width="64" height="64"><path d="M911.89 829.75H743.26C834.18 753.86 892 639.69 892 512c0-228.49-185.19-413.71-413.67-413.71S64.62 283.51 64.62 512s185.22 413.71 413.71 413.71c2.94 0 5.87 0 8.79-0.1 1 0.06 1.94 0.1 2.92 0.1h421.85a47.49 47.49 0 0 0 47.49-47.49v-1a47.49 47.49 0 0 0-47.49-47.47z m-576.48-83.67a89 89 0 1 1 89-89 89 89 0 0 1-89 89z m0-290.21a89 89 0 1 1 89-89 89 89 0 0 1-89 89z m143.21 83.75a27.23 27.23 0 1 1 27.23-27.23 27.23 27.23 0 0 1-27.23 27.23z m142.62 206.46a89 89 0 1 1 89-89 89 89 0 0 1-89 89z m0-290.21a89 89 0 1 1 89-89 89 89 0 0 1-89 89z" fill="#D786EA" p-id="35777"></path><path d="M954.46 856.17a47.51 47.51 0 0 0-42.57-26.42H743.26C834.18 753.86 892 639.69 892 512a412 412 0 0 0-42.47-182.77 402.85 402.85 0 0 0-449.18-23.11 89 89 0 0 1-128.42 123.12A402.85 402.85 0 0 0 269.21 869a411.84 411.84 0 0 0 209.12 56.67c2.94 0 5.87 0 8.79-0.1 1 0.06 1.94 0.1 2.92 0.1h412.34a404.39 404.39 0 0 0 52.08-69.5z m-619-110.09a89 89 0 1 1 89-89 89 89 0 0 1-89.05 89z m143.16-206.46a27.23 27.23 0 1 1 27.23-27.23 27.23 27.23 0 0 1-27.23 27.23z m142.62 206.46a89 89 0 1 1 89-89 89 89 0 0 1-89 89z m0-290.21a89 89 0 1 1 89-89 89 89 0 0 1-89 89z" fill="#CA6EE0" p-id="35778"></path><path d="M709.38 379.15a89 89 0 0 1-152.67 49 404 404 0 0 0-77.87 57 27.23 27.23 0 1 1-27.42 28.26 403.4 403.4 0 0 0-54.56 79.33 89 89 0 0 1-44.25 151.66q-1.49 17.26-1.5 34.92a401.86 401.86 0 0 0 22.49 133 414.19 414.19 0 0 0 104.73 13.38c2.94 0 5.87 0 8.79-0.1 1 0.06 1.94 0.1 2.92 0.1h421.85a47.49 47.49 0 0 0 47.49-47.49v-1a47.49 47.49 0 0 0-47.49-47.49H743.26C834.18 753.86 892 639.69 892 512a413.62 413.62 0 0 0-16.66-116.55 402.52 402.52 0 0 0-121.67-18.72 408.23 408.23 0 0 0-44.29 2.42z m-88.14 366.93a89 89 0 1 1 89-89 89 89 0 0 1-89 89z" fill="#C65EDB" p-id="35779"></path><path d="M911.89 829.75H743.26C834.18 753.86 892 639.69 892 512q0-9.64-0.45-19.19a400.67 400.67 0 0 0-225.52 87.43A89 89 0 1 1 556 717.55a401 401 0 0 0-40.92 177q0 15.7 1.19 31.12h395.62a47.49 47.49 0 0 0 47.49-47.49v-1a47.49 47.49 0 0 0-47.49-47.43z" fill="#BD50D3" p-id="35780"></path><path d="M358.26 177c7.56 11.35-32.21 25.37-74.16 53.32s-70.2 59.26-77.76 47.91S222 228 263.92 200s86.77-34.36 94.34-23z" fill="#FFFFFF" p-id="35781"></path></svg>