<?xml version="1.0" standalone="no"?><!DOCTYPE svg PUBLIC "-//W3C//DTD SVG 1.1//EN" "http://www.w3.org/Graphics/SVG/1.1/DTD/svg11.dtd"><svg t="1709794190040" class="icon" viewBox="0 0 1024 1024" version="1.1" xmlns="http://www.w3.org/2000/svg" p-id="43198" xmlns:xlink="http://www.w3.org/1999/xlink" width="64" height="64"><path d="M497.8 487.6L496.5 290c-17.1-2.6-31.8-12.4-40.9-26.3-29.2 6.1-56.6 17.5-81.1 33.1 5.9 19.5 1.7 41.4-12.7 57.4l136 133.4z m-199.7 15.2v0.1l192.7-1.9-140-137.3c-15.1 10.2-33.9 12.8-50.8 7.7-15.6 24.6-27 52.2-33 81.9 17.8 9.7 30.1 28.1 31.1 49.5zM638.5 298c-25.2-16.5-53.3-28.2-83.1-34.3-9.7 14.8-25.8 25.1-44.5 26.8l1.3 196.9 140.3-137.6c-12.9-14.6-17.6-33.9-14-51.8zM360.6 656.3c13.8 14.2 19.2 33.6 16 51.8 0.1 0.1 0.2 0.1 0.2 0.2l88.3-154.6-104.5 102.6z m-63.5-138.9c-3.3 17.1-14 31.6-28.6 40.1 7 29.6 19.5 57.3 36.4 81.9 4.1-0.9 8.3-1.3 12.6-1.3 9.8 0 19 2.3 27.1 6.5 0.5 0.2 0.9 0.5 1.3 0.7h0.1c1.1 0.6 2.2 1.2 3.2 1.9l134.2-131.6-186.3 1.8z m420.7-4.1L526 515.2l134.3 131.7c14.2-11.4 32.4-15.3 49.3-11.9 16.3-24.7 28.2-52.6 34.7-82.8-13.5-8.6-23.4-22.6-26.5-38.9zM507.5 66.5c-247.9 0-448.9 201-448.9 448.9s201 448.9 448.9 448.9 448.9-201 448.9-448.9-201-448.9-448.9-448.9z m268.9 495.1c-2.2 0-4.4-0.1-6.5-0.4-6.9 31-19 59.8-35.2 85.4 1.8 1.4 3.5 2.9 5.1 4.6 23.3 23.3 23.3 61.1 0 84.4s-61.1 23.3-84.4 0c-1.6-1.6-3.1-3.3-4.5-5-1 0.6-2 1.3-3.1 1.9l44 77h34.1v23h-82.6v-23h27.4l-38.8-67.8c-21 11.1-43.5 19.4-67.1 24.7 0.2 2.1 0.4 4.3 0.3 6.4 0 33-26.7 59.7-59.7 59.7s-59.7-26.7-59.7-59.7c0-2.2 0.1-4.3 0.4-6.4-23.8-5.3-46.3-13.7-67.1-24.7l-38.8 67.9h27.5v23h-82.6v-23h34l38.1-66.7c-23.4 20.6-59.1 19.7-81.5-2.7-11.7-11.7-17.5-27-17.5-42.4h-0.4c0-18.8 8.6-35.5 22.1-46.4-17.2-26-29.9-55.1-37.3-86-1.4 0.1-2.7 0.2-4.1 0.2-33 0-59.7-26.8-59.7-59.7v-1.7-1.3-0.3c1.5-27.4 21.4-49.8 47.5-55.1 3.9-0.8 7.9-1.2 12.1-1.2 0.9 0 1.8 0 2.7 0.1 6.7-32.1 18.9-61.8 35.5-88.2-0.5-0.5-1-1-1.6-1.5-23.3-23.3-23.3-61.1 0-84.4s61.1-23.3 84.4 0c0.4 0.4 0.8 0.8 1.1 1.2 26-16.6 54.8-28.7 85.4-35.7-0.2-2.2-0.4-4.4-0.4-6.6 0-33 26.7-59.7 59.7-59.7s59.7 26.7 59.7 59.7c0 2.1-0.1 4.2-0.3 6.2 31 6.8 59.9 18.9 85.7 35.2 1.3-1.7 2.8-3.3 4.3-4.8 23.3-23.3 61.1-23.3 84.4 0 23.3 23.3 23.3 61.1 0 84.4-1.5 1.5-3.1 2.9-4.7 4.3 16.6 26.2 28.9 55.3 35.7 86.2 2-0.2 4.1-0.3 6.2-0.3 33 0 59.7 26.7 59.7 59.7 0.2 32.8-26.6 59.5-59.5 59.5z m-59.6-62.8c1-19.8 11.7-37.1 27.4-47.2-6.3-29.5-18.1-57.6-35.2-83.4-15.5 3.2-31.9 0.1-45.4-9L519.3 500.7l197.5-1.9z m-82.7 209.7c1.7-1 3.3-2.1 5-3.2-3.3-16.5 0.3-34.1 11.1-48.1L547 556.1l87.1 152.4z m-241.2 8.9c19.4 10.2 40.5 17.8 62.8 22.5 9.6-14.6 25.4-24.7 43.7-26.6l-1.2-180.2-105.3 184.3z m120.9-3.7c17.4 2.4 32.4 12.4 41.6 26.4 22.1-4.6 43.2-12.2 62.7-22.4L512.6 533l1.2 180.7z" fill="#6EB469" p-id="43199"></path></svg>