<?xml version="1.0" standalone="no"?><!DOCTYPE svg PUBLIC "-//W3C//DTD SVG 1.1//EN" "http://www.w3.org/Graphics/SVG/1.1/DTD/svg11.dtd"><svg t="1709794237962" class="icon" viewBox="0 0 1024 1024" version="1.1" xmlns="http://www.w3.org/2000/svg" p-id="44542" xmlns:xlink="http://www.w3.org/1999/xlink" width="64" height="64"><path d="M512 512m-477.866667 0a477.866667 477.866667 0 1 0 955.733334 0 477.866667 477.866667 0 1 0-955.733334 0Z" fill="#FFFFFF" p-id="44543"></path><path d="M699.733333 512a187.733333 187.733333 0 0 0-187.733333-187.733333V34.133333a477.866667 477.866667 0 0 1 477.866667 477.866667H699.733333z m-187.733333 477.866667A477.866667 477.866667 0 0 1 34.133333 512h290.133334a187.733333 187.733333 0 0 0 187.733333 187.733333v290.133334z" fill="#FCD9ED" p-id="44544"></path><path d="M989.184 537.6A477.866667 477.866667 0 0 1 537.6 989.149867V989.866667h-51.2v-0.7168A477.866667 477.866667 0 0 1 34.833067 537.6H34.133333v-51.2h0.699734A477.866667 477.866667 0 0 1 486.4 34.850133V34.133333h51.2v0.7168A477.866667 477.866667 0 0 1 989.184 486.4h0.682667v51.2h-0.682667zM486.4 937.813333V749.5168A238.848 238.848 0 0 1 274.517333 537.6H86.186667A426.666667 426.666667 0 0 0 486.4 937.813333z m0-851.626666A426.666667 426.666667 0 0 0 86.186667 486.4h188.356266A238.865067 238.865067 0 0 1 486.4 274.474667V86.186667zM512 324.266667a187.733333 187.733333 0 1 0 187.733333 187.733333 187.733333 187.733333 0 0 0-187.733333-187.733333z m25.6-238.08v188.296533A238.865067 238.865067 0 0 1 749.482667 486.4h188.330666A426.581333 426.581333 0 0 0 537.6 86.186667zM749.482667 537.6A238.848 238.848 0 0 1 537.6 749.5168V937.813333A426.581333 426.581333 0 0 0 937.813333 537.6H749.482667z" fill="#FF9DCA" p-id="44545"></path></svg>