<?xml version="1.0" standalone="no"?><!DOCTYPE svg PUBLIC "-//W3C//DTD SVG 1.1//EN" "http://www.w3.org/Graphics/SVG/1.1/DTD/svg11.dtd"><svg t="1710743541836" class="icon" viewBox="0 0 1024 1024" version="1.1" xmlns="http://www.w3.org/2000/svg" p-id="3005" xmlns:xlink="http://www.w3.org/1999/xlink" width="200" height="200"><path d="M678.4 544c19.2 0 32 12.8 32 32s-12.8 32-32 32h-89.6v108.8c0 19.2-12.8 32-32 32s-32-12.8-32-32V608h-89.6c-19.2 0-32-12.8-32-32s12.8-32 32-32h89.6v-57.6h-89.6c-19.2 0-32-12.8-32-32s12.8-32 32-32h64L428.8 352c-12.8-12.8-12.8-32 0-44.8s32-12.8 44.8 0l89.6 83.2 96-83.2c12.8-12.8 32-12.8 44.8 0s12.8 32 0 44.8l-76.8 70.4h57.6c19.2 0 32 12.8 32 32s-12.8 32-32 32h-96V544h89.6zM857.6 64h-640c-32 0-64 32-64 64v176H240a48 48 0 0 1 0 96h-86.4v224H240a48 48 0 0 1 0 96h-86.4v176c0 32 32 64 64 64h640c32 0 64-32 64-64V128c0-32-25.6-64-64-64z" fill="#1296DB" p-id="3006"></path><path d="M240 400h-96a48 48 0 0 1 0-96h96a48 48 0 0 1 0 96z m0 320h-96a48 48 0 0 1 0-96h96a48 48 0 0 1 0 96z" fill="#1296DB" p-id="3007"></path></svg>