<?xml version="1.0" standalone="no"?><!DOCTYPE svg PUBLIC "-//W3C//DTD SVG 1.1//EN" "http://www.w3.org/Graphics/SVG/1.1/DTD/svg11.dtd"><svg t="1708931700449" class="icon" viewBox="0 0 1024 1024" version="1.1" xmlns="http://www.w3.org/2000/svg" p-id="3339" xmlns:xlink="http://www.w3.org/1999/xlink" width="200" height="200"><path d="M213.742933 578.048l2.628267 224.904533a68.266667 68.266667 0 0 0 68.266667 67.447467h446.6688a68.266667 68.266667 0 0 0 68.266666-68.266667v-224.085333c66.730667-27.784533 100.078933-60.1088 100.078934-97.041067 0-55.3984 2.833067-140.0832-69.3248-229.5808-72.192-89.531733-187.665067-100.215467-213.060267-100.215466-25.429333 0-19.933867 100.215467-124.7232 100.215466S390.656 151.210667 380.859733 151.210667c-9.762133 0-115.9168 12.629333-186.7776 100.215466-70.894933 87.586133-77.0048 164.0448-77.0048 213.7088 0 49.698133 42.973867 84.616533 59.972267 93.184 11.332267 5.7344 23.552 12.288 36.693333 19.729067z" fill="#D3EDCA" p-id="3340"></path><path d="M776.192 201.966933c19.2512 12.970667 37.7856 29.184 54.135467 49.4592 64.7168 80.213333 69.12 156.603733 69.3248 211.456v18.090667c0 36.9664-33.348267 69.290667-100.078934 97.0752V802.133333a68.266667 68.266667 0 0 1-68.266666 68.266667H284.637867a68.266667 68.266667 0 0 1-68.266667-67.447467V802.133333h446.6688a68.266667 68.266667 0 0 0 68.266667-68.266666V607.573333a170.666667 170.666667 0 0 1 64.648533-133.7344c23.620267-18.773333 35.4304-39.082667 35.4304-61.098666v-18.090667c-0.170667-48.5376-3.652267-113.902933-49.2544-183.876267z" fill="#A0C394" p-id="3341"></path><path d="M617.2672 136.533333c-12.1856 0-19.694933 7.236267-26.624 19.968l-11.810133 24.405334-5.393067 10.4448a78.609067 78.609067 0 0 1-1.365333 2.4576c-16.7936 28.194133-39.7312 42.939733-79.530667 42.939733-40.072533 0-63.829333-15.291733-78.574933-42.427733a77.312 77.312 0 0 1-2.833067-5.973334l-3.072-7.5776-3.072-8.362666-4.164267-12.0832-3.754666-11.844267c-3.140267-7.168-7.304533-11.946667-16.213334-11.946667-3.140267 0-7.236267 0.341333-12.049066 1.024l-10.581334 1.774934a329.250133 329.250133 0 0 0-53.111466 15.428266c-47.104 18.1248-89.429333 46.626133-122.4704 87.415467C121.6512 317.576533 102.4 384.750933 102.4 465.134933c0 46.7968 34.030933 89.122133 68.027733 106.2912l8.533334 4.369067 8.840533 4.7104 11.332267 6.178133 2.56 216.439467a82.944 82.944 0 0 0 82.944 81.954133h446.6688l5.461333-0.170666a82.944 82.944 0 0 0 77.482667-82.773334l-0.034134-214.459733 8.192-3.652267c60.416-28.330667 91.921067-62.327467 91.921067-103.0144v-18.090666c-0.341333-88.029867-16.520533-151.210667-72.567467-220.706134C781.960533 168.072533 688.571733 136.533333 617.2672 136.533333z m0.750933 29.422934l-0.750933-0.068267c20.104533 0 52.360533 4.983467 84.309333 15.7696 46.592 15.701333 87.074133 41.472 117.316267 78.9504 51.165867 63.453867 65.774933 120.490667 66.082133 202.3424v18.056533c0 29.422933-29.184 57.7536-91.067733 83.490134a14.677333 14.677333 0 0 0-9.0112 13.550933V802.133333a53.589333 53.589333 0 0 1-53.589333 53.589334H284.637867a53.589333 53.589333 0 0 1-53.589334-52.9408l-2.628266-224.938667a14.677333 14.677333 0 0 0-7.4752-12.561067c-13.312-7.509333-25.736533-14.2336-37.2736-20.036266-25.088-12.663467-51.9168-46.08-51.9168-80.110934 0-74.1376 17.408-134.894933 73.728-204.458666 29.4912-36.522667 67.584-62.122667 110.1824-78.506667l6.280533-2.3552a298.1888 298.1888 0 0 1 44.680533-12.219733l5.358934-0.9216 0.580266 1.809066c3.549867 11.025067 10.24 29.934933 15.598934 39.8336 19.694933 36.283733 53.1456 57.787733 104.379733 57.787734 50.824533 0 82.944-20.650667 104.7552-57.275734l3.140267-5.666133 7.509333-14.984533 8.465067-17.646934 1.672533-3.037866c0.477867-1.024 0.512-1.4336-0.068267-1.536z" fill="#333333" p-id="3342"></path><path d="M339.797333 235.997867a14.677333 14.677333 0 0 1 20.002134 5.461333c28.433067 49.664 70.519467 73.966933 128.136533 73.966933 57.787733 0 99.9424-22.869333 128.3072-69.461333a14.677333 14.677333 0 0 1 25.053867 15.291733C607.573333 316.689067 555.8272 344.746667 487.936 344.746667c-68.130133 0-119.9104-29.934933-153.6-88.746667a14.677333 14.677333 0 0 1 5.461333-20.036267zM214.903467 471.381333a14.677333 14.677333 0 0 1 14.4384 12.049067l0.238933 2.6624v142.848a14.677333 14.677333 0 0 1-29.149867 2.628267l-0.2048-2.628267V486.058667a14.677333 14.677333 0 0 1 14.677334-14.677334zM799.607467 471.381333a14.677333 14.677333 0 0 1 14.4384 12.049067l0.238933 2.6624v142.848a14.677333 14.677333 0 0 1-29.115733 2.628267l-0.238934-2.628267V486.058667a14.677333 14.677333 0 0 1 14.677334-14.677334z" fill="#333333" p-id="3343"></path><path d="M405.162667 475.477333c-47.035733 6.587733-75.434667 51.438933-69.12 96.631467 6.3488 45.226667 46.045867 80.4864 93.0816 73.864533 47.035733-6.587733 75.4688-51.438933 69.12-96.631466-6.3488-45.226667-46.045867-80.4864-93.0816-73.864534z m8.0896 57.4464c13.038933-1.8432 25.361067 9.1136 27.511466 24.4736 2.184533 15.36-6.656 29.2864-19.694933 31.1296-13.073067 1.8432-25.3952-9.1136-27.5456-24.4736-2.1504-15.36 6.656-29.2864 19.729067-31.1296zM516.539733 518.792533a91.477333 91.477333 0 0 0-5.5296 77.550934c11.264 28.910933 37.102933 49.9712 68.881067 52.224 31.744 2.286933 60.3136-14.916267 75.537067-41.984a91.477333 91.477333 0 0 0 5.5296-77.5168c-11.264-28.910933-37.102933-50.005333-68.881067-52.224l-6.280533-0.2048-6.212267 0.273066c-26.624 2.389333-49.834667 18.432-63.044267 41.8816z m71.441067 15.906134c8.192 0.580267 15.394133 6.485333 18.875733 15.428266a33.4848 33.4848 0 0 1-1.979733 27.989334c-4.7104 8.362667-12.663467 13.175467-20.8896 12.5952-8.192-0.580267-15.394133-6.485333-18.875733-15.428267a33.4848 33.4848 0 0 1 1.979733-27.989333c4.130133-7.338667 10.752-11.946667 17.8176-12.561067l3.072-0.034133z" fill="#A0C394" p-id="3344"></path><path d="M412.808533 444.416c-20.616533 20.206933-29.218133 49.629867-25.224533 78.1312 3.9936 28.501333 20.3776 54.408533 45.7728 68.130133 30.685867 16.5888 67.584 11.400533 92.501333-12.970666 20.650667-20.241067 29.252267-49.629867 25.258667-78.165334-4.027733-28.4672-20.411733-54.3744-45.806933-68.096a77.9264 77.9264 0 0 0-87.722667 8.635734l-4.778667 4.369066z m40.618667 41.472a20.002133 20.002133 0 0 1 24.2688-3.413333c8.328533 4.471467 14.370133 14.062933 15.940267 25.156266 1.570133 11.093333-1.6384 21.981867-8.362667 28.603734a20.002133 20.002133 0 0 1-24.302933 3.413333c-8.2944-4.5056-14.336-14.097067-15.906134-25.1904-1.570133-11.093333 1.604267-21.981867 8.362667-28.5696z" fill="#A0C394" p-id="3345"></path><path d="M461.7216 472.064a97.006933 97.006933 0 0 0 1.774933 79.086933c13.9264 29.013333 42.154667 48.878933 75.229867 48.128 49.152-1.092267 81.578667-44.544 80.554667-91.204266l-0.3072-5.563734c-3.413333-42.530133-34.338133-79.735467-78.4384-81.851733l-5.802667-0.068267c-33.109333 0.750933-60.416 21.845333-73.0112 51.473067z m71.0656 6.894933l3.242667-0.341333c13.550933-0.341333 24.849067 13.448533 25.224533 30.754133 0.375467 17.3056-10.274133 31.607467-23.825067 31.914667-8.772267 0.170667-16.9984-5.597867-21.6064-15.189333a39.0144 39.0144 0 0 1-0.682666-31.3344c3.618133-8.567467 10.171733-14.336 17.646933-15.803734z" fill="#A0C394" p-id="3346"></path><path d="M495.616 494.830933l-6.724267 1.194667c-57.5488 10.205867-103.662933 54.4768-99.191466 113.698133 4.7104 61.986133 59.733333 96.3584 120.285866 91.921067 60.6208-4.437333 110.045867-46.626133 105.472-108.680533-4.1984-56.797867-50.2784-91.613867-106.496-97.211734l-13.346133-0.9216z m3.413333 58.333867c31.300267 1.8432 56.593067 17.476267 58.5728 44.066133 1.9456 26.624-21.504 44.305067-51.882666 46.523734-30.344533 2.2528-56.149333-11.810133-58.129067-38.4-2.048-26.589867 22.084267-47.0016 51.4048-52.224z" fill="#A0C394" p-id="3347"></path><path d="M409.156267 503.842133c-30.242133 4.266667-48.981333 33.826133-44.714667 64.273067 4.266667 30.481067 30.446933 53.725867 60.689067 49.493333 30.242133-4.266667 48.981333-33.826133 44.714666-64.3072-4.266667-30.446933-30.446933-53.691733-60.689066-49.4592z m4.096 29.0816c13.038933-1.8432 25.361067 9.1136 27.511466 24.4736 2.184533 15.36-6.656 29.2864-19.694933 31.1296-13.073067 1.8432-25.3952-9.1136-27.5456-24.4736-2.1504-15.36 6.656-29.2864 19.729067-31.1296zM541.525333 532.855467a62.805333 62.805333 0 0 0-3.754666 53.077333c7.3728 19.0464 24.029867 32.631467 44.1344 34.065067 20.138667 1.4336 38.5024-9.659733 48.5376-27.477334a62.805333 62.805333 0 0 0 3.754666-53.0432c-7.3728-19.0464-24.029867-32.631467-44.1344-34.065066-20.138667-1.4336-38.5024 9.659733-48.5376 27.4432z m46.421334 1.8432c8.226133 0.580267 15.428267 6.485333 18.909866 15.428266a33.4848 33.4848 0 0 1-1.979733 27.989334c-4.7104 8.362667-12.663467 13.175467-20.8896 12.5952-8.192-0.580267-15.394133-6.485333-18.875733-15.428267a33.4848 33.4848 0 0 1 1.979733-27.989333c4.130133-7.338667 10.752-11.946667 17.8176-12.561067l3.072-0.034133z" fill="#333333" p-id="3348"></path><path d="M432.878933 464.896c-13.755733 13.482667-19.694933 33.792-16.896 53.6576 2.798933 19.899733 14.097067 37.751467 31.0272 46.8992 19.626667 10.615467 42.871467 7.338667 58.811734-8.260267 13.755733-13.482667 19.694933-33.757867 16.896-53.623466-2.798933-19.899733-14.097067-37.751467-31.061334-46.933334a49.2544 49.2544 0 0 0-54.954666 4.881067l-3.822934 3.413333z m20.548267 20.992a20.002133 20.002133 0 0 1 24.2688-3.413333c8.328533 4.471467 14.370133 14.062933 15.940267 25.156266 1.570133 11.093333-1.6384 21.981867-8.362667 28.603734a20.002133 20.002133 0 0 1-24.302933 3.413333c-8.2944-4.5056-14.336-14.097067-15.906134-25.1904-1.570133-11.093333 1.604267-21.981867 8.362667-28.5696z" fill="#333333" p-id="3349"></path><path d="M535.3472 449.262933c-21.060267 0.477867-38.8096 14.199467-47.240533 33.9968a68.334933 68.334933 0 0 0 1.262933 55.5008c9.3184 19.456 27.648 32.324267 48.708267 31.8464 31.573333-0.682667 53.248-29.696 52.5312-61.883733-0.750933-32.1536-23.688533-60.177067-55.261867-59.460267z m-2.56 29.696l3.242667-0.341333c13.550933-0.341333 24.849067 13.448533 25.224533 30.754133 0.375467 17.3056-10.274133 31.607467-23.825067 31.914667-8.772267 0.170667-16.9984-5.597867-21.6064-15.189333a39.0144 39.0144 0 0 1-0.682666-31.3344c3.618133-8.567467 10.171733-14.336 17.646933-15.803734z" fill="#333333" p-id="3350"></path><path d="M500.736 523.844267l-6.826667 0.4096c-44.509867 7.850667-78.813867 40.8576-75.605333 83.319466 3.310933 43.963733 43.2128 68.881067 89.6 65.467734 46.3872-3.413333 82.2272-33.962667 78.9504-77.960534-3.106133-42.325333-39.8336-68.5056-86.1184-71.236266z m-1.706667 29.320533c31.300267 1.8432 56.593067 17.476267 58.5728 44.066133 1.9456 26.624-21.504 44.305067-51.882666 46.523734-30.344533 2.2528-56.149333-11.810133-58.129067-38.4-2.048-26.589867 22.084267-47.0016 51.4048-52.224z" fill="#333333" p-id="3351"></path><path d="M393.5232 564.053333c2.1504 15.36 14.472533 26.282667 27.5456 24.4736 13.038933-1.8432 21.845333-15.7696 19.694933-31.1296-2.1504-15.36-14.472533-26.282667-27.511466-24.4736-13.073067 1.8432-21.879467 15.7696-19.729067 31.1296zM584.021333 590.711467c8.192 0.580267 16.145067-4.232533 20.855467-12.5952a33.4848 33.4848 0 0 0 1.979733-27.989334c-3.4816-8.977067-10.683733-14.848-18.875733-15.428266-8.192-0.580267-16.1792 4.1984-20.8896 12.5952a33.4848 33.4848 0 0 0-1.979733 27.989333c3.4816 8.977067 10.683733 14.848 18.875733 15.428267zM445.064533 514.4576c1.536 11.093333 7.611733 20.6848 15.906134 25.1904a20.002133 20.002133 0 0 0 24.302933-3.413333c6.724267-6.621867 9.898667-17.5104 8.362667-28.603734-1.570133-11.093333-7.611733-20.6848-15.940267-25.156266a20.002133 20.002133 0 0 0-24.2688 3.413333c-6.7584 6.587733-9.9328 17.476267-8.362667 28.5696zM537.429333 541.2864c13.550933-0.341333 24.234667-14.609067 23.825067-31.914667-0.375467-17.3056-11.6736-31.061333-25.258667-30.754133-8.738133 0.170667-16.725333 6.3488-20.855466 16.145067-4.164267 9.796267-3.8912 21.7088 0.682666 31.3344 4.608 9.557333 12.834133 15.36 21.6064 15.189333zM557.602133 597.230933c1.9456 26.624-21.504 44.305067-51.882666 46.523734-30.344533 2.2528-56.149333-11.810133-58.129067-38.4-2.048-26.589867 22.084267-47.0016 51.4048-52.224 31.3344 1.877333 56.661333 17.5104 58.606933 44.100266z" fill="#FFD88E" p-id="3352"></path><path d="M278.7328 292.7616a17.066667 17.066667 0 0 1-3.754667 23.8592c-25.258667 18.363733-43.2128 48.264533-53.6576 90.385067a17.066667 17.066667 0 0 1-33.109333-8.260267c12.253867-49.390933 34.4064-86.2208 66.696533-109.738667a17.066667 17.066667 0 0 1 23.825067 3.754667z" fill="#EEFFE8" p-id="3353"></path></svg>