<?xml version="1.0" standalone="no"?><!DOCTYPE svg PUBLIC "-//W3C//DTD SVG 1.1//EN" "http://www.w3.org/Graphics/SVG/1.1/DTD/svg11.dtd"><svg t="1708931741665" class="icon" viewBox="0 0 1024 1024" version="1.1" xmlns="http://www.w3.org/2000/svg" p-id="4137" xmlns:xlink="http://www.w3.org/1999/xlink" width="200" height="200"><path d="M610.986667 136.533333a88.746667 88.746667 0 1 1-54.647467 158.685867l0.034133 183.773867c0 8.192-6.621867 14.813867-14.779733 14.813866h-59.1872a14.779733 14.779733 0 0 1-14.779733-14.813866V295.253333a88.746667 88.746667 0 1 1 22.869333-113.186133h42.973867A88.746667 88.746667 0 0 1 610.986667 136.533333z m-197.973334 44.373334a44.373333 44.373333 0 1 0 0 88.746666 44.373333 44.373333 0 0 0 0-88.746666z m197.973334 0a44.373333 44.373333 0 1 0 0 88.746666 44.373333 44.373333 0 0 0 0-88.746666z" fill="#B2C2DF" p-id="4138"></path><path d="M610.986667 136.533333a88.746667 88.746667 0 1 1-54.647467 158.685867l0.034133 183.773867c0 8.192-6.621867 14.813867-14.779733 14.813866h-59.1872a14.779733 14.779733 0 0 1-14.779733-14.813866V295.253333a88.746667 88.746667 0 1 1 22.869333-113.186133h42.973867A88.746667 88.746667 0 0 1 610.986667 136.533333z m0 25.429334c-23.210667 0-44.168533 12.5952-55.296 32.494933a25.429333 25.429333 0 0 1-18.773334 12.8l-3.447466 0.2048h-42.939734a25.429333 25.429333 0 0 1-22.186666-13.0048 63.2832 63.2832 0 0 0-118.647467 30.8224 63.317333 63.317333 0 0 0 97.3824 53.384533l4.881067-3.4816a25.463467 25.463467 0 0 1 40.8576 16.384l0.238933 3.652267v173.124267h37.853867V295.2192a25.463467 25.463467 0 0 1 38.0928-22.084267l3.003733 2.048A63.317333 63.317333 0 1 0 610.986667 161.9968z" fill="#333333" p-id="4139"></path><path d="M413.013333 180.906667a44.373333 44.373333 0 1 1 0 88.746666 44.373333 44.373333 0 0 1 0-88.746666z m0 25.429333a18.944 18.944 0 1 0 0 37.888 18.944 18.944 0 0 0 0-37.888zM610.986667 180.906667a44.373333 44.373333 0 1 1 0 88.746666 44.373333 44.373333 0 0 1 0-88.746666z m0 25.429333a18.944 18.944 0 1 0 0 37.888 18.944 18.944 0 0 0 0-37.888z" fill="#333333" p-id="4140"></path><path d="M238.353067 477.866667c-2.730667-37.444267 7.645867-67.857067 31.061333-91.170134 35.157333-34.986667 78.062933-37.444267 104.0384-20.7872 26.0096 16.657067 54.340267 67.037867 14.813867 111.957334-26.350933 29.934933-52.906667 46.08-79.735467 48.298666" fill="#C2CCDE" p-id="4141"></path><path d="M259.072 376.285867c37.205333-37.0688 87.517867-45.021867 122.299733-22.7328 41.984 26.897067 58.2656 88.1664 17.92 134.007466-28.672 32.5632-58.4704 50.619733-89.531733 53.248a14.677333 14.677333 0 1 1-2.4576-29.252266c22.528-1.911467 45.909333-16.042667 69.973333-43.383467 27.204267-30.958933 16.315733-71.918933-11.741866-89.9072-22.6304-14.506667-57.856-8.9088-85.742934 18.8416-20.309333 20.1728-29.218133 46.353067-26.794666 79.701333a14.677333 14.677333 0 0 1-29.2864 2.116267C220.706133 437.3504 232.448 402.773333 259.072 376.285867z" fill="#333333" p-id="4142"></path><path d="M208.384 457.728c233.403733-50.176 389.973333-75.946667 469.674667-77.448533a239.240533 239.240533 0 0 1 243.131733 222.993066l0.682667 10.1376a136.533333 136.533333 0 0 1-137.728 145.749334l-679.936-7.441067a68.266667 68.266667 0 0 1-67.447467-71.4752c1.1264-24.132267 2.218667-39.424 3.310933-45.909333A216.746667 216.746667 0 0 1 208.384 457.728z" fill="#C2CCDE" p-id="4143"></path><path d="M921.1904 603.272533l0.682667 10.1376a136.533333 136.533333 0 0 1-137.728 145.749334l-679.936-7.441067a68.266667 68.266667 0 0 1-67.515734-68.266667l679.185067 7.441067a136.533333 136.533333 0 0 0 137.728-145.749333l-0.682667-10.1376a238.250667 238.250667 0 0 0-38.843733-115.370667 239.0016 239.0016 0 0 1 107.1104 183.637333z" fill="#B2BDD0" p-id="4144"></path><path d="M382.976 653.5168a14.677333 14.677333 0 0 1-10.3424 17.988267l-32.3584 8.977066-19.729067 5.870934-15.6672 5.0176-8.157866 2.8672-6.2464 2.423466c-2.6624 1.1264-4.608 2.082133-5.802667 2.8672-4.7104 3.106133-10.0352 14.062933-14.1312 32.904534a14.677333 14.677333 0 1 1-28.672-6.2464c5.563733-25.7024 13.858133-42.769067 26.658133-51.2 1.877333-1.194667 4.437333-2.56 7.5776-3.9936l7.202134-3.003734 9.0112-3.310933 10.786133-3.618133 19.626667-6.0416 23.893333-6.826667 18.397867-5.0176a14.677333 14.677333 0 0 1 17.988266 10.3424zM758.442667 653.5168a14.677333 14.677333 0 0 1-10.3424 17.988267l-32.3584 8.977066-19.729067 5.870934-15.6672 5.0176-8.157867 2.8672-6.2464 2.423466c-2.6624 1.1264-4.608 2.082133-5.802666 2.8672-4.7104 3.106133-10.0352 14.062933-14.1312 32.904534a14.677333 14.677333 0 1 1-28.672-6.2464c5.563733-25.7024 13.858133-42.769067 26.658133-51.2 1.877333-1.194667 4.437333-2.56 7.5776-3.9936l7.202133-3.003734 9.0112-3.310933 10.786134-3.618133 19.626666-6.0416 23.893334-6.826667 18.397866-5.0176a14.677333 14.677333 0 0 1 17.988267 10.3424z" fill="#333333" p-id="4145"></path><path d="M162.133333 580.266667a34.133333 34.133333 0 1 0 68.266667 0 34.133333 34.133333 0 1 0-68.266667 0Z" fill="#333333" p-id="4146"></path><path d="M25.6 682.666667a34.133333 34.133333 0 1 0 68.266667 0 34.133333 34.133333 0 1 0-68.266667 0Z" fill="#333333" p-id="4147"></path><path d="M921.1904 603.272533l0.682667 10.1376a136.533333 136.533333 0 0 1-137.728 145.749334l-679.936-7.441067A68.266667 68.266667 0 0 1 36.864 687.786667l-0.1024-6.314667 1.024-20.548267 1.024-14.574933 0.648533-7.0656 0.648534-4.949333A216.746667 216.746667 0 0 1 208.384 457.728l37.205333-7.918933 70.3488-14.574934L365.226667 425.437867l46.1824-8.874667 43.144533-7.850667 27.101867-4.7104 25.736533-4.3008 24.3712-3.857066 23.04-3.447467 21.674667-3.003733 20.343466-2.594134 18.978134-2.1504 17.646933-1.7408 16.2816-1.297066 14.916267-0.887467 6.9632-0.273067 6.485333-0.170666a239.240533 239.240533 0 0 1 243.131733 222.993066z m-242.3808-193.6384l-6.2464 0.136534c-4.3008 0.170667-8.772267 0.341333-13.5168 0.648533l-14.779733 1.024-16.0768 1.4336-17.408 1.809067-18.6368 2.2528-30.4128 4.096-33.314134 5.0176-48.913066 8.0896-26.385067 4.642133-27.648 5.051733-43.895467 8.328534-46.762666 9.216-49.629867 10.1376-70.656 14.916266a187.2896 187.2896 0 0 0-143.9744 144.384l-1.4336 7.748267-0.546133 4.164267-0.887467 10.5472-1.262933 21.640533-0.375467 8.0896a38.912 38.912 0 0 0 34.235733 39.082667l4.266667 0.273066 679.936 7.441067a107.178667 107.178667 0 0 0 108.3392-108.3392l-0.238933-6.075733-0.682667-10.103467A209.851733 209.851733 0 0 0 686.557867 409.6h-7.748267z" fill="#333333" p-id="4148"></path><path d="M272.4864 512c-2.730667-37.444267 7.645867-67.857067 31.061333-91.170133 35.157333-34.986667 78.062933-37.444267 104.0384-20.7872 26.0096 16.657067 54.340267 67.037867 14.813867 111.957333-26.350933 29.934933-52.906667 46.08-79.735467 48.298667" fill="#C2CCDE" p-id="4149"></path><path d="M293.205333 410.4192c37.205333-37.0688 87.517867-45.021867 122.299734-22.7328 41.984 26.897067 58.2656 88.1664 17.92 134.007467-28.672 32.5632-58.4704 50.619733-89.531734 53.248a14.677333 14.677333 0 1 1-2.4576-29.252267c22.528-1.911467 45.909333-16.042667 69.973334-43.383467 27.204267-30.958933 16.315733-71.918933-11.741867-89.9072-22.6304-14.506667-57.856-8.9088-85.742933 18.8416-20.309333 20.1728-29.218133 46.353067-26.794667 79.701334a14.677333 14.677333 0 0 1-29.2864 2.116266C254.839467 471.483733 266.581333 436.906667 293.205333 410.4192zM869.034667 703.2832c72.021333 1.774933 111.3088 34.235733 111.3088 94.856533 0 59.904-45.192533 89.3952-127.419734 88.746667l-8.635733-0.2048h-280.541867a14.677333 14.677333 0 0 1-2.628266-29.115733l2.628266-0.238934h281.019734c73.693867 2.389333 106.222933-17.408 106.222933-59.1872 0-43.144533-25.361067-64.1024-82.670933-65.501866a14.677333 14.677333 0 0 1 0.7168-29.354667zM699.733333 487.560533c14.882133 0 36.2496 11.776 68.027734 35.601067a14.677333 14.677333 0 1 1-17.578667 23.483733l-10.786133-7.850666a415.061333 415.061333 0 0 0-4.983467-3.4816l-9.147733-6.075734-7.953067-4.881066c-8.567467-4.949333-14.609067-7.441067-17.578667-7.441067l-4.573866 0.273067-11.025067 1.2288-38.775467 5.393066-69.632 10.581334-39.5264 6.280533a14.677333 14.677333 0 0 1-4.642133-29.013333l91.3408-14.199467 47.7184-6.8608 18.773333-2.286933 8.942934-0.7168 1.399466-0.034134z" fill="#333333" p-id="4150"></path><path d="M793.7024 491.076267a17.066667 17.066667 0 1 1-27.818667 19.797333c-21.162667-29.832533-69.085867-39.424-145.92-25.736533a17.066667 17.066667 0 1 1-5.973333-33.5872c88.405333-15.7696 149.060267-3.618133 179.712 39.5264zM512 273.066667a17.066667 17.066667 0 0 1 16.7936 13.994666l0.273067 3.072v68.266667a17.066667 17.066667 0 0 1-33.860267 3.072L494.933333 358.4v-68.266667A17.066667 17.066667 0 0 1 512 273.066667z" fill="#D4E3FF" p-id="4151"></path></svg>