<?xml version="1.0" standalone="no"?><!DOCTYPE svg PUBLIC "-//W3C//DTD SVG 1.1//EN" "http://www.w3.org/Graphics/SVG/1.1/DTD/svg11.dtd"><svg t="1709793374209" class="icon" viewBox="0 0 1024 1024" version="1.1" xmlns="http://www.w3.org/2000/svg" p-id="29155" xmlns:xlink="http://www.w3.org/1999/xlink" width="64" height="64"><path d="M511.999488 64.021106c-247.27171 0-447.724091 200.452381-447.724091 447.724091s200.452381 447.724091 447.724091 447.724091 447.724091-200.453405 447.724091-447.724091S759.271198 64.021106 511.999488 64.021106zM720.771349 725.320457c-13.422707 13.670348-36.040844 20.25737-67.855434 19.761066l-57.663304 0c-44.407396 0-66.611094-24.855084-66.611094-74.566276L528.641517 534.807449l-55.923684 2.485611c-8.286734 114.00245-61.723783 187.239452-160.313196 219.718167-20.218484-27.507494-36.950564-48.88436-50.207495-64.126506 85.501326-23.692608 132.724861-74.315566 141.67265-151.862733-33.80185 2.155083-59.650565 4.393054-77.547167 6.711865l-25.849738-59.155285c36.948517-21.872147 75.722612-56.171324 116.321262-102.899578L270.152325 385.67899l0-65.617463 202.317868 0-17.895579-41.257659 72.576969-15.908318 23.362081 57.165977 194.863083 0 0 65.617463-238.358713 0c-29.495778 32.311917-62.222133 64.292282-98.175997 95.939049 46.560432-0.660032 109.361757-2.318812 188.400904-4.969175l-53.190433-52.195779 48.713468-37.779442c51.034327 44.077891 99.917664 88.98159 146.644895 134.714168l-51.201126 48.218188-37.282115-38.773072-52.693106 1.739621 0 126.014018c0 17.235546 8.78099 25.849738 26.346041 25.849738l19.386536 0c14.579043 0 24.191982-4.597715 28.831652-13.794168 4.637624-9.195429 8.947789-33.759895 12.925381-73.695442 18.555611 8.619308 41.756009 17.733896 69.594031 27.340695C745.707274 677.972079 734.19201 711.651133 720.771349 725.320457z" fill="#B15FC6" p-id="29156"></path></svg>