<?xml version="1.0" standalone="no"?><!DOCTYPE svg PUBLIC "-//W3C//DTD SVG 1.1//EN" "http://www.w3.org/Graphics/SVG/1.1/DTD/svg11.dtd"><svg t="1709797540962" class="icon" viewBox="0 0 1024 1024" version="1.1" xmlns="http://www.w3.org/2000/svg" p-id="121000" xmlns:xlink="http://www.w3.org/1999/xlink" width="64" height="64"><path d="M512 0c-282.624 0-512 229.376-512 512s229.376 512 512 512S1024 794.624 1024 512s-229.376-512-512-512z m224.256 418.816c-11.264 18.432-37.376 61.952-40.448 66.048-6.144 6.656-13.312 0.512-13.312 0.512l-87.04-48.64 43.52 228.352c-49.664 16.896-127.488 20.48-127.488 20.48-61.952 0-127.488-21.504-127.488-21.504l38.912-226.304-80.384 46.592c-7.68 6.656-14.336 1.024-14.336 1.024l-40.96-62.976c-4.608-8.192-0.512-13.312-0.512-13.312l96.256-56.32c11.776-11.776 44.032-14.336 44.032-14.336h27.648c-1.024 53.76 56.832 56.832 56.832 56.832 58.368 0 57.344-56.832 57.344-56.832h27.648c31.744 0 43.52 14.336 43.52 14.336l95.744 56.832c0-0.512 5.632 0 0.512 9.216z" fill="#DD7676" p-id="121001"></path></svg>