<?xml version="1.0" standalone="no"?><!DOCTYPE svg PUBLIC "-//W3C//DTD SVG 1.1//EN" "http://www.w3.org/Graphics/SVG/1.1/DTD/svg11.dtd"><svg t="1709797073362" class="icon" viewBox="0 0 1024 1024" version="1.1" xmlns="http://www.w3.org/2000/svg" p-id="99355" xmlns:xlink="http://www.w3.org/1999/xlink" width="64" height="64"><path d="M512 512m-512 0a512 512 0 1 0 1024 0 512 512 0 1 0-1024 0Z" fill="#FB5C57" p-id="99356"></path><path d="M195.047619 195.047619h585.142857v585.142857H195.047619z" fill-opacity="0" p-id="99357"></path><path d="M170.666667 170.666667h682.666666v682.666666H170.666667z" fill-opacity="0" p-id="99358"></path><path d="M521.752381 238.933333l2.438095 2.438096c29.257143 21.942857 56.07619 53.638095 78.019048 97.523809 31.695238-14.628571 68.266667-21.942857 107.27619-21.942857h4.876191c7.314286 0 14.628571 4.87619 17.066666 12.190476 29.257143 68.266667 19.504762 160.914286-24.380952 234.057143-36.571429 63.390476-92.647619 102.4-160.914286 109.714286h-17.066666v97.523809c0 12.190476-9.752381 19.504762-19.504762 19.504762s-19.504762-9.752381-19.504762-19.504762v-97.523809h-17.066667c-68.266667-9.752381-124.342857-46.32381-160.914286-109.714286-43.885714-73.142857-53.638095-165.790476-24.380952-234.057143 4.87619-9.752381 12.190476-14.628571 19.504762-14.628571h4.87619c39.009524 0 73.142857 7.314286 104.838096 21.942857 24.380952-41.447619 48.761905-75.580952 78.019047-95.085714 2.438095-2.438095 2.438095-2.438095 4.876191-2.438096 9.752381-4.87619 17.066667-4.87619 21.942857 0z m-60.952381 499.809524c7.314286 7.314286 7.314286 21.942857-2.438095 26.819048-4.87619 2.438095-7.314286 4.87619-12.190476 4.87619s-9.752381-2.438095-14.628572-7.314285c-48.761905-53.638095-126.780952-58.514286-136.533333-58.514286-9.752381 0-19.504762-9.752381-19.504762-19.504762s9.752381-19.504762 19.504762-19.504762h2.438095c12.190476 2.438095 102.4 7.314286 163.352381 73.142857zM731.428571 668.038095c12.190476 0 19.504762 9.752381 19.504762 19.504762s-9.752381 19.504762-19.504762 19.504762-85.333333 2.438095-136.533333 58.514286c-4.87619 4.87619-9.752381 7.314286-14.628571 7.314285-4.87619 0-9.752381-2.438095-14.628572-4.87619-7.314286-7.314286-9.752381-19.504762 0-26.819048 63.390476-73.142857 160.914286-73.142857 165.790476-73.142857z" fill="#FFFFFF" p-id="99359"></path></svg>