<?xml version="1.0" standalone="no"?><!DOCTYPE svg PUBLIC "-//W3C//DTD SVG 1.1//EN" "http://www.w3.org/Graphics/SVG/1.1/DTD/svg11.dtd"><svg t="1709797483985" class="icon" viewBox="0 0 1024 1024" version="1.1" xmlns="http://www.w3.org/2000/svg" p-id="119936" xmlns:xlink="http://www.w3.org/1999/xlink" width="64" height="64"><path d="M137.4 754.7m-81 0a81 81 0 1 0 162 0 81 81 0 1 0-162 0Z" fill="#FFAFAF" p-id="119937"></path><path d="M794.4 475.7m-81 0a81 81 0 1 0 162 0 81 81 0 1 0-162 0Z" fill="#FFAFAF" p-id="119938"></path><path d="M676.05 738.05m-196.65 0a196.65 196.65 0 1 0 393.3 0 196.65 196.65 0 1 0-393.3 0Z" fill="#FFAFAF" p-id="119939"></path><path d="M334.5 375.8m-269.1 0a269.1 269.1 0 1 0 538.2 0 269.1 269.1 0 1 0-538.2 0Z" fill="#FFAFAF" p-id="119940"></path><path d="M652.77 124.7m9.34 0l93.77 0q9.34 0 9.34 9.34l0 6.58q0 9.34-9.34 9.34l-93.77 0q-9.34 0-9.34-9.34l0-6.58q0-9.34 9.34-9.34Z" fill="#FF6E6E" p-id="119941"></path><path d="M565.06 202.13m0 10.79l0 11.42q0 10.79-10.79 10.79l-161.68 0q-10.79 0-10.79-10.79l0-11.42q0-10.79 10.79-10.79l161.68 0q10.79 0 10.79 10.79Z" fill="#AFADAD" p-id="119942"></path><path d="M652.77 125.08m12 0l22.33 0q12 0 12 12l0 109.65q0 12-12 12l-22.33 0q-12 0-12-12l0-109.65q0-12 12-12Z" fill="#FF6E6E" p-id="119943"></path><path d="M378.75 202.12m12 0l28.47 0q12 0 12 12l0 61.89q0 12-12 12l-28.47 0q-12 0-12-12l0-61.89q0-12 12-12Z" fill="#AFADAD" p-id="119944"></path><path d="M623.23 214.62m12 0l81.18 0q12 0 12 12l0 102.97q0 12-12 12l-81.18 0q-12 0-12-12l0-102.97q0-12 12-12Z" fill="#AFADAD" p-id="119945"></path><path d="M361.7 256.96m12 0l62.57 0q12 0 12 12l0 79.51q0 12-12 12l-62.57 0q-12 0-12-12l0-79.51q0-12 12-12Z" fill="#AFADAD" p-id="119946"></path><path d="M555.1 310.2m12 0l213.91 0q12 0 12 12l0 334.18q0 12-12 12l-213.91 0q-12 0-12-12l0-334.18q0-12 12-12Z" fill="#F1DDD5" p-id="119947"></path><path d="M615.41 384.33m12 0l93.29 0q12 0 12 12l0 152.59q0 12-12 12l-93.29 0q-12 0-12-12l0-152.59q0-12 12-12Z" fill="#FF6E6E" p-id="119948"></path><path d="M283.25 318.48m12 0l218.52 0q12 0 12 12l0 358.38q0 12-12 12l-218.52 0q-12 0-12-12l0-358.38q0-12 12-12Z" fill="#FF6E6E" p-id="119949"></path><path d="M405.24 481.14m-68.92 0a68.92 68.92 0 1 0 137.84 0 68.92 68.92 0 1 0-137.84 0Z" fill="#F1DDD5" p-id="119950"></path><path d="M225.64 521.82m12 0l598.54 0q12 0 12 12l0 352.88q0 12-12 12l-598.54 0q-12 0-12-12l0-352.88q0-12 12-12Z" fill="#72C1E8" p-id="119951"></path><path d="M354.73 615.16m12 0l340.36 0q12 0 12 12l0 43.71q0 12-12 12l-340.36 0q-12 0-12-12l0-43.71q0-12 12-12Z" fill="#AFADAD" p-id="119952"></path><path d="M863.1 193.29h-0.05c-24.72-5.83-35.2-28.89-38.1-36.74a1 1 0 0 0-1.8 0c-3 7.81-13.68 30.77-38.46 36.36h-0.09a1 1 0 0 0-0.23 1.81c10.46 5 36.82 20.12 39.09 47.37h0.34c2.51-27.4 29-42.16 39.51-47a1 1 0 0 0-0.21-1.8zM189.68 511.71h-0.05c-24.72-5.83-35.2-28.89-38.1-36.73a1 1 0 0 0-1.8 0c-3 7.82-13.68 30.77-38.46 36.36h-0.08a1 1 0 0 0-0.24 1.81c10.46 5 36.82 20.12 39.09 47.37h0.34c2.51-27.39 29-42.16 39.51-47a1 1 0 0 0-0.21-1.81z" fill="#FFCD2C" p-id="119953"></path></svg>