<?xml version="1.0" standalone="no"?><!DOCTYPE svg PUBLIC "-//W3C//DTD SVG 1.1//EN" "http://www.w3.org/Graphics/SVG/1.1/DTD/svg11.dtd"><svg t="1709797171709" class="icon" viewBox="0 0 1024 1024" version="1.1" xmlns="http://www.w3.org/2000/svg" p-id="108537" xmlns:xlink="http://www.w3.org/1999/xlink" width="64" height="64"><path d="M511.994264 511.994264m-511.994264 0a511.994264 511.994264 0 1 0 1023.988529 0 511.994264 511.994264 0 1 0-1023.988529 0Z" fill="#28176D" p-id="108538"></path><path d="M319.587754 483.843929h56.10566v213.777364H161.91605v-56.10566A157.671704 157.671704 0 0 1 319.587754 483.843929z" fill="#FFFFFF" p-id="108539"></path><path d="M161.91605 697.621293h437.236425v52.262808H161.91605z" fill="#F8C642" p-id="108540"></path><path d="M599.163946 697.621293h262.920004v52.262808h-262.920004z" fill="#FC3A64" p-id="108541"></path><path d="M375.693414 483.843929s214.947427-28.838608 271.431638-65.844713c1.950105 0 170.920945 68.827226 214.947427 70.433195-2.672791 1.628911 0 209.188883 0 209.188882h-486.379065z" fill="#7B49B6" p-id="108542"></path><path d="M403.419315 436.502268l50.633896 0 0 171.379794-50.633896 0 0-171.379794Z" fill="#F8C642" p-id="108543"></path><path d="M476.192636 436.502268l50.633896 0 0 171.379794-50.633896 0 0-171.379794Z" fill="#FFFFFF" p-id="108544"></path><path d="M548.53005 405.346477l50.633896 0 0 202.547056-50.633896 0 0-202.547056Z" fill="#F8C642" p-id="108545"></path><path d="M655.177837 483.843929m-30.731356 0a30.731356 30.731356 0 1 0 61.462713 0 30.731356 30.731356 0 1 0-61.462713 0Z" fill="#FFFFFF" p-id="108546"></path><path d="M644.624329 487.744138c-3.510189-9.509628-4.95556-19.696058-6.355047-29.549822-4.175518-29.446582-8.500162-59.902629-68.081598-86.905844-126.791222-57.447791-78.944828-169.085552-55.945064-222.736375l20.648168 8.86724c-31.454042 73.415708-53.914661 148.770049 44.554158 193.393035 70.834687 32.119372 76.512933 72.085048 81.067001 104.227363 1.319189 9.073723 2.581021 17.677126 5.219398 24.903984z" fill="#FC3A64" p-id="108547"></path></svg>