<?xml version="1.0" standalone="no"?><!DOCTYPE svg PUBLIC "-//W3C//DTD SVG 1.1//EN" "http://www.w3.org/Graphics/SVG/1.1/DTD/svg11.dtd"><svg t="1709797014758" class="icon" viewBox="0 0 1024 1024" version="1.1" xmlns="http://www.w3.org/2000/svg" p-id="93081" xmlns:xlink="http://www.w3.org/1999/xlink" width="64" height="64"><path d="M513.9968 511.3856m-450.816 0a450.816 450.816 0 1 0 901.632 0 450.816 450.816 0 1 0-901.632 0Z" fill="#FF5C64" p-id="93082"></path><path d="M278.272 777.984c-9.3184-84.5312-18.5856-168.704-27.904-253.5424h-24.6272c-21.5552 0-39.0144-17.4592-39.0144-39.0144v-50.176c0-21.5552 17.4592-39.0144 39.0144-39.0144h24.3712c11.1616-74.1888 46.336-133.632 106.9056-177.152 44.6976-32.1024 95.232-46.7456 150.016-47.0528 108.1856-0.6144 233.8304 78.9504 253.696 224h27.8528c21.5552 0 39.0144 17.4592 39.0144 39.0144v49.8688c0 21.5552-17.4592 39.0144-39.0144 39.0144h-24.3712c-9.8816 85.0432-19.6608 169.472-29.4912 254.2592a39.03488 39.03488 0 0 1-38.7584 34.56h-378.88c-19.9168 0.0512-36.608-14.9504-38.8096-34.7648z m416.4608-382.4128C683.776 313.5488 607.232 234.0864 503.1936 235.52c-108.288 1.4848-177.92 84.9408-187.5968 160.0512h379.136z m-284.0576 321.0752v-159.9488H346.7776v159.9488h63.8976z m128.6656 0v-159.9488H475.392v159.9488h63.9488z m128-159.7952h-63.3856v159.6416h63.3856v-159.6416z" fill="#FFFFFF" p-id="93083"></path></svg>