<?xml version="1.0" standalone="no"?><!DOCTYPE svg PUBLIC "-//W3C//DTD SVG 1.1//EN" "http://www.w3.org/Graphics/SVG/1.1/DTD/svg11.dtd"><svg t="1709797331713" class="icon" viewBox="0 0 1024 1024" version="1.1" xmlns="http://www.w3.org/2000/svg" p-id="112708" xmlns:xlink="http://www.w3.org/1999/xlink" width="64" height="64"><path d="M763.12 365.58h-62.17l22.72-139.83c3.82-23.48 2.96-47.88-5.37-70.16-19.98-53.43-71.64-91.73-131.82-91.73H438.25c-60.18 0-111.84 38.3-131.82 91.73-8.33 22.28-9.19 46.68-5.37 70.16l22.5 138.45h-61.94c-16.08 0-29.24 13.16-29.24 29.24v235.17c0 16.08 13.16 29.24 29.24 29.24h62.28l-22.64 138.69c-4.55 27.9-2.23 57.01 9.94 82.52 22.65 47.48 71.18 80.49 127.05 80.49h148.22c55.87 0 104.4-33.01 127.05-80.49 12.17-25.51 14.5-54.63 9.94-82.52l-22.42-137.32h62.06c16.08 0 29.24-13.16 29.24-29.24V394.82c0.01-16.08-13.14-29.24-29.22-29.24z m-104.21 4.36c0.93 6.07 1.48 12.26 1.62 18.37 0.05 2.47-1.9 4.52-4.37 4.58h-0.1c-2.42 0-4.41-1.93-4.47-4.37-0.13-5.73-0.64-11.53-1.51-17.23-0.38-2.44 1.3-4.72 3.75-5.1 2.41-0.34 4.7 1.3 5.08 3.75z m-16.07-37.73c2.3-1 4.9 0.05 5.89 2.32 2.43 5.62 4.53 11.47 6.23 17.37 0.68 2.38-0.69 4.86-3.06 5.54-0.42 0.12-0.83 0.18-1.24 0.18-1.95 0-3.73-1.28-4.3-3.23-1.6-5.55-3.57-11.03-5.85-16.29a4.5 4.5 0 0 1 2.33-5.89z m-19.18-30.09a4.457 4.457 0 0 1 6.28 0.78c3.8 4.88 7.31 10.01 10.4 15.25 1.26 2.12 0.55 4.87-1.58 6.13-0.71 0.42-1.49 0.62-2.27 0.62-1.53 0-3.01-0.79-3.85-2.2-2.89-4.9-6.18-9.71-9.75-14.29a4.474 4.474 0 0 1 0.77-6.29z m-26.1-24.39a4.505 4.505 0 0 1 6.28-0.81c4.87 3.76 9.53 7.86 13.87 12.18a4.472 4.472 0 0 1 0 6.33 4.469 4.469 0 0 1-6.32 0c-4.06-4.05-8.44-7.9-13.01-11.41-1.96-1.52-2.32-4.34-0.82-6.29z m16.34 120.3v228.75c0 50.89-41.63 92.52-92.52 92.52h-18.03c-50.89 0-92.52-41.63-92.52-92.52V398.03c0-50.89 41.63-92.52 92.52-92.52h18.03c50.89 0 92.52 41.63 92.52 92.52z m-47.68-137.4a4.476 4.476 0 0 1 5.87-2.36c5.61 2.39 11.16 5.2 16.47 8.33a4.462 4.462 0 0 1 1.59 6.12 4.453 4.453 0 0 1-6.11 1.59c-5-2.93-10.2-5.56-15.46-7.8a4.476 4.476 0 0 1-2.36-5.88z m-29.58-12.37c6.05 0.89 12.11 2.19 18.04 3.85a4.47 4.47 0 0 1 3.09 5.52 4.482 4.482 0 0 1-4.31 3.26c-0.4 0-0.8-0.05-1.21-0.17-5.55-1.56-11.25-2.78-16.92-3.63a4.466 4.466 0 0 1-3.77-5.08c0.36-2.43 2.68-4.06 5.08-3.75zM499.99 247c3.08-0.2 6.17-0.3 9.29-0.3l8.97 0.03c2.47 0.05 4.43 2.09 4.39 4.56-0.06 2.46-2.15 4.11-4.56 4.39l-8.8-0.03c-2.93 0-5.83 0.1-8.71 0.28-0.1 0.01-0.19 0.01-0.3 0.01-2.33 0-4.3-1.82-4.46-4.19a4.475 4.475 0 0 1 4.18-4.75z m-36.15 7.03c5.83-1.94 11.83-3.51 17.85-4.68 2.4-0.41 4.78 1.11 5.25 3.54 0.46 2.43-1.12 4.78-3.54 5.25a131.9 131.9 0 0 0-16.73 4.39 4.488 4.488 0 0 1-5.67-2.83c-0.77-2.36 0.49-4.89 2.84-5.67z m-33.18 15.95c5.14-3.33 10.54-6.37 16.06-9.04 2.23-1.05 4.9-0.14 5.98 2.08 1.07 2.23 0.14 4.9-2.08 5.98-5.19 2.51-10.27 5.37-15.1 8.49-0.75 0.48-1.59 0.72-2.43 0.72-1.46 0-2.9-0.72-3.76-2.04a4.487 4.487 0 0 1 1.33-6.19z m-28.12 23.76c4.16-4.52 8.64-8.81 13.32-12.76 1.89-1.57 4.72-1.35 6.3 0.53a4.47 4.47 0 0 1-0.53 6.3c-4.39 3.7-8.59 7.74-12.5 11.99-0.88 0.95-2.09 1.44-3.29 1.44a4.47 4.47 0 0 1-3.03-1.18 4.465 4.465 0 0 1-0.27-6.32z m-34.43 64.46c1.43-5.99 3.27-11.93 5.45-17.65a4.491 4.491 0 0 1 5.78-2.58c2.31 0.87 3.46 3.46 2.58 5.78-2.04 5.36-3.76 10.92-5.1 16.53a4.471 4.471 0 0 1-4.35 3.43 4.48 4.48 0 0 1-4.36-5.51z m-3.95 33.63c0-5.14 0.28-10.33 0.82-15.42 0.27-2.46 2.63-4.22 4.92-3.98 2.46 0.26 4.24 2.46 3.98 4.92-0.51 4.79-0.77 9.66-0.77 14.48v2.9c0 2.47-2 4.47-4.47 4.47-2.47 0-4.47-2-4.47-4.47v-2.9z m0 20.79c0-2.47 2-4.47 4.47-4.47 2.47 0 4.47 2 4.47 4.47v17.9c0 2.47-2 4.47-4.47 4.47-2.47 0-4.47-2-4.47-4.47v-17.9z m0 35.8c0-2.47 2-4.47 4.47-4.47 2.47 0 4.47 2 4.47 4.47v17.9c0 2.47-2 4.47-4.47 4.47-2.47 0-4.47-2-4.47-4.47v-17.9z m0 35.79c0-2.47 2-4.47 4.47-4.47 2.47 0 4.47 2 4.47 4.47v17.9c0 2.47-2 4.47-4.47 4.47-2.47 0-4.47-2-4.47-4.47v-17.9z m0 35.79c0-2.47 2-4.47 4.47-4.47 2.47 0 4.47 2 4.47 4.47v17.9c0 2.47-2 4.47-4.47 4.47-2.47 0-4.47-2-4.47-4.47V520z m0 35.79c0-2.47 2-4.47 4.47-4.47 2.47 0 4.47 2 4.47 4.47v17.9c0 2.47-2 4.47-4.47 4.47-2.47 0-4.47-2-4.47-4.47v-17.9z m0 35.8c0-2.47 2-4.47 4.47-4.47 2.47 0 4.47 2 4.47 4.47v17.9c0 2.47-2 4.47-4.47 4.47-2.47 0-4.47-2-4.47-4.47v-17.9z m0.55 54.06c-0.37-4.18-0.56-8.4-0.55-12.68v-5.59c0-2.47 2-4.47 4.47-4.47 2.47 0 4.47 2 4.47 4.47v5.6c-0.01 4.01 0.17 7.97 0.52 11.88 0.22 2.46-1.6 4.63-4.06 4.85-0.13 0.01-0.26 0.02-0.4 0.02-2.3 0-4.24-1.75-4.45-4.08z m12.09 38.94a4.47 4.47 0 0 1-4.21-2.96c-2.07-5.76-3.78-11.73-5.09-17.74-0.53-2.41 1-4.8 3.42-5.32 2.4-0.49 4.81 1 5.32 3.42a133.79 133.79 0 0 0 4.78 16.62 4.48 4.48 0 0 1-2.7 5.72c-0.51 0.17-1.02 0.26-1.52 0.26z m18.74 31a4.467 4.467 0 0 1-6.22-1.18c-3.47-5.1-6.63-10.43-9.4-15.85a4.47 4.47 0 0 1 1.95-6.02c2.22-1.09 4.9-0.25 6.02 1.95 2.6 5.09 5.57 10.1 8.83 14.89 1.39 2.03 0.86 4.82-1.18 6.21z m2.68-402.32c-3.33 4.67-6.4 9.63-9.11 14.72a4.487 4.487 0 0 1-3.95 2.37c-0.72 0-1.44-0.17-2.11-0.52a4.469 4.469 0 0 1-1.84-6.06c2.9-5.43 6.18-10.71 9.73-15.69 1.43-2.01 4.23-2.47 6.24-1.05 2 1.42 2.47 4.22 1.04 6.23z m21.8 428.29c-0.89 1-2.12 1.52-3.36 1.52-1.05 0-2.11-0.37-2.95-1.11-4.61-4.06-9.01-8.44-13.06-13.03a4.465 4.465 0 0 1 0.38-6.31 4.44 4.44 0 0 1 6.31 0.38c3.81 4.3 7.94 8.42 12.28 12.23a4.496 4.496 0 0 1 0.4 6.32z m30.2 19.06a4.471 4.471 0 0 1-3.99 2.46c-0.68 0-1.37-0.16-2.02-0.48-5.45-2.76-10.81-5.91-15.91-9.36-2.04-1.38-2.59-4.17-1.2-6.21 1.39-2.05 4.19-2.57 6.21-1.2 4.79 3.24 9.81 6.2 14.93 8.78 2.21 1.12 3.1 3.81 1.98 6.01z m34.05 10.83a4.471 4.471 0 0 1-4.37 3.54c-0.32 0-0.63-0.04-0.94-0.1-5.99-1.28-11.97-2.97-17.77-5.02a4.496 4.496 0 0 1-2.73-5.72c0.84-2.32 3.42-3.53 5.71-2.73 5.44 1.93 11.05 3.51 16.66 4.71 2.41 0.53 3.95 2.91 3.44 5.32z m49.7 5.47c-6.07 0.78-12.26 1.18-18.4 1.19h-0.01c-0.1 0-0.19 0-0.28-0.01h-6c-4.06 0-8.09-0.17-12.06-0.5a4.47 4.47 0 0 1-4.09-4.82c0.2-2.46 2.49-4.29 4.82-4.09 3.72 0.31 7.51 0.46 11.33 0.46h6.18c6.05 0.29 11.64-0.37 17.38-1.11 2.36-0.38 4.69 1.41 5.01 3.87a4.48 4.48 0 0 1-3.88 5.01z m35.64-9.36c-5.67 2.31-11.55 4.26-17.5 5.83-0.38 0.11-0.76 0.15-1.14 0.15-1.98 0-3.8-1.33-4.33-3.34-0.63-2.39 0.8-4.83 3.19-5.46 5.57-1.47 11.1-3.31 16.42-5.46 2.27-0.98 4.89 0.17 5.83 2.46 0.93 2.29-0.18 4.9-2.47 5.82z m32.07-18.04c-4.91 3.64-10.11 7.03-15.47 10.04-0.69 0.39-1.44 0.58-2.19 0.58a4.474 4.474 0 0 1-2.2-8.37c5.02-2.83 9.91-6 14.52-9.43 1.99-1.45 4.81-1.06 6.26 0.93 1.48 1.97 1.06 4.78-0.92 6.25z m26.56-25.48c-3.85 4.75-8.05 9.32-12.49 13.57-0.87 0.84-1.98 1.25-3.09 1.25-1.18 0-2.35-0.46-3.22-1.38a4.47 4.47 0 0 1 0.13-6.32c4.16-4 8.11-8.29 11.72-12.75a4.469 4.469 0 0 1 6.29-0.66 4.465 4.465 0 0 1 0.66 6.29z m19.38-31.31c-2.53 5.57-5.46 11.05-8.7 16.28a4.48 4.48 0 0 1-6.16 1.44c-2.1-1.3-2.74-4.05-1.44-6.16 3.03-4.9 5.78-10.04 8.16-15.27 1.04-2.25 3.7-3.21 5.92-2.22a4.472 4.472 0 0 1 2.22 5.93z m6.57-17.26a4.466 4.466 0 0 1-5.59 2.95c-2.36-0.73-3.69-3.23-2.95-5.59 1.7-5.51 3.05-11.18 4.02-16.84 0.42-2.44 2.77-4.09 5.17-3.65a4.47 4.47 0 0 1 3.65 5.17c-1.04 6.03-2.49 12.08-4.3 17.96z m6.38-42.49c0 2.08-0.04 4.13-0.13 6.19a4.484 4.484 0 0 1-4.47 4.28h-0.19a4.481 4.481 0 0 1-4.28-4.67c0.09-1.93 0.13-3.86 0.13-5.8v-11.9c0-2.47 2-4.47 4.47-4.47 2.47 0 4.47 2 4.47 4.47v11.9z m0-29.8c0 2.47-2 4.47-4.47 4.47-2.47 0-4.47-2-4.47-4.47v-17.9c0-2.47 2-4.47 4.47-4.47 2.47 0 4.47 2 4.47 4.47v17.9z m0-35.79c0 2.47-2 4.47-4.47 4.47-2.47 0-4.47-2-4.47-4.47v-17.9c0-2.47 2-4.47 4.47-4.47 2.47 0 4.47 2 4.47 4.47v17.9z m0-35.79c0 2.47-2 4.47-4.47 4.47-2.47 0-4.47-2-4.47-4.47v-17.9c0-2.47 2-4.47 4.47-4.47 2.47 0 4.47 2 4.47 4.47v17.9z m0-35.79c0 2.47-2 4.47-4.47 4.47-2.47 0-4.47-2-4.47-4.47v-17.9c0-2.47 2-4.47 4.47-4.47 2.47 0 4.47 2 4.47 4.47v17.9z m0-35.8c0 2.47-2 4.47-4.47 4.47-2.47 0-4.47-2-4.47-4.47v-17.9c0-2.47 2-4.47 4.47-4.47 2.47 0 4.47 2 4.47 4.47v17.9z m0-35.79c0 2.47-2 4.47-4.47 4.47-2.47 0-4.47-2-4.47-4.47v-17.9c0-2.47 2-4.47 4.47-4.47 2.47 0 4.47 2 4.47 4.47v17.9z" fill="#94CFC1" p-id="112709"></path><path d="M371.43 363.59c0.35 0.09 0.7 0.12 1.04 0.12 2.03 0 3.86-1.38 4.35-3.43a135.67 135.67 0 0 1 5.1-16.53c0.88-2.32-0.27-4.9-2.58-5.78-2.3-0.87-4.88 0.27-5.78 2.58-2.18 5.72-4.02 11.67-5.45 17.65a4.48 4.48 0 0 0 3.32 5.39zM368.63 399.2c2.47 0 4.47-2 4.47-4.47v-2.9c0-4.82 0.26-9.69 0.77-14.48a4.465 4.465 0 0 0-3.98-4.92c-2.29-0.24-4.65 1.51-4.92 3.98-0.54 5.09-0.82 10.28-0.82 15.42v2.9a4.483 4.483 0 0 0 4.48 4.47zM405.83 301.24c1.21 0 2.41-0.49 3.29-1.44 3.91-4.25 8.11-8.28 12.5-11.99a4.46 4.46 0 0 0 0.53-6.3c-1.58-1.88-4.41-2.11-6.3-0.53a148.51 148.51 0 0 0-13.32 12.76 4.485 4.485 0 0 0 0.26 6.33c0.87 0.78 1.96 1.17 3.04 1.17zM368.63 434.99c2.47 0 4.47-2 4.47-4.47v-17.9c0-2.47-2-4.47-4.47-4.47-2.47 0-4.47 2-4.47 4.47v17.9c0 2.47 2 4.47 4.47 4.47zM368.63 613.96c2.47 0 4.47-2 4.47-4.47v-17.9c0-2.47-2-4.47-4.47-4.47-2.47 0-4.47 2-4.47 4.47v17.9c0 2.47 2 4.47 4.47 4.47zM368.63 578.17c2.47 0 4.47-2 4.47-4.47v-17.9c0-2.47-2-4.47-4.47-4.47-2.47 0-4.47 2-4.47 4.47v17.9c0 2.46 2 4.47 4.47 4.47zM368.63 542.37c2.47 0 4.47-2 4.47-4.47V520c0-2.47-2-4.47-4.47-4.47-2.47 0-4.47 2-4.47 4.47v17.9c0 2.47 2 4.47 4.47 4.47zM368.63 470.79c2.47 0 4.47-2 4.47-4.47v-17.9c0-2.47-2-4.47-4.47-4.47-2.47 0-4.47 2-4.47 4.47v17.9c0 2.47 2 4.47 4.47 4.47zM368.63 506.58c2.47 0 4.47-2 4.47-4.47v-17.9c0-2.47-2-4.47-4.47-4.47-2.47 0-4.47 2-4.47 4.47v17.9c0 2.47 2 4.47 4.47 4.47zM568.58 266.51c5.26 2.25 10.46 4.88 15.46 7.8a4.453 4.453 0 0 0 6.11-1.59c1.26-2.12 0.54-4.87-1.59-6.12-5.31-3.13-10.86-5.93-16.47-8.33-2.28-0.96-4.89 0.08-5.87 2.36-0.97 2.28 0.08 4.91 2.36 5.88zM611.39 295.42a4.469 4.469 0 0 0 6.32 0 4.472 4.472 0 0 0 0-6.33c-4.33-4.33-9-8.42-13.87-12.18a4.504 4.504 0 0 0-6.28 0.81 4.494 4.494 0 0 0 0.81 6.28c4.57 3.52 8.95 7.37 13.02 11.42zM640.52 338.1c2.28 5.26 4.25 10.74 5.85 16.29a4.473 4.473 0 0 0 4.3 3.23c0.41 0 0.82-0.05 1.24-0.18 2.37-0.68 3.74-3.16 3.06-5.54-1.7-5.91-3.8-11.75-6.23-17.37-0.99-2.27-3.59-3.33-5.89-2.32a4.484 4.484 0 0 0-2.33 5.89zM433.09 278.22c0.84 0 1.68-0.24 2.43-0.72 4.83-3.13 9.91-5.99 15.1-8.49 2.22-1.07 3.15-3.75 2.08-5.98-1.07-2.22-3.75-3.13-5.98-2.08-5.52 2.67-10.92 5.71-16.06 9.04a4.478 4.478 0 0 0-1.33 6.19c0.86 1.32 2.3 2.04 3.76 2.04zM650.06 371.28c0.87 5.71 1.38 11.5 1.51 17.23a4.474 4.474 0 0 0 4.47 4.37h0.1a4.485 4.485 0 0 0 4.37-4.58c-0.14-6.11-0.69-12.3-1.62-18.37-0.38-2.45-2.66-4.09-5.09-3.75a4.48 4.48 0 0 0-3.74 5.1zM632.64 322.69c0.84 1.42 2.32 2.2 3.85 2.2a4.473 4.473 0 0 0 3.85-6.75c-3.09-5.24-6.6-10.36-10.4-15.25a4.457 4.457 0 0 0-6.28-0.78 4.473 4.473 0 0 0-0.78 6.28c3.58 4.59 6.86 9.39 9.76 14.3zM369.56 649.72a4.473 4.473 0 0 0 4.06-4.85c-0.35-3.91-0.52-7.87-0.52-11.88v-5.6c0-2.47-2-4.47-4.47-4.47-2.47 0-4.47 2-4.47 4.47v5.59c-0.01 4.28 0.18 8.5 0.55 12.68a4.476 4.476 0 0 0 4.45 4.08c0.13-0.01 0.26-0.02 0.4-0.02zM465.25 262.75c0.47 0 0.94-0.07 1.42-0.23 5.45-1.82 11.08-3.29 16.73-4.39 2.42-0.47 4-2.82 3.54-5.25-0.47-2.43-2.85-3.95-5.25-3.54-6.02 1.17-12.02 2.74-17.85 4.68a4.477 4.477 0 0 0-2.83 5.66 4.462 4.462 0 0 0 4.24 3.07zM500.27 255.94c0.11 0 0.2 0 0.3-0.01 2.88-0.18 5.78-0.28 8.71-0.28l8.8 0.03c2.41-0.28 4.5-1.92 4.56-4.39a4.478 4.478 0 0 0-4.39-4.56l-8.97-0.03c-3.12 0-6.21 0.1-9.29 0.3a4.488 4.488 0 0 0-4.18 4.75 4.48 4.48 0 0 0 4.46 4.19zM535.33 257.1c5.67 0.85 11.37 2.06 16.92 3.63 0.41 0.11 0.81 0.17 1.21 0.17 1.96 0 3.75-1.29 4.31-3.26 0.66-2.39-0.72-4.85-3.09-5.52-5.92-1.66-11.99-2.96-18.04-3.85-2.39-0.31-4.72 1.32-5.08 3.77a4.445 4.445 0 0 0 3.77 5.06zM621.29 718.41c-3.61 4.46-7.56 8.75-11.72 12.75a4.47 4.47 0 0 0-0.13 6.32c0.87 0.92 2.04 1.38 3.22 1.38 1.12 0 2.23-0.41 3.09-1.25 4.44-4.25 8.63-8.82 12.49-13.57a4.466 4.466 0 0 0-0.66-6.29 4.468 4.468 0 0 0-6.29 0.66zM656.1 616.61c-2.47 0-4.47 2-4.47 4.47v11.9c0 1.94-0.04 3.87-0.13 5.8a4.5 4.5 0 0 0 4.28 4.67h0.19c2.39 0 4.36-1.88 4.47-4.28 0.09-2.05 0.13-4.11 0.13-6.19v-11.9c0-2.47-2-4.47-4.47-4.47zM645.4 686.8c-2.22-0.99-4.88-0.03-5.92 2.22-2.38 5.23-5.13 10.36-8.16 15.27-1.3 2.11-0.66 4.86 1.44 6.16a4.48 4.48 0 0 0 6.16-1.44c3.24-5.23 6.17-10.71 8.7-16.28 1.03-2.25 0.03-4.91-2.22-5.93zM654.83 652.34c-2.4-0.44-4.75 1.21-5.17 3.65-0.97 5.66-2.32 11.32-4.02 16.84-0.73 2.37 0.59 4.87 2.95 5.59 0.45 0.14 0.88 0.2 1.32 0.2 1.91 0 3.69-1.23 4.27-3.15 1.81-5.88 3.26-11.93 4.3-17.96a4.462 4.462 0 0 0-3.65-5.17zM656.1 545.02c-2.47 0-4.47 2-4.47 4.47v17.9c0 2.47 2 4.47 4.47 4.47 2.47 0 4.47-2 4.47-4.47v-17.9c0-2.47-2-4.47-4.47-4.47zM656.1 580.81c-2.47 0-4.47 2-4.47 4.47v17.9c0 2.47 2 4.47 4.47 4.47 2.47 0 4.47-2 4.47-4.47v-17.9c0-2.47-2-4.47-4.47-4.47zM656.1 401.85c-2.47 0-4.47 2-4.47 4.47v17.9c0 2.47 2 4.47 4.47 4.47 2.47 0 4.47-2 4.47-4.47v-17.9c0-2.47-2-4.47-4.47-4.47zM381.01 678.61a133.79 133.79 0 0 1-4.78-16.62c-0.52-2.41-2.92-3.91-5.32-3.42a4.463 4.463 0 0 0-3.42 5.32c1.31 6.01 3.02 11.98 5.09 17.74a4.475 4.475 0 0 0 5.72 2.7c2.34-0.84 3.54-3.4 2.71-5.72zM656.1 473.43c-2.47 0-4.47 2-4.47 4.47v17.9c0 2.47 2 4.47 4.47 4.47 2.47 0 4.47-2 4.47-4.47v-17.9c0-2.46-2-4.47-4.47-4.47zM656.1 509.23c-2.47 0-4.47 2-4.47 4.47v17.9c0 2.47 2 4.47 4.47 4.47 2.47 0 4.47-2 4.47-4.47v-17.9c0-2.47-2-4.47-4.47-4.47zM656.1 437.64c-2.47 0-4.47 2-4.47 4.47v17.9c0 2.47 2 4.47 4.47 4.47 2.47 0 4.47-2 4.47-4.47v-17.9c0-2.47-2-4.47-4.47-4.47zM596.35 742.34c-4.61 3.43-9.5 6.6-14.52 9.43a4.456 4.456 0 0 0-1.7 6.09 4.469 4.469 0 0 0 3.9 2.28c0.75 0 1.5-0.18 2.19-0.58 5.36-3.01 10.56-6.4 15.47-10.04a4.48 4.48 0 0 0 0.93-6.26c-1.47-1.98-4.28-2.38-6.27-0.92zM387.89 694.48c-1.12-2.2-3.8-3.04-6.02-1.95-2.19 1.12-3.08 3.82-1.95 6.02 2.77 5.43 5.93 10.76 9.4 15.85a4.441 4.441 0 0 0 3.7 1.96c0.87 0 1.75-0.25 2.52-0.78a4.463 4.463 0 0 0 1.18-6.21c-3.26-4.78-6.23-9.79-8.83-14.89zM448.25 754.61c-5.12-2.59-10.15-5.54-14.93-8.78a4.485 4.485 0 0 0-6.21 1.2 4.464 4.464 0 0 0 1.2 6.21c5.1 3.45 10.46 6.6 15.91 9.36 0.65 0.32 1.34 0.48 2.02 0.48 1.63 0 3.21-0.9 3.99-2.46 1.11-2.2 0.22-4.89-1.98-6.01zM390.93 308.08a145.99 145.99 0 0 0-9.73 15.69 4.488 4.488 0 0 0 1.84 6.06c0.66 0.36 1.39 0.52 2.11 0.52 1.59 0 3.14-0.86 3.95-2.37 2.72-5.09 5.79-10.04 9.11-14.72a4.48 4.48 0 0 0-1.05-6.24c-2-1.42-4.8-0.95-6.23 1.06zM407.33 723.01a4.422 4.422 0 0 0-6.31-0.38c-1.85 1.63-2.03 4.47-0.38 6.31 4.05 4.59 8.45 8.97 13.06 13.03 0.85 0.74 1.9 1.11 2.95 1.11 1.24 0 2.47-0.52 3.36-1.52 1.63-1.85 1.44-4.68-0.41-6.32-4.32-3.81-8.46-7.93-12.27-12.23zM566.25 759.28c-5.32 2.15-10.84 3.99-16.42 5.46-2.39 0.63-3.82 3.08-3.19 5.46 0.52 2.01 2.34 3.34 4.33 3.34 0.38 0 0.76-0.04 1.14-0.15 5.95-1.56 11.83-3.52 17.5-5.83 2.29-0.93 3.4-3.53 2.47-5.82-0.94-2.29-3.56-3.44-5.83-2.46zM480.82 766.14c-5.61-1.2-11.22-2.78-16.66-4.71-2.3-0.8-4.88 0.4-5.71 2.73-0.82 2.33 0.4 4.88 2.73 5.72 5.8 2.05 11.79 3.74 17.77 5.02 0.31 0.06 0.63 0.1 0.94 0.1a4.48 4.48 0 0 0 0.93-8.86zM532.84 768.04c-5.74 0.74-11.33 1.4-17.38 1.11h-6.18c-3.82 0-7.6-0.16-11.33-0.46-2.33-0.2-4.62 1.63-4.82 4.09a4.464 4.464 0 0 0 4.09 4.82c3.97 0.32 8 0.5 12.06 0.5h6c0.09 0.01 0.18 0.01 0.28 0.01h0.01c6.14-0.01 12.33-0.41 18.4-1.19a4.466 4.466 0 0 0 3.87-5.01c-0.31-2.46-2.65-4.25-5-3.87z" fill="#FFFFFF" p-id="112710"></path><path d="M521.38 305.51h-18.03c-50.89 0-92.52 41.63-92.52 92.52v228.75c0 50.89 41.63 92.52 92.52 92.52h18.03c50.89 0 92.52-41.63 92.52-92.52V398.03c0-50.89-41.63-92.52-92.52-92.52z" fill="#00AB95" p-id="112711"></path></svg>