<?xml version="1.0" standalone="no"?><!DOCTYPE svg PUBLIC "-//W3C//DTD SVG 1.1//EN" "http://www.w3.org/Graphics/SVG/1.1/DTD/svg11.dtd"><svg t="1709797444688" class="icon" viewBox="0 0 1024 1024" version="1.1" xmlns="http://www.w3.org/2000/svg" p-id="117512" xmlns:xlink="http://www.w3.org/1999/xlink" width="64" height="64"><path d="M839.28 116.06c-26.2-5.75-45.52-4.5-45.52-4.5H239.52c31.25 0 56.94 11.1 78.17 28.66 0.8 0.63 1.57 1.34 2.36 1.98 1.47 1.27 2.97 2.51 4.4 3.85 78.62 73.47 90.38 238.86 90.38 238.86V848.35c0 34.07 27.62 61.69 61.69 61.69h428.5c30.56 0 55.34-24.77 55.34-55.33V270.04c-0.01-73.1-49.68-138.31-121.08-153.98z" fill="#94CFC1" p-id="117513"></path><path d="M317.69 140.22c0.79 0.66 1.58 1.31 2.36 1.98-0.8-0.64-1.56-1.35-2.36-1.98z" fill="#94CFC1" p-id="117514"></path><path d="M324.44 146.05c-1.47-1.27-2.9-2.64-4.4-3.85-0.78-0.67-1.57-1.33-2.36-1.98-23.53-18.32-50.07-28.66-78.17-28.66-96.82 0-175.31 122.38-175.31 273.36 0 150.97 78.49 273.35 175.31 273.35h175.31V384.91c0.01 0-11.76-165.39-90.38-238.86z m-84.92 366.38c-45.17 0-81.78-57.09-81.78-127.52 0-70.43 36.61-127.52 81.78-127.52s81.78 57.09 81.78 127.52c0 70.43-36.61 127.52-81.78 127.52z" fill="#00AB95" p-id="117515"></path><path d="M157.74 384.91a81.78 127.52 0 1 0 163.56 0 81.78 127.52 0 1 0-163.56 0Z" fill="#94CFC1" p-id="117516"></path><path d="M942.24 343.61h-19.88a6.041 6.041 0 0 1 0-12.08h19.88a6.041 6.041 0 0 1 0 12.08z m-44.05 0h-24.17a6.041 6.041 0 0 1 0-12.08h24.17a6.041 6.041 0 0 1 0 12.08z m-48.35 0h-24.17a6.041 6.041 0 0 1 0-12.08h24.17a6.041 6.041 0 0 1 0 12.08z m-48.35 0h-24.17a6.041 6.041 0 0 1 0-12.08h24.17c3.33 0 6.04 2.7 6.04 6.04 0.01 3.34-2.71 6.04-6.04 6.04z m-48.34 0h-24.17a6.041 6.041 0 0 1 0-12.08h24.17a6.041 6.041 0 0 1 0 12.08z m-48.35 0h-24.17a6.041 6.041 0 0 1 0-12.08h24.17a6.041 6.041 0 0 1 0 12.08z m-48.34 0h-24.17a6.041 6.041 0 0 1 0-12.08h24.17c3.33 0 6.04 2.7 6.04 6.04s-2.72 6.04-6.04 6.04z m-48.35 0h-24.17a6.041 6.041 0 0 1 0-12.08h24.17a6.041 6.041 0 0 1 0 12.08z m-48.35 0h-24.17a6.041 6.041 0 0 1 0-12.08h24.17c3.33 0 6.04 2.7 6.04 6.04 0.01 3.34-2.71 6.04-6.04 6.04z m-48.34 0h-24.17a6.041 6.041 0 0 1 0-12.08h24.17c3.33 0 6.04 2.7 6.04 6.04s-2.72 6.04-6.04 6.04z m-48.35 0H438.9a6.041 6.041 0 0 1 0-12.08h24.17a6.041 6.041 0 0 1 0 12.08z" fill="#FFFFFF" p-id="117517"></path></svg>