<?xml version="1.0" standalone="no"?><!DOCTYPE svg PUBLIC "-//W3C//DTD SVG 1.1//EN" "http://www.w3.org/Graphics/SVG/1.1/DTD/svg11.dtd"><svg t="1709717849341" class="icon" viewBox="0 0 1024 1024" version="1.1" xmlns="http://www.w3.org/2000/svg" p-id="9560" xmlns:xlink="http://www.w3.org/1999/xlink" width="64" height="64"><path d="M389.041231 682.377846H118.153846v197.513846l177.782154-51.908923 106.102154 64.039385 51.081846-7.601231q-15.556923-20.007385-27.569231-42.299077-12.051692-22.331077-20.283077-46.276923-8.192-23.985231-12.366769-48.994461-4.174769-24.969846-4.174769-50.333539 0-7.089231 0.315077-14.139077z" fill="#FFCD69" p-id="9561"></path><path d="M373.996308 246.232615l56.044307 59.076923c0.787692 0.866462 1.496615 1.811692 2.048 2.756924a13.981538 13.981538 0 0 1 1.339077-1.732924l51.908923-58.525538a35.446154 35.446154 0 0 1 53.051077 47.064615l-25.442461 28.75077h27.293538a39.384615 39.384615 0 1 1 0 78.76923h-68.765538v33.634462h53.799384a39.384615 39.384615 0 1 1 0 78.769231H471.433846V551.384615a39.384615 39.384615 0 0 1-78.769231 0v-36.588307h-49.230769a39.384615 39.384615 0 1 1 0-78.769231h49.230769v-33.673846H326.222769a39.384615 39.384615 0 1 1 0-78.769231h22.764308L322.166154 295.384615a35.721846 35.721846 0 1 1 51.790769-49.152z m56.713846 77.351385h1.851077a13.745231 13.745231 0 0 1-0.866462-1.339077 13.784615 13.784615 0 0 1-0.945231 1.339077z" fill="#FF9116" p-id="9562"></path><path d="M475.608615 711.916308a236.307692 236.307692 0 1 1 472.615385 0 236.307692 236.307692 0 0 1-472.615385 0z m236.307693-165.415385c-45.686154 0-84.676923 16.147692-116.972308 48.443077-32.295385 32.295385-48.443077 71.286154-48.443077 116.972308 0 45.686154 16.147692 84.676923 48.443077 116.972307 32.295385 32.295385 71.286154 48.443077 116.972308 48.443077 45.686154 0 84.676923-16.147692 116.972307-48.443077 32.295385-32.295385 48.443077-71.286154 48.443077-116.972307 0-45.686154-16.147692-84.676923-48.443077-116.972308-32.295385-32.295385-71.286154-48.443077-116.972307-48.443077z" fill="#FF9116" p-id="9563"></path><path d="M708.923077 590.769231a34.776615 34.776615 0 0 0-34.500923 39.069538l12.366769 98.934154a22.291692 22.291692 0 0 0 44.268308 0l12.366769-98.934154A34.776615 34.776615 0 0 0 708.923077 590.769231z m35.446154 220.553846a35.446154 35.446154 0 1 1-70.892308 0 35.446154 35.446154 0 0 1 70.892308 0z" fill="#FF9116" p-id="9564"></path><path d="M783.753846 401.486769V150.803692c0-37.179077-15.596308-64.512-46.788923-82.077538-32.689231-18.392615-64.039385-16.226462-94.089846 6.498461l-69.316923 52.420923-88.339692-66.717538A84.125538 84.125538 0 0 0 433.230769 43.323077c-19.140923 0-36.470154 5.868308-51.987692 17.604923L292.942769 127.606154 223.586462 75.224615q-45.095385-34.067692-94.050462-6.498461C98.304 86.252308 82.707692 113.624615 82.707692 150.803692v683.008c0 37.139692 15.596308 64.512 46.788923 82.077539 32.689231 18.392615 64.039385 16.226462 94.089847-6.498462l69.316923-52.381538 88.339692 66.678154c15.517538 11.736615 32.846769 17.604923 51.987692 17.604923 19.140923 0 36.470154-5.868308 51.987693-17.604923l3.347692-2.520616q-26.387692-24.142769-46.552616-53.681231a14.848 14.848 0 0 1-18.038153-0.354461l-131.032616-99.012923-112.128 84.716308c-5.356308 4.056615-10.870154 4.489846-16.541538 1.299692-7.089231-4.017231-10.633846-10.791385-10.633846-20.322462V150.803692c0-9.531077 3.544615-16.305231 10.633846-20.322461a14.020923 14.020923 0 0 1 16.541538 1.299692l112.128 84.716308 131.032616-99.012923A15.044923 15.044923 0 0 1 433.230769 114.215385c3.308308 0 6.380308 1.102769 9.255385 3.268923l131.032615 99.012923 112.128-84.716308a14.020923 14.020923 0 0 1 16.541539-1.299692c7.089231 4.017231 10.673231 10.791385 10.67323 20.322461v238.119385q36.194462 2.087385 70.892308 12.563692z" fill="#FF9116" p-id="9565"></path></svg>