<?xml version="1.0" standalone="no"?><!DOCTYPE svg PUBLIC "-//W3C//DTD SVG 1.1//EN" "http://www.w3.org/Graphics/SVG/1.1/DTD/svg11.dtd"><svg t="1709717712010" class="icon" viewBox="0 0 1024 1024" version="1.1" xmlns="http://www.w3.org/2000/svg" p-id="6445" xmlns:xlink="http://www.w3.org/1999/xlink" width="64" height="64"><path d="M64 512c0 247.19872 200.80128 448 448 448 247.1936 0 448-200.80128 448-448H896c0 211.99872-172.00128 384-384 384s-384-172.00128-384-384 172.00128-384 384-384V64c-247.19872 0-448 200.80128-448 448z" p-id="6446" fill="#1296db"></path><path d="M480.128 505.6v75.5456H369.99168c-17.30048 0-31.86176 14.57664-31.86176 31.86688 0 17.30048 14.56128 31.872 31.86176 31.872h110.14144v84.64896c0 17.30048 14.57664 31.872 31.872 31.872s31.86688-14.57152 31.86688-31.872v-84.64896h110.14144c17.29536 0 31.86688-14.57152 31.86688-31.872 0-17.29024-14.57152-31.86688-31.86688-31.86688h-111.96416V505.6h110.14656c17.29536 0 31.86176-14.56128 31.86176-31.85664 0-17.3056-14.5664-31.872-31.86176-31.872h-50.97472l19.11296-42.7776c7.28064-16.37888 0-34.59072-16.384-41.87136-15.47264-7.28576-34.59584 0-41.8816 16.384l-30.0288 68.26496H477.4144L447.38048 373.6064c-7.29088-16.384-25.4976-23.66976-41.8816-16.384C389.12 364.49792 381.83936 382.70976 389.12 399.08864l19.0976 42.7776h-38.23104c-17.29536 0-31.85664 14.57664-31.85664 31.872 0 17.29536 14.5664 31.85664 31.85664 31.85664h110.14144zM710.4 354.40128l135.99744-135.19872 113.60256 108.8V64H691.2l110.39744 109.59872L665.6 309.60128l44.8 44.8z" p-id="6447" fill="#1296db"></path></svg>