<?xml version="1.0" standalone="no"?><!DOCTYPE svg PUBLIC "-//W3C//DTD SVG 1.1//EN" "http://www.w3.org/Graphics/SVG/1.1/DTD/svg11.dtd"><svg t="1709795678275" class="icon" viewBox="0 0 1024 1024" version="1.1" xmlns="http://www.w3.org/2000/svg" p-id="68409" xmlns:xlink="http://www.w3.org/1999/xlink" width="64" height="64"><path d="M512 918.824l-256.754 18-255.246-18v-155.75c0-109.034 88.39-197.424 197.424-197.424h117.15c109.034 0 197.424 88.39 197.424 197.424l18 76.404z" fill="#DC4955" p-id="68410"></path><path d="M10.332 956.022h75.3l15.5-18 15.5 18h278.734l15.5-18 15.498 18H512l18-18.598-18-18.598H0v26.864a10.332 10.332 0 0 0 10.332 10.332z" fill="#D82F3C" p-id="68411"></path><path d="M256 644.15c67.52 0 65.894-75.51 65.808-78.366-2.318-0.08-4.64-0.136-6.978-0.136H197.68c-2.508 0-5.002 0.062-7.488 0.156-0.094 3.244-1.528 78.346 65.808 78.346z" fill="#E2AE84" p-id="68412"></path><path d="M116.632 787.474v131.35l-15.5 18-15.5-18v-131.35a15.504 15.504 0 0 1 15.5-15.498 15.502 15.502 0 0 1 15.5 15.498zM426.362 787.474v131.35l-15.498 18-15.5-18v-131.35a15.5 15.5 0 0 1 30.998 0z" fill="#C42D41" p-id="68413"></path><path d="M85.634 918.822h30.998v37.198H85.634zM395.364 918.822h30.998v37.198h-30.998z" fill="#B72D47" p-id="68414"></path><path d="M44.238 348.5C-5.48 235.144-14.858 127.092 95.766 93.728 349.53 17.196 362.508 135.644 362.508 135.644s179.74 7.954 111.726 229.96z" fill="#26457D" p-id="68415"></path><path d="M90.242 322.312c-19.55 0-36.69 10.518-46.004 26.186a865.61 865.61 0 0 0 11.116 24.086l40.412 1.272v-51.26a54.218 54.218 0 0 0-5.524-0.284zM467.644 385.568a499.54 499.54 0 0 0 6.59-19.964c-4.74-24.654-26.436-43.292-52.474-43.292-1.866 0-3.708 0.098-5.524 0.284v61.352z" fill="#21386B" p-id="68416"></path><path d="M84.574 444.584l11.272-15.708 14.768-9.464-14.848-59.618a54.218 54.218 0 0 0-5.524-0.284c-22.966 0-42.544 14.492-50.096 34.83-0.002 20.262 21.462 50.244 44.428 50.244z" fill="#E2AE84" p-id="68417"></path><path d="M90.242 429.17c-22.966 0-42.544-14.492-50.096-34.83a53.294 53.294 0 0 0-3.332 18.598c0 29.508 23.92 53.428 53.428 53.428 3.732 0 7.376-0.386 10.892-1.114l9.478-22.54-14.768-13.838c-1.84 0.194-3.71 0.296-5.602 0.296z" fill="#D7A379" p-id="68418"></path><path d="M427.426 444.584l-11.272-15.708-14.768-9.464 14.848-59.618c1.816-0.186 3.66-0.284 5.524-0.284 22.966 0 42.544 14.492 50.096 34.83 0 20.262-21.462 50.244-44.428 50.244z" fill="#E2AE84" p-id="68419"></path><path d="M421.758 429.17c22.966 0 42.544-14.492 50.096-34.83a53.294 53.294 0 0 1 3.332 18.598c0 29.508-23.92 53.428-53.428 53.428-3.734 0-7.376-0.386-10.892-1.114l-9.478-22.54 14.768-13.838c1.84 0.194 3.71 0.296 5.602 0.296z" fill="#D7A379" p-id="68420"></path><path d="M256 565.05c117.868 0 160.234-89.738 160.234-178.234v-63.252a10.332 10.332 0 0 0-5.234-8.966c-38.754-22.156-66.234-73.212-77.242-96.568-2.81-5.964-10.456-7.804-15.65-3.742-94.678 74.058-182.638 80.79-212.006 80.74a10.316 10.316 0 0 0-10.334 10.33v81.46c-0.002 88.494 49.1 178.232 160.232 178.232z" fill="#F0C69E" p-id="68421"></path><path d="M256 547.05c-88.494 0-160.234-71.738-160.234-160.234v37.198c0 88.496 71.74 160.234 160.234 160.234 88.494 0 160.234-71.738 160.234-160.234v-37.198c0 88.496-71.74 160.234-160.234 160.234z" fill="#E6BA94" p-id="68422"></path><path d="M255.24 481.046c15.436 29.61 48.796 28.04 64.504 25.406a10.27 10.27 0 0 0 8.528-10.768c-1.184-18.708-10.804-60.414-73.026-60.414-62.224 0-71.842 41.706-73.028 60.414a10.27 10.27 0 0 0 8.528 10.768c15.71 2.634 49.068 4.204 64.504-25.406zM1017.504 564.716c-12.256-6.754-36.95-25.83-29.776-67.472C1040.532 190.758 907.67 77.172 768 77.172c-139.668 0-272.532 113.586-219.728 420.072 7.174 41.642-17.518 60.718-29.776 67.472a10.352 10.352 0 0 0-5.076 11.43c2.098 9.11 7.192 24.338 19.31 39.096a0.06 0.06 0 0 1 0.01-0.014c-0.01 0.014 470.52 0 470.52 0l0.01 0.014c12.118-14.758 17.212-29.986 19.31-39.096a10.356 10.356 0 0 0-5.076-11.43z" fill="#26457D" p-id="68423"></path><path d="M848.244 547.05h-160.49c-61.354 0-116.566 26.276-155.016 68.182 8.214 10.008 19.638 19.802 35.574 27.324h399.374c15.936-7.524 27.358-17.316 35.574-27.324-38.448-41.906-93.662-68.182-155.016-68.182z" fill="#21386B" p-id="68424"></path><path d="M1024 918.824l-256.256 18-255.744-18v-155.75c0-109.034 88.39-197.424 197.424-197.424h117.15c109.034 0 197.424 88.39 197.424 197.424v155.75z" fill="#B3E59F" p-id="68425"></path><path d="M512 956.022h85.636l15.498-18 15.5 18h278.734l15.5-18 15.498 18h75.3a10.332 10.332 0 0 0 10.332-10.332v-26.864H512z" fill="#95D6A4" p-id="68426"></path><path d="M767.744 644.15c67.52 0 65.894-75.51 65.808-78.366-2.318-0.08-4.64-0.136-6.978-0.136h-117.15c-2.508 0-5.002 0.062-7.488 0.156-0.092 3.244-1.526 78.346 65.808 78.346z" fill="#E2AE84" p-id="68427"></path><path d="M628.636 787.474v131.35l-15.5 18-15.498-18v-131.35a15.504 15.504 0 0 1 15.498-15.498 15.502 15.502 0 0 1 15.5 15.498zM938.366 787.474v131.35l-15.498 18-15.5-18v-131.35a15.504 15.504 0 0 1 15.5-15.498 15.502 15.502 0 0 1 15.498 15.498z" fill="#78C2A4" p-id="68428"></path><path d="M597.638 918.822h30.998v37.198h-30.998zM907.368 918.822h30.998v37.198h-30.998z" fill="#66B394" p-id="68429"></path><path d="M768 565.05c122.816 0 160.234-89.738 160.234-178.234v-39.046a10.338 10.338 0 0 0-5.722-9.23c-47.766-23.992-77.874-76.76-90.722-103.698-3.322-6.968-12.804-7.976-17.508-1.856-60.57 78.772-167.574 104.186-198.146 110.014a10.312 10.312 0 0 0-8.37 10.144v33.674c0 88.494 36.752 178.232 160.234 178.232z" fill="#F0C69E" p-id="68430"></path><path d="M768 547.05c-88.494 0-160.234-71.738-160.234-160.234v37.198c0 88.496 71.74 160.234 160.234 160.234s160.234-71.738 160.234-160.234v-37.198c0 88.496-71.74 160.234-160.234 160.234z" fill="#E6BA94" p-id="68431"></path><path d="M177.386 425.962a15.544 15.544 0 0 0 15.544-15.544v-36.026a15.544 15.544 0 1 0-31.088 0v36.026a15.544 15.544 0 0 0 15.544 15.544zM333.124 425.962a15.544 15.544 0 0 0 15.544-15.544v-36.026a15.544 15.544 0 1 0-31.088 0v36.026a15.544 15.544 0 0 0 15.544 15.544zM690.874 358.848a15.542 15.542 0 0 0-15.544 15.544v36.026c0 8.586 6.958 15.544 15.544 15.544s15.544-6.958 15.544-15.544v-36.026a15.542 15.542 0 0 0-15.544-15.544zM846.612 425.962a15.542 15.542 0 0 0 15.544-15.544v-36.026c0-8.586-6.958-15.544-15.544-15.544s-15.544 6.958-15.544 15.544v36.026a15.542 15.542 0 0 0 15.544 15.544z" fill="#5E6B75" p-id="68432"></path><path d="M817.878 481.126c8.728-19.274-18.964-32.134-28.162-13.272-0.48 0.972-5.148 9.486-20.974 9.486s-20.494-8.514-20.974-9.486c-9.198-18.862-36.888-6.002-28.162 13.272 4.84 10.61 20.094 27.36 49.136 27.36 29.044-0.002 44.296-16.752 49.136-27.36z" fill="#DC4955" p-id="68433"></path></svg>