<?xml version="1.0" standalone="no"?><!DOCTYPE svg PUBLIC "-//W3C//DTD SVG 1.1//EN" "http://www.w3.org/Graphics/SVG/1.1/DTD/svg11.dtd"><svg t="1708931559431" class="icon" viewBox="0 0 1024 1024" version="1.1" xmlns="http://www.w3.org/2000/svg" p-id="11949" xmlns:xlink="http://www.w3.org/1999/xlink" width="200" height="200"><path d="M897.536 925.696H126.464c-6.656 0-11.776-5.12-11.776-11.776V363.008c0-6.656 5.12-11.776 11.776-11.776h770.56c6.656 0 11.776 5.12 11.776 11.776v551.424c0 6.144-5.12 11.264-11.264 11.264z" fill="#FF52A1" p-id="11950"></path><path d="M897.536 925.696H126.464c-6.656 0-11.776-5.12-11.776-11.776V363.008c0-6.656 5.12-11.776 11.776-11.776h770.56c6.656 0 11.776 5.12 11.776 11.776v551.424c0 6.144-5.12 11.264-11.264 11.264z" fill="#FF52A1" p-id="11951"></path><path d="M891.392 351.232H132.608c-9.728 0-17.408 7.68-17.408 17.408v251.392c0-9.728 7.68-17.408 17.408-17.408h759.296c9.728 0 17.408 7.68 17.408 17.408V368.64c-0.512-9.728-8.192-17.408-17.92-17.408z" fill="#EF2E8E" p-id="11952"></path><path d="M891.392 945.664H132.608c-20.992 0-37.376-16.896-37.376-37.376V368.64c0-20.992 16.896-37.376 37.376-37.376h759.296c20.992 0 37.888 16.896 37.888 37.376v539.648c-0.512 20.992-17.408 37.376-38.4 37.376z m-756.224-39.936h753.664V371.2H135.168v534.528z" fill="#6147B2" p-id="11953"></path><path d="M437.76 357.888S183.808 278.016 301.056 153.6c106.496-113.152 229.376 113.152 214.528 204.288H437.76z" fill="#FF52A1" p-id="11954"></path><path d="M532.48 378.368H434.688l-3.072-1.024c-1.536-0.512-38.4-12.288-78.848-33.792-56.832-30.72-90.112-65.024-99.84-102.4-8.704-34.304 2.56-68.096 33.28-101.376 35.84-37.888 79.36-47.616 121.856-26.112 78.848 38.912 139.264 174.592 126.976 247.808l-2.56 16.896zM440.832 337.92H496.64c-1.536-60.928-51.2-160.768-106.496-187.904-26.624-13.312-51.2-7.168-74.752 17.92-20.992 22.528-29.184 43.52-23.552 63.488C305.664 283.136 401.408 324.608 440.832 337.92z" fill="#6147B2" p-id="11955"></path><path d="M500.736 350.208s90.624-367.104 265.728-215.04c147.968 128-162.816 217.6-162.816 217.6l-102.912-2.56z" fill="#FFB87D" p-id="11956"></path><path d="M606.72 373.248l-131.584-3.584 6.144-24.064c2.048-9.216 56.832-225.792 169.984-262.144 41.984-13.312 85.504-1.024 129.024 36.864 37.376 32.768 52.736 67.072 45.056 101.888-8.704 40.448-48.64 78.336-118.272 112.128-49.152 24.064-95.232 37.376-97.28 37.888l-3.072 1.024zM527.36 330.752l74.24 2.048c66.56-19.968 173.056-68.608 184.32-119.296 4.608-19.968-6.144-40.448-32.256-62.976-32.768-28.16-61.952-37.376-90.112-28.672-67.072 20.992-115.712 141.312-136.192 208.896z" fill="#6147B2" p-id="11957"></path><path d="M941.056 538.624H82.944c-6.656 0-11.776-5.12-11.776-11.776v-163.84c0-6.656 5.12-11.776 11.776-11.776h858.112c6.656 0 11.776 5.12 11.776 11.776V527.36c0 6.144-5.632 11.264-11.776 11.264z" fill="#6ED7FF" p-id="11958"></path><path d="M935.424 558.592H88.576c-20.992 0-37.376-16.896-37.376-37.376V368.64c0-20.992 16.896-37.376 37.376-37.376h846.336c20.992 0 37.376 16.896 37.376 37.376v152.576c0.512 20.48-16.384 37.376-36.864 37.376z m-843.776-39.936h841.216V371.2H91.648v147.456z" fill="#6147B2" p-id="11959"></path><path d="M438.272 538.624h147.968v387.072H438.272z" fill="#FFB87D" p-id="11960"></path><path d="M435.712 537.088H583.68v66.048H435.712z" fill="#ED9D62" p-id="11961"></path><path d="M606.208 945.664H417.792v-427.52h187.904v427.52z m-147.968-39.936h107.52v-346.624h-107.52v346.624z" fill="#6147B2" p-id="11962"></path><path d="M438.272 351.232h147.968v187.392H438.272z" fill="#FFB87D" p-id="11963"></path><path d="M606.208 558.592H417.792V331.264h187.904v227.328z m-147.968-39.936h107.52V371.2h-107.52v147.456z" fill="#6147B2" p-id="11964"></path></svg>