<?xml version="1.0" standalone="no"?><!DOCTYPE svg PUBLIC "-//W3C//DTD SVG 1.1//EN" "http://www.w3.org/Graphics/SVG/1.1/DTD/svg11.dtd"><svg t="1708931420348" class="icon" viewBox="0 0 1024 1024" version="1.1" xmlns="http://www.w3.org/2000/svg" p-id="7474" xmlns:xlink="http://www.w3.org/1999/xlink" width="200" height="200"><path d="M512 512m-501.76 0a501.76 501.76 0 1 0 1003.52 0 501.76 501.76 0 1 0-1003.52 0Z" fill="#508DEF" p-id="7475"></path><path d="M512 1024c-136.8064 0-265.4208-53.248-362.0864-149.9136C53.248 777.4208 0 648.8064 0 512S53.248 246.5792 149.9136 149.9136C246.5792 53.248 375.1936 0 512 0s265.4208 53.248 362.0864 149.9136C970.752 246.5792 1024 375.1936 1024 512s-53.248 265.4208-149.9136 362.0864C777.4208 970.752 648.8064 1024 512 1024z m0-1003.52C241.0496 20.48 20.48 241.0496 20.48 512s220.5696 491.52 491.52 491.52 491.52-220.5696 491.52-491.52S782.9504 20.48 512 20.48z" fill="#1C1D21" p-id="7476"></path><path d="M783.7696 505.2416l-5.3248-186.9824c-0.6144-23.3472-19.456-42.1888-42.8032-42.8032l-186.9824-5.3248c-12.0832-0.4096-23.7568 4.3008-32.3584 12.9024L183.5008 615.424c-17.2032 17.2032-17.2032 45.056 0 62.464l96.256 96.256 96.256 96.256c17.2032 17.2032 45.056 17.2032 62.464 0l332.3904-332.3904c8.3968-8.8064 13.1072-20.6848 12.9024-32.768zM650.4448 403.456c-15.9744-15.9744-15.9744-41.7792 0-57.7536 15.9744-15.9744 41.7792-15.9744 57.7536 0 15.9744 15.9744 15.9744 41.7792 0 57.7536-15.9744 15.7696-41.984 15.7696-57.7536 0z" fill="#EF4265" p-id="7477"></path><path d="M430.4896 680.5504l-11.4688-11.4688 21.2992-21.2992c33.3824 18.432 76.1856 13.5168 104.448-14.7456 34.2016-34.2016 34.2016-89.9072 0-124.1088-34.2016-34.2016-89.9072-34.2016-124.1088 0-28.2624 28.2624-33.1776 71.0656-14.7456 104.448l-21.2992 21.2992-11.4688-11.4688c-9.4208-9.4208-24.9856-9.4208-34.4064 0-9.4208 9.4208-9.4208 24.9856 0 34.4064l11.4688 11.4688-13.9264 13.9264c-9.4208 9.4208-9.4208 24.9856 0 34.4064 9.4208 9.4208 24.9856 9.4208 34.4064 0l13.9264-13.9264 11.4688 11.4688c9.4208 9.4208 24.9856 9.4208 34.4064 0 9.6256-9.6256 9.6256-24.9856 0-34.4064z m28.4672-133.5296c13.1072-13.1072 34.4064-13.1072 47.7184 0 13.1072 13.1072 13.1072 34.4064 0 47.7184-13.1072 13.1072-34.4064 13.1072-47.7184 0-13.1072-13.1072-13.1072-34.6112 0-47.7184z" fill="#E0E0E0" p-id="7478"></path><path d="M353.6896 734.6176c-8.8064 0-17.6128-3.2768-24.3712-10.0352-13.5168-13.5168-13.5168-35.4304 0-48.9472l6.5536-6.5536-4.3008-4.3008c-13.5168-13.5168-13.5168-35.4304 0-48.9472 6.5536-6.5536 15.1552-10.0352 24.3712-10.0352s17.8176 3.6864 24.3712 10.0352l4.3008 4.3008 9.0112-9.0112c-16.5888-36.6592-8.8064-80.896 20.0704-109.568 18.432-18.432 43.008-28.672 69.2224-28.672 26.2144 0 50.7904 10.24 69.2224 28.672 38.2976 38.2976 38.2976 100.352 0 138.6496-28.8768 28.8768-72.9088 36.4544-109.568 20.0704l-9.0112 9.0112 4.3008 4.3008c6.5536 6.5536 10.0352 15.1552 10.0352 24.3712s-3.6864 17.8176-10.0352 24.3712c-6.5536 6.5536-15.1552 10.0352-24.3712 10.0352s-17.8176-3.6864-24.3712-10.0352l-4.3008-4.3008-6.5536 6.5536c-6.9632 6.7584-15.7696 10.0352-24.576 10.0352z m2.4576-108.3392c-3.6864 0-7.3728 1.4336-10.0352 4.096-2.6624 2.6624-4.096 6.144-4.096 10.0352 0 3.6864 1.4336 7.3728 4.096 10.0352l11.4688 11.4688c1.8432 1.8432 3.072 4.5056 3.072 7.168s-1.024 5.3248-3.072 7.168l-13.9264 13.9264c-5.5296 5.5296-5.5296 14.336 0 19.8656s14.336 5.5296 19.8656 0l13.9264-13.9264c1.8432-1.8432 4.5056-3.072 7.168-3.072 2.6624 0 5.3248 1.024 7.168 3.072l11.4688 11.4688c2.6624 2.6624 6.144 4.096 10.0352 4.096 3.6864 0 7.3728-1.4336 10.0352-4.096 2.6624-2.6624 4.096-6.144 4.096-10.0352s-1.4336-7.3728-4.096-10.0352l-11.4688-11.4688c-1.8432-1.8432-3.072-4.5056-3.072-7.168s1.024-5.3248 3.072-7.168l21.2992-21.2992c3.2768-3.2768 8.192-3.8912 12.288-1.6384 30.1056 16.5888 67.9936 11.264 92.16-13.1072 30.3104-30.3104 30.3104-79.4624 0-109.568-14.5408-14.5408-33.9968-22.7328-54.8864-22.7328-20.6848 0-40.1408 7.9872-54.8864 22.7328-24.1664 24.1664-29.696 62.2592-13.1072 92.16 2.2528 3.8912 1.4336 9.0112-1.6384 12.0832l-21.2992 21.2992c-4.096 4.096-10.4448 4.096-14.5408 0l-11.4688-11.4688c-2.4576-2.4576-5.9392-3.8912-9.6256-3.8912z m126.7712-11.4688c-11.6736 0-22.7328-4.5056-31.1296-12.9024-8.192-8.192-12.9024-19.2512-12.9024-31.1296 0-11.6736 4.5056-22.7328 12.9024-31.1296 8.192-8.192 19.2512-12.9024 31.1296-12.9024s22.7328 4.5056 31.1296 12.9024c17.2032 17.2032 17.2032 45.056 0 62.0544-8.3968 8.6016-19.456 13.1072-31.1296 13.1072z m0-67.3792c-6.3488 0-12.0832 2.4576-16.5888 6.7584-4.5056 4.5056-6.7584 10.24-6.7584 16.5888 0 6.3488 2.4576 12.0832 6.7584 16.5888 4.5056 4.5056 10.24 6.7584 16.5888 6.7584s12.0832-2.4576 16.5888-6.7584c9.216-9.216 9.216-23.9616 0-33.1776-4.5056-4.3008-10.4448-6.7584-16.5888-6.7584z m-23.9616-0.4096z" fill="#1C1D21" p-id="7479"></path><path d="M407.1424 893.3376c-14.5408 0-28.2624-5.7344-38.5024-15.9744l-192.3072-192.3072c-10.24-10.24-15.9744-23.9616-15.9744-38.5024 0-14.5408 5.7344-28.2624 15.9744-38.5024l267.6736-267.6736c4.096-4.096 10.4448-4.096 14.5408 0s4.096 10.4448 0 14.5408L190.8736 622.592c-6.3488 6.3488-9.8304 14.9504-9.8304 23.9616 0 9.0112 3.4816 17.6128 9.8304 23.9616l192.3072 192.3072c13.1072 13.1072 34.6112 13.1072 47.9232 0L763.4944 530.432c6.5536-6.5536 10.24-15.5648 9.8304-24.9856l-5.3248-186.9824c-0.4096-18.0224-14.9504-32.3584-32.9728-32.9728l-186.9824-5.3248c-9.216-0.2048-18.432 3.2768-24.9856 9.8304l-4.7104 4.7104c-4.096 4.096-10.4448 4.096-14.5408 0s-4.096-10.4448 0-14.5408l4.7104-4.7104c10.4448-10.4448 25.1904-16.384 39.936-15.9744l186.9824 5.3248c28.8768 0.8192 52.0192 23.9616 52.8384 52.8384l5.3248 186.9824c0.4096 14.9504-5.3248 29.4912-15.9744 39.936L445.6448 877.3632c-10.4448 10.24-23.9616 15.9744-38.5024 15.9744z m272.1792-467.7632c-13.1072 0-26.2144-4.9152-36.0448-14.9504-9.6256-9.6256-14.9504-22.528-14.9504-36.0448 0-13.7216 5.3248-26.4192 14.9504-36.0448 9.6256-9.6256 22.528-14.9504 36.0448-14.9504s26.4192 5.3248 36.0448 14.9504c9.6256 9.6256 14.9504 22.528 14.9504 36.0448 0 13.7216-5.3248 26.4192-14.9504 36.0448-10.0352 10.0352-23.1424 14.9504-36.0448 14.9504z m-21.7088-29.4912c11.8784 11.8784 31.3344 11.8784 43.2128 0 5.7344-5.7344 9.0112-13.5168 9.0112-21.7088s-3.2768-15.7696-9.0112-21.7088c-5.7344-5.7344-13.5168-9.0112-21.7088-9.0112s-15.7696 3.2768-21.7088 9.0112c-5.7344 5.7344-9.0112 13.5168-9.0112 21.7088s3.4816 15.9744 9.216 21.7088zM477.184 331.9808c-2.6624 0-5.3248-1.024-7.168-3.072-4.096-4.096-4.096-10.4448 0-14.5408l3.8912-3.8912c4.096-4.096 10.4448-4.096 14.5408 0s4.096 10.4448 0 14.5408l-3.8912 3.8912c-2.048 2.2528-4.7104 3.072-7.3728 3.072z" fill="#1C1D21" p-id="7480"></path><path d="M539.0336 328.2944c-2.6624 0-5.3248-1.024-7.168-3.072-4.096-4.096-4.096-10.4448 0-14.5408l6.144-6.144c4.096-4.096 10.4448-4.096 14.5408 0s4.096 10.4448 0 14.5408l-6.144 6.144c-2.2528 2.048-4.9152 3.072-7.3728 3.072zM324.8128 542.3104c-2.6624 0-5.3248-1.024-7.168-3.072-4.096-4.096-4.096-10.4448 0-14.5408l180.8384-180.8384c4.096-4.096 10.4448-4.096 14.5408 0s4.096 10.4448 0 14.5408l-180.8384 180.8384c-2.048 2.048-4.7104 3.072-7.3728 3.072z" fill="#FFAEC3" p-id="7481"></path><path d="M679.7312 385.2288c-37.2736 0-66.56-55.0912-66.56-125.1328s29.2864-125.1328 66.56-125.1328 66.56 55.0912 66.56 125.1328c0 5.3248-0.2048 10.6496-0.6144 15.9744-0.4096 5.7344-5.3248 9.8304-10.8544 9.6256-5.7344-0.4096-9.8304-5.3248-9.6256-10.8544 0.4096-4.9152 0.4096-9.8304 0.4096-14.5408 0-61.6448-24.1664-104.6528-46.08-104.6528-21.7088 0-46.08 43.008-46.08 104.6528s24.1664 104.6528 46.08 104.6528c11.4688 0 20.6848-11.4688 25.1904-18.2272 3.072-4.7104 9.4208-6.144 14.1312-3.072 4.7104 3.072 6.144 9.4208 3.072 14.1312-11.6736 18.0224-26.4192 27.4432-42.1888 27.4432z" fill="#1C1D21" p-id="7482"></path><path d="M648.6016 724.3776m-135.168 0a135.168 135.168 0 1 0 270.336 0 135.168 135.168 0 1 0-270.336 0Z" fill="#D66112" p-id="7483"></path><path d="M577.1264 788.0704c0-74.5472 60.416-135.168 135.168-135.168 20.8896 0 40.5504 4.7104 58.1632 13.1072-21.7088-45.4656-68.1984-76.8-121.856-76.8-74.5472 0-135.168 60.416-135.168 135.168 0 53.6576 31.3344 100.1472 76.8 121.856-8.3968-17.6128-13.1072-37.2736-13.1072-58.1632z" fill="#FF8939" p-id="7484"></path><path d="M656.9984 712.0896h-16.7936c-0.8192 0-1.6384-0.8192-1.6384-1.6384v-19.6608c0-0.8192 0.8192-1.6384 1.6384-1.6384h30.72c6.7584 0 12.288-5.5296 12.288-12.288s-5.5296-12.288-12.288-12.288h-10.4448v-21.0944c0-5.12-4.096-9.4208-9.4208-9.4208s-9.4208 4.096-9.4208 9.4208v21.0944h-1.4336c-14.5408 0-26.4192 11.8784-26.4192 26.4192v19.6608c0 14.5408 11.8784 26.4192 26.4192 26.4192h16.7936c0.8192 0 1.6384 0.8192 1.6384 1.6384v19.6608c0 0.8192-0.8192 1.6384-1.6384 1.6384h-30.72c-6.7584 0-12.288 5.5296-12.288 12.288s5.5296 12.288 12.288 12.288h15.5648v21.0944c0 5.12 4.096 9.4208 9.4208 9.4208s9.4208-4.096 9.4208-9.4208v-21.504c12.9024-1.6384 22.9376-12.6976 22.9376-26.0096v-19.6608c-0.2048-14.7456-12.0832-26.4192-26.624-26.4192z" fill="#FFF0CC" p-id="7485"></path><path d="M646.5536 867.5328c-80.0768 0-145.408-65.1264-145.408-145.408 0-80.0768 65.1264-145.408 145.408-145.408s145.408 65.1264 145.408 145.408c-0.2048 80.2816-65.3312 145.408-145.408 145.408z m0-270.1312c-68.8128 0-124.928 55.9104-124.928 124.928s55.9104 124.928 124.928 124.928 124.928-55.9104 124.928-124.928-56.1152-124.928-124.928-124.928z" fill="#1C1D21" p-id="7486"></path></svg>