<?xml version="1.0" standalone="no"?><!DOCTYPE svg PUBLIC "-//W3C//DTD SVG 1.1//EN" "http://www.w3.org/Graphics/SVG/1.1/DTD/svg11.dtd"><svg t="1709795847435" class="icon" viewBox="0 0 1024 1024" version="1.1" xmlns="http://www.w3.org/2000/svg" p-id="83116" xmlns:xlink="http://www.w3.org/1999/xlink" width="64" height="64"><path d="M445.7472 975.7696L48.3328 578.2528c-36.5568-36.5568-36.5568-95.9488 0-132.5056L445.7472 48.2304c36.5568-36.5568 95.9488-36.5568 132.5056 0l397.5168 397.5168c36.5568 36.5568 36.5568 95.9488 0 132.5056L578.2528 975.7696c-36.5568 36.5568-95.8464 36.5568-132.5056 0z" fill="#FF5F72" p-id="83117"></path><path d="M512 1024c-30.6176 0-59.392-11.8784-80.9984-33.5872L33.5872 592.9984C11.9808 571.2896 0 542.6176 0 512c0-30.6176 11.8784-59.392 33.5872-80.9984L431.104 33.5872C452.7104 11.8784 481.4848 0 512 0c30.6176 0 59.2896 11.8784 80.9984 33.5872L990.5152 431.104c44.6464 44.6464 44.6464 117.248 0 161.8944L592.9984 990.4128C571.392 1012.1216 542.6176 1024 512 1024z m0-982.3232c-19.456 0-37.7856 7.5776-51.5072 21.2992L62.976 460.4928C49.2544 474.2144 41.6768 492.544 41.6768 512s7.5776 37.7856 21.2992 51.5072l397.5168 397.5168c13.7216 13.7216 32.0512 21.2992 51.5072 21.2992 19.456 0 37.7856-7.5776 51.5072-21.2992l397.5168-397.5168c28.3648-28.3648 28.3648-74.6496 0-103.0144L563.5072 62.976C549.7856 49.2544 531.456 41.6768 512 41.6768z" fill="#F30015" p-id="83118"></path><path d="M833.9456 577.6384l-65.2288-65.2288 65.2288-65.2288 65.2288 65.2288-65.2288 65.2288z m-29.7984-65.1264l29.9008 29.9008 29.9008-29.9008-29.9008-29.9008-29.9008 29.9008z" fill="#FF9FB6" p-id="83119"></path><path d="M707.7888 720.9984l-17.5104-17.7152 99.4304-98.6112-92.16-92.16 92.16-92.2624-101.2736-101.2736 17.7152-17.7152 118.8864 118.9888-92.16 92.2624 92.2624 92.2624zM189.0304 577.6384l-65.2288-65.2288 65.2288-65.2288 65.2288 65.2288-65.2288 65.2288z m-29.7984-65.1264l29.9008 29.9008 29.9008-29.9008-29.9008-29.9008-29.9008 29.9008z" fill="#FF9FB6" p-id="83120"></path><path d="M302.08 708.8128L197.9392 604.672l92.2624-92.16-92.2624-92.2624L302.08 316.1088l17.6128 17.7152-86.4256 86.4256 92.2624 92.2624-92.2624 92.16 86.528 86.528z" fill="#FF9FB6" p-id="83121"></path><path d="M459.061248 159.1808l17.664 17.66912-165.03808 164.993024-17.664-17.670144zM690.176 320.7168L548.6592 179.2l17.6128-17.6128 141.6192 141.4144zM513.231872 110.825472l26.50112 26.50112-26.50112 26.50112-26.50112-26.50112zM311.566336 681.984l165.062656 164.969472-17.662976 17.672192L293.904384 699.65824zM690.120704 703.259648l17.661952 17.67424-141.543424 141.443072-17.661952-17.67424zM486.59456 886.504448l26.50112-26.50112 26.50112 26.50112-26.50112 26.50112z" fill="#FF9FB6" p-id="83122"></path><path d="M772.096 409.4976h-36.5568v78.6432c0 18.944-5.2224 34.6112-15.5648 47.104-10.3424 12.9024-23.2448 19.3536-38.7072 19.3536H330.5472V409.4976h-31.1296v-84.48h194.9696l-8.6016-21.9136h81.1008l8.6016 21.9136h143.4624c16.0768 0 28.9792 4.7104 38.7072 14.1312 9.6256 9.0112 14.5408 23.4496 14.5408 43.2128v27.136z m-54.784 222.4128h39.7312v-49.664h-39.7312v-16.7936h-69.8368v16.7936H423.5264v-16.7936h-69.3248v16.7936h-40.2432v49.664h40.2432v39.3216c8.6016 7.2704 17.7152 14.1312 27.4432 20.2752 9.6256 6.2464 20.0704 12.1856 31.1296 17.7152-17.5104 1.7408-34.6112 2.8672-51.3024 3.584-16.6912 0.6144-32.4608 1.2288-47.5136 1.6384V771.072h23.1424c13.2096 0 30.1056-0.512 50.4832-1.6384 20.3776-1.024 43.4176-3.072 69.0176-6.144 25.6-2.9696 52.0192-7.2704 79.2576-12.9024 26.8288 5.632 53.0432 9.9328 78.6432 12.9024 25.6 2.9696 48.64 5.0176 69.0176 6.144 20.3776 1.024 37.2736 1.6384 50.4832 1.6384h23.1424v-56.7296c-15.0528-0.4096-30.9248-0.9216-47.5136-1.6384-16.6912-0.6144-33.5872-1.8432-50.7904-3.584 10.752-5.5296 20.992-11.4688 30.6176-17.7152 9.6256-6.2464 18.944-13.0048 27.9552-20.2752v-39.2192z m-13.9264-237.2608c0-5.5296-1.2288-10.1376-3.7888-13.5168-1.8432-3.8912-5.0176-5.8368-9.6256-5.8368H368.7424v19.3536h334.6432zM662.528 437.248H404.1728v15.4624H662.528V437.248z m0 57.9584H404.1728v17.408h249.2416c6.0416 0 9.1136-3.8912 9.1136-11.5712v-5.8368zM423.5264 647.3728v-15.4624h223.9488v15.4624c-13.2096 9.9328-29.4912 18.3296-48.64 25.4976-19.1488 7.0656-40.2432 13.2096-63.0784 18.3296-22.9376-5.12-43.9296-11.264-63.0784-18.3296-19.1488-7.168-35.5328-15.6672-49.152-25.4976z" fill="#FFE01C" p-id="83123"></path><path d="M454.8608 142.0288c-4.8128 0-9.6256-1.8432-13.2096-5.5296-7.2704-7.2704-7.2704-19.1488 0-26.5216L458.4448 93.184c7.2704-7.2704 19.1488-7.2704 26.5216 0 7.2704 7.2704 7.2704 19.1488 0 26.5216l-16.7936 16.7936c-3.6864 3.6864-8.4992 5.5296-13.312 5.5296zM277.504 313.0368c-4.8128 0-9.6256-1.8432-13.2096-5.5296-7.2704-7.2704-7.2704-19.1488 0-26.5216L379.392 165.888c7.2704-7.2704 19.1488-7.2704 26.5216 0 7.2704 7.2704 7.2704 19.1488 0 26.5216L290.816 307.6096c-3.6864 3.584-8.4992 5.4272-13.312 5.4272z" fill="#FFFFFF" p-id="83124"></path></svg>