<?xml version="1.0" standalone="no"?><!DOCTYPE svg PUBLIC "-//W3C//DTD SVG 1.1//EN" "http://www.w3.org/Graphics/SVG/1.1/DTD/svg11.dtd"><svg t="1708917261709" class="icon" viewBox="0 0 1024 1024" version="1.1" xmlns="http://www.w3.org/2000/svg" p-id="1517" xmlns:xlink="http://www.w3.org/1999/xlink" width="200" height="200"><path d="M675.2 375.3c-57.4-40.2-87.2-86.4-101.3-114-5.2-10.4-32-1.9-48.4 4.8-8.6 3.4-18.3 3.4-26.8 0-16.8-6.7-43.2-15.3-48.4-4.8-13.8 27.9-43.6 74.1-101.3 114-125.5 87.5-230.6 392.6 163.2 392.6 393.6 0 288.6-305.1 163-392.6z m0 0" fill="#FCFBE2" p-id="1518"></path><path d="M239 614.1s4.5 164.3 273.1 164.3 273.1-164.3 273.1-164.3-70.8 118.8-273.1 118.8S239 614.1 239 614.1z m0 0" fill="#EDE6AB" p-id="1519"></path><path d="M349.3 470.7c-1.5 0-3-0.4-4.5-0.7-6.7-2.6-9.7-9.7-7.5-16.4 24.2-63.7 102.8-103.9 106.2-105.4 6.3-3 13.8-0.7 16.8 5.6s0.7 13.8-5.6 17.1c-0.7 0.4-73 36.9-93.5 91.6-1.9 5.2-6.7 8.2-11.9 8.2z m92 13.7c-1.5 0-2.6-0.4-4.1-0.7-6.7-2.2-10.1-9.3-8.2-16 16.8-50.3 38.7-76 39.5-77.1 4.5-5.2 12.7-6 17.9-1.1 5.2 4.5 6 12.7 1.1 17.9-0.4 0.4-19.7 23.5-34.6 68.5-1.6 5.2-6.4 8.5-11.6 8.5z m232.4-7c-5.6 0-10.4-3.7-12.3-9.3-19-67.4-80.8-97.2-81.6-97.6-6.3-3-8.9-10.4-6-16.8 3-6.3 10.4-8.9 16.8-6 3 1.5 72.6 34.6 95 113.6 1.9 6.7-1.9 13.8-8.6 15.6-1 0.5-2.1 0.5-3.3 0.5z m-84.5 7c-5.6 0-10.4-3.7-12.3-8.9-13.4-45.8-34.3-70-34.6-70.4-4.5-5.2-4.1-13 1.1-17.9 5.2-4.5 13-4.1 17.9 1.1 1.1 1.1 25 28.7 39.9 80.1 1.9 6.7-1.9 13.8-8.6 15.6-1.2 0.1-2.3 0.4-3.4 0.4z m0 0" fill="#4C2F1B" p-id="1520"></path><path d="M562.7 256.1c5.6 0 9.7 1.5 11.5 4.8 13.8 27.9 43.6 74.1 101.3 114 125.5 87.5 231 392.6-163.2 392.6-394.1 0-289.1-304.7-163.5-392.3 57.4-40.2 87.2-86.4 101.3-114 1.9-3.4 6-4.8 11.5-4.8 10.8 0 26.1 5.2 37.3 9.7 4.5 1.9 8.9 2.6 13.4 2.6s8.9-0.7 13.4-2.6c10.6-4.8 26.2-10 37-10m0-42.1c-13.8 0-30.2 3.7-50.7 11.9-20.5-8.2-36.9-11.9-50.7-11.9-31.7 0-44.7 19.7-49.2 28.3-10.8 21.2-36.1 62.6-87.5 98.3C237.4 401.7 167 541 202 652c22.9 72 95.1 158 310.1 158S799.3 724 822 652.1c34.6-110.6-35.4-250.3-122.6-311.4-51.4-35.8-76.7-77.1-87.5-98.3-4.5-8.7-17.9-28.4-49.2-28.4z m0 0" fill="#4C2F1B" p-id="1521"></path></svg>