<?xml version="1.0" standalone="no"?><!DOCTYPE svg PUBLIC "-//W3C//DTD SVG 1.1//EN" "http://www.w3.org/Graphics/SVG/1.1/DTD/svg11.dtd"><svg t="1709792900357" class="icon" viewBox="0 0 1024 1024" version="1.1" xmlns="http://www.w3.org/2000/svg" p-id="13547" xmlns:xlink="http://www.w3.org/1999/xlink" width="64" height="64"><path d="M128.7 569.9s-70.9-82.2-3.7-176.4c65.9-92.5 133.8-71.6 168-74.7 41.1-3.7 85.9-52.3 190.4-14.9 31.5 11.2 82.2-7.5 127 7.5s70.9-56 175.5 0c54 28.9 116.7 34.8 141.9 97.1C968.9 510.3 912.9 570 912.9 570s-698.3 164.2-784.2-0.1" fill="#C46C31" p-id="13548"></path><path d="M927.8 408.4c-16.9-42-50.9-58.3-87.8-73.4 22.5 20.9 41.6 45.2 53 73.4 41 101.8-15 161.5-15 161.5s-294.9 69.4-525 72.9c233.9 3.8 559.9-72.9 559.9-72.9s56-59.7 14.9-161.5z" fill="#874010" p-id="13549"></path><path d="M181.8 569.9s-70.9-82.2-3.7-176.4c24.4-34.2 49-58 72-74.5-35.3 1.4-80.7 12.1-125.2 74.5-67.2 94.3 3.7 176.4 3.7 176.4 30.8 59 140.7 75.6 268.7 72.7-104.3-2.6-189-22-215.5-72.7z" fill="#E88F52" p-id="13550"></path><path d="M370.1 653c-30.6 0-58.5-1.2-83.7-3.8-41.7-4.1-76.4-11.8-103.2-22.8-30.7-12.6-52.1-30.1-63.4-51.8-2.6-4.9-0.7-10.9 4.2-13.5 4.9-2.6 10.9-0.7 13.5 4.2 17.9 34.3 68.7 55.8 150.9 64 67.9 6.7 156.5 4.2 263.4-7.7 168.9-18.7 330.8-55 355.5-60.7 3.8-4.9 13-17.8 19.2-37.6 10.7-34.2 8-71.6-8-111.1-16.8-41.5-51.4-55.4-91.5-71.5-15.1-6.1-30.8-12.4-45.9-20.5-61.8-33.1-92.7-19.5-120-7.5-17.4 7.6-33.8 14.9-53.9 8.1-22.2-7.4-46.3-5.8-69.6-4.3-21.1 1.4-41.1 2.7-57.6-3.2-73.4-26.2-130.9-7.7-173 5.9-16.1 5.2-30.1 9.7-42.2 10.8-5.5 0.5-10.4-3.6-10.9-9.1s3.6-10.4 9.1-10.9c9.9-0.9 22.8-5.1 37.8-9.9 42.2-13.6 106.1-34.2 185.9-5.7 12.6 4.5 30.6 3.3 49.6 2.1 24-1.6 51.3-3.3 77.2 5.3 12.8 4.3 24.1-0.7 39.6-7.5 28.3-12.5 67.2-29.5 137.5 8.1 14.1 7.6 29.3 13.7 43.9 19.5 40.6 16.3 82.6 33.2 102.6 82.6 22.3 55.3 16.8 98.9 8.2 125.7-9.4 29.5-24.5 45.7-25.1 46.4l-2.1 2.2-2.9 0.7c-1.8 0.4-177.3 41.5-361.1 61.8-68.9 7.8-130.5 11.7-184 11.7z" fill="#9F6847" p-id="13551"></path><path d="M128.7 579.9c-2.8 0-5.6-1.2-7.6-3.5-0.8-0.9-19.3-22.6-29.1-56.6-9.1-31.6-12.2-80.2 24.8-132.2 25-35 52.4-57.7 83.7-69.4 5.2-1.9 10.9 0.7 12.9 5.9 1.9 5.2-0.7 10.9-5.9 12.9-27.5 10.2-51.8 30.6-74.4 62.3-26 36.5-33.4 75.2-21.9 115 8.6 29.9 24.9 48.9 25 49.1 3.6 4.2 3.1 10.5-1 14.1-1.9 1.6-4.2 2.4-6.5 2.4z" fill="#9F6847" p-id="13552"></path><path d="M754.1 864H287.4c-77 0-132.6-44.8-140-119.5l-18.7-174.6c0-2.6 2.1-4.7 4.7-4.7h6.5l5.4-2.7c5.9-3 13-2.5 18.5 1.1l2.3 1.5 8.3-4.1c4.1-2.1 9-1.8 12.9 0.8l5 3.3 10.6-5.3c2.9-1.4 6-2.2 9.3-2.1l36.4 10.5c26.8 7.8 55.1 8.8 82.4 3.1l2.9-0.6c29.8-6.2 60.5-7.4 90.8-3.5l70.1 9 84.6 6.9c35.4 2.9 71.1-0.4 105.5-9.6l16.2-4.4c19.3-5.2 39.1-7.8 59.1-7.8h74.5l11.2 7.5 8.4-4.2c4-2 8.8-1.7 12.6 0.8l5.1 3.4 6.5-3.2c5.3-2.7 11.6-2.7 16.9 0l6.5 3.2 6.5-3.7c2.6 0 4.7 2.1 4.7 4.7l-18.7 174.6C883 819.2 831.2 864 754.1 864z" fill="#E0935F" p-id="13553"></path><path d="M182.5 744.5L165.6 565l-1.9-1.3c-5.5-3.7-12.5-4.1-18.5-1.1l-5.4 2.7h-6.5c-2.6 0-4.7 2.1-4.7 4.7l18.7 174.6c7.5 74.7 63 119.5 140 119.5h35.2c-77-0.1-132.5-44.9-140-119.6z" fill="#FFFFFF" p-id="13554"></path><path d="M856 744.5L872.9 565l1.9-1.3c5.5-3.7 12.5-4.1 18.5-1.1l5.4 2.7h6.5c2.6 0 4.7 2.1 4.7 4.7l-18.7 174.6c-7.5 74.7-63 119.5-140 119.5H716c77-0.1 132.6-44.9 140-119.6z" fill="#9B5729" p-id="13555"></path><path d="M754.1 874c-5.5 0-10-4.5-10-10s4.5-10 10-10c72.1 0 119.5-40.4 130.1-110.8L901.8 579c-1.6 0-3.2-0.3-4.6-1.1l-6.5-3.2c-2.5-1.3-5.5-1.2-8 0l-6.5 3.2c-3.2 1.6-7 1.4-10-0.6l-5.1-3.4c-0.8-0.5-1.8-0.6-2.6-0.2l-8.4 4.2c-3.2 1.6-7 1.4-10-0.6l-8.7-5.8h-71.5c-19.1 0-38.1 2.5-56.5 7.5l-16.2 4.4c-35.5 9.6-72.2 12.9-108.9 9.9l-84.6-6.9h-0.5l-70.1-9c-29.2-3.8-58.6-2.6-87.4 3.4l-2.9 0.6c-28.8 6-59 4.9-87.3-3.3L210.6 568c-1.2 0.1-2.4 0.5-3.5 1l-10.6 5.3c-3.2 1.6-7 1.4-10-0.6l-5-3.3c-0.9-0.6-1.9-0.6-2.9-0.2l-8.3 4.1c-3.2 1.6-7 1.4-10-0.6l-2.3-1.5a8.18 8.18 0 0 0-8.4-0.5l-5.4 2.7c-1.4 0.7-2.9 1.1-4.5 1.1h-0.6l18 168.2c7 68 56.9 110.3 130.3 110.3H704c5.5 0 10 4.5 10 10s-4.5 10-10 10H287.4c-40.5 0-76-11.8-102.5-34.1-27.1-22.8-43.6-55.5-47.5-94.4L118.7 571c0-0.4-0.1-0.7-0.1-1.1 0-8.1 6.6-14.7 14.7-14.7h4.2l3.3-1.6c8.2-4.1 17.8-4 25.8 0.2l3.2-1.6c7.3-3.7 16.1-3.1 22.9 1.4l0.2 0.1 5.4-2.7c4.3-2.1 9.1-3.2 13.8-3.2 0.9 0 1.8 0.1 2.7 0.4l36.4 10.5c25.1 7.3 52 8.3 77.6 3l2.9-0.6c31-6.5 62.7-7.7 94.1-3.6l69.8 9 84.4 6.8c34.4 2.8 68.7-0.3 102.1-9.3l16.2-4.4c20.1-5.4 40.8-8.2 61.7-8.2h74.5c2 0 3.9 0.6 5.5 1.7l6.4 4.2 3.2-1.6c7.2-3.6 15.9-3.1 22.6 1.4l0.3 0.2 1.3-0.6c8.1-4 17.8-4.1 25.9 0l1.7 0.8 1.9-1.1c1.5-0.9 3.2-1.3 5-1.3 8.1 0 14.7 6.6 14.7 14.7 0 0.4 0 0.7-0.1 1.1l-18.7 174.6c0 0.1 0 0.3-0.1 0.4-5.9 39.1-22.7 71.6-48.7 93.9-26.1 22.4-61.1 34.2-101.3 34.2z" fill="#9F6847" p-id="13556"></path><path d="M154.8 780.6c-5.5 0-10-4.5-10-10V565.3c0-5.5 4.5-10 10-10s10 4.5 10 10v205.4c0 5.5-4.5 9.9-10 9.9zM180.9 825.5c-5.5 0-10-4.5-10-10V572.3c0-5.5 4.5-10 10-10s10 4.5 10 10v243.2c0 5.5-4.4 10-10 10zM207.1 739.6c-5.5 0-10-4.5-10-10V557.8c0-5.5 4.5-10 10-10s10 4.5 10 10v171.8c0 5.5-4.5 10-10 10zM300.4 691c-5.5 0-10-4.5-10-10V580.2c0-5.5 4.5-10 10-10s10 4.5 10 10V681c0 5.5-4.4 10-10 10zM517 739.6c-5.5 0-10-4.5-10-10V580.2c0-5.5 4.5-10 10-10s10 4.5 10 10v149.4c0 5.5-4.5 10-10 10zM800.8 679.8c-5.5 0-10-4.5-10-10v-97.1c0-5.5 4.5-10 10-10s10 4.5 10 10v97.1c0 5.5-4.5 10-10 10zM655.2 713.4c-5.5 0-10-4.5-10-10V583.9c0-5.5 4.5-10 10-10s10 4.5 10 10v119.5c0 5.6-4.5 10-10 10zM886.7 780.6c-5.5 0-10-4.5-10-10V565.3c0-5.5 4.5-10 10-10s10 4.5 10 10v205.4c0 5.5-4.5 9.9-10 9.9zM860.6 825.5c-5.5 0-10-4.5-10-10V572.3c0-5.5 4.5-10 10-10s10 4.5 10 10v243.2c0 5.5-4.5 10-10 10zM834.4 758.2c-5.5 0-10-4.5-10-10V572.7c0-5.5 4.5-10 10-10s10 4.5 10 10v175.5c0 5.6-4.4 10-10 10z" fill="#9F6847" p-id="13557"></path><path d="M244 414c-2.6 0-5.1-1-7.1-2.9-3.9-3.9-3.9-10.2 0-14.1l20-20c3.9-3.9 10.2-3.9 14.1 0 3.9 3.9 3.9 10.2 0 14.1l-20 20c-1.9 1.9-4.4 2.9-7 2.9zM312 538c-3.2 0-6.4-1.6-8.3-4.5l-8-12c-3.1-4.6-1.8-10.8 2.8-13.9 4.6-3.1 10.8-1.8 13.9 2.8l8 12c3.1 4.6 1.8 10.8-2.8 13.9-1.8 1.2-3.7 1.7-5.6 1.7zM468 434c-5.5 0-10-4.5-10-10v-16c0-5.5 4.5-10 10-10s10 4.5 10 10v16c0 5.5-4.5 10-10 10zM716 482c-2.6 0-5.1-1-7.1-2.9l-16-16c-3.9-3.9-3.9-10.2 0-14.1 3.9-3.9 10.2-3.9 14.1 0l16 16c3.9 3.9 3.9 10.2 0 14.1-1.9 1.9-4.4 2.9-7 2.9zM800 426h-16c-5.5 0-10-4.5-10-10s4.5-10 10-10h16c5.5 0 10 4.5 10 10s-4.5 10-10 10z" fill="#4EABEA" p-id="13558"></path><path d="M216 486c-2.6 0-5.1-1-7.1-2.9l-16-16c-3.9-3.9-3.9-10.2 0-14.1 3.9-3.9 10.2-3.9 14.1 0l16 16c3.9 3.9 3.9 10.2 0 14.1-1.9 1.9-4.4 2.9-7 2.9zM368 358c-5.5 0-10-4.5-10-10v-16c0-5.5 4.5-10 10-10s10 4.5 10 10v16c0 5.5-4.5 10-10 10zM436 530c-3 0-6-1.4-8-4-3.3-4.4-2.4-10.7 2-14l16-12c4.4-3.3 10.7-2.4 14 2 3.3 4.4 2.4 10.7-2 14l-16 12c-1.8 1.3-3.9 2-6 2zM568 354c-0.7 0-1.3-0.1-2-0.2l-20-4c-5.4-1.1-8.9-6.4-7.8-11.8 1.1-5.4 6.4-8.9 11.8-7.8l20 4c5.4 1.1 8.9 6.4 7.8 11.8-0.9 4.7-5.1 8-9.8 8zM568 470c-1.5 0-3-0.3-4.5-1.1-4.9-2.5-6.9-8.5-4.5-13.4l8-16c2.5-4.9 8.5-6.9 13.4-4.5 4.9 2.5 6.9 8.5 4.5 13.4l-8 16c-1.7 3.6-5.2 5.6-8.9 5.6z" fill="#FFD357" p-id="13559"></path><path d="M612 538c-2.1 0-4.2-0.7-6-2-4.4-3.3-5.3-9.6-2-14l12-16c3.3-4.4 9.6-5.3 14-2s5.3 9.6 2 14l-12 16c-2 2.6-5 4-8 4zM352 458c-3.4 0-6.7-1.7-8.6-4.9l-12-20c-2.8-4.7-1.3-10.9 3.4-13.7 4.7-2.8 10.9-1.3 13.7 3.4l12 20c2.8 4.7 1.3 10.9-3.4 13.7-1.6 1-3.3 1.5-5.1 1.5z" fill="#5DD120" p-id="13560"></path><path d="M836 498c-2.1 0-4.2-0.7-6-2-4.4-3.3-5.3-9.6-2-14l12-16c3.3-4.4 9.6-5.3 14-2s5.3 9.6 2 14l-12 16c-2 2.6-5 4-8 4z" fill="#FFD357" p-id="13561"></path><path d="M740 156l-40 196 76 20z" fill="#664929" p-id="13562"></path><path d="M776 382c-0.8 0-1.7-0.1-2.5-0.3l-76-20c-5.1-1.4-8.3-6.5-7.3-11.7l40-196c1-4.7 5.1-8.1 10-8 4.8 0.1 8.9 3.6 9.7 8.4l36 216c0.6 3.3-0.6 6.7-3.1 9-1.9 1.7-4.3 2.6-6.8 2.6z m-64.3-37.3l51.9 13.7L739 210.9l-27.3 133.8z" fill="#9F6847" p-id="13563"></path></svg>