<?xml version="1.0" standalone="no"?><!DOCTYPE svg PUBLIC "-//W3C//DTD SVG 1.1//EN" "http://www.w3.org/Graphics/SVG/1.1/DTD/svg11.dtd"><svg t="1709793222142" class="icon" viewBox="0 0 1024 1024" version="1.1" xmlns="http://www.w3.org/2000/svg" p-id="25775" xmlns:xlink="http://www.w3.org/1999/xlink" width="64" height="64"><path d="M998.912 513.536c0 268.8-218.112 486.912-486.912 486.912S25.6 782.336 25.6 513.536 243.2 26.624 512.512 26.624s486.4 218.112 486.4 486.912" fill="#AF7045" p-id="25776"></path><path d="M986.624 513.536c0 262.144-212.48 474.624-474.624 474.624S37.376 775.68 37.376 513.536 249.856 38.912 512 38.912s474.624 212.48 474.624 474.624" fill="#CC8A5C" p-id="25777"></path><path d="M949.248 513.536c0 241.152-195.584 437.248-437.248 437.248-241.152 0-437.248-195.584-437.248-437.248 0-241.152 195.584-437.248 437.248-437.248s437.248 196.096 437.248 437.248" fill="#FDF9E6" p-id="25778"></path><path d="M607.744 146.432c-44.032 0-79.872 35.84-79.872 79.872s35.84 79.872 79.872 79.872 79.872-35.84 79.872-79.872-35.84-79.872-79.872-79.872" fill="#EB4E41" p-id="25779"></path><path d="M577.536 185.344c-5.632 0-10.24 4.608-10.24 10.24s4.608 10.24 10.24 10.24 10.24-4.608 10.24-10.24-4.608-10.24-10.24-10.24M577.536 241.664c-5.632 0-10.24 4.608-10.24 10.24s4.608 10.24 10.24 10.24 10.24-4.608 10.24-10.24-4.608-10.24-10.24-10.24M642.56 185.344c-5.632 0-10.24 4.608-10.24 10.24s4.608 10.24 10.24 10.24 10.24-4.608 10.24-10.24-4.608-10.24-10.24-10.24M607.744 216.064c-5.632 0-10.24 4.608-10.24 10.24s4.608 10.24 10.24 10.24 10.24-4.608 10.24-10.24-4.608-10.24-10.24-10.24M642.56 251.904c-5.632 0-10.24 4.608-10.24 10.24s4.608 10.24 10.24 10.24 10.24-4.608 10.24-10.24-4.608-10.24-10.24-10.24" fill="#FCA56B" p-id="25780"></path><path d="M764.928 309.76c-44.032 0-79.872 35.84-79.872 79.872s35.84 79.872 79.872 79.872 79.872-35.84 79.872-79.872c0-44.544-35.84-79.872-79.872-79.872" fill="#EB4E41" p-id="25781"></path><path d="M734.72 348.672c-5.632 0-10.24 4.608-10.24 10.24s4.608 10.24 10.24 10.24 10.24-4.608 10.24-10.24c-0.512-5.632-4.608-10.24-10.24-10.24M734.72 404.992c-5.632 0-10.24 4.608-10.24 10.24s4.608 10.24 10.24 10.24 10.24-4.608 10.24-10.24c-0.512-5.632-4.608-10.24-10.24-10.24M799.744 348.672c-5.632 0-10.24 4.608-10.24 10.24s4.608 10.24 10.24 10.24 10.24-4.608 10.24-10.24-4.608-10.24-10.24-10.24M764.928 379.392c-5.632 0-10.24 4.608-10.24 10.24s4.608 10.24 10.24 10.24 10.24-4.608 10.24-10.24-4.608-10.24-10.24-10.24M799.744 415.232c-5.632 0-10.24 4.608-10.24 10.24s4.608 10.24 10.24 10.24 10.24-4.608 10.24-10.24-4.608-10.24-10.24-10.24" fill="#FCA56B" p-id="25782"></path><path d="M801.792 538.112c-44.032 0-79.872 35.84-79.872 79.872s35.84 79.872 79.872 79.872 79.872-35.84 79.872-79.872-35.84-79.872-79.872-79.872" fill="#EB4E41" p-id="25783"></path><path d="M771.072 577.024c-5.632 0-10.24 4.608-10.24 10.24s4.608 10.24 10.24 10.24 10.24-4.608 10.24-10.24-4.608-10.24-10.24-10.24M771.072 633.856c-5.632 0-10.24 4.608-10.24 10.24s4.608 10.24 10.24 10.24 10.24-4.608 10.24-10.24c0-6.144-4.608-10.24-10.24-10.24M836.608 577.024c-5.632 0-10.24 4.608-10.24 10.24s4.608 10.24 10.24 10.24 10.24-4.608 10.24-10.24-4.608-10.24-10.24-10.24M801.792 607.744c-5.632 0-10.24 4.608-10.24 10.24s4.608 10.24 10.24 10.24 10.24-4.608 10.24-10.24-4.608-10.24-10.24-10.24M836.608 643.584c-5.632 0-10.24 4.608-10.24 10.24s4.608 10.24 10.24 10.24 10.24-4.608 10.24-10.24-4.608-10.24-10.24-10.24" fill="#FCA56B" p-id="25784"></path><path d="M184.832 601.088l421.888-220.16 51.712 487.424s-328.704 97.792-473.6-267.264z" fill="#BC737A" p-id="25785"></path><path d="M162.816 569.344L601.088 384l12.288 489.984c0.512 0-335.36 70.656-450.56-304.64z" fill="#E8888D" p-id="25786"></path><path d="M455.168 479.744l8.192-0.512c0 5.12 1.536 11.264 4.096 15.36 2.56 4.096 8.192 8.192 12.288 10.752l-4.096 7.168c-6.144-3.072-11.776-7.168-15.36-13.312-3.584-5.632-5.12-12.8-5.12-19.456M403.456 636.928l8.192-0.512c0 5.12 1.536 11.264 4.096 15.36 2.56 4.096 8.192 8.192 12.288 10.752l-4.096 7.168c-6.144-3.072-11.776-7.168-15.36-13.312-3.584-6.144-5.632-12.8-5.12-19.456M550.912 515.072l8.192-0.512c0 5.12 1.536 11.264 4.096 15.36 2.56 4.096 8.192 8.192 12.288 10.752l-4.096 7.168c-6.144-3.072-11.776-7.168-15.36-13.312-3.584-5.632-5.12-12.288-5.12-19.456M571.904 455.168v8.192c-5.12 0-11.264 1.024-15.872 3.584-4.096 2.56-8.704 7.68-10.752 12.288l-7.168-4.096c3.072-6.144 7.68-11.264 13.824-14.848 6.656-4.096 13.312-5.632 19.968-5.12M394.24 529.92v8.192c-5.12 0-11.264 1.024-15.872 3.584-4.096 2.56-8.704 7.68-10.752 12.288l-7.168-4.096c3.072-6.144 7.68-11.264 13.824-14.848 6.656-4.096 13.312-5.632 19.968-5.12M584.704 703.488v8.192c-5.12 0-11.264 1.024-15.872 3.584-4.096 2.56-8.704 7.68-10.752 12.288l-7.168-4.096c3.072-6.144 7.68-11.264 13.824-14.848 6.656-4.096 13.312-5.632 19.968-5.12M518.144 621.056l5.12 6.144c-4.096 3.072-8.192 7.68-10.24 12.8-2.048 4.608-2.048 11.264-1.024 16.384l-8.192 1.024c-1.536-6.656-1.024-13.824 1.536-20.48 3.072-6.144 7.68-11.776 12.8-15.872M486.4 584.704l-6.144 5.12c-3.072-3.584-8.192-7.68-13.312-9.216-4.608-1.536-11.776-1.536-16.384-0.512l-1.536-7.68c6.656-1.536 13.824-1.536 20.48 0.512 7.168 2.56 12.8 6.656 16.896 11.776M322.048 567.808l-6.144 5.12c-3.072-3.584-8.192-7.68-13.312-9.216-4.608-1.536-11.776-1.536-16.384-0.512l-1.536-7.68c6.656-1.536 13.824-1.536 20.48 0.512 7.168 2.048 12.8 6.144 16.896 11.776" fill="#FFDF40" p-id="25787"></path><path d="M216.064 546.816s33.28 21.504 36.864 49.664c3.584 28.16-9.216 38.912 6.144 50.688s47.616 15.872 66.56 23.552 31.232 20.48 35.328 26.112c4.608 5.632 12.288 41.984 15.872 41.984s16.384 28.16 29.184 31.232 57.856-3.584 67.584-3.072c9.728 0 24.064 1.024 28.672 6.656 4.608 5.632 22.016 28.16 32.768 39.424 10.752 11.264 30.72 10.24 38.912 11.776s37.376 1.536 37.376 1.536l2.56 46.592s-152.064 37.376-297.472-69.12-153.088-235.008-153.088-235.008l52.736-22.016z" fill="#FFD0D2" p-id="25788"></path><path d="M195.072 371.2a158.72 117.248 0 1 0 317.44 0 158.72 117.248 0 1 0-317.44 0Z" fill="#FFFFFF" p-id="25789"></path><path d="M351.744 304.128C315.904 298.496 282.112 322.56 276.48 358.4c-5.632 35.84 18.432 69.632 54.272 75.264 35.84 5.632 69.632-18.432 75.264-54.272 6.144-35.84-18.432-69.632-54.272-75.264z" fill="#FF4F2A" p-id="25790"></path></svg>