<?xml version="1.0" standalone="no"?><!DOCTYPE svg PUBLIC "-//W3C//DTD SVG 1.1//EN" "http://www.w3.org/Graphics/SVG/1.1/DTD/svg11.dtd"><svg t="1708917316528" class="icon" viewBox="0 0 1024 1024" version="1.1" xmlns="http://www.w3.org/2000/svg" p-id="4053" xmlns:xlink="http://www.w3.org/1999/xlink" width="200" height="200"><path d="M394.5 484.1l123.1 372.8 111.1-372.8H394.5z m0 0" fill="#EA9B65" p-id="4054"></path><path d="M389.7 491.9l127.5 387.7 116-387.7H389.7z m0 0" fill="#EA9B65" p-id="4055"></path><path d="M462.2 747.5c-1.8 0-3.5-0.4-5.3-1.3-4.9-3.1-6.6-9.3-3.5-14.6l102.3-171.8c3.1-4.9 9.7-6.6 14.6-3.5 4.9 3.1 6.6 9.3 3.5 14.6L471.5 742.2c-2.2 3.1-5.7 5.3-9.3 5.3z m-38.5-44.7c-1.8 0-3.5-0.4-5.3-1.3-4.9-3.1-6.6-9.3-3.5-14.6l102.3-171.8c3.1-4.9 9.7-6.6 14.6-3.5 4.9 3.1 6.6 9.3 3.5 14.6L433 697.9c-1.8 2.7-5.3 4.9-9.3 4.9z m0 0" fill="#B77142" p-id="4056"></path><path d="M573.7 807.1c-3.3 0-6.6-1.8-8.7-5.3L409.9 523.3c-2.9-4.9-1.2-11.5 3.3-14.6 4.6-3.1 10.8-1.3 13.6 3.5L582 790.7c2.9 4.9 1.2 11.5-3.3 14.6-1.7 1.4-3.3 1.8-5 1.8z m7-70.8c-3.3 0-6.6-1.8-8.7-5.3L439.7 492.8c-2.9-4.9-1.2-11.5 3.3-14.6 4.5-3.1 10.8-1.3 13.6 3.5l132.8 238.2c2.9 4.9 1.2 11.5-3.3 14.6-1.6 1.3-3.7 1.8-5.4 1.8zM541 826.6c-3.3 0-6.6-1.8-8.7-5.3L415.3 611c-2.9-4.9-1.2-11.5 3.3-14.6 4.6-3.1 10.8-1.3 13.7 3.5l117 210.3c2.9 4.9 1.2 11.5-3.3 14.6-1.7 1.3-3.3 1.8-5 1.8z m0 0" fill="#B77142" p-id="4057"></path><path d="M482.1 821c-1.8 0-3.5-0.4-5.3-1.3-4.9-3.1-6.6-9.3-3.5-14.6l118.2-198.3c3.1-4.9 9.7-6.6 14.6-3.5 4.9 3.1 6.6 9.3 3.5 14.6L491.4 816.2c-2.2 3.1-5.7 4.8-9.3 4.8z m0 0" fill="#B77142" p-id="4058"></path><path d="M517.5 905.4c-21.1 0-39.6-13.3-46.1-33.1L348.3 499.5c-4.9-15-2.3-31.3 6.9-43.7 8.8-12.8 23.4-20.3 39.3-20.3h234.6c26.5 0 48.1 21.6 48.1 48.1 0 5.7-0.8 11-2.4 15.8L564.1 870.6c-6 20.4-24.4 34.4-45.7 34.8h-0.9z m-0.2-33.2l117.5-392.6H388.2l129.1 392.6z" fill="#4C2F1B" p-id="4059"></path><path d="M562.7 571.3c-29.2 0-41.2-16.4-46-26.1-5.8-12-5.8-24.8-5.8-34.1v-2.2l-17.7-0.4c-0.9 0-2.2 0-3.1-0.4-10.2 4-28.8 9.7-46.5 9.7-17.3 0-37.2-6.6-50.5-12h-1.3c-24.8-1.8-43.4-15.1-50.5-36.3-13.3-37.6 15.1-91.2 26.6-101.8 9.3-8.9 24.3-15.5 47.8-25.7 7.5-3.5 19.5-8.4 26.6-12 6.2-64.2 62-112.9 132.4-112.9 99.6 0 141.2 69.5 147 129.3 6.2 63.8-27.4 139.5-100.9 153.6-3.1 0.4-6.6 0.9-10.6 1.3-0.9 0-1.8 0-3.1 0.4V512c0.4 10.2 0.9 31.9-13.7 46.9-8.1 8.4-18.7 12.4-30.7 12.4z m0 0" fill="#FFFFFF" p-id="4060"></path><path d="M562.7 593.3c-29.8 0-53.8-14.1-65.8-38.6-3.1-6.6-4.7-13.3-5.8-18.4l-1-4.9-4.8 1.5c-14.5 4.5-28.9 6.9-41.6 6.9-21.6 0-43.7-7.6-55-12.1l-0.6-0.2-0.6-0.1c-32.4-3.4-56.9-21.8-67-50.5-17.7-50.5 18.5-112.5 32.4-125.3 12.7-11.9 31.9-20.2 54.1-29.7 1.8-0.9 3.7-1.7 5.7-2.5 2.4-1 5-2.1 7.4-3.3l2-1 0.4-2.2c13.6-69.2 76-117.6 151.8-117.6 106.3 0 161.7 74.9 169.4 149.1 7.7 83.6-39.1 157.6-111.2 175.7l-3.3 0.8-0.2 3.4c-1.2 21-8 37.9-20 50.2-11.8 12.1-28.3 18.8-46.3 18.8z m-31-105.1c1.5 3 1.3 13.4 1.2 18l-0.1 4.4c0 8.7 0 17.7 3.6 25.2 4.4 9.2 13.2 13.9 26.2 13.9 6 0 10.9-1.9 14.6-5.7 8-8.2 7.5-22.4 7.3-30.9l-0.1-2.9v-23.5c0-4 15.4-5.8 22-6.6 3.7-0.4 7.1-0.8 9.7-1.4 60.9-11.7 88.3-75.9 83.1-130.2C694.4 298 658.7 239 574 239c-31.6 0-61.5 12-82.1 32.8-18.4 18.7-28.3 43.6-27.9 70.1-1.4 4.5-25.3 14.8-39.6 20.9-17.4 7.5-33.9 14.5-41.2 21.3-7.3 6.5-30.4 50.4-21 78.2 3.1 9 11 20.2 31.7 21.8 2.6 0.4 5.3 0.8 7.8 1.9 2.4 1.1 24.2 10.5 42.1 10.5 17 0 36.1-7.3 39.8-8.7 0.7-0.2 3.4-1 6.3-1 1 0 1.9 0 2.6 0.2l0.6 0.2 38.6 1z" fill="#4C2F1B" p-id="4061"></path><path d="M541 365.9c-62 0-112.9-50.5-112.9-112.9 0-62.4 50.5-112.9 112.9-112.9 62 0 112.9 50.5 112.9 112.9 0 62.4-50.5 112.9-112.9 112.9z m0 0" fill="#FF5F5F" p-id="4062"></path><path d="M541 387.9c-74.1 0-134.4-60.5-134.4-134.9 0-74.1 60.3-134.4 134.4-134.4s134.4 60.5 134.4 134.9c0.1 74.1-60.3 134.4-134.4 134.4z m0-225.4c-50.1 0-90.9 40.6-90.9 90.5 0 50.1 40.8 90.9 90.9 90.9s90.9-40.6 90.9-90.5c0-50.1-40.8-90.9-90.9-90.9z" fill="#4C2F1B" p-id="4063"></path><path d="M443.2 274.7c0 3.7 3 6.6 6.6 6.6 3.7 0 6.6-3 6.6-6.6 0-3.7-3-6.6-6.6-6.6-3.7 0-6.6 2.9-6.6 6.6z m0 0" fill="#FF8585" p-id="4064"></path><path d="M481.7 236.6c-1.3 0-2.7-0.4-4-0.9-5.3-2.2-8-8.4-5.8-13.7 7.1-17.3 34.1-48.7 88.1-42 5.8 0.9 9.7 6.2 9.3 12-0.9 5.8-6.2 9.7-12 9.3-50.5-6.2-65.1 27.4-66 28.8-1.2 4.3-5.2 6.5-9.6 6.5z m0 0" fill="#FFFFFF" p-id="4065"></path><path d="M415.7 437.2c-62.9 0-114.2-51.4-114.2-114.2s51.4-114.2 114.2-114.2c62.9 0 114.2 51.4 114.2 114.2s-51.3 114.2-114.2 114.2z m0 0" fill="#FFED69" p-id="4066"></path><path d="M415.7 459.2c-75.1 0-136.2-61.1-136.2-136.2s61.1-136.2 136.2-136.2S551.9 247.9 551.9 323s-61.1 136.2-136.2 136.2z m0-228.5c-50.9 0-92.2 41.4-92.2 92.2s41.4 92.2 92.2 92.2S508 373.8 508 323s-41.4-92.3-92.3-92.3z" fill="#4C2F1B" p-id="4067"></path><path d="M354.6 311c-1.3 0-2.7-0.4-4-0.9-5.3-2.2-8-8.4-5.8-13.7 7.1-17.3 34.1-48.7 88.1-42.1 5.8 0.9 9.7 6.2 9.3 12-0.9 5.8-6.2 9.7-12 9.3-50.5-6.2-65.1 27.4-66 28.8-1.6 4.4-5.6 6.6-9.6 6.6z m0 0M448 274.3c0 5.9 4.8 10.6 10.6 10.6 5.9 0 10.6-4.8 10.6-10.6 0-5.9-4.8-10.6-10.6-10.6-5.8-0.1-10.6 4.7-10.6 10.6z m0 0" fill="#FFFFFF" p-id="4068"></path></svg>