<?xml version="1.0" standalone="no"?><!DOCTYPE svg PUBLIC "-//W3C//DTD SVG 1.1//EN" "http://www.w3.org/Graphics/SVG/1.1/DTD/svg11.dtd"><svg t="1709793105969" class="icon" viewBox="0 0 1024 1024" version="1.1" xmlns="http://www.w3.org/2000/svg" p-id="21077" xmlns:xlink="http://www.w3.org/1999/xlink" width="64" height="64"><path d="M431.485 742.752l-5.74-2.734a13.16 13.16 0 0 1-6.284-17.376l322.35-699.97a13.146 13.146 0 0 1 17.601-6.368l24.664 11.766a13.15 13.15 0 0 1 6.126 17.696L448.938 736.712a13.148 13.148 0 0 1-17.453 6.04z m0 0" fill="#C1752F" p-id="21078"></path><path d="M457.546 716.408l5.212 3.656a13.158 13.158 0 0 0 18.22-3.054l451.5-624.519a13.146 13.146 0 0 0-3.1-18.46l-22.36-15.703a13.148 13.148 0 0 0-18.42 3.344L454.25 698.229a13.16 13.16 0 0 0 3.296 18.18z m0 0" fill="#C1752F" p-id="21079"></path><path d="M925.293 531.076c0 93.723-75.984 169.699-169.7 169.699-93.726 0-169.704-75.976-169.704-169.7 0-93.726 75.978-169.704 169.703-169.704 93.72 0 169.7 75.978 169.7 169.703z m0 0" fill="#F3E8D7" p-id="21080"></path><path d="M755.592 361.373a169.423 169.423 0 0 0-55.773 9.42c66.319 23.08 113.937 86.101 113.937 160.28s-47.618 137.204-113.937 160.28a169.423 169.423 0 0 0 55.773 9.424c93.72 0 169.7-75.978 169.7-169.703 0-93.725-75.983-169.7-169.7-169.7z m0 0" fill="#EADDCC" p-id="21081"></path><path d="M867.123 531.076c0 61.6-49.94 111.537-111.53 111.537-61.6 0-111.54-49.94-111.54-111.54 0-61.599 49.94-111.538 111.54-111.538 61.593 0 111.528 49.94 111.528 111.539z m0 0" fill="#E5D8C6" p-id="21082"></path><path d="M755.592 419.537a110.96 110.96 0 0 0-55.773 14.96c33.327 19.29 55.773 55.303 55.773 96.579 0 41.28-22.446 77.287-55.773 96.575a110.96 110.96 0 0 0 55.773 14.96c61.594 0 111.53-49.936 111.53-111.537 0-61.594-49.936-111.54-111.53-111.54z m0 0" fill="#D8C9B6" p-id="21083"></path><path d="M808.866 531.076c0 29.42-23.852 53.28-53.274 53.28-29.43 0-53.28-23.86-53.28-53.28 0-29.424 23.85-53.284 53.28-53.284 29.42 0 53.274 23.86 53.274 53.282zM565.39 393.09c0 93.725-75.976 169.7-169.701 169.7-93.72 0-169.703-75.975-169.703-169.7 0-93.72 75.984-169.703 169.703-169.703 93.725 0 169.7 75.986 169.7 169.703z m0 0" fill="#F3E8D7" p-id="21084"></path><path d="M395.689 223.388a169.509 169.509 0 0 0-58.212 10.25c65.056 23.76 111.491 86.18 111.491 159.453s-46.443 135.7-111.49 159.45c18.155 6.635 37.765 10.25 58.21 10.25 93.726 0 169.702-75.975 169.702-169.7s-75.976-169.703-169.701-169.703z m0 0" fill="#EADDCC" p-id="21085"></path><path d="M507.226 393.09c0 61.6-49.936 111.54-111.54 111.54-61.59 0-111.528-49.94-111.528-111.54 0-61.593 49.937-111.53 111.53-111.53 61.6 0 111.54 49.937 111.54 111.53z m0 0" fill="#E5D8C6" p-id="21086"></path><path d="M395.689 281.56a111.04 111.04 0 0 0-57.344 15.86c32.46 19.508 54.188 55.045 54.188 95.67 0 40.633-21.728 76.172-54.188 95.672 16.758 10.07 36.366 15.866 57.344 15.866 61.6 0 111.539-49.936 111.539-111.54s-49.94-111.528-111.54-111.528z m0 0" fill="#D8C9B6" p-id="21087"></path><path d="M448.968 393.09c0 29.43-23.85 53.28-53.28 53.28-29.42 0-53.273-23.85-53.273-53.28 0-29.42 23.852-53.273 53.274-53.273 29.43 0 53.28 23.852 53.28 53.274z m0 0" fill="#F3E8D7" p-id="21088"></path><path d="M691.49 531.076c0 93.723-75.975 169.699-169.7 169.699-93.72 0-169.703-75.976-169.703-169.7 0-93.726 75.984-169.704 169.703-169.704 93.725 0 169.7 75.978 169.7 169.703z m0 0" fill="#F3E8D7" p-id="21089"></path><path d="M521.79 361.373c-20.446 0-40.056 3.616-58.212 10.25 65.054 23.756 111.492 86.18 111.492 159.45 0 73.274-46.438 135.696-111.492 159.454a169.509 169.509 0 0 0 58.212 10.25c93.725 0 169.7-75.978 169.7-169.703 0-93.725-75.975-169.7-169.7-169.7z m0 0" fill="#EADDCC" p-id="21090"></path><path d="M633.327 531.076c0 61.6-49.938 111.537-111.54 111.537-61.59 0-111.528-49.94-111.528-111.54 0-61.599 49.937-111.538 111.53-111.538 61.6 0 111.54 49.94 111.54 111.539z m0 0" fill="#E5D8C6" p-id="21091"></path><path d="M521.79 419.537a111.043 111.043 0 0 0-57.97 16.234c32.126 19.577 53.57 54.935 53.57 95.303s-21.444 75.725-53.57 95.303a111.043 111.043 0 0 0 57.97 16.236c61.6 0 111.54-49.94 111.54-111.54 0-61.593-49.94-111.538-111.54-111.538z m0 0" fill="#D8C9B6" p-id="21092"></path><path d="M575.07 531.076c0 29.42-23.852 53.28-53.28 53.28-29.422 0-53.274-23.86-53.274-53.28 0-29.424 23.852-53.284 53.274-53.284 29.428 0 53.28 23.86 53.28 53.282z m-136.765 0c0 93.723-75.984 169.699-169.701 169.699-93.727 0-169.703-75.976-169.703-169.7 0-93.726 75.978-169.704 169.703-169.704 93.72 0 169.7 75.978 169.7 169.703z m0 0" fill="#F3E8D7" p-id="21093"></path><path d="M268.602 361.373a169.35 169.35 0 0 0-57.68 10.07c65.33 23.608 112.017 86.163 112.017 159.63S276.244 667.09 210.924 690.706a169.35 169.35 0 0 0 57.68 10.072c93.72 0 169.7-75.978 169.7-169.703 0-93.725-75.983-169.703-169.7-169.703z m0 0" fill="#EADDCC" p-id="21094"></path><path d="M380.133 531.076c0 61.6-49.936 111.537-111.53 111.537-61.6 0-111.538-49.94-111.538-111.54 0-61.599 49.937-111.538 111.539-111.538 61.593 0 111.529 49.94 111.529 111.539z m0 0" fill="#E5D8C6" p-id="21095"></path><path d="M268.602 419.537c-21.232 0-41.076 5.936-57.968 16.234 32.118 19.577 53.564 54.935 53.564 95.303s-21.446 75.725-53.564 95.303c16.892 10.298 36.736 16.236 57.97 16.236 61.593 0 111.529-49.94 111.529-111.54 0-61.593-49.936-111.538-111.53-111.538z m0 0" fill="#D8C9B6" p-id="21096"></path><path d="M321.877 531.076c0 29.42-23.851 53.28-53.273 53.28-29.43 0-53.28-23.86-53.28-53.28 0-29.424 23.85-53.284 53.28-53.284 29.42 0 53.271 23.86 53.271 53.282z m0 0" fill="#F3E8D7" p-id="21097"></path><path d="M56.2 531.076a9.196 9.196 0 0 0-9.15 10.108c9.44 94.429 50.711 268.068 221.07 376.629a16.76 16.76 0 0 0 4.258 1.93v56.6c0 18.031 14.608 32.641 32.64 32.641h414.324c18.024 0 32.64-14.61 32.64-32.64v-56.663a16.94 16.94 0 0 0 4.086-1.868c170.35-108.561 211.624-282.2 221.06-376.63a9.184 9.184 0 0 0-9.148-10.11z m0 0" fill="#33D8DD" p-id="21098"></path><path d="M746.788 920.5H277.4a17.538 17.538 0 0 1-5.024-0.75v56.6c0 18.024 14.61 32.642 32.64 32.642h414.326c18.03 0 32.64-14.618 32.64-32.64V919.69a17.398 17.398 0 0 1-5.194 0.812z m0 0" fill="#2ECCCC" p-id="21099"></path><path d="M746.788 920.5H634.867v88.492h84.475c18.03 0 32.64-14.618 32.64-32.64V919.69a17.398 17.398 0 0 1-5.194 0.812z m0 0" fill="#23B5B1" p-id="21100"></path><path d="M277.402 920.5a17.538 17.538 0 0 1-5.026-0.75v0.75z m-2.462 68.554z m0 0" fill="#25B9C0" p-id="21101"></path><path d="M967.988 531.076H857.465C855.505 744.04 649.453 915.743 634.867 920.5h111.92a17.16 17.16 0 0 0 5.195-0.82 16.802 16.802 0 0 0 4.086-1.868c170.359-108.561 211.632-282.2 221.068-376.63a9.192 9.192 0 0 0-9.148-10.11z m0 0" fill="#2CC6C2" p-id="21102"></path><path d="M985.934 524.028a24.282 24.282 0 0 0-17.946-7.96h-28.295c-2.806-35.3-15.516-68.555-37.196-96.961a15.004 15.004 0 0 0-23.852 18.204c17.648 23.123 28.172 50.1 30.9 78.755h-28.338c-7.452-62.72-60.927-111.53-125.623-111.53-28.446 0-56.04 9.71-78.195 27.1a185.373 185.373 0 0 0-16.968-22.475 153.929 153.929 0 0 1 14.296-9.906c0.056-0.04 0.118-0.062 0.172-0.094a155.675 155.675 0 0 1 18.626-9.774c0.61-0.266 1.226-0.522 1.836-0.78a142.305 142.305 0 0 1 8.008-3.14c0.811-0.3 1.623-0.596 2.443-0.876a142.793 142.793 0 0 1 5-1.594c0.75-0.226 1.492-0.454 2.25-0.664 1.72-0.492 3.446-0.954 5.18-1.39 0.766-0.188 1.532-0.36 2.306-0.54a146.065 146.065 0 0 1 7.64-1.562 151.867 151.867 0 0 1 6.5-1.032 154.933 154.933 0 0 1 20.914-1.43c26.172 0 52.032 6.65 74.774 19.236a15.008 15.008 0 0 0 20.39-5.868 15 15 0 0 0-5.869-20.39c-23.803-13.172-50.46-20.906-77.701-22.618l177.45-245.458a27.972 27.972 0 0 0 4.955-21.15 28.01 28.01 0 0 0-11.58-18.381h-0.006l-22.36-15.704a27.94 27.94 0 0 0-21.22-4.664 27.96 27.96 0 0 0-18.218 11.836L656.491 375.223a185.15 185.15 0 0 0-17.796 12.954c-0.212-0.164-0.422-0.336-0.634-0.508L803.654 52.406a27.978 27.978 0 0 0 1.36-21.688 27.966 27.966 0 0 0-14.476-16.194L765.88 2.764a27.93 27.93 0 0 0-21.702-1.066 27.954 27.954 0 0 0-16 14.702L575.046 348.937c-9.108-37.023-29.608-70.593-58.78-95.759a184.675 184.675 0 0 0-120.57-44.788 184.683 184.683 0 0 0-120.484 44.712c-30.608 26.366-51.68 62.008-60.078 101.171C143.88 375.867 90.7 439.437 84.511 516.076H56.2c-6.82 0-13.36 2.9-17.94 7.96a24.26 24.26 0 0 0-6.14 18.64c9.626 96.251 51.711 273.938 225.25 386.069v47.61c0 26.263 21.374 47.639 47.648 47.639h414.324c26.274 0 47.64-21.376 47.64-47.64v-47.711c86.765-56.108 150.265-134.577 188.765-233.278a557.538 557.538 0 0 0 13.195-37.852 576.83 576.83 0 0 0 8.726-31.47 593.955 593.955 0 0 0 14.39-83.365 24.264 24.264 0 0 0-6.124-18.648zM899.935 71.679l19.288 13.546-190.179 263.046c-0.866 0.124-1.734 0.296-2.6 0.436-1.306 0.204-2.61 0.422-3.906 0.658-1.15 0.21-2.29 0.414-3.43 0.648-2.032 0.398-4.048 0.836-6.056 1.312-0.96 0.226-1.92 0.468-2.882 0.72-0.618 0.156-1.234 0.296-1.852 0.46zM755.592 434.543c48.124 0 88.123 35.4 95.36 81.523h-28.76c-6.858-30.452-34.108-53.274-66.6-53.274-21.868 0-41.352 10.344-53.86 26.384a182.679 182.679 0 0 0-9.991-30.476c17.547-15.453 40.32-24.157 63.851-24.157z m35.202 81.523H720.38c5.852-13.664 19.422-23.274 35.204-23.274 15.79 0.008 29.368 9.61 35.21 23.274z m-36.14-485.41l21.266 10.14L613.06 370.537a185.023 185.023 0 0 0-12.04-6.29zM576.467 386.387c1.196 0.454 2.384 0.914 3.572 1.4 0.632 0.256 1.264 0.54 1.898 0.804 1.898 0.804 3.772 1.64 5.632 2.516 0.828 0.39 1.648 0.78 2.47 1.18a163.229 163.229 0 0 1 12.842 7.108 157.21 157.21 0 0 1 5.414 3.516c0.634 0.43 1.266 0.844 1.892 1.28 22.72 15.876 41 37.688 52.57 63.173l0.234 0.53a153.439 153.439 0 0 1 12.75 47.922l0.024 0.25h-28.352c-7.446-62.72-60.92-111.54-125.617-111.54-34.796 0-67.28 14.049-90.865 38.487a185.325 185.325 0 0 0-15.618-24.126c28.634-27.164 66.773-42.514 106.483-42.514a153.965 153.965 0 0 1 54.671 10.014z m-54.68 76.405c-32.49 0-59.739 22.83-66.599 53.282h-2.492c-0.008-0.118-0.024-0.226-0.032-0.336a190.329 190.329 0 0 0-0.554-5.624c-0.064-0.516-0.118-1.04-0.18-1.564-0.26-2.054-0.54-4.1-0.852-6.14-0.07-0.454-0.156-0.906-0.226-1.36a172.607 172.607 0 0 0-0.852-4.764c-0.04-0.188-0.07-0.376-0.11-0.564-0.086-0.436-0.164-0.882-0.25-1.32a212.19 212.19 0 0 0-1.328-6.016c-0.124-0.53-0.258-1.054-0.39-1.586a236.52 236.52 0 0 0-0.82-3.218l-0.023-0.08c-0.202-0.772-0.414-1.538-0.624-2.31-0.072-0.26-0.14-0.516-0.22-0.782a197.15 197.15 0 0 0-0.92-3.094 0.664 0.664 0 0 1-0.04-0.132c-0.26-0.836-0.524-1.664-0.79-2.5-0.1-0.328-0.194-0.656-0.296-0.984 18.193-24.64 46.71-39.157 77.599-39.157 48.126 0 88.133 35.407 95.36 81.531h-28.759c-6.85-30.46-34.1-53.28-66.6-53.28zM557 516.066h-70.414c5.852-13.664 19.42-23.274 35.21-23.274 15.782 0.008 29.352 9.61 35.204 23.274zM395.689 354.817c13.124 0 25.086 6.79 32.022 17.376a184.843 184.843 0 0 0-32.554 24.484 185.579 185.579 0 0 0-31.766-24.07c6.892-10.828 18.96-17.79 32.298-17.79z m-59.298 4.438a182.575 182.575 0 0 0-27.451-8.438c15.951-32.615 49.561-54.257 86.749-54.257 37.116 0 70.687 21.57 86.671 54.093a184.633 184.633 0 0 0-27.54 8.328c-12-20.72-34.42-34.172-59.131-34.172-24.884 0-47.36 13.564-59.298 34.446z m-41.593-83.421a154.633 154.633 0 0 1 100.899-37.438c37.078 0 72.935 13.32 100.967 37.508a154.969 154.969 0 0 1 46.9 71.757 185.45 185.45 0 0 0-21.768-1.288c-2.828 0-5.648 0.078-8.46 0.202-18.882-47.671-65.6-80.015-117.64-80.015-52.07 0-98.78 32.36-117.662 80.047a185.57 185.57 0 0 0-30.172 0.938 155.09 155.09 0 0 1 46.936-71.711z m-26.194 100.54c61.225 0 114.265 35.763 139.319 87.498 0.202 0.428 0.4 0.866 0.594 1.296a161.52 161.52 0 0 1 2.344 5.164c0.366 0.874 0.71 1.75 1.07 2.624 0.54 1.32 1.07 2.65 1.57 3.986 0.414 1.108 0.796 2.218 1.188 3.336 0.398 1.132 0.788 2.264 1.156 3.414 0.406 1.24 0.774 2.492 1.148 3.74a139.599 139.599 0 0 1 1.914 7.118 164.713 164.713 0 0 1 1.554 7.14c0.212 1.096 0.408 2.188 0.594 3.29 0.22 1.298 0.44 2.602 0.626 3.906 0.18 1.22 0.32 2.446 0.468 3.672 0.14 1.164 0.29 2.336 0.406 3.516H394.22c-7.444-62.726-60.92-111.54-125.615-111.54s-118.171 48.814-125.617 111.54h-28.346c7.57-78.287 73.72-139.7 153.959-139.7z m0 86.418c-32.5 0-59.75 22.83-66.602 53.282h-28.757c7.226-46.124 47.233-81.531 95.359-81.531 48.116 0 88.123 35.407 95.36 81.531h-28.767c-6.852-30.46-34.101-53.28-66.593-53.28z m35.202 53.274h-70.414c5.852-13.664 19.422-23.274 35.212-23.274 15.78 0 29.36 9.61 35.202 23.274z m644.737 102.765a544.886 544.886 0 0 1-8.272 29.828 524.186 524.186 0 0 1-12.478 35.796c-36.554 93.727-97.04 167.976-179.763 220.694-0.016 0.008-0.172 0.11-0.516 0.212a2.57 2.57 0 0 1-0.726 0.132h-355.71c-8.287 0-15.007 6.71-15.007 15s6.72 15.008 15.008 15.008h345.903v40.843c0 9.726-7.914 17.64-17.64 17.64H305.018c-9.726 0-17.64-7.914-17.64-17.64v-40.843h33.89a15.006 15.006 0 0 0 0-30.008H277.4c-0.21 0-0.452-0.04-0.71-0.118a1.85 1.85 0 0 1-0.508-0.218C114.855 802.354 73.003 638.713 62.66 546.074h898.868a564.28 564.28 0 0 1-12.985 72.757z m0 0" p-id="21103"></path></svg>