<?xml version="1.0" standalone="no"?><!DOCTYPE svg PUBLIC "-//W3C//DTD SVG 1.1//EN" "http://www.w3.org/Graphics/SVG/1.1/DTD/svg11.dtd"><svg t="1708930563332" class="icon" viewBox="0 0 1024 1024" version="1.1" xmlns="http://www.w3.org/2000/svg" p-id="1424" xmlns:xlink="http://www.w3.org/1999/xlink" width="200" height="200"><path d="M475.13 155.48c45.12 49.46 9.09 161.81-82 253.35-92.38 92.84-206.45 129.18-255 81.29l-0.22-0.2c-0.55-0.56-1.09-1.13-1.63-1.69a0.23 0.23 0 0 1-0.07-0.07c-45.88-49.18-9.93-162 81.48-253.89 89.91-90.38 200.37-127.22 251-85q3.16 3 6.31 6a1.07 1.07 0 0 1 0.13 0.21zM326.64 342.66c22.39-22.5 31-50.19 19.31-61.85s-39.37-2.88-61.76 19.61-31 50.2-19.3 61.86 39.38 2.89 61.75-19.62zM894.31 770.3a52.27 52.27 0 0 1-53.14 84.86A52.27 52.27 0 1 1 753.8 832l0.07-0.06a8.76 8.76 0 0 0 0.14-12.43L594.34 659.86l51.53-51.53L805.54 768a8.76 8.76 0 0 0 12.43-0.14l0.06-0.07a52.28 52.28 0 0 1 76.28 2.51z" fill="#FFFFFF" p-id="1425"></path><path d="M346 280.81c11.72 11.66 3.08 39.35-19.31 61.85s-50 31.29-61.75 19.62-3.08-39.35 19.3-61.86 49.99-31.28 61.76-19.61z" fill="#26251E" p-id="1426"></path><path d="M393.15 408.83c91.07-91.54 127.1-203.89 82-253.35 2.56 2.47 5.1 4.95 7.63 7.47 165.2 164.36 224.09 373 131.56 466s-301.49 35.19-466.7-129.17q-4.83-4.81-9.51-9.66c48.57 47.88 162.64 11.55 255.02-81.29z" fill="#FFD72E" p-id="1427"></path><path d="M460.25 170.64q-3.09-3-6.2-5.91l29.25-30.86q3.22 3.05 6.42 6.13z" fill="#26251E" p-id="1428"></path><path d="M493.14 694.65c-28.32 0-58.64-4.44-90.58-13.28C311 656 215.1 596.88 132.65 514.85c-3.31-3.31-6.61-6.65-9.81-10l30.58-29.54c3 3.12 6.12 6.27 9.23 9.38C240 561.67 329.22 617 413.9 640.4c40 11.07 76.56 14.34 108.65 9.69 31.59-4.57 57.4-16.72 76.7-36.12s31.32-45.27 35.75-76.89c4.48-32.11 1-68.65-10.25-108.6C600.86 343.93 545.12 255 467.77 178c-2.25-2.25-4.67-4.61-7.4-7.24l29.53-30.6c2.89 2.79 5.46 5.31 7.87 7.7 82.44 82 142.06 177.57 167.89 269 12.89 45.65 16.73 88 11.44 126-5.71 40.94-21.76 74.93-47.7 101s-59.84 42.3-100.75 48.22a247.92 247.92 0 0 1-35.51 2.57z" fill="#26251E" p-id="1429"></path><path d="M122.74 504.81l-1.27-1.32-0.47-0.49 30.61-29.51 0.58 0.6 0.92 1z" fill="#26251E" p-id="1430"></path><path d="M196.79 532.54c-29.83 0-54.93-9.07-73.26-27l-0.66-0.64c-0.68-0.68-1.34-1.37-2-2.06l-0.21-0.23C93 473 87.49 426.13 105.22 370.74c16.31-50.94 50.9-104.73 97.4-151.47 45.67-45.91 98.41-80.49 148.51-97.37 54.16-18.25 100.75-14.31 131.17 11.1l0.07 0.06c1.94 1.63 3.79 3.33 5.52 5 0.82 0.8 1.69 1.71 2.56 2.65q0.38 0.4 0.73 0.81c26.9 29.85 32 76.47 14.25 131.36-16.38 50.77-50.91 104.37-97.22 150.92-47 47.27-101.22 82.32-152.55 98.68-21.04 6.73-40.82 10.06-58.87 10.06z m-44.15-58l0.41 0.4c17.34 17.1 50 19.65 89.7 7 45-14.33 93-45.63 135.32-88.16 41.67-41.89 72.53-89.47 86.9-134 12.72-39.41 10.69-72.23-5.55-90l-0.24-0.27a43.73 43.73 0 0 0-4.19-3.95c-18.38-15.3-51.29-16.53-90.3-3.39-44 14.82-90.83 45.74-131.95 87.07-41.84 42-72.75 89.79-87 134.44-12.61 39.37-10.46 72.08 5.89 89.79l0.25 0.26zM460 170.4z m0 0z m-2.52-3.07z m0 0zM790.77 942.51a73.51 73.51 0 0 1-59.95-116.1L564.27 659.86l81.6-81.6 166.55 166.55a73.83 73.83 0 0 1 44.93-13.55 72.93 72.93 0 0 1 52.92 25 73.6 73.6 0 0 1-46.45 121.55 73.63 73.63 0 0 1-73.05 64.7z m-22.38-95a31 31 0 0 0 2 44.83 31.35 31.35 0 0 0 40.81 0 30.91 30.91 0 0 0 9.5-31.57l-9.83-35.94 35.94 9.83a30.9 30.9 0 0 0 31.57-9.49 31.35 31.35 0 0 0 0-40.82 31 31 0 0 0-45-1.79l-0.34 0.34a30.11 30.11 0 0 1-20.92 8.88 29.67 29.67 0 0 1-21.61-8.78L645.87 638.4l-21.46 21.46L769 804.5a29.66 29.66 0 0 1 8.75 21.13 30 30 0 0 1-8.87 21.37z" fill="#26251E" p-id="1431"></path></svg>