<?xml version="1.0" standalone="no"?><!DOCTYPE svg PUBLIC "-//W3C//DTD SVG 1.1//EN" "http://www.w3.org/Graphics/SVG/1.1/DTD/svg11.dtd"><svg t="1709792969471" class="icon" viewBox="0 0 1024 1024" version="1.1" xmlns="http://www.w3.org/2000/svg" p-id="14986" xmlns:xlink="http://www.w3.org/1999/xlink" width="64" height="64"><path d="M332.4 98.9h359.3v71H332.4z" fill="#71D7E2" p-id="14987"></path><path d="M740.5 354l-48-180.1h-361l-48 180.1-0.3 524.3c0 25.8 20.9 46.8 46.8 46.8h364c25.8 0 46.8-20.9 46.8-46.8l-0.3-524.3z" fill="#9FEAF7" p-id="14988"></path><path d="M748.4 803.6h-93.7l0.4-446.3-32.6-188.8V94.1h65.7l3.4 77.7 51.8 188.8z" fill="#71D7E2" p-id="14989"></path><path d="M287.4 812.8h448.5v103.9H287.4z" fill="#D6F26D" p-id="14990"></path><path d="M654.8 815.8h85.6v100.9h-85.6z" fill="#C2E044" p-id="14991"></path><path d="M512 264m-42.1 0a42.1 42.1 0 1 0 84.2 0 42.1 42.1 0 1 0-84.2 0Z" fill="#FFFFFF" p-id="14992"></path><path d="M749.3 344.2l-409.7-28.9L350.2 173l-18.6 1-48.2 190.2v514.2c0 9 2.7 17.4 7.1 24.5L330.8 402l418.4-37.9v-19.9h0.1z" fill="#FFFFFF" p-id="14993"></path><path d="M619.6 481.9h-28.3c-4.8 0-9.1 2.8-11 7.2l-64.2 146.5c-1 2.3-2.2 5.6-3.8 9.8-1.1-2.9-2.4-6-3.9-9.4l-63-146.9c-1.9-4.4-6.2-7.3-11-7.3h-30.1c-6.6 0-12 5.4-12 12v208.9c0 6.6 5.4 12 12 12H416c6.6 0 12-5.4 12-12V574.5c0-1.7 2.2-2 5.1-2 3.6 0 5.5 0.2 6.3 1.9L499.3 705h0.1c2 4.9 6.8 8.4 12.5 8.4s10.5-3.5 12.5-8.4l60.9-130.6c0.8-1.9 3.3-2.1 6.7-2.1 2.8 0 6.5-0.2 6.5 2v128.3c0 6.6 5.4 12 12 12h9.3c6.6 0 12-5.4 12-12V493.9c-0.2-6.6-5.6-12-12.2-12z" fill="#FFFFFF" p-id="14994"></path><path d="M283.3 532.4c-9.9 0-18-7-18-16.9v-2.2c0-9.9 8.1-18 18-18s18 8.1 18 18-8.1 19.1-18 19.1zM757.9 349.5l-8.9-34.9c-2.4-9.6-12.2-15.4-21.9-13-9.6 2.5-15.4 12.3-13 21.9l3.2 12.4H306.9l38.4-144.1h333.4l20.4 76.7c2.6 9.6 12.4 15.4 22 12.8s15.3-12.4 12.8-22l-24-90-0.3-0.6V98.9c0-9.9-8.1-18-18-18H332.4c-9.9 0-18 8.1-18 18v69.8l-0.3 0.6-48 180.1c-0.3 1.2-0.9 5.9-0.9 7.2V456c0 9.9 8.1 18 18 18s18-8.1 18-18v-81.5h421.5V736c0 9.9 8.1 18 18 18s18-8.1 18-18V356.6c0.1-1.3-0.5-5.9-0.8-7.1zM350.4 116.9h323.3v35H350.4v-35zM740.8 783.8c-8.4 0-15.2 5.9-17.1 13.7H301.3V576.3c0-9.9-8.1-18-18-18s-18 8.1-18 18v302c0 35.7 29 64.8 64.8 64.8h364c35.7 0 64.8-29 64.8-64.8v-76.5c-0.1-9.9-8.2-18-18.1-18zM694 907.1H330c-15.9 0-28.8-12.9-28.8-28.8v-44.8h421.5v44.8c0.1 15.9-12.8 28.8-28.7 28.8z" fill="#662F0A" p-id="14995"></path></svg>