<?xml version="1.0" standalone="no"?><!DOCTYPE svg PUBLIC "-//W3C//DTD SVG 1.1//EN" "http://www.w3.org/Graphics/SVG/1.1/DTD/svg11.dtd"><svg t="1708931300336" class="icon" viewBox="0 0 1024 1024" version="1.1" xmlns="http://www.w3.org/2000/svg" p-id="2023" xmlns:xlink="http://www.w3.org/1999/xlink" width="200" height="200"><path d="M767 478.4l-91.6 390.5c-5.8 22.2-105.8 40.4-236.1 40.4s-230.5-18.1-236.1-40.4l-91.6-390.5" fill="#FF7B7B" p-id="2024"></path><path d="M439.3 924.8c-63.3 0-122.8-4.3-167.5-12.1-68.2-11.9-80.6-27.6-83.7-40 0-0.1 0-0.2-0.1-0.3L96.4 481.9l30.2-7.1 91.2 389c2.3 2.1 15.3 11.5 67 19.7 42 6.7 96.8 10.3 154.4 10.3 57.5 0 112.4-3.7 154.4-10.4 51.6-8.2 64.7-17.6 67-19.7l91.2-388.9 30.2 7.1-91.6 390.5c0 0.1-0.1 0.3-0.1 0.4-3.2 12.3-15.7 28-83.7 39.9-44.7 7.8-104.1 12.1-167.3 12.1z" fill="#232323" p-id="2025"></path><path d="M111.6 478.4a327.7 56.8 0 1 0 655.4 0 327.7 56.8 0 1 0-655.4 0Z" fill="#FFFFFF" p-id="2026"></path><path d="M439.3 550.7c-88.4 0-171.7-6-234.4-16.9-31.2-5.4-55.9-11.8-73.5-19-8.8-3.6-35.4-14.5-35.4-36.5s26.6-32.9 35.4-36.5c17.5-7.2 42.3-13.6 73.5-19 62.8-10.9 146-16.9 234.4-16.9s171.7 6 234.4 16.9c31.2 5.4 55.9 11.8 73.5 19 8.8 3.6 35.4 14.5 35.4 36.5s-26.6 32.9-35.4 36.5c-17.5 7.2-42.3 13.6-73.5 19-62.8 10.9-146 16.9-234.4 16.9z m-310.6-72.3c5.8 4.6 26.5 16.3 93 26.8 59.6 9.3 136.8 14.5 217.6 14.5s158-5.1 217.6-14.5c66.5-10.4 87.1-22.1 93-26.8-5.8-4.6-26.5-16.3-93-26.8-59.6-9.3-136.8-14.5-217.6-14.5s-158 5.1-217.6 14.5c-66.5 10.5-87.1 22.1-93 26.8z" fill="#232323" p-id="2027"></path><path d="M439.3 797.2c-72.1 0-139.9-5.2-191.2-14.6-62.7-11.5-90.7-26.9-90.7-49.9h31c0-1.4-0.4-2.3-0.6-2.6 0.1 0.1 9.4 12.8 77 23.9 48 7.8 109.9 12.2 174.5 12.2s126.5-4.3 174.5-12.2c67.6-11.1 76.9-23.7 77-23.9-0.2 0.3-0.6 1.2-0.6 2.6h31c0 23-28 38.3-90.7 49.9-51.3 9.4-119.2 14.6-191.2 14.6z" fill="#FFFFFF" p-id="2028"></path><path d="M891 99.3L145.4 340.6c-1 0.4-1.6 1.5-1.2 2.5l6.2 18.5c0.3 1 1.5 1.6 2.5 1.3l749.9-228.3c1.1-0.3 1.6-1.5 1.3-2.5l-10.5-31.4c-0.4-1.2-1.6-1.8-2.6-1.4zM917.5 175.3L158.7 374.5c-1.1 0.3-1.7 1.3-1.4 2.4l4.7 18.9c0.3 1.1 1.3 1.7 2.4 1.5l762.1-186c1.1-0.3 1.7-1.3 1.5-2.4l-8-32.2c-0.4-1.1-1.5-1.7-2.5-1.4z" fill="#232323" p-id="2029"></path><path d="M484.2 515.3c-7.7 0-14-6.3-14-14 0-8.3-2.1-11.7-5.6-17.2-4.2-6.6-9.9-15.7-9.9-32.1s5.7-25.4 9.9-32.1c3.5-5.6 5.6-8.9 5.6-17.2 0-8.3-2.1-11.7-5.6-17.2-4.2-6.6-9.9-15.7-9.9-32.1 0-16.3 5.7-25.4 9.9-32.1 3.5-5.6 5.6-8.9 5.6-17.2 0-8.3-2.1-11.7-5.6-17.2-4.2-6.6-9.9-15.7-9.9-32.1 0-7.7 6.3-14 14-14s14 6.3 14 14c0 8.3 2.1 11.7 5.6 17.2 4.2 6.6 9.9 15.7 9.9 32.1 0 16.3-5.7 25.4-9.9 32.1-3.5 5.6-5.6 8.9-5.6 17.2 0 8.3 2.1 11.7 5.6 17.2 4.2 6.6 9.9 15.7 9.9 32.1 0 16.3-5.7 25.4-9.9 32.1-3.5 5.6-5.6 8.9-5.6 17.2 0 8.3 2.1 11.7 5.6 17.2 4.2 6.6 9.9 15.7 9.9 32.1 0 7.8-6.3 14-14 14z" fill="#F2A846" p-id="2030"></path><path d="M484.2 515.3c-7.7 0-14-6.3-14-14 0-8.3-2.1-11.7-5.6-17.2-4.2-6.6-9.9-15.7-9.9-32.1s5.7-25.4 9.9-32.1c3.5-5.6 5.6-8.9 5.6-17.2 0-8.3-2.1-11.7-5.6-17.2-4.2-6.6-9.9-15.7-9.9-32.1 0-16.3 5.7-25.4 9.9-32.1 3.5-5.6 5.6-8.9 5.6-17.2 0-8.3-2.1-11.7-5.6-17.2-4.2-6.6-9.9-15.7-9.9-32.1 0-8.7 1.5-16 4.8-23.1 3.3-7 11.6-10 18.6-6.8 7 3.3 10 11.6 6.8 18.6-1 2.2-2.2 5.4-2.2 11.3 0 8.3 2.1 11.7 5.6 17.2 4.2 6.6 9.9 15.7 9.9 32.1 0 16.3-5.7 25.4-9.9 32.1-3.5 5.6-5.6 8.9-5.6 17.2 0 8.3 2.1 11.7 5.6 17.2 4.2 6.6 9.9 15.7 9.9 32.1 0 16.3-5.7 25.4-9.9 32.1-3.5 5.6-5.6 8.9-5.6 17.2 0 8.3 2.1 11.7 5.6 17.2 4.2 6.6 9.9 15.7 9.9 32.1 0 7.8-6.3 14-14 14z" fill="#F2A846" p-id="2031"></path><path d="M392.1 519.7c-7.7 0-14-6.3-14-14 0-8.3-2.1-11.7-5.6-17.2-4.2-6.6-9.9-15.7-9.9-32.1s5.7-25.4 9.9-32.1c3.5-5.6 5.6-8.9 5.6-17.2 0-8.3-2.1-11.7-5.6-17.2-4.2-6.6-9.9-15.7-9.9-32.1 0-16.3 5.7-25.4 9.9-32.1 3.5-5.6 5.6-8.9 5.6-17.2 0-8.3-2.1-11.7-5.6-17.2-4.2-6.6-9.9-15.7-9.9-32.1 0-7.7 6.3-14 14-14s14 6.3 14 14c0 8.3 2.1 11.7 5.6 17.2 4.2 6.6 9.9 15.7 9.9 32.1 0 16.3-5.7 25.4-9.9 32.1-3.5 5.6-5.6 8.9-5.6 17.2 0 8.3 2.1 11.7 5.6 17.2 4.2 6.6 9.9 15.7 9.9 32.1 0 16.3-5.7 25.4-9.9 32.1-3.5 5.6-5.6 8.9-5.6 17.2 0 8.3 2.1 11.7 5.6 17.2 4.2 6.6 9.9 15.7 9.9 32.1-0.1 7.8-6.3 14-14 14z" fill="#F2A846" p-id="2032"></path><path d="M392.1 519.7c-7.7 0-14-6.3-14-14 0-8.3-2.1-11.7-5.6-17.2-4.2-6.6-9.9-15.7-9.9-32.1s5.7-25.4 9.9-32.1c3.5-5.6 5.6-8.9 5.6-17.2 0-8.3-2.1-11.7-5.6-17.2-4.2-6.6-9.9-15.7-9.9-32.1 0-16.3 5.7-25.4 9.9-32.1 3.5-5.6 5.6-8.9 5.6-17.2 0-8.3-2.1-11.7-5.6-17.2-4.2-6.6-9.9-15.7-9.9-32.1 0-7.7 6.3-14 14-14s14 6.3 14 14c0 8.3 2.1 11.7 5.6 17.2 4.2 6.6 9.9 15.7 9.9 32.1 0 16.3-5.7 25.4-9.9 32.1-3.5 5.6-5.6 8.9-5.6 17.2 0 8.3 2.1 11.7 5.6 17.2 4.2 6.6 9.9 15.7 9.9 32.1 0 16.3-5.7 25.4-9.9 32.1-3.5 5.6-5.6 8.9-5.6 17.2 0 8.3 2.1 11.7 5.6 17.2 4.2 6.6 9.9 15.7 9.9 32.1-0.1 7.8-6.3 14-14 14z" fill="#F2A846" p-id="2033"></path><path d="M439.2 517.5c-7.7 0-14-6.3-14-14 0-8.3-2.1-11.7-5.6-17.2-4.2-6.6-9.9-15.7-9.9-32.1 0-16.3 5.7-25.4 9.9-32.1 3.5-5.6 5.6-8.9 5.6-17.2 0-8.3-2.1-11.7-5.6-17.2-4.2-6.6-9.9-15.7-9.9-32.1 0-16.3 5.7-25.4 9.9-32.1 3.5-5.6 5.6-8.9 5.6-17.2 0-8.3-2.1-11.7-5.6-17.2-4.2-6.6-9.9-15.7-9.9-32.1 0-7.7 6.3-14 14-14s14 6.3 14 14c0 8.3 2.1 11.7 5.6 17.2 4.2 6.6 9.9 15.7 9.9 32.1 0 16.3-5.7 25.4-9.9 32.1-3.5 5.6-5.6 8.9-5.6 17.2 0 8.3 2.1 11.7 5.6 17.2 4.2 6.6 9.9 15.7 9.9 32.1 0 16.3-5.7 25.4-9.9 32.1-3.5 5.6-5.6 8.9-5.6 17.2 0 8.3 2.1 11.7 5.6 17.2 4.2 6.6 9.9 15.7 9.9 32.1 0 7.8-6.3 14-14 14z" fill="#F2A846" p-id="2034"></path><path d="M439.2 517.5c-7.7 0-14-6.3-14-14 0-8.3-2.1-11.7-5.6-17.2-4.2-6.6-9.9-15.7-9.9-32.1 0-16.3 5.7-25.4 9.9-32.1 3.5-5.6 5.6-8.9 5.6-17.2 0-8.3-2.1-11.7-5.6-17.2-4.2-6.6-9.9-15.7-9.9-32.1 0-16.3 5.7-25.4 9.9-32.1 3.5-5.6 5.6-8.9 5.6-17.2 0-8.3-2.1-11.7-5.6-17.2-4.2-6.6-9.9-15.7-9.9-32.1 0-5.1 0.5-9.7 1.6-14 1.8-7.5 9.4-12.1 16.9-10.2 7.5 1.8 12.1 9.4 10.2 16.9-0.5 2.1-0.8 4.5-0.8 7.3 0 8.3 2.1 11.7 5.6 17.2 4.2 6.6 9.9 15.7 9.9 32.1 0 16.3-5.7 25.4-9.9 32.1-3.5 5.6-5.6 8.9-5.6 17.2 0 8.3 2.1 11.7 5.6 17.2 4.2 6.6 9.9 15.7 9.9 32.1 0 16.3-5.7 25.4-9.9 32.1-3.5 5.6-5.6 8.9-5.6 17.2 0 8.3 2.1 11.7 5.6 17.2 4.2 6.6 9.9 15.7 9.9 32.1 0.1 7.8-6.2 14-13.9 14z" fill="#F2A846" p-id="2035"></path><path d="M439.3 924.8c-63.3 0-122.8-4.3-167.5-12.1-68.2-11.9-80.6-27.6-83.7-40 0-0.1 0-0.2-0.1-0.3L96.4 481.9l30.2-7.1 91.2 389c2.3 2.1 15.3 11.5 67 19.7 42 6.7 96.8 10.3 154.4 10.3 57.5 0 112.4-3.7 154.4-10.4 51.6-8.2 64.7-17.6 67-19.7l91.2-388.9 30.2 7.1-91.6 390.5c0 0.1-0.1 0.3-0.1 0.4-3.2 12.3-15.7 28-83.7 39.9-44.7 7.8-104.1 12.1-167.3 12.1z" fill="#232323" p-id="2036"></path></svg>