<?xml version="1.0" standalone="no"?><!DOCTYPE svg PUBLIC "-//W3C//DTD SVG 1.1//EN" "http://www.w3.org/Graphics/SVG/1.1/DTD/svg11.dtd"><svg t="1708930691414" class="icon" viewBox="0 0 1024 1024" version="1.1" xmlns="http://www.w3.org/2000/svg" p-id="2160" xmlns:xlink="http://www.w3.org/1999/xlink" width="200" height="200"><path d="M735.18 517.36v421.56h-447v-608.4l1.08-1.19H734.1l1.08 1.19v186.84zM658.68 833V429.36h-102V833z" fill="#FFFFFF" p-id="2161"></path><path d="M579.16 157.93l154.94 171.4H289.28l154.94-171.4h134.94zM556.69 429.36h101.99v403.61H556.69z" fill="#FFD72E" p-id="2162"></path><path d="M574.6 152.88l4.56 5.05H444.22l4.56-5.05-0.01-67.8h125.85l-0.02 67.8z" fill="#FFFFFF" p-id="2163"></path><path d="M735.18 960.18h-447a21.26 21.26 0 0 1-21.26-21.26v-608.4a21.26 21.26 0 0 1 5.51-14.28l1.08-1.19 154-170.35V85.08a21.26 21.26 0 0 1 21.26-21.26h125.85a21.26 21.26 0 0 1 21.26 21.27v59.62l155.06 171.54a21.25 21.25 0 0 1 5.5 14.27v608.4a21.26 21.26 0 0 1-21.26 21.26z m-425.72-42.52h404.46v-579L558.83 167.13a21.26 21.26 0 0 1-5.48-14.26v-46.53H470v46.54a21.26 21.26 0 0 1-5.49 14.26L309.46 338.71z" fill="#26251E" p-id="2164"></path><path d="M658.68 854.22h-102A21.26 21.26 0 0 1 535.43 833V429.36a21.26 21.26 0 0 1 21.26-21.26h102a21.26 21.26 0 0 1 21.26 21.26V833a21.26 21.26 0 0 1-21.27 21.22zM578 811.71h59.47V450.62H578zM444.22 136.67h134.94v42.52H444.22zM288.36 308.07h446.62v42.52H288.36z" fill="#26251E" p-id="2165"></path><path d="M444.78 561.58h-91.61a21.26 21.26 0 0 1 0-42.52h91.62a21.26 21.26 0 0 1 0 42.52zM496.1 652.42h-136a21.26 21.26 0 0 1 0-42.52h136a21.26 21.26 0 1 1 0 42.52zM496.1 743.26h-136a21.26 21.26 0 1 1 0-42.52h136a21.26 21.26 0 1 1 0 42.52z" fill="#26251E" p-id="2166"></path></svg>