<?xml version="1.0" standalone="no"?><!DOCTYPE svg PUBLIC "-//W3C//DTD SVG 1.1//EN" "http://www.w3.org/Graphics/SVG/1.1/DTD/svg11.dtd"><svg t="1708918267363" class="icon" viewBox="0 0 1024 1024" version="1.1" xmlns="http://www.w3.org/2000/svg" p-id="5175" xmlns:xlink="http://www.w3.org/1999/xlink" width="200" height="200"><path d="M256.6 250.2H416s-14.4 58.3-14.4 75.3 1.3 44.4 1.3 44.4l-137.2 3.9-9.1-123.6z" fill="#FFFFFF" p-id="5176"></path><path d="M407.4 351.1c1.3 54.6 66.2 65.3 86.1 281.9 20.3 220.8 0 276.5 0 276.5s-65.8 31.9-159.6 31.9c-109.1 0-159.6-31.9-159.6-31.9s-20.3-60.3 0-276.5c20.3-216.6 84.8-227.3 86.1-281.9 0 0 29.7 13.6 73.4 13.6 46.1 0 73.6-13.6 73.6-13.6z" fill="#674635" p-id="5177"></path><path d="M501.8 750.2c0 11.8-75.2 21.4-167.9 21.4S166 762 166 750.2c0 0 6.7-98.9 16.6-182.2 9.9-83.3 55.4-155.9 55.4-155.9 0 11.8 43.2 21.4 96.6 21.4s96.6-9.6 96.6-21.4c0 0 45.8 70.5 55.8 167 10.1 96.6 14.8 171.1 14.8 171.1z" fill="#FFF2D4" p-id="5178"></path><path d="M333.9 790c-45.6 0-88.6-2.3-121-6.4-41.3-5.3-65.2-12.4-65.2-33.4V749c0.1-1 6.8-100.4 16.7-183.1 10.3-86.4 56.2-160.3 58.1-163.5l33.9-54.1v57.1c10.1 4.2 37.5 9.9 78.2 9.9s68.2-5.7 78.2-9.9v-55.2l33.8 52c2 3 48.3 75.3 58.7 175.2 9.9 95.8 14.7 171 14.8 171.8v1.2c0 21-23.9 28.1-65.2 33.4-32.4 3.9-75.4 6.2-121 6.2z m-148.8-48.8c17.8 5.1 68.9 12.1 148.8 12.1 80 0 131.1-7 148.8-12.1-1.6-23.6-6.2-85.5-14-160.1-6.6-63.3-29.6-115.4-43-141.3-7.2 2.9-14.4 4.5-18.8 5.5-19.5 4.3-45.2 6.7-72.3 6.7s-52.8-2.4-72.3-6.7c-4.4-1-11.5-2.6-18.7-5.4-13.4 25.7-36.3 76-42.8 130.4-7.8 66.2-13.7 143.5-15.7 170.9z" fill="#232323" p-id="5179"></path><path d="M333.9 959.8c-113.1 0-167.1-33.3-169.4-34.7-3.6-2.3-6.3-5.7-7.6-9.7-0.9-2.6-21.3-66.5-0.9-284.1 13.6-145.1 46.8-200.9 68.7-237.8 10.6-17.8 17-28.6 17.3-42.8 1.2-50.6-16.6-105.1-16.8-105.6-3.2-9.6 2-20 11.7-23.2 9.6-3.2 20 2 23.2 11.6 0.8 2.5 20 60.9 18.7 118-0.6 23.9-10.7 41-22.5 60.7-20.3 34.1-50.9 85.6-63.7 222.5-15.9 169.6-6.4 241.7-2.3 262.4 15.9 7.5 62.8 25.8 143.6 25.8 70.6 0 124.6-18.9 143.9-26.7 4.1-21 13-91.4-2.6-261.6-12.6-136.9-43.3-188.4-63.6-222.5-11.8-19.8-22-36.8-22.5-60.7-1.3-57.2 17.8-115.6 18.7-118 3.2-9.6 13.6-14.8 23.2-11.6 9.6 3.2 14.8 13.6 11.6 23.2-0.2 0.5-18 54.9-16.8 105.6 0.3 14.2 6.7 24.9 17.3 42.7 22 36.9 55.4 92.7 68.7 238 20.1 218.5 1.2 278.4-1 284.5-1.6 4.5-5 8.2-9.3 10.3-2.9 1.4-70.8 33.7-167.6 33.7z" fill="#232323" p-id="5180"></path><path d="M440.3 104H484v27.4h-43.7z" fill="#FF7B7B" p-id="5181"></path><path d="M484 149.8h-43.7c-10.1 0-18.4-8.2-18.4-18.4V104c0-10.1 8.2-18.4 18.4-18.4H484c10.1 0 18.4 8.2 18.4 18.4v27.4c0 10.2-8.3 18.4-18.4 18.4z" fill="#232323" p-id="5182"></path><path d="M818.4 542.3l40 348.8c1.4 12.6-5.6 24.5-17.3 29.4-21.7 9-62.5 20.9-127.2 20.9s-105.5-11.8-127.2-20.9c-11.7-4.9-18.8-16.8-17.3-29.4l40-348.8" fill="#FFFFFF" p-id="5183"></path><path d="M713.9 959.8c-66.7 0-109.8-12.1-134.3-22.3-19.1-8-30.9-27.9-28.5-48.5l40-348.8c1.2-10.1 10.3-17.3 20.3-16.2 10.1 1.2 17.3 10.3 16.2 20.3l-40 348.8c-0.5 4.4 2 8.6 6.1 10.3 21.4 8.9 59.5 19.5 120.2 19.5 60.6 0 98.8-10.6 120.2-19.5 4.1-1.7 6.6-6 6.1-10.3l-40-348.8c-1.2-10.1 6.1-19.2 16.2-20.3 10.1-1.2 19.2 6.1 20.3 16.2l40 348.8c2.4 20.6-9.4 40.5-28.5 48.5-24.5 10.2-67.6 22.3-134.3 22.3z" fill="#232323" p-id="5184"></path><path d="M440.3 104v124.7c0 11.8-47.6 21.4-106.4 21.4s-106.4-9.6-106.4-21.4V104" fill="#FF7B7B" p-id="5185"></path><path d="M333.9 268.6c-29.6 0-57.6-2.4-78.8-6.6-13.7-2.8-45.9-9.2-45.9-33.2V104c0-10.1 8.2-18.4 18.4-18.4 10.1 0 18.4 8.2 18.4 18.4v117.5c11.1 4.4 41.9 10.3 88 10.3s76.9-6 88-10.3V104c0-10.1 8.2-18.4 18.4-18.4 10.1 0 18.4 8.2 18.4 18.4v124.7c0 23.9-32.2 30.4-45.9 33.2-21.4 4.3-49.4 6.7-79 6.7zM334.7 446.4c-26.7 0-52-2.3-71.1-6.6-16.5-3.7-38.4-10.5-38.4-27.7 0-7.1 5.8-12.9 12.9-12.9 5.8 0 10.7 3.9 12.3 9.2 6.9 4.7 36.1 12.3 84.3 12.3s77.4-7.6 84.3-12.3c1.6-5.3 6.5-9.2 12.3-9.2 7.1 0 12.9 5.8 12.9 12.9 0 17.2-21.9 24.1-38.4 27.7-19.2 4.3-44.4 6.6-71.1 6.6z" fill="#232323" p-id="5186"></path><path d="M609.3 427.2v115.1c0 10.8 46.8 19.5 104.6 19.5s104.6-8.7 104.6-19.5V427.2" fill="#D0D9DE" p-id="5187"></path><path d="M713.9 580.2c-29 0-56.5-2.1-77.3-6-13.7-2.5-45.6-8.5-45.6-31.8V427.2c0-10.1 8.2-18.4 18.4-18.4 10.1 0 18.4 8.2 18.4 18.4v107c11.5 4 41.7 9.2 86.2 9.2s74.7-5.3 86.2-9.2v-107c0-10.1 8.2-18.4 18.4-18.4S837 417 837 427.2v115.1c0 23.3-32 29.3-45.6 31.8-21.1 4-48.5 6.1-77.5 6.1z" fill="#232323" p-id="5188"></path><path d="M661.9 853.1c-0.7 0-1.3 0-2-0.1-10.1-1.1-17.4-10.1-16.3-20.2l18-169.1c1.1-10.1 10.1-17.4 20.2-16.3 10.1 1.1 17.4 10.1 16.3 20.2l-18 169.1c-0.9 9.4-8.9 16.4-18.2 16.4z" fill="#E7ECEF" p-id="5189"></path><path d="M765.8 853.1c-9.3 0-17.2-7-18.2-16.4l-18-169.1c-1.1-10.1 6.2-19.1 16.3-20.2 10.1-1.1 19.1 6.2 20.2 16.3l18 169.1c1.1 10.1-6.2 19.1-16.3 20.2-0.7 0.1-1.4 0.1-2 0.1z" fill="#E7ECEF" p-id="5190"></path><path d="M425.1 607.2V699h-25.6v-6.8H279.8v6.8h-25.6v-91.8H303v-11h-62.2v-18.4h197.3v18.4h-62v11h49z m-111.8-107V575H290v-16c-11.6 3.7-24.3 8.1-38 13.2l-8-21.4c16.4-4.4 31.7-8.9 46-13.6v-37h23.3z m-51.5 2.6c6 3.9 14.9 10.3 26.8 19.4L275 539c-10.8-9.3-19.4-16.3-25.8-21l12.6-15.2z m34 130c4.8 0 7.2-2.2 7.2-6.6v-2.8h-23.2v29.8h119.7v-7.6h-34.4c-9.5 0-14.2-4.1-14.2-12.4v-9.8h-22.8v9.2c0 8.7-5.7 13-17 13h-26.8c-1.1-4-2.4-8.3-4-12.8h15.5z m103.7 42.3v-8.2H279.8v8.2h119.7z m-85.8-141.5c14.1-10.9 26.2-22.1 36.2-33.6h28.4c-4.1 4.7-8.3 9.2-12.6 13.6h65.8v21c-15.2 20.3-49 34-101.5 41.4-3.9-7.9-7.3-14-10.2-18.4 12-1.2 22.9-2.9 32.8-5-3.7-2.8-7.6-5.7-11.6-8.6l14.6-10.6c6.9 4.7 13.3 9.1 19 13.4 12.7-4.1 22.8-9.2 30.4-15.2h-57.6c-6.3 5.9-12.7 11.4-19.2 16.6-4.3-4.7-9.1-9.5-14.5-14.6z m14.4 73.6h22.8v-11h-22.8v11z m56.8 25.6h14.6v-9.4h-23.4v5c0 2.9 2.9 4.4 8.8 4.4z" fill="#232323" p-id="5191"></path><path d="M227.5 104a104.6 21.4 0 1 0 209.2 0 104.6 21.4 0 1 0-209.2 0Z" fill="#FF7B7B" p-id="5192"></path><path d="M332.1 143.8c-29.1 0-56.7-2.4-77.6-6.7-12.4-2.5-45.3-9.3-45.3-33.2s32.9-30.6 45.3-33.2c20.9-4.3 48.5-6.7 77.6-6.7 29.1 0 56.7 2.4 77.6 6.7 12.4 2.5 45.3 9.3 45.3 33.2s-32.9 30.6-45.3 33.2c-20.8 4.4-48.4 6.7-77.6 6.7z m89.9-30.7zM279.6 104c14 1.8 31.7 3.1 52.6 3.1 20.9 0 38.5-1.3 52.6-3.1-14-1.8-31.7-3.1-52.6-3.1-20.9 0.1-38.6 1.3-52.6 3.1z" fill="#232323" p-id="5193"></path><path d="M609.3 426.4a104.6 21.4 0 1 0 209.2 0 104.6 21.4 0 1 0-209.2 0Z" fill="#BFC4D0" p-id="5194"></path><path d="M713.9 466.2c-29.1 0-56.7-2.4-77.6-6.7-12.4-2.5-45.3-9.3-45.3-33.2s32.9-30.6 45.3-33.2c20.9-4.3 48.5-6.7 77.6-6.7 29.1 0 56.7 2.4 77.6 6.7 12.4 2.5 45.3 9.3 45.3 33.2 0 23.9-32.9 30.6-45.3 33.2-20.9 4.4-48.5 6.7-77.6 6.7z m89.8-30.7z m-142.4-9.1c14 1.8 31.7 3.1 52.6 3.1s38.5-1.3 52.6-3.1c-14-1.8-31.7-3.1-52.6-3.1s-38.6 1.3-52.6 3.1z" fill="#232323" p-id="5195"></path></svg>