<?xml version="1.0" standalone="no"?><!DOCTYPE svg PUBLIC "-//W3C//DTD SVG 1.1//EN" "http://www.w3.org/Graphics/SVG/1.1/DTD/svg11.dtd"><svg t="1708918532864" class="icon" viewBox="0 0 1024 1024" version="1.1" xmlns="http://www.w3.org/2000/svg" p-id="6383" xmlns:xlink="http://www.w3.org/1999/xlink" width="200" height="200"><path d="M810.3424 714.4448m-167.5776 0a167.5776 167.5776 0 1 0 335.1552 0 167.5776 167.5776 0 1 0-335.1552 0Z" fill="#CDD5D7" p-id="6384"></path><path d="M225.0496 714.4448m-167.5776 0a167.5776 167.5776 0 1 0 335.1552 0 167.5776 167.5776 0 1 0-335.1552 0Z" fill="#CDD5D7" p-id="6385"></path><path d="M445.2096 354.2272H120.192c-15.0272 0-27.2128-12.1856-27.2128-27.2128V169.1648c0-15.0272 12.1856-27.2128 27.2128-27.2128h325.0176c15.0272 0 27.2128 12.1856 27.2128 27.2128v157.8496c0 15.0272-12.1856 27.2128-27.2128 27.2128z" fill="#77C5E8" p-id="6386"></path><path d="M362.1632 244.6848H205.0816c-9.9072 0-17.92-8.0128-17.92-17.92s8.0128-17.92 17.92-17.92h157.0816c9.9072 0 17.92 8.0128 17.92 17.92s-8.0128 17.92-17.92 17.92z" fill="#F7F8F8" p-id="6387"></path><path d="M780.2624 522.112v-96.0768s-2.176-155.5712-2.176-177.4592h-135.3216v174.5152l-87.0144 158.8224h-157.8496l67.6608-99.9936v-62.7968H100.9664v62.7968h58.9824l-108.1344 76.9536 11.648 111.1296c19.4816-70.9632 84.4288-123.136 161.5616-123.136 92.544 0 167.5776 75.0336 167.5776 167.5776 0 7.808-0.5888 15.488-1.6128 23.0144h253.3632c-1.024-7.5264-1.6128-15.2064-1.6128-23.0144 0-92.544 75.0336-167.5776 167.5776-167.5776 9.3952 0 18.6112 0.8192 27.5968 2.304l-57.6512-27.0592z" fill="#FEDD77" p-id="6388"></path><path d="M631.3472 151.0656h72.448v72.448h-72.448z" fill="#FC697C" p-id="6389"></path><path d="M863.232 383.3088c0-45.8496-37.1712-83.0208-83.0208-83.0208 1.024 59.2896 0 128.7424 0 166.016 45.8496 0.0256 83.0208-37.1456 83.0208-82.9952z" fill="#FFC300" p-id="6390"></path><path d="M845.056 527.0528l-41.728-19.584v-20.6592c47.4112-10.5728 82.944-52.9408 82.944-103.4752 0-50.432-35.3792-92.6976-82.6112-103.3984 0-6.0416 0.0256-11.6992 0.0256-16.7936 20.3776-0.2816 36.8128-16.8704 36.8128-37.3248 0-20.6336-16.7168-37.3504-37.3504-37.3504-20.5312 0-37.1712 16.5632-37.3248 37.0688h-32.3072c6.5536-11.2384 10.3168-24.32 10.3168-38.2464 0-42.0352-34.2016-76.2624-76.2624-76.2624s-76.2624 34.2016-76.2624 76.2624c0 23.9872 11.136 45.3888 28.4928 59.392-0.0512 0.6144-0.1024 1.2544-0.1024 1.8944v168.6272l-77.6192 141.696h-100.7872l43.3408-64.0512a22.99904 22.99904 0 0 0 3.9424-12.9024v-62.7968a23.04 23.04 0 0 0-23.04-23.04H100.9664a23.04 23.04 0 0 0-23.04 23.04v62.7968c0 8.7808 4.9152 16.4096 12.1088 20.3008L44.3648 533.76a22.99648 22.99648 0 0 0-9.9072 20.1216l5.8112 113.664c-3.8144 15.0016-5.8624 30.72-5.8624 46.8992 0 105.1136 85.504 190.6176 190.6176 190.6176 89.216 0 164.3008-61.6448 184.96-144.5632h215.3728c20.6592 82.9184 95.7184 144.5632 184.96 144.5632 105.1136 0 190.6176-85.504 190.6176-190.6176 0.0256-93.2352-67.3024-171.008-155.8784-187.392z m-4.864-143.744c0 24.8576-15.2064 46.2336-36.8128 55.3216l0.0768-11.9808c0.1792-29.4144 0.4096-64.4608 0.1536-98.56 21.4784 9.1392 36.5824 30.464 36.5824 55.2192z m-172.6208-226.2016c16.64 0 30.1824 13.5424 30.1824 30.1824s-13.5424 30.1824-30.1824 30.1824-30.1824-13.5424-30.1824-30.1824 13.5424-30.1824 30.1824-30.1824zM225.0496 858.9824c-79.6928 0-144.5376-64.8448-144.5376-144.5376 0-13.8496 1.9968-27.2128 5.6576-39.9104 0.384-1.3312 0.768-2.6368 1.1776-3.9424 0.3328-1.0496 0.6912-2.0736 1.0496-3.0976 0.384-1.1264 0.768-2.2528 1.1776-3.3792 0.6912-1.8688 1.4336-3.712 2.2016-5.5552 0.2048-0.512 0.4352-0.9984 0.6656-1.4848 0.6912-1.5872 1.3824-3.1744 2.1504-4.7104l0.6912-1.3824c0.7936-1.6128 1.6128-3.2 2.4576-4.7872 0.2048-0.3584 0.384-0.7424 0.5888-1.1008a171.51488 171.51488 0 0 1 3.3024-5.7088 144.3328 144.3328 0 0 1 11.8528-16.6656c0.1536-0.2048 0.3328-0.384 0.4864-0.5632 1.2032-1.4592 2.4576-2.8928 3.712-4.3008 0.3584-0.4096 0.7168-0.7936 1.1008-1.2032 1.0752-1.1776 2.176-2.304 3.2768-3.456 0.4864-0.4864 0.9728-0.9984 1.4848-1.4848 0.9984-0.9984 2.0224-1.9456 3.0464-2.9184 0.5888-0.5632 1.2032-1.1264 1.792-1.6896 0.8704-0.768 1.7408-1.5104 2.6368-2.2784 1.8688-1.6128 3.7888-3.1744 5.7344-4.6848 0.3072-0.2304 0.5888-0.4608 0.8704-0.6912 1.3056-0.9984 2.6624-1.9712 3.9936-2.9184l0.8448-0.6144c1.4336-0.9984 2.8672-1.9712 4.352-2.9184 0.128-0.0768 0.2816-0.1792 0.4096-0.256a144.54528 144.54528 0 0 1 52.48-20.5824c0.6656-0.128 1.3056-0.256 1.9712-0.3584 1.2288-0.2048 2.4832-0.384 3.7376-0.5632 1.0496-0.1536 2.0736-0.2816 3.1232-0.4096a135.50592 135.50592 0 0 1 7.2704-0.64c0.8448-0.0512 1.6896-0.128 2.5344-0.1536 2.2528-0.1024 4.5056-0.1792 6.7584-0.1792 79.6928 0 144.5376 64.8448 144.5376 144.5376 0 2.0736-0.0768 4.1216-0.1536 6.1696-0.0512 0.9216-0.0768 1.8432-0.1536 2.7648-0.0512 0.9216-0.128 1.8432-0.2048 2.7904-0.2048 2.5344-0.4864 5.0944-0.8192 7.68-9.5744 70.6048-70.144 125.184-143.2576 125.184z m190.4896-149.7088c-0.0512-1.536-0.0512-3.0976-0.128-4.608-0.1024-1.9712-0.2816-3.9168-0.4608-5.8624-0.1024-1.2544-0.1536-2.5344-0.2816-3.7888-0.2048-2.0992-0.512-4.1728-0.7936-6.272-0.1536-1.0752-0.256-2.176-0.4096-3.2512-0.3584-2.304-0.7936-4.5824-1.2288-6.8352-0.1536-0.8448-0.2816-1.6896-0.4608-2.5344-0.4864-2.3296-1.0496-4.6592-1.6128-6.9632-0.1792-0.7424-0.3328-1.5104-0.512-2.2528-0.64-2.5088-1.3824-5.0176-2.1248-7.4752-0.1536-0.512-0.2816-1.0496-0.4352-1.5616-0.64-2.0736-1.3824-4.1216-2.0992-6.1696-0.3072-0.896-0.5888-1.8176-0.9216-2.688-0.7936-2.176-1.6896-4.3264-2.56-6.4768-0.3072-0.7168-0.5632-1.4592-0.8704-2.176-0.768-1.8432-1.6384-3.6352-2.4576-5.4528-0.4608-0.9984-0.8704-2.0224-1.3568-2.9952-0.7168-1.5104-1.5104-2.9696-2.2784-4.4544-0.64-1.2544-1.2544-2.5344-1.9456-3.7632-0.6912-1.28-1.4336-2.5088-2.176-3.7632-0.8192-1.408-1.5872-2.8416-2.432-4.224-0.8448-1.408-1.7664-2.7648-2.6368-4.1216-0.768-1.2032-1.5104-2.432-2.304-3.6096-0.8704-1.3056-1.8176-2.56-2.7392-3.84-0.8704-1.2032-1.6896-2.4576-2.5856-3.6352-0.64-0.8704-1.3312-1.6896-1.9968-2.5344-1.2032-1.5616-2.4064-3.1488-3.6608-4.6592-0.5888-0.7168-1.2288-1.408-1.8432-2.1248-1.3824-1.6128-2.7392-3.2256-4.1728-4.8128-0.384-0.4352-0.8192-0.8448-1.2032-1.2544-22.4-24.192-50.9696-42.624-83.2-52.6592-1.1776-0.3584-2.3808-0.6656-3.584-1.024-1.8176-0.5376-3.6096-1.0752-5.4528-1.5616-0.8704-0.2304-1.7664-0.384-2.6368-0.6144a189.92128 189.92128 0 0 0-44.9536-5.4016c-3.4304 0-6.8096 0.1024-10.1888 0.2816-0.6656 0.0256-1.3568 0.1024-2.0224 0.1536a210.688 210.688 0 0 0-8.1664 0.6656c-0.5888 0.0512-1.152 0.1536-1.7408 0.2304-2.816 0.3328-5.632 0.6912-8.4224 1.152-0.4096 0.0768-0.7936 0.1536-1.2032 0.2048-2.9952 0.512-5.9648 1.0752-8.9088 1.7152l-0.64 0.1536c-3.1488 0.6912-6.2464 1.4592-9.3184 2.3296-0.0512 0.0256-0.1024 0.0256-0.1792 0.0512a190.65344 190.65344 0 0 0-77.824 43.136c-0.2816 0.256-0.5632 0.5632-0.8704 0.8192a175.104 175.104 0 0 0-5.8624 5.6576c-0.9472 0.9472-1.8688 1.9456-2.7904 2.9184-1.2288 1.28-2.432 2.56-3.6352 3.8912-0.3072 0.3328-0.64 0.6656-0.9472 1.024l-1.2288-23.808 91.904-63.5136a23.04 23.04 0 0 0 8.9088-25.8048 23.02208 23.02208 0 0 0-21.9904-16.1792H124.0064v-16.7168h318.5152v32.6912l-63.6928 94.1568c-4.7872 7.0656-5.2736 16.1792-1.2544 23.7056s11.8272 12.2368 20.352 12.2368h157.8496c8.4224 0 16.1536-4.5824 20.1984-11.9808l87.0144-158.8224a22.94016 22.94016 0 0 0 2.8416-11.0592V271.616h91.776c0 7.5008-0.0256 15.8208-0.0512 24.6016-0.256 1.4848-0.384 2.9696-0.3584 4.5056 0.128 7.7824 0.2304 15.744 0.3072 23.7824-0.1024 49.152-0.256 100.6336-0.256 101.504v21.76c-0.0256 6.784-0.0512 13.0304-0.0512 18.5344 0 0.384 0.0512 0.768 0.0512 1.152v54.6304c0 3.072 0.6144 6.0416 1.7408 8.7552-1.1264 0.3072-2.2272 0.6656-3.328 0.9984-0.9472 0.2816-1.92 0.5632-2.8672 0.8704-2.1248 0.6656-4.2496 1.408-6.3488 2.1504-0.6144 0.2304-1.2288 0.4096-1.8432 0.64-2.688 0.9984-5.376 2.048-8.0128 3.1744-0.6656 0.2816-1.3056 0.5888-1.9712 0.8704-1.9712 0.8704-3.9424 1.7408-5.8624 2.6624-0.9216 0.4352-1.8176 0.896-2.7392 1.3568-1.664 0.8192-3.328 1.664-4.9664 2.56-0.9472 0.512-1.8688 0.9984-2.816 1.536-1.6384 0.896-3.2512 1.8432-4.864 2.7904-0.8448 0.512-1.7152 0.9984-2.56 1.536-1.8944 1.1776-3.7632 2.3808-5.632 3.6096l-1.536 0.9984c-2.3296 1.5872-4.6336 3.2256-6.8864 4.8896-0.64 0.4608-1.2544 0.9728-1.8688 1.4592-1.6128 1.2288-3.2256 2.4832-4.8128 3.7888l-2.3808 1.9968c-1.3824 1.1776-2.7648 2.3552-4.1216 3.584l-2.3808 2.1504c-1.3568 1.2544-2.7136 2.5344-4.0448 3.84-0.7168 0.6912-1.408 1.3824-2.0992 2.0736-1.6128 1.6384-3.2 3.3024-4.736 4.992-0.3584 0.384-0.7424 0.768-1.1008 1.152-1.8944 2.0736-3.7376 4.1984-5.5296 6.3744-0.5376 0.64-1.0496 1.3056-1.5616 1.9456-1.2544 1.5616-2.5088 3.1232-3.712 4.736-0.64 0.8192-1.2288 1.664-1.8432 2.5088-1.0752 1.4848-2.1504 2.9696-3.1744 4.48-0.6144 0.8704-1.2032 1.7408-1.792 2.6368-1.0496 1.5872-2.0736 3.1744-3.072 4.7872-0.512 0.8192-1.024 1.6128-1.536 2.4576-1.2544 2.0992-2.4832 4.224-3.6864 6.3744-0.1792 0.3328-0.384 0.6656-0.5632 0.9984-1.3568 2.4832-2.6368 5.0176-3.8912 7.5776-0.384 0.768-0.7168 1.5616-1.0752 2.3296-0.8448 1.8176-1.6896 3.6608-2.4832 5.504-0.4096 0.9472-0.8192 1.92-1.2032 2.8928-0.7168 1.7152-1.408 3.456-2.0736 5.2224-0.384 0.9984-0.7424 1.9968-1.1008 2.9952-0.6656 1.8432-1.28 3.712-1.8944 5.5808-0.2816 0.896-0.5888 1.7664-0.8704 2.6624-0.7936 2.5856-1.536 5.1968-2.2272 7.8336l-0.1536 0.5376c-0.7168 2.816-1.3824 5.6576-1.9712 8.5248-0.1792 0.8704-0.3328 1.7664-0.512 2.6368-0.384 1.9968-0.768 4.0192-1.0752 6.0672-0.1792 1.0496-0.3328 2.1248-0.4864 3.2-0.2816 1.92-0.512 3.84-0.7424 5.76-0.128 1.0752-0.2304 2.176-0.3328 3.2512-0.2048 2.048-0.3328 4.096-0.4608 6.1696-0.0512 0.9472-0.128 1.8944-0.1792 2.8416-0.1536 2.9952-0.2304 6.016-0.2304 9.0624h-204.0576c-0.0512-1.7664-0.128-3.4816-0.1792-5.1968z m394.8032 149.7088c-73.1136 0-133.6832-54.6048-143.2064-125.1584-0.3328-2.56-0.6144-5.12-0.8192-7.68-0.0768-0.9216-0.1536-1.8432-0.2048-2.7904l-0.1536-2.7648c-0.0768-2.048-0.1536-4.096-0.1536-6.1696 0-79.6928 64.8448-144.5376 144.5376-144.5376 2.2016 0 4.4032 0.0768 6.5792 0.1792 1.0752 0.0512 2.176 0.128 3.2768 0.2048 0.9984 0.0768 1.9968 0.128 2.9952 0.2304 1.408 0.128 2.816 0.2816 4.1984 0.4352l1.8432 0.2304c1.5872 0.2048 3.1488 0.4352 4.736 0.6912 68.5056 11.3152 120.9088 70.912 120.9088 142.5664 0 79.7184-64.8448 144.5632-144.5376 144.5632z" fill="#474E54" p-id="6391"></path><path d="M225.0496 625.6384c-48.9728 0-88.8064 39.8336-88.8064 88.8064 0 48.9728 39.8336 88.8064 88.8064 88.8064s88.8064-39.8336 88.8064-88.8064c0-48.9728-39.8336-88.8064-88.8064-88.8064z m0 131.5328c-23.552 0-42.7264-19.1744-42.7264-42.7264 0-23.552 19.1744-42.7264 42.7264-42.7264s42.7264 19.1744 42.7264 42.7264c0 23.5776-19.1744 42.7264-42.7264 42.7264zM810.3424 630.7584c-46.1312 0-83.6864 37.5296-83.6864 83.6864 0 46.1568 37.5296 83.6864 83.6864 83.6864 46.1568 0 83.6864-37.5296 83.6864-83.6864 0-46.1312-37.5552-83.6864-83.6864-83.6864z m0 121.2928c-20.736 0-37.6064-16.8704-37.6064-37.6064s16.8704-37.6064 37.6064-37.6064 37.6064 16.8704 37.6064 37.6064-16.8704 37.6064-37.6064 37.6064zM120.192 377.2672h325.0176c27.6992 0 50.2528-22.528 50.2528-50.2528V169.1648c0-27.6992-22.528-50.2528-50.2528-50.2528H120.192c-27.6992 0-50.2528 22.528-50.2528 50.2528v157.8496c0.0256 27.7248 22.5536 50.2528 50.2528 50.2528z m-4.1472-208.1024c0-2.304 1.8688-4.1728 4.1728-4.1728h325.0176c2.304 0 4.1728 1.8688 4.1728 4.1728v157.8496c0 2.304-1.8688 4.1728-4.1728 4.1728H120.192c-2.304 0-4.1728-1.8688-4.1728-4.1728V169.1648z" fill="#474E54" p-id="6392"></path></svg>