<?xml version="1.0" standalone="no"?><!DOCTYPE svg PUBLIC "-//W3C//DTD SVG 1.1//EN" "http://www.w3.org/Graphics/SVG/1.1/DTD/svg11.dtd"><svg t="1708930566979" class="icon" viewBox="0 0 1024 1024" version="1.1" xmlns="http://www.w3.org/2000/svg" p-id="1569" xmlns:xlink="http://www.w3.org/1999/xlink" width="200" height="200"><path d="M708.45 217.52a146.05 146.05 0 1 1-145.92 148.1A146 146 0 0 0 663.1 226.89v-2.18a146 146 0 0 1 45.35-7.19z" fill="#FFD72E" p-id="1570"></path><path d="M680.17 506.63V780a163 163 0 1 1-326 0V506.48A145.75 145.75 0 0 0 471 365.5v-0.12a146.64 146.64 0 0 0 91.44 0.24 145.75 145.75 0 0 0 117.64 141z" fill="#FFFFFF" p-id="1571"></path><path d="M663.08 224.71v2.18a145.93 145.93 0 1 1-291.86 0v-2a145.93 145.93 0 0 1 291.83-0.13z" fill="#FFD72E" p-id="1572"></path><path d="M471.09 365.38v0.12a145.78 145.78 0 1 1-100.22-140.67h0.38v2a146 146 0 0 0 99.84 138.55z" fill="#FFD72E" p-id="1573"></path><path d="M517.17 394.07A167.06 167.06 0 0 1 350 226.89v-2.36a167.19 167.19 0 0 1 334.35-0.13l-42.52 0.62a124.67 124.67 0 0 0-249.31 0.11v1.76a124.77 124.77 0 0 0 163.4 118.53l13.22 40.41a166.94 166.94 0 0 1-51.97 8.24z" fill="#26251E" p-id="1574"></path><path d="M325.14 530.63c-92.19 0-167.19-75-167.19-167.19s75-167.18 167.19-167.18a167 167 0 0 1 52.39 8.38L364.21 245a124.9 124.9 0 1 0 85.58 120.19l42.52 0.57a167 167 0 0 1-167.17 164.87zM708.45 530.63a167 167 0 0 1-167.18-164.7 21.26 21.26 0 0 1 14.66-20.52 124.37 124.37 0 0 0 85.91-118.52V225a21.26 21.26 0 0 1 14.66-20.5 167.25 167.25 0 0 1 52-8.24c92.18 0 167.18 75 167.18 167.18s-75.05 167.19-167.23 167.19zM584.84 379.82q0.75 5.75 2 11.37a124.59 124.59 0 1 0 96.89-150 167.36 167.36 0 0 1-98.92 138.6z" fill="#26251E" p-id="1575"></path><path d="M669.38 245.02l-13.39-40.35 0.42-0.14 13.39 40.35-0.42 0.14zM541.27 365.5h42.52v0.12h-42.52zM517.17 964.29A184.25 184.25 0 0 1 332.91 780V506.49h42.52V780a141.73 141.73 0 0 0 141.74 141.78c78.16 0 141.74-63.58 141.74-141.74V506.63h42.52V780c0 101.64-82.66 184.29-184.26 184.29z" fill="#26251E" p-id="1576"></path><path d="M517.17 809.77a21.19 21.19 0 0 1-15-6.23l-54.71-54.71a21.26 21.26 0 1 1 30.07-30.07l54.71 54.71a21.26 21.26 0 0 1-15 36.29z" fill="#26251E" p-id="1577"></path><path d="M517.17 961.94a21.26 21.26 0 0 1-21.26-21.26v-363a21.26 21.26 0 1 1 42.52 0v363a21.26 21.26 0 0 1-21.26 21.26z" fill="#26251E" p-id="1578"></path><path d="M517.17 718.66a21.26 21.26 0 0 1-15-36.29l54.71-54.71a21.26 21.26 0 0 1 30.07 30.07l-54.75 54.71a21.19 21.19 0 0 1-15.03 6.22zM517.17 900.89a21.26 21.26 0 0 1-15-36.29l54.71-54.71A21.26 21.26 0 0 1 586.91 840l-54.71 54.66a21.19 21.19 0 0 1-15.03 6.23z" fill="#26251E" p-id="1579"></path></svg>