<?xml version="1.0" standalone="no"?><!DOCTYPE svg PUBLIC "-//W3C//DTD SVG 1.1//EN" "http://www.w3.org/Graphics/SVG/1.1/DTD/svg11.dtd"><svg t="1708588219801" class="icon" viewBox="0 0 1024 1024" version="1.1" xmlns="http://www.w3.org/2000/svg" p-id="31398" xmlns:xlink="http://www.w3.org/1999/xlink" width="200" height="200"><path d="M1.024 512c0 182.272 97.792 350.208 256 441.856s352.256 91.136 510.464 0 256-259.072 256-441.856c-1.536-281.6-230.4-510.464-512-510.464S1.024 230.4 1.024 512z" fill="#25AE2C" opacity=".2" p-id="31399"></path><path d="M278.528 334.336c0-27.136 27.136-54.272 54.272-54.272h462.336c27.136 0 48.128 20.992 48.128 48.128v305.664c0 27.136-20.992 48.128-48.128 48.128h-460.8c-27.136 0-48.128-20.992-48.128-48.128V334.336h-7.68z" fill="#25AE2C" fill-opacity=".5" p-id="31400"></path><path d="M204.8 380.928c0-27.136 20.992-48.128 48.128-48.128h462.336c27.136 0 48.128 20.992 48.128 48.128v307.2c0 27.136-20.992 48.128-48.128 48.128H251.392c-27.136 0-48.128-20.992-48.128-48.128v-307.2h1.536z" fill="#25AE2C" p-id="31401"></path><path d="M204.8 408.064h558.592v54.272H204.8V408.064z m46.592 177.664h102.4v75.264h-102.4v-75.264z" fill="#FFFFFF" p-id="31402"></path></svg>