<?xml version="1.0" standalone="no"?><!DOCTYPE svg PUBLIC "-//W3C//DTD SVG 1.1//EN" "http://www.w3.org/Graphics/SVG/1.1/DTD/svg11.dtd"><svg t="1708593697301" class="icon" viewBox="0 0 1024 1024" version="1.1" xmlns="http://www.w3.org/2000/svg" p-id="33483" xmlns:xlink="http://www.w3.org/1999/xlink" width="200" height="200"><path d="M859.2 584L473.6 811.2c-60.8 35.2-137.6 14.4-172.8-46.4L171.2 537.6c-35.2-60.8-14.4-140.8 46.4-176l385.6-228.8C664 97.6 740.8 118.4 776 179.2l129.6 227.2c35.2 64 14.4 142.4-46.4 177.6z" fill="#E1E1DF" p-id="33484"></path><path d="M849.6 707.2L419.2 824C352 841.6 281.6 801.6 264 732.8L196.8 480c-17.6-68.8 22.4-139.2 89.6-158.4l430.4-116.8C784 187.2 854.4 227.2 872 296l67.2 254.4c17.6 68.8-22.4 139.2-89.6 156.8z" fill="#D8D8D8" p-id="33485"></path><path d="M811.2 916.8H265.6c-70.4 0-128-57.6-128-128V459.2c0-70.4 57.6-128 128-128h545.6c70.4 0 128 57.6 128 128v329.6c0 70.4-57.6 128-128 128z" fill="#4E8DF6" p-id="33486"></path><path d="M960 704H768c-17.6 0-32-14.4-32-32v-99.2c0-17.6 14.4-32 32-32h192c17.6 0 32 14.4 32 32V672c0 17.6-14.4 32-32 32zM32 737.6a179.2 176 90 1 0 352 0 179.2 176 90 1 0-352 0z" fill="#2166CC" p-id="33487"></path><path d="M217.6 814.4l1.6 4.8c3.2 6.4 9.6 11.2 16 11.2 1.6 0 3.2 0 6.4-1.6 9.6-3.2 12.8-12.8 9.6-22.4L248 800c6.4-4.8 12.8-11.2 16-19.2 4.8-11.2 4.8-24 1.6-35.2-8-24-35.2-36.8-59.2-28.8l-11.2 3.2c-6.4 0-11.2-4.8-12.8-11.2 0-3.2 1.6-8 4.8-9.6l22.4-8c3.2 9.6 12.8 14.4 22.4 11.2 9.6-3.2 14.4-12.8 11.2-22.4v-1.6c-3.2-8-9.6-16-17.6-19.2-8-3.2-17.6-4.8-25.6-1.6l-3.2-6.4c-3.2-9.6-12.8-14.4-22.4-11.2-9.6 3.2-14.4 12.8-11.2 22.4v1.6l3.2 6.4c-20.8 14.4-25.6 43.2-11.2 64 11.2 17.6 33.6 24 52.8 17.6l11.2-4.8c6.4-1.6 12.8 1.6 14.4 6.4 1.6 3.2 1.6 6.4 0 9.6-1.6 3.2-3.2 4.8-6.4 6.4l-22.4 8c-3.2-9.6-12.8-14.4-20.8-12.8-9.6 3.2-14.4 12.8-11.2 20.8 0 1.6 0 1.6 1.6 3.2 4.8 14.4 17.6 22.4 32 22.4 3.2 6.4 8 4.8 11.2 3.2z" fill="#FFFFFF" p-id="33488"></path></svg>