<?xml version="1.0" standalone="no"?><!DOCTYPE svg PUBLIC "-//W3C//DTD SVG 1.1//EN" "http://www.w3.org/Graphics/SVG/1.1/DTD/svg11.dtd"><svg t="1708567947093" class="icon" viewBox="0 0 1024 1024" version="1.1" xmlns="http://www.w3.org/2000/svg" p-id="11070" xmlns:xlink="http://www.w3.org/1999/xlink" width="200" height="200"><path d="M71.68 522.24L530.432 47.104 983.04 522.24z" fill="#EAF3FF" p-id="11071"></path><path d="M71.68 522.24L518.144 47.104 782.336 327.68z" fill="#DAE9FF" p-id="11072"></path><path d="M681.984 1024L573.44 931.84H260.096c-36.864 0-90.112-28.672-90.112-71.68V593.92v-10.24H104.448c-30.72 0-57.344-18.432-69.632-47.104-10.24-26.624-4.096-59.392 16.384-79.872L468.992 53.248c28.672-28.672 75.776-28.672 104.448 0l415.744 403.456c20.48 20.48 28.672 51.2 18.432 77.824-10.24 28.672-38.912 47.104-69.632 47.104h-51.2v276.48c0 45.056-53.248 71.68-90.112 71.68h-71.68v-61.44h71.68c10.24 0 24.576-8.192 28.672-12.288V591.872c0-59.392 30.72-71.68 57.344-71.68h55.296c8.192 0 12.288-6.144 12.288-8.192 2.048-4.096 0-8.192-2.048-10.24L532.48 96.256c-4.096-4.096-6.144-4.096-10.24-4.096s-6.144 0-10.24 4.096L94.208 499.712c-4.096 4.096-4.096 8.192-2.048 12.288 0 2.048 4.096 8.192 12.288 8.192h69.632c26.624 0 57.344 12.288 57.344 71.68v264.192c4.096 4.096 18.432 12.288 28.672 12.288h335.872l124.928 106.496-38.912 49.152z" fill="#3988FF" p-id="11073"></path><path d="M81.92 225.28m-61.44 0a61.44 61.44 0 1 0 122.88 0 61.44 61.44 0 1 0-122.88 0Z" fill="#DAE9FF" p-id="11074"></path><path d="M460.8 634.88c-16.384 0-30.72-14.336-30.72-30.72s14.336-30.72 30.72-30.72 30.72 14.336 30.72 30.72-14.336 30.72-30.72 30.72z m143.36 0c-16.384 0-30.72-14.336-30.72-30.72s14.336-30.72 30.72-30.72 30.72 14.336 30.72 30.72-14.336 30.72-30.72 30.72zM471.04 716.8c0-12.288 8.192-20.48 20.48-20.48s20.48 8.192 20.48 20.48 8.192 20.48 20.48 20.48 20.48-8.192 20.48-20.48 8.192-20.48 20.48-20.48 20.48 8.192 20.48 20.48c0 34.816-26.624 61.44-61.44 61.44s-61.44-26.624-61.44-61.44z" fill="#3889FF" p-id="11075"></path></svg>