<?xml version="1.0" standalone="no"?><!DOCTYPE svg PUBLIC "-//W3C//DTD SVG 1.1//EN" "http://www.w3.org/Graphics/SVG/1.1/DTD/svg11.dtd"><svg t="1708568721443" class="icon" viewBox="0 0 1147 1024" version="1.1" xmlns="http://www.w3.org/2000/svg" p-id="20221" xmlns:xlink="http://www.w3.org/1999/xlink" width="224.0234375" height="200"><path d="M688.451308 298.165801h247.187593A181.699812 181.699812 0 0 1 1117.254059 479.814821v340.306207a181.750603 181.750603 0 0 1-181.750603 181.66595H209.48302A181.750603 181.750603 0 0 1 27.732416 820.137958v-340.306206a181.716742 181.716742 0 0 1 181.547436-181.665951h479.137595z" fill="#F5CB25" p-id="20222"></path><path d="M938.804934 263.813498H689.077742v55.871169h249.727192a153.391753 153.391753 0 0 1 153.222446 153.222446v341.999272a153.391753 153.391753 0 0 1-153.222446 153.222447h-729.711319a153.391753 153.391753 0 0 1-153.222447-153.222447v-341.999272a153.391753 153.391753 0 0 1 153.222447-153.222446H462.206938v-55.871169H209.093615A209.330644 209.330644 0 0 0 0 472.907113v341.999272a209.330644 209.330644 0 0 0 209.093615 209.093615h729.711319A209.330644 209.330644 0 0 0 1147.898548 814.906385v-341.999272a209.330644 209.330644 0 0 0-209.093614-209.093615z" fill="#333333" p-id="20223"></path><path d="M580.213617 693.564366a21.163321 21.163321 0 0 1-21.163321-21.163321V21.163321a21.163321 21.163321 0 1 1 42.326643 0v651.237724a21.163321 21.163321 0 0 1-21.163322 21.163321z" fill="#333333" p-id="20224"></path><path d="M708.751166 171.896961a21.095599 21.095599 0 0 1-14.966701-6.19662l-127.978837-127.978837A21.166707 21.166707 0 1 1 595.73903 7.788102l127.978836 127.978837a21.163321 21.163321 0 0 1-14.9667 36.130022z" fill="#333333" p-id="20225"></path><path d="M450.626368 172.794286a21.163321 21.163321 0 0 1-14.966701-36.130022l127.978837-127.978837a21.171787 21.171787 0 0 1 29.933402 29.950332L465.593069 166.597665a21.095599 21.095599 0 0 1-14.966701 6.196621z" fill="#333333" p-id="20226"></path></svg>