<?xml version="1.0" standalone="no"?><!DOCTYPE svg PUBLIC "-//W3C//DTD SVG 1.1//EN" "http://www.w3.org/Graphics/SVG/1.1/DTD/svg11.dtd"><svg t="1708568046171" class="icon" viewBox="0 0 1024 1024" version="1.1" xmlns="http://www.w3.org/2000/svg" p-id="15429" xmlns:xlink="http://www.w3.org/1999/xlink" width="200" height="200"><path d="M831.888 911.187h-638.466c-34.006 0-36.773-35.244-36.773-35.244l-0.437-585.965h214.594c18.496 0 26.652-23.010 26.652-23.010v-156.995h433.266c37.065 0 37.065 34.443 37.065 34.443v731.527c0 0 0 35.244-35.899 35.244zM796.718 750.843v0 0c0 0 0 0 0 0v-23.010c-25.777-7.792-45.074-16.53-53.157-37.792h-37.356c10.485 40.050 35.681 55.633 90.512 60.803zM607.537 760.091h37.137c26.506 0.655 42.89-14.272 42.089-35.462v-43.982h109.664v-30.437h-109.664v-18.932h-38.593v18.932h-119.057l-1.165 22.355v8.156h120.149v40.778c0.801 9.248-7.865 9.977-19.151 9.321h-21.408v29.273zM527.583 751.716c49.079-8.519 81.338-27.525 91.823-60.147h-41.579c-8.010 20.534-23.666 27.817-50.244 36.336l-0.801 13.107 0.801 10.704zM475.809 541.2h-125.611c4.005-7.792 7.282-16.165 9.684-28.981h-45.875c-0.801 10.631-3.204 19.078-7.282 28.981h-79.153v207.894h198.646c31.385 0.729 50.39-12.743 49.589-40.414v-167.481zM807.203 612.852c-37.866-4.951-69.031-9.612-97.212-17.404 23.301-9.903 42.962-23.593 67.138-46.313v-26.943h-136.17c4.005-4.297 7.282-6.554 9.684-11.505h-42.235c-12.087 19.879-43.545 36.7-80.537 45.875v19.151c4.005-0.655 16.603-1.747 23.811-3.204 10.485-2.112 18.131-3.859 22.938-5.315 16.894 12.015 28.108 19.733 45.803 28.253-27.379 7.063-61.677 11.724-103.474 17.404v24.54c60.366-6.407 113.158-14.563 146.946-24.467 33.788 9.903 86.143 18.059 143.306 24.467v-24.54zM616.93 550.448h98.886c-19.297 16.311-31.166 22.064-51.264 30.583-17.695-8.519-30.583-17.695-49.079-30.511l1.456-0.073zM411.803 722.225h-136.387v-62.988h151.971l1.165 50.463c-6.335 17.185-3.859 7.427-16.748 12.525zM274.25 568.361h153.136v63.789h-151.971l-1.165-63.789zM356.971 109.973v139.228h-200.031l200.031-139.228z" fill="#ff8400" p-id="15430"></path></svg>