<?xml version="1.0" standalone="no"?><!DOCTYPE svg PUBLIC "-//W3C//DTD SVG 1.1//EN" "http://www.w3.org/Graphics/SVG/1.1/DTD/svg11.dtd"><svg t="1708568026963" class="icon" viewBox="0 0 1024 1024" version="1.1" xmlns="http://www.w3.org/2000/svg" p-id="14457" xmlns:xlink="http://www.w3.org/1999/xlink" width="200" height="200"><path d="M512 34.133333c263.918933 0 477.866667 213.947733 477.866667 477.866667s-213.947733 477.866667-477.866667 477.866667S34.133333 775.918933 34.133333 512 248.081067 34.133333 512 34.133333z m62.276267 571.648c-4.829867 1.604267-8.046933 3.217067-11.264 4.821334-16.1024 4.829867-32.196267 1.6128-48.298667-1.604267-3.217067-1.6128-4.821333 0-6.434133 3.217067-9.659733 19.319467-20.923733 40.2432-30.583467 59.562666a19.396267 19.396267 0 0 1-8.046933 8.0384c-11.264 3.2256-22.528-3.217067-25.7536-17.698133 0-3.2256-1.6128-4.829867-1.6128-8.055467-1.604267 8.055467-3.217067 16.1024 0 24.149334 3.2256 12.8768 12.885333 17.706667 22.536533 20.923733-11.264 22.528-20.923733 43.460267-32.187733 64.384 9.6512 3.217067 11.264 1.6128 16.093866-4.829867 9.659733-11.264 17.706667-22.528 25.7536-32.187733 4.829867-6.442667 9.659733-11.264 14.4896-16.1024l9.6512-4.821333c0 19.310933-1.604267 38.6304-1.604266 57.941333h8.046933c4.829867 0 6.434133-1.604267 6.434133-4.829867l9.659734-33.792c3.217067-8.055467 6.442667-14.498133 11.264-20.932266 4.829867-6.442667 11.264-4.829867 14.4896 1.6128 3.217067 4.821333 4.829867 9.6512 6.442666 14.481066 3.217067 12.885333 4.829867 27.3664 8.046934 40.2432 0 1.6128 1.604267 3.217067 3.217066 3.217067h11.264c0-53.12 0-106.24-1.604266-157.7472zM635.4432 264.533333c-22.536533 0-45.073067 0-67.6096 1.6128-19.310933 1.604267-37.0176 4.829867-56.337067 9.6512a519.415467 519.415467 0 0 0-115.8912 48.298667c-24.149333 12.868267-46.677333 27.357867-65.9968 49.8944-6.434133 6.434133-11.264 12.8768-16.093866 19.310933-9.659733-6.434133-17.706667-11.264-24.149334-17.706666-6.434133-3.217067-11.264-6.434133-17.698133-8.046934-8.055467-3.217067-17.706667 1.6128-20.932267 11.264-1.604267 4.8384-3.217067 11.272533-4.829866 16.1024a393.984 393.984 0 0 1-28.970667 86.920534c-4.829867 9.659733-8.046933 22.528-11.264 35.413333-4.829867 22.528 11.264 40.2432 28.970667 35.413333a115.908267 115.908267 0 0 0 43.460266-24.149333c16.093867-14.481067 25.7536-33.800533 24.149334-59.554133 0-12.885333-1.621333-27.3664-3.2256-40.2432 4.829867 1.6128 6.442667 4.829867 8.046933 9.659733 1.6128 6.442667 4.829867 14.4896 8.055467 20.923733 8.046933 17.706667 20.923733 32.196267 33.792 45.073067 41.856 41.847467 90.146133 69.205333 143.266133 83.703467 32.187733 9.6512 62.7712 11.264 94.967467 0 48.290133-16.1024 88.533333-51.515733 119.1168-99.797334 4.821333-8.055467 8.046933-14.4896 12.8768-22.536533-1.621333 0-4.829867 1.604267-6.442667 3.217067-1.6128 1.6128-4.829867 1.6128-6.434133 3.217066-40.2432 14.4896-80.4864 16.1024-120.7296 4.829867-33.792-9.659733-61.166933-28.970667-85.307734-59.562667-1.6128-1.604267-4.829867-4.821333-4.829866-8.0384-1.6128-1.6128 0-6.442667 1.6128-11.264 0 0 4.829867 0 6.434133 1.604267 1.6128 1.6128 3.217067 4.829867 4.829867 6.434133 16.093867 20.932267 33.800533 37.026133 56.337066 46.677334 37.026133 16.1024 75.656533 19.319467 114.286934 11.272533 14.481067-3.217067 27.3664-8.046933 40.2432-16.093867 4.821333-3.217067 11.264-6.442667 12.8768-12.885333 8.046933-22.528 16.093867-43.451733 17.706666-67.601067 1.604267-12.8768 1.604267-27.357867 0-41.847466-1.621333-19.319467-14.4896-32.196267-28.9792-40.2432-27.3664-16.093867-56.337067-19.310933-85.307733-20.923734z m-128.768 64.384c8.046933-1.604267 16.093867 6.442667 16.093867 16.093867 0 8.055467-6.442667 16.1024-16.1024 16.1024-8.046933 0-14.481067-8.046933-16.093867-16.1024 0-8.046933 6.442667-16.093867 16.093867-16.093867z m177.058133-49.8944c11.264 1.604267 22.528 3.217067 32.187734 8.046934 4.829867 1.604267 9.659733 4.829867 9.659733 11.264 0 6.442667-3.217067 12.885333-8.046933 14.4896-8.046933 4.829867-14.4896 6.434133-22.528 9.659733-14.498133 1.604267-30.592 3.217067-45.0816-1.6128l-9.6512-4.829867c-8.046933-4.829867-8.046933-14.4896-1.6128-20.923733 8.046933-8.046933 16.093867-11.264 25.7536-12.885333 6.442667-1.604267 12.885333-1.604267 19.319466-3.208534z" fill="#f6240a" p-id="14458"></path></svg>