<?xml version="1.0" standalone="no"?><!DOCTYPE svg PUBLIC "-//W3C//DTD SVG 1.1//EN" "http://www.w3.org/Graphics/SVG/1.1/DTD/svg11.dtd"><svg t="1708568716989" class="icon" viewBox="0 0 1142 1024" version="1.1" xmlns="http://www.w3.org/2000/svg" p-id="29018" xmlns:xlink="http://www.w3.org/1999/xlink" width="223.046875" height="200"><path d="M686.356266 294.855127h246.43537A181.146877 181.146877 0 0 1 1113.854117 475.951366v339.270613a181.197514 181.197514 0 0 1-181.197514 181.113119H208.845537A181.197514 181.197514 0 0 1 27.648023 815.238859v-339.270613a181.163756 181.163756 0 0 1 180.994964-181.113119h477.67952z" fill="#FFD20F" p-id="29019"></path><path d="M442.75659 521.187448a22.584283 22.584283 0 0 0-16.085816 38.518186l128.163272 128.163272a22.44925 22.44925 0 0 0 15.849508 6.515346h0.286945a22.077909 22.077909 0 0 0 15.714474-6.515346l128.163272-128.163272a22.668678 22.668678 0 0 0-16.052057-38.602581 22.415491 22.415491 0 0 0-15.900145 6.599741l-89.459416 89.459416V23.252966a22.63492 22.63492 0 1 0-45.25296 0v593.892365l-89.459416-89.459416a22.44925 22.44925 0 0 0-15.917024-6.515346z m698.796188-45.219202v339.270613c0 115.115701-93.696078 208.761141-208.845537 208.761141H208.845537C93.696078 1024 0 930.354559 0 815.238859v-339.270613c0-115.115701 93.594803-208.761141 208.659867-208.761142h251.988606v55.312926H208.659867a153.600128 153.600128 0 0 0-153.346942 153.465095v339.270613a153.600128 153.600128 0 0 0 153.600129 153.448216h723.743549a153.600128 153.600128 0 0 0 153.600128-153.448216v-339.270613a153.600128 153.600128 0 0 0-153.431337-153.465095h-246.43537V267.190225h246.43537a208.98057 208.98057 0 0 1 208.693625 208.761141z" fill="" p-id="29020"></path></svg>