<?xml version="1.0" standalone="no"?><!DOCTYPE svg PUBLIC "-//W3C//DTD SVG 1.1//EN" "http://www.w3.org/Graphics/SVG/1.1/DTD/svg11.dtd"><svg t="1708567217795" class="icon" viewBox="0 0 1024 1024" version="1.1" xmlns="http://www.w3.org/2000/svg" p-id="1093" xmlns:xlink="http://www.w3.org/1999/xlink" width="200" height="200"><path d="M550.83 757.58l140.84 171.79h221.74L784.56 791.53l-5.99-8.99-1-3.99-1-4v-10.98l1-4 1-3.99 2-5 3.99-5.99 4.99-8.99 6-6.99L924.4 578.78l8.99-10.99 6.99-9.98 4.99-9.99 6-9.99 3.99-9.99 3-9.99 2-9.98V478.9l-2-9.99-3-8.99-3.99-9.99-6-9.98-4.99-8-6.99-9.98L656.71 97.35l-43.95 38.95 132.85 160.81 7.99 10.99 5.99 10.99 3 5.99 1 4.99 0.99 6v4.99l-0.99 11.99-3 10.99-5 10.98-6.99 10.99-192.77 221.74-5 3.99-1.99 5-6 6.99-4.99 8.99-3 8.99-3.99 8.99-2 8.99-1 9.99-2 8.99v9.98l2 9.99 1 10.99 3 8.99 3.99 9.99 4 9.99 4.99 9.99 4 4.99 1.99 4z" fill="#004D28" p-id="1094"></path><path d="M346.07 337.07l1-15.99 3-16.98 1-7.99 2.99-8.99 6-14.98 6.99-13.98 3.99-7 4-6.99 9.99-11.98 8.99-12.99 12.98-9.98 11.99-9 13.98-8.98 13.98-7 14.99-4.99 8.99-3 7.99-1 7.99-1.99 8.99-1h7.99l8.99-2 14.98 2 14.98 2.99 14.99 2 13.98 6 6.99 2.99 6.99 3 13.99 6.99 12.98 7.99 10.99 9.99 8.99 10.99 5.99 4.99 4 5.99 9.98 10.99 7 13.98 6.99 13.99 1 6.99 2.99 6.99 4 14.98 3 14.99H580.8l-67.92-67.93-87.9 85.91 87.9 85.89 67.92-67.91h96.89l-3 16.97-4 13.99-2.99 6.99-1 6.99-6.99 13.99-7 13.98-9.98 10.98-9.99 10.99-8.99 10.99-10.99 9.99-6.99 3.99-5.99 4-7 3.99-6.99 3-13.98 5.99-13.98 5-14.99 3.99-14.98 2-14.98 1-16.98-1-16.98-2.99-7.99-1-8.99-3-14.99-5.99-13.98-7-6.99-3.99-6.99-4-11.99-9.98-12.98-9.99-8.99-11.99-9.99-12.98-7.99-13.99-6.99-12.98-6-15.98-2.99-7.99-1-8-2-8.98-1-7.99-1-7.99v-8.99z" fill="#D21B21" p-id="1095"></path><path d="M471.93 757.58L332.09 929.37H109.35L239.2 791.53l4.99-8.99 2-3.99 1-4v-10.98l-1-4-2-3.99-1-5-3.99-5.99-6-8.99-6.99-6.99L98.36 578.78l-7.99-10.99-6.99-9.98-5.99-9.99-5-9.99-3.99-9.99-3-9.99-3-9.98V478.9l3-9.99 3-8.99 3.99-9.99 4-9.98 6.99-8 6.99-9.98L367.05 97.35 411 136.3 278.15 297.11l-8.99 10.99-4.99 10.99-3 5.99-1 4.99-1.99 6v4.99l1.99 11.99 2 10.99 5.99 10.98 7 10.99 192.77 221.74 4 3.99 2.99 5 5 6.99 4.99 8.99 3.99 8.99 4 8.99 1 8.99 2 9.99 1 8.99v9.98l-1 9.99-2 10.99-2 8.99-4.99 9.99-4 9.99-4.99 9.99-3 4.99-2.99 4z" fill="#004D28" p-id="1096"></path></svg>