<?xml version="1.0" standalone="no"?><!DOCTYPE svg PUBLIC "-//W3C//DTD SVG 1.1//EN" "http://www.w3.org/Graphics/SVG/1.1/DTD/svg11.dtd"><svg t="1708568098263" class="icon" viewBox="0 0 1024 1024" version="1.1" xmlns="http://www.w3.org/2000/svg" p-id="18843" xmlns:xlink="http://www.w3.org/1999/xlink" width="200" height="200"><path d="M512.681455 0.00037a511.975882 511.975882 0 1 0 419.45012 804.604024 18.751888 18.751888 0 0 0 2.467353-3.330927l0.740206-0.986942a18.62852 18.62852 0 0 0 1.973883-8.265634 18.751888 18.751888 0 0 0-35.776628-7.772164 472.991694 472.991694 0 1 1 66.125078-135.704451 18.381785 18.381785 0 0 0-1.110309 5.921649 18.505152 18.505152 0 0 0 33.926113 10.362885h0.740206l0.986941-3.454295a18.505152 18.505152 0 0 0 1.110309-3.947766A511.852514 511.852514 0 0 0 512.681455 0.00037z" fill="#25B975" p-id="18844"></path><path d="M811.231246 463.862856a14.557387 14.557387 0 0 1 3.20756 3.947765c-23.069757-105.972839-148.041219-187.88898-300.647042-187.88898-168.520254 0-304.348072 99.804455-304.348073 222.061828v20.602403c0 122.134005 135.704451 222.061828 304.348073 222.061829C666.891058 744.15423 792.232623 661.62125 814.932276 555.154941c-1.727148 1.727148-1.727148 3.454295-3.454295 5.181442a164.942591 164.942591 0 0 1-44.659101 65.384872 204.296882 204.296882 0 0 0 48.113396-91.415453c-1.727148 1.727148-1.727148 3.454295-3.454295 5.181443-15.42096 48.113396-60.203429 89.44157-122.134005 113.498268l25.53711-263.143267h-3.454295l1.727147-6.90859c49.347073 25.783846 86.357378 61.683841 99.681088 103.135382a14.680754 14.680754 0 0 1 3.084192 3.824399 206.394133 206.394133 0 0 0-49.347073-91.538821 165.065959 165.065959 0 0 1 44.659101 65.50824z m-158.280737-87.714423l-1.727147 13.817181h-10.239518l-13.81718 151.248778L611.745704 629.17555h6.90859l-1.727148 27.510993h68.839167a375.037754 375.037754 0 0 1-135.704451 24.673537 375.037754 375.037754 0 0 1-135.70445-24.673537h75.624389s63.657724-10.362885 92.895865-32.692436a55.638825 55.638825 0 0 0 20.602403-53.294838 61.683841 61.683841 0 0 0-25.783846-58.476282 374.791019 374.791019 0 0 1-51.567691-46.386248 23.686595 23.686595 0 0 1-5.181443-6.908591c-1.727148-1.727148-1.727148-5.181443-3.454295-8.635737a38.243982 38.243982 0 0 1 8.635738-18.875256c10.362885-10.362885 36.146731-10.362885 39.601026-10.362885h49.347073v-27.757729h17.271475l5.181443-15.42096h-123.367682a109.920605 109.920605 0 0 0-61.683841 24.673537 63.657724 63.657724 0 0 0-24.673537 56.749133v20.602403c3.454295 29.238141 32.692436 44.659101 55.021987 58.476282a95.116483 95.116483 0 0 1 13.81718 10.362885 32.692436 32.692436 0 0 1 12.336768 18.875255 92.649129 92.649129 0 0 1-8.635738 18.875256 74.760815 74.760815 0 0 1-63.657724 29.238141h-64.027827v12.336768h-10.362885v5.181442c-44.782469-20.602403-86.357378-54.528516-86.357378-118.67971 0-111.030914 127.315448-166.793106 270.051857-166.793106a377.011637 377.011637 0 0 1 151.742249 28.374566z" fill="#25B975" p-id="18845"></path><path d="M956.31164 725.155607m-28.251199 0a28.251199 28.251199 0 1 0 56.502398 0 28.251199 28.251199 0 1 0-56.502398 0Z" fill="#25B975" p-id="18846"></path></svg>