<?xml version="1.0" standalone="no"?><!DOCTYPE svg PUBLIC "-//W3C//DTD SVG 1.1//EN" "http://www.w3.org/Graphics/SVG/1.1/DTD/svg11.dtd"><svg t="1709282480742" class="icon" viewBox="0 0 1024 1024" version="1.1" xmlns="http://www.w3.org/2000/svg" p-id="18574" xmlns:xlink="http://www.w3.org/1999/xlink" width="64" height="64"><path d="M930.250072 723.752718c-9.581582-8.606357-21.040471-14.335802-30.597673-18.163559 36.327117-34.425429 49.712075-81.260592 50.66292-112.809109v-136.726493c0-2.852532-24.868228-210.331572-204.602127-269.600848 22.96654-23.893003 47.810387-60.220121 50.6873-100.374995 0.975225-18.163559-4.778601-35.376273-18.163559-48.761231C742.86066 0.014141 662.550911 0.014141 651.067641 0.014141c-12.434114 0-95.572014-1.901688-133.84958 38.277566a69.752942 69.752942 0 0 0-19.114402 55.41714c2.876913 33.474585 28.695985 66.92479 50.662919 89.89133-186.414188 56.392364-213.184104 269.600848-213.184104 272.45338v54.515057H72.661915a23.649197 23.649197 0 0 0-23.893004 23.893003v190.241945c0 7.655513 2.876913 14.360183 8.606358 19.138783l342.255083 274.379449c3.827757 3.827757 9.557201 4.778601 15.311026 4.778601h83.162281c2.876913 0 5.753825 0 7.655513-0.975225l387.188558-136.702112c9.581582-2.852532 62.17057-22.942159 62.17057-98.473307 0-33.450205-13.409339-52.588988-24.868228-63.097033z" fill="#206AF2" p-id="18575"></path><path d="M544.963202 89.905471a23.137204 23.137204 0 0 1 5.729445-19.138783c18.163559-19.114403 69.801703-24.868228 98.473306-23.893004h0.975225c22.917779 0 75.506767 4.778601 92.719482 22.942159 3.827757 3.827757 4.778601 7.655513 4.7786 13.409339-1.926069 35.351893-38.253186 72.654235-59.269277 90.817794a362.393472 362.393472 0 0 0-46.859543-2.876913c-13.384958 0-25.819072 0.975225-38.228805 1.901688-17.212715-16.23749-56.416745-56.392364-58.318433-83.16228z" fill="#F9F8F6" p-id="18576"></path><path d="M642.461284 218.95207c224.691754 0 257.191115 220.863998 259.092803 240.929244v132.874356c0 4.802981-4.778601 108.054889-121.415466 108.054888H729.475702c-13.409339-42.056562-52.588988-59.269277-81.260593-61.195345h-144.357625c-11.48327-70.752547-70.752547-106.10444-122.390691-121.415466v-58.318433c4.778601-21.016091 37.302342-240.929244 260.994491-240.929244z" fill="#BCD2FB" p-id="18577"></path><path d="M879.562772 838.463515c-0.950844 0-0.950844 0-1.901688 0.975224l-383.385182 135.751268h-70.728166L96.554918 713.244672V558.33024h240.904864c12.434114 0.975225 121.415466 14.335802 121.415466 105.177976 0 13.384958 10.532426 23.893003 23.893003 23.893004h164.471634c5.729445 0 39.179649 3.827757 39.179649 43.98263s-23.893003 47.786007-30.597672 48.761232H414.965759a23.649197 23.649197 0 0 0-23.893003 23.893003c0 13.384958 10.483665 23.893003 23.893003 23.893004h245.707845c23.893003-2.852532 65.949565-22.917779 73.605079-79.334524h128.120135c6.680289 0 25.794691 0.950844 36.327118 10.508045 5.729445 5.729445 9.557201 14.335802 9.557201 26.769916-0.975225 43.031787-25.819072 52.588988-28.695985 52.588989z" fill="#F9F8F6" p-id="18578"></path><path d="M565.028449 458.93047a23.649197 23.649197 0 0 0-23.893004 23.893003c0 13.409339 10.508045 23.893003 23.893004 23.893004h57.367588v71.727771c0 13.384958 10.508045 23.893003 23.893004 23.893004a23.649197 23.649197 0 0 0 23.893003-23.893004v-71.703391h47.810388a23.649197 23.649197 0 0 0 23.893003-23.893003 23.649197 23.649197 0 0 0-23.893003-23.917384h-47.786007v-28.695985h47.786007a23.649197 23.649197 0 0 0 23.893003-23.893003 23.649197 23.649197 0 0 0-23.893003-23.893003h-32.499361l27.72076-38.253186c7.655513-10.508045 4.778601-25.794691-5.729445-33.450205-10.508045-7.655513-25.819072-4.778601-33.474585 5.729444l-29.622448 42.080943-37.302342-43.982631c-8.581977-9.557201-23.893003-11.458889-33.450205-2.876912-9.557201 8.606357-11.458889 23.893003-2.876913 33.474585l31.548517 37.277962h-37.277961a23.649197 23.649197 0 0 0-23.893004 23.893003c0 13.409339 10.508045 23.893003 23.893004 23.893003h57.367588v28.695985h-57.367588z" fill="#206AF2" p-id="18579"></path></svg>