<?xml version="1.0" standalone="no"?><!DOCTYPE svg PUBLIC "-//W3C//DTD SVG 1.1//EN" "http://www.w3.org/Graphics/SVG/1.1/DTD/svg11.dtd"><svg t="1709282528015" class="icon" viewBox="0 0 1024 1024" version="1.1" xmlns="http://www.w3.org/2000/svg" p-id="19690" xmlns:xlink="http://www.w3.org/1999/xlink" width="64" height="64"><path d="M182.6 324.3c-37.7-15.7-66.5-51.3-73.9-91.5 24.8 2.3 47.3-13 71-20.3 31.5-9.7 67.2-4.8 94.8 13.1 3.9 2.5 8.2 7.3 5.6 11.3l109.7 95.6-89.5 174-56.2 42-121.7-42.6-4-21.3c-0.5-59.6 26.7-118.9 72.4-157.3" fill="#EBA747" p-id="19691"></path><path d="M411.5 258.5c65.1-9.1 131.4-10.6 196.8-4.5 74.7 7 153.8 26.9 202.7 83.7 14.5 16.8 25.7 36.1 35.3 56 28.5 59.1 43.6 126.8 30.3 191.1s-58.3 123.9-120.9 143.7l-11.5 7.6c3.1 26.4 0.9 53.4-6.5 79-1.3 4.5-3 9.3-6.6 12.3-3.9 3.2-9.2 3.8-14.2 4.2-43.3 3.4-86.9 1.7-129.9-4.8 4.8-6.9 9.6-14.2 10.8-22.5s-1.9-17.9-9.5-21.5c-4-1.9-8.6-1.9-13-1.9-53.2 0.5-106.5 2.8-159.5 6.9 3.5 13.5 3.1 27.9-1 41.3-1.2 4-3 8.2-6.7 10.3-3 1.7-6.6 1.8-10 1.7-41.4-0.7-82.7-4.8-123.4-12.5 22.6-8 33.1-39.2 19.9-59.2-9.2-13.9-25.8-20.4-40.7-27.8-50.3-24.8-91.3-67.8-113.7-119.2l-16-47.4" fill="#EBA747" p-id="19692"></path><path d="M200.9 613.2h-69.7c-25.9 0-47.1-21.2-47.1-47.1v-29.6c0-25.9 21.2-47.1 47.1-47.1h69.7c25.9 0 47.1 21.2 47.1 47.1v29.6c0 25.9-21.2 47.1-47.1 47.1z" fill="#EBA747" p-id="19693"></path><path d="M185.4 317.8c-47.1 40-74.9 100.8-74.6 162.6 0 9.6 15 9.7 15 0-0.3-58.1 25.9-114.4 70.2-152 7.4-6.2-3.2-16.8-10.6-10.6zM133.7 622.1c15.7 35.7 40.2 67.6 70.5 92.1 15 12.2 31.3 22.6 48.7 31 15.1 7.3 35 15 39.3 33.2 3.5 14.9-4.7 33.3-19.4 38.8-6.2 2.3-8 13 0 14.5 35.3 6.6 71.1 10.8 106.9 12.3 8 0.3 16.4 1.2 24.3 0.2 8.1-1 13.5-5.9 16.5-13.3 6.4-15.3 6.3-33.4 2.4-49.2-2.4 3.2-4.8 6.3-7.2 9.5 37.7-2.9 75.4-4.9 113.2-6 9.5-0.3 19.1-0.5 28.6-0.7 4.6-0.1 9.2-0.1 13.8-0.2 3.8 0 8.2-0.5 11.9 0.5 5.6 1.5 7.7 7.3 7.4 12.7-0.4 7.9-5.7 15.1-10.1 21.3-2.5 3.7-0.1 10.3 4.5 11 34 5.1 68.4 7.5 102.7 6.6 8.4-0.2 16.8-0.6 25.2-1.2 7.3-0.5 15.1-0.8 21.3-5 6.2-4.2 8.9-11.2 10.9-18.1 2.3-8 4.1-16.2 5.4-24.5 2.8-18.5 3.3-37.1 1.2-55.6-0.5-4-3.1-7.5-7.5-7.5-3.7 0-8 3.4-7.5 7.5 2.2 19 1.8 38.3-1.6 57.1-1.5 8.2-2.8 18.1-6.7 25.5-3.7 6.9-14.7 5.6-21.3 6-39.4 2.4-79.1 0.7-118.2-5.2 1.5 3.7 3 7.3 4.5 11 7.7-11.2 14.9-24.2 11-38.2-1.6-5.8-5.1-11.2-10.1-14.7-6.2-4.2-13.8-4.3-21-4.2-33.5 0.3-67 1.4-100.5 3.2-19 1-38.1 2.3-57.1 3.7-4.9 0.4-8.5 4.5-7.2 9.5 1.7 7.1 2.4 14.2 2 21.4-0.4 6.2-1.3 13.8-4.3 19.3-2.7 4.9-10.2 3-14.9 2.9-7.8-0.2-15.5-0.5-23.3-1-30.7-1.8-61.2-5.5-91.3-11.2v14.5c16.6-6.2 28-21.3 30.6-38.7 2.9-20.2-6.7-37-23.3-48.1-8.5-5.7-17.9-9.7-27-14.2-9.3-4.6-18.3-9.9-26.9-15.7-17.3-11.7-33-25.8-46.6-41.7-15.2-17.6-27.5-37.5-36.9-58.8-1.6-3.7-7-4.5-10.3-2.7-3.8 2.3-4.3 6.7-2.6 10.4z" fill="#60351A" p-id="19694"></path><path d="M147 601.6c-22.4 0-43.1-12.3-51.6-33.6-8.4-21.1-2.9-46 13.8-61.4 16.5-15.2 42.7-18.4 62.5-7.8 20.4 10.8 31 32.9 28.5 55.6-3.1 26.7-26.6 46.9-53.2 47.2-9.6 0.1-9.7 15.1 0 15 29.9-0.3 56.9-20.1 65.6-49 8.3-27.8-1.5-58.6-24.6-76.1-22.6-17.2-55.8-18.5-79.7-3-24.6 15.9-36 45.5-30.2 73.9 6.7 32.5 36.5 54.2 68.9 54.2 9.7 0 9.7-15 0-15zM472.1 313.9H621c9.7 0 9.7-15 0-15H472.1c-9.7 0-9.7 15 0 15zM149.8 651c20.8 20.2 56 15 68.9-11.4 4.2-8.6-8.7-16.2-13-7.6-8.6 17.5-31.1 22.2-45.4 8.4-6.8-6.8-17.4 3.8-10.5 10.6zM193.7 407.4c-14.1 5.5-14 23.2-0.1 28.8 2.4 1 5.6-0.2 7.3-1.9 5.5-5.5 7.9-13.1 6.4-20.7-1.3-6.9-7.3-14.3-15.2-11.6-7.7 2.7-10.1 13.4-10.7 20.6-0.6 6.9 0.3 17.1 7 21 8.4 4.8 15.3-3.2 17.7-10.5 2.5-7.7 1.6-16.3-2-23.5-3.8-7.5-13.9-11.5-18.9-2.7-4.1 7.2-3.4 17.5-0.6 25 3.3 9 17.8 5.1 14.5-4-1-2.6-1.6-5.1-1.6-7.9 0-1 0.1-2 0.2-3.1 0.2-0.8 0.4-1.7 0.6-2.5 0.6-1.6 0.1-1.2-1.4 1.3-1.3 0.3-2.5 0.7-3.8 1 0.4 0 0.9 0.1 1.3 0.1-1.3-0.3-2.5-0.7-3.8-1 1.7 1.2 1.9 6.6 1.9 8.3 0 1.5-0.2 2.8-0.7 4.3-0.2 0.7-0.4 1.3-0.7 1.9-0.9 1.2-0.3 1.1 1.5-0.4 1.3 0.3 2.5 0.7 3.8 1 1 1.3 1.1 1.1 0.4-0.7-0.2-0.9-0.4-1.8-0.4-2.8-0.1-1.6-0.1-3.3 0.1-4.8 0.2-1.4 0.5-2.9 1-4.3 0.3-0.9 0.6-1.8 1-2.7 0.3-0.9-0.2-0.7-1.4 0.6h-4c-1.3-0.2-0.2-1.1-0.5 0.4-0.1 0.7 0.2 1.6 0.1 2.3-0.2 1.9-1.2 3.5-2.5 4.8 2.4-0.6 4.9-1.3 7.3-1.9 0.2 0.1 0.5 0 0.1 0.1 3.8-1.5 6.4-5 5.2-9.2-0.9-3.7-5.3-6.8-9.1-5.3z" fill="#60351A" p-id="19695"></path><path d="M845.7 375.1c5.3 2.3 11.3 3 16.9 2 7.2-1.3 13.7-5.2 19.8-9.3 13.8-9.3 26.8-20.1 36.8-33.5 10-13.3 17-29.3 17.7-45.9 4.6 24.7-0.1 51.2-13.5 72.4-13.4 21.2-35.6 36.9-60.3 41.8-1 0.2-2.2 0.3-2.8-0.5s0.8-2.2 1.3-1.3" fill="#E2859C" p-id="19696"></path><path d="M843.7 382.3c12.5 5.1 25.5 2.3 36.8-4.4 11.1-6.5 21.6-14.7 30.9-23.6 18.3-17.5 31.6-40.3 33.1-66-4.9 0.7-9.8 1.3-14.7 2 4.3 24.1-0.9 49.6-14.9 69.8-6.2 9-14.5 16.9-23.7 22.9-4.6 3-9.5 5.7-14.6 7.7-4.3 1.7-10.8 4.8-15.5 4.3 1.3 0.3 2.5 0.7 3.8 1-0.3-0.2-0.5-0.4-0.8-0.5 1.1 1.5 2.3 3 3.4 4.5 0-0.2-0.1-0.4-0.1-0.7-0.3 1.9-0.5 3.9-0.8 5.8l-1.8 1.8h-7.6c0.2 0.1 0.3 0.2 0.5 0.3 8.4 4.8 15.9-8.1 7.6-13-9.3-5.4-17.5 8.3-8.8 14.3 5.9 4.1 15.9-0.3 21.9-2.5 14.7-5.4 28.1-14.1 38.9-25.4 23.9-25.1 32.7-60.5 26.8-94.2-1.5-8.7-14.3-6-14.7 2-1.2 21.1-12.7 39.7-27.5 54.2-7.6 7.4-15.9 13.9-24.8 19.7-9.4 6.2-18.5 10.1-29.5 5.6-3.8-1.5-8.2 1.7-9.2 5.2-1.2 4.3 1.6 7.7 5.3 9.2zM473.4 289.3h143.3c9.7 0 9.7-15 0-15H473.4c-9.6 0-9.6 15 0 15z" fill="#60351A" p-id="19697"></path><path d="M467.3 281.8v17.4c0 9.7 15 9.7 15 0v-17.4c0-9.6-15-9.6-15 0zM611.8 280.5v20.1c0 9.7 15 9.7 15 0v-20.1c0-9.7-15-9.7-15 0zM126.4 536.7c-1.6 7.8-0.6 15.2 3.4 22.1 2.2 3.9 8.7 5.3 11.8 1.5 7.7-9.4 7.7-21.4 0.2-31-3.8-4.9-10.9-1.4-12.5 3.3-3.1 8.8-3.1 18.5 0.4 27.2 2.2 5.6 10.4 8 13.7 1.8 4.2-7.7 4.2-16.7-0.4-24.3-1.6-2.7-5.3-4.6-8.5-3.4-4.2 1.5-7.7 5.1-7.2 9.9 0.4 4 3.2 7.5 7.5 7.5 3.7 0 7.9-3.4 7.5-7.5v0.3c-0.6 1.1-1.3 2.2-1.9 3.3l0.6-0.6c-1.1 0.6-2.2 1.3-3.3 1.9 0.3-0.1 0.6-0.2 0.8-0.3-2.8-1.1-5.6-2.3-8.5-3.4 1.8 3 2 6.1 0.4 9.2 4.6 0.6 9.1 1.2 13.7 1.8-2.6-6.5-2.7-12.6-0.4-19.2-4.2 1.1-8.4 2.2-12.5 3.3 2 2.6 1.8 7.2-0.2 9.8 3.9 0.5 7.9 1 11.8 1.5-1.9-3.3-2.6-6.8-1.8-10.6 1.8-9.5-12.7-13.6-14.6-4.1z" fill="#60351A" p-id="19698"></path><path d="M365.5 364.6c37.2-18.5 60.8-56.8 74-96.2 1.7-5.1 3.3-10.5 1.9-15.7-1.4-5.2-6.8-9.6-11.9-8-1.8 0.6-3.3 1.8-4.8 2.9-18.1 13.6-41.8 16.4-64.3 18.7-7.5 0.8-15.3 1.5-22.6-0.2-10.5-2.5-19-9.8-27.8-16-10.7-7.4-22.5-13.3-34.8-17.5-2.3-0.8-4.9-1.5-7.1-0.5-2.5 1.1-3.7 4-4.3 6.7-2.8 12.2 0.5 25.2 6.3 36.3 16.2 31 49.1 48.9 80.4 64.3 11.4 5.6 24.7 11.2 36.2 5.9" fill="#EBA747" p-id="19699"></path><path d="M275 233.9c15.2 16.9 34.1 32.5 57.3 35.6 13.4 1.8 26.9-0.6 40.2-2.3 13.7-1.7 27.4-3.4 41.2-5.2 4-0.5 7.5-3.1 7.5-7.5 0-3.7-3.5-8-7.5-7.5-12.8 1.6-25.5 3.2-38.3 4.8-12.3 1.5-24.9 3.9-37.3 3.2-21.5-1.2-38.8-16.5-52.5-31.8-6.4-7.1-17 3.5-10.6 10.7z" fill="#60351A" p-id="19700"></path><path d="M286.5 236.5c8.4-17.6-18.2-27.9-30.6-32.7-15.4-5.9-32.3-8.5-48.8-7.8-17.2 0.8-33 5.7-48.7 12.3-15.9 6.7-32.1 14.2-49.8 12.8-5.2-0.4-8.1 5.1-7.2 9.5 8.1 42.1 37.9 79.2 77.4 96 3.8 1.6 8 1.1 10.3-2.7 1.9-3.1 1-8.7-2.7-10.3-36.3-15.4-63-48.3-70.5-87-2.4 3.2-4.8 6.3-7.2 9.5 30.8 2.3 56.4-18.5 85.8-23.7 13.7-2.5 28.2-2 41.8 1.1 6.8 1.5 13.6 3.7 20 6.5 3.5 1.6 6.9 3.3 10.2 5.3 1.4 0.8 2.9 1.6 4.2 2.6 0.7 0.5 1.3 1 1.9 1.6 0.6 1.2 1 1 1-0.6-4.1 8.7 8.8 16.3 12.9 7.6zM413.5 261.6c65.2-9 131.6-10.3 197.1-4 50.8 4.9 103 15.7 147.5 41.9 22.5 13.3 42.4 30.7 57.6 52 17.5 24.6 30.6 52.8 40.5 81.2 18.9 54.2 25.3 114.7 6.8 170-15.5 46-48.2 87.4-92.8 108.1-5.3 2.5-10.8 4.5-16.5 6.3-9.2 2.9-5.2 17.4 4 14.5 49.9-16 89.2-55.5 110.8-102.6 25.1-54.8 25.2-117.1 9.9-174.6-8.1-30.4-20.2-60.1-35.6-87.6-14.5-25.8-33.1-48.5-56.7-66.4-43.4-33-98.2-47.7-151.4-54.9-66.1-8.9-133.8-8.9-200.1-1.5-8.4 0.9-16.9 2-25.3 3.2-4 0.6-6.2 5.7-5.2 9.2 1.4 4.3 5.3 5.7 9.4 5.2z" fill="#60351A" p-id="19701"></path><path d="M598.7 434.3c-25.2-30.5-73.9-42.2-110.4-27.3-18.4 7.5-32.7 21.6-39.7 40.3-6.2 16.4-5.2 36 4.3 51.1 22.4 35.6 70.7 32.4 105.7 45.8 6.7 2.6 14.6 7.1 19.9 12.9 2.4 2.6 4.7 6 6.5 9.9 0.6 1.2 1 2.3 1.6 4.6 0.5 1.9 1.2 5 1.2 5.2 2 16.6-6.5 30.6-21.3 39.2-18.2 10.7-41 12.3-61 4.9-18.6-6.8-33.8-22.4-38.7-40.6-4-14.9-27.2-8.6-23.1 6.4 11.6 43.1 57.6 67.5 100.2 61.7 20.7-2.8 41.6-12.1 54.8-28.7 12.8-16.2 17.2-38.6 9.8-58.2-16.1-42.9-64.2-44.4-101.8-55.2-9.2-2.7-16.4-5.3-24.4-10.9-1.9-1.4-5.2-4.3-7.4-7.1-1.4-1.7 1.4 2.2-0.6-0.9-0.5-0.8-1.1-1.7-1.5-2.5-0.5-0.8-0.9-1.7-1.4-2.6-1.2-2.4 0.2 1-0.6-1.4-2.5-7.2-2.7-13.5-1.3-19.8 0.4-1.9 1-3.8 1.6-5.7 0.9-2.6 0.3-1.2 1.6-3.7 0.9-1.8 1.9-3.6 3-5.3 1.3-2 1.7-2.5 2.5-3.5 12.8-15 32.3-19.7 52.5-17.8 19 1.8 38.4 11 51 26.2 4.1 5 12.7 4.3 17 0 4.9-4.9 4.1-11.9 0-17z" fill="#60351A" p-id="19702"></path><path d="M519 384v284.8c0 9.7 15 9.7 15 0V448v-64c0-9.6-15-9.7-15 0z" fill="#60351A" p-id="19703"></path><path d="M826 470.5c11.2 39.6 7.3 82.8-11.2 119.6-4.3 8.6 8.6 16.2 13 7.6 20.3-40.5 25-87.6 12.7-131.2-2.6-9.2-17.1-5.3-14.5 4zM802.8 624.3c-5.1 5.9-10.3 11.8-15.4 17.7-2.7 3.1-3 7.6 0 10.6 2.7 2.7 7.9 3.1 10.6 0 5.1-5.9 10.3-11.8 15.4-17.7 2.7-3.1 3-7.6 0-10.6-2.7-2.7-7.9-3.1-10.6 0z" fill="#FFFFFF" p-id="19704"></path></svg>