<?xml version="1.0" standalone="no"?><!DOCTYPE svg PUBLIC "-//W3C//DTD SVG 1.1//EN" "http://www.w3.org/Graphics/SVG/1.1/DTD/svg11.dtd"><svg t="1709282321327" class="icon" viewBox="0 0 1024 1024" version="1.1" xmlns="http://www.w3.org/2000/svg" p-id="9607" width="64" height="64" xmlns:xlink="http://www.w3.org/1999/xlink"><path d="M845.676005 665.415111a41.209535 41.209535 0 0 0-6.141414-21.783273l-39.187394-63.101414a69.07604 69.07604 0 0 1-7.383919-31.26303V354.976323c0-126.156283-102.242263-228.399838-228.363637-228.399838h-105.403475c-126.156283 0-228.398545 102.243556-228.398545 228.399838v194.292364a69.055354 69.055354 0 0 1-7.364525 31.26303l-39.175758 63.101414a41.094465 41.094465 0 0 0-0.98004 41.550869 41.076364 41.076364 0 0 0 35.767596 21.156202h585.722828c22.55903-0.102141 40.817778-18.368646 40.908283-40.925091z m0 0" fill="#FCCE5C" p-id="9608"></path><path d="M564.599641 126.597172L652.412813 3.633131H371.332571l87.863595 122.964041v35.131474h105.403475V126.597172z m0 0M839.534591 643.633131l-39.187394-63.101414a69.07604 69.07604 0 0 1-7.383919-31.26303V354.976323a228.227879 228.227879 0 0 0-47.939233-140.534949C698.120449 472.860444 532.973298 621.839515 377.837298 706.340202h426.913616a41.076364 41.076364 0 0 0 36.030061-21.004929 41.089293 41.089293 0 0 0-0.898586-41.702142h-0.347798z m0 0" fill="#FCCE5C" p-id="9609"></path><path d="M599.736288 390.11297v-11.253657c-0.100848-32.559838-26.475313-58.92396-59.035152-59.014465h-11.236848v-35.136646h-35.131475v35.136646h-11.257535a58.997657 58.997657 0 0 0-59.212283 58.833455c-0.100848 24.746667 15.266909 46.929455 38.480161 55.524849l31.989657 11.964767v66.909091h-11.257535a23.884283 23.884283 0 0 1-23.879112-23.884283v-11.252363h-35.136646v11.252363c0.076283 32.566303 26.454626 58.944646 59.015758 59.015758H540.685621c28.621576 0.116364 53.201455-20.318384 58.308525-48.484849 5.105778-28.161293-10.732606-55.929535-37.571232-65.868282l-31.974141-11.935031v-66.944h11.236848c13.207273 0 23.898505 10.691232 23.898505 23.88299v11.253657h35.152162z m-50.610425 76.60606c9.283232 3.590465 15.409131 12.514263 15.475071 22.459475 0 13.191758-10.692525 23.877818-23.898505 23.877818h-11.236848v-53.752242l19.660282 7.414949z m-54.79305-57.985293l-19.682263-7.368404a24.254061 24.254061 0 0 1-15.454384-22.490505c0-13.186586 10.691232-23.879111 23.879112-23.879111h11.257535v53.73802z m0 0" fill="#FFFFFF" p-id="9610"></path><path d="M863.236571 179.304727c-5.953939-36.055919-34.217374-64.312889-70.273293-70.268121 36.055919-5.964283 64.307717-34.217374 70.273293-70.268121 5.979798 36.045576 34.232889 64.293495 70.282343 70.268121-36.054626 5.959111-64.318061 34.212202-70.282343 70.268121zM72.681419 530.667313c-5.965576-36.050747-34.217374-64.302545-70.268121-70.268121 36.050747-5.964283 64.302545-34.222545 70.268121-70.273293 5.964283 36.050747 34.221253 64.30901 70.272 70.273293-36.050747 5.965576-64.307717 34.218667-70.272 70.268121z m0 0" fill="#FCCE5C" p-id="9611"></path><path d="M1013.78655 616.577293c-14.423919-24.263111-45.393455-32.87402-70.268121-19.529697l-249.288404 106.479192a34.819879 34.819879 0 0 1-13.883475 2.813414H371.332571c-19.409455 0-35.131475-15.702626-35.131475-35.131475s15.72202-35.136646 35.131475-35.136646h140.540121a105.404768 105.404768 0 0 0 105.404767-105.404768H324.948732a159.685818 159.685818 0 0 0-124.534949 59.893657l-110.157576 133.368242 124.025535 227.328 477.318465-114.757818a252.638384 252.638384 0 0 0 59.379071-21.778101l245.959111-125.924849c24.459636-15.385859 31.970263-47.597899 16.848161-72.219151z m0 0" fill="#FED9CA" p-id="9612"></path><path d="M174.741379 878.854465l39.540363 72.40404 477.318465-114.757818a252.638384 252.638384 0 0 0 59.379071-21.778101l133.010101-68.333899C662.954065 814.046384 369.594874 856.177778 174.741379 878.854465z m0 0" fill="#FEC1A8" p-id="9613"></path><path d="M2.413298 706.340202v316.211717H230.797621l52.69204-52.676525-210.808242-316.227232-70.268121 52.69204z m0 0" fill="#FD574A" p-id="9614"></path><path d="M125.392853 934.789172c0 19.404283 15.727192 35.136646 35.136647 35.136646 19.404283 0 35.131475-15.732364 35.131475-35.136646s-15.727192-35.131475-35.131475-35.131475c-19.409455 0-35.136646 15.727192-35.136647 35.131475z m0 0" fill="#FFFFFF" p-id="9615"></path></svg>